<?xml version="1.0" encoding="UTF-8" standalone="no"?>
<!-- Created with Inkscape (http://www.inkscape.org/) -->

<svg
   xmlns:dc="http://purl.org/dc/elements/1.1/"
   xmlns:cc="http://creativecommons.org/ns#"
   xmlns:rdf="http://www.w3.org/1999/02/22-rdf-syntax-ns#"
   xmlns:svg="http://www.w3.org/2000/svg"
   xmlns="http://www.w3.org/2000/svg"
   xmlns:sodipodi="http://sodipodi.sourceforge.net/DTD/sodipodi-0.dtd"
   xmlns:inkscape="http://www.inkscape.org/namespaces/inkscape"
   width="270.93332mm"
   height="270.93332mm"
   viewBox="0 0 270.93332 270.93333"
   version="1.1"
   id="svg193"
   inkscape:version="0.92.4 (5da689c313, 2019-01-14)"
   sodipodi:docname="Class_4_Spont.svg">
  <defs
     id="defs187" />
  <sodipodi:namedview
     id="base"
     pagecolor="#ffffff"
     bordercolor="#666666"
     borderopacity="1.0"
     inkscape:pageopacity="0.0"
     inkscape:pageshadow="2"
     inkscape:zoom="0.35"
     inkscape:cx="271.42857"
     inkscape:cy="380.85713"
     inkscape:document-units="mm"
     inkscape:current-layer="layer1"
     showgrid="false"
     inkscape:window-width="1920"
     inkscape:window-height="1017"
     inkscape:window-x="-8"
     inkscape:window-y="-8"
     inkscape:window-maximized="1" />
  <metadata
     id="metadata190">
    <rdf:RDF>
      <cc:Work
         rdf:about="">
        <dc:format>image/svg+xml</dc:format>
        <dc:type
           rdf:resource="http://purl.org/dc/dcmitype/StillImage" />
        <dc:title></dc:title>
      </cc:Work>
    </rdf:RDF>
  </metadata>
  <g
     inkscape:label="Layer 1"
     inkscape:groupmode="layer"
     id="layer1"
     transform="translate(-34.017858,21.331551)">
    <g
       id="g206"
       transform="matrix(1.7066667,0,0,1.7181207,-21.458973,-175.34777)">
      <path
         style="fill:#fefefe;stroke-width:0.26458335"
         d="M 32.505955,168.48809 V 89.642258 h 79.375005 79.37499 v 78.845832 78.84584 H 111.88096 32.505955 Z"
         id="path222"
         inkscape:connector-curvature="0" />
      <path
         style="fill:#cecece;stroke-width:0.26458335"
         d="m 72.213383,207.89801 c -21.693565,-21.56118 -39.442442,-39.27866 -39.44195,-39.37218 0.0011,-0.20074 78.793487,-78.448764 79.114887,-78.568249 0.22536,-0.08378 79.10577,78.186969 79.10416,78.492769 -0.001,0.20074 -78.79349,78.44877 -79.11489,78.56826 -0.12065,0.0448 -17.968643,-17.55942 -39.662207,-39.1206 z m 78.803677,-0.64846 c 21.40349,-21.24604 38.91557,-38.70508 38.91571,-38.79787 5e-4,-0.31311 -77.81141,-77.522617 -78.04219,-77.438017 -0.32531,0.119252 -78.06119,77.306797 -78.061474,77.510847 -4.36e-4,0.31368 77.811664,77.52253 78.043064,77.43801 0.12619,-0.0461 17.74139,-17.46693 39.14489,-38.71297 z m -73.92894,-4.10117 -34.659785,-34.66054 34.726309,-34.72631 34.726316,-34.726312 34.72631,34.726312 34.7263,34.72631 -34.65978,34.66054 c -19.06288,19.0633 -34.71966,34.66055 -34.79283,34.66055 -0.0732,0 -15.729958,-15.59725 -34.79284,-34.66055 z M 157.91845,171.5308 V 156.31726 H 111.88096 65.843455 v 15.21354 15.21354 h 46.037505 46.03749 z m -92.604162,-9.525 v -6.21771 h 46.566672 46.56666 v 6.21771 6.21771 h 10.25248 10.25247 L 145.41676,134.6877 111.88096,101.15189 78.345147,134.6877 44.809341,168.22351 h 10.252474 10.252473 z m 34.925002,-16.53921 v -0.7965 l 11.70781,0.0689 11.70781,0.0689 0.0837,0.72761 0.0837,0.7276 h -11.79153 -11.79153 z m 7.94391,-1.46317 c -4.30867,-1.2071 -7.3062,-4.97042 -9.107705,-11.43444 -0.831136,-2.98222 -1.877219,-5.11054 -3.477586,-7.07536 l -1.209098,-1.48445 0.874718,0.44856 c 0.481094,0.24671 1.894496,1.44384 3.140892,2.66029 1.246394,1.21646 2.339409,2.21174 2.428929,2.21174 0.0895,0 0.046,-0.38695 -0.0967,-0.8599 -0.38454,-1.27458 -2.268801,-9.98802 -2.159896,-9.98802 0.05149,0 0.367541,0.17948 0.702331,0.39884 0.914395,0.59914 2.134615,2.44883 2.791375,4.23137 0.71598,1.94324 1.27978,2.84892 1.63633,2.62856 0.69343,-0.42857 0.87388,-1.76705 0.8894,-6.59731 0.0121,-3.75261 0.10983,-5.21155 0.38563,-5.75469 0.2032,-0.40018 0.45179,-0.7276 0.55241,-0.7276 0.10062,0 0.25321,1.0418 0.33907,2.3151 0.16072,2.38337 0.6971,4.29944 1.82465,6.51808 l 0.6465,1.27211 0.46928,-1.41463 c 0.30338,-0.91453 0.59285,-3.19176 0.81885,-6.4417 0.39772,-5.71936 0.71633,-6.928 2.30082,-8.72807 0.58908,-0.66924 1.10616,-1.1817 1.14906,-1.1388 0.0429,0.0429 -0.0908,0.72886 -0.29719,1.52436 -0.74613,2.87643 -0.38486,5.06321 1.58879,9.61701 1.56318,3.60668 2.07071,5.46901 1.96217,7.19988 -0.0798,1.27268 -0.046,1.38603 0.3072,1.02939 0.31807,-0.3212 0.3729,-0.93671 0.27614,-3.10019 -0.20045,-4.4819 -0.15841,-7.02499 0.12073,-7.30357 0.17633,-0.17598 0.27385,0.28311 0.29235,1.3763 0.0171,1.01038 0.45954,3.26494 1.15202,5.87052 0.85976,3.23499 1.09703,4.5584 1.00855,5.62537 -0.11288,1.36121 -0.10227,1.38656 0.43548,1.04081 0.30315,-0.19491 0.76954,-0.79195 1.03641,-1.32675 0.5777,-1.15769 1.21243,-4.51247 1.22533,-6.47636 0.0122,-1.85166 0.39543,-1.549 0.80812,0.63816 0.41923,2.22181 0.20298,5.31253 -0.51471,7.35638 -0.77654,2.21147 -0.7019,2.26526 0.6492,0.46789 1.94708,-2.59019 4.19429,-3.75248 5.6986,-2.9474 0.7511,0.40198 0.63565,0.64822 -0.55587,1.18551 -2.11182,0.9523 -3.34433,2.81395 -5.07554,7.66635 -0.57063,1.59941 -1.40127,3.59052 -1.84587,4.42468 -1.10259,2.06866 -3.14727,3.94664 -5.1145,4.69752 -2.06551,0.78839 -5.96852,0.97948 -8.0567,0.39446 z m 6.22902,-0.72562 c 0.33847,-0.39349 0.81893,-1.44086 1.06771,-2.32749 0.24878,-0.88663 0.9074,-2.31616 1.46361,-3.17672 0.74349,-1.15032 0.90312,-1.56466 0.60279,-1.56466 -0.64205,0 -1.51115,0.51611 -2.15833,1.28169 -0.77375,0.91532 -0.75635,0.41573 0.0648,-1.86076 0.3638,-1.00855 0.65213,-2.27311 0.64072,-2.81014 -0.0189,-0.89185 -0.0819,-0.80405 -0.7276,1.01385 -0.78316,2.20508 -1.01266,2.63994 -1.39325,2.63994 -0.1626,0 -0.15682,-0.18959 0.0156,-0.51177 0.31669,-0.59174 0.33814,-5.4493 0.0275,-6.23511 -0.13299,-0.33645 -0.2511,0.40992 -0.32431,2.04948 -0.11403,2.55357 -0.56576,3.88636 -0.86525,2.55286 -0.53326,-2.37437 -1.01083,-5.66725 -1.04148,-7.18107 -0.0199,-0.98174 -0.0628,-1.78541 -0.0955,-1.78594 -0.0327,-5.3e-4 -0.25779,0.38279 -0.50034,0.85181 -0.36748,0.71065 -0.4143,1.35056 -0.28091,3.83966 0.1645,3.06938 0.0806,3.78037 -0.44448,3.76593 -0.30445,-0.008 -0.58686,-0.34564 -1.85864,-2.21971 -0.82828,-1.22055 -0.88271,-0.91937 -0.16357,0.90511 0.5593,1.41897 0.70061,2.91042 0.27573,2.91042 -0.13938,0 -0.56742,-0.53579 -0.95118,-1.19063 -0.38376,-0.65484 -0.753,-1.19062 -0.82052,-1.19062 -0.0675,0 -0.0466,0.1232 0.0464,0.27379 0.23904,0.38677 1.19309,3.77499 1.09155,3.87653 -0.0462,0.0462 -0.66913,-0.0936 -1.38435,-0.31053 -0.71522,-0.21697 -1.32937,-0.39577 -1.36479,-0.39735 -0.0354,-0.002 0.33741,0.52353 0.8285,1.1669 0.50234,0.6581 1.03808,1.78648 1.2248,2.57969 0.4799,2.03865 1.18981,3.30159 2.03892,3.62728 0.40407,0.15499 1.5527,0.25056 2.55251,0.21239 1.60344,-0.0612 1.89042,-0.15378 2.43323,-0.78483 z"
         id="path220"
         inkscape:connector-curvature="0" />
      <path
         style="fill:#a2a2a2;stroke-width:0.26458335"
         d="M 72.323683,207.94091 C 50.642214,186.41952 32.90283,168.70724 32.90283,168.5803 c 0,-0.3002 78.71636,-78.541167 79.01837,-78.541167 0.3094,0 79.10523,78.225717 79.01158,78.439907 -0.0994,0.22737 -78.80429,78.44006 -79.019,78.52485 -0.0931,0.0368 -17.908628,-17.54158 -39.590097,-39.06298 z M 164.58576,193.82176 190.17077,168.3558 151.09201,129.56296 112.01325,90.770122 98.387205,104.22896 c -7.494323,7.40237 -25.139454,24.91868 -39.211406,38.92514 l -25.585362,25.46628 39.079112,38.79284 39.079111,38.79284 13.62605,-13.45917 c 7.49432,-7.40254 25.13929,-24.91885 39.21105,-38.92513 z m -87.365349,9.19433 -34.527491,-34.52825 34.594018,-34.59402 34.594022,-34.594017 34.59401,34.594017 34.59402,34.59402 -34.52749,34.52825 c -18.99012,18.99054 -34.58737,34.52825 -34.66054,34.52825 -0.0732,0 -15.670429,-15.53771 -34.660549,-34.52825 z M 157.91845,171.5308 V 156.31726 H 111.88096 65.843455 v 15.21354 15.21354 h 46.037505 46.03749 z m -95.977599,-3.2169 3.373437,-0.17205 v -6.17688 -6.17688 h 46.566672 46.56666 v 6.19061 6.1906 l 3.50573,0.17587 c 1.92815,0.0967 6.57187,0.13868 10.31937,0.0932 l 6.81365,-0.0826 -33.60284,-33.60182 -33.60284,-33.60183 -33.667964,33.66797 -33.66797,33.66797 7.011329,-10e-4 c 3.856231,-5.2e-4 8.529375,-0.0785 10.384766,-0.17312 z m 38.298439,-22.71227 v -0.66145 h 11.64167 11.64166 v 0.66145 0.66146 h -11.64166 -11.64167 z m 8.33437,-1.56396 c -4.47002,-1.1094 -7.45833,-4.66324 -9.278392,-11.03428 -0.962445,-3.369 -1.904185,-5.3702 -3.378525,-7.17936 -0.681887,-0.83675 -1.167506,-1.52135 -1.079156,-1.52135 0.400666,0 2.008579,1.31222 4.012639,3.27472 2.119204,2.07526 2.449904,2.22472 1.936884,0.87538 -0.37429,-0.98445 -2.200242,-9.72963 -2.060648,-9.86922 0.35084,-0.35084 2.593448,2.72517 3.256708,4.46697 0.40077,1.05249 0.93412,2.13629 1.18523,2.40846 0.44329,0.48049 0.47078,0.47311 0.94653,-0.25394 0.43216,-0.66044 0.49158,-1.34331 0.50356,-5.78653 0.01,-3.6117 0.11386,-5.2624 0.36785,-5.83147 l 0.35429,-0.79375 0.20108,0.66146 c 0.11059,0.3638 0.21295,1.12052 0.22745,1.6816 0.0145,0.56108 0.20588,1.71286 0.42527,2.55952 0.40276,1.5543 1.8476,5.0193 2.09295,5.0193 0.073,0 0.37913,-0.79774 0.68028,-1.77276 0.40747,-1.31925 0.60674,-2.98322 0.77895,-6.50442 0.22066,-4.51194 0.26892,-4.80786 1.03919,-6.3725 0.44428,-0.90246 1.12687,-1.9343 1.51687,-2.29298 l 0.70909,-0.65214 -0.17703,0.79375 c -0.41021,1.83931 -0.47806,4.36325 -0.15391,5.72527 0.18568,0.78017 0.97788,2.93216 1.76043,4.78222 1.54275,3.64722 2.07876,5.83388 1.82265,7.43547 -0.11861,0.74174 -0.0752,0.99406 0.15755,0.91646 0.70796,-0.23598 0.84441,-1.62843 0.51807,-5.28665 -0.23732,-2.66026 -0.24662,-3.91026 -0.0349,-4.69635 0.15865,-0.58917 0.32591,-1.07121 0.3717,-1.07121 0.0458,0 0.0323,0.56555 -0.0301,1.25677 -0.0829,0.91924 0.21856,2.53586 1.12245,6.01927 0.91346,3.5203 1.20482,5.09031 1.11706,6.01927 -0.0653,0.69123 -0.0379,1.25678 0.0609,1.25678 0.25742,0 1.20929,-1.08445 1.57638,-1.79594 0.45551,-0.88288 1.07673,-4.37236 1.07673,-6.04816 0,-1.89328 0.38303,-1.60869 0.79852,0.5933 0.37578,1.99155 0.20838,4.58879 -0.42469,6.58934 -0.23025,0.7276 -0.52379,1.6801 -0.65232,2.11666 l -0.23369,0.79375 0.58645,-0.79375 c 1.86054,-2.51824 4.06025,-4.36562 5.19823,-4.36562 0.38235,0 0.97399,0.19529 1.31476,0.43397 l 0.61957,0.43397 -0.81068,0.34086 c -2.21006,0.92926 -3.79097,3.20318 -5.36423,7.71566 -2.2681,6.50548 -4.40371,8.85707 -8.92398,9.82649 -1.7623,0.37795 -4.03022,0.34857 -5.73398,-0.0743 z m 5.42396,-0.23081 c 0.48837,-0.24494 0.83978,-0.84973 1.3429,-2.3112 0.68352,-1.9855 1.43642,-3.54143 2.29219,-4.737 l 0.45873,-0.64089 -0.92243,0.17721 c -0.52685,0.10122 -1.23446,0.51968 -1.65003,0.9758 -0.87247,0.95757 -0.90719,0.73443 -0.17401,-1.11821 0.63385,-1.60165 1.055,-3.86812 0.7534,-4.05452 -0.1122,-0.0694 -0.52107,0.82599 -0.9086,1.98964 -0.38753,1.16365 -0.78454,2.16537 -0.88223,2.22603 -0.0977,0.0607 -0.14622,-1.63473 -0.10783,-3.76756 0.0536,-2.97811 2.6e-4,-3.7629 -0.22974,-3.3824 -0.16475,0.27251 -0.35431,1.52267 -0.42125,2.77813 -0.12406,2.32661 -0.2571,3.12007 -0.48493,2.89223 -0.3033,-0.3033 -1.18283,-6.0322 -1.18283,-7.70446 0,-1.56052 -0.0564,-1.78666 -0.37866,-1.51919 -0.66597,0.55271 -0.94881,2.68278 -0.67477,5.08158 0.24804,2.17113 0.16956,3.13563 -0.25515,3.13563 -0.21606,0 -2.06206,-2.32336 -2.62778,-3.3073 -0.26333,-0.45799 -0.28035,-0.42241 -0.1266,0.26459 0.0977,0.43656 0.397,1.30963 0.66509,1.94016 1.04031,2.44669 0.40327,3.39993 -0.83074,1.2431 -1.09413,-1.91233 -1.47263,-2.10956 -0.66816,-0.34815 0.35124,0.76902 0.71788,1.89761 0.81477,2.50797 l 0.17617,1.10975 -1.68357,-0.50974 -1.68356,-0.50974 0.69041,0.59061 c 1.09901,0.94017 1.72582,2.05146 2.19653,3.89431 0.50551,1.97908 1.00289,2.84622 1.82175,3.17606 0.87355,0.35187 3.92924,0.30459 4.68093,-0.0724 z"
         id="path218"
         inkscape:connector-curvature="0" />
      <path
         style="fill:#6b6b6b;stroke-width:0.26458335"
         d="M 72.243382,207.81361 32.74062,168.62038 67.217558,134.28998 C 86.179875,115.40826 104.01687,97.711693 106.85533,94.964274 l 5.16084,-4.995307 39.50191,39.193413 39.50192,39.19342 -34.47629,34.3304 c -18.96196,18.88172 -36.79858,36.57821 -39.63693,39.32552 l -5.16064,4.99511 z m 82.581668,-4.20163 35.40348,-35.25618 -39.10476,-38.79807 -39.10476,-38.798062 -3.83934,3.674178 C 106.06803,96.454644 88.408479,113.97331 68.936217,133.3642 l -35.404111,35.25618 39.10559,38.79789 39.105594,38.79788 3.83914,-3.67399 c 2.11153,-2.0207 19.77071,-19.53928 39.24262,-38.93018 z M 77.220411,203.01609 42.69292,168.48784 77.286938,133.89382 111.88096,99.299803 l 34.59401,34.594017 34.59402,34.59402 -34.52749,34.52825 c -18.99012,18.99054 -34.58737,34.52825 -34.66054,34.52825 -0.0732,0 -15.670429,-15.53771 -34.660549,-34.52825 z M 157.91845,171.5308 V 156.31726 H 111.88096 65.843455 v 15.21354 15.21354 h 46.037505 46.03749 z m -92.604162,-9.39271 v -6.35 h 46.566672 46.56666 v 6.35 6.35 h 10.31875 c 5.67531,0 10.31875,-0.0895 10.31875,-0.19883 0,-0.10935 -15.12093,-15.31941 -33.60208,-33.80012 l -33.60207,-33.6013 -32.825149,32.80794 C 61.00199,151.74014 45.871046,166.9502 45.431499,167.49591 l -0.799176,0.99218 H 54.973306 65.314288 Z M 100.41568,146.0867 c -0.097,-0.097 -0.17639,-0.39467 -0.17639,-0.66146 0,-0.46302 0.52917,-0.48506 11.64167,-0.48506 h 11.64166 v 0.66145 0.66146 h -11.46528 c -6.3059,0 -11.54465,-0.0794 -11.64166,-0.17639 z m 10.2085,-1.8652 c 0.40019,-0.0606 1.05503,-0.0606 1.45521,0 0.40018,0.0606 0.0728,0.11022 -0.7276,0.11022 -0.80037,0 -1.12779,-0.0496 -0.72761,-0.11022 z m -2.90088,-0.45892 c -4.26731,-1.33364 -6.53587,-4.47266 -8.900834,-12.31615 -0.727369,-2.41235 -2.076479,-4.89505 -3.414676,-6.28386 -0.455705,-0.47294 -0.731856,-0.85989 -0.613664,-0.85989 0.422159,0 2.695877,1.84515 4.379185,3.55377 0.941679,0.95584 1.799599,1.73789 1.906489,1.73789 0.10689,0 0.027,-0.47435 -0.17756,-1.05411 -0.32194,-0.91247 -2.250452,-9.46085 -2.250452,-9.97541 0,-0.31871 1.858672,1.59115 2.403752,2.46996 0.28422,0.45823 0.75359,1.52149 1.04304,2.36281 0.49923,1.45104 1.1647,2.49259 1.59257,2.49259 0.10717,0 0.39,-0.48773 0.62851,-1.08383 0.35454,-0.88609 0.4205,-1.91187 0.36151,-5.6224 -0.0591,-3.71883 0.005,-4.70582 0.35305,-5.46461 l 0.4252,-0.92604 0.17147,1.32292 c 0.45074,3.47748 0.79745,4.88833 1.65468,6.73321 l 0.92839,1.99804 0.37002,-0.69569 c 0.65119,-1.22434 0.9496,-3.16635 1.17379,-7.63869 0.24886,-4.96452 0.68112,-6.54771 2.27556,-8.33437 0.81565,-0.91399 0.92029,-0.96812 0.76722,-0.39688 -0.0975,0.3638 -0.22946,1.73302 -0.29328,3.04271 -0.12643,2.59467 0.14919,3.62503 2.38266,8.90696 1.09929,2.5997 1.60926,4.9208 1.36603,6.21735 -0.19981,1.06505 0.25648,1.19543 0.70887,0.20254 0.23727,-0.52074 0.23582,-1.59189 -0.006,-4.56406 -0.22463,-2.75888 -0.23584,-4.17097 -0.0387,-4.87581 0.15264,-0.5457 0.31149,-0.99219 0.353,-0.99219 0.0415,0 0.027,0.62508 -0.0323,1.38906 -0.077,0.99263 0.12604,2.25744 0.71159,4.43178 1.47622,5.48168 1.75563,7.0432 1.41956,7.93355 -0.30595,0.81055 -0.2005,0.9279 0.56861,0.63277 1.05711,-0.40565 2.22694,-4.26409 2.27631,-7.50799 l 0.0262,-1.71979 0.42221,0.92604 c 0.71916,1.57737 0.58255,5.75678 -0.27204,8.32303 -0.38561,1.15792 -0.66064,2.14578 -0.61117,2.19524 0.0495,0.0495 0.52856,-0.5076 1.06467,-1.23793 2.05763,-2.80305 4.33018,-4.19431 5.6753,-3.47442 0.75849,0.40593 0.70001,0.68524 -0.22358,1.0678 -1.99491,0.82632 -3.54344,3.09893 -5.07578,7.4492 -1.33174,3.78076 -2.21921,5.56722 -3.4736,6.99228 -1.04721,1.18969 -3.57111,2.61698 -5.18225,2.93062 l -0.88621,0.17251 0.67242,-0.67241 c 0.36983,-0.36983 0.87301,-1.36935 1.11819,-2.22115 0.54285,-1.88603 1.1856,-3.19373 2.10934,-4.29152 l 0.69765,-0.82908 h -0.84373 c -0.60676,0 -1.09639,0.25265 -1.74331,0.89958 -0.49478,0.49477 -0.89959,0.87271 -0.89959,0.83987 0,-0.0328 0.28263,-0.88413 0.62806,-1.89177 0.73877,-2.15502 1.05621,-3.98998 0.72559,-4.19432 -0.12925,-0.0799 -0.55663,0.86484 -0.94973,2.09937 -0.3931,1.23453 -0.79362,2.2936 -0.89005,2.35349 -0.0964,0.0599 -0.1374,-1.63616 -0.091,-3.76899 0.0638,-2.93357 0.01,-3.80452 -0.22177,-3.57671 -0.16913,0.16641 -0.37225,1.50204 -0.45397,2.98502 -0.0813,1.47612 -0.23468,2.7375 -0.34076,2.80306 -0.30114,0.18612 -1.11298,-4.49752 -1.25436,-7.23667 l -0.12751,-2.47036 -0.47178,0.71917 c -0.66943,1.02049 -0.83513,2.57831 -0.52898,4.97302 0.18883,1.477 0.18094,2.23183 -0.0274,2.62106 -0.28082,0.52472 -0.32805,0.50517 -1.17664,-0.48689 -0.48624,-0.56846 -1.08718,-1.45028 -1.33542,-1.9596 -0.72551,-1.48855 -0.70989,-0.49417 0.0228,1.45244 1.15401,3.06592 0.7669,3.73092 -0.7717,1.32568 -0.51199,-0.80036 -1.055,-1.4552 -1.20668,-1.4552 -0.15168,0 -0.041,0.32742 0.246,0.7276 0.54311,0.75733 1.49206,3.71259 1.26503,3.93961 -0.12063,0.12063 -1.74896,-0.24733 -2.77972,-0.62814 -0.24556,-0.0907 0.0513,0.3805 0.65965,1.04716 0.65347,0.71608 1.23272,1.68284 1.41548,2.36242 0.63048,2.34438 1.10923,3.40722 1.76821,3.92558 0.77129,0.6067 0.43276,0.64951 -1.17142,0.14817 z"
         id="path216"
         inkscape:connector-curvature="0" />
      <path
         style="fill:#d8271a;stroke-width:0.26458335"
         d="M 72.274449,207.80971 32.800236,168.62038 57.1932,144.34419 c 13.416128,-13.3519 31.239057,-31.04649 39.606505,-39.32131 l 15.213545,-15.04513 39.47372,39.18903 39.47373,39.18902 -24.65706,24.54041 c -13.56138,13.49723 -31.38409,31.19196 -39.60602,39.32162 l -14.94896,14.78121 z m 78.799741,-0.40914 c 21.44513,-21.3085 39.02436,-38.82106 39.06497,-38.91679 0.0941,-0.22197 -77.8932,-77.650897 -78.21092,-77.650897 -0.22128,0 -78.144726,77.280537 -78.305438,77.659377 -0.09541,0.22492 78.055178,77.81025 78.285828,77.7196 0.0959,-0.0377 17.72044,-17.50279 39.16556,-38.81129 z M 77.220411,203.01609 42.69292,168.48784 77.286938,133.89382 111.88096,99.299803 l 34.59401,34.594017 34.59402,34.59402 -34.52749,34.52825 c -18.99012,18.99054 -34.58737,34.52825 -34.66054,34.52825 -0.0732,0 -15.670429,-15.53771 -34.660549,-34.52825 z m 80.698039,-31.353 V 156.31726 H 111.88096 65.843455 v 15.34583 15.34584 h 46.037505 46.03749 z m -92.604162,-9.525 v -6.35 h 46.566672 46.56666 v 6.35 6.35 h 10.31875 c 5.67531,0 10.31875,-0.0895 10.31875,-0.19883 0,-0.10935 -15.12094,-15.31941 -33.60208,-33.80013 l -33.60208,-33.6013 -33.602088,33.6013 c -18.481146,18.48072 -33.602084,33.69078 -33.602084,33.80013 0,0.10936 4.643438,0.19883 10.31875,0.19883 h 10.31875 z m 35.189582,-16.66875 c 0,-0.52105 0.17639,-0.52916 11.50938,-0.52916 11.33298,0 11.50937,0.008 11.50937,0.52916 0,0.52106 -0.17639,0.52917 -11.50937,0.52917 -11.33299,0 -11.50938,-0.008 -11.50938,-0.52917 z m 7.27259,-1.79884 c -2.16017,-0.74697 -3.76502,-1.83798 -4.8843,-3.32046 -1.35057,-1.78881 -2.971798,-5.28201 -3.700841,-7.97404 -0.752451,-2.77848 -1.855724,-5.04477 -3.19854,-6.57029 -0.59957,-0.68115 -1.001713,-1.23845 -0.893646,-1.23845 0.380166,0 2.908361,2.1081 4.442928,3.70467 0.853449,0.88794 1.604309,1.56186 1.668569,1.4976 0.0643,-0.0643 -0.0687,-0.69551 -0.29549,-1.40278 -0.63478,-1.97979 -2.201463,-9.62032 -1.972633,-9.62032 0.501637,0 2.200123,2.53271 3.016873,4.49864 1.34726,3.24286 1.66142,3.45036 2.4537,1.62062 0.33244,-0.76774 0.40441,-1.86027 0.35955,-5.45781 -0.0406,-3.25754 0.0442,-4.78663 0.30767,-5.54488 l 0.36374,-1.04697 0.16851,1.97301 c 0.19583,2.29295 0.67521,4.0321 1.80041,6.5317 l 0.80637,1.79131 0.39299,-0.74466 c 0.65068,-1.23294 1.14219,-4.13095 1.15261,-6.79596 0.0132,-3.37007 0.41047,-5.92172 1.17276,-7.53242 0.6735,-1.42309 2.18654,-3.35511 1.87127,-2.38946 -0.93473,2.86307 -0.70165,5.46159 0.81982,9.13963 2.16397,5.23121 2.2906,5.64685 2.45523,8.05829 0.16127,2.36217 0.16625,2.37584 0.62162,1.70614 0.55135,-0.81084 0.58639,-1.38369 0.38761,-6.33635 -0.0965,-2.40474 -0.0754,-3.19466 0.0565,-2.11667 0.11574,0.94589 0.64641,3.34167 1.17927,5.32396 0.98033,3.64699 1.21571,5.43447 0.85784,6.51448 -0.16483,0.49745 -0.11887,0.56597 0.28361,0.42281 1.40649,-0.50027 2.31586,-2.53476 2.71906,-6.08321 0.14261,-1.25508 0.31338,-2.33606 0.3795,-2.40217 0.0661,-0.0661 0.20435,0.44097 0.3072,1.12684 0.29136,1.94295 -0.0385,5.63815 -0.66028,7.39698 -0.82075,2.32161 -0.57174,2.48836 0.82764,0.55423 1.55516,-2.14944 3.12556,-3.33038 4.42138,-3.32487 1.67024,0.007 1.72643,0.34384 0.22244,1.33297 -1.75056,1.1513 -3.02472,3.03911 -4.16284,6.16772 -1.56763,4.30932 -2.30555,5.9447 -3.28361,7.27708 -1.12112,1.52727 -2.89294,2.73129 -4.86958,3.30909 l -1.40442,0.41052 0.63928,-0.75974 c 0.35161,-0.41787 0.78098,-1.32247 0.95417,-2.01024 0.36811,-1.46192 1.14045,-3.07143 2.06608,-4.3056 0.36187,-0.4825 0.59491,-0.94031 0.51786,-1.01736 -0.30878,-0.30878 -1.81016,0.26028 -2.49588,0.946 l -0.72873,0.72873 0.72395,-2.139 c 0.70666,-2.08789 0.97881,-4.30516 0.49146,-4.00395 -0.13407,0.0829 -0.56057,1.10192 -0.94777,2.26457 -0.71103,2.13504 -1.11902,2.80527 -0.78675,1.29246 0.0992,-0.4518 0.095,-2.12882 -0.009,-3.7267 -0.23744,-3.63466 -0.71823,-3.49695 -0.87181,0.24972 -0.0581,1.41825 -0.19125,2.67056 -0.29583,2.78291 -0.23936,0.25717 -1.09744,-4.53976 -1.31278,-7.33886 l -0.16214,-2.10751 -0.52916,0.78459 c -0.45961,0.68145 -0.531,1.23676 -0.5431,4.22418 -0.008,1.89177 -0.0374,3.54443 -0.0662,3.67258 -0.0639,0.28534 -1.93326,-2.04853 -2.51773,-3.14342 -0.69942,-1.31023 -0.54855,-0.0132 0.2554,2.19562 0.8968,2.46395 0.55622,2.96971 -0.71309,1.05894 -1.04829,-1.57805 -1.89166,-2.1022 -1.02845,-0.63917 0.52193,0.88461 1.38628,3.61006 1.20301,3.79333 -0.0458,0.0458 -0.81508,-0.14443 -1.70945,-0.42279 l -1.62614,-0.50611 1.1605,1.29075 c 0.93731,1.04251 1.25076,1.66047 1.62988,3.21322 0.35223,1.44266 0.68317,2.13708 1.326,2.78236 0.98531,0.9891 0.96456,0.99889 -0.81372,0.38397 z"
         id="path214"
         inkscape:connector-curvature="0" />
      <path
         style="fill:#891911;stroke-width:0.26458335"
         d="M 72.274449,207.80971 32.800236,168.62038 57.1932,144.34419 c 13.416128,-13.3519 31.239057,-31.04649 39.606505,-39.32131 l 15.213545,-15.04513 39.47372,39.18903 39.47373,39.18902 -24.65706,24.54041 c -13.56138,13.49723 -31.38409,31.19196 -39.60602,39.32162 l -14.94896,14.78121 z m 78.799741,-0.40914 c 21.44513,-21.3085 39.02436,-38.82106 39.06497,-38.91679 0.0941,-0.22197 -77.8932,-77.650897 -78.21092,-77.650897 -0.22128,0 -78.144726,77.280537 -78.305438,77.659377 -0.09541,0.22492 78.055178,77.81025 78.285828,77.7196 0.0959,-0.0377 17.72044,-17.50279 39.16556,-38.81129 z M 77.220411,203.01609 42.69292,168.48784 77.286938,133.89382 111.88096,99.299803 l 34.59401,34.594017 34.59402,34.59402 -34.52749,34.52825 c -18.99012,18.99054 -34.58737,34.52825 -34.66054,34.52825 -0.0732,0 -15.670429,-15.53771 -34.660549,-34.52825 z m 68.328389,-0.85938 c 18.44498,-18.44455 33.53632,-33.65496 33.53632,-33.80091 0,-0.14595 -15.12094,-15.38595 -33.60208,-33.86667 l -33.60208,-33.6013 -33.602088,33.6013 c -18.481146,18.48072 -33.602084,33.72037 -33.602084,33.86589 0,0.25968 66.944232,67.33724 67.203382,67.33724 0.0728,0 15.22365,-15.091 33.66863,-33.53555 z m -33.66784,22.68763 v -1.5875 h -4.10105 -4.10104 l 0.003,-1.91823 0.003,-1.91822 4.03229,-4.81528 4.03228,-4.81529 2.05052,-0.0134 2.05046,-0.0134 v 4.87882 4.87882 l 0.99218,0.0821 0.99219,0.0821 0.0782,1.78594 0.0782,1.78593 h -1.07042 -1.07042 v 1.5875 1.5875 h -1.98438 -1.98437 z m 0,-7.59732 c 0,-1.93045 -0.0569,-2.24261 -0.34977,-1.91823 -1.38142,1.53014 -3.3544,3.91508 -3.3544,4.05479 0,0.093 0.83344,0.1691 1.85208,0.1691 h 1.85209 z M 65.314288,171.66309 v -15.875 h 46.566672 46.56666 v 15.875 15.875 H 111.88096 65.314288 Z m 92.604162,0 V 156.31726 H 111.88096 65.843455 v 15.34583 15.34584 h 46.037505 46.03749 z m -57.41458,-26.19375 c 0,-0.52105 0.17639,-0.52916 11.50938,-0.52916 11.33298,0 11.50937,0.008 11.50937,0.52916 0,0.52106 -0.17639,0.52917 -11.50937,0.52917 -11.33299,0 -11.50938,-0.008 -11.50938,-0.52917 z m 7.27259,-1.79884 c -2.16017,-0.74697 -3.76502,-1.83798 -4.8843,-3.32046 -1.35057,-1.78881 -2.971798,-5.28201 -3.700841,-7.97404 -0.752451,-2.77848 -1.855724,-5.04477 -3.19854,-6.57029 -0.59957,-0.68115 -1.001713,-1.23845 -0.893646,-1.23845 0.380166,0 2.908361,2.1081 4.442928,3.70467 0.853449,0.88794 1.604309,1.56186 1.668569,1.4976 0.0643,-0.0643 -0.0687,-0.69551 -0.29549,-1.40278 -0.63478,-1.97979 -2.201463,-9.62032 -1.972633,-9.62032 0.501637,0 2.200123,2.53271 3.016873,4.49864 1.34726,3.24286 1.66142,3.45036 2.4537,1.62062 0.33244,-0.76774 0.40441,-1.86027 0.35955,-5.45781 -0.0406,-3.25754 0.0442,-4.78663 0.30767,-5.54488 l 0.36374,-1.04697 0.16851,1.97301 c 0.19583,2.29295 0.67521,4.0321 1.80041,6.5317 l 0.80637,1.79131 0.39299,-0.74466 c 0.65068,-1.23294 1.14219,-4.13095 1.15261,-6.79596 0.0132,-3.37007 0.41047,-5.92172 1.17276,-7.53242 0.6735,-1.42309 2.18654,-3.35511 1.87127,-2.38946 -0.93473,2.86307 -0.70165,5.46159 0.81982,9.13963 2.16397,5.23121 2.2906,5.64685 2.45523,8.05829 0.16127,2.36217 0.16625,2.37584 0.62162,1.70614 0.55135,-0.81084 0.58639,-1.38369 0.38761,-6.33635 -0.0965,-2.40474 -0.0754,-3.19466 0.0565,-2.11667 0.11574,0.94589 0.64641,3.34167 1.17927,5.32396 0.98033,3.64699 1.21571,5.43447 0.85784,6.51448 -0.16483,0.49745 -0.11887,0.56597 0.28361,0.42281 1.40649,-0.50027 2.31586,-2.53476 2.71906,-6.08321 0.14261,-1.25508 0.31338,-2.33606 0.3795,-2.40217 0.0661,-0.0661 0.20435,0.44097 0.3072,1.12684 0.29136,1.94295 -0.0385,5.63815 -0.66028,7.39698 -0.82075,2.32161 -0.57174,2.48836 0.82764,0.55423 1.55516,-2.14944 3.12556,-3.33038 4.42138,-3.32487 1.67024,0.007 1.72643,0.34384 0.22244,1.33297 -1.75056,1.1513 -3.02472,3.03911 -4.16284,6.16772 -1.56763,4.30932 -2.30555,5.9447 -3.28361,7.27708 -1.12112,1.52727 -2.89294,2.73129 -4.86958,3.30909 l -1.40442,0.41052 0.63928,-0.75974 c 0.35161,-0.41787 0.78098,-1.32247 0.95417,-2.01024 0.36811,-1.46192 1.14045,-3.07143 2.06608,-4.3056 0.36187,-0.4825 0.59491,-0.94031 0.51786,-1.01736 -0.30878,-0.30878 -1.81016,0.26028 -2.49588,0.946 l -0.72873,0.72873 0.72395,-2.139 c 0.70666,-2.08789 0.97881,-4.30516 0.49146,-4.00395 -0.13407,0.0829 -0.56057,1.10192 -0.94777,2.26457 -0.71103,2.13504 -1.11902,2.80527 -0.78675,1.29246 0.0992,-0.4518 0.095,-2.12882 -0.009,-3.7267 -0.23744,-3.63466 -0.71823,-3.49695 -0.87181,0.24972 -0.0581,1.41825 -0.19125,2.67056 -0.29583,2.78291 -0.23936,0.25717 -1.09744,-4.53976 -1.31278,-7.33886 l -0.16214,-2.10751 -0.52916,0.78459 c -0.45961,0.68145 -0.531,1.23676 -0.5431,4.22418 -0.008,1.89177 -0.0374,3.54443 -0.0662,3.67258 -0.0639,0.28534 -1.93326,-2.04853 -2.51773,-3.14342 -0.69942,-1.31023 -0.54855,-0.0132 0.2554,2.19562 0.8968,2.46395 0.55622,2.96971 -0.71309,1.05894 -1.04829,-1.57805 -1.89166,-2.1022 -1.02845,-0.63917 0.52193,0.88461 1.38628,3.61006 1.20301,3.79333 -0.0458,0.0458 -0.81508,-0.14443 -1.70945,-0.42279 l -1.62614,-0.50611 1.1605,1.29075 c 0.93731,1.04251 1.25076,1.66047 1.62988,3.21322 0.35223,1.44266 0.68317,2.13708 1.326,2.78236 0.98531,0.9891 0.96456,0.99889 -0.81372,0.38397 z"
         id="path212"
         inkscape:connector-curvature="0" />
      <path
         style="fill:#6b130d;stroke-width:0.26458335"
         d="M 72.274449,207.80971 32.800236,168.62038 57.1932,144.34419 c 13.416128,-13.3519 31.239057,-31.04649 39.606505,-39.32131 l 15.213545,-15.04513 39.47372,39.18903 39.47373,39.18902 -24.65706,24.54041 c -13.56138,13.49723 -31.38409,31.19196 -39.60602,39.32162 l -14.94896,14.78121 z m 78.799741,-0.40914 c 21.44513,-21.3085 39.02436,-38.82106 39.06497,-38.91679 0.0941,-0.22197 -77.8932,-77.650897 -78.21092,-77.650897 -0.22128,0 -78.144726,77.280537 -78.305438,77.659377 -0.09541,0.22492 78.055178,77.81025 78.285828,77.7196 0.0959,-0.0377 17.72044,-17.50279 39.16556,-38.81129 z M 77.220411,203.01609 42.69292,168.48784 77.286938,133.89382 111.88096,99.299803 l 34.59401,34.594017 34.59402,34.59402 -34.52749,34.52825 c -18.99012,18.99054 -34.58737,34.52825 -34.66054,34.52825 -0.0732,0 -15.670429,-15.53771 -34.660549,-34.52825 z m 68.526309,-0.79272 33.7327,-33.73348 -33.79859,-33.80142 -33.79859,-33.80142 -33.602725,33.60169 c -18.481501,18.48093 -33.602727,33.77936 -33.602727,33.99651 0,0.34625 66.858262,67.47159 67.203132,67.47159 0.0738,0 15.31382,-15.18006 33.8668,-33.73347 z m -33.86576,22.48868 v -1.45521 h -4.10105 -4.10104 v -1.8509 -1.8509 l 4.13398,-4.9069 4.13398,-4.9069 1.88529,0.0771 1.88529,0.0771 0.0721,4.82864 0.0721,4.82865 h 0.92008 0.92007 v 1.85208 1.85208 h -0.92604 -0.92604 v 1.45521 1.45521 h -1.98438 -1.98437 z m 0,-7.44073 c 0,-2.65579 0.0878,-2.66712 -2.37153,0.3061 l -1.63388,1.97526 h 2.0027 2.00271 z M 65.314288,171.66309 v -15.875 h 46.566672 46.56666 v 15.875 15.875 H 111.88096 65.314288 Z m 92.604162,0 V 156.31726 H 111.88096 65.843455 v 15.34583 15.34584 h 46.037505 46.03749 z m -57.41458,-26.19375 c 0,-0.52105 0.17639,-0.52916 11.50938,-0.52916 11.33298,0 11.50937,0.008 11.50937,0.52916 0,0.52106 -0.17639,0.52917 -11.50937,0.52917 -11.33299,0 -11.50938,-0.008 -11.50938,-0.52917 z m 7.27259,-1.79884 c -2.16017,-0.74697 -3.76502,-1.83798 -4.8843,-3.32046 -1.35057,-1.78881 -2.971798,-5.28201 -3.700841,-7.97404 -0.752451,-2.77848 -1.855724,-5.04477 -3.19854,-6.57029 -0.59957,-0.68115 -1.001713,-1.23845 -0.893646,-1.23845 0.380166,0 2.908361,2.1081 4.442928,3.70467 0.853449,0.88794 1.604309,1.56186 1.668569,1.4976 0.0643,-0.0643 -0.0687,-0.69551 -0.29549,-1.40278 -0.63478,-1.97979 -2.201463,-9.62032 -1.972633,-9.62032 0.501637,0 2.200123,2.53271 3.016873,4.49864 1.34726,3.24286 1.66142,3.45036 2.4537,1.62062 0.33244,-0.76774 0.40441,-1.86027 0.35955,-5.45781 -0.0406,-3.25754 0.0442,-4.78663 0.30767,-5.54488 l 0.36374,-1.04697 0.16851,1.97301 c 0.19583,2.29295 0.67521,4.0321 1.80041,6.5317 l 0.80637,1.79131 0.39299,-0.74466 c 0.65068,-1.23294 1.14219,-4.13095 1.15261,-6.79596 0.0132,-3.37007 0.41047,-5.92172 1.17276,-7.53242 0.6735,-1.42309 2.18654,-3.35511 1.87127,-2.38946 -0.93473,2.86307 -0.70165,5.46159 0.81982,9.13963 2.16397,5.23121 2.2906,5.64685 2.45523,8.05829 0.16127,2.36217 0.16625,2.37584 0.62162,1.70614 0.55135,-0.81084 0.58639,-1.38369 0.38761,-6.33635 -0.0965,-2.40474 -0.0754,-3.19466 0.0565,-2.11667 0.11574,0.94589 0.64641,3.34167 1.17927,5.32396 0.98033,3.64699 1.21571,5.43447 0.85784,6.51448 -0.16483,0.49745 -0.11887,0.56597 0.28361,0.42281 1.40649,-0.50027 2.31586,-2.53476 2.71906,-6.08321 0.14261,-1.25508 0.31338,-2.33606 0.3795,-2.40217 0.0661,-0.0661 0.20435,0.44097 0.3072,1.12684 0.29136,1.94295 -0.0385,5.63815 -0.66028,7.39698 -0.82075,2.32161 -0.57174,2.48836 0.82764,0.55423 1.55516,-2.14944 3.12556,-3.33038 4.42138,-3.32487 1.67024,0.007 1.72643,0.34384 0.22244,1.33297 -1.75056,1.1513 -3.02472,3.03911 -4.16284,6.16772 -1.56763,4.30932 -2.30555,5.9447 -3.28361,7.27708 -1.12112,1.52727 -2.89294,2.73129 -4.86958,3.30909 l -1.40442,0.41052 0.63928,-0.75974 c 0.35161,-0.41787 0.78098,-1.32247 0.95417,-2.01024 0.36811,-1.46192 1.14045,-3.07143 2.06608,-4.3056 0.36187,-0.4825 0.59491,-0.94031 0.51786,-1.01736 -0.30878,-0.30878 -1.81016,0.26028 -2.49588,0.946 l -0.72873,0.72873 0.72395,-2.139 c 0.70666,-2.08789 0.97881,-4.30516 0.49146,-4.00395 -0.13407,0.0829 -0.56057,1.10192 -0.94777,2.26457 -0.71103,2.13504 -1.11902,2.80527 -0.78675,1.29246 0.0992,-0.4518 0.095,-2.12882 -0.009,-3.7267 -0.23744,-3.63466 -0.71823,-3.49695 -0.87181,0.24972 -0.0581,1.41825 -0.19125,2.67056 -0.29583,2.78291 -0.23936,0.25717 -1.09744,-4.53976 -1.31278,-7.33886 l -0.16214,-2.10751 -0.52916,0.78459 c -0.45961,0.68145 -0.531,1.23676 -0.5431,4.22418 -0.008,1.89177 -0.0374,3.54443 -0.0662,3.67258 -0.0639,0.28534 -1.93326,-2.04853 -2.51773,-3.14342 -0.69942,-1.31023 -0.54855,-0.0132 0.2554,2.19562 0.8968,2.46395 0.55622,2.96971 -0.71309,1.05894 -1.04829,-1.57805 -1.89166,-2.1022 -1.02845,-0.63917 0.52193,0.88461 1.38628,3.61006 1.20301,3.79333 -0.0458,0.0458 -0.81508,-0.14443 -1.70945,-0.42279 l -1.62614,-0.50611 1.1605,1.29075 c 0.93731,1.04251 1.25076,1.66047 1.62988,3.21322 0.35223,1.44266 0.68317,2.13708 1.326,2.78236 0.98531,0.9891 0.96456,0.99889 -0.81372,0.38397 z"
         id="path210"
         inkscape:connector-curvature="0" />
      <path
         style="fill:#030303;stroke-width:0.26458335"
         d="M 72.345657,207.76604 C 50.724863,186.27779 33.035678,168.61983 33.036359,168.52615 c 0.0015,-0.20115 78.528571,-78.184522 78.849961,-78.303991 0.2257,-0.0839 78.84147,77.922261 78.83921,78.227881 -0.002,0.20168 -78.52764,78.18491 -78.84914,78.30399 -0.12111,0.0448 -17.909936,-17.49974 -39.530733,-38.98799 z m 78.803123,-0.3839 c 21.47686,-21.31865 39.04884,-38.83709 39.04884,-38.92987 0,-0.31338 -78.07647,-77.787716 -78.30709,-77.703174 -0.32551,0.119329 -78.326242,77.570924 -78.326242,77.774824 0,0.31338 78.076472,77.78771 78.307092,77.70317 0.12571,-0.0461 17.80054,-17.52631 39.2774,-38.84495 z M 77.220411,203.01609 42.69292,168.48784 77.286938,133.89382 111.88096,99.299803 l 34.59401,34.594017 34.59402,34.59402 -34.52749,34.52825 c -18.99012,18.99054 -34.58737,34.52825 -34.66054,34.52825 -0.0732,0 -15.670429,-15.53771 -34.660549,-34.52825 z m 68.527339,-0.79375 33.73373,-33.73451 -33.80026,-33.80026 -33.80026,-33.80026 -33.800267,33.80026 -33.800261,33.80026 33.733727,33.73451 c 18.553549,18.55398 33.793611,33.7345 33.866801,33.7345 0.0732,0 15.31324,-15.18052 33.86679,-33.7345 z m -33.86679,22.48971 v -1.45521 h -4.10105 -4.10104 v -1.79385 -1.79385 l 4.0349,-4.82032 4.03489,-4.82032 2.05052,-5.3e-4 2.05053,-5.3e-4 v 4.8948 4.89479 h 0.92604 0.92604 v 1.71979 1.71979 h -0.92604 -0.92604 v 1.45521 1.45521 h -1.98438 -1.98437 v -1.45521 z m 0,-7.45243 c 0,-1.4067 -0.0426,-2.50803 -0.0947,-2.44739 -0.0521,0.0606 -0.84609,1.00321 -1.76443,2.09461 -0.91834,1.09141 -1.84667,2.19274 -2.06295,2.4474 -0.36967,0.43527 -0.26391,0.46302 1.76443,0.46302 h 2.15768 z M 65.314288,171.5308 v -15.74271 h 46.566672 46.56666 v 15.74271 15.74271 H 111.88096 65.314288 Z m 92.604162,0.13229 V 156.31726 H 111.88096 65.843455 v 15.34583 15.34584 h 46.037505 46.03749 z m -57.41458,-26.19375 c 0,-0.52105 0.17639,-0.52916 11.50938,-0.52916 11.33298,0 11.50937,0.008 11.50937,0.52916 0,0.52106 -0.17639,0.52917 -11.50937,0.52917 -11.33299,0 -11.50938,-0.008 -11.50938,-0.52917 z m 14.10232,-2.10206 c 0.35161,-0.41787 0.78098,-1.32247 0.95417,-2.01024 0.36811,-1.46192 1.14045,-3.07143 2.06608,-4.3056 0.36187,-0.4825 0.59491,-0.94031 0.51786,-1.01736 -0.24838,-0.24838 -1.72132,0.19629 -2.38847,0.72106 l -0.64788,0.50963 0.62988,-1.78469 c 0.34643,-0.98159 0.62861,-2.32048 0.62705,-2.97532 -0.003,-1.11296 -0.0286,-1.15654 -0.3978,-0.66814 -0.21724,0.28737 -0.63521,1.32917 -0.92884,2.31511 -0.29362,0.98593 -0.57464,1.79261 -0.62448,1.79261 -0.0498,0 -0.0393,-0.74414 0.0233,-1.65364 0.0627,-0.90951 0.0103,-2.60615 -0.11648,-3.77032 -0.21352,-1.96126 -0.25326,-2.06198 -0.5413,-1.37183 -0.17098,0.40965 -0.31269,1.65981 -0.31492,2.77812 -0.002,1.11831 -0.0948,2.17608 -0.20575,2.35059 -0.24838,0.39073 -1.12866,-4.30155 -1.35006,-7.19646 l -0.16188,-2.11667 -0.52819,0.78633 c -0.45875,0.68294 -0.52975,1.23951 -0.53998,4.23333 -0.006,1.89586 -0.0362,3.547 -0.0661,3.66921 -0.0767,0.3133 -2.12263,-2.32202 -2.48417,-3.19973 -0.2507,-0.60865 -0.31808,-0.64678 -0.4149,-0.23483 -0.0636,0.27049 0.20851,1.38041 0.60462,2.4665 0.90594,2.48393 0.58405,2.99755 -0.68312,1.09 -1.02895,-1.54895 -1.90259,-2.12074 -1.06107,-0.69446 0.46555,0.78904 1.37403,3.67772 1.21425,3.86092 -0.0341,0.0391 -0.79369,-0.15673 -1.68807,-0.43509 l -1.62613,-0.50611 1.15537,1.28505 c 0.90362,1.00504 1.25303,1.67637 1.60353,3.08093 0.2465,0.98773 0.6748,2.18282 0.95179,2.65577 0.63049,1.07653 0.35467,1.09372 -1.7275,0.10771 -2.30268,-1.09043 -3.90789,-2.85605 -5.44839,-5.99284 -0.71416,-1.45418 -1.298478,-2.78749 -1.298478,-2.9629 0,-0.17541 -0.30851,-1.30734 -0.685575,-2.5154 -0.702893,-2.25196 -1.932313,-4.65759 -3.218397,-6.29751 -1.020879,-1.30175 -0.197597,-0.65324 2.796066,2.20251 1.355185,1.29275 2.529814,2.28461 2.610274,2.20414 0.0805,-0.0805 0.005,-0.53934 -0.16767,-1.01971 -0.17269,-0.48037 -0.76088,-2.91935 -1.307089,-5.41995 -1.081659,-4.95193 -1.035759,-5.12918 0.747239,-2.88557 0.67006,0.84316 1.86796,3.44627 1.8723,4.06861 7.9e-4,0.10368 0.28107,0.53815 0.62301,0.96549 l 0.62169,0.77698 0.47282,-0.72162 c 0.71531,-1.0917 0.85776,-2.39358 0.73252,-6.69454 -0.0863,-2.96511 -0.0222,-4.18439 0.26187,-4.97632 l 0.37623,-1.04894 0.17689,2.10727 c 0.21786,2.59524 0.46343,3.50137 1.66063,6.1276 l 0.9414,2.06509 0.37186,-0.7091 c 0.68466,-1.30559 1.1602,-4.02973 1.16943,-6.69923 0.0171,-4.95269 0.78776,-8.00042 2.41729,-9.56004 l 0.79271,-0.75871 -0.32168,0.79375 c -0.17693,0.43656 -0.32222,1.80578 -0.32288,3.04271 -10e-4,2.39042 0.19756,3.0596 2.63371,8.86354 0.8939,2.12967 1.00044,2.62573 1.00837,4.69528 0.005,1.27272 0.0797,2.31452 0.16629,2.31511 0.0866,5.3e-4 0.34971,-0.21141 0.58472,-0.47109 0.52137,-0.57611 0.57429,-1.4848 0.37313,-6.40701 -0.0956,-2.3395 -0.0756,-3.16541 0.0513,-2.11667 0.11442,0.94589 0.59316,3.1353 1.06385,4.86536 1.07752,3.96046 1.33807,5.60108 1.04939,6.60765 -0.29101,1.01468 -0.14967,1.13936 0.67731,0.5975 1.25613,-0.82305 1.80954,-2.45927 2.42697,-7.17572 l 0.17319,-1.32291 0.25544,0.92604 c 0.40406,1.46487 0.0751,5.98224 -0.56651,7.78048 -0.67226,1.884 -0.73583,2.6711 -0.15158,1.87681 2.49923,-3.39768 3.94861,-4.63273 5.42899,-4.62616 1.6269,0.007 1.67595,0.34983 0.19083,1.33297 -1.85499,1.228 -2.93178,2.83243 -4.19429,6.24954 -1.90756,5.16302 -2.40325,6.17563 -3.73807,7.63613 -1.53977,1.68476 -2.49785,2.30992 -4.39273,2.86634 l -1.40442,0.4124 z"
         id="path208"
         inkscape:connector-curvature="0" />
    </g>
  </g>
</svg>
