<?xml version="1.0" encoding="UTF-8" standalone="no"?>
<!-- Created with Inkscape (http://www.inkscape.org/) -->

<svg
   xmlns:dc="http://purl.org/dc/elements/1.1/"
   xmlns:cc="http://creativecommons.org/ns#"
   xmlns:rdf="http://www.w3.org/1999/02/22-rdf-syntax-ns#"
   xmlns:svg="http://www.w3.org/2000/svg"
   xmlns="http://www.w3.org/2000/svg"
   xmlns:sodipodi="http://sodipodi.sourceforge.net/DTD/sodipodi-0.dtd"
   xmlns:inkscape="http://www.inkscape.org/namespaces/inkscape"
   width="270.93332mm"
   height="270.93332mm"
   viewBox="0 0 270.93332 270.93333"
   version="1.1"
   id="svg119"
   inkscape:version="0.92.4 (5da689c313, 2019-01-14)"
   sodipodi:docname="Class_8_Corrosive.svg">
  <defs
     id="defs113" />
  <sodipodi:namedview
     id="base"
     pagecolor="#ffffff"
     bordercolor="#666666"
     borderopacity="1.0"
     inkscape:pageopacity="0.0"
     inkscape:pageshadow="2"
     inkscape:zoom="0.35"
     inkscape:cx="297.14286"
     inkscape:cy="306.57139"
     inkscape:document-units="mm"
     inkscape:current-layer="layer1"
     showgrid="false"
     inkscape:window-width="1920"
     inkscape:window-height="1017"
     inkscape:window-x="-8"
     inkscape:window-y="-8"
     inkscape:window-maximized="1" />
  <metadata
     id="metadata116">
    <rdf:RDF>
      <cc:Work
         rdf:about="">
        <dc:format>image/svg+xml</dc:format>
        <dc:type
           rdf:resource="http://purl.org/dc/dcmitype/StillImage" />
        <dc:title></dc:title>
      </cc:Work>
    </rdf:RDF>
  </metadata>
  <g
     inkscape:label="Layer 1"
     inkscape:groupmode="layer"
     id="layer1"
     transform="translate(-27.214284,40.986315)">
    <g
       id="g132"
       transform="matrix(1.7066666,0,0,1.7181208,-17.941274,-163.83093)">
      <path
         style="fill:#fefefe;stroke-width:0.26458335"
         d="M 26.458336,150.34524 V 71.499405 h 79.375004 79.375 v 78.845835 78.84583 h -79.375 -79.375004 z"
         id="path148"
         inkscape:connector-curvature="0" />
      <path
         style="fill:#cecece;stroke-width:0.26458335"
         d="M 66.165764,189.75516 C 44.472199,168.19398 26.723514,150.4765 26.724242,150.38298 c 0.0016,-0.20066 78.792648,-78.448894 79.112918,-78.567849 0.22536,-0.0837 79.10763,78.186689 79.10527,78.491649 -0.002,0.20166 -78.79237,78.44953 -79.11413,78.56897 -0.12083,0.0448 -17.968972,-17.55941 -39.662536,-39.12059 z m 78.802876,-0.64846 c 21.40397,-21.24604 38.91642,-38.70509 38.91654,-38.79788 4.4e-4,-0.31368 -77.81166,-77.522525 -78.04305,-77.43801 -0.32545,0.118867 -78.060288,77.30624 -78.060611,77.51085 -4.94e-4,0.31311 77.811411,77.52261 78.042191,77.43801 0.12574,-0.0461 17.74095,-17.46693 39.14493,-38.71297 z m -73.928139,-4.10117 -34.659785,-34.66054 34.726309,-34.72631 34.726315,-34.726315 34.72631,34.726315 34.72631,34.72631 -34.65979,34.66054 c -19.06288,19.0633 -34.71966,34.66054 -34.79283,34.66054 -0.0732,0 -15.729957,-15.59724 -34.792839,-34.66054 z m 38.463079,23.40333 c 3.06737,-1.24024 3.65215,-5.92084 0.96009,-7.68474 l -0.68658,-0.44987 0.64163,-0.68898 c 1.41542,-1.51989 1.6501,-3.29549 0.63664,-4.81705 -0.91079,-1.36743 -2.30855,-1.93619 -5.03256,-2.04777 -2.07146,-0.0848 -2.4756,-0.0211 -3.7182,0.58689 -1.50754,0.73757 -2.556681,2.15355 -2.556681,3.45065 0,1.06987 0.671541,2.44289 1.441581,2.94744 l 0.69203,0.45344 -0.90988,0.61827 c -1.163512,0.79063 -1.893793,2.57681 -1.629509,3.98557 0.584629,3.11633 2.711119,4.41794 6.888069,4.21611 1.17598,-0.0568 2.63073,-0.31013 3.27337,-0.56996 z m -5.13748,-2.62139 c -0.4789,-0.47889 -0.64943,-0.93506 -0.64943,-1.73718 0,-1.38571 0.31281,-1.95748 1.29304,-2.36351 2.30768,-0.95587 3.98259,2.62539 1.96873,4.2095 -0.91538,0.72004 -1.82123,0.68231 -2.61234,-0.10881 z m 0.12953,-7.24683 c -1.06931,-0.86588 -0.68701,-2.70909 0.66569,-3.20949 1.14323,-0.4229 2.5241,0.6724 2.5241,2.00211 0,0.62129 -1.23096,1.69531 -1.94304,1.69531 -0.35429,0 -0.91533,-0.21957 -1.24675,-0.48793 z m 47.63979,-45.15269 V 137.64524 H 105.70104 59.266669 v 15.74271 15.74271 h 46.434371 46.43438 z M 131.69619,108.87197 105.83334,83.009119 79.970484,108.87197 54.107633,134.73482 h 51.725707 51.7257 z m -14.64406,22.43776 c -5.06774,-0.11202 -6.74409,-0.23279 -7.0776,-0.50991 -0.49396,-0.41043 -0.58319,-1.63383 -0.15072,-2.0663 0.20535,-0.20536 0.18835,-0.44316 -0.0601,-0.84104 -0.26025,-0.41672 -0.2766,-0.73975 -0.0657,-1.29837 0.18848,-0.49934 0.19462,-0.93654 0.0187,-1.33081 -0.17918,-0.40155 -0.1672,-0.79521 0.0379,-1.24531 0.20831,-0.45718 0.21882,-0.87136 0.0344,-1.35637 -0.20448,-0.53781 -0.16565,-0.85057 0.16901,-1.36132 l 0.43448,-0.6631 3.99692,0.14167 c 3.41877,0.12118 3.90022,0.091 3.32842,-0.20859 -0.85586,-0.44843 -1.79143,-2.11968 -1.40367,-2.50744 0.19327,-0.19327 1.89367,-0.0581 5.61388,0.44626 l 5.33665,0.72351 v 1.07765 c 0,0.59271 0.18534,1.34227 0.41187,1.66569 0.48639,0.69441 1.49108,0.76857 2.00313,0.14785 0.32825,-0.39793 0.30762,-0.41063 -0.2148,-0.13229 -0.76434,0.40722 -1.02312,0.38885 -1.51985,-0.10788 -0.52408,-0.52408 -0.5401,-2.22912 -0.0273,-2.90709 0.86227,-1.14002 0.16962,-3.81556 -0.99057,-3.82636 -0.32368,-0.003 -5.1076,-0.46597 -10.63092,-1.02878 l -10.0424,-1.0233 -0.62898,-0.73123 c -0.51313,-0.59655 -0.59645,-0.90657 -0.4524,-1.6832 0.25517,-1.37562 0.81417,-1.87788 2.09105,-1.87878 2.36373,-0.002 21.20995,1.91291 21.54195,2.18845 0.25629,0.2127 0.31112,0.70157 0.19801,1.76522 -0.086,0.80908 -0.1709,1.76871 -0.18857,2.13251 -0.0573,1.1809 0.37129,3.55855 0.73802,4.09377 0.19668,0.28704 0.3576,0.99149 0.3576,1.56545 0,1.21228 0.28707,1.14466 0.32177,-0.0758 0.035,-1.23064 0.83594,-1.05946 2.34887,0.50199 l 1.28181,1.32292 h 1.76716 1.76715 l -0.16992,2.18281 c -0.0934,1.20055 -0.17063,2.92695 -0.17151,3.83646 l -0.002,1.65364 h -1.8833 c -1.71527,0 -1.96396,0.0708 -2.78733,0.79375 l -0.90403,0.79375 -3.8934,-0.0516 c -2.14137,-0.0284 -6.88166,-0.11771 -10.53398,-0.19844 z m 15.10725,-1.33741 c 0.68425,-0.7142 0.92425,-0.79375 2.39479,-0.79375 h 1.63432 l 0.16826,-1.22755 c 0.0925,-0.67516 0.16825,-2.03006 0.16825,-3.01091 v -1.78335 l -1.61911,-0.11712 c -1.55351,-0.11237 -1.66565,-0.16994 -2.76796,-1.42086 -1.10104,-1.2495 -1.14927,-1.27432 -1.15901,-0.59645 -0.0139,0.96574 -1.20763,2.33541 -2.03546,2.33541 -1.34237,0 -2.47262,-1.25841 -2.47262,-2.753 0,-0.54007 -0.15903,-0.69064 -0.8599,-0.81421 -1.96913,-0.34717 -8.4971,-1.18691 -8.58026,-1.10374 -0.0496,0.0495 0.18246,0.38419 0.51558,0.74363 0.44547,0.48068 1.21601,0.78736 2.91305,1.15943 1.53735,0.33706 2.30736,0.62741 2.30736,0.87003 0,0.30237 -0.86384,0.33543 -5.09323,0.19488 -2.80128,-0.0931 -5.46369,-0.22654 -5.91648,-0.29658 -0.89952,-0.13913 -1.58945,0.39747 -1.34158,1.04342 0.10536,0.27457 0.90176,0.41757 3.00617,0.5398 6.4984,0.37744 6.99757,0.44284 6.90853,0.90514 -0.0727,0.37752 -0.4619,0.41586 -3.12271,0.30758 -1.67181,-0.068 -3.8731,-0.12622 -4.89174,-0.12931 -1.69945,-0.005 -1.85881,0.0416 -1.93366,0.56698 -0.1096,0.76939 0.11041,0.81181 5.3071,1.02323 4.21215,0.17137 4.43177,0.20681 4.43177,0.71534 0,0.51405 -0.11159,0.52857 -2.84427,0.37005 -2.59651,-0.15062 -5.76117,-0.24056 -6.63299,-0.18851 -0.20674,0.0123 -0.31465,0.26363 -0.26458,0.61615 0.0723,0.50929 0.29482,0.62021 1.53975,0.76758 0.80037,0.0948 2.70537,0.18568 4.23334,0.20206 3.18406,0.0341 3.96875,0.18364 3.96875,0.75618 0,0.35813 -0.57085,0.3859 -4.72691,0.22987 -4.04749,-0.15195 -4.7747,-0.11986 -5.05948,0.22327 -0.26314,0.31706 -0.26478,0.48242 -0.008,0.79199 0.33731,0.40643 1.29157,0.44317 15.76402,0.60699 l 5.30831,0.0601 z m -3.84051,-17.41197 c 0.002,-0.62705 -0.0996,-1.07601 -0.22636,-0.99769 -0.33201,0.2052 -0.56069,1.56159 -0.37986,2.25311 0.23279,0.89016 0.60131,0.12699 0.60622,-1.25542 z M 127,112.92834 c 0,-0.49742 0.0632,-1.06901 0.14037,-1.27019 0.11185,-0.29149 -0.60014,-0.43112 -3.50573,-0.68753 -2.00535,-0.17696 -3.88422,-0.31443 -4.17526,-0.3055 -0.29104,0.009 0.95911,0.58021 2.77812,1.26951 1.81901,0.68929 3.54542,1.39473 3.83646,1.56764 0.80701,0.47945 0.92604,0.40568 0.92604,-0.57393 z m -60.148608,17.92593 c -0.09701,-0.097 -0.176389,-1.34717 -0.176389,-2.77813 v -2.60173 h 5.55625 5.55625 v 0.74763 c 0,1.49169 1.932347,2.468 3.548351,1.79279 1.03365,-0.43189 1.584592,-1.2609 1.343268,-2.02125 -0.161142,-0.50771 0.005,-0.51917 7.525967,-0.51917 h 7.690747 v 2.77812 2.77813 H 82.461809 c -8.488717,0 -15.513404,-0.0794 -15.610417,-0.17639 z m 12.268335,-4.8333 c -0.373763,-0.69839 -0.343701,-1.49361 0.08868,-2.34564 0.322488,-0.63549 1.018797,-3.73059 0.994064,-4.41863 -0.0052,-0.14552 -0.144931,-0.80037 -0.310444,-1.45521 -0.370086,-1.46423 -0.02265,-2.57368 0.862685,-2.75466 0.332568,-0.068 5.292373,-0.55176 11.021787,-1.07504 9.510631,-0.86864 10.471511,-0.9158 11.042161,-0.5419 1.14806,0.75224 1.20732,2.80555 0.10427,3.61259 -0.54399,0.39801 -2.51576,0.6697 -11.103179,1.52992 -11.436975,1.14565 -10.937087,1.01799 -11.28685,2.88239 -0.113887,0.60707 -0.03799,1.14874 0.225261,1.60768 0.680365,1.18611 0.796131,2.14467 0.342612,2.83683 -0.508585,0.77619 -1.595038,0.84292 -1.981042,0.12167 z m 2.107359,-8.33013 c 0,-1.05055 -0.221171,-1.74143 -0.557474,-1.74143 -0.268595,0 -0.307946,1.16081 -0.06951,2.05052 0.241758,0.90212 0.626986,0.71221 0.626986,-0.30909 z m 5.423958,-1.36941 c 2.037292,-0.77945 3.585104,-1.41988 3.439584,-1.42318 -0.605219,-0.0137 -8.168074,0.79666 -8.25608,0.88466 -0.05271,0.0527 -0.01611,0.5945 0.08135,1.20395 0.141243,0.88329 0.263803,1.07195 0.604089,0.92993 0.234791,-0.098 2.09377,-0.81591 4.131061,-1.59536 z"
         id="path146"
         inkscape:connector-curvature="0" />
      <path
         style="fill:#bcbcbc;stroke-width:0.26458335"
         d="m 66.275103,189.79799 c -21.680941,-21.52178 -39.419892,-39.2342 -39.419892,-39.36094 0,-0.29993 78.716609,-78.54077 79.018369,-78.54077 0.3094,0 79.10523,78.22572 79.01158,78.4399 -0.0997,0.22811 -78.80468,78.44023 -79.01996,78.52517 -0.0936,0.0369 -17.909157,-17.54157 -39.590097,-39.06336 z M 158.53814,175.67891 184.12315,150.21295 145.04439,111.42011 105.96563,72.627269 92.339586,86.08644 c -7.494323,7.402545 -25.139295,24.91885 -39.211052,38.92513 l -25.585009,25.46596 39.078759,38.79284 39.078756,38.79284 13.62605,-13.45917 c 7.49432,-7.40254 25.13929,-24.91885 39.21105,-38.92513 z m -87.365348,9.19433 -34.527491,-34.52825 34.594018,-34.59402 34.594021,-34.59402 34.59401,34.59402 34.59402,34.59402 -34.52749,34.52825 c -18.99012,18.99054 -34.58737,34.52825 -34.66054,34.52825 -0.0732,0 -15.670428,-15.53771 -34.660548,-34.52825 z m 38.692868,23.36568 c 2.80244,-1.54591 3.15062,-5.84227 0.60845,-7.50796 l -0.67616,-0.44304 0.92811,-1.02731 c 0.79226,-0.87694 0.92811,-1.21511 0.92811,-2.31034 0,-1.52532 -0.74071,-2.78865 -2.10075,-3.58295 -1.11012,-0.64835 -4.86488,-0.90114 -6.56624,-0.44208 -1.43923,0.38833 -2.89153,1.81917 -3.128482,3.08225 -0.249677,1.33089 0.283372,2.90542 1.217402,3.59598 l 0.77782,0.57507 -0.77404,0.47072 c -1.259446,0.76591 -1.729481,1.72771 -1.723679,3.52705 0.0061,1.8876 0.599414,3.07452 1.957139,3.91519 1.26477,0.78311 2.44139,0.98138 5.12074,0.86292 1.79652,-0.0794 2.57142,-0.241 3.43158,-0.7155 z m -4.95837,-2.12158 c -0.86886,-0.49829 -1.17332,-1.0743 -1.18221,-2.2366 -0.007,-0.90999 0.13279,-1.21977 0.80564,-1.78594 0.94542,-0.79552 1.07795,-0.81474 2.07224,-0.30058 1.50471,0.77812 1.70688,3.05478 0.365,4.1103 -0.76309,0.60025 -1.29019,0.65469 -2.06067,0.21282 z m -0.0522,-7.40546 c -0.69844,-0.33745 -1.14156,-1.4655 -0.86711,-2.2074 0.52052,-1.40712 2.11211,-1.67068 3.10666,-0.51445 0.73024,0.84896 0.63746,1.83001 -0.24359,2.57552 -0.61437,0.51987 -1.14267,0.5586 -1.99596,0.14633 z M 152.1354,153.38795 V 137.64524 H 105.70104 59.266669 v 15.74271 15.74271 h 46.434371 46.43438 z M 131.69619,108.87197 105.83334,83.009119 79.970484,108.87197 54.107633,134.73482 h 51.725707 51.7257 z m -14.51177,22.44655 c -5.16959,-0.11874 -6.87633,-0.24153 -7.2099,-0.5187 -0.50933,-0.42321 -0.57857,-1.63844 -0.11952,-2.0975 0.24695,-0.24694 0.24695,-0.38805 0,-0.635 -0.40597,-0.40597 -0.40883,-1.33742 -0.005,-1.7409 0.23982,-0.23982 0.22974,-0.46615 -0.0435,-0.9767 -0.27566,-0.51507 -0.28774,-0.81359 -0.0537,-1.32721 0.19397,-0.42573 0.21731,-0.88524 0.0653,-1.28513 -0.15536,-0.40862 -0.12677,-0.84071 0.0832,-1.25781 0.31727,-0.63018 0.35225,-0.63515 4.27771,-0.60799 l 3.95781,0.0274 -0.99218,-0.98845 c -0.96212,-0.95848 -1.23612,-1.66246 -0.76129,-1.95592 0.127,-0.0785 2.62731,0.17758 5.55625,0.56905 l 5.32535,0.71176 v 1.07626 c 0,2.75359 2.69419,3.09627 3.00993,0.38284 0.0899,-0.77262 0.19929,-0.89887 0.73071,-0.84334 0.35412,0.037 1.08366,0.58261 1.68331,1.25892 l 1.05834,1.19362 1.80332,-0.002 1.80331,-0.002 -0.17013,3.50573 c -0.0936,1.92815 -0.21828,3.65864 -0.27714,3.84553 -0.075,0.23799 -0.6271,0.32549 -1.84291,0.29204 -1.58652,-0.0436 -1.80467,0.0182 -2.53496,0.71853 l -0.79905,0.76629 -3.88601,0.0233 c -2.13731,0.0128 -6.93381,-0.0467 -10.65889,-0.1323 z m 15.01538,-1.3462 c 0.78334,-0.68777 1.10995,-0.79375 2.44636,-0.79375 h 1.54233 l 0.16826,-1.22755 c 0.0925,-0.67516 0.16825,-2.04437 0.16825,-3.04271 v -1.81515 h -1.04111 c -1.50696,0 -2.34434,-0.40012 -3.45378,-1.6503 l -0.9817,-1.10624 -0.18196,0.96993 c -0.20693,1.10303 -1.22127,2.05119 -2.19436,2.05119 -0.91693,0 -1.89545,-1.10424 -2.09734,-2.3668 -0.1298,-0.81174 -0.31201,-1.10911 -0.73362,-1.1973 -1.24571,-0.26057 -8.71707,-1.20023 -8.80937,-1.10794 -0.0545,0.0545 0.13095,0.38333 0.41219,0.73064 0.37989,0.46915 1.10717,0.76785 2.82912,1.16196 1.30441,0.29855 2.36941,0.68572 2.43585,0.88553 0.0976,0.29347 -0.79352,0.32057 -5.13761,0.15623 -2.89063,-0.10936 -5.59778,-0.2096 -6.01591,-0.22276 -0.84502,-0.0266 -1.52887,0.70322 -1.07975,1.15234 0.14564,0.14563 2.33563,0.383 4.86665,0.52748 4.3315,0.24726 5.49967,0.49433 4.8976,1.03587 -0.13911,0.12512 -2.24406,0.11773 -4.71375,-0.0166 -2.45432,-0.13346 -4.63556,-0.17619 -4.84721,-0.095 -0.22023,0.0845 -0.34858,0.40277 -0.3001,0.74416 0.0807,0.56823 0.22889,0.60425 3.12741,0.76013 1.67349,0.09 3.84638,0.17929 4.82865,0.19843 1.60994,0.0314 1.78594,0.088 1.78594,0.57465 0,0.52751 -0.0952,0.53608 -4.16719,0.37532 -2.29195,-0.0905 -4.31602,-0.21062 -4.49792,-0.26695 -0.59531,-0.18438 -1.12448,0.19044 -1.12448,0.79648 0,0.54935 0.1532,0.60728 2.0243,0.76544 1.11336,0.0941 3.04813,0.17275 4.29948,0.17473 2.66644,0.004 3.46581,0.17219 3.46581,0.7282 0,0.35629 -0.58994,0.38301 -4.86128,0.22016 -4.4102,-0.16814 -4.87709,-0.14414 -5.03165,0.25863 -0.0937,0.24419 -0.0368,0.60495 0.12651,0.8017 0.30341,0.36557 1.5793,0.41222 15.68461,0.57345 l 5.25674,0.0601 0.90403,-0.79375 z m -65.41177,0.70667 c -0.07422,-0.19342 -0.100251,-1.41381 -0.05784,-2.71198 l 0.07711,-2.36031 5.490104,-0.0715 5.490105,-0.0715 v 0.68422 c 0,1.04674 0.433731,1.63523 1.453176,1.97168 1.693894,0.55904 3.573907,-0.51544 3.573907,-2.04258 v -0.60258 h 7.540625 7.540625 v 2.77812 2.77813 H 82.409408 c -12.63687,0 -15.511261,-0.0647 -15.621378,-0.35167 z m 12.331697,-4.65802 c -0.373763,-0.69839 -0.343701,-1.49361 0.08868,-2.34564 0.322488,-0.63549 1.018797,-3.73059 0.994064,-4.41863 -0.0052,-0.14552 -0.144931,-0.80037 -0.310444,-1.45521 -0.416724,-1.64876 -0.0414,-2.56954 1.124667,-2.7591 0.479521,-0.078 5.372701,-0.55522 10.873735,-1.06058 7.471209,-0.68636 10.158351,-0.84755 10.620301,-0.63707 0.70062,0.31922 1.20594,1.2546 1.20594,2.23227 0,0.76339 -1.07682,1.95694 -1.77391,1.96621 -0.26128,0.003 -4.994162,0.47035 -10.517529,1.0375 -11.003714,1.12989 -10.542225,1.00785 -10.893616,2.88092 -0.122163,0.65118 -0.03239,1.18354 0.305316,1.81063 0.560282,1.04039 0.619448,2.26851 0.137277,2.8495 -0.474221,0.5714 -1.5253,0.51427 -1.854476,-0.1008 z m 2.107359,-8.33013 c 0,-1.05055 -0.221171,-1.74143 -0.557474,-1.74143 -0.268595,0 -0.307946,1.16081 -0.06951,2.05052 0.241758,0.90212 0.626986,0.71221 0.626986,-0.30909 z m 2.059019,-0.0507 c 0.541028,-0.23427 2.412439,-0.94265 4.158689,-1.57417 1.74625,-0.63153 2.936875,-1.15176 2.645834,-1.15606 -0.291042,-0.004 -2.196042,0.16476 -4.233334,0.37571 -2.037291,0.21095 -3.831169,0.38707 -3.986395,0.39138 -0.199009,0.006 -0.200776,0.35891 -0.006,1.19846 0.151931,0.65484 0.312523,1.19062 0.356872,1.19062 0.04435,0 0.523293,-0.19167 1.064324,-0.42594 z m 44.831105,4.2474 c -0.68946,-0.48292 -0.77639,-1.73938 -0.19117,-2.76312 0.75818,-1.3263 0.18168,-3.96709 -0.86669,-3.97004 -0.25092,-7.9e-4 -5.01851,-0.46588 -10.59465,-1.03372 -10.78404,-1.09818 -10.91557,-1.12798 -11.27351,-2.55411 -0.24974,-0.99506 0.4793,-2.44535 1.33752,-2.66075 0.40163,-0.1008 5.4994,0.25923 11.32837,0.80007 8.70148,0.80736 10.65732,1.0606 10.92886,1.41505 0.39979,0.52186 0.42933,1.88886 0.0617,2.85574 -0.27893,0.73364 0.0198,3.1463 0.58833,4.75088 0.52214,1.47375 0.55337,2.66138 0.0824,3.13238 -0.54165,0.54165 -0.66384,0.54406 -1.40116,0.0276 z m 0.20166,-9.32718 c 0.002,-0.63031 -0.10515,-1.0726 -0.24018,-0.98915 -0.36325,0.2245 -0.61507,1.63819 -0.40802,2.29055 0.2701,0.85103 0.64321,0.10193 0.6482,-1.3014 z M 127,112.92834 c 0,-0.49742 0.0648,-1.07327 0.144,-1.27966 0.11713,-0.30524 -0.58639,-0.43496 -3.77031,-0.69521 -2.15287,-0.17598 -4.2715,-0.37578 -4.70806,-0.44402 -0.43656,-0.0683 0.635,0.39222 2.38125,1.02324 1.74625,0.63103 3.71078,1.39665 4.36562,1.70139 1.58269,0.73652 1.5875,0.73559 1.5875,-0.30574 z"
         id="path144"
         inkscape:connector-curvature="0" />
      <path
         style="fill:#9d9d9d;stroke-width:0.26458335"
         d="M 66.276016,189.79713 C 44.594573,168.2752 26.855211,150.56304 26.855211,150.43677 c 0,-0.29898 78.718179,-78.54049 79.018989,-78.54049 0.30883,0 79.10453,78.22596 79.01096,78.43967 -0.0993,0.22679 -78.8052,78.4402 -79.01956,78.5251 -0.0928,0.0368 -17.908141,-17.542 -39.589584,-39.06392 z M 158.53895,175.67891 184.12477,150.21295 145.0452,111.42046 105.96563,72.627975 92.339586,86.086465 C 84.845263,93.488634 67.199767,111.00479 53.127373,125.01124 l -25.586174,25.46629 39.079924,38.79249 39.079917,38.79249 13.62605,-13.45882 c 7.49432,-7.40235 25.13966,-24.9185 39.21186,-38.92478 z m -87.366158,9.19433 -34.527491,-34.52825 34.594018,-34.59402 34.594021,-34.59402 34.59401,34.59402 34.59402,34.59402 -34.52749,34.52825 c -18.99012,18.99054 -34.58737,34.52825 -34.66054,34.52825 -0.0732,0 -15.670428,-15.53771 -34.660548,-34.52825 z m 38.445788,23.56322 c 0.55392,-0.26759 1.32783,-0.90698 1.7198,-1.42088 0.62544,-0.82 0.71266,-1.17397 0.71266,-2.89217 0,-1.94858 -0.005,-1.96254 -1.07611,-2.9616 l -1.07612,-1.00379 0.87768,-0.95771 c 0.77056,-0.84083 0.87768,-1.13467 0.87768,-2.4076 0,-1.23506 -0.11811,-1.5844 -0.79712,-2.35776 -1.13564,-1.29342 -2.5737,-1.78883 -5.21395,-1.79619 -1.79484,-0.005 -2.4471,0.11047 -3.45795,0.61214 -2.725671,1.35273 -3.257801,4.12583 -1.2132,6.32244 l 0.6302,0.67705 -0.81915,0.60562 c -1.579397,1.1677 -1.997463,3.46059 -1.004839,5.51108 0.990339,2.04576 2.697689,2.75871 6.319759,2.63898 1.75953,-0.0582 2.81566,-0.22904 3.52066,-0.56961 z m -4.71129,-2.31912 c -1.30281,-0.74716 -1.60672,-2.51967 -0.64225,-3.74579 1.4594,-1.85533 4.1792,0.0463 3.40807,2.38286 -0.47657,1.44404 -1.63178,2.0133 -2.76582,1.36293 z m 0,-7.39853 c -0.29104,-0.16856 -0.61664,-0.43571 -0.72355,-0.59367 -0.36871,-0.54475 -0.20458,-1.92307 0.28137,-2.36285 0.64222,-0.5812 1.97224,-0.55692 2.51784,0.046 0.5177,0.57205 0.57401,1.88263 0.10716,2.49381 -0.44622,0.58415 -1.53487,0.79199 -2.18282,0.41674 z m 47.22813,-45.33086 V 137.64524 H 105.70104 59.266669 v 15.74271 15.74271 h 46.434371 46.43438 z M 131.69619,108.87197 105.83334,83.009119 79.970484,108.87197 54.107633,134.73482 h 51.725707 51.7257 z M 118.59014,131.277 c -5.85133,-0.1393 -8.39116,-0.29133 -8.6651,-0.51868 -0.46797,-0.38838 -0.5098,-1.61624 -0.07,-2.056 0.24695,-0.24694 0.24695,-0.38805 0,-0.635 -0.43627,-0.43627 -0.39874,-1.40236 0.0696,-1.79103 0.33896,-0.28132 0.33596,-0.39925 -0.0242,-0.94887 -0.36824,-0.562 -0.36946,-0.71135 -0.0116,-1.42858 0.22635,-0.45373 0.29417,-0.86612 0.15644,-0.95123 -0.38871,-0.24024 -0.28073,-1.61054 0.15544,-1.97252 0.30202,-0.25065 1.37553,-0.28768 4.43177,-0.15284 3.40702,0.15031 3.93174,0.12415 3.37969,-0.1685 -0.35943,-0.19053 -0.92816,-0.75398 -1.26384,-1.25209 -1.0597,-1.57249 -0.65889,-1.63629 5.22465,-0.83164 l 5.15937,0.70561 0.13916,1.18116 c 0.15843,1.34475 0.34963,1.73158 1.03793,2.09995 0.74502,0.39873 1.82679,-0.58274 2.0278,-1.83979 0.15598,-0.97546 0.19076,-1.00505 0.89348,-0.76008 0.40215,0.14019 1.10431,0.7192 1.56036,1.28669 0.79886,0.99407 0.89437,1.03466 2.61231,1.10997 0.98072,0.043 1.75337,0.16746 1.71699,0.27661 -0.0364,0.10914 -0.0661,1.73323 -0.0661,3.6091 v 3.41066 l -2.00412,0.1012 c -1.64942,0.0833 -2.08257,0.2 -2.44739,0.65942 -0.73144,0.92108 -1.49501,1.15146 -3.66703,1.10642 -1.13736,-0.0236 -5.79283,-0.13156 -10.34549,-0.23994 z m 13.64459,-1.34625 c 0.76183,-0.65933 1.08025,-0.75218 2.57969,-0.75218 h 1.71058 v -3.01185 c 0,-3.37586 0.0323,-3.32647 -2.18281,-3.33454 -0.99634,-0.004 -1.24559,-0.1718 -2.54697,-1.71851 l -0.62874,-0.74727 -0.35351,1.03265 c -0.94663,2.76525 -3.50288,2.4807 -4.22135,-0.4699 l -0.27609,-1.13385 -4.35412,-0.60109 c -2.39476,-0.3306 -4.5143,-0.57084 -4.71009,-0.53388 -0.26521,0.0501 -0.21923,0.24062 0.18035,0.74739 0.4162,0.52785 1.02926,0.78929 2.73722,1.1673 2.15029,0.47591 2.84728,0.76932 2.54515,1.07146 -0.0823,0.0823 -2.7507,0.0264 -5.92978,-0.12414 -4.88128,-0.2312 -5.83809,-0.21583 -6.15276,0.0988 -0.20493,0.20493 -0.30417,0.55095 -0.22053,0.76891 0.17408,0.45366 1.32273,0.60867 6.33643,0.85511 2.73404,0.13439 3.37344,0.24036 3.37344,0.55908 0,0.33684 -0.69268,0.38046 -4.82865,0.30409 l -4.82865,-0.0892 v 0.66146 c 0,0.64393 0.0631,0.66597 2.38125,0.83188 1.30969,0.0937 3.48258,0.18302 4.82865,0.19843 2.27623,0.0261 2.4474,0.0657 2.4474,0.56669 0,0.51245 -0.11595,0.53177 -2.38125,0.39688 -7.64929,-0.4555 -7.09635,-0.46018 -7.37604,0.0624 -0.62318,1.16444 0.23358,1.31659 9.16197,1.62715 0.35957,0.0125 0.59532,0.18762 0.59532,0.44219 0,0.37731 -0.51248,0.40137 -4.88967,0.2296 -4.47455,-0.1756 -4.90441,-0.15349 -5.06327,0.26048 -0.42841,1.11644 0.0775,1.1849 10.35434,1.4012 5.38178,0.11327 10.02318,0.15631 10.31422,0.0956 0.29104,-0.0607 0.92026,-0.44879 1.39827,-0.86248 z m -65.295144,-1.81051 v -2.64583 h 5.406263 5.40626 l -0.0223,0.78458 c -0.02815,0.99005 0.384024,1.48868 1.548125,1.87287 1.684925,0.55608 3.536659,-0.44388 3.536659,-1.90982 l -3e-6,-0.74763 h 7.540625 7.540625 v 2.64583 2.64583 H 82.417711 66.939586 Z m 12.522539,-1.79264 c -0.578446,-0.36796 -0.669941,-1.53722 -0.203573,-2.60155 0.46596,-1.06341 0.984176,-3.53887 0.935614,-4.46935 -0.01519,-0.29104 -0.09837,-1.22587 -0.184851,-2.07739 -0.08648,-0.85153 -0.04744,-1.65803 0.08675,-1.79222 0.400572,-0.40057 21.794375,-2.32497 22.462545,-2.02054 1.20374,0.54846 1.52247,2.50964 0.56275,3.46263 -0.55369,0.54979 -1.29838,0.66065 -10.649483,1.58526 -5.529792,0.54677 -10.319893,1.05098 -10.644667,1.12046 -1.165116,0.24928 -1.813181,2.63816 -1.005414,3.70612 0.470911,0.6226 0.527347,2.53466 0.08779,2.97422 -0.357846,0.35785 -0.985007,0.40653 -1.447461,0.11236 z m 1.657665,-10.01159 c -0.07737,-0.20163 -0.263478,-0.3666 -0.413568,-0.3666 -0.382495,0 -0.341008,1.76783 0.05784,2.46479 0.306541,0.53564 0.336788,0.49346 0.413568,-0.57683 0.04556,-0.63512 0.01953,-1.31973 -0.05784,-1.52136 z m 1.774081,1.57289 c 0.465717,-0.24296 2.394569,-1.01273 4.28634,-1.7106 3.721423,-1.37282 3.675301,-1.42409 -0.912032,-1.0139 -4.985546,0.4458 -4.754774,0.3697 -4.503222,1.48505 0.118047,0.52342 0.151644,1.11581 0.07466,1.31644 -0.182338,0.47515 0.02492,0.46002 1.054256,-0.077 z m 44.952799,3.82842 c -0.42716,-0.42716 -0.38577,-1.77923 0.0794,-2.59291 0.5328,-0.93204 0.49784,-2.73135 -0.0661,-3.4042 -0.4235,-0.50526 -1.35317,-0.6431 -10.89147,-1.61492 -7.44892,-0.75894 -10.60498,-1.17819 -11.04635,-1.46738 -1.26639,-0.82977 -0.56361,-3.81649 0.90344,-3.83952 0.25466,-0.004 5.22552,0.42769 11.04636,0.95931 8.46312,0.77293 10.64959,1.04955 10.91406,1.38075 0.42422,0.53125 0.4189,2.10773 -0.01,2.95538 -0.33563,0.66334 -0.0853,2.43059 0.65629,4.6337 0.46128,1.37031 0.54319,1.95383 0.37073,2.64094 -0.12856,0.51225 -0.3374,0.66635 -0.90303,0.66635 -0.40468,0 -0.87867,-0.14287 -1.05329,-0.3175 z m 0.60503,-9.71257 c -0.16608,-0.6617 -0.18462,-0.66752 -0.54722,-0.17164 -0.39763,0.5438 -0.50986,2.04146 -0.17786,2.37347 0.32352,0.32352 0.91108,-1.46072 0.72508,-2.20183 z m -1.37785,0.57122 c 0.0785,-0.69123 0.12371,-1.27347 0.10055,-1.29388 -0.0232,-0.0204 -1.53039,-0.17409 -3.3494,-0.34151 -1.81901,-0.16743 -3.9026,-0.36317 -4.63021,-0.43497 -1.16282,-0.11475 -0.9387,0.01 1.85209,1.02795 1.74625,0.63718 3.71078,1.40512 4.36562,1.70655 0.65485,0.30142 1.26444,0.55807 1.35466,0.57034 0.0902,0.0122 0.22822,-0.54326 0.30669,-1.23448 z"
         id="path142"
         inkscape:connector-curvature="0" />
      <path
         style="fill:#7d7d7d;stroke-width:0.26458335"
         d="M 66.195763,189.67076 26.693001,150.47753 61.169939,116.14713 C 80.132256,97.265409 97.969163,79.568926 100.80751,76.821614 l 5.16064,-4.995114 39.50251,39.19322 39.50251,39.19323 -34.47669,34.33015 c -18.96218,18.88158 -36.79897,36.57806 -39.63732,39.32551 l -5.16063,4.99537 z m 82.582057,-4.20187 35.40386,-35.25594 -39.10534,-38.79789 -39.10534,-38.797881 -3.83914,3.674232 c -2.11153,2.020827 -19.770886,19.539406 -39.243008,38.930179 l -35.403858,35.25594 39.105337,38.79789 39.105339,38.79788 3.83914,-3.67423 c 2.11154,-2.02083 19.77089,-19.53941 39.24301,-38.93018 z m -77.605028,-0.59565 -34.527491,-34.52825 34.594018,-34.59402 34.594021,-34.59402 34.59401,34.59402 34.59402,34.59402 -34.52749,34.52825 c -18.99012,18.99054 -34.58737,34.52825 -34.66054,34.52825 -0.0732,0 -15.670428,-15.53771 -34.660548,-34.52825 z m 37.732058,23.81885 c 2.2016,-0.65381 3.27946,-2.15145 3.27674,-4.55289 -0.002,-1.70399 -0.50008,-2.72415 -1.72145,-3.52536 -0.7149,-0.46896 -0.7166,-0.47698 -0.16379,-0.77283 1.3067,-0.69933 1.80802,-3.54053 0.89688,-5.08298 -0.26496,-0.44854 -1.04964,-1.06833 -1.84553,-1.45772 -1.95885,-0.95838 -5.26845,-0.98833 -7.13115,-0.0645 -1.80965,0.89747 -2.547548,2.08957 -2.40358,3.88307 0.09083,1.13153 0.27419,1.5647 0.96331,2.27569 l 0.85113,0.87814 -0.68779,0.45066 c -1.671025,1.0949 -2.186722,3.47158 -1.216722,5.60746 0.546882,1.20419 1.559812,2.04384 2.945102,2.44131 1.39659,0.4007 4.76357,0.3575 6.23685,-0.08 z m -4.41478,-3.02858 c -1.44867,-1.44866 -0.69461,-3.9891 1.18406,-3.9891 2.20918,0 2.92617,3.34523 0.93741,4.37366 -1.03667,0.53608 -1.23718,0.49974 -2.12147,-0.38456 z m 0.8141,-6.82264 c -1.31792,-0.48459 -1.79028,-2.21774 -0.83906,-3.07858 0.64222,-0.5812 1.97224,-0.55692 2.51784,0.046 0.44935,0.49652 0.58177,1.80207 0.2354,2.32081 -0.18137,0.27163 -1.24777,0.92512 -1.43377,0.87862 -0.0459,-0.0115 -0.26213,-0.0866 -0.48041,-0.16682 z m 46.83125,-45.45292 V 137.64524 H 105.70104 59.266669 v 15.74271 15.74271 h 46.434371 46.43438 z M 131.82848,108.73968 105.83334,82.744533 79.838193,108.73968 53.843047,134.73482 h 51.990293 51.99028 z m -13.15178,22.533 c -7.63831,-0.1825 -8.48863,-0.2472 -8.79739,-0.66947 -0.41273,-0.56443 -0.44452,-1.48068 -0.0646,-1.86064 0.19328,-0.19327 0.18168,-0.48702 -0.0383,-0.96985 -0.25634,-0.56262 -0.24057,-0.80555 0.0841,-1.29447 0.35351,-0.53241 0.35442,-0.67086 0.008,-1.19973 -0.34997,-0.53413 -0.34355,-0.67139 0.0602,-1.28761 0.32695,-0.49899 0.37195,-0.76972 0.16272,-0.97895 -0.15907,-0.15907 -0.28922,-0.61841 -0.28922,-1.02075 0,-1.20774 0.65869,-1.36108 4.99969,-1.16388 3.27602,0.14882 3.76443,0.12262 3.21034,-0.17224 -0.93833,-0.49933 -1.93381,-2.04903 -1.58568,-2.46849 0.15085,-0.18177 0.47826,-0.28784 0.72757,-0.23573 0.24931,0.0521 2.35829,0.34046 4.68662,0.64076 5.84562,0.75395 5.38075,0.58171 5.47567,2.02892 0.0626,0.95503 0.23084,1.34049 0.75514,1.73043 0.4027,0.29951 0.85982,0.43061 1.13426,0.32529 0.57714,-0.22147 1.23389,-1.46395 1.23389,-2.33434 0,-0.61306 0.055,-0.64165 0.76113,-0.3955 0.41862,0.14593 1.13861,0.73505 1.59997,1.30916 0.82039,1.02086 0.87638,1.04382 2.54616,1.04382 h 1.70732 v 3.70416 3.70417 h -1.86471 c -1.64084,0 -1.93711,0.0781 -2.46763,0.65055 -0.85534,0.92293 -1.79428,1.20774 -3.82082,1.15897 -0.97279,-0.0234 -5.57373,-0.13347 -10.2243,-0.24458 z m 12.37715,-0.48866 c 0.35679,-0.13565 0.95445,-0.55237 1.32811,-0.92604 0.59109,-0.59109 0.90453,-0.67941 2.41123,-0.67941 h 1.73181 v -3.01185 c 0,-3.36828 0.027,-3.3263 -2.14212,-3.33454 -0.79561,-0.003 -1.13825,-0.20882 -2.09148,-1.25623 l -1.13998,-1.25261 -0.36476,1.05356 c -0.43679,1.26167 -0.77398,1.62394 -1.72948,1.85815 -0.98236,0.24079 -2.24146,-1.00178 -2.47126,-2.4388 l -0.16468,-1.02989 -4.62473,-0.61034 c -2.5436,-0.33568 -4.67724,-0.55783 -4.74141,-0.49366 -0.0642,0.0642 0.12418,0.42287 0.41855,0.79711 0.36529,0.46439 0.97551,0.77426 1.92194,0.97596 2.6732,0.5697 3.44634,0.83622 3.18473,1.09782 -0.16182,0.16183 -2.34753,0.15392 -6.03711,-0.0219 -3.44405,-0.16407 -5.88016,-0.17881 -6.02252,-0.0364 -0.41755,0.41755 -0.0783,1.19145 0.6057,1.38177 0.36304,0.10102 1.44545,0.19554 2.40536,0.21004 3.97801,0.0601 6.58909,0.35751 6.58909,0.75047 0,0.32001 -0.76523,0.36615 -4.82865,0.29111 l -4.82865,-0.0892 v 0.66146 c 0,0.64017 0.0724,0.66699 2.24896,0.83363 1.23693,0.0947 3.40982,0.184 4.82865,0.19844 2.42779,0.0247 2.57969,0.0587 2.57969,0.57648 0,0.5143 -0.10798,0.54059 -1.65365,0.40265 -0.90951,-0.0812 -3.06785,-0.17995 -4.79632,-0.2195 -2.73401,-0.0626 -3.18052,-0.0126 -3.43364,0.38383 -0.56623,0.8869 0.16014,1.09487 4.52511,1.29558 2.29233,0.1054 4.43576,0.20096 4.76318,0.21235 0.35189,0.0122 0.59532,0.18807 0.59532,0.43001 0,0.35759 -0.6268,0.39937 -4.96094,0.33072 l -4.96094,-0.0786 -0.0847,0.5965 c -0.0466,0.32807 0.0725,0.6546 0.26458,0.72563 0.19211,0.071 4.69507,0.23027 10.00658,0.35387 5.31151,0.1236 9.73884,0.24355 9.8385,0.26655 0.0997,0.023 0.47314,-0.0692 0.82993,-0.20481 z m -64.114264,-2.66926 v -2.65131 l 5.357812,0.0716 c 4.03178,0.0539 5.3422,0.15121 5.294726,0.39318 -0.132948,0.67764 0.471696,1.6553 1.2833,2.075 1.650876,0.8537 3.939162,-0.18102 3.939162,-1.78121 v -0.74763 h 7.540625 7.540625 v 2.64583 2.64583 H 82.417711 66.939586 Z m 12.297151,-2.21546 c -0.429792,-0.65595 -0.326366,-1.79926 0.225986,-2.49812 0.280638,-0.35507 0.772519,-3.15618 0.727781,-4.14448 -0.01318,-0.29104 -0.08655,-1.18401 -0.163049,-1.98438 -0.0765,-0.80036 -0.03946,-1.60364 0.08232,-1.78506 0.149744,-0.22308 3.385548,-0.62865 9.995927,-1.25288 12.068298,-1.13962 12.144328,-1.14289 12.800218,-0.54932 1.07659,0.97431 0.89179,3.1038 -0.30899,3.56029 -0.33003,0.12546 -5.183961,0.67534 -10.786513,1.22195 -10.111433,0.98652 -10.190832,0.99893 -10.780456,1.68537 -0.687482,0.80036 -0.774673,2.19935 -0.199752,3.20507 0.464376,0.81234 0.509244,2.42763 0.07937,2.8575 -0.505643,0.50564 -1.223341,0.37009 -1.672849,-0.31594 z m 1.609627,-9.91484 c -0.374314,-0.37432 -0.413028,-0.30689 -0.413028,0.71939 0,0.62284 0.148828,1.39249 0.330729,1.71035 0.302369,0.52836 0.337786,0.46666 0.413028,-0.7194 0.05773,-0.91008 -0.04098,-1.4206 -0.330729,-1.71034 z m 4.084889,1.12882 c 1.527968,-0.5968 3.432968,-1.33322 4.233333,-1.63649 1.258999,-0.47705 1.348184,-0.55381 0.661458,-0.56928 -0.830521,-0.0187 -6.012177,0.44249 -7.445152,0.66267 -0.803744,0.1235 -0.823638,0.15835 -0.615935,1.07927 0.118047,0.52342 0.14541,1.13206 0.0608,1.35254 -0.08461,0.22048 -0.04556,0.35486 0.08677,0.29862 0.132329,-0.0562 1.490755,-0.59053 3.018724,-1.18733 z m 42.871807,4.40977 c -0.37644,-0.70339 -0.34101,-1.33766 0.12461,-2.23045 0.21739,-0.41682 0.39525,-1.21489 0.39525,-1.77349 0,-1.02422 -0.45445,-2.36345 -0.80201,-2.36345 -0.90611,0 -20.89522,-2.13382 -21.24443,-2.26782 -1.14434,-0.43913 -1.33945,-2.5867 -0.32186,-3.54267 l 0.65045,-0.61107 10.66049,0.97781 c 5.86327,0.5378 10.86057,1.03555 11.10512,1.10611 0.80862,0.23331 0.92367,2.78572 0.16791,3.72541 -0.16037,0.1994 -0.15875,0.4888 0.004,0.79375 0.14126,0.26396 0.34358,1.07525 0.4496,1.80285 0.10602,0.72761 0.35589,1.64443 0.55528,2.03738 0.44726,0.88148 0.46913,2.11579 0.045,2.53991 -0.48607,0.48607 -1.4837,0.37779 -1.78985,-0.19427 z m 0.63717,-8.48406 c 0.1513,-0.88404 -0.1778,-1.87979 -0.51111,-1.54647 -0.26974,0.26974 -0.47457,2.02871 -0.29173,2.50519 0.23792,0.62001 0.60836,0.17765 0.80284,-0.95872 z m -1.43662,0.0662 c 0.002,-0.40019 0.0708,-0.97771 0.15282,-1.2834 0.15684,-0.58424 -0.44098,-0.68291 -7.96164,-1.31416 l -1.5875,-0.13325 2.91042,1.03334 c 1.60073,0.56833 3.62479,1.34158 4.49792,1.71834 1.98693,0.85735 1.98362,0.85739 1.98798,-0.0209 z"
         id="path140"
         inkscape:connector-curvature="0" />
      <path
         style="fill:#5d5d5d;stroke-width:0.26458335"
         d="M 66.196445,189.67094 26.694792,150.47753 61.170836,116.14738 C 80.132658,97.265799 97.969038,79.569437 100.80723,76.822133 l 5.16036,-4.995099 39.50242,39.192956 39.50242,39.19296 -34.21174,34.0658 c -18.81645,18.7362 -36.65317,36.43276 -39.63716,39.3257 l -5.42543,5.25989 z m 82.581625,-4.20181 35.40412,-35.25618 -39.10562,-38.79791 -39.10561,-38.797908 -3.57454,3.409637 c -1.966,1.8753 -19.625321,19.39389 -39.242942,38.930201 l -35.668399,35.52056 39.104783,38.79837 39.104788,38.79837 3.83965,-3.67448 c 2.11182,-2.02097 19.77151,-19.53976 39.24377,-38.93066 z m -77.605278,-0.59589 -34.527491,-34.52825 34.594018,-34.59402 34.594021,-34.59402 34.59401,34.59402 34.59402,34.59402 -34.52749,34.52825 c -18.99012,18.99054 -34.58737,34.52825 -34.66054,34.52825 -0.0732,0 -15.670428,-15.53771 -34.660548,-34.52825 z m 37.628888,23.93327 c 3.49127,-0.96961 4.70965,-5.29536 2.18271,-7.74948 -0.90309,-0.87708 -0.9087,-0.89627 -0.39722,-1.35916 0.28535,-0.25823 0.71936,-0.99464 0.96447,-1.63645 0.56148,-1.47021 0.22404,-2.82592 -1.00166,-4.02426 -1.14187,-1.11639 -2.33421,-1.47036 -4.98123,-1.47876 -1.91237,-0.006 -2.42562,0.0915 -3.42934,0.65183 -1.61253,0.90022 -2.391491,2.11844 -2.391491,3.74004 0,1.08635 0.13738,1.43525 0.896171,2.27598 l 0.89617,0.99295 -0.65265,0.49126 c -1.653006,1.24425 -2.163046,3.72092 -1.167845,5.67084 0.639465,1.25292 1.325795,1.86712 2.590325,2.31811 1.2011,0.42837 5.10304,0.49274 6.49159,0.1071 z m -3.66764,-2.64896 c -2.13174,-0.79634 -1.68758,-4.48314 0.54009,-4.48314 1.20198,0 2.01377,0.91843 2.00288,2.26601 -0.005,0.5727 -0.16317,1.24496 -0.3523,1.4939 -0.48027,0.63214 -1.51767,0.97463 -2.19067,0.72323 z m -0.7149,-7.87741 c -0.59396,-0.65632 -0.55155,-1.78374 0.0913,-2.42657 1.09538,-1.09537 2.91042,-0.35529 2.91042,1.18673 0,0.49068 -0.1871,1.07924 -0.41578,1.30792 -0.56879,0.5688 -2.04472,0.52994 -2.58592,-0.0681 z m 47.9168,-44.82605 0.0682,-15.80885 H 105.70313 59.002086 v 15.69861 c 0,8.63424 0.07971,15.77832 0.177123,15.87574 0.09742,0.0974 21.082185,0.14702 46.632811,0.11024 l 46.45569,-0.0669 z M 131.82848,108.73968 105.83334,82.744533 79.838193,108.73968 53.843047,134.73482 h 51.990293 51.99028 z m -11.31077,22.5228 c -5.23875,-0.12329 -9.79108,-0.28724 -10.11628,-0.36432 -0.70439,-0.16695 -1.02848,-1.18233 -0.62062,-1.94441 0.20987,-0.39216 0.20578,-0.71978 -0.015,-1.20443 -0.24487,-0.53743 -0.22018,-0.79264 0.12813,-1.32424 0.26402,-0.40294 0.32992,-0.72125 0.16982,-0.8202 -0.3655,-0.22589 -0.32727,-1.54651 0.0559,-1.92964 0.24694,-0.24694 0.24694,-0.38806 0,-0.635 -0.44349,-0.44349 -0.39584,-1.41844 0.0932,-1.9075 0.34664,-0.34664 1.05859,-0.39301 4.56406,-0.29729 2.28435,0.0624 3.88953,0.0523 3.56707,-0.0223 -0.73161,-0.16934 -1.92726,-1.5579 -1.92726,-2.23823 0,-0.64931 0.30247,-0.64808 5.22757,0.0211 6.082,0.82642 5.50008,0.63048 5.50008,1.85195 0,1.32512 1.04729,2.54185 1.94314,2.25752 0.62528,-0.19845 1.35213,-1.40532 1.35213,-2.24509 0,-0.93532 1.00428,-0.63567 2.17282,0.64832 0.74939,0.82344 1.2954,1.19152 1.77047,1.19354 0.3778,0.002 1.1334,0.0767 1.6791,0.16691 l 0.99219,0.164 v 3.53725 3.53726 h -1.85449 c -1.69958,0 -1.92387,0.0663 -2.68508,0.79375 -0.45682,0.43656 -0.96175,0.79537 -1.12207,0.79736 -0.16032,0.002 -0.52961,0.0451 -0.82065,0.0957 -0.29104,0.0507 -4.81542,-0.009 -10.05417,-0.13208 z m 11.47758,-0.92061 c 0.70744,-0.87365 1.46862,-1.1633 3.05711,-1.1633 h 1.4726 v -3.175 -3.175 h -1.56978 c -1.53956,0 -1.58858,-0.0229 -2.54542,-1.19062 -0.96018,-1.17178 -1.44105,-1.47206 -1.44105,-0.89988 0,0.73013 -0.90158,2.07097 -1.58205,2.35283 -1.2908,0.53467 -2.65128,-0.64041 -2.65128,-2.28996 0,-0.46835 -0.0893,-0.9044 -0.19844,-0.96899 -0.42275,-0.25018 -9.32919,-1.32228 -9.50707,-1.1444 -0.47558,0.47558 1.18542,1.49694 3.20897,1.97321 2.51095,0.59098 3.08846,1.23466 0.90377,1.00734 -0.78028,-0.0812 -3.47175,-0.22222 -5.98105,-0.3134 -4.17579,-0.15173 -4.57728,-0.1269 -4.73846,0.29314 -0.0969,0.2524 -0.0555,0.65108 0.0919,0.88597 0.22038,0.35122 1.09704,0.46818 4.93689,0.65864 3.79416,0.18819 4.66894,0.30341 4.66894,0.61496 0,0.32531 -0.61115,0.35812 -4.0349,0.21665 -2.21919,-0.0917 -4.29417,-0.21971 -4.61107,-0.28447 -0.785,-0.16042 -1.48849,0.56125 -1.15485,1.18467 0.28038,0.52388 2.3062,0.80724 5.83207,0.81576 2.47351,0.006 3.96871,0.2429 3.96887,0.6289 9e-5,0.21523 -1.27651,0.23835 -4.67387,0.0846 -4.07932,-0.18456 -4.72677,-0.15868 -5.08887,0.20341 -0.31663,0.31663 -0.34674,0.52334 -0.12715,0.87293 0.28591,0.45518 2.74768,0.69999 8.23612,0.81906 1.24054,0.0269 1.65365,0.13036 1.65365,0.41409 0,0.31615 -0.81421,0.37043 -4.96094,0.33073 l -4.96094,-0.0475 -0.0847,0.5965 c -0.0509,0.35848 0.0816,0.66032 0.33212,0.75645 0.45011,0.17272 15.27021,0.59175 18.89212,0.53416 1.89849,-0.0302 2.26906,-0.11269 2.65679,-0.59152 z m -65.055704,-2.08934 v -2.51354 h 5.399188 c 5.054984,0 5.391304,0.0301 5.275511,0.47294 -0.189105,0.72314 0.866003,1.86539 1.902735,2.05988 1.743819,0.32715 3.297566,-0.5546 3.297566,-1.87136 v -0.66146 h 7.540625 7.540625 v 2.51354 2.51354 H 82.417711 66.939586 Z m 12.439547,-2.11169 c -0.351142,-0.4231 -0.258024,-1.86931 0.204748,-3.17998 0.534733,-1.51446 0.846272,-3.87719 0.577458,-4.37947 -0.300411,-0.56133 -0.337193,-2.62598 -0.05468,-3.06932 0.178152,-0.27956 19.03722,-2.21724 21.518481,-2.21092 1.0222,0.003 1.65083,0.51222 1.90187,1.54182 0.23023,0.94421 -0.28745,2.08213 -1.08428,2.38339 -0.39074,0.14773 -5.332782,0.71745 -10.982319,1.26604 l -10.271887,0.99744 -0.377592,0.73018 c -0.484976,0.93784 -0.470871,2.59527 0.02769,3.25444 0.580607,0.76762 0.506209,2.44748 -0.123312,2.78439 -0.688951,0.36871 -0.951479,0.34553 -1.33618,-0.11801 z m 1.813398,-9.53284 c -0.140194,-0.50774 -0.368368,-0.92318 -0.507047,-0.92318 -0.371763,0 -0.306983,2.48517 0.07473,2.86688 0.477967,0.47797 0.755922,-0.7717 0.432317,-1.9437 z m 2.820713,0.83701 c 1.159748,-0.4871 3.277012,-1.27333 4.705032,-1.74718 1.42802,-0.47384 2.55859,-0.89934 2.512375,-0.94555 -0.04621,-0.0462 -2.226622,0.11494 -4.845357,0.35811 -3.432643,0.31876 -4.753948,0.53443 -4.734875,0.77287 0.01455,0.1819 0.04432,0.80698 0.06615,1.38906 0.02183,0.58209 0.07307,1.05834 0.113866,1.05834 0.0408,0 1.023065,-0.39854 2.182813,-0.88565 z m 43.767316,4.036 c -0.3335,-0.62316 -0.17709,-1.55899 0.46762,-2.79781 0.36554,-0.70239 0.38562,-1.00224 0.12404,-1.85208 -0.17166,-0.5577 -0.41091,-1.1662 -0.53167,-1.35221 -0.15092,-0.23248 -3.43496,-0.66673 -10.50464,-1.38906 -5.65679,-0.57798 -10.43995,-1.05086 -10.62924,-1.05086 -0.18929,0 -0.58229,-0.23813 -0.87333,-0.52917 -0.77416,-0.77415 -0.70247,-2.232 0.15176,-3.08624 0.59681,-0.5968 0.8338,-0.66229 1.91823,-0.53009 0.68052,0.083 5.40449,0.52147 10.49771,0.97447 5.09323,0.45299 9.51718,0.92744 9.83099,1.05434 0.77967,0.31527 0.99558,1.52254 0.51944,2.90453 -0.27004,0.78383 -0.31449,1.3298 -0.14462,1.77659 0.13488,0.35476 0.24928,1.02422 0.25421,1.48769 0.005,0.46347 0.23903,1.31892 0.52019,1.901 0.58444,1.20993 0.64435,1.80395 0.25528,2.53094 -0.36864,0.68879 -1.47829,0.66366 -1.85597,-0.042 z m 0.54891,-7.79779 c 0.34381,-0.90428 0.32693,-1.89333 -0.0361,-2.11772 -0.443,-0.27379 -0.75558,0.41377 -0.76012,1.67193 -0.005,1.25506 0.40203,1.48268 0.79625,0.44579 z m -0.94081,-2.21843 c 0.0945,-0.15284 0.0159,-0.28142 -0.1746,-0.28574 -0.19049,-0.004 -2.07276,-0.17938 -4.18281,-0.38902 -5.6949,-0.56579 -5.84136,-0.51652 -2.24896,0.75646 1.74625,0.61879 3.82985,1.42495 4.63021,1.79148 l 1.45521,0.6664 0.1746,-1.13085 c 0.096,-0.62196 0.25189,-1.25589 0.34635,-1.40873 z"
         id="path138"
         inkscape:connector-curvature="0" />
      <path
         style="fill:#343434;stroke-width:0.26458335"
         d="M 66.227177,189.66686 26.75331,150.47753 51.41051,125.93712 C 64.97197,112.43989 82.794742,94.745164 91.016669,86.6155 l 14.948961,-14.781209 39.47387,39.189329 39.47386,39.18933 -24.6572,24.54041 C 146.6947,188.25059 128.87193,205.94531 120.65,214.07498 l -14.94896,14.78121 z m 78.800003,-0.41049 c 21.44479,-21.30924 39.0238,-38.82195 39.06447,-38.91712 0.0943,-0.22078 -77.89638,-77.64922 -78.2131,-77.64922 -0.21998,0 -78.141417,77.28193 -78.303367,77.66073 -0.09579,0.22405 78.055907,77.80854 78.286427,77.71825 0.0963,-0.0377 17.72078,-17.5034 39.16557,-38.81264 z m -73.854388,-4.38313 -34.527491,-34.52825 34.594018,-34.59402 34.594021,-34.59402 34.59401,34.59402 34.59402,34.59402 -34.52749,34.52825 c -18.99012,18.99054 -34.58737,34.52825 -34.66054,34.52825 -0.0732,0 -15.670428,-15.53771 -34.660548,-34.52825 z m 37.628888,23.93327 c 1.936,-0.53767 3.63462,-2.69613 3.63462,-4.61856 0,-1.12246 -0.8791,-2.92068 -1.68644,-3.44968 l -0.68407,-0.44821 0.78114,-0.88967 c 1.82373,-2.07711 1.18155,-4.92274 -1.39207,-6.16861 -1.51758,-0.73465 -3.91171,-0.95975 -5.87597,-0.55246 -1.28575,0.26659 -1.79259,0.53846 -2.70649,1.45174 -1.033644,1.03295 -1.124481,1.23446 -1.124481,2.49459 0,1.53789 0.520611,2.76729 1.362691,3.21796 0.55383,0.2964 0.54969,0.31028 -0.24185,0.81145 -1.843436,1.16718 -2.225632,4.49804 -0.73967,6.44624 1.11934,1.46753 2.46746,1.96898 5.30737,1.97415 1.30969,0.002 2.82404,-0.11863 3.36522,-0.26894 z m -4.44869,-3.19113 c -0.76048,-0.84032 -0.6925,-2.77678 0.12059,-3.43518 1.38882,-1.12459 3.21184,-0.0931 3.21184,1.81731 0,1.88343 -2.14824,2.92639 -3.33243,1.61787 z m 0.0401,-7.43943 c -0.85451,-1.21999 -0.10617,-2.85154 1.30791,-2.85154 1.44882,0 2.29145,2.04648 1.23594,3.0017 -0.70952,0.6421 -2.04411,0.56333 -2.54385,-0.15016 z m 47.94281,-44.72186 0.0682,-15.80885 H 105.70313 59.002086 v 15.69861 c 0,8.63424 0.07971,15.77832 0.177123,15.87574 0.09742,0.0974 21.082185,0.14702 46.632811,0.11024 l 46.45569,-0.0669 z M 131.82848,108.73968 105.83334,82.744533 79.838193,108.73968 53.843047,134.73482 h 51.990293 51.99028 z M 120.65,131.23356 c -5.31151,-0.10668 -9.92337,-0.25732 -10.24857,-0.33476 -0.70353,-0.16751 -1.02851,-1.18291 -0.6218,-1.94284 0.18697,-0.34937 0.20174,-0.76103 0.0423,-1.18027 -0.17004,-0.44724 -0.13517,-0.85503 0.11424,-1.33576 0.20978,-0.40435 0.25651,-0.75532 0.11243,-0.84437 -0.35341,-0.21842 -0.30441,-1.54497 0.0709,-1.92032 0.24694,-0.24694 0.24694,-0.38806 0,-0.635 -0.44644,-0.44644 -0.39459,-1.27544 0.11498,-1.83852 0.39077,-0.43179 0.83098,-0.46704 4.56406,-0.36538 2.27237,0.0619 3.8634,0.0509 3.53563,-0.0244 -0.67731,-0.15566 -1.91759,-1.64831 -1.91759,-2.30778 0,-0.57818 0.31914,-0.56626 5.9768,0.22323 2.60635,0.3637 4.75744,0.66136 4.7802,0.66146 0.0228,10e-5 -0.0188,0.23044 -0.0924,0.51187 -0.30742,1.17557 0.74921,2.9279 1.76548,2.9279 0.60873,0 1.59287,-1.30034 1.59287,-2.10465 0,-1.03541 0.74609,-1.08933 1.62587,-0.1175 0.3427,0.37856 0.83144,0.91434 1.08611,1.19063 0.25466,0.27629 0.79044,0.50366 1.19062,0.50526 0.40018,0.002 1.17409,0.0767 1.71979,0.16691 l 0.99219,0.164 v 3.53726 3.53725 h -1.93487 c -1.78964,0 -1.99006,0.0576 -2.66996,0.76726 -0.4043,0.422 -1.05165,0.80895 -1.43856,0.8599 -0.38692,0.051 -5.04927,0.005 -10.36078,-0.10134 z m 11.26267,-0.85818 c 0.99118,-0.99119 1.53061,-1.19681 3.13973,-1.19681 h 1.4726 v -3.175 -3.175 h -1.49729 c -1.44755,0 -1.53569,-0.0417 -2.65361,-1.25677 -0.94583,-1.02798 -1.20234,-1.18452 -1.40908,-0.85989 -0.13901,0.21828 -0.25457,0.58448 -0.2568,0.81377 -0.006,0.64346 -1.21865,1.63362 -2.00026,1.63362 -0.98743,0 -1.77499,-0.90198 -1.95315,-2.23692 l -0.15168,-1.13652 -4.7625,-0.6695 c -2.87552,-0.40423 -4.80366,-0.56903 -4.86639,-0.41594 -0.24047,0.58693 1.5034,1.67648 3.19376,1.99542 1.66748,0.31464 2.5775,0.66492 2.32642,0.8955 -0.0685,0.063 -2.66223,4e-5 -5.76375,-0.1398 -3.10152,-0.13983 -5.81019,-0.1886 -6.01927,-0.10837 -0.54547,0.20932 -0.48201,1.42063 0.0829,1.58208 0.25466,0.0728 2.45732,0.21433 4.8948,0.31453 3.6155,0.14863 4.43177,0.25299 4.43177,0.56659 0,0.32665 -0.60635,0.35936 -4.0349,0.21769 -2.21919,-0.0917 -4.29417,-0.21971 -4.61107,-0.28447 -0.3169,-0.0648 -0.76338,0.0695 -0.99219,0.29827 -1.04518,1.04518 -0.2082,1.41462 3.58002,1.58019 4.65349,0.20338 6.05812,0.37386 6.05826,0.73529 9e-5,0.23542 -1.14363,0.25994 -4.67387,0.10021 -4.07932,-0.18456 -4.72677,-0.15868 -5.08887,0.20341 -0.31663,0.31663 -0.34674,0.52334 -0.12715,0.87293 0.28591,0.45518 2.74768,0.69999 8.23612,0.81906 1.33703,0.029 1.65365,0.11839 1.65365,0.46687 0,0.37812 -0.28408,0.41059 -2.31511,0.26466 -3.318,-0.23842 -7.10068,-0.26522 -7.44446,-0.0528 -0.37702,0.23301 -0.38228,1.12376 -0.008,1.35508 0.15763,0.0974 3.93786,0.26357 8.40052,0.36922 13.8441,0.32776 12.41352,0.36871 13.15888,-0.37665 z m -64.973084,-2.12285 v -2.51354 h 5.291667 c 5.180607,0 5.291666,0.0115 5.291666,0.54952 0,0.92368 1.401988,2.09631 2.506329,2.09631 1.70179,0 2.785338,-0.83184 2.785338,-2.1383 0,-0.48845 0.283559,-0.50753 7.540625,-0.50753 h 7.540625 v 2.51354 2.51354 H 82.417711 66.939586 Z m 12.488333,-2.03729 c -0.40736,-0.40736 -0.409313,-1.92959 -0.0034,-2.67646 0.342289,-0.62985 0.812326,-3.09273 0.791985,-4.14979 -0.007,-0.3638 -0.0928,-1.32098 -0.190656,-2.12706 -0.134345,-1.10663 -0.08674,-1.54128 0.194347,-1.77456 0.22043,-0.18294 4.808855,-0.71666 11.249557,-1.30854 10.481278,-0.96319 10.896388,-0.98229 11.402008,-0.52471 0.65704,0.59461 0.86621,1.62616 0.52702,2.59914 -0.19112,0.54827 -0.51917,0.81702 -1.2282,1.00618 -0.84242,0.22475 -19.253373,2.14305 -20.473645,2.13322 -1.067385,-0.009 -1.630497,2.67186 -0.86832,4.13327 0.512969,0.98358 0.50574,2.06803 -0.01728,2.59104 -0.497155,0.49715 -0.952186,0.52948 -1.383393,0.0983 z m 1.87021,-8.04975 c 0.157128,-0.82197 -0.252518,-2.48067 -0.612645,-2.48067 -0.277561,0 -0.347001,2.09079 -0.09155,2.75649 0.240956,0.62792 0.55494,0.50494 0.704195,-0.27582 z m 2.330736,-0.53261 c 0.934596,-0.38377 3.128013,-1.22178 4.874263,-1.86225 2.516132,-0.92282 2.927924,-1.13828 1.984375,-1.03828 -0.654844,0.0694 -2.954782,0.27514 -5.110975,0.45719 -3.755972,0.3171 -3.914212,0.35384 -3.773927,0.87615 0.08053,0.29985 0.148053,0.93213 0.15004,1.40507 0.0021,0.47294 0.04262,0.8599 0.09029,0.8599 0.04767,0 0.851344,-0.314 1.785937,-0.69778 z m 44.151605,3.70554 c -0.28855,-0.75893 -0.17914,-1.36829 0.47674,-2.65522 0.35617,-0.69884 0.37527,-1.00654 0.11501,-1.85208 -0.17166,-0.5577 -0.41292,-1.16945 -0.53614,-1.35945 -0.15679,-0.24175 -3.27423,-0.65745 -10.38578,-1.38491 -5.58897,-0.57171 -10.49017,-1.11055 -10.89156,-1.19742 -1.40029,-0.30305 -1.73203,-2.30736 -0.57364,-3.46576 0.59805,-0.59804 0.83155,-0.66214 1.91823,-0.52655 0.68052,0.0849 5.34495,0.52201 10.36542,0.97135 5.02047,0.44933 9.40023,0.87361 9.7328,0.94284 0.84784,0.1765 1.17786,1.20348 0.82636,2.57153 -0.15706,0.6113 -0.28355,1.29004 -0.28108,1.50832 0.0131,1.15946 0.54589,3.67274 0.92548,4.36563 0.23917,0.43656 0.43558,1.00993 0.43648,1.27416 0.005,1.49887 -1.62966,2.11915 -2.12832,0.80756 z m 0.79105,-8.8286 c 0.004,-0.3638 -0.0966,-0.82637 -0.22421,-1.02793 -0.18616,-0.29394 -0.29009,-0.25811 -0.52512,0.18104 -0.33127,0.61898 -0.39564,2.50816 -0.0957,2.80812 0.25305,0.25304 0.83472,-1.09697 0.84502,-1.96123 z m -1.18286,-1.04503 c 0.0945,-0.15284 0.0159,-0.28036 -0.1746,-0.28338 -0.19049,-0.003 -2.01322,-0.17809 -4.05052,-0.38904 -5.95334,-0.61644 -6.05153,-0.55817 -1.71979,1.02069 2.11005,0.76908 4.19365,1.58758 4.63021,1.81888 l 0.79375,0.42055 0.1746,-1.1549 c 0.096,-0.6352 0.25189,-1.27996 0.34635,-1.4328 z"
         id="path136"
         inkscape:connector-curvature="0" />
      <path
         style="fill:#000000;stroke-width:0.26458335"
         d="M 66.298244,189.6225 C 44.677337,168.13395 26.988059,150.47603 26.98874,150.38268 c 0.0015,-0.20066 78.52913,-78.184111 78.84975,-78.303305 0.22527,-0.08375 78.84167,77.923365 78.83944,78.228425 -0.002,0.20066 -78.52913,78.18411 -78.84975,78.30331 -0.12056,0.0448 -17.909027,-17.50006 -39.529936,-38.98861 z m 78.802916,-0.38322 C 166.57802,167.92064 184.15,150.4022 184.15,150.30941 c 0,-0.31338 -78.07647,-77.787709 -78.30709,-77.703167 -0.32551,0.119329 -78.326241,77.570927 -78.326241,77.774827 0,0.31338 78.076471,77.78771 78.307091,77.70317 0.12571,-0.0461 17.80054,-17.52631 39.2774,-38.84496 z m -73.928368,-4.36604 -34.527491,-34.52825 34.594018,-34.59402 34.594021,-34.59402 34.59401,34.59402 34.59402,34.59402 -34.52749,34.52825 c -18.99012,18.99054 -34.58737,34.52825 -34.66054,34.52825 -0.0732,0 -15.670428,-15.53771 -34.660548,-34.52825 z m 36.662468,24.19099 c 2.03517,-0.36699 3.34762,-1.23951 4.05144,-2.6934 0.98734,-2.03956 0.60484,-4.20936 -0.97661,-5.54006 l -0.81602,-0.68664 0.54255,-0.49101 c 0.9425,-0.85294 1.35171,-1.94072 1.2084,-3.21216 -0.16498,-1.46372 -0.82582,-2.3803 -2.33095,-3.23303 -1.02967,-0.58335 -1.47894,-0.66129 -3.81303,-0.66146 -2.32045,-1.6e-4 -2.78441,0.0792 -3.77267,0.64517 -2.526848,1.44717 -3.107717,4.2869 -1.27449,6.23068 l 0.84127,0.89201 -0.60964,0.27777 c -1.48624,0.67717 -2.228711,4.00167 -1.293504,5.7918 1.226664,2.34802 4.387164,3.37567 8.243254,2.68033 z m -3.09171,-3.15826 c -0.76989,-0.44985 -1.11716,-1.70112 -0.76676,-2.76283 0.51699,-1.5665 1.93281,-1.94568 3.0592,-0.8193 1.72051,1.72052 -0.23877,4.78207 -2.29244,3.58213 z m -0.21753,-7.65555 c -0.84446,-0.84445 -0.59612,-2.06754 0.54364,-2.67752 0.78327,-0.4192 2.04396,0.15096 2.26293,1.02344 0.41899,1.66937 -1.60086,2.85979 -2.80657,1.65408 z M 152.4,153.52024 v -15.875 H 105.70104 59.002086 v 15.875 15.875 H 105.70104 152.4 Z M 131.82848,108.73968 105.83334,82.744533 79.838193,108.73968 53.843047,134.73482 h 51.990293 51.99028 z m -16.26927,22.35746 -5.22308,-0.0777 -0.42974,-0.65588 c -0.3981,-0.60757 -0.39646,-0.70667 0.0222,-1.34561 0.32695,-0.49899 0.37195,-0.76973 0.16272,-0.97896 -0.35024,-0.35024 -0.38409,-1.68102 -0.048,-1.88871 0.14105,-0.0872 0.11609,-0.48041 -0.0601,-0.94728 -0.22753,-0.60279 -0.2251,-0.92025 0.01,-1.2966 0.23772,-0.38065 0.23831,-0.69156 0.002,-1.31633 -0.26069,-0.69066 -0.2382,-0.88853 0.1445,-1.27123 0.38635,-0.38635 0.93177,-0.44387 3.69566,-0.38969 1.78334,0.035 3.77821,0.13467 4.43305,0.22161 1.2873,0.1709 1.26411,-0.12107 -0.0446,-0.56197 -0.82041,-0.2764 -2.10961,-2.04423 -1.75173,-2.4021 0.0997,-0.0997 2.47944,0.13063 5.2883,0.51184 2.80886,0.38122 5.17241,0.69251 5.25233,0.69176 0.0799,-7.9e-4 0.10464,0.3856 0.0549,0.85855 -0.12323,1.17266 0.76512,2.57968 1.62874,2.57968 0.81832,0 1.74288,-1.14177 1.74288,-2.15235 0,-1.13471 0.66456,-0.95943 2.14148,0.56485 1.25918,1.29957 1.30997,1.32292 2.87746,1.32292 h 1.59565 v 1.94556 c 0,1.07006 -0.0765,2.67741 -0.16999,3.57188 l -0.1699,1.62631 h -1.71331 c -1.52641,0 -1.81195,0.0866 -2.61735,0.79375 l -0.90403,0.79375 -5.34861,-0.0602 c -2.94173,-0.0331 -7.69899,-0.0952 -10.57169,-0.13788 z m 16.55974,-0.86023 c 0.8097,-0.71092 1.08676,-0.79375 2.65505,-0.79375 h 1.751 l 0.002,-1.52136 c 0.001,-0.83674 0.0778,-2.32502 0.17056,-3.30729 l 0.16867,-1.78594 h -1.65445 c -1.62989,0 -1.67118,-0.0182 -2.78167,-1.22769 -1.11317,-1.21243 -1.72579,-1.34728 -1.72579,-0.37987 0,1.25702 -1.51063,2.18962 -2.76627,1.70779 -0.58582,-0.2248 -1.20248,-1.49061 -1.20248,-2.46834 0,-0.44379 -0.11999,-0.80689 -0.26664,-0.80689 -0.30965,0 -7.64761,-0.98979 -8.94202,-1.20615 l -0.87429,-0.14614 0.42399,0.81991 c 0.48473,0.93734 0.85494,1.12032 3.5074,1.73346 1.05502,0.24388 1.91823,0.50469 1.91823,0.57957 0,0.0749 -2.66782,0.0492 -5.92849,-0.0571 -5.73108,-0.18686 -5.93777,-0.17594 -6.20745,0.32797 -0.2018,0.37706 -0.19032,0.63844 0.0415,0.9448 0.26067,0.34449 1.14404,0.45734 4.73366,0.60475 4.04684,0.16619 5.33833,0.36171 4.95056,0.74948 -0.0803,0.0803 -2.21572,0.0272 -4.74545,-0.11785 -3.82988,-0.21964 -4.66097,-0.20232 -4.96683,0.10353 -0.21107,0.21108 -0.2964,0.59072 -0.20061,0.89254 0.19392,0.61097 1.26526,0.8486 3.85644,0.85537 2.78722,0.007 6.08542,0.32536 6.08542,0.58686 0,0.14129 -2.07049,0.20774 -4.96094,0.15922 -4.85948,-0.0816 -4.96255,-0.072 -5.03985,0.46903 -0.0434,0.30377 0.0778,0.68242 0.26944,0.84143 0.20014,0.1661 2.28824,0.3698 4.90756,0.47875 3.43073,0.1427 4.5592,0.27351 4.5592,0.52851 0,0.24591 -0.38108,0.30973 -1.38906,0.23262 -2.59084,-0.1982 -7.73738,-0.32626 -8.06979,-0.20081 -0.1819,0.0686 -0.33073,0.40552 -0.33073,0.74861 0,0.34309 0.14883,0.72012 0.33073,0.83785 0.29608,0.19162 6.91913,0.40645 17.18871,0.55754 l 3.62881,0.0534 z m -65.179364,-1.98438 v -2.51354 h 5.291667 5.291666 l 0.0084,0.59531 c 0.03713,2.62671 5.221436,2.74751 5.373722,0.12522 l 0.04182,-0.72016 7.474479,-1.8e-4 7.474479,-1.9e-4 v 2.51354 2.51354 H 82.417711 66.939586 Z m 12.347223,-2.16076 c -0.324622,-0.32462 -0.180959,-2.09768 0.212072,-2.61731 0.213651,-0.28248 0.397473,-0.93031 0.408487,-1.43964 0.01101,-0.50932 0.170643,-1.34715 0.35473,-1.86185 0.269753,-0.75422 0.269816,-1.08793 2.64e-4,-1.71979 -0.433318,-1.01595 -0.445796,-2.293 -0.02752,-2.81681 0.264472,-0.33121 2.450944,-0.60782 10.914062,-1.38076 5.820834,-0.53161 10.732166,-0.9633 10.914066,-0.95931 0.69439,0.0153 1.38906,1.05694 1.38906,2.08293 0,1.82572 0.16134,1.78429 -11.533252,2.96196 -11.738766,1.18212 -11.248876,1.04933 -11.583159,3.13982 -0.130289,0.81478 -0.04588,1.26871 0.359587,1.93374 0.897615,1.47223 0.650402,2.85341 -0.51072,2.85341 -0.39674,0 -0.800721,-0.0794 -0.897733,-0.17639 z m 2.100689,-7.91124 c 0.203073,-0.80911 -0.170813,-2.27869 -0.617633,-2.42763 -0.486709,-0.16223 -0.68797,1.11601 -0.341167,2.16683 0.365858,1.10856 0.72173,1.20536 0.9588,0.2608 z m 6.983338,-2.27048 c 1.964531,-0.68994 3.295285,-1.26098 2.957232,-1.269 -0.643599,-0.0152 -9.665076,0.80036 -9.75705,0.88211 -0.02912,0.0259 0.0159,0.71412 0.100049,1.52941 l 0.152993,1.48235 1.487451,-0.68522 c 0.818096,-0.37687 3.094794,-1.24971 5.059325,-1.93965 z m 39.740414,5.80727 c -0.44105,-0.44105 -0.39755,-2.12136 0.071,-2.74078 0.81314,-1.07507 0.17103,-3.6891 -0.96633,-3.93397 -0.33702,-0.0726 -5.13713,-0.57928 -10.66692,-1.12605 -9.53635,-0.94293 -10.08645,-1.02619 -10.68094,-1.61672 -0.50961,-0.50621 -0.59783,-0.80103 -0.4719,-1.57703 0.22691,-1.39828 0.73415,-1.77771 2.28622,-1.71018 2.69384,0.11721 20.64878,1.88357 20.93321,2.05936 0.19619,0.12125 0.23893,0.72596 0.12736,1.80236 -0.0923,0.89094 -0.17885,1.79848 -0.19225,2.01676 -0.0564,0.91869 0.38815,3.13505 0.87559,4.36563 0.41527,1.04838 0.46633,1.47391 0.24605,2.05052 -0.29397,0.76953 -1.01278,0.95837 -1.56105,0.4101 z m 0.21822,-7.76951 c 0.29387,-0.77295 0.34423,-2.32193 0.0839,-2.58222 -0.43395,-0.43395 -0.88424,0.50207 -0.88424,1.83809 0,1.51881 0.37367,1.86625 0.8003,0.74413 z m -1.24384,-0.34539 c -0.0712,-0.27219 -0.011,-0.92362 0.13363,-1.44761 0.25821,-0.93515 0.24764,-0.95516 -0.57341,-1.08553 -0.46006,-0.0731 -2.38428,-0.25824 -4.27606,-0.41154 -1.89177,-0.1533 -3.8563,-0.34434 -4.36562,-0.42454 -1.60395,-0.25254 -0.54924,0.28747 2.83317,1.45061 1.77652,0.61091 3.86011,1.39701 4.6302,1.74689 1.71846,0.78075 1.77903,0.78718 1.61809,0.17172 z"
         id="path134"
         inkscape:connector-curvature="0" />
    </g>
  </g>
</svg>
