<?xml version="1.0" encoding="UTF-8" standalone="no"?>
<!-- Created with Inkscape (http://www.inkscape.org/) -->

<svg
   xmlns:dc="http://purl.org/dc/elements/1.1/"
   xmlns:cc="http://creativecommons.org/ns#"
   xmlns:rdf="http://www.w3.org/1999/02/22-rdf-syntax-ns#"
   xmlns:svg="http://www.w3.org/2000/svg"
   xmlns="http://www.w3.org/2000/svg"
   xmlns:sodipodi="http://sodipodi.sourceforge.net/DTD/sodipodi-0.dtd"
   xmlns:inkscape="http://www.inkscape.org/namespaces/inkscape"
   width="270.93332mm"
   height="270.93332mm"
   viewBox="0 0 270.93332 270.93333"
   version="1.1"
   id="svg119"
   inkscape:version="0.92.4 (5da689c313, 2019-01-14)"
   sodipodi:docname="Class_4_Dangerous_When_Wet.svg">
  <defs
     id="defs113" />
  <sodipodi:namedview
     id="base"
     pagecolor="#ffffff"
     bordercolor="#666666"
     borderopacity="1.0"
     inkscape:pageopacity="0.0"
     inkscape:pageshadow="2"
     inkscape:zoom="0.35"
     inkscape:cx="291.42856"
     inkscape:cy="275.14282"
     inkscape:document-units="mm"
     inkscape:current-layer="layer1"
     showgrid="false"
     inkscape:window-width="1920"
     inkscape:window-height="1017"
     inkscape:window-x="-8"
     inkscape:window-y="-8"
     inkscape:window-maximized="1" />
  <metadata
     id="metadata116">
    <rdf:RDF>
      <cc:Work
         rdf:about="">
        <dc:format>image/svg+xml</dc:format>
        <dc:type
           rdf:resource="http://purl.org/dc/dcmitype/StillImage" />
        <dc:title></dc:title>
      </cc:Work>
    </rdf:RDF>
  </metadata>
  <g
     inkscape:label="Layer 1"
     inkscape:groupmode="layer"
     id="layer1"
     transform="translate(-28.726194,49.301792)">
    <g
       id="g132"
       transform="matrix(1.7066667,0,0,1.7181208,-21.590001,-153.96295)">
      <path
         style="fill:#fefefe;stroke-width:0.26458335"
         d="M 29.482145,139.7619 V 60.916065 h 79.375005 79.37499 V 139.7619 218.60773 H 108.85715 29.482145 Z"
         id="path148"
         inkscape:connector-curvature="0" />
      <path
         style="fill:#bbd2eb;stroke-width:0.26458335"
         d="m 69.190783,179.17213 c -21.69423,-21.56056 -39.44346,-39.27786 -39.442732,-39.37177 0.0016,-0.20113 78.791889,-78.449335 79.112919,-78.568569 0.22535,-0.0837 79.10763,78.186689 79.10527,78.491649 -0.002,0.20113 -78.79189,78.44934 -79.11292,78.56857 -0.12017,0.0446 -17.968307,-17.55931 -39.662537,-39.11988 z M 143.51769,174.2899 178.04518,139.76165 143.45116,105.16763 108.85715,70.57361 74.263128,105.16763 39.66911,139.76165 74.196601,174.2899 c 18.99012,18.99054 34.587369,34.52825 34.660549,34.52825 0.0732,0 15.67042,-15.53771 34.66054,-34.52825 z m -68.527341,-0.79375 -33.733727,-33.73451 33.800261,-33.80026 33.800267,-33.800264 33.80026,33.800264 33.80026,33.80026 -33.73373,33.73451 c -18.55355,18.55397 -33.79361,33.7345 -33.86679,33.7345 -0.0732,0 -15.313252,-15.18053 -33.866801,-33.7345 z m 38.364711,20.76992 v -1.5875 h 0.92604 0.92604 v -1.5875 -1.5875 h -0.92604 -0.92604 v -4.89479 -4.8948 h -1.97343 -1.97343 l -3.97159,4.69636 -3.97159,4.69635 -0.008,1.77905 -0.008,1.77905 4.0349,0.073 4.0349,0.073 0.0794,1.52135 0.0793,1.52136 h 1.83887 1.83888 v -1.5875 z m -7.90129,-5.21399 c 0.22202,-0.26101 1.15772,-1.36752 2.07933,-2.45893 0.9216,-1.09141 1.77975,-2.0256 1.90699,-2.07599 0.12723,-0.0504 0.19695,1.02117 0.15493,2.38125 l -0.0764,2.47287 -2.23425,0.0777 c -2.12584,0.0739 -2.21467,0.0547 -1.83058,-0.39687 z m 49.97004,-46.24747 V 127.0619 H 108.85715 62.290478 v 15.74271 15.74271 h 46.566672 46.56666 z M 122.3509,124.54836 V 123.8869 H 108.98944 95.627978 v 0.66146 0.66146 h 13.361462 13.36146 z m -17.00134,-2.00661 c -0.65278,-0.38015 -1.4037,-1.96236 -1.76706,-3.72326 -0.34817,-1.68725 -1.53158,-3.65105 -2.70269,-4.48496 -0.902711,-0.64278 -0.85988,-0.89316 0.091,-0.53166 0.35952,0.13669 1.2588,0.42824 1.9984,0.64787 l 1.34471,0.39934 -0.51841,-1.87076 c -0.55891,-2.01687 -0.86515,-2.72228 -1.49562,-3.44507 -0.22214,-0.25466 -0.29614,-0.46119 -0.16444,-0.45897 0.51753,0.009 1.0398,0.54713 1.8202,1.87629 1.45764,2.4826 1.98589,1.77982 0.81962,-1.09039 -0.35328,-0.86944 -0.66412,-1.84934 -0.69075,-2.17756 -0.0971,-1.19677 0.0392,-1.37146 0.40785,-0.52295 0.40073,0.92224 2.52132,3.76265 2.80912,3.76265 0.36468,0 0.41124,-1.0628 0.16292,-3.71938 -0.28273,-3.02478 -0.0587,-4.48162 0.85826,-5.58214 l 0.51691,-0.62036 0.009,1.62736 c 0.008,1.38904 0.66685,6.02127 1.2371,8.69139 0.15074,0.70581 0.19262,0.73512 0.37805,0.26458 0.1147,-0.29104 0.21758,-1.48166 0.22862,-2.64583 0.011,-1.16417 0.15875,-2.59292 0.32825,-3.175 l 0.30818,-1.05833 0.22827,1.19062 c 0.12555,0.65485 0.19456,2.70884 0.15336,4.56444 -0.0412,1.8556 -0.0547,3.37364 -0.03,3.37344 0.0247,-2.1e-4 0.24922,-0.62546 0.49897,-1.38944 0.24974,-0.76398 0.69393,-2.03911 0.98708,-2.83362 0.46782,-1.26792 0.5594,-1.37317 0.74897,-0.86073 0.26291,0.7107 -0.15589,3.12206 -0.84654,4.87425 -0.65728,1.66752 -0.6485,1.69792 0.26752,0.92713 0.73273,-0.61654 2.55776,-1.17773 2.85699,-0.8785 0.076,0.076 -0.18153,0.51814 -0.57229,0.98254 -0.93466,1.11077 -2.09305,3.44531 -2.62384,5.28786 -0.23443,0.81381 -0.67514,1.79608 -0.97934,2.18281 -0.66048,0.83967 -0.5197,0.85844 1.42378,0.18978 3.94128,-1.356 5.8267,-3.72311 8.12617,-10.20225 0.61976,-1.74625 1.47556,-3.87467 1.90179,-4.72982 0.96348,-1.93301 2.77431,-3.89981 4.17007,-4.52921 0.83857,-0.37814 0.99813,-0.55259 0.76374,-0.83501 -0.38874,-0.46839 -2.18455,-0.45706 -3.0889,0.0195 -0.86471,0.45566 -3.12978,2.77239 -4.23312,4.32965 -0.44201,0.62385 -0.86705,1.03168 -0.94454,0.90629 -0.0775,-0.12539 0.20924,-1.31679 0.63719,-2.64756 0.98741,-3.07045 1.21571,-5.453069 0.76698,-8.00425 l -0.34686,-1.972083 -0.19453,1.190626 c -0.10699,0.654843 -0.32352,2.127265 -0.48116,3.272046 -0.43977,3.193481 -1.7679,5.723801 -3.00432,5.723801 -0.38476,0 -0.46317,-0.11463 -0.31673,-0.46302 0.60435,-1.4378 0.42906,-2.74139 -1.1118,-8.268231 -0.50713,-1.81901 -1.02451,-4.20026 -1.14973,-5.291667 -0.15794,-1.376534 -0.17732,-0.687647 -0.0633,2.248959 0.26355,6.787187 0.21415,7.303339 -0.74838,7.818469 -0.53059,0.28396 -0.54227,0.24908 -0.37395,-1.116846 0.24998,-2.028571 -0.37338,-4.609129 -2.07407,-8.586176 -2.0972,-4.904275 -2.37222,-6.024121 -2.22643,-9.065773 0.067,-1.398884 0.21949,-2.78155 0.33876,-3.072591 0.21682,-0.52908 0.21676,-0.52908 -0.3846,-3.18e-4 -0.81232,0.714254 -1.83949,2.511706 -2.30747,4.037859 -0.22599,0.736999 -0.48318,3.32701 -0.62371,6.281213 -0.22722,4.776531 -0.50327,6.513886 -1.36377,8.583071 l -0.3785,0.910153 -1.00566,-2.100778 c -1.05161,-2.19677 -1.88301,-5.237438 -2.1625,-7.908915 -0.14114,-1.349026 -0.20849,-1.500758 -0.46977,-1.058333 -0.20254,0.342953 -0.3134,2.427962 -0.32996,6.20599 -0.0227,5.172432 -0.0754,5.803654 -0.58043,6.945314 -0.305524,0.69069 -0.672612,1.25579 -0.815754,1.25579 -0.457988,0 -1.310666,-1.31082 -1.773851,-2.726949 -0.247193,-0.755751 -0.679699,-1.832414 -0.961131,-2.392582 -0.503738,-1.00266 -2.576851,-3.449243 -2.764076,-3.262022 -0.126312,0.126315 1.882204,9.461373 2.398443,11.147333 0.220713,0.72081 0.345075,1.36679 0.276363,1.4355 -0.06871,0.0687 -1.225209,-0.9451 -2.569986,-2.25293 -2.379937,-2.31455 -4.498692,-4.02876 -4.025815,-3.25716 0.129016,0.21052 0.645774,0.91855 1.14835,1.57339 1.269124,1.65365 2.480604,4.38013 3.462901,7.7934 1.050808,3.65133 2.626318,6.84976 4.297997,8.72534 1.640859,1.841 2.541939,2.47954 4.555319,3.22807 1.72532,0.64143 2.77225,0.82465 1.93882,0.33929 z"
         id="path146"
         inkscape:connector-curvature="0" />
      <path
         style="fill:#9bbde2;stroke-width:0.26458335"
         d="M 69.299825,179.21379 C 47.618382,157.69186 29.87902,139.9797 29.87902,139.85343 c 0,-0.29898 78.71818,-78.54049 79.01898,-78.54049 0.309,0 79.1045,78.22599 79.01097,78.4399 -0.0994,0.22741 -78.80431,78.44007 -79.01905,78.52487 -0.0931,0.0368 -17.908652,-17.542 -39.590095,-39.06392 z M 143.51769,174.2899 178.04518,139.76165 143.45116,105.16763 108.85715,70.57361 74.263128,105.16763 39.66911,139.76165 74.196601,174.2899 c 18.99012,18.99054 34.587369,34.52825 34.660549,34.52825 0.0732,0 15.67042,-15.53771 34.66054,-34.52825 z m -68.527341,-0.79375 -33.733727,-33.73451 33.800261,-33.80026 33.800267,-33.800264 33.80026,33.800264 33.80026,33.80026 -33.73373,33.73451 c -18.55355,18.55397 -33.79361,33.7345 -33.86679,33.7345 -0.0732,0 -15.313252,-15.18053 -33.866801,-33.7345 z m 38.364711,20.91818 v -1.43924 l 0.99219,-0.0821 0.99219,-0.0821 0.0788,-1.65365 0.0788,-1.65364 h -1.07096 -1.07096 v -5.02709 -5.02708 l -1.91823,0.004 -1.91823,0.004 -4.03489,4.82044 -4.0349,4.82044 v 1.92213 1.92213 h 3.96875 3.96875 v 1.45521 1.45521 h 1.98438 1.98437 v -1.43924 z m -7.9375,-5.07689 c 0,-0.20131 3.68111,-4.59637 3.84972,-4.59637 0.0655,0 0.11903,1.07156 0.11903,2.38125 v 2.38125 h -1.98437 c -1.09141,0 -1.98438,-0.0748 -1.98438,-0.16613 z m 50.00625,-46.53283 V 127.0619 H 108.85715 62.290478 v 15.74271 15.74271 h 46.566672 46.56666 z M 122.3509,124.68065 V 123.8869 H 108.98944 95.627978 v 0.79375 0.79375 h 13.361462 13.36146 z m -17.291,-2.54649 c -0.38192,-0.38192 -0.88794,-1.36418 -1.12448,-2.18281 -0.87404,-3.02487 -1.27797,-3.88221 -2.3883,-5.06924 l -1.136,-1.21448 1.88353,0.61404 c 1.03594,0.33773 1.91942,0.57817 1.96327,0.53431 0.18964,-0.18963 -0.7877,-3.33021 -1.35578,-4.35668 -0.79276,-1.43244 -0.35706,-1.46809 0.59971,-0.0491 0.3988,0.59147 0.98921,1.39515 1.31204,1.78594 l 0.58695,0.71052 0.008,-0.81428 c 0.005,-0.44785 -0.28929,-1.54682 -0.6531,-2.44214 -0.3638,-0.89532 -0.66029,-2.01717 -0.65887,-2.49301 0.003,-0.85545 0.01,-0.85031 0.66012,0.45776 0.36165,0.72761 1.06949,1.83115 1.57298,2.45232 0.88028,1.08601 0.9269,1.10798 1.21379,0.5719 0.21923,-0.40964 0.22285,-1.2516 0.0136,-3.17476 -0.31475,-2.89328 -0.065,-4.83688 0.75119,-5.84478 0.45578,-0.56286 0.47141,-0.50778 0.61889,2.17977 0.0832,1.51647 0.32609,3.59066 0.53972,4.6093 0.21363,1.01865 0.47077,2.3201 0.57143,2.89211 0.29455,1.67389 0.66138,0.5937 0.66767,-1.96606 0.003,-1.23693 0.14799,-2.72521 0.32212,-3.3073 l 0.31659,-1.05833 0.18493,1.45521 c 0.28428,2.23694 0.26796,6.22965 -0.0289,7.06038 -0.24786,0.69372 -0.23885,0.70968 0.13129,0.23261 0.21857,-0.28171 0.6945,-1.47234 1.05762,-2.64583 0.90176,-2.91426 1.18474,-3.28251 1.18983,-1.54839 0.003,1.15844 -0.55291,3.36975 -1.45028,5.76477 -0.17057,0.45523 -0.13603,0.44577 0.24722,-0.0677 0.60059,-0.80461 1.78995,-1.38755 2.83098,-1.38755 h 0.85639 l -0.66885,0.72761 c -1.05643,1.14923 -1.72157,2.4193 -2.46016,4.69765 -0.37717,1.16345 -0.93838,2.46109 -1.24712,2.88364 l -0.56135,0.76828 0.89788,-0.17485 c 1.63864,-0.31911 4.10055,-1.72413 5.33674,-3.04572 1.49762,-1.60107 2.52448,-3.61142 4.17589,-8.17538 1.87712,-5.18776 3.14015,-7.10936 5.59398,-8.5108 1.14333,-0.65298 1.23787,-0.77347 0.85577,-1.09059 -1.34618,-1.11723 -3.93582,0.20129 -6.2881,3.20158 -0.89795,1.14532 -1.66765,1.92678 -1.71043,1.73659 -0.0428,-0.1902 0.25213,-1.28667 0.65537,-2.4366 0.65042,-1.85479 0.73119,-2.44915 0.71562,-5.265783 -0.0124,-2.247209 -0.14051,-3.484263 -0.4383,-4.233333 l -0.42074,-1.058333 -0.0186,2.061675 c -0.0345,3.810043 -1.1196,7.568664 -2.45523,8.504174 -0.85445,0.59848 -1.35877,0.54995 -1.01231,-0.0974 0.47879,-0.89463 0.30018,-2.53466 -0.6847,-6.287046 -1.3523,-5.152253 -1.66359,-6.640701 -1.70452,-8.150143 l -0.0359,-1.322917 -0.24933,1.058333 c -0.15993,0.678826 -0.1504,2.047304 0.0266,3.816266 0.3986,3.984294 0.35578,6.13842 -0.13597,6.840487 -0.65429,0.93413 -0.89832,0.69116 -0.73034,-0.727165 0.23273,-1.965066 -0.30809,-4.143984 -2.04471,-8.237924 -0.86009,-2.027584 -1.74504,-4.385954 -1.96656,-5.240823 -0.50125,-1.934389 -0.51267,-4.745636 -0.0267,-6.571153 0.20338,-0.763985 0.32489,-1.389063 0.27001,-1.389063 -0.0549,0 -0.57968,0.63564 -1.16624,1.412533 -1.76788,2.341534 -2.13672,3.809784 -2.40351,9.567676 -0.22683,4.895209 -0.61394,7.290739 -1.42477,8.816705 l -0.37635,0.708295 -1.09188,-2.319314 c -1.24912,-2.653308 -1.83529,-5.072764 -1.87394,-7.734853 l -0.0269,-1.852083 -0.56456,1.190625 c -0.52713,1.111691 -0.56003,1.547608 -0.49627,6.575298 0.0638,5.030554 0.0312,5.461206 -0.49509,6.548436 -0.30985,0.64007 -0.663701,1.16377 -0.78633,1.16377 -0.356675,0 -1.214639,-1.36356 -1.58155,-2.513546 -0.606951,-1.902333 -1.785292,-3.948655 -2.887594,-5.014635 -0.594836,-0.575236 -1.081521,-0.916844 -1.081521,-0.759129 0,0.604483 1.925794,9.27074 2.395445,10.77973 0.271473,0.87225 0.446161,1.63333 0.388199,1.69129 -0.05796,0.058 -1.40312,-1.12755 -2.989233,-2.63447 -1.586111,-1.50693 -3.290049,-2.97194 -3.786521,-3.25559 -0.854345,-0.488106 -0.828953,-0.43288 0.474199,1.03134 1.683351,1.8914 2.995367,4.49169 3.945068,7.81876 1.680546,5.88741 3.834021,9.58909 6.812238,11.70977 0.94676,0.67415 3.55832,1.76912 4.23991,1.7777 0.43821,0.005 0.41438,-0.0784 -0.1953,-0.68813 z"
         id="path144"
         inkscape:connector-curvature="0" />
      <path
         style="fill:#7da9da;stroke-width:0.26458335"
         d="M 69.219572,179.08742 29.71681,139.89419 64.193748,105.56379 C 83.156065,86.682069 100.99297,68.985586 103.83132,66.238274 l 5.16064,-4.995114 39.50276,39.19322 39.50276,39.19323 -34.47694,34.3304 c -18.96232,18.88172 -36.79922,36.5782 -39.63757,39.32552 l -5.16064,4.99511 z M 143.51769,174.2899 178.04518,139.76165 143.45116,105.16763 108.85715,70.57361 74.263128,105.16763 39.66911,139.76165 74.196601,174.2899 c 18.99012,18.99054 34.587369,34.52825 34.660549,34.52825 0.0732,0 15.67042,-15.53771 34.66054,-34.52825 z m -68.527336,-0.79479 -33.731666,-33.73554 33.799741,-33.79935 33.799741,-33.799363 33.79872,33.801423 33.79872,33.80142 -33.7327,33.73348 c -18.55298,18.55341 -33.79304,33.73347 -33.86679,33.73347 -0.0738,0 -15.313352,-15.18099 -33.865766,-33.73554 z m 38.364706,20.90325 v -1.45521 h 1.05834 1.05833 v -1.70382 -1.70382 l -0.99219,-0.0821 -0.99219,-0.0821 -0.072,-4.96094 -0.072,-4.96094 h -1.9183 -1.91831 l -4.02898,4.78599 -4.02899,4.78599 v 1.96088 1.96089 h 3.96875 3.96875 v 1.45521 1.45521 h 1.98438 1.98437 z m -7.9375,-5.04283 c 0,-0.17765 3.71615,-4.61446 3.86495,-4.61446 0.0571,0 0.1038,1.07156 0.1038,2.38125 v 2.38125 h -1.98437 c -1.09141,0 -1.98438,-0.0666 -1.98438,-0.14804 z m 50.00625,-46.55092 V 127.0619 H 108.85715 62.290478 v 15.74271 15.74271 h 46.566672 46.56666 z M 122.3509,124.68065 V 123.8869 H 108.98944 95.627978 v 0.79375 0.79375 h 13.361462 13.36146 z m -15.68208,-1.74735 c -0.0879,-0.0879 -0.31612,-0.0973 -0.50712,-0.0209 -0.21106,0.0845 -0.14837,0.14716 0.15986,0.15985 0.27891,0.0115 0.43518,-0.051 0.34726,-0.13896 z m 6.80986,-0.55106 c 2.74518,-0.9533 5.1184,-3.15389 6.46933,-5.99877 0.42433,-0.89358 1.32746,-3.17251 2.00695,-5.06428 1.82693,-5.08639 3.15819,-7.09163 5.55065,-8.36082 0.65741,-0.34876 1.19528,-0.70916 1.19528,-0.8009 0,-0.0917 -0.36335,-0.31729 -0.80745,-0.50125 -1.69125,-0.70054 -4.00202,0.73907 -6.34028,3.95 -0.65044,0.89319 -1.22078,1.50952 -1.26741,1.36961 -0.0466,-0.13991 0.2426,-1.24396 0.64276,-2.45343 0.61822,-1.86859 0.72969,-2.65627 0.74179,-5.241751 0.009,-2.018572 -0.11823,-3.443457 -0.37934,-4.233333 l -0.39358,-1.190625 -0.062,1.5875 c -0.16283,4.168079 -1.16459,7.906699 -2.37336,8.857519 -0.94575,0.74393 -1.52266,0.72441 -1.11478,-0.0377 0.48557,-0.90731 0.1406,-3.41923 -1.08304,-7.886171 -0.61674,-2.251396 -1.20066,-4.930302 -1.29761,-5.953126 l -0.17627,-1.859679 -0.19394,1.190625 c -0.10666,0.654844 -0.0745,2.321719 0.0716,3.704167 0.39687,3.757467 0.34921,6.125802 -0.13723,6.820294 -0.22653,0.32342 -0.49442,0.58774 -0.59531,0.58737 -0.10089,-2.6e-4 -0.18823,-1.101696 -0.19409,-2.447396 -0.0101,-2.316403 -0.0787,-2.608794 -1.2877,-5.489435 -2.2835,-5.44072 -2.84209,-7.171235 -2.99239,-9.270441 -0.12969,-1.811379 0.10209,-3.753632 0.61459,-5.149942 0.19105,-0.520508 0.18529,-0.520924 -0.377,-0.02728 -0.87145,0.765052 -2.16773,2.914372 -2.60689,4.322401 -0.23524,0.754227 -0.48358,3.179876 -0.61741,6.030581 -0.22045,4.695786 -0.6914,7.672809 -1.43508,9.071518 l -0.37841,0.711708 -0.91993,-1.984375 c -1.26721,-2.733477 -1.78741,-4.677646 -2.00885,-7.507711 l -0.18889,-2.414164 -0.49023,1.058333 c -0.42814,0.924279 -0.49277,1.797018 -0.51028,6.89011 -0.0176,5.115605 -0.0777,5.919783 -0.48916,6.548433 -0.258016,0.39416 -0.623046,0.71666 -0.811175,0.71666 -0.427125,0 -1.290439,-1.54701 -1.884286,-3.376536 -0.248536,-0.765693 -0.892505,-1.97858 -1.431041,-2.695305 -1.010674,-1.345081 -2.503506,-2.699181 -2.295573,-2.082242 0.06468,0.191884 0.607687,2.64807 1.206699,5.458193 0.599011,2.81012 1.254588,5.57832 1.456838,6.15156 0.20225,0.57324 0.304337,1.04225 0.226862,1.04225 -0.07748,0 -1.416542,-1.22039 -2.975703,-2.71198 -1.55916,-1.49159 -3.246662,-2.93728 -3.750003,-3.21264 l -0.915165,-0.500662 0.950685,1.029822 c 2.071354,2.2438 3.293658,4.62864 4.460423,8.70275 1.136062,3.96691 3.100983,7.89755 4.866529,9.73506 1.48117,1.54154 3.88833,2.93169 5.6137,3.24194 l 1.042,0.18736 -0.70541,-0.76134 c -0.65189,-0.7036 -1.00349,-1.59203 -1.78772,-4.51723 -0.18383,-0.6857 -0.79205,-1.65106 -1.59102,-2.52527 l -1.29343,-1.41522 1.85716,0.62287 c 1.02143,0.34258 1.90233,0.57769 1.95755,0.52248 0.21394,-0.21394 -1.00047,-4.07074 -1.49876,-4.75992 -0.28935,-0.40018 -0.42192,-0.7276 -0.29459,-0.7276 0.33156,0 0.92547,0.73779 1.75714,2.18281 0.39782,0.69122 0.83107,1.25677 0.96276,1.25677 0.45215,0 0.23883,-1.60489 -0.42202,-3.175 -0.3638,-0.86435 -0.66145,-1.89797 -0.66145,-2.29693 0,-0.71908 0.004,-0.71743 0.46858,0.19046 0.25772,0.50372 0.96065,1.53714 1.56208,2.2965 0.92422,1.16694 1.14341,1.32051 1.41598,0.99208 0.24828,-0.29915 0.25789,-1.01268 0.0418,-3.10045 -0.30714,-2.96719 -0.10585,-4.75162 0.67002,-5.93981 l 0.47176,-0.72248 0.18226,2.76896 c 0.17574,2.66993 1.05271,8.06087 1.36154,8.3697 0.23928,0.23928 0.40351,-0.91101 0.51909,-3.63575 0.14507,-3.41994 0.57373,-4.17573 0.8065,-1.42199 0.25408,3.00574 0.21183,5.53776 -0.10653,6.38509 -0.24468,0.65122 -0.23202,0.69495 0.10078,0.34795 0.20936,-0.21828 0.70726,-1.4089 1.10646,-2.64583 0.3992,-1.23693 0.8301,-2.36207 0.95755,-2.50031 0.54813,-0.59456 0.17414,2.51313 -0.55432,4.60617 -0.75733,2.176 -0.88257,3.00321 -0.28588,1.88829 0.36483,-0.68169 1.61408,-1.34832 2.52671,-1.34832 h 0.68731 l -0.77026,1.12448 c -1.12026,1.63546 -1.75096,2.99221 -2.40321,5.16983 -0.47465,1.58465 -0.72916,2.0217 -1.42681,2.45014 l -0.8491,0.52147 0.92604,-0.17595 c 0.50932,-0.0968 1.39839,-0.33998 1.9757,-0.54046 z"
         id="path142"
         inkscape:connector-curvature="0" />
      <path
         style="fill:#5e94d1;stroke-width:0.26458335"
         d="M 69.220268,179.08761 29.718601,139.89419 64.194645,105.56404 C 83.156467,86.682459 100.99285,68.986097 103.83104,66.238793 l 5.16036,-4.995099 39.50217,39.192956 39.50217,39.19296 -34.47607,34.33015 c -18.96184,18.88158 -36.79844,36.57815 -39.6369,39.32571 l -5.16084,4.99555 z M 143.51769,174.2899 178.04518,139.76165 143.45116,105.16763 108.85715,70.57361 74.263128,105.16763 39.66911,139.76165 74.196601,174.2899 c 18.99012,18.99054 34.587369,34.52825 34.660549,34.52825 0.0732,0 15.67042,-15.53771 34.66054,-34.52825 z m -68.527336,-0.79479 -33.731666,-33.73554 33.800249,-33.79935 33.800243,-33.799363 33.79719,33.802443 33.79719,33.80245 -33.73167,33.73245 c -18.55242,18.55285 -33.79202,33.73245 -33.86577,33.73245 -0.0738,0 -15.313352,-15.18099 -33.865766,-33.73554 z m 38.364706,20.90325 v -1.45521 h 1.07042 1.07043 l -0.0782,-1.78594 -0.0782,-1.78593 -0.99219,-0.0821 -0.99219,-0.0821 v -4.87882 -4.87882 h -1.9437 -1.9437 l -4.15242,4.95574 -4.15241,4.95575 0.0768,1.72498 0.0768,1.72499 4.0349,0.073 4.03489,0.073 v 1.44832 1.44832 h 1.98438 1.98437 z m -6.0548,-7.40833 c 1.05324,-1.23693 1.95347,-2.24896 2.00052,-2.24896 0.047,0 0.0855,1.01203 0.0855,2.24896 v 2.24895 h -2.00052 -2.00051 z m 48.12355,-44.05313 v -15.875 H 108.85715 62.290478 v 15.875 15.875 h 46.566672 46.56666 z M 122.3509,124.68065 V 123.8869 H 108.98944 95.627978 v 0.79375 0.79375 h 13.361462 13.36146 z m -13.16303,-1.50964 c -0.32742,-0.0631 -0.8632,-0.0631 -1.19062,0 -0.32742,0.0631 -0.0595,0.11466 0.59531,0.11466 0.65485,0 0.92274,-0.0516 0.59531,-0.11466 z m -2.89377,-0.36956 c -1.39557,-0.40377 -1.90737,-1.3016 -2.98234,-5.23179 -0.19808,-0.7242 -0.77967,-1.6581 -1.55284,-2.49352 -0.75842,-0.81948 -1.03165,-1.25525 -0.70698,-1.12758 0.88343,0.34739 3.14447,0.92894 3.24006,0.83335 0.22678,-0.22678 -0.86535,-3.72574 -1.41635,-4.53769 -0.33943,-0.50017 -0.52012,-0.9094 -0.40154,-0.9094 0.3115,0 0.89907,0.746 1.71921,2.18281 0.39456,0.69122 0.83143,1.25677 0.97081,1.25677 0.45298,0 0.26838,-1.48479 -0.40803,-3.28183 -0.3638,-0.96653 -0.65391,-2.02251 -0.64468,-2.34661 l 0.0168,-0.58927 0.24687,0.6158 c 0.13577,0.3387 0.8082,1.37422 1.49427,2.30116 1.77685,2.40068 1.98133,2.11156 1.76163,-2.49087 -0.16526,-3.4619 -0.14684,-3.65424 0.45915,-4.79446 l 0.63131,-1.18788 0.16327,2.77813 c 0.14069,2.39384 0.81104,6.97169 1.19998,8.19466 0.27267,0.8574 0.61651,-0.41412 0.62051,-2.29466 0.002,-1.04787 0.14901,-2.53615 0.32618,-3.30729 l 0.32213,-1.40209 0.23218,3.29131 c 0.14453,2.04884 0.13544,3.78055 -0.0241,4.58728 -0.38562,1.95028 0.2474,1.07431 1.10463,-1.52859 0.3834,-1.16417 0.82359,-2.29526 0.97819,-2.51354 0.50117,-0.7076 0.0793,2.64921 -0.5486,4.36562 -0.93358,2.55186 -0.95878,2.76331 -0.23154,1.94316 0.77427,-0.87318 1.56765,-1.2817 2.48918,-1.2817 h 0.71025 l -0.65532,0.8599 c -0.90667,1.1897 -1.9389,3.28585 -2.31488,4.70078 -0.52467,1.97456 -1.0999,2.94696 -1.96648,3.3243 -1.05356,0.45875 -0.38507,0.46658 1.302,0.0152 2.12775,-0.56922 3.87328,-1.59681 5.33146,-3.13862 1.63824,-1.7322 2.29449,-2.98172 3.91421,-7.45281 0.67962,-1.87606 1.5927,-4.11827 2.02906,-4.9827 0.9164,-1.81536 2.57841,-3.58242 4.00496,-4.25808 1.20313,-0.56983 1.23849,-0.80805 0.18473,-1.24452 -1.68497,-0.69794 -3.88972,0.66145 -6.35543,3.91859 -0.71708,0.94723 -1.30378,1.54675 -1.30378,1.33226 0,-0.2145 0.32002,-1.27405 0.71115,-2.35457 0.63135,-1.74413 0.71234,-2.35052 0.72175,-5.40415 0.008,-2.658804 -0.0883,-3.649793 -0.42498,-4.365626 l -0.43559,-0.926041 -0.0268,1.5875 c -0.0851,5.038847 -1.63818,9.392707 -3.35042,9.392707 -0.37016,0 -0.40537,-0.0706 -0.15842,-0.3175 0.60092,-0.60093 0.34024,-3.18791 -0.71542,-7.099751 -1.36675,-5.064604 -1.71217,-6.914349 -1.53618,-8.226452 0.11162,-0.83213 0.073,-1.016024 -0.16377,-0.779335 -0.36412,0.364045 -0.39831,3.246612 -0.0928,7.824081 0.16314,2.444403 0.13211,3.322399 -0.13486,3.815567 -0.64494,1.1914 -0.87924,0.88594 -0.78842,-1.027877 0.10644,-2.242688 -0.2973,-3.73855 -2.21637,-8.211649 -2.20535,-5.140386 -2.63324,-7.671859 -1.85562,-10.978026 0.20509,-0.871925 0.33259,-1.625602 0.28336,-1.674839 -0.0492,-0.04924 -0.56743,0.515081 -1.15154,1.254037 -1.75979,2.226296 -2.18323,3.744801 -2.44079,8.752995 -0.12348,2.401094 -0.29344,4.960938 -0.37768,5.688542 -0.14561,1.257675 -1.12036,4.630208 -1.33826,4.630208 -0.23903,0 -2.04009,-4.228195 -2.41056,-5.659083 -0.22187,-0.856924 -0.49047,-2.583331 -0.5969,-3.836458 l -0.19351,-2.278409 -0.5094,1.058333 c -0.4572,0.949886 -0.50255,1.583854 -0.44256,6.186863 0.0662,5.077733 -0.0979,6.573193 -0.831282,7.576133 -0.364249,0.49814 -0.397941,0.49978 -0.901615,0.044 -0.287774,-0.26043 -0.898904,-1.46889 -1.358064,-2.685454 -0.850231,-2.252713 -1.929038,-3.86846 -3.291618,-4.929902 -0.697653,-0.543468 -0.746556,-0.550333 -0.600644,-0.08433 0.08736,0.279017 0.589161,2.526975 1.115102,4.995461 0.525944,2.468485 1.172472,5.182845 1.43673,6.031905 0.577599,1.85583 0.691626,1.91618 -2.931983,-1.55178 -1.393716,-1.33385 -2.933507,-2.63176 -3.421755,-2.88424 -0.886315,-0.45833 -0.885759,-0.45682 0.35021,0.95608 1.499076,1.71367 2.850073,4.22506 3.614044,6.71821 1.384012,4.51661 1.725049,5.42668 2.871264,7.66217 2.223881,4.33728 6.143791,7.22119 9.835901,7.23635 0.57168,0.002 0.54701,-0.0304 -0.1818,-0.24126 z"
         id="path140"
         inkscape:connector-curvature="0" />
      <path
         style="fill:#3f80c9;stroke-width:0.26458335"
         d="m 69.250986,179.08352 -39.473867,-39.18933 24.6572,-24.54041 C 67.995779,101.85655 85.818551,84.161824 94.040478,76.03216 l 14.948962,-14.781209 39.47386,39.189329 39.47387,39.18933 -24.6572,24.54041 c -13.56146,13.49723 -31.38423,31.19195 -39.60616,39.32162 l -14.94896,14.78121 z M 143.51769,174.2899 178.04518,139.76165 143.45116,105.16763 108.85715,70.57361 74.263128,105.16763 39.66911,139.76165 74.196601,174.2899 c 18.99012,18.99054 34.587369,34.52825 34.660549,34.52825 0.0732,0 15.67042,-15.53771 34.66054,-34.52825 z M 75.12264,173.36385 41.521207,139.76164 75.189175,106.09367 108.85715,72.4257 l 33.66796,33.66797 33.66797,33.66797 -33.60143,33.60221 c -18.48079,18.48122 -33.66132,33.60222 -33.7345,33.60222 -0.0732,0 -15.253724,-15.121 -33.73451,-33.60222 z m 38.23242,21.03451 v -1.45521 h 1.05834 1.05833 v -1.85208 -1.85209 h -1.05833 -1.05834 v -4.89479 -4.89479 h -1.95967 -1.95968 l -4.12574,4.91158 -4.12574,4.91159 v 1.83529 1.83529 h 4.10104 4.10104 v 1.45521 1.45521 h 1.98438 1.98437 z m -7.67291,-5.32847 c 0,-0.13971 1.97297,-2.52465 3.35439,-4.05479 0.29285,-0.32438 0.34977,-0.0122 0.34977,1.91823 v 2.30565 h -1.85208 c -1.01865,0 -1.85208,-0.0761 -1.85208,-0.16909 z m 49.74166,-46.13299 v -15.875 H 108.85715 62.290478 v 15.875 15.875 h 46.566672 46.56666 z M 122.3509,124.68065 V 123.8869 H 108.98944 95.627978 v 0.79375 0.79375 h 13.361462 13.36146 z m -13.15939,-1.50917 c -0.32542,-0.0628 -0.92073,-0.0644 -1.32291,-0.004 -0.40219,0.0608 -0.13593,0.1122 0.59167,0.11418 0.7276,0.002 1.05666,-0.0478 0.73124,-0.11057 z m -2.97104,-0.42399 c -1.16267,-0.40046 -2.00384,-1.64322 -2.41865,-3.57337 -0.43016,-2.00156 -0.87834,-2.87538 -2.15256,-4.19681 l -1.06493,-1.10438 1.76852,0.53981 c 0.97268,0.2969 1.82707,0.48124 1.89866,0.40966 0.25832,-0.25832 -0.77288,-3.68964 -1.37586,-4.57818 -0.33943,-0.50017 -0.49735,-0.9094 -0.35095,-0.9094 0.1464,0 0.75143,0.7739 1.3445,1.71979 0.59307,0.94588 1.18406,1.71979 1.31333,1.71979 0.45254,0 0.22913,-1.77538 -0.42643,-3.38871 -0.71037,-1.74824 -0.96987,-3.58502 -0.28385,-2.00918 0.19629,0.4509 0.87226,1.48588 1.50214,2.29995 1.67548,2.16543 1.89705,1.8228 1.66867,-2.58038 -0.17061,-3.28933 -0.14714,-3.54697 0.43613,-4.78605 l 0.61644,-1.30959 0.19176,3.04271 c 0.21007,3.33338 1.03257,7.92657 1.43512,8.01433 0.14274,0.0311 0.33142,-1.2221 0.42982,-2.85496 0.0965,-1.60072 0.28737,-3.20448 0.42423,-3.5639 0.36712,-0.96408 0.69663,6.18216 0.34042,7.38284 -0.29123,0.98165 -0.1411,1.43314 0.26722,0.80361 0.13885,-0.21407 0.54997,-1.34171 0.91359,-2.50588 0.87497,-2.80124 1.17714,-3.25072 1.18239,-1.75882 0.002,0.63338 -0.35314,2.21773 -0.7897,3.52078 -0.89332,2.66637 -0.99112,3.34158 -0.32946,2.27443 0.48603,-0.78388 1.78952,-1.52285 2.68621,-1.52285 0.53623,0 0.52981,0.0377 -0.17228,1.01199 -0.90133,1.25075 -2.07786,3.77765 -2.449,5.25984 -0.32918,1.31463 -1.36845,2.64366 -2.1919,2.80305 -0.50811,0.0983 -0.49241,0.11828 0.11775,0.14951 1.17882,0.0603 3.93092,-0.93761 5.42665,-1.96776 2.38557,-1.643 3.76079,-3.8967 5.63894,-9.241 1.89794,-5.4006 3.3844,-7.62166 5.98559,-8.94362 l 1.23934,-0.62985 -0.62646,-0.43879 c -1.77065,-1.2402 -4.53542,0.37691 -7.39224,4.32372 -0.474,0.65484 -0.799,0.9525 -0.72222,0.66145 0.0768,-0.29104 0.46322,-1.63649 0.85877,-2.9899 0.64198,-2.19659 0.7053,-2.76463 0.58987,-5.291668 -0.0711,-1.557009 -0.28731,-3.307178 -0.48041,-3.889261 l -0.35108,-1.058334 -0.17651,2.526361 c -0.31217,4.468062 -1.30323,7.638672 -2.59648,8.306662 l -0.68946,0.35612 -0.0153,-2.28728 c -0.0125,-1.8711 -0.22621,-3.033473 -1.17454,-6.388321 -0.89279,-3.158366 -1.16296,-4.567925 -1.17534,-6.132182 -0.0116,-1.463217 -0.0889,-1.907095 -0.27669,-1.5875 -0.31827,0.54179 -0.34125,3.903631 -0.0546,7.984265 0.16412,2.336287 0.13338,3.191428 -0.13241,3.683278 -0.63333,1.17199 -0.87915,0.89014 -0.78671,-0.902017 0.1236,-2.396289 -0.24884,-3.847516 -2.08387,-8.119756 -2.3855,-5.553808 -2.8076,-7.952908 -1.96705,-11.180027 0.22183,-0.851647 0.35674,-1.595036 0.2998,-1.651975 -0.19694,-0.196937 -1.76488,1.790701 -2.39246,3.032868 -0.86894,1.719862 -1.15772,3.484231 -1.35171,8.258463 -0.16443,4.046728 -0.53451,6.427692 -1.26904,8.164547 l -0.37575,0.888505 -0.83609,-1.786676 c -1.21119,-2.588247 -1.86234,-4.954635 -2.10868,-7.663251 l -0.21656,-2.38125 -0.50727,1.058333 c -0.45132,0.941604 -0.50737,1.685753 -0.50818,6.746875 -8e-4,4.948648 -0.062,5.800391 -0.47073,6.548441 -0.258401,0.47294 -0.56737,0.85989 -0.6866,0.85989 -0.441788,0 -1.102487,-1.00438 -1.586923,-2.412421 -0.274283,-0.797218 -0.754401,-1.950707 -1.066924,-2.563307 -0.567143,-1.111687 -2.830333,-3.685416 -3.048712,-3.467034 -0.167764,0.167765 2.138889,10.772942 2.603585,11.970352 0.367773,0.94767 0.364056,0.99124 -0.05679,0.66563 -0.24768,-0.19163 -1.470057,-1.36233 -2.716396,-2.60155 -1.24634,-1.23922 -2.784453,-2.53991 -3.418027,-2.89043 l -1.151956,-0.637302 1.413547,1.695642 c 1.695704,2.0341 2.876089,4.49161 3.961275,8.24721 2.121355,7.34157 5.052319,11.14992 9.732621,12.6461 0.83501,0.26693 1.87538,0.48501 2.31195,0.48462 l 0.79375,-8e-4 -0.91688,-0.31579 z"
         id="path138"
         inkscape:connector-curvature="0" />
      <path
         style="fill:#2e75c3;stroke-width:0.26458335"
         d="M 69.250639,179.08352 29.776426,139.89419 54.16939,115.618 C 67.585518,102.2661 85.408447,84.571504 93.775895,76.296684 l 15.213545,-15.045127 39.47372,39.189023 39.47373,39.18903 -24.65706,24.54041 c -13.56138,13.49723 -31.38409,31.19195 -39.60602,39.32162 l -14.94896,14.78121 z M 143.51769,174.2899 178.04518,139.76165 143.45116,105.16763 108.85715,70.57361 74.263128,105.16763 39.66911,139.76165 74.196601,174.2899 c 18.99012,18.99054 34.587369,34.52825 34.660549,34.52825 0.0732,0 15.67042,-15.53771 34.66054,-34.52825 z M 75.12264,173.36385 41.521207,139.76164 75.189175,106.09367 108.85715,72.4257 l 33.66796,33.66797 33.66797,33.66797 -33.60143,33.60221 c -18.48079,18.48122 -33.66132,33.60222 -33.7345,33.60222 -0.0732,0 -15.253724,-15.121 -33.73451,-33.60222 z m 38.49701,21.03451 v -1.45521 h 0.92604 0.92604 v -1.85208 -1.85209 h -0.92007 -0.92008 l -0.0721,-4.82864 -0.0721,-4.82865 -2.0179,-0.0767 -2.01791,-0.0767 -4.13366,4.90651 -4.13365,4.90652 v 1.8509 1.8509 h 4.10104 4.10104 v 1.45521 1.45521 h 2.11667 2.11667 z m -7.9375,-5.30606 c 0,-0.11806 2.51626,-3.16514 3.47305,-4.20571 0.13331,-0.14499 0.23111,0.72271 0.23111,2.05052 v 2.30187 h -1.85208 c -1.01865,0 -1.85208,-0.066 -1.85208,-0.14668 z m 49.74166,-46.1554 v -15.875 H 108.85715 62.290478 v 15.875 15.875 h 46.566672 46.56666 z M 122.3509,124.54836 v -0.92604 H 108.98944 95.627978 v 0.92604 0.92604 h 13.361462 13.36146 z m -10.72024,-1.59115 c 5.1948,-1.10038 7.57495,-3.69342 10.1968,-11.10885 1.92815,-5.45342 3.37809,-7.62357 5.97552,-8.94362 l 1.23934,-0.62985 -0.62646,-0.43879 c -1.77065,-1.2402 -4.53542,0.37691 -7.39224,4.32372 -0.474,0.65484 -0.79954,0.9525 -0.72344,0.66145 0.0761,-0.29104 0.45843,-1.60072 0.8496,-2.91041 0.8152,-2.72935 0.97215,-5.74425 0.42011,-8.069794 -0.5235,-2.205334 -0.78891,-2.468558 -0.80032,-0.79375 -0.0319,4.683609 -1.58183,9.525004 -3.04931,9.525004 -0.27467,0 -0.3051,-0.18973 -0.12893,-0.80398 0.29441,-1.02656 0.007,-2.76987 -1.16012,-7.042759 -1.18264,-4.328782 -1.56154,-6.491568 -1.37753,-7.862983 l 0.14644,-1.091324 -0.38143,0.79375 c -0.47067,0.979464 -0.49687,2.733789 -0.10473,7.011458 0.27802,3.03261 0.26287,3.395189 -0.18231,4.365625 l -0.48551,1.058333 -0.1796,-2.645833 c -0.19481,-2.870001 -0.26306,-3.097958 -2.45686,-8.206052 -2.09689,-4.882445 -2.38137,-7.300428 -1.35363,-11.505406 0.14016,-0.573486 0.0221,-0.511568 -0.88755,0.465558 -2.14538,2.304467 -2.62738,4.084886 -2.94961,10.895372 -0.14719,3.110831 -0.38476,5.395863 -0.64813,6.233862 -0.72374,2.302798 -0.8193,2.309217 -1.85133,0.124312 -1.13389,-2.400576 -1.66676,-4.427953 -1.94508,-7.400354 l -0.21057,-2.248958 -0.52051,0.926041 c -0.47348,0.842378 -0.52078,1.451922 -0.5236,6.746875 -0.003,5.09618 -0.0623,5.929983 -0.47854,6.697603 -0.769866,1.41972 -0.855871,1.3206 -3.200931,-3.689007 -0.596078,-1.273365 -1.344758,-2.379752 -2.028122,-2.997131 -0.59578,-0.538253 -1.129133,-0.932749 -1.185227,-0.876657 -0.121187,0.121187 1.836703,9.285875 2.387214,11.174305 0.210563,0.7223 0.337968,1.35815 0.28312,1.413 -0.05485,0.0549 -1.107943,-0.9085 -2.340211,-2.14077 -1.958041,-1.95804 -4.339585,-3.8928 -4.791739,-3.8928 -0.08233,0 0.452827,0.74414 1.189239,1.65365 1.711936,2.11432 2.90046,4.60951 3.938381,8.26822 2.201955,7.762 5.648661,11.75686 11.179906,12.95794 2.20015,0.47775 3.9127,0.47858 6.1579,0.003 z m -4.94246,-0.10033 c -1.65601,-0.34716 -2.35681,-1.26499 -2.89027,-3.78541 -0.39428,-1.8628 -0.86977,-2.76789 -2.15342,-4.099 l -1.06967,-1.10922 1.65118,0.51391 c 0.90816,0.28265 1.7691,0.51391 1.91322,0.51391 0.53074,0 -0.56651,-3.8164 -1.40301,-4.87983 -0.29264,-0.37203 -0.40175,-0.67642 -0.24246,-0.67642 0.15929,0 0.63731,0.56554 1.06228,1.25677 1.3205,2.14786 1.53873,2.37544 1.84148,1.92042 0.29467,-0.44287 0.15102,-1.21736 -0.51763,-2.79087 -0.24981,-0.58789 -0.53233,-1.48085 -0.6278,-1.98438 l -0.17361,-0.91549 0.4711,0.82371 c 0.67307,1.17686 2.52565,3.54192 2.77442,3.54192 0.30126,0 0.3192,-0.24347 0.33146,-4.49792 0.01,-3.36892 0.0755,-3.93864 0.54022,-4.67493 l 0.52916,-0.83847 0.006,1.76451 c 0.008,2.28271 1.21208,9.33986 1.57367,9.22042 0.14989,-0.0495 0.36644,-1.39016 0.48123,-2.97921 0.35377,-4.89733 0.70069,-4.70633 0.6399,0.3523 -0.0302,2.51043 0.0259,4.56425 0.12457,4.56406 0.18775,-2.6e-4 1.26138,-2.69514 1.2954,-3.25141 0.0108,-0.17645 0.25083,-0.79706 0.53342,-1.37914 l 0.51379,-1.05834 -0.12824,1.61311 c -0.0705,0.8872 -0.48617,2.58384 -0.92364,3.77031 -0.43746,1.18646 -0.74045,2.15721 -0.67331,2.15721 0.0671,0 0.51063,-0.42085 0.98553,-0.93521 0.58286,-0.6313 1.18478,-0.9863 1.85226,-1.09241 l 0.98879,-0.15719 -1.15016,1.75117 c -0.6326,0.96314 -1.35497,2.43699 -1.60528,3.27521 -1.06837,3.57771 -1.41982,3.95522 -3.8546,4.14038 -0.94465,0.0718 -2.1578,0.0383 -2.69588,-0.0745 z"
         id="path136"
         inkscape:connector-curvature="0" />
      <path
         style="fill:#0056b7;stroke-width:0.26458335"
         d="M 69.322053,179.03916 C 47.701146,157.55061 30.011868,139.89269 30.012549,139.79934 c 0.0015,-0.20066 78.529131,-78.184111 78.849751,-78.303305 0.22527,-0.08375 78.84167,77.923365 78.83944,78.228425 -0.001,0.20066 -78.52913,78.18411 -78.84975,78.30331 -0.12056,0.0448 -17.909028,-17.50006 -39.529937,-38.98861 z m 74.327927,-4.61697 34.65978,-34.66054 -34.7263,-34.72631 -34.72631,-34.726315 -34.726316,34.726315 -34.726309,34.72631 34.659785,34.66054 c 19.062882,19.0633 34.71966,34.66054 34.79284,34.66054 0.0732,0 15.72995,-15.59724 34.79283,-34.66054 z M 75.12264,173.36385 41.521207,139.76164 75.189175,106.09367 108.85715,72.4257 l 33.66796,33.66797 33.66797,33.66797 -33.60143,33.60221 c -18.48079,18.48122 -33.66132,33.60222 -33.7345,33.60222 -0.0732,0 -15.253724,-15.121 -33.73451,-33.60222 z m 38.49701,21.03451 v -1.45521 h 0.92604 0.92604 v -1.85208 -1.85209 h -0.92604 -0.92604 v -4.90549 -4.90549 l -2.1739,0.0769 -2.17388,0.0768 -4.03253,4.7625 -4.03253,4.7625 -0.0113,1.91823 -0.0113,1.91823 h 4.10104 4.10104 v 1.45521 1.45521 h 2.11667 2.11667 z m -7.9375,-5.27487 c 0,-0.0635 0.83343,-1.08311 1.85208,-2.26576 l 1.85208,-2.15026 v 2.26575 2.26576 h -1.85208 c -1.01865,0 -1.85208,-0.052 -1.85208,-0.11549 z m 49.74166,-46.18659 v -15.875 H 108.85715 62.290478 v 15.875 15.875 h 46.566672 46.56666 z M 122.3509,124.54836 v -0.92604 H 108.98944 95.627978 v 0.92604 0.92604 h 13.361462 13.36146 z m -10.54866,-1.57169 c 2.39561,-0.50778 4.31662,-1.53847 5.9109,-3.17144 1.57371,-1.61189 2.55937,-3.51842 4.25042,-8.22146 0.68021,-1.89177 1.58155,-4.04962 2.00296,-4.79521 0.9083,-1.60703 2.79493,-3.41911 4.14868,-3.98474 l 0.96984,-0.40523 -0.61826,-0.50064 c -0.68329,-0.55329 -1.74199,-0.64157 -2.81261,-0.23452 -0.86561,0.3291 -3.53359,2.84607 -4.50939,4.25415 -0.39852,0.57507 -0.76172,1.00842 -0.80713,0.96302 -0.0454,-0.0454 0.28398,-1.20841 0.73196,-2.58448 1.01455,-3.11647 1.14461,-6.567686 0.34355,-9.116513 -0.47834,-1.52201 -0.50204,-1.549296 -0.5745,-0.661458 -0.4472,5.47986 -1.0082,7.962611 -2.08968,9.247871 -0.88564,1.05251 -1.5236,1.09964 -1.13747,0.084 0.35009,-0.9208 0.0268,-2.82681 -1.33371,-7.863805 -1.20265,-4.452461 -1.48491,-6.343711 -1.09772,-7.355075 0.1532,-0.400183 0.17408,-0.727604 0.0464,-0.727604 -0.39773,0 -0.81308,1.600385 -0.81308,3.132833 0,0.8065 0.13685,2.816302 0.30413,4.46622 0.23311,2.299374 0.23063,3.245159 -0.0106,4.0504 -0.49203,1.642221 -0.82235,1.242421 -0.82622,-0.999974 -0.004,-2.226879 -0.41964,-3.622977 -2.72899,-9.162921 -1.84201,-4.418824 -2.05548,-6.53293 -1.08518,-10.746975 0.28284,-1.228384 -2.17593,1.708384 -2.77834,3.31846 -0.64409,1.721479 -1.06994,5.109909 -1.0793,8.58779 -0.007,2.600217 -0.44602,5.272437 -1.13026,6.879625 l -0.39405,0.925583 -0.9404,-1.998498 c -1.12021,-2.380623 -1.69927,-4.607909 -1.99116,-7.658793 l -0.21517,-2.248959 -0.50754,1.058334 c -0.45137,0.94121 -0.50793,1.687875 -0.51111,6.746875 -0.003,4.760505 -0.0763,5.850404 -0.44952,6.680734 -0.245272,0.5457 -0.568342,0.99218 -0.717935,0.99218 -0.407133,0 -0.972925,-0.98061 -1.736743,-3.010054 -0.376627,-1.000686 -1.025422,-2.310373 -1.44177,-2.910416 -0.862838,-1.243524 -2.328447,-2.70328 -2.520897,-2.51083 -0.164801,0.164804 1.848159,9.76694 2.373653,11.32271 0.217657,0.64438 0.39574,1.22743 0.39574,1.29565 0,0.0682 -1.12345,-0.96279 -2.496555,-2.29114 -2.21859,-2.14629 -4.84672,-4.165839 -5.096338,-3.916218 -0.04971,0.04971 0.342863,0.554388 0.872392,1.121488 2.079138,2.22668 3.346013,4.69406 4.46908,8.70402 1.296524,4.6293 3.248308,8.31436 5.491575,10.36834 3.013548,2.75928 7.584378,3.84232 12.140358,2.87664 z m -5.03953,-0.12457 c -1.54971,-0.26934 -2.22372,-1.15105 -2.93961,-3.84545 -0.59607,-2.24346 -1.47202,-3.79677 -2.61451,-4.63625 -0.66889,-0.49149 -0.64725,-0.49129 0.87661,0.008 1.82487,0.59835 2.27519,0.63436 2.27089,0.18157 -0.006,-0.61325 -0.72916,-3.06336 -1.15841,-3.92382 -0.71572,-1.4347 -0.46808,-1.25252 0.63215,0.46505 0.57585,0.89895 1.16517,1.70749 1.30961,1.79675 0.64039,0.39579 0.52495,-1.19432 -0.23668,-3.25994 -0.87447,-2.37171 -1.05242,-3.2919 -0.39145,-2.02426 0.69335,1.32976 2.55403,3.59704 2.8636,3.48938 0.19801,-0.0689 0.26601,-1.2142 0.21186,-3.56823 -0.0792,-3.44295 0.17877,-5.29788 0.80925,-5.81887 0.25646,-0.21192 0.33319,0.14522 0.34864,1.62283 0.0247,2.36123 1.18997,8.9437 1.56139,8.81996 0.14899,-0.0496 0.39699,-1.53598 0.55111,-3.30299 0.15413,-1.767 0.37087,-3.30337 0.48165,-3.41415 0.11078,-0.11079 0.16327,1.79151 0.11665,4.22732 -0.0513,2.67793 0.0133,4.39589 0.16327,4.34566 0.13643,-0.0457 0.66658,-1.32579 1.17811,-2.84467 0.52671,-1.56392 0.97581,-2.54404 1.03556,-2.25997 0.15998,0.76069 -0.45061,3.53979 -1.16394,5.29761 -0.71426,1.76012 -0.64976,2.16622 0.17709,1.11505 0.65376,-0.83111 1.82995,-1.49031 2.65916,-1.49031 h 0.58843 l -0.53249,0.59532 c -0.98373,1.09979 -1.80346,2.69639 -2.60246,5.06882 -0.54717,1.62467 -0.99924,2.50665 -1.45521,2.83906 -0.7703,0.56156 -3.0505,0.80985 -4.74027,0.51617 z"
         id="path134"
         inkscape:connector-curvature="0" />
    </g>
  </g>
</svg>
