<?xml version="1.0" encoding="UTF-8" standalone="no"?>
<!-- Created with Inkscape (http://www.inkscape.org/) -->

<svg
   xmlns:dc="http://purl.org/dc/elements/1.1/"
   xmlns:cc="http://creativecommons.org/ns#"
   xmlns:rdf="http://www.w3.org/1999/02/22-rdf-syntax-ns#"
   xmlns:svg="http://www.w3.org/2000/svg"
   xmlns="http://www.w3.org/2000/svg"
   xmlns:sodipodi="http://sodipodi.sourceforge.net/DTD/sodipodi-0.dtd"
   xmlns:inkscape="http://www.inkscape.org/namespaces/inkscape"
   width="270.93335mm"
   height="270.93335mm"
   viewBox="0 0 270.93335 270.93336"
   version="1.1"
   id="svg45"
   inkscape:version="0.92.4 (5da689c313, 2019-01-14)"
   sodipodi:docname="Class_2_Flamable_Hazmat.svg">
  <defs
     id="defs39" />
  <sodipodi:namedview
     id="base"
     pagecolor="#ffffff"
     bordercolor="#666666"
     borderopacity="1.0"
     inkscape:pageopacity="0.0"
     inkscape:pageshadow="2"
     inkscape:zoom="0.35"
     inkscape:cx="-478.57144"
     inkscape:cy="680.8572"
     inkscape:document-units="mm"
     inkscape:current-layer="layer1"
     showgrid="false"
     inkscape:window-width="1920"
     inkscape:window-height="1017"
     inkscape:window-x="-8"
     inkscape:window-y="-8"
     inkscape:window-maximized="1" />
  <metadata
     id="metadata42">
    <rdf:RDF>
      <cc:Work
         rdf:about="">
        <dc:format>image/svg+xml</dc:format>
        <dc:type
           rdf:resource="http://purl.org/dc/dcmitype/StillImage" />
        <dc:title></dc:title>
      </cc:Work>
    </rdf:RDF>
  </metadata>
  <g
     inkscape:label="Layer 1"
     inkscape:groupmode="layer"
     id="layer1"
     transform="translate(-119.44048,-58.043456)">
    <g
       id="g58"
       transform="matrix(1.7066667,0,0,1.7181208,-77.953802,-225.85453)">
      <path
         style="fill:#fefefe;stroke-width:0.26458335"
         d="M 115.66071,244.08333 V 165.2375 h 79.375 79.375 v 78.84583 78.84584 h -79.375 -79.375 z"
         id="path74"
         inkscape:connector-curvature="0" />
      <path
         style="fill:#f6d0cd;stroke-width:0.26458335"
         d="m 155.36814,283.49325 c -21.69357,-21.56118 -39.44225,-39.27866 -39.44152,-39.37217 0.002,-0.20066 78.79264,-78.4489 79.11292,-78.56785 0.22535,-0.0837 79.10763,78.18668 79.10526,78.49165 -0.002,0.20165 -78.79237,78.44953 -79.11413,78.56897 -0.12082,0.0448 -17.96897,-17.55942 -39.66253,-39.1206 z m 74.32811,-4.88192 34.5275,-34.52825 -34.59402,-34.59402 -34.59402,-34.59402 -34.59402,34.59402 -34.59401,34.59402 34.52749,34.52825 c 18.99012,18.99054 34.58736,34.52826 34.66054,34.52826 0.0732,0 15.67042,-15.53772 34.66054,-34.52826 z m -68.52734,-0.79375 -33.73372,-33.7345 33.80026,-33.80027 33.80026,-33.80026 33.80026,33.80026 33.80026,33.80027 -33.73372,33.7345 c -18.55355,18.55398 -33.79361,33.73451 -33.8668,33.73451 -0.0732,0 -15.31325,-15.18053 -33.8668,-33.73451 z m 40.74597,21.56367 v -1.85208 h -3.3483 -3.3483 l 0.49431,-0.54621 c 0.27188,-0.30042 1.23222,-1.07277 2.1341,-1.71634 3.96216,-2.82734 5.01334,-5.84596 2.94944,-8.46978 -0.96294,-1.22418 -2.40812,-1.69147 -5.23125,-1.69147 -2.88455,0 -4.21221,0.44863 -5.35823,1.81061 -0.74382,0.88397 -1.21876,2.56702 -0.82649,2.9288 0.12737,0.11747 1.09479,0.27127 2.14982,0.34179 1.6921,0.11308 1.91823,0.0742 1.91823,-0.32996 0,-0.25199 0.24677,-0.77187 0.54837,-1.1553 0.41092,-0.5224 0.78703,-0.69714 1.50052,-0.69714 1.21417,0 1.91986,0.63411 1.91986,1.72512 0,1.11343 -0.61534,1.8538 -3.25182,3.9125 -3.41806,2.66902 -4.74171,4.37673 -5.32026,6.86394 l -0.16925,0.72761 h 6.61962 6.61963 z m 39.6875,-52.25521 v -15.74271 h -46.56667 -46.56667 v 15.74271 15.74271 h 46.56667 46.56667 z m -33.07292,-18.25625 v -0.66146 H 195.168 181.80654 v 0.66146 0.66146 h 13.36146 13.36146 z m -17.00134,-2.00661 c -0.64049,-0.37299 -1.46285,-2.06523 -1.81717,-3.73934 -0.40107,-1.895 -0.84373,-2.68459 -2.30004,-4.10274 -0.79807,-0.77714 -1.05049,-1.15273 -0.70957,-1.05577 0.29104,0.0828 1.26172,0.38283 2.15707,0.66679 l 1.62791,0.51629 -0.51327,-1.85222 c -0.58728,-2.11924 -1.12765,-3.27455 -1.6125,-3.44752 -0.18496,-0.066 -0.26404,-0.19861 -0.17573,-0.29471 0.35591,-0.38734 1.07402,0.23774 1.9727,1.71712 1.49048,2.4536 1.99418,1.80934 0.80331,-1.02749 -0.6007,-1.43094 -0.79689,-2.32874 -0.70655,-3.23317 0.0218,-0.21828 0.20928,-0.006 0.41661,0.47069 0.40073,0.92224 2.52133,3.76264 2.80912,3.76264 0.36469,0 0.41124,-1.06279 0.16293,-3.71937 -0.28906,-3.09245 -0.0503,-4.53764 0.93881,-5.68137 l 0.58625,-0.67793 0.022,2.45965 c 0.0256,2.85956 1.12618,9.11982 1.45517,8.27731 0.11297,-0.2893 0.21443,-1.4785 0.22547,-2.64266 0.011,-1.16417 0.15875,-2.59292 0.32825,-3.175 l 0.30819,-1.05834 0.22827,1.19063 c 0.12554,0.65484 0.19455,2.70884 0.15336,4.56443 -0.0412,1.8556 -0.049,3.37365 -0.0173,3.37344 0.0317,-2e-4 0.36254,-0.98264 0.7352,-2.18318 0.37265,-1.20055 0.83818,-2.4713 1.03449,-2.82388 0.95057,-1.70729 0.6749,2.05327 -0.34763,4.7421 -0.30437,0.80037 -0.55345,1.49556 -0.55353,1.54488 -7e-5,0.0493 0.36056,-0.21384 0.80141,-0.58479 0.75593,-0.63607 2.49909,-1.18723 2.80077,-0.88555 0.0759,0.0759 -0.25705,0.65887 -0.73994,1.29542 -0.97379,1.28364 -1.80177,3.0432 -2.46791,5.24463 -0.24219,0.80036 -0.69791,1.73989 -1.01271,2.08783 l -0.57238,0.63263 0.79375,-0.18397 c 1.78787,-0.41437 4.26283,-1.80626 5.44191,-3.06047 1.54893,-1.64762 2.56589,-3.58983 3.95106,-7.54581 0.61144,-1.74625 1.52853,-3.97376 2.03797,-4.95002 1.01244,-1.94018 3.04853,-4.04197 4.35773,-4.49836 0.77497,-0.27016 0.79717,-0.3122 0.34092,-0.64582 -0.63595,-0.46502 -2.078,-0.45551 -2.9797,0.0196 -0.86471,0.45566 -3.12978,2.77239 -4.23312,4.32965 -0.44201,0.62385 -0.86705,1.03168 -0.94454,0.90629 -0.0775,-0.12539 0.20924,-1.31679 0.63719,-2.64757 0.97149,-3.02096 1.21236,-5.44816 0.78946,-7.95537 -0.17841,-1.05777 -0.36877,-1.87883 -0.42302,-1.82459 -0.0542,0.0542 -0.22912,1.26886 -0.3886,2.69913 -0.36399,3.26423 -1.06593,5.55078 -2.0049,6.53085 -0.82655,0.86274 -1.89553,1.07177 -1.51932,0.29709 0.4769,-0.98201 0.16219,-3.46903 -0.94585,-7.47448 -0.62397,-2.25557 -1.23334,-4.99401 -1.35416,-6.08541 -0.14652,-1.32362 -0.16498,-0.61881 -0.0555,2.11666 0.27464,6.85882 0.22021,7.4326 -0.75451,7.95426 -0.53719,0.28749 -0.5487,0.25647 -0.37461,-1.00935 0.28021,-2.03737 -0.28346,-4.36274 -2.10033,-8.6647 -0.92188,-2.18281 -1.822,-4.63722 -2.00027,-5.45424 -0.33431,-1.53213 -0.24246,-5.74309 0.14649,-6.71659 0.49361,-1.23543 -1.24465,0.82763 -1.99851,2.37193 -0.92452,1.89391 -1.29854,4.22347 -1.31837,8.2114 -0.0165,3.32623 -0.49182,6.38976 -1.25511,8.09005 l -0.5254,1.17037 -0.85568,-1.85208 c -1.35832,-2.94003 -1.84485,-4.56211 -2.13401,-7.11466 -0.14849,-1.31084 -0.31785,-2.4312 -0.37634,-2.4897 -0.0585,-0.0585 -0.2385,0.3844 -0.40001,0.9842 -0.18007,0.66874 -0.26909,3.10954 -0.23016,6.31056 0.0558,4.58644 0.005,5.34096 -0.41736,6.21647 -0.26448,0.54805 -0.60495,1.07314 -0.75661,1.16688 -0.45851,0.28337 -1.42364,-1.10143 -2.0231,-2.90283 -0.65598,-1.97121 -1.70165,-3.69095 -2.92878,-4.81676 l -0.86519,-0.79375 0.1578,0.66623 c 0.0868,0.36643 0.51764,2.3905 0.95743,4.49792 0.4398,2.10743 1.03157,4.66341 1.31504,5.67996 0.28347,1.01655 0.46527,1.89841 0.40401,1.95968 -0.0613,0.0613 -1.21393,-0.952 -2.56145,-2.2517 -2.24861,-2.16881 -4.16983,-3.75901 -4.16983,-3.45138 0,0.0689 0.42723,0.63664 0.9494,1.26164 1.38474,1.65743 2.64202,4.3274 3.56502,7.57074 0.44645,1.56878 1.38726,4.04296 2.09069,5.49817 1.91549,3.96266 3.92917,5.99616 7.15322,7.22361 1.58166,0.60217 2.60117,0.77062 1.78408,0.29478 z"
         id="path72"
         inkscape:connector-curvature="0" />
      <path
         style="fill:#f0afaa;stroke-width:0.26458335"
         d="m 155.47844,283.53616 c -21.68147,-21.5214 -39.42086,-39.23368 -39.42086,-39.36062 0,-0.30019 78.71636,-78.54116 79.01838,-78.54116 0.30939,0 79.10522,78.22571 79.01157,78.4399 -0.0994,0.22737 -78.80428,78.44006 -79.019,78.52485 -0.0931,0.0368 -17.90862,-17.54158 -39.59009,-39.06297 z m 74.21781,-4.92483 34.5275,-34.52825 -34.59402,-34.59402 -34.59402,-34.59402 -34.59402,34.59402 -34.59401,34.59402 34.52749,34.52825 c 18.99012,18.99054 34.58736,34.52826 34.66054,34.52826 0.0732,0 15.67042,-15.53772 34.66054,-34.52826 z m -68.52734,-0.79375 -33.73372,-33.7345 33.80026,-33.80027 33.80026,-33.80026 33.80026,33.80026 33.80026,33.80027 -33.73372,33.7345 c -18.55355,18.55398 -33.79361,33.73451 -33.8668,33.73451 -0.0732,0 -15.31325,-15.18053 -33.8668,-33.73451 z m 40.74597,21.56367 v -1.85208 h -3.32291 c -2.16523,0 -3.26549,-0.0929 -3.1581,-0.26667 0.0906,-0.14667 1.02041,-0.90565 2.06614,-1.68661 2.37438,-1.77323 3.47847,-2.92838 4.00458,-4.18978 0.76115,-1.82492 0.44163,-3.42863 -0.97593,-4.89831 -1.11314,-1.15407 -2.2727,-1.49626 -5.09608,-1.50386 -3.73131,-0.0101 -5.40386,1.0531 -6.18482,3.93139 -0.15572,0.57391 -0.25659,1.06356 -0.22415,1.08813 0.0324,0.0245 1.02791,0.12223 2.21217,0.21703 2.14485,0.1717 2.15385,0.16977 2.32184,-0.49954 0.56185,-2.23859 3.85934,-2.22807 3.85934,0.0123 0,0.9723 -0.60117,1.74931 -2.4574,3.1762 -3.74795,2.88106 -5.63623,5.18025 -6.12998,7.46397 l -0.18591,0.8599 h 6.6356 6.63561 v -1.85208 z m 39.6875,-52.25521 v -15.74271 h -46.56667 -46.56667 v 15.74271 15.74271 h 46.56667 46.56667 z m -33.07292,-18.12396 v -0.79375 H 195.168 181.80654 v 0.79375 0.79375 h 13.36146 13.36146 z m -17.34081,-2.54998 c -0.35574,-0.38384 -0.83983,-1.36611 -1.07577,-2.18281 -0.86153,-2.98221 -1.22368,-3.74459 -2.40056,-5.05357 -0.98605,-1.09672 -1.08489,-1.29084 -0.5546,-1.08922 0.35491,0.13494 1.24672,0.42394 1.98178,0.64223 1.32507,0.3935 1.33538,0.39201 1.20615,-0.17498 -0.3908,-1.71461 -0.9212,-3.26725 -1.3842,-4.05198 -0.74181,-1.25727 -0.15169,-1.10141 0.71896,0.18989 0.3988,0.59148 0.98922,1.39515 1.31204,1.78594 l 0.58695,0.71053 0.008,-0.72157 c 0.005,-0.39686 -0.2893,-1.51236 -0.6531,-2.47889 -0.3638,-0.96654 -0.66146,-2.12373 -0.66146,-2.57154 0,-0.77852 0.0292,-0.75685 0.66745,0.49453 0.3671,0.71979 1.08173,1.78497 1.58806,2.36705 1.23875,1.42406 1.525,1.00106 1.25333,-1.85208 -0.27864,-2.92626 -0.16966,-4.9915 0.3126,-5.92408 0.72028,-1.39288 0.94106,-1.22945 0.94106,0.6966 0,0.99836 0.29715,3.47593 0.66033,5.50571 0.36319,2.02979 0.66921,3.75005 0.68006,3.82281 0.0109,0.0728 0.12204,-0.10584 0.24711,-0.39688 0.12507,-0.29104 0.23576,-1.45871 0.24599,-2.59481 0.0102,-1.13611 0.16622,-2.62439 0.34665,-3.3073 l 0.32805,-1.24164 0.1724,1.5875 c 0.27289,2.51289 0.25449,6.38299 -0.034,7.14165 -0.1479,0.38902 -0.15709,0.62787 -0.0209,0.54371 0.13358,-0.0826 0.61135,-1.25022 1.06172,-2.59481 1.11805,-3.33799 1.33191,-3.60345 1.33003,-1.65096 -0.001,1.38943 -0.46724,3.1666 -1.4359,5.47724 -0.1038,0.24759 0.247,0.0392 0.77954,-0.46302 0.78086,-0.73644 1.17902,-0.91318 2.05725,-0.91318 h 1.089 l -0.66885,0.7276 c -1.05643,1.14924 -1.72157,2.41931 -2.46017,4.69765 -0.37717,1.16346 -0.93388,2.45502 -1.23714,2.87015 l -0.55137,0.75478 0.88791,-0.17703 c 1.68042,-0.33504 4.1004,-1.70547 5.32675,-3.01654 1.48375,-1.58625 2.47815,-3.52087 4.06344,-7.90549 2.01777,-5.5808 3.14917,-7.32018 5.71451,-8.7853 0.96682,-0.55218 1.19494,-0.7954 0.93856,-1.00069 -1.56239,-1.25108 -4.13569,0.09 -6.68869,3.48572 -1.59244,2.11812 -1.78904,1.79292 -0.75354,-1.24643 0.62704,-1.84044 0.74242,-2.60936 0.74375,-4.95651 0.001,-1.69356 -0.14707,-3.24293 -0.37919,-3.96875 l -0.38077,-1.19062 -0.18351,2.64583 c -0.29194,4.20937 -1.08444,6.72743 -2.40936,7.65544 -0.89647,0.6279 -1.35973,0.55173 -0.97835,-0.16087 0.47217,-0.88227 0.12179,-3.33404 -1.08994,-7.62686 -0.61541,-2.18019 -1.15404,-4.75026 -1.24765,-5.95312 -0.15307,-1.96687 -0.18041,-2.04327 -0.3863,-1.07957 -0.12709,0.59484 -0.10653,2.15822 0.0482,3.66606 0.39796,3.87798 0.34865,6.31129 -0.14209,7.01193 -0.66625,0.9512 -0.86983,0.687 -0.72252,-0.93763 0.18144,-2.00097 -0.36516,-4.0822 -2.18214,-8.30857 -0.7932,-1.84504 -1.62163,-4.04354 -1.84095,-4.88557 -0.50069,-1.92227 -0.51175,-4.83527 -0.0255,-6.71993 l 0.37325,-1.44672 -0.90283,1.05833 c -1.90583,2.2341 -2.74187,5.13249 -2.74949,9.53194 -0.003,1.45903 -0.1284,3.64012 -0.27971,4.84687 -0.26509,2.11417 -1.15926,5.07344 -1.52983,5.06302 -0.22352,-0.006 -1.85961,-3.68154 -2.35341,-5.28662 -0.20147,-0.65485 -0.45841,-2.32172 -0.57099,-3.70417 l -0.2047,-2.51354 -0.49482,1.05833 c -0.44005,0.94119 -0.48783,1.65411 -0.43172,6.44079 0.0589,5.02563 0.0257,5.45974 -0.50134,6.54843 -0.31044,0.6413 -0.66478,1.16599 -0.78741,1.16599 -0.37861,0 -1.21515,-1.38141 -1.80992,-2.98879 -0.31211,-0.84348 -0.79512,-1.97457 -1.07335,-2.51355 -0.5268,-1.02048 -2.66738,-3.27125 -2.66738,-2.80468 0,0.59282 2.15794,10.20956 2.52341,11.24539 0.21596,0.61211 0.33915,1.16643 0.27375,1.23183 -0.0654,0.0654 -1.41664,-1.11403 -3.00275,-2.62096 -1.58611,-1.50692 -3.29005,-2.96487 -3.78652,-3.23988 l -0.90268,-0.50003 1.10833,1.16148 c 1.67193,1.7521 2.92503,4.04446 3.81682,6.98232 1.97192,6.49615 3.49867,9.51611 5.97152,11.8118 1.42474,1.32267 2.51422,1.9742 4.18458,2.50247 1.57713,0.49878 1.76058,0.44138 1.04773,-0.3278 z"
         id="path70"
         inkscape:connector-curvature="0" />
      <path
         style="fill:#eb938c;stroke-width:0.26458335"
         d="m 155.39814,283.40885 -39.50277,-39.19322 34.47694,-34.33041 c 18.96232,-18.88172 36.79923,-36.5782 39.63758,-39.32551 l 5.16063,-4.99511 39.50276,39.19322 39.50277,39.19322 -34.47694,34.33041 c -18.96232,18.88172 -36.79923,36.5782 -39.63758,39.32551 l -5.16063,4.99512 z m 74.29811,-4.79752 34.5275,-34.52825 -34.59402,-34.59402 -34.59402,-34.59402 -34.59402,34.59402 -34.59401,34.59402 34.52749,34.52825 c 18.99012,18.99054 34.58736,34.52826 34.66054,34.52826 0.0732,0 15.67042,-15.53772 34.66054,-34.52826 z m -68.52733,-0.79478 -33.73167,-33.73554 33.79923,-33.79923 33.79923,-33.79923 33.80026,33.80026 33.80026,33.80027 -33.73372,33.7345 c -18.55355,18.55398 -33.79407,33.73451 -33.86783,33.73451 -0.0738,0 -15.31335,-15.181 -33.86576,-33.73554 z m 40.74596,21.57261 v -1.84418 l -3.37344,-0.074 -3.37344,-0.074 2.582,-1.94122 c 1.74966,-1.31542 2.80788,-2.32663 3.28268,-3.13681 1.54037,-2.62845 0.86402,-5.3997 -1.63125,-6.68382 -1.10901,-0.57071 -1.63717,-0.6624 -3.81856,-0.66287 -3.95721,-8e-4 -5.59045,1.00093 -6.38862,3.91861 -0.15331,0.56039 -0.24114,1.05114 -0.1952,1.09054 0.0459,0.0394 1.04523,0.15283 2.22064,0.25207 l 2.1371,0.18043 0.41678,-1.06101 c 0.30274,-0.77071 0.61498,-1.11076 1.1412,-1.24283 1.04429,-0.2621 2.05396,0.18129 2.35371,1.03361 0.40762,1.15905 -0.3608,2.20756 -3.39702,4.63527 -2.87225,2.29661 -4.15179,3.7967 -4.79607,5.62279 -0.68965,1.95467 -1.10758,1.8317 6.2249,1.8317 h 6.61459 z m 39.6875,-52.26312 v -15.74271 h -46.56667 -46.56667 v 15.74271 15.74271 h 46.56667 46.56667 z m -33.07292,-18.12396 v -0.79375 H 195.168 181.80654 v 0.79375 0.79375 h 13.36146 13.36146 z m -8.87221,-2.2984 c 3.87749,-1.34651 5.93625,-3.95431 8.21168,-10.4016 1.92792,-5.46261 3.39108,-7.73626 5.80137,-9.01492 0.66504,-0.3528 1.20916,-0.71651 1.20916,-0.80825 0,-0.37377 -1.59874,-0.79974 -2.3677,-0.63084 -1.19003,0.26137 -3.2121,1.96981 -4.68205,3.95584 -0.70654,0.95461 -1.32188,1.6239 -1.36741,1.48731 -0.0455,-0.13659 0.24462,-1.23791 0.64477,-2.44739 0.61823,-1.86859 0.7297,-2.65627 0.7418,-5.24175 0.009,-1.96023 -0.12147,-3.46628 -0.36722,-4.23333 l -0.38145,-1.19062 -0.19002,2.85866 c -0.23169,3.48574 -1.03234,6.31595 -2.08435,7.36796 -0.93531,0.93532 -1.76568,1.05072 -1.30005,0.18068 0.48472,-0.90569 0.13905,-3.41569 -1.0819,-7.85609 -0.61451,-2.23485 -1.19778,-4.91376 -1.29615,-5.95313 l -0.17887,-1.88975 -0.19393,1.19062 c -0.10667,0.65485 -0.0745,2.32172 0.0716,3.70417 0.39686,3.75747 0.34921,6.1258 -0.13723,6.8203 -0.65006,0.92808 -0.82057,0.70246 -0.70535,-0.93332 0.14801,-2.10118 -0.44633,-4.39067 -2.15951,-8.31868 -0.80367,-1.8427 -1.64534,-4.06088 -1.87037,-4.92929 -0.51784,-1.9984 -0.52448,-4.87472 -0.0151,-6.55373 0.49614,-1.63551 0.5,-1.60387 -0.12641,-1.03697 -0.84393,0.76374 -2.1359,2.93097 -2.56178,4.29726 -0.23728,0.76125 -0.48573,3.22425 -0.62637,6.20937 -0.22627,4.80306 -0.65432,7.44269 -1.44909,8.93609 -0.35059,0.65876 -0.36945,0.63873 -1.31463,-1.39581 -1.25326,-2.69769 -1.98865,-5.63864 -1.98865,-7.95296 0,-1.98324 -0.22654,-2.06628 -0.82291,-0.30163 -0.26043,0.77064 -0.34332,2.46082 -0.30491,6.2177 0.0548,5.35748 -0.136,6.67657 -1.04788,7.24483 -0.61415,0.38274 -1.02796,-0.19326 -2.06391,-2.87284 -0.44873,-1.16067 -1.11528,-2.50286 -1.48123,-2.98264 -0.77753,-1.01939 -2.01618,-2.20719 -2.15594,-2.06743 -0.15359,0.1536 1.81299,9.38517 2.3413,10.99057 0.26225,0.79692 0.43002,1.49576 0.3728,1.55297 -0.0572,0.0572 -1.39445,-1.1306 -2.97165,-2.63957 -1.5772,-1.50898 -3.27946,-2.97567 -3.7828,-3.25931 -0.87994,-0.49588 -0.86238,-0.45642 0.45652,1.0255 1.711,1.92247 3.00159,4.53971 4.07094,8.25558 1.49855,5.20731 3.67169,9.05566 6.13457,10.86358 1.35659,0.99584 3.94689,2.18213 4.78824,2.1929 0.41669,0.005 0.37085,-0.12991 -0.30493,-0.89959 -0.55656,-0.63388 -0.92599,-1.48018 -1.23042,-2.81866 -0.52789,-2.32095 -0.69934,-2.65602 -2.1557,-4.21298 l -1.14437,-1.22343 1.88354,0.61405 c 1.03594,0.33772 1.92263,0.57495 1.97042,0.52715 0.20942,-0.20942 -1.03855,-4.09115 -1.53649,-4.77917 -0.35554,-0.49125 -0.42188,-0.721 -0.18744,-0.64915 0.19958,0.0612 0.83913,0.84648 1.42121,1.74514 0.58208,0.89865 1.14763,1.63726 1.25677,1.64134 0.4164,0.0155 0.17146,-1.66013 -0.46302,-3.16759 -0.3638,-0.86435 -0.65672,-1.90256 -0.65092,-2.30713 0.0105,-0.7318 0.0129,-0.73077 0.47927,0.20127 0.2578,0.51526 0.95599,1.55328 1.55154,2.3067 0.91527,1.15791 1.1327,1.30973 1.4053,0.98128 0.25,-0.30123 0.25653,-1.01397 0.0291,-3.17057 -0.32679,-3.09835 -0.0849,-4.98716 0.77009,-6.01215 0.49787,-0.59688 0.49912,-0.59339 0.5079,1.41682 0.005,1.10834 0.30646,3.59479 0.67026,5.52545 0.3638,1.93066 0.66328,3.58368 0.66551,3.67337 0.002,0.0897 0.11946,-0.0155 0.26053,-0.23379 0.14107,-0.21828 0.25897,-1.4089 0.26201,-2.64583 0.003,-1.23693 0.14875,-2.72521 0.3238,-3.30729 l 0.31828,-1.05833 0.1807,1.5875 c 0.28579,2.51084 0.2641,6.11414 -0.0417,6.92808 -0.24452,0.65079 -0.23187,0.69472 0.10018,0.34796 0.20902,-0.21828 0.70678,-1.4407 1.10615,-2.71648 0.39937,-1.27579 0.83055,-2.38414 0.95816,-2.46302 0.52396,-0.32382 0.17886,2.53315 -0.56172,4.65033 -0.91362,2.61188 -0.92986,2.69332 -0.38081,1.90944 0.52445,-0.74875 1.73641,-1.38027 2.6489,-1.38027 0.68401,0 0.69297,0.0193 0.27708,0.59531 -1.05644,1.46328 -1.99629,3.28252 -2.40681,4.65879 -0.75742,2.53923 -0.99539,2.99408 -1.83706,3.51119 l -0.81484,0.50062 0.92604,-0.17595 c 0.50933,-0.0968 1.3984,-0.33997 1.97571,-0.54045 z"
         id="path68"
         inkscape:connector-curvature="0" />
      <path
         style="fill:#e9867e;stroke-width:0.26458335"
         d="m 155.39883,283.40904 -39.50166,-39.19341 34.47604,-34.33015 c 18.96182,-18.88159 36.79842,-36.57815 39.63688,-39.32571 l 5.16083,-4.99556 39.50167,39.19342 39.50166,39.19341 -34.47604,34.33015 c -18.96182,18.88159 -36.79842,36.57815 -39.63688,39.32571 l -5.16083,4.99556 z m 74.29742,-4.79771 34.5275,-34.52825 -34.59402,-34.59402 -34.59402,-34.59402 -34.59402,34.59402 -34.59401,34.59402 34.52749,34.52825 c 18.99012,18.99054 34.58736,34.52826 34.66054,34.52826 0.0732,0 15.67042,-15.53772 34.66054,-34.52826 z m -68.52733,-0.79478 -33.73167,-33.73554 33.79923,-33.79923 33.79923,-33.79923 33.80026,33.80026 33.80026,33.80027 -33.73372,33.7345 c -18.55355,18.55398 -33.79407,33.73451 -33.86783,33.73451 -0.0738,0 -15.31335,-15.181 -33.86576,-33.73554 z m 41.01054,21.57238 v -1.8444 l -3.50573,-0.0738 -3.50573,-0.0738 2.51354,-1.87066 c 3.11236,-2.31632 4.0358,-3.56418 4.1628,-5.62522 0.12626,-2.04913 -0.62849,-3.37082 -2.44301,-4.27808 -1.15126,-0.57563 -1.66622,-0.66043 -3.96875,-0.65352 -2.95701,0.009 -4.38378,0.51467 -5.3718,1.9043 -0.52917,0.74427 -1.28543,2.89686 -1.08673,3.09324 0.0597,0.059 1.07689,0.19145 2.26044,0.29434 l 2.15191,0.18708 0.31668,-0.95954 c 0.50293,-1.5239 2.02202,-1.98191 3.13482,-0.94518 1.2688,1.18206 0.62026,2.3279 -2.91362,5.14777 -3.02237,2.41171 -4.0264,3.56367 -4.73776,5.43583 -0.8617,2.2678 -1.34126,2.1061 6.24606,2.1061 h 6.74688 z m 39.42292,-52.13059 v -15.87501 h -46.56667 -46.56667 v 15.87501 15.875 h 46.56667 46.56667 z m -33.07292,-18.25626 v -0.79375 H 195.168 181.80654 v 0.79375 0.79375 h 13.36146 13.36146 z m -13.16302,-1.50964 c -0.32742,-0.0631 -0.8632,-0.0631 -1.19063,0 -0.32742,0.0631 -0.0595,0.11467 0.59532,0.11467 0.65484,0 0.92273,-0.0516 0.59531,-0.11467 z m -3.16979,-0.47012 c -0.97288,-0.42294 -1.80781,-1.6327 -2.19444,-3.17961 -0.66048,-2.64261 -0.8774,-3.09862 -2.12163,-4.46 l -1.3217,-1.44615 1.26185,0.46958 c 0.69402,0.25827 1.58662,0.54696 1.98356,0.64153 0.69555,0.16572 0.7156,0.14067 0.55349,-0.69151 -0.28805,-1.47853 -1.12721,-3.71486 -1.58295,-4.21844 -0.23964,-0.26481 -0.31666,-0.48147 -0.17114,-0.48147 0.35905,0 0.91155,0.68205 1.7682,2.18281 0.39456,0.69123 0.83142,1.25677 0.97081,1.25677 0.45298,0 0.26837,-1.48479 -0.40803,-3.28183 -0.3638,-0.96653 -0.65391,-2.0225 -0.64469,-2.3466 l 0.0168,-0.58927 0.24686,0.6158 c 0.13578,0.33869 0.8082,1.37421 1.49428,2.30116 1.77685,2.40068 1.98133,2.11155 1.76162,-2.49087 -0.16526,-3.46191 -0.14684,-3.65424 0.45915,-4.79447 l 0.63132,-1.18787 0.16141,2.77812 c 0.13627,2.34543 0.79368,6.78357 1.21495,8.20208 0.26275,0.88474 0.54674,-0.45644 0.6799,-3.21095 0.0748,-1.54775 0.25247,-3.02212 0.39477,-3.27639 0.37948,-0.67809 0.70795,6.01854 0.36868,7.51638 -0.42904,1.89417 0.31048,0.78303 1.1251,-1.69049 0.98804,-3.00007 1.29401,-3.3187 1.12131,-1.16769 -0.0769,0.9585 -0.44542,2.55437 -0.81881,3.54638 -0.66056,1.75495 -0.74859,2.58963 -0.15643,1.48316 0.36483,-0.68168 1.61408,-1.34831 2.52671,-1.34831 h 0.68731 l -0.77026,1.12448 c -1.07349,1.56716 -1.79138,3.03938 -2.16177,4.43325 -0.52547,1.97753 -1.10031,2.94974 -1.96727,3.32725 -1.13096,0.49245 -0.27824,0.46254 1.45242,-0.051 2.24291,-0.66547 3.72547,-1.52699 5.03269,-2.92452 1.69896,-1.81632 2.45923,-3.23229 3.95486,-7.36571 2.20077,-6.08224 3.64795,-8.29152 6.2357,-9.51949 1.10831,-0.52592 1.12688,-0.77164 0.0908,-1.20082 -1.69447,-0.70188 -4.31297,0.95979 -6.48723,4.11672 -0.56388,0.81872 -1.0681,1.35998 -1.12049,1.20279 -0.0524,-0.15718 0.242,-1.26827 0.65422,-2.46908 0.65292,-1.90197 0.74949,-2.57536 0.74949,-5.22601 0,-1.9322 -0.13988,-3.47725 -0.38325,-4.23333 l -0.38326,-1.19062 -0.19252,2.69542 c -0.30622,4.28733 -1.2944,7.31459 -2.6191,8.02355 -0.80111,0.42874 -1.1086,0.33206 -0.7968,-0.25054 0.52745,-0.98555 0.26398,-3.12406 -0.92044,-7.47105 -0.65689,-2.41084 -1.29059,-5.26213 -1.40824,-6.3362 -0.2071,-1.89068 -0.22085,-1.91968 -0.43194,-0.91094 -0.12698,0.60676 -0.0901,2.3748 0.0883,4.23334 0.41057,4.2766 0.38538,5.73036 -0.11155,6.43984 -0.6497,0.92757 -0.78503,0.71078 -0.6911,-1.10698 0.11356,-2.19746 -0.39623,-4.1303 -2.18963,-8.30184 -1.94619,-4.52694 -2.36897,-6.256 -2.18213,-8.92425 0.0816,-1.16604 0.27864,-2.46247 0.43775,-2.88097 0.45995,-1.20976 0.13746,-1.09789 -1.00631,0.34908 -1.76836,2.23715 -2.17022,3.71714 -2.4485,9.01758 -0.27809,5.2969 -0.57676,7.43571 -1.2637,9.04959 l -0.4839,1.13687 -0.975,-2.10787 c -1.31308,-2.83878 -1.7257,-4.36535 -1.97621,-7.31144 l -0.21147,-2.48694 -0.50839,1.05833 c -0.45284,0.94267 -0.50845,1.67999 -0.50886,6.74687 -2.6e-4,4.5426 -0.0808,5.84779 -0.39935,6.47906 -0.79792,1.5813 -1.60186,0.92407 -2.66261,-2.17671 -0.62651,-1.83144 -2.04207,-3.96595 -3.1958,-4.81894 -0.62493,-0.46204 -0.79918,-0.51151 -0.67662,-0.19213 0.0908,0.2366 0.59305,2.46708 1.11614,4.95663 0.52309,2.48955 1.1704,5.23113 1.43845,6.0924 0.26806,0.86127 0.43119,1.56594 0.36252,1.56594 -0.0687,0 -1.41074,-1.23951 -2.98237,-2.75447 -1.57163,-1.51496 -3.25513,-2.96009 -3.7411,-3.2114 -0.86605,-0.44785 -0.85848,-0.429 0.38176,0.95045 1.55974,1.7348 3.32881,5.36572 4.24839,8.71959 1.91313,6.97744 5.37522,11.25546 10.18125,12.58071 1.70194,0.4693 2.51205,0.46453 1.42419,-0.008 z"
         id="path66"
         inkscape:connector-curvature="0" />
      <path
         style="fill:#e6776f;stroke-width:0.26458335"
         d="m 155.39882,283.40903 -39.50165,-39.1934 34.47604,-34.33015 c 18.96182,-18.88159 36.7982,-36.57795 39.6364,-39.32525 l 5.16035,-4.9951 39.50243,39.19296 39.50241,39.19295 -34.21173,34.06581 c -18.81645,18.73619 -36.65318,36.43275 -39.63717,39.3257 l -5.42543,5.25988 z m 74.29743,-4.7977 34.5275,-34.52825 -34.59402,-34.59402 -34.59402,-34.59402 -34.59402,34.59402 -34.59401,34.59402 34.52749,34.52825 c 18.99012,18.99054 34.58736,34.52826 34.66054,34.52826 0.0732,0 15.67042,-15.53772 34.66054,-34.52826 z m -68.52732,-0.79581 -33.72962,-33.73656 33.7982,-33.79821 33.7982,-33.7982 33.80026,33.80026 33.80026,33.80027 -33.73372,33.7345 c -18.55355,18.55398 -33.79453,33.73451 -33.86885,33.73451 -0.0743,0 -15.31344,-15.18146 -33.86473,-33.73657 z m 41.01053,21.57341 v -1.8444 l -3.48565,-0.0738 -3.48565,-0.0738 2.55869,-1.92252 c 3.09371,-2.32451 3.94947,-3.49469 4.07767,-5.57589 0.11926,-1.936 -0.63925,-3.33429 -2.31889,-4.2748 -1.0547,-0.59058 -1.48315,-0.66171 -3.96075,-0.65763 -3.03772,0.005 -4.42193,0.46554 -5.49336,1.82765 -0.49834,0.63353 -1.30129,2.97202 -1.09159,3.17913 0.0565,0.0558 1.06842,0.18534 2.24879,0.28796 l 2.14613,0.18657 0.30009,-0.86084 c 0.55777,-1.6 2.00335,-2.06516 3.12966,-1.00705 1.29078,1.21262 0.66718,2.25488 -3.21948,5.38094 -1.34348,1.08057 -2.76281,2.38436 -3.15407,2.89733 -0.88951,1.16622 -1.73188,2.99682 -1.73953,3.78029 l -0.006,0.59532 h 6.74687 6.74688 z m 39.42292,-52.13059 v -15.87501 h -46.56667 -46.56667 v 15.87501 15.875 h 46.56667 46.56667 z m -33.07292,-18.25626 v -0.79375 H 195.168 181.80654 v 0.79375 0.79375 h 13.36146 13.36146 z m -13.16302,-1.50964 c -0.32742,-0.0631 -0.8632,-0.0631 -1.19063,0 -0.32742,0.0631 -0.0595,0.11467 0.59532,0.11467 0.65484,0 0.92273,-0.0516 0.59531,-0.11467 z m -2.89377,-0.36955 c -1.39558,-0.40378 -1.90738,-1.30161 -2.98235,-5.23179 -0.19808,-0.72421 -0.77966,-1.65811 -1.55284,-2.49353 -0.75842,-0.81947 -1.03164,-1.25524 -0.70698,-1.12758 0.88343,0.3474 3.14447,0.92894 3.24006,0.83335 0.22678,-0.22678 -0.86535,-3.72574 -1.41635,-4.53768 -0.33942,-0.50018 -0.52011,-0.90941 -0.40153,-0.90941 0.3115,0 0.89906,0.74601 1.71921,2.18281 0.39456,0.69123 0.83142,1.25677 0.97081,1.25677 0.45298,0 0.26837,-1.48479 -0.40803,-3.28183 -0.3638,-0.96653 -0.65391,-2.0225 -0.64469,-2.3466 l 0.0168,-0.58927 0.24686,0.6158 c 0.13578,0.33869 0.8082,1.37421 1.49428,2.30116 1.77685,2.40068 1.98133,2.11155 1.76162,-2.49087 -0.16526,-3.46191 -0.14684,-3.65424 0.45915,-4.79447 L 194.9,205.32188 195.06327,208.1 c 0.14069,2.39385 0.81104,6.9717 1.19998,8.19467 0.27268,0.85739 0.61651,-0.41413 0.62051,-2.29467 0.002,-1.04786 0.14901,-2.53614 0.32618,-3.30729 l 0.32213,-1.40208 0.23218,3.29131 c 0.14453,2.04884 0.13545,3.78054 -0.0241,4.58728 -0.38561,1.95027 0.24741,1.0743 1.10464,-1.52859 0.3834,-1.16417 0.82359,-2.29526 0.97819,-2.51355 0.50117,-0.7076 0.0793,2.64922 -0.5486,4.36563 -0.93359,2.55186 -0.95878,2.7633 -0.23155,1.94315 0.77427,-0.87317 1.56765,-1.28169 2.48918,-1.28169 h 0.71026 l -0.65533,0.85989 c -0.90666,1.18971 -1.9389,3.28585 -2.31487,4.70079 -0.52467,1.97455 -1.0999,2.94696 -1.96649,3.3243 -1.05356,0.45874 -0.38507,0.46657 1.30201,0.0152 2.12775,-0.56923 3.87328,-1.59682 5.33146,-3.13863 1.63824,-1.7322 2.29449,-2.98172 3.9142,-7.45281 0.67963,-1.87605 1.59271,-4.11826 2.02907,-4.98269 0.91639,-1.81536 2.57841,-3.58243 4.00495,-4.25808 1.20313,-0.56984 1.23849,-0.80805 0.18474,-1.24453 -1.68497,-0.69794 -3.88972,0.66145 -6.35544,3.91859 -0.71708,0.94724 -1.30378,1.54676 -1.30378,1.33226 0,-0.21449 0.32002,-1.27405 0.71115,-2.35456 0.63136,-1.74413 0.71234,-2.35052 0.72176,-5.40416 0.008,-2.6588 -0.0883,-3.64979 -0.42499,-4.36562 l -0.43558,-0.92604 -0.0268,1.5875 c -0.0851,5.03884 -1.63818,9.39271 -3.35041,9.39271 -0.37017,0 -0.40537,-0.0706 -0.15843,-0.3175 0.60093,-0.60093 0.34025,-3.18792 -0.71541,-7.09976 -1.36676,-5.0646 -1.71217,-6.91434 -1.53618,-8.22645 0.11161,-0.83213 0.073,-1.01602 -0.16377,-0.77933 -0.36412,0.36404 -0.39831,3.24661 -0.0928,7.82408 0.16314,2.4444 0.13211,3.3224 -0.13486,3.81556 -0.64495,1.1914 -0.87925,0.88594 -0.78842,-1.02787 0.10644,-2.24269 -0.2973,-3.73855 -2.21637,-8.21165 -2.20535,-5.14039 -2.63325,-7.67186 -1.85562,-10.97803 0.20508,-0.87192 0.33259,-1.6256 0.28335,-1.67484 -0.0492,-0.0492 -0.56743,0.51508 -1.15154,1.25404 -1.75978,2.2263 -2.18322,3.7448 -2.44078,8.753 -0.12349,2.40109 -0.29344,4.96093 -0.37768,5.68854 -0.14562,1.25767 -1.12037,4.63021 -1.33826,4.63021 -0.23903,0 -2.04009,-4.2282 -2.41057,-5.65909 -0.22186,-0.85692 -0.49047,-2.58333 -0.59689,-3.83646 l -0.19351,-2.2784 -0.5094,1.05833 c -0.45721,0.94988 -0.50255,1.58385 -0.44257,6.18686 0.0662,5.07773 -0.0979,6.57319 -0.83128,7.57613 -0.36425,0.49815 -0.39794,0.49979 -0.90161,0.044 -0.28778,-0.26043 -0.89891,-1.46888 -1.35807,-2.68545 -0.85023,-2.25271 -1.92903,-3.86846 -3.29161,-4.9299 -0.69766,-0.54347 -0.74656,-0.55033 -0.60065,-0.0843 0.0874,0.27901 0.58916,2.52697 1.1151,4.99546 0.52595,2.46848 1.17248,5.18284 1.43673,6.0319 0.5776,1.85583 0.69163,1.91618 -2.93198,-1.55178 -1.39372,-1.33384 -2.93351,-2.63176 -3.42175,-2.88424 -0.88632,-0.45833 -0.88576,-0.45681 0.35021,0.95609 1.49907,1.71367 2.85007,4.22506 3.61404,6.71821 1.38401,4.5166 1.72505,5.42668 2.87126,7.66217 2.22389,4.33727 6.1438,7.22119 9.8359,7.23634 0.57168,0.002 0.54701,-0.0304 -0.18179,-0.24125 z"
         id="path64"
         inkscape:connector-curvature="0" />
      <path
         style="fill:#e05248;stroke-width:0.26458335"
         d="m 155.42955,283.40495 -39.47387,-39.18932 24.6572,-24.54041 c 13.56146,-13.49723 31.38424,-31.19196 39.60616,-39.32163 l 14.94896,-14.7812 39.47387,39.18933 39.47387,39.18932 -24.6572,24.54041 c -13.56146,13.49723 -31.38424,31.19196 -39.60616,39.32163 l -14.94896,14.7812 z m 74.2667,-4.79362 34.5275,-34.52825 -34.59402,-34.59402 -34.59402,-34.59402 -34.59402,34.59402 -34.59401,34.59402 34.52749,34.52825 c 18.99012,18.99054 34.58736,34.52826 34.66054,34.52826 0.0732,0 15.67042,-15.53772 34.66054,-34.52826 z m -68.39504,-0.92604 -33.60144,-33.60222 33.66797,-33.66796 33.66797,-33.66797 33.66797,33.66797 33.66797,33.66796 -33.60144,33.60222 c -18.48078,18.48122 -33.66131,33.60221 -33.7345,33.60221 -0.0732,0 -15.25372,-15.12099 -33.7345,-33.60221 z m 40.87825,21.70364 v -1.8444 l -3.4858,-0.0738 -3.4858,-0.0738 2.48807,-1.85209 c 1.36844,-1.01864 2.84775,-2.36835 3.28736,-2.99935 0.69685,-1.00022 0.79929,-1.3759 0.79929,-2.93101 0,-1.52919 -0.1017,-1.91708 -0.71266,-2.7181 -0.99414,-1.30337 -2.29625,-1.84252 -4.83205,-2.00072 -3.89442,-0.24297 -6.28789,0.97454 -7.00708,3.56435 -0.4418,1.59089 -0.43174,1.60156 1.69806,1.80113 2.25751,0.21155 2.78394,0.0902 2.78394,-0.64191 0,-0.61252 1.17928,-1.61501 1.89979,-1.61501 0.27804,0 0.80916,0.30365 1.18029,0.67477 1.2224,1.2224 0.65364,2.18426 -2.96686,5.01746 -1.17466,0.91923 -2.52977,2.12009 -3.01136,2.66859 -1.00109,1.14017 -2.12254,3.3938 -2.12636,4.27303 l -0.003,0.59532 h 6.74687 6.74688 z m 39.42292,-52.13059 v -15.87501 h -46.56667 -46.56667 v 15.87501 15.875 h 46.56667 46.56667 z m -33.07292,-18.25626 v -0.79375 H 195.168 181.80654 v 0.79375 0.79375 h 13.36146 13.36146 z m -13.15938,-1.50916 c -0.32542,-0.0628 -0.92074,-0.0644 -1.32292,-0.004 -0.40218,0.0608 -0.13593,0.1122 0.59167,0.11419 0.72761,0.002 1.05667,-0.0478 0.73125,-0.11058 z m -2.97104,-0.424 c -1.16268,-0.40045 -2.00385,-1.64321 -2.41865,-3.57336 -0.43016,-2.00157 -0.87834,-2.87539 -2.15256,-4.19682 l -1.06493,-1.10438 1.76851,0.53981 c 0.97268,0.2969 1.82708,0.48125 1.89866,0.40966 0.25832,-0.25831 -0.77288,-3.68964 -1.37586,-4.57817 -0.33942,-0.50018 -0.49735,-0.90941 -0.35094,-0.90941 0.1464,0 0.75142,0.77391 1.34449,1.71979 0.59307,0.94589 1.18407,1.71979 1.31334,1.71979 0.45253,0 0.22912,-1.77538 -0.42643,-3.3887 -0.71038,-1.74824 -0.96987,-3.58503 -0.28385,-2.00919 0.19629,0.4509 0.87225,1.48588 1.50214,2.29996 1.67548,2.16542 1.89704,1.8228 1.66866,-2.58038 -0.17061,-3.28934 -0.14713,-3.54697 0.43613,-4.78606 l 0.61645,-1.30958 0.19175,3.0427 c 0.21008,3.33339 1.03258,7.92658 1.43512,8.01433 0.14275,0.0311 0.33142,-1.22209 0.42982,-2.85495 0.0965,-1.60073 0.28737,-3.20449 0.42424,-3.5639 0.36711,-0.96409 0.69662,6.18216 0.34041,7.38283 -0.29123,0.98166 -0.1411,1.43314 0.26723,0.80362 0.13885,-0.21407 0.54996,-1.34172 0.91359,-2.50588 0.87497,-2.80125 1.17713,-3.25073 1.18238,-1.75882 0.002,0.63338 -0.35313,2.21773 -0.7897,3.52078 -0.89331,2.66636 -0.99112,3.34157 -0.32946,2.27443 0.48603,-0.78388 1.78953,-1.52285 2.68621,-1.52285 0.53623,0 0.52982,0.0377 -0.17228,1.01198 -0.90132,1.25075 -2.07786,3.77766 -2.44899,5.25984 -0.32919,1.31463 -1.36845,2.64367 -2.1919,2.80305 -0.50811,0.0984 -0.49241,0.11828 0.11775,0.14951 1.17881,0.0603 3.93091,-0.93761 5.42665,-1.96776 2.38556,-1.643 3.76079,-3.8967 5.63894,-9.241 1.89793,-5.40059 3.3844,-7.62166 5.98559,-8.94362 l 1.23933,-0.62984 -0.62646,-0.43879 c -1.77064,-1.24021 -4.53541,0.3769 -7.39223,4.32371 -0.474,0.65484 -0.799,0.9525 -0.72223,0.66146 0.0768,-0.29104 0.46323,-1.6365 0.85877,-2.98991 0.64199,-2.19658 0.70531,-2.76463 0.58987,-5.29166 -0.0711,-1.55701 -0.2873,-3.30718 -0.4804,-3.88926 l -0.35109,-1.05834 -0.1765,2.52636 c -0.31217,4.46806 -1.30323,7.63867 -2.59648,8.30667 l -0.68946,0.35612 -0.0153,-2.28728 c -0.0125,-1.87111 -0.22622,-3.03348 -1.17455,-6.38833 -0.89278,-3.15836 -1.16295,-4.56792 -1.17534,-6.13218 -0.0116,-1.46322 -0.0889,-1.90709 -0.27669,-1.5875 -0.31826,0.54179 -0.34124,3.90363 -0.0546,7.98427 0.16412,2.33628 0.13338,3.19143 -0.13241,3.68327 -0.63333,1.17199 -0.87915,0.89014 -0.7867,-0.90201 0.1236,-2.39629 -0.24885,-3.84752 -2.08388,-8.11976 -2.3855,-5.55381 -2.8076,-7.95291 -1.96704,-11.18003 0.22183,-0.85164 0.35673,-1.59503 0.29979,-1.65197 -0.19693,-0.19694 -1.76487,1.7907 -2.39246,3.03287 -0.86894,1.71986 -1.15772,3.48423 -1.35171,8.25846 -0.16442,4.04673 -0.5345,6.42769 -1.26903,8.16455 l -0.37576,0.8885 -0.83608,-1.78667 c -1.21119,-2.58825 -1.86234,-4.95464 -2.10868,-7.66325 l -0.21657,-2.38125 -0.50726,1.05833 c -0.45132,0.9416 -0.50737,1.68575 -0.50819,6.74687 -7.9e-4,4.94865 -0.062,5.80039 -0.47073,6.54844 -0.2584,0.47294 -0.56737,0.8599 -0.68659,0.8599 -0.44179,0 -1.10249,-1.00439 -1.58693,-2.41243 -0.27428,-0.79721 -0.7544,-1.9507 -1.06692,-2.5633 -0.56714,-1.11169 -2.83033,-3.68542 -3.04871,-3.46704 -0.16777,0.16777 2.13889,10.77294 2.60358,11.97035 0.36777,0.94768 0.36406,0.99124 -0.0568,0.66563 -0.24768,-0.19163 -1.47006,-1.36232 -2.71639,-2.60154 -1.24635,-1.23922 -2.78446,-2.53992 -3.41803,-2.89043 l -1.15196,-0.63731 1.41355,1.69564 c 1.6957,2.0341 2.87609,4.49162 3.96127,8.24721 2.12136,7.34158 5.05232,11.14992 9.73263,12.6461 0.835,0.26693 1.87538,0.48501 2.31194,0.48462 l 0.79375,-7.9e-4 -0.91688,-0.3158 z"
         id="path62"
         inkscape:connector-curvature="0" />
      <path
         style="fill:#d9281b;stroke-width:0.26458335"
         d="m 155.50062,283.36059 c -21.62091,-21.48855 -39.31019,-39.14647 -39.30951,-39.23982 0.001,-0.20065 78.52914,-78.18411 78.84975,-78.3033 0.22527,-0.0837 78.84167,77.92337 78.83945,78.22843 -0.001,0.20065 -78.52914,78.18411 -78.84975,78.3033 -0.12056,0.0448 -17.90903,-17.50005 -39.52994,-38.98861 z m 74.32793,-4.61696 34.65978,-34.66055 -34.72631,-34.72631 -34.72631,-34.72631 -34.72631,34.72631 -34.72631,34.72631 34.65978,34.66055 c 19.06289,19.0633 34.71966,34.66054 34.79284,34.66054 0.0732,0 15.72995,-15.59724 34.79284,-34.66054 z m -68.52734,-1.05834 -33.60144,-33.60222 33.66797,-33.66796 33.66797,-33.66797 33.66797,33.66797 33.66797,33.66796 -33.60144,33.60222 c -18.48078,18.48122 -33.66131,33.60221 -33.7345,33.60221 -0.0732,0 -15.25372,-15.12099 -33.7345,-33.60221 z m 40.87825,21.69596 v -1.85208 h -3.32291 c -2.19596,0 -3.26622,-0.0917 -3.15575,-0.27045 0.0919,-0.14875 0.8431,-0.7606 1.66926,-1.35967 3.42072,-2.48044 4.54482,-4.04113 4.54482,-6.30998 0,-1.56721 -0.45258,-2.5737 -1.58622,-3.52759 -1.06868,-0.89924 -2.34789,-1.22936 -4.76378,-1.22936 -2.43206,0 -3.69537,0.33034 -4.79194,1.25304 -0.88954,0.7485 -1.80714,2.46937 -1.81684,3.40729 -0.007,0.66141 0.81497,0.89297 3.16919,0.89297 1.47354,0 1.52627,-0.0246 1.67771,-0.78174 0.32454,-1.62271 2.36443,-2.01192 3.27346,-0.62457 0.38721,0.59097 0.38728,0.72 7.9e-4,1.5306 -0.2468,0.51754 -1.4453,1.70129 -2.88545,2.84993 -3.75279,2.99315 -4.95214,4.48131 -5.47032,6.78757 l -0.24411,1.08613 h 6.85105 6.85104 z m 39.42292,-52.12291 v -15.87501 h -46.56667 -46.56667 v 15.87501 15.875 h 46.56667 46.56667 z m -33.07292,-18.38855 v -0.92604 H 195.168 181.80654 v 0.92604 0.92604 h 13.36146 13.36146 z m -10.54865,-1.57169 c 2.39561,-0.50777 4.31661,-1.53847 5.9109,-3.17144 1.57371,-1.61189 2.55936,-3.51841 4.25041,-8.22145 0.68022,-1.89177 1.58155,-4.04962 2.00297,-4.79522 0.90829,-1.60702 2.79493,-3.41911 4.14867,-3.98474 l 0.96985,-0.40523 -0.61826,-0.50063 c -0.68329,-0.5533 -1.742,-0.64157 -2.81262,-0.23453 -0.86561,0.32911 -3.53358,2.84608 -4.50938,4.25416 -0.39852,0.57506 -0.76173,1.00842 -0.80713,0.96302 -0.0454,-0.0454 0.28398,-1.20842 0.73195,-2.58448 1.01456,-3.11647 1.14462,-6.56769 0.34356,-9.11652 -0.47835,-1.52201 -0.50205,-1.54929 -0.5745,-0.66146 -0.4472,5.47986 -1.00821,7.96261 -2.08969,9.24787 -0.88563,1.05252 -1.5236,1.09965 -1.13746,0.084 0.35009,-0.9208 0.0268,-2.82681 -1.33371,-7.8638 -1.20265,-4.45246 -1.48492,-6.34371 -1.09773,-7.35508 0.15321,-0.40018 0.17409,-0.7276 0.0464,-0.7276 -0.39772,0 -0.81308,1.60039 -0.81308,3.13283 0,0.8065 0.13686,2.81631 0.30413,4.46622 0.23312,2.29938 0.23064,3.24516 -0.0106,4.0504 -0.49202,1.64222 -0.82235,1.24243 -0.82622,-0.99997 -0.004,-2.22688 -0.41964,-3.62298 -2.72898,-9.16292 -1.84202,-4.41883 -2.05549,-6.53293 -1.08519,-10.74698 0.28284,-1.22838 -2.17593,1.70839 -2.77834,3.31846 -0.64408,1.72148 -1.06994,5.10991 -1.0793,8.58779 -0.007,2.60022 -0.44602,5.27244 -1.13025,6.87963 l -0.39406,0.92558 -0.9404,-1.9985 c -1.12021,-2.38062 -1.69927,-4.60791 -1.99116,-7.65879 l -0.21516,-2.24896 -0.50755,1.05834 c -0.45137,0.94121 -0.50793,1.68787 -0.51111,6.74687 -0.003,4.76051 -0.0763,5.85041 -0.44952,6.68073 -0.24527,0.5457 -0.56834,0.99219 -0.71793,0.99219 -0.40713,0 -0.97293,-0.98061 -1.73674,-3.01006 -0.37663,-1.00068 -1.02543,-2.31037 -1.44177,-2.91042 -0.86284,-1.24352 -2.32845,-2.70328 -2.5209,-2.51083 -0.1648,0.16481 1.84816,9.76695 2.37365,11.32271 0.21766,0.64439 0.39574,1.22743 0.39574,1.29566 0,0.0682 -1.12345,-0.96279 -2.49655,-2.29115 -2.21859,-2.14628 -4.84672,-4.16583 -5.09634,-3.91621 -0.0497,0.0497 0.34286,0.55438 0.87239,1.12149 2.07914,2.22668 3.34602,4.69406 4.46908,8.70402 1.29653,4.6293 3.24831,8.31435 5.49158,10.36834 3.01354,2.75927 7.58438,3.84232 12.14036,2.87663 z m -5.03954,-0.12457 c -1.54971,-0.26934 -2.22372,-1.15105 -2.9396,-3.84544 -0.59607,-2.24346 -1.47203,-3.79678 -2.61451,-4.63626 -0.66889,-0.49149 -0.64725,-0.49128 0.8766,0.008 1.82487,0.59836 2.27519,0.63436 2.27089,0.18157 -0.006,-0.61325 -0.72915,-3.06336 -1.15841,-3.92381 -0.71572,-1.4347 -0.46807,-1.25252 0.63216,0.46504 0.57585,0.89895 1.16517,1.70749 1.3096,1.79676 0.64039,0.39578 0.52495,-1.19432 -0.23667,-3.25995 -0.87448,-2.37171 -1.05243,-3.2919 -0.39146,-2.02426 0.69336,1.32977 2.55404,3.59705 2.86361,3.48938 0.19801,-0.0689 0.26601,-1.2142 0.21185,-3.56822 -0.0792,-3.44295 0.17877,-5.29788 0.80926,-5.81887 0.25646,-0.21193 0.33319,0.14522 0.34863,1.62282 0.0247,2.36123 1.18998,8.94371 1.5614,8.81996 0.14898,-0.0496 0.39698,-1.53598 0.55111,-3.30298 0.15412,-1.76701 0.37086,-3.30338 0.48164,-3.41416 0.11078,-0.11078 0.16327,1.79151 0.11665,4.22732 -0.0513,2.67794 0.0133,4.3959 0.16328,4.34566 0.13642,-0.0457 0.66657,-1.32579 1.17811,-2.84466 0.5267,-1.56393 0.97581,-2.54405 1.03555,-2.25998 0.15999,0.76069 -0.45061,3.5398 -1.16393,5.29762 -0.71426,1.76012 -0.64977,2.16622 0.17709,1.11504 0.65376,-0.83111 1.82995,-1.4903 2.65915,-1.4903 h 0.58843 l -0.53249,0.59531 c -0.98372,1.0998 -1.80346,2.6964 -2.60246,5.06882 -0.54716,1.62467 -0.99924,2.50665 -1.45521,2.83906 -0.77029,0.56156 -3.0505,0.80986 -4.74027,0.51617 z"
         id="path60"
         inkscape:connector-curvature="0" />
    </g>
  </g>
</svg>
