<?xml version="1.0" encoding="UTF-8" standalone="no"?>
<!-- Created with Inkscape (http://www.inkscape.org/) -->

<svg
   xmlns:dc="http://purl.org/dc/elements/1.1/"
   xmlns:cc="http://creativecommons.org/ns#"
   xmlns:rdf="http://www.w3.org/1999/02/22-rdf-syntax-ns#"
   xmlns:svg="http://www.w3.org/2000/svg"
   xmlns="http://www.w3.org/2000/svg"
   xmlns:sodipodi="http://sodipodi.sourceforge.net/DTD/sodipodi-0.dtd"
   xmlns:inkscape="http://www.inkscape.org/namespaces/inkscape"
   width="270.93335mm"
   height="270.93332mm"
   viewBox="0 0 270.93335 270.93333"
   version="1.1"
   id="svg230"
   inkscape:version="0.92.4 (5da689c313, 2019-01-14)"
   sodipodi:docname="Class_2_Non_Flammable_Gas.svg">
  <defs
     id="defs224" />
  <sodipodi:namedview
     id="base"
     pagecolor="#ffffff"
     bordercolor="#666666"
     borderopacity="1.0"
     inkscape:pageopacity="0.0"
     inkscape:pageshadow="2"
     inkscape:zoom="0.35"
     inkscape:cx="285.71429"
     inkscape:cy="326.57144"
     inkscape:document-units="mm"
     inkscape:current-layer="layer1"
     showgrid="false"
     inkscape:window-width="1920"
     inkscape:window-height="1017"
     inkscape:window-x="-8"
     inkscape:window-y="-8"
     inkscape:window-maximized="1" />
  <metadata
     id="metadata227">
    <rdf:RDF>
      <cc:Work
         rdf:about="">
        <dc:format>image/svg+xml</dc:format>
        <dc:type
           rdf:resource="http://purl.org/dc/dcmitype/StillImage" />
        <dc:title></dc:title>
      </cc:Work>
    </rdf:RDF>
  </metadata>
  <g
     inkscape:label="Layer 1"
     inkscape:groupmode="layer"
     id="layer1"
     transform="translate(-30.238095,35.69464)">
    <g
       id="g243"
       transform="matrix(1.7066667,0,0,1.7181207,-23.948576,-166.33215)">
      <path
         style="fill:#fefefe;stroke-width:0.26458335"
         d="M 31.750002,154.88095 V 76.035118 H 111.125 190.5 v 78.845832 78.84584 H 111.125 31.750002 Z"
         id="path259"
         inkscape:connector-curvature="0" />
      <path
         style="fill:#b8dcc9;stroke-width:0.26458335"
         d="M 71.45864,194.29119 C 49.76441,172.73062 32.01518,155.01332 32.015908,154.91941 c 0.0016,-0.20113 78.791892,-78.449332 79.112922,-78.568566 0.22535,-0.0837 79.10763,78.186686 79.10527,78.491656 -0.002,0.20112 -78.7919,78.44933 -79.11292,78.56856 -0.12017,0.0446 -17.96831,-17.55931 -39.66254,-39.11987 z M 145.78555,189.40895 180.31304,154.8807 145.71902,120.28668 111.125,85.692663 76.530985,120.28668 41.936967,154.8807 76.464458,189.40895 c 18.99012,18.99054 34.587362,34.52825 34.660542,34.52825 0.0732,0 15.67043,-15.53771 34.66055,-34.52825 z M 77.258206,188.6152 43.524479,154.88069 77.32474,121.08043 111.125,87.280169 l 33.80026,33.800261 33.80027,33.80026 -33.73373,33.73451 c -18.55355,18.55398 -33.79361,33.7345 -33.8668,33.7345 -0.0732,0 -15.313245,-15.18052 -33.866794,-33.7345 z m 40.745964,21.57158 v -1.84418 l -3.37344,-0.074 -3.37344,-0.074 1.7198,-1.32037 c 2.93222,-2.25121 4.4091,-3.84371 4.75345,-5.12558 0.62315,-2.31974 -0.33506,-4.37938 -2.49355,-5.35985 -1.20908,-0.54921 -5.14498,-0.68518 -6.76956,-0.23386 -1.61785,0.44945 -3.16326,2.46197 -3.16326,4.11938 0,0.60748 0.0868,0.64444 1.52135,0.64785 0.83675,0.002 1.77386,0.0714 2.08249,0.15421 0.45104,0.12105 0.59783,0.004 0.74821,-0.59893 0.27394,-1.09745 0.91148,-1.67556 1.84779,-1.67556 1.23153,0 2.00224,0.65403 2.00224,1.69911 0,1.14072 -0.65624,1.93977 -3.15573,3.84247 -2.71082,2.06357 -4.36692,3.94801 -5.03213,5.72593 -0.29886,0.79879 -0.54339,1.56693 -0.54339,1.707 0,0.15636 2.55312,0.25465 6.61459,0.25465 h 6.61458 z m 39.6875,-52.26312 V 142.18095 H 111.125 64.558335 v 15.74271 15.74271 H 111.125 157.69167 Z m -53.60176,-25.4973 c 12.61057,-2.45461 22.99754,-4.53216 23.08216,-4.61678 0.0846,-0.0846 0.23413,-0.54633 0.33223,-1.02602 l 0.17838,-0.87216 4.68574,-0.8917 4.68575,-0.89171 0.0475,-0.82925 c 0.13589,-2.3701 -0.48516,-4.27198 -1.31807,-4.03639 -0.24709,0.0699 -2.17567,0.44886 -4.28572,0.84215 -2.11005,0.39329 -3.97162,0.82165 -4.13681,0.95191 -0.20087,0.15839 -0.48274,-0.0723 -0.85098,-0.69639 -0.30284,-0.51328 -0.72917,-0.93323 -0.9474,-0.93323 -0.34774,0 -44.342098,8.50289 -45.839364,8.85948 -0.827628,0.19711 -0.952926,0.89601 -0.632741,3.52935 0.393399,3.2355 0.967566,5.07367 1.584807,5.07367 0.267396,0 10.803914,-2.00832 23.414478,-4.46293 z"
         id="path257"
         inkscape:connector-curvature="0" />
      <path
         style="fill:#9ccfb3;stroke-width:0.26458335"
         d="M 71.567682,194.33284 C 49.886239,172.81091 32.146877,155.09875 32.146877,154.97248 c 0,-0.29898 78.718183,-78.540487 79.018983,-78.540487 0.309,0 79.10449,78.225997 79.01097,78.439907 -0.0994,0.22741 -78.80431,78.44006 -79.01906,78.52486 -0.0931,0.0368 -17.908645,-17.54199 -39.590088,-39.06392 z M 145.78555,189.40895 180.31304,154.8807 145.71902,120.28668 111.125,85.692663 76.530985,120.28668 41.936967,154.8807 76.464458,189.40895 c 18.99012,18.99054 34.587362,34.52825 34.660542,34.52825 0.0732,0 15.67043,-15.53771 34.66055,-34.52825 z M 77.258206,188.6152 43.524479,154.88069 77.32474,121.08043 111.125,87.280169 l 33.80026,33.800261 33.80027,33.80026 -33.73373,33.73451 c -18.55355,18.55398 -33.79361,33.7345 -33.8668,33.7345 -0.0732,0 -15.313245,-15.18052 -33.866794,-33.7345 z m 40.745964,21.56367 v -1.85208 h -3.33969 c -3.80808,0 -3.82773,-0.0312 -1.16889,-1.85478 4.74624,-3.25528 5.81774,-6.82736 2.83386,-9.44724 -1.14743,-1.00746 -2.24131,-1.27373 -5.10031,-1.24154 -3.47936,0.0392 -5.19656,1.16706 -5.9456,3.90516 -0.15331,0.56039 -0.24114,1.05005 -0.1952,1.08813 0.0459,0.0381 1.05248,0.14679 2.23673,0.24159 2.14485,0.1717 2.15385,0.16976 2.32184,-0.49954 0.56185,-2.23859 3.85934,-2.22807 3.85934,0.0123 0,0.9723 -0.60117,1.74931 -2.4574,3.1762 -2.89725,2.22712 -4.70028,4.12858 -5.50953,5.81033 -1.29944,2.70043 -1.73442,2.51354 5.85027,2.51354 h 6.61458 v -1.85209 z m 39.6875,-52.25521 V 142.18095 H 111.125 64.558335 v 15.74271 15.74271 H 111.125 157.69167 Z m -53.85614,-25.40284 c 12.36188,-2.39832 22.69028,-4.42855 22.95199,-4.51161 0.26171,-0.0831 0.54559,-0.47051 0.63084,-0.861 0.0852,-0.39048 0.18957,-0.82903 0.23181,-0.97455 0.0422,-0.14552 1.60988,-0.54113 3.48363,-0.87913 6.31018,-1.13828 5.86746,-0.96866 6.07101,-2.32603 0.17198,-1.14685 -0.38505,-3.32831 -0.93698,-3.66942 -0.11852,-0.0733 -2.26769,0.26547 -4.77594,0.75272 l -4.56045,0.8859 -0.42874,-0.75379 c -0.26597,-0.46761 -0.64892,-0.75442 -1.0087,-0.75545 -0.53737,-0.002 -45.154092,8.58993 -46.185144,8.89349 -0.577887,0.17015 -0.610611,1.95113 -0.08936,4.86317 0.483384,2.70046 1.031889,3.96403 1.655358,3.81337 0.266486,-0.0644 10.598788,-2.07935 22.960676,-4.47767 z"
         id="path255"
         inkscape:connector-curvature="0" />
      <path
         style="fill:#7ec09d;stroke-width:0.26458335"
         d="M 71.487429,194.20647 31.984667,155.01324 66.461605,120.68284 C 85.423922,101.80112 103.26083,84.104639 106.09918,81.357327 l 5.16063,-4.995114 39.50277,39.193227 39.50276,39.19322 -34.47694,34.3304 c -18.96232,18.88172 -36.79922,36.57821 -39.63757,39.32552 l -5.16064,4.99511 z M 145.78555,189.40895 180.31304,154.8807 145.71902,120.28668 111.125,85.692663 76.530985,120.28668 41.936967,154.8807 76.464458,189.40895 c 18.99012,18.99054 34.587362,34.52825 34.660542,34.52825 0.0732,0 15.67043,-15.53771 34.66055,-34.52825 z M 77.258211,188.61417 43.526545,154.87863 77.325772,121.0794 111.125,87.280169 l 33.80026,33.800261 33.80027,33.80026 -33.73373,33.73451 c -18.55355,18.55398 -33.79407,33.7345 -33.86783,33.7345 -0.0738,0 -15.313345,-15.18099 -33.865759,-33.73553 z m 40.745959,21.57261 v -1.84418 l -3.37344,-0.074 -3.37344,-0.074 2.58201,-1.94122 c 1.74965,-1.31543 2.80787,-2.32663 3.28267,-3.13681 1.54347,-2.63373 0.86603,-5.4234 -1.62428,-6.68878 -1.15454,-0.58665 -1.64107,-0.66715 -3.96875,-0.65665 -3.05771,0.0138 -4.53528,0.5699 -5.44464,2.04923 -0.49911,0.81194 -1.17116,2.8084 -0.99596,2.95866 0.0459,0.0394 1.04523,0.15283 2.22064,0.25207 l 2.1371,0.18043 0.41678,-1.06101 c 0.30274,-0.77071 0.61498,-1.11076 1.1412,-1.24283 1.04429,-0.2621 2.05396,0.18128 2.35371,1.0336 0.40243,1.14432 -0.35183,2.17381 -3.32623,4.53994 -2.81892,2.24245 -4.22075,3.88686 -4.86141,5.70268 -0.69598,1.97262 -1.11847,1.84714 6.21946,1.84714 h 6.61458 z m 39.6875,-52.26312 V 142.18095 H 111.125 64.558335 v 15.74271 15.74271 H 111.125 157.69167 Z m -53.20943,-25.4916 c 16.4365,-3.20551 22.65116,-4.51447 22.80455,-4.80319 0.11598,-0.21828 0.27314,-0.69797 0.34927,-1.06598 0.0946,-0.45752 0.3297,-0.68545 0.74336,-0.72083 0.33273,-0.0285 2.37971,-0.41198 4.54884,-0.85226 2.16914,-0.44028 3.97538,-0.80051 4.01387,-0.80051 0.0385,0 0.15086,-0.36817 0.24969,-0.81816 0.24679,-1.12361 -0.0719,-3.01078 -0.62348,-3.69194 l -0.45682,-0.56416 -4.59167,0.9085 -4.59166,0.90851 -0.42712,-0.75096 c -0.29083,-0.51134 -0.63817,-0.75066 -1.08857,-0.75006 -0.3638,5.3e-4 -10.96036,2.00438 -23.54791,4.4531 l -22.886463,4.45222 -0.08187,1.26377 c -0.09949,1.53574 0.313097,4.33426 0.912709,6.19086 0.42885,1.32786 0.468794,1.36616 1.261226,1.20935 0.450091,-0.0891 10.985514,-2.14478 23.412048,-4.56826 z"
         id="path253"
         inkscape:connector-curvature="0" />
      <path
         style="fill:#5fb185;stroke-width:0.26458335"
         d="M 71.488125,194.20666 31.986458,155.01324 66.462502,120.68309 C 85.424324,101.80151 103.2607,84.10515 106.0989,81.357846 l 5.16036,-4.995099 39.50217,39.192953 39.50216,39.19296 -34.47606,34.33015 c -18.96184,18.88159 -36.79844,36.57815 -39.63691,39.32571 l -5.16083,4.99556 z M 145.78555,189.40895 180.31304,154.8807 145.71902,120.28668 111.125,85.692663 76.530985,120.28668 41.936967,154.8807 76.464458,189.40895 c 18.99012,18.99054 34.587362,34.52825 34.660542,34.52825 0.0732,0 15.67043,-15.53771 34.66055,-34.52825 z M 77.258211,188.61417 43.526545,154.87863 77.325772,121.0794 111.125,87.280169 l 33.80026,33.800261 33.80027,33.80026 -33.73373,33.73451 c -18.55355,18.55398 -33.79407,33.7345 -33.86783,33.7345 -0.0738,0 -15.313345,-15.18099 -33.865759,-33.73553 z m 41.010539,21.57238 v -1.8444 l -3.48565,-0.0738 -3.48565,-0.0738 2.55869,-1.92252 c 3.09371,-2.32451 3.94947,-3.4947 4.07768,-5.57589 0.11925,-1.936 -0.63926,-3.33429 -2.3189,-4.2748 -1.0547,-0.59058 -1.48315,-0.66172 -3.96075,-0.65763 -3.03772,0.005 -4.42192,0.46553 -5.49336,1.82765 -0.49834,0.63353 -1.30128,2.97202 -1.09159,3.17913 0.0565,0.0558 1.06842,0.18534 2.24879,0.28795 l 2.14614,0.18658 0.30009,-0.86084 c 0.55776,-1.6 2.00334,-2.06516 3.12965,-1.00706 1.28024,1.20273 0.67698,2.27341 -2.88032,5.11196 -1.45804,1.16345 -2.99545,2.55028 -3.41646,3.08185 -0.92361,1.16616 -1.80833,3.04868 -1.8163,3.86476 l -0.006,0.59531 h 6.74688 6.74687 z m 39.42292,-52.1306 v -15.875 H 111.125 64.558335 v 15.875 15.875 H 111.125 157.69167 Z m -53.4476,-25.54892 c 12.44106,-2.41508 22.76973,-4.51523 22.9526,-4.667 0.18287,-0.15178 0.33432,-0.52927 0.33655,-0.83887 0.006,-0.80477 0.28313,-1.08154 1.18657,-1.18412 2.29553,-0.26064 8.16309,-1.61405 8.36258,-1.92891 0.62328,-0.98375 -0.0393,-4.27913 -0.92897,-4.62055 -0.21752,-0.0835 -2.37449,0.2531 -4.79326,0.74794 l -4.39778,0.8997 -0.36827,-0.71215 c -0.20255,-0.39169 -0.5215,-0.77031 -0.70878,-0.84138 -0.18729,-0.0711 -10.81802,1.90985 -23.62385,4.40205 l -23.283333,4.53127 -0.08219,1.45057 c -0.09269,1.636 0.297236,4.27089 0.912596,6.16676 0.378748,1.16689 0.470821,1.26018 1.114147,1.12887 0.385702,-0.0787 10.880326,-2.11911 23.32139,-4.53418 z"
         id="path251"
         inkscape:connector-curvature="0" />
      <path
         style="fill:#2f9a60;stroke-width:0.26458335"
         d="m 71.518843,194.20257 -39.473867,-39.18933 24.6572,-24.54041 C 70.263636,116.97561 88.086408,99.280877 96.308335,91.151213 l 14.948955,-14.781209 39.47387,39.189326 39.47387,39.18933 -24.6572,24.54041 c -13.56146,13.49723 -31.38423,31.19196 -39.60616,39.32162 L 110.99271,233.3919 Z M 145.78555,189.40895 180.31304,154.8807 145.71902,120.28668 111.125,85.692663 76.530985,120.28668 41.936967,154.8807 76.464458,189.40895 c 18.99012,18.99054 34.587362,34.52825 34.660542,34.52825 0.0732,0 15.67043,-15.53771 34.66055,-34.52825 z M 77.390497,188.48291 43.789064,154.88069 77.457032,121.21272 111.125,87.544753 l 33.66797,33.667967 33.66797,33.66797 -33.60143,33.60222 c -18.48079,18.48122 -33.66132,33.60221 -33.73451,33.60221 -0.0732,0 -15.253717,-15.12099 -33.734503,-33.60221 z m 40.878253,21.70364 v -1.8444 l -3.4858,-0.0738 -3.4858,-0.0738 2.48807,-1.85209 c 1.36844,-1.01864 2.84775,-2.36835 3.28736,-2.99935 0.69685,-1.00022 0.7993,-1.3759 0.7993,-2.93101 0,-1.52919 -0.10171,-1.91708 -0.71267,-2.7181 -0.99413,-1.30338 -2.29625,-1.84252 -4.83205,-2.00073 -3.89442,-0.24296 -6.28789,0.97455 -7.00708,3.56436 -0.4418,1.59088 -0.43174,1.60155 1.69806,1.80113 2.25751,0.21155 2.78395,0.0902 2.78395,-0.64192 0,-0.61251 1.17927,-1.615 1.89979,-1.615 0.27803,0 0.80916,0.30365 1.18028,0.67477 1.2224,1.2224 0.65365,2.18426 -2.96686,5.01746 -1.17465,0.91922 -2.52977,2.12009 -3.01136,2.66859 -1.00109,1.14017 -2.12254,3.39379 -2.12635,4.27303 l -0.003,0.59531 h 6.74688 6.74687 z m 39.42292,-52.1306 v -15.875 H 111.125 64.558335 v 15.875 15.875 H 111.125 157.69167 Z m -54.02051,-25.40634 c 12.73669,-2.47735 23.30086,-4.62314 23.47593,-4.76844 0.17507,-0.14529 0.38702,-0.60771 0.47099,-1.0276 0.1714,-0.85696 0.084,-0.82882 5.86421,-1.88961 1.9686,-0.36129 3.30067,-0.73891 3.50573,-0.99384 0.77186,-0.95953 0.007,-4.8091 -0.95477,-4.80694 -0.62205,0.001 -8.4617,1.5291 -8.74487,1.70411 -0.13011,0.0804 -0.48774,-0.27949 -0.79472,-0.79978 -0.47976,-0.81313 -0.65992,-0.92421 -1.28268,-0.79089 -0.39848,0.0853 -10.84483,2.11918 -23.2141,4.51971 -12.369274,2.40053 -22.65557,4.42633 -22.858442,4.50177 -0.295256,0.1098 -0.338958,0.65063 -0.219025,2.71053 0.136509,2.34464 1.022374,6.14524 1.432365,6.14524 0.08897,0 10.582693,-2.02692 23.319382,-4.50426 z"
         id="path249"
         inkscape:connector-curvature="0" />
      <path
         style="fill:#108b49;stroke-width:0.26458335"
         d="M 71.589704,194.1589 C 49.96891,172.67065 32.279734,155.01269 32.280425,154.91901 c 0.0015,-0.20168 78.527645,-78.184912 78.849145,-78.303991 0.22631,-0.08382 78.84227,77.921751 78.84001,78.227881 -0.002,0.20168 -78.52764,78.18491 -78.84914,78.30399 -0.12111,0.0448 -17.909939,-17.49974 -39.530736,-38.98799 z M 145.91784,189.54124 180.57762,154.8807 145.85131,120.15439 111.125,85.428078 76.398691,120.15439 41.672382,154.8807 76.332167,189.54124 c 19.062882,19.0633 34.719663,34.66055 34.792833,34.66055 0.0732,0 15.72995,-15.59725 34.79284,-34.66055 z M 77.390497,188.48291 43.789064,154.88069 77.457032,121.21272 111.125,87.544753 l 33.66797,33.667967 33.66797,33.66797 -33.60143,33.60222 c -18.48079,18.48122 -33.66132,33.60221 -33.73451,33.60221 -0.0732,0 -15.253717,-15.12099 -33.734503,-33.60221 z m 40.878253,21.70387 v -1.84418 l -3.37344,-0.074 -3.37343,-0.074 1.56248,-1.19063 c 3.96394,-3.02056 4.91981,-4.30621 4.91981,-6.61718 0,-3.13316 -2.16168,-4.76147 -6.31712,-4.75843 -2.46557,0.002 -3.72532,0.32936 -4.82481,1.25452 -0.88895,0.74799 -1.80714,2.46919 -1.81684,3.40574 -0.007,0.63347 0.93962,0.88646 3.33455,0.8916 1.29124,0.003 1.36346,-0.0344 1.51234,-0.77883 0.32849,-1.64244 2.34191,-2.04628 3.25492,-0.65285 0.4081,0.62284 0.40916,0.74126 0.014,1.56983 -0.25148,0.52736 -1.43899,1.70631 -2.88545,2.86467 -3.73494,2.99103 -4.73182,4.24508 -5.44985,6.85583 l -0.27289,0.99218 h 6.85785 6.85783 v -1.84417 z m 39.42292,-52.13083 v -15.875 H 111.125 64.558335 v 15.875 15.875 H 111.125 157.69167 Z m -53.894,-25.38339 c 12.63211,-2.46092 23.13172,-4.61071 23.33248,-4.77733 0.20075,-0.16661 0.43835,-0.63688 0.528,-1.04505 0.16062,-0.73127 0.22758,-0.75478 4.58107,-1.60823 2.42994,-0.47636 4.5669,-0.9822 4.7488,-1.12408 0.48198,-0.37593 0.40908,-2.92134 -0.11515,-4.02065 -0.28837,-0.60472 -0.63068,-0.93502 -0.96904,-0.93502 -0.28774,0 -2.43329,0.37305 -4.76789,0.82899 -2.93409,0.57303 -4.27523,0.73751 -4.3435,0.53271 -0.0543,-0.16296 -0.30049,-0.54541 -0.54705,-0.8499 l -0.44828,-0.55361 -23.21008,4.51882 c -12.76554,2.48535 -23.329577,4.51883 -23.475635,4.51883 -0.355587,0 -0.34149,3.46081 0.02212,5.4277 0.358167,1.9375 0.996593,3.56923 1.394706,3.56467 0.1661,-0.002 10.637359,-2.01693 23.269459,-4.47785 z"
         id="path247"
         inkscape:connector-curvature="0" />
      <path
         style="fill:#00833c;stroke-width:0.26458335"
         d="M 71.699207,194.20078 C 50.090946,172.75146 32.41146,155.09861 32.41146,154.97221 c 0,-0.30003 78.45332,-78.275634 78.7552,-78.275634 0.30924,0 78.83902,77.962014 78.74534,78.176024 -0.0995,0.2273 -78.54067,78.17503 -78.75525,78.25984 -0.0934,0.0369 -17.849284,-17.48234 -39.457543,-38.93166 z M 145.91784,189.54124 180.57762,154.8807 145.85131,120.15439 111.125,85.428078 76.398691,120.15439 41.672382,154.8807 76.332167,189.54124 c 19.062882,19.0633 34.719663,34.66055 34.792833,34.66055 0.0732,0 15.72995,-15.59725 34.79284,-34.66055 z M 77.390497,188.48291 43.789064,154.88069 77.457032,121.21272 111.125,87.544753 l 33.66797,33.667967 33.66797,33.66797 -33.60143,33.60222 c -18.48079,18.48122 -33.66132,33.60221 -33.73451,33.60221 -0.0732,0 -15.253717,-15.12099 -33.734503,-33.60221 z m 40.878253,21.70387 v -1.84418 l -3.37344,-0.074 -3.37343,-0.074 1.98437,-1.49393 c 3.66625,-2.76013 4.49792,-3.9327 4.49792,-6.34165 0,-1.54196 -0.45764,-2.55019 -1.59003,-3.50303 -1.15261,-0.96986 -2.67518,-1.30175 -5.42143,-1.18175 -3.68465,0.16099 -5.39987,1.40833 -5.86326,4.26386 -0.14657,0.90321 -0.12713,0.92724 0.8723,1.07821 0.56222,0.0849 1.60346,0.18213 2.31388,0.216 1.25795,0.06 1.2994,0.0378 1.5875,-0.85059 0.53294,-1.64329 2.57174,-1.95427 3.34461,-0.51016 0.52646,0.9837 -0.17361,2.01799 -2.76289,4.08198 -3.83168,3.05435 -5.15626,4.68642 -5.67415,6.99139 l -0.24403,1.08612 h 6.85104 6.85104 z m 39.42292,-52.13083 v -15.875 H 111.125 64.558335 v 15.875 15.875 H 111.125 157.69167 Z m -53.74342,-25.39207 c 12.69214,-2.46949 23.17658,-4.55177 23.29877,-4.62728 0.12219,-0.0755 0.29819,-0.54257 0.39111,-1.0379 l 0.16896,-0.9006 4.55739,-0.86052 c 2.50657,-0.4733 4.64487,-0.99208 4.75178,-1.15285 0.37385,-0.56219 0.20773,-3.1906 -0.26094,-4.12878 -0.53834,-1.07764 -0.12022,-1.07869 -5.73929,0.0144 l -3.95377,0.76912 -0.68296,-0.81808 -0.68295,-0.81807 -23.2896,4.52737 c -12.809275,2.49006 -23.373141,4.52738 -23.475254,4.52738 -0.102113,0 -0.183901,0.98226 -0.18175,2.18281 0.0055,3.06778 0.920173,6.81302 1.663904,6.81302 0.196895,0 10.742467,-2.02049 23.4346,-4.48999 z"
         id="path245"
         inkscape:connector-curvature="0" />
    </g>
  </g>
</svg>
