<?xml version="1.0" encoding="UTF-8" standalone="no"?>
<!-- Created with Inkscape (http://www.inkscape.org/) -->

<svg
   xmlns:dc="http://purl.org/dc/elements/1.1/"
   xmlns:cc="http://creativecommons.org/ns#"
   xmlns:rdf="http://www.w3.org/1999/02/22-rdf-syntax-ns#"
   xmlns:svg="http://www.w3.org/2000/svg"
   xmlns="http://www.w3.org/2000/svg"
   xmlns:sodipodi="http://sodipodi.sourceforge.net/DTD/sodipodi-0.dtd"
   xmlns:inkscape="http://www.inkscape.org/namespaces/inkscape"
   width="270.93335mm"
   height="270.93335mm"
   viewBox="0 0 270.93335 270.93336"
   version="1.1"
   id="svg8"
   inkscape:version="0.92.4 (5da689c313, 2019-01-14)"
   sodipodi:docname="Class_5.2_Organic_Peroxide.svg">
  <defs
     id="defs2" />
  <sodipodi:namedview
     id="base"
     pagecolor="#ffffff"
     bordercolor="#666666"
     borderopacity="1.0"
     inkscape:pageopacity="0.0"
     inkscape:pageshadow="2"
     inkscape:zoom="0.35"
     inkscape:cx="-112.85714"
     inkscape:cy="269.42861"
     inkscape:document-units="mm"
     inkscape:current-layer="layer1"
     showgrid="false"
     inkscape:window-width="1920"
     inkscape:window-height="1017"
     inkscape:window-x="-8"
     inkscape:window-y="-8"
     inkscape:window-maximized="1" />
  <metadata
     id="metadata5">
    <rdf:RDF>
      <cc:Work
         rdf:about="">
        <dc:format>image/svg+xml</dc:format>
        <dc:type
           rdf:resource="http://purl.org/dc/dcmitype/StillImage" />
        <dc:title></dc:title>
      </cc:Work>
    </rdf:RDF>
  </metadata>
  <g
     inkscape:label="Layer 1"
     inkscape:groupmode="layer"
     id="layer1"
     transform="translate(-22.678571,50.81369)">
    <g
       id="g21"
       transform="matrix(1.7066667,0,0,1.7181208,-16.026189,-156.77367)">
      <path
         style="fill:#fefefe;stroke-width:0.26458335"
         d="M 22.67857,140.51785 V 61.67202 h 79.375 79.375 v 78.84583 78.84584 h -79.375 -79.375 z"
         id="path37"
         inkscape:connector-curvature="0" />
      <path
         style="fill:#fef09e;stroke-width:0.26458335"
         d="m 62.28951,179.86745 c -21.651952,-21.56952 -39.362499,-39.2841 -39.356771,-39.36574 0.02395,-0.34138 78.919081,-78.432815 79.240021,-78.432815 0.35492,0 78.99123,78.080915 78.99123,78.433325 0,0.2959 -78.8178,78.45706 -79.18325,78.52356 -0.17822,0.0324 -18.039278,-17.58882 -39.69123,-39.15833 z m 86.33073,-36.30689 V 127.81785 H 102.05357 55.486903 v 15.74271 15.74271 h 46.566667 46.56667 z"
         id="path35"
         inkscape:connector-curvature="0" />
      <path
         style="fill:#fdea70;stroke-width:0.26458335"
         d="M 62.407993,179.86821 22.894706,140.65015 62.407993,101.30492 C 84.140299,79.665041 102.00655,61.984259 102.11078,62.014291 c 0.10422,0.03003 17.94699,17.675854 39.65061,39.212939 l 39.46111,39.15833 -39.51832,39.3473 c -21.73507,21.64102 -39.57785,39.34868 -39.65061,39.35036 -0.0728,0.002 -17.913271,-17.64507 -39.645577,-39.21501 z M 148.62024,143.56056 V 127.81785 H 102.05357 55.486903 v 15.74271 15.74271 h 46.566667 46.56667 z"
         id="path33"
         inkscape:connector-curvature="0" />
      <path
         style="fill:#fcda00;stroke-width:0.26458335"
         d="M 62.431078,179.83853 22.940876,140.65015 52.641495,111.08263 C 68.976833,94.820494 86.807024,77.124618 92.264137,71.758459 l 9.922033,-9.756652 39.49409,39.191883 39.49409,39.19187 -30.49841,30.36279 c -16.77413,16.69954 -34.60607,34.39384 -39.62654,39.32068 l -9.12812,8.95788 z M 148.62024,143.69286 V 127.81785 H 102.05357 55.486903 v 15.87501 15.875 h 46.566667 46.56667 z"
         id="path31"
         inkscape:connector-curvature="0" />
      <path
         style="fill:#cfb300;stroke-width:0.26458335"
         d="M 67.260735,175.17815 32.60095,140.5176 67.327259,105.79129 102.05357,71.06498 l 34.72631,34.72631 34.72631,34.72631 -34.65978,34.66055 c -19.06289,19.0633 -34.71966,34.66054 -34.79284,34.66054 -0.0732,0 -15.729953,-15.59724 -34.792835,-34.66054 z m 68.527335,-1.05834 33.60144,-33.60222 -33.66797,-33.66796 -33.66797,-33.667975 -33.66797,33.667975 -33.667968,33.66796 33.601433,33.60222 c 18.480786,18.48122 33.661315,33.60221 33.734505,33.60221 0.0732,0 15.25372,-15.12099 33.7345,-33.60221 z m -45.773042,16.69797 c -1.363006,-0.62907 -2.130374,-1.47854 -2.639716,-2.92217 -0.224753,-0.63702 -0.377605,-1.18724 -0.339672,-1.22272 0.03794,-0.0355 0.963882,-0.14734 2.057662,-0.2486 l 1.98869,-0.1841 0.260268,0.88233 c 0.18124,0.61443 0.489559,0.96191 1.015413,1.14439 0.663284,0.23017 0.832257,0.1724 1.389062,-0.47492 0.466191,-0.54198 0.633918,-1.0527 0.633918,-1.93024 0,-2.46364 -1.37841,-3.47868 -2.996049,-2.20624 -0.567512,0.4464 -0.91096,0.50991 -1.986177,0.36728 -0.715007,-0.0948 -1.431215,-0.25354 -1.591571,-0.35264 -0.208273,-0.12872 -0.127908,-1.40514 0.281326,-4.46833 l 0.572883,-4.28813 h 4.579586 4.579586 v 1.85208 1.85209 H 94.807559 91.79488 l -0.130963,0.85989 c -0.07203,0.47294 -0.09756,0.89749 -0.05674,0.94343 0.04082,0.046 0.562493,-0.0479 1.159266,-0.20863 2.979825,-0.80239 5.582957,1.51488 5.582957,4.96987 0,3.90259 -2.063345,6.12382 -5.688541,6.12382 -0.984819,0 -1.989286,-0.18544 -2.645834,-0.48846 z m 9.977721,-2.07961 0.07645,-2.31511 2.05052,-0.0773 2.05052,-0.0773 v 2.39238 2.39238 h -2.12697 -2.126979 z m 5.764991,1.66357 c 0,-0.35834 0.25548,-1.33437 0.56773,-2.16894 0.46403,-1.24022 1.1165,-2.08351 3.57188,-4.61645 2.64446,-2.728 3.00414,-3.20784 3.00414,-4.00776 0,-1.1337 -0.76876,-1.91453 -1.66377,-1.6899 -0.60957,0.153 -1.24665,1.1251 -1.24665,1.90224 0,0.4285 -0.76485,0.48706 -2.77067,0.21213 l -1.25702,-0.17229 0.13155,-0.98084 c 0.19383,-1.4451 0.94025,-2.83935 1.87824,-3.50843 0.68758,-0.49046 1.25172,-0.6048 3.34082,-0.67713 2.28154,-0.079 2.59843,-0.0296 3.43328,0.53546 1.52863,1.03459 2.12384,2.16545 2.11716,4.02246 -0.008,2.31858 -0.61461,3.41784 -3.19402,5.79132 l -2.21799,2.04091 h 2.8412 2.8412 v 1.98438 1.98437 h -5.68854 -5.68854 z m -14.501914,-64.10524 0.08212,-0.99219 h 10.715624 10.71562 l 0.0821,0.99219 0.0821,0.99219 H 102.05357 91.17371 Z m 7.339468,-1.73557 c -2.767002,-0.78101 -5.531657,-3.19695 -6.804009,-5.94579 -0.641075,-1.38501 -0.706083,-1.83724 -0.768977,-5.34937 -0.08134,-4.54187 -0.460743,-8.04385 -1.015257,-9.37099 -0.220374,-0.52743 -0.651319,-2.05777 -0.957659,-3.40076 -0.567047,-2.485923 -1.02674,-3.663878 -1.753111,-4.492312 -0.561546,-0.640453 -0.132556,-0.579144 0.925663,0.132292 0.487024,0.327422 1.437664,1.398288 2.11254,2.379702 0.674872,0.981414 1.26171,1.749718 1.304083,1.707348 0.04237,-0.0424 -0.154165,-0.847709 -0.43675,-1.789636 -0.700791,-2.335919 -1.810877,-4.012065 -3.044973,-4.59768 -0.878536,-0.416891 -0.944719,-0.509104 -0.531413,-0.7404 0.929314,-0.52007 2.442226,0.243308 4.353375,2.196616 0.988136,1.00993 1.930519,1.836237 2.094187,1.836237 0.40295,0 0.663374,-1.142351 0.432951,-1.899134 -0.102888,-0.337923 -0.585266,-1.277215 -1.071949,-2.087311 -1.984613,-3.303455 -2.612517,-5.315147 -1.974093,-6.324642 0.295701,-0.467573 0.301667,-0.461297 1.036878,1.090823 0.652598,1.377721 6.01167,6.572571 6.580228,6.378589 0.590235,-0.201377 0.352522,-1.77084 -0.726258,-4.795007 -0.581342,-1.629689 -1.129877,-3.584455 -1.218967,-4.343924 -0.349025,-2.975405 0.934693,-5.171233 3.886507,-6.647967 1.05134,-0.525962 1.96919,-0.898627 2.03967,-0.828145 0.0705,0.07048 -0.29853,0.600434 -0.82003,1.17767 -1.25915,1.39373 -1.76874,2.431811 -1.95157,3.975477 -0.19445,1.641837 0.53794,3.302205 2.80574,6.360785 2.06139,2.780197 2.68982,4.004749 2.91919,5.688248 l 0.181,1.328497 0.3565,-0.732296 c 0.29263,-0.601114 0.3013,-1.35946 0.0484,-4.233333 -0.21742,-2.470584 -0.22689,-3.793067 -0.0322,-4.493226 0.4077,-1.465974 0.66003,-1.207122 0.55935,0.573796 -0.0678,1.198873 0.14346,2.395382 0.89926,5.093712 0.61564,2.197965 0.99793,4.149693 1.01462,5.180081 0.0147,0.909325 0.10744,1.653466 0.20602,1.653646 0.37314,7.94e-4 1.28611,-1.434357 1.57881,-2.481609 0.16754,-0.599467 0.44246,-2.280563 0.61092,-3.735771 l 0.3063,-2.645834 0.37676,1.058334 c 0.5845,1.641919 0.4575,5.725496 -0.23787,7.648191 -0.31085,0.859526 -0.56519,1.609903 -0.56519,1.667513 0,0.0576 0.74636,-0.67541 1.65858,-1.628921 1.78315,-1.863846 2.70723,-2.186159 3.78095,-1.318757 0.49457,0.399534 0.48845,0.409599 -0.16537,0.271751 -0.83401,-0.17584 -1.69149,0.385844 -2.25621,1.477891 -0.73065,1.412916 -2.68467,13.205626 -2.35845,14.233456 0.25499,0.8034 -0.3374,3.71969 -1.05248,5.18126 -1.0722,2.1915 -2.57222,3.68815 -4.79997,4.78916 -1.71533,0.84776 -2.27617,0.99124 -4.1499,1.06166 -1.23066,0.0462 -2.688914,-0.066 -3.375846,-0.25992 z m 6.721226,-1.86917 c 2.47547,-1.21113 4.44419,-3.59382 5.05566,-6.1187 0.36659,-1.51374 0.18316,-3.98736 -0.41405,-5.58354 -0.79793,-2.13268 -2.96432,-4.2962 -5.12838,-5.12161 -4.5493,-1.73517 -9.502478,0.2379 -11.667768,4.64778 -0.662185,1.34863 -0.765704,1.8635 -0.765704,3.80841 0,2.54889 0.66271,4.37065 2.245855,6.17375 2.575666,2.93353 7.214117,3.88687 10.674387,2.19391 z M 94.380653,106.40824 c 0,-0.43267 -0.315632,-1.07997 -0.526616,-1.07997 -0.256347,0 -0.527161,0.9747 -0.326551,1.17531 0.238075,0.23807 0.853167,0.16934 0.853167,-0.0953 z m 15.153517,-1.13748 c -0.25055,-0.53871 -0.30125,-0.55393 -0.46947,-0.14093 -0.27072,0.66471 0.0608,1.4344 0.45016,1.04507 0.21617,-0.21617 0.22158,-0.46924 0.0193,-0.90414 z M 98.483158,103.7384 c 0.231172,-0.37404 -0.118951,-1.36092 -0.417388,-1.17648 -0.321778,0.19887 -0.318818,1.44343 0.0034,1.44343 0.136932,0 0.323212,-0.12012 0.413953,-0.26695 z m 7.656702,-0.23834 c 0.18226,-0.2949 -0.0957,-1.08221 -0.38212,-1.08221 -0.28639,0 -0.56438,0.78731 -0.38212,1.08221 0.0818,0.13239 0.25377,0.24071 0.38212,0.24071 0.12834,0 0.30029,-0.10832 0.38212,-0.24071 z m -4.0689,-0.29776 c 0.64865,-0.34715 0.64254,-0.70176 -0.0393,-2.28386 l -0.55111,-1.278711 -0.49614,0.926041 c -1.044529,1.94964 -0.42749,3.44683 1.08658,2.63653 z"
         id="path29"
         inkscape:connector-curvature="0" />
      <path
         style="fill:#a58e00;stroke-width:0.26458335"
         d="M 67.416617,175.26199 C 48.486003,156.24481 32.99732,140.59857 32.99732,140.49257 c 0,-0.106 15.538157,-15.77063 34.529236,-34.81028 L 102.0558,71.064729 136.58281,105.69059 c 18.98985,19.04422 34.52701,34.70571 34.52701,34.8033 0,0.25948 -68.79696,69.3448 -69.05537,69.3448 -0.12019,0 -15.707221,-15.55951 -34.637833,-34.5767 z m 68.371453,-1.14218 33.60144,-33.60222 -33.66797,-33.66796 -33.66797,-33.667975 -33.66797,33.667975 -33.667968,33.66796 33.601433,33.60222 c 18.480786,18.48122 33.661315,33.60221 33.734505,33.60221 0.0732,0 15.25372,-15.12099 33.7345,-33.60221 z m -45.459828,16.81472 c -1.371132,-0.48901 -1.996879,-1.09868 -2.723549,-2.65357 -0.721323,-1.54346 -0.682983,-1.58603 1.668991,-1.85289 l 1.639909,-0.18607 0.398666,0.95415 c 0.219268,0.52478 0.582904,1.02484 0.80808,1.11125 0.704416,0.27031 1.627518,-0.12352 1.950371,-0.83211 0.442214,-0.97055 0.385313,-3.07584 -0.101934,-3.77148 -0.526706,-0.75198 -1.859187,-0.78379 -2.62673,-0.0627 -0.510707,0.47978 -0.701265,0.50028 -2.19851,0.23655 l -1.639337,-0.28876 0.153865,-0.96416 c 0.08463,-0.53029 0.357386,-2.45244 0.606129,-4.27145 l 0.452263,-3.30729 4.564123,-0.0724 4.564124,-0.0725 -0.07838,1.79224 -0.07838,1.79223 -2.945164,0.0745 -2.945165,0.0745 -0.16369,0.81845 c -0.244856,1.22429 -0.210624,1.32521 0.348084,1.0262 0.281474,-0.15064 1.146804,-0.27389 1.922954,-0.27389 2.850015,0 4.621636,2.22638 4.385805,5.51161 -0.266052,3.70621 -2.155031,5.57766 -5.629907,5.57766 -0.727605,0 -1.777283,-0.16205 -2.33262,-0.3601 z m 9.873248,-2.13022 v -2.24895 h 1.98437 1.98438 v 2.24895 2.24896 h -1.98438 -1.98437 z m 5.66134,1.16876 c 0.31181,-1.9499 1.4424,-3.70999 4.0206,-6.25919 2.72523,-2.69457 3.38181,-3.68272 3.12553,-4.70385 -0.46805,-1.86483 -3.01789,-1.35049 -3.01789,0.60876 0,0.60834 -0.0318,0.61557 -1.91823,0.43585 -1.05503,-0.10052 -1.95982,-0.21877 -2.01064,-0.26278 -0.24443,-0.21164 0.33441,-2.31589 0.84223,-3.06174 1.14301,-1.67879 1.79047,-1.94872 4.67414,-1.94872 2.22043,0 2.71538,0.0809 3.33769,0.54551 1.34637,1.00522 1.78979,1.86101 1.90546,3.67749 0.15107,2.3726 -0.4972,3.61033 -3.15307,6.02014 -1.14954,1.04304 -2.09008,1.99276 -2.09008,2.1105 0,0.11773 1.25016,0.21407 2.77813,0.21407 h 2.77812 v 1.85208 1.85208 h -5.72236 -5.72236 z M 91.470237,126.36265 v -0.92605 h 10.583333 10.58333 v 0.92605 0.92604 H 102.05357 91.470237 Z m 7.571777,-1.74951 c -1.641012,-0.38524 -4.04367,-1.79945 -5.213697,-3.06878 -0.59422,-0.64465 -1.45487,-1.96738 -1.912559,-2.9394 -0.796166,-1.69086 -0.833747,-1.92183 -0.868765,-5.33919 -0.04651,-4.53858 -0.32835,-7.55282 -0.816409,-8.73125 -0.210941,-0.50932 -0.668932,-2.12756 -1.017754,-3.59609 -0.778176,-3.276086 -1.061341,-4.042496 -1.775089,-4.80443 -0.939642,-1.003081 -0.08519,-0.660834 1.2213,0.489188 0.677633,0.596474 1.533226,1.598404 1.90132,2.226506 1.232334,2.102816 1.468813,1.903416 0.642332,-0.541642 -0.893787,-2.644172 -1.726502,-3.874714 -3.120094,-4.610719 l -0.977987,-0.516509 1.273524,-0.0117 c 1.229968,-0.0113 1.345507,0.05688 3.378173,1.993152 1.157558,1.102664 2.251345,1.956662 2.430643,1.897776 0.179295,-0.05889 0.359296,-0.514582 0.400002,-1.012658 0.05734,-0.701678 -0.282321,-1.530083 -1.508482,-3.679029 -1.681535,-2.947024 -2.1091,-4.360479 -1.604333,-5.303646 0.29269,-0.546897 0.339093,-0.511045 0.916067,0.707796 0.335539,0.708822 1.302565,1.936359 2.158998,2.740624 0.853183,0.801214 2.159293,2.030127 2.902471,2.730915 1.276477,1.203675 1.376336,1.249056 1.805072,0.820317 0.538218,-0.538218 0.475282,-0.881761 -0.781201,-4.264218 -1.783231,-4.800462 -1.730737,-7.416549 0.190643,-9.500999 1.012822,-1.098784 3.332221,-2.487555 4.154481,-2.487555 0.25438,0 0.0493,0.359046 -0.56664,0.992187 -0.53089,0.545703 -1.20728,1.527969 -1.50309,2.182813 -1.089053,2.410889 -0.58726,4.290223 2.11935,7.9375 2.32786,3.1369 2.87502,4.182472 3.07578,5.877581 0.14538,1.227492 0.19099,1.300165 0.52836,0.841801 0.29867,-0.405791 0.3344,-1.315561 0.18698,-4.760018 -0.10162,-2.374257 -0.0785,-4.443772 0.0523,-4.67744 0.15799,-0.282242 0.24351,0.114719 0.26188,1.215636 0.0163,0.976649 0.40723,3.019384 0.9711,5.074315 1.17517,4.28276 1.35136,5.389018 1.00386,6.303013 -0.24575,0.646387 -0.2259,0.696801 0.18731,0.475657 1.32137,-0.707176 2.04644,-2.683923 2.39061,-6.517465 l 0.21349,-2.377872 0.3583,1.190625 c 0.59024,1.961372 0.43992,5.360271 -0.3452,7.805209 -0.647,2.014819 -0.65236,2.078469 -0.11145,1.322909 0.31253,-0.43656 1.12311,-1.359289 1.80128,-2.050513 1.33155,-1.357181 2.32393,-1.616499 3.30858,-0.864569 0.48008,0.36661 0.45847,0.381916 -0.3311,0.234551 -1.55504,-0.290227 -2.49629,1.439526 -3.25831,5.987821 -0.86234,5.14716 -1.10827,7.05263 -1.2976,10.05417 -0.18503,2.93331 -0.29997,3.48769 -1.0164,4.90263 -2.25194,4.44746 -7.08411,6.76 -11.808096,5.65099 z m 6.318846,-1.91059 c 5.76585,-2.67278 7.09457,-10.35964 2.56013,-14.8107 -1.84512,-1.81119 -3.93261,-2.68043 -6.39659,-2.66358 -3.753077,0.0257 -6.843437,1.96399 -8.385336,5.25938 -0.64289,1.374 -0.742259,1.90775 -0.738867,3.96875 0.0046,2.8108 0.511103,4.17367 2.253546,6.06399 2.090248,2.26766 4.06047,3.09228 7.135247,2.98639 1.51273,-0.0521 2.36168,-0.24324 3.57187,-0.80423 z M 94.376603,106.18817 c -0.0021,-0.25466 -0.108495,-0.62794 -0.236146,-0.8295 -0.186156,-0.29394 -0.290087,-0.2581 -0.525114,0.18105 -0.427595,0.79897 -0.361201,1.11147 0.236144,1.11147 0.329123,0 0.527634,-0.17504 0.525116,-0.46302 z m 15.331287,-0.26459 c -0.0102,-0.25466 -0.10504,-0.68266 -0.21069,-0.9511 -0.17139,-0.43548 -0.22679,-0.41195 -0.51393,0.21826 -0.17701,0.38849 -0.25377,0.81649 -0.17057,0.95111 0.26225,0.42433 0.91461,0.26527 0.89519,-0.21827 z m -11.112501,-2.38125 c -0.01024,-0.25466 -0.105039,-0.68266 -0.21069,-0.9511 -0.171389,-0.43548 -0.226791,-0.41195 -0.513932,0.21826 -0.177009,0.38849 -0.253765,0.81649 -0.170569,0.95111 0.262252,0.42433 0.914612,0.26527 0.895191,-0.21827 z m 7.566401,-0.52862 c -0.1961,-0.78132 -0.33893,-1.01376 -0.51484,-0.83785 -0.0609,0.0609 -0.1929,0.43797 -0.29326,0.83785 -0.15794,0.62925 -0.10358,0.72706 0.40405,0.72706 0.50763,0 0.56198,-0.0978 0.40405,-0.72706 z m -3.89655,0.14498 c 0.44494,-0.44495 0.40088,-0.84578 -0.2625,-2.38785 l -0.57999,-1.348233 -0.43987,1.035703 c -0.77973,1.83595 -0.82416,2.14356 -0.3746,2.59312 0.50329,0.50329 1.21486,0.54935 1.65696,0.10726 z"
         id="path27"
         inkscape:connector-curvature="0" />
      <path
         style="fill:#625400;stroke-width:0.26458335"
         d="M 67.393026,175.04585 32.865535,140.5176 67.459553,105.92358 102.05357,71.329565 l 34.59402,34.594015 34.59402,34.59402 -34.5275,34.52825 c -18.99012,18.99054 -34.58736,34.52826 -34.66054,34.52826 -0.0732,0 -15.670424,-15.53772 -34.660544,-34.52826 z m 68.378254,-0.86018 33.58541,-33.66864 -33.58541,-33.66594 C 117.2993,88.334827 102.12633,73.184309 102.05357,73.183275 c -0.0728,-10e-4 -15.243813,15.148517 -33.713452,33.665665 l -33.581159,33.66755 33.581159,33.70436 c 18.469639,18.5374 33.640692,33.68841 33.713452,33.66891 0.0728,-0.0195 15.24573,-15.18633 33.71771,-33.70409 z m -45.183812,16.80856 c -0.558284,-0.14791 -1.409661,-0.66353 -1.891949,-1.14581 -0.927184,-0.92719 -1.670878,-2.67037 -1.288737,-3.02074 0.124849,-0.11447 0.96158,-0.28693 1.859404,-0.38325 1.542957,-0.16553 1.642539,-0.14192 1.817232,0.43092 0.293683,0.963 0.938419,1.53209 1.735739,1.53209 1.051308,0 1.561496,-0.86447 1.561496,-2.64583 0,-1.86533 -0.49966,-2.64584 -1.693788,-2.64584 -0.53236,0 -1.054841,0.20422 -1.346208,0.52617 -0.387215,0.42787 -0.679106,0.49484 -1.562362,0.35849 -0.5974,-0.0922 -1.332161,-0.2582 -1.632799,-0.36882 l -0.546619,-0.20113 0.593439,-4.19225 c 0.326393,-2.30574 0.602137,-4.22201 0.612765,-4.2584 0.01064,-0.0364 2.048825,-0.0661 4.529328,-0.0661 h 4.510005 l -0.07823,1.78594 -0.07824,1.78593 -2.9479,0.0746 c -2.79078,0.0706 -2.956285,0.10582 -3.10524,0.66146 -0.347477,1.29615 -0.232892,1.50924 0.646676,1.20262 0.446185,-0.15554 1.406279,-0.22562 2.133544,-0.15574 3.064084,0.29442 4.733814,3.84642 3.504335,7.45475 -0.993865,2.91683 -3.853468,4.19261 -7.331892,3.27103 z m 9.614022,-2.18992 v -2.24895 h 1.98437 1.98438 v 2.24895 2.24896 h -1.98438 -1.98437 z m 5.67626,1.26213 c 0.39979,-2.20449 1.37537,-3.71737 4.20285,-6.51757 3.00902,-2.97998 3.48865,-3.8794 2.70588,-5.07406 -0.28808,-0.43967 -0.6713,-0.6507 -1.18161,-0.6507 -0.85175,0 -1.29232,0.41706 -1.58921,1.50444 -0.20133,0.73735 -0.22087,0.74362 -2.03217,0.65186 -1.00588,-0.051 -1.87206,-0.13383 -1.92484,-0.18415 -0.2946,-0.28092 0.66873,-2.94782 1.34163,-3.71421 0.91078,-1.03732 2.09424,-1.42941 4.32066,-1.43147 3.14791,-0.003 5.14226,1.79337 5.13913,4.62873 -0.002,2.06415 -0.78718,3.43095 -3.3772,5.8809 l -2.30117,2.17672 2.98865,0.006 2.98865,0.006 -0.0782,1.78594 -0.0782,1.78594 -5.65285,0.0715 -5.65284,0.0715 0.18091,-0.99754 z M 91.470237,126.36265 v -0.92605 h 10.583333 10.58333 v 0.92605 0.92604 H 102.05357 91.470237 Z m 7.474656,-1.84722 c -2.068769,-0.58211 -3.434858,-1.36383 -4.841422,-2.77039 -2.17737,-2.17737 -3.365887,-5.40156 -3.062198,-8.3071 0.227383,-2.17549 -0.31473,-7.69087 -0.92714,-9.43259 -0.281418,-0.80036 -0.744566,-2.51341 -1.029216,-3.80677 -0.284649,-1.293353 -0.838144,-2.900697 -1.229987,-3.57187 l -0.712443,-1.220314 0.907103,0.689356 c 0.498908,0.379145 1.298702,1.212583 1.77732,1.852083 0.478618,0.639501 1.154911,1.519915 1.502875,1.956477 l 0.632664,0.793748 -0.541189,-1.852081 C 90.510717,95.729881 89.725878,94.56052 87.898362,93.597077 l -0.79375,-0.418452 1.009581,-0.01058 c 1.357548,-0.01423 1.864032,0.282884 3.929015,2.304963 1.947717,1.907249 2.602029,2.04021 2.602029,0.528753 0,-0.574815 -0.491826,-1.738704 -1.429028,-3.381742 -1.712865,-3.002878 -2.146001,-4.380122 -1.715902,-5.456054 l 0.301162,-0.7534 0.204554,0.713311 c 0.342757,1.195245 1.782257,2.964286 3.737163,4.592702 1.022051,0.85136 2.084089,1.834999 2.360083,2.185868 0.535477,0.680749 1.197266,0.635971 1.479733,-0.100126 0.08979,-0.234 -0.398164,-2.099154 -1.08435,-4.144788 -1.867934,-5.568624 -1.689595,-7.792832 0.800119,-9.97883 0.802439,-0.704548 2.950769,-1.867095 3.450309,-1.867095 0.0674,0 -0.31003,0.565547 -0.83865,1.256771 -2.642491,3.455327 -2.355037,5.576523 1.44316,10.649479 1.90935,2.550171 2.84534,4.690473 2.6038,5.954017 -0.0815,0.426193 -0.012,0.571965 0.22846,0.479676 0.60158,-0.230846 0.67949,-1.066983 0.48641,-5.220134 -0.12594,-2.708873 -0.0952,-4.215852 0.0927,-4.55016 0.22273,-0.396165 0.25284,-0.280312 0.14515,0.558476 -0.0939,0.731228 0.18832,2.325867 0.91303,5.159375 1.32766,5.19095 1.44282,5.870329 1.13315,6.68482 -0.22163,0.582922 -0.19016,0.648343 0.25573,0.531738 1.1512,-0.301048 1.98986,-2.613776 2.32906,-6.422808 l 0.20028,-2.248958 0.35387,1.190625 c 0.56986,1.917276 0.42976,4.852715 -0.34671,7.264693 -0.37277,1.157923 -0.63973,2.143343 -0.59325,2.189823 0.0465,0.0465 0.58702,-0.58106 1.2012,-1.394538 1.65362,-2.190208 3.43617,-3.086423 4.23187,-2.127668 0.25494,0.307184 0.21737,0.351285 -0.20514,0.240797 -0.81475,-0.213061 -1.63709,0.390975 -2.16884,1.593086 -0.69267,1.565913 -2.08762,9.969923 -2.34479,14.126463 -0.19565,3.16219 -0.29834,3.66972 -1.05236,5.20135 -2.17075,4.40943 -7.36694,6.85465 -11.872357,5.5869 z m 6.650097,-1.85326 c 7.17839,-3.63193 6.62427,-13.89938 -0.91677,-16.98732 -1.83873,-0.75293 -5.002312,-0.64557 -6.904325,0.23431 -2.000914,0.92563 -3.748908,2.58486 -4.644596,4.40875 -0.652659,1.32901 -0.733,1.78272 -0.732817,4.13849 1.83e-4,2.38258 0.07348,2.78493 0.73664,4.04393 1.205034,2.28771 3.28595,4.04497 5.745448,4.85183 0.363802,0.11935 1.68434,0.18469 2.93452,0.1452 1.89291,-0.0598 2.52541,-0.19946 3.7819,-0.83519 z m -11.218387,-16.474 c -0.0047,-0.5308 -0.434663,-1.30313 -0.621515,-1.11628 -0.06884,0.0688 -0.207287,0.45235 -0.307652,0.85224 -0.155821,0.62083 -0.100975,0.72706 0.375367,0.72706 0.356442,0 0.556387,-0.16717 0.5538,-0.46302 z m 15.345837,-0.39688 c -0.002,-0.32742 -0.11446,-0.76987 -0.2494,-0.98322 -0.19627,-0.31033 -0.30167,-0.23974 -0.52701,0.35293 -0.31166,0.81975 -0.17947,1.2256 0.3992,1.2256 0.22019,0 0.37954,-0.25149 0.37721,-0.59531 z m -11.112504,-2.38125 c -0.0021,-0.32742 -0.114456,-0.76987 -0.249394,-0.98322 -0.19627,-0.31033 -0.301675,-0.23974 -0.527007,0.35293 -0.311669,0.81975 -0.179478,1.2256 0.399192,1.2256 0.220192,0 0.379548,-0.25149 0.377209,-0.59531 z m 7.672914,-0.13229 c -0.002,-0.25466 -0.12129,-0.64161 -0.26458,-0.8599 -0.23159,-0.35277 -0.28948,-0.35277 -0.52107,0 -0.44208,0.67344 -0.31417,1.32292 0.26054,1.32292 0.32912,0 0.52763,-0.17504 0.52511,-0.46302 z m -4.01761,-0.11906 c 0.45445,-0.45446 0.39583,-1.02633 -0.25555,-2.49314 l -0.57304,-1.290404 -0.61418,1.322914 c -0.33779,0.72761 -0.61571,1.50747 -0.61758,1.73302 -0.005,0.57409 0.5303,1.04511 1.18722,1.04511 0.3056,0 0.6985,-0.14288 0.87313,-0.3175 z"
         id="path25"
         inkscape:connector-curvature="0" />
      <path
         style="fill:#010100;stroke-width:0.26458335"
         d="M 67.393026,175.04585 32.865535,140.5176 67.459553,105.92358 102.05357,71.329565 l 34.59402,34.594015 34.59402,34.59402 -34.5275,34.52825 c -18.99012,18.99054 -34.58736,34.52826 -34.66054,34.52826 -0.0732,0 -15.670424,-15.53772 -34.660544,-34.52826 z M 135.92037,174.2521 169.65409,140.5176 135.85383,106.71733 102.05357,72.917071 68.253308,106.71733 34.453047,140.5176 68.186774,174.2521 c 18.553549,18.55398 33.793606,33.73451 33.866796,33.73451 0.0732,0 15.31325,-15.18053 33.8668,-33.73451 z m -45.772915,16.50393 c -0.363728,-0.14504 -0.940861,-0.52445 -1.28252,-0.84313 -0.620668,-0.57893 -1.628032,-2.31247 -1.628032,-2.80163 0,-0.1424 0.565547,-0.33224 1.256771,-0.42185 0.691224,-0.0896 1.500034,-0.21207 1.79736,-0.27211 0.401603,-0.0811 0.614042,0.0855 0.826301,0.6478 0.157144,0.41632 0.605304,0.96634 0.995911,1.22228 0.683635,0.44793 0.736843,0.44556 1.422656,-0.0634 1.437667,-1.06691 1.422858,-3.86875 -0.02614,-4.9443 l -0.738589,-0.54824 -1.137939,0.60368 c -0.947081,0.50242 -1.366811,0.57331 -2.502553,0.42265 -1.010232,-0.13401 -1.363544,-0.29242 -1.36048,-0.60996 0.0024,-0.23591 0.240401,-2.09238 0.529167,-4.12547 0.288774,-2.0331 0.525036,-3.78927 0.525036,-3.90261 0,-0.11333 1.964532,-0.20606 4.365625,-0.20606 h 4.365625 v 1.71113 1.71112 l -2.976562,0.0748 -2.976563,0.0748 -0.08248,1.1475 c -0.079,1.09912 -0.0567,1.13816 0.529167,0.92604 1.185368,-0.42917 3.302503,-0.25764 4.098155,0.33204 2.985971,2.21298 2.755622,7.4184 -0.423074,9.56052 -0.741831,0.49993 -1.232707,0.59878 -2.904119,0.58484 -1.106268,-0.009 -2.30899,-0.13544 -2.672718,-0.28047 z m 10.054035,-2.08401 v -2.11666 h 1.98437 1.98438 v 2.11666 2.11667 h -1.98438 -1.98437 z m 5.86284,1.00249 c 0.43195,-1.9225 1.59182,-3.64936 4.11365,-6.12457 3.2269,-3.16724 3.6979,-4.38494 2.14334,-5.54121 -0.68181,-0.50711 -0.74246,-0.51026 -1.40966,-0.0731 -0.38345,0.25125 -0.81864,0.80519 -0.96707,1.23097 -0.24833,0.71238 -0.3681,0.77206 -1.50076,0.74779 -0.67699,-0.0145 -1.48344,-0.1038 -1.79212,-0.19844 -0.52922,-0.16225 -0.54325,-0.24227 -0.24597,-1.40274 0.70061,-2.73484 1.84044,-3.51028 5.17283,-3.51914 1.78062,-0.005 2.43183,0.10351 3.12713,0.51983 1.38049,0.82659 2.03062,2.10244 2.02066,3.9654 -0.0131,2.44206 -0.6536,3.47694 -4.09407,6.61459 l -1.45059,1.32291 2.84427,0.0751 2.84427,0.0751 v 1.71084 1.71084 h -5.52813 -5.52813 z M 91.470237,126.36265 v -0.92605 h 10.583333 10.58333 v 0.92605 0.92604 H 102.05357 91.470237 Z m 7.14375,-1.95323 c -2.858821,-0.93778 -5.071433,-2.80118 -6.389728,-5.38127 -0.838528,-1.64111 -0.85123,-1.72265 -1.043479,-6.6983 -0.214164,-5.5428 -0.330589,-6.50523 -1.022993,-8.45679 -0.258151,-0.7276 -0.675751,-2.27541 -0.928,-3.43958 -0.252248,-1.164168 -0.742997,-2.68939 -1.090557,-3.389382 l -0.631923,-1.272715 0.798722,0.568738 c 0.439296,0.312809 1.400649,1.460759 2.136338,2.551004 0.735688,1.090242 1.39981,1.920065 1.475828,1.844045 0.253518,-0.25352 -1.284296,-4.622231 -1.939811,-5.510736 -0.35541,-0.48173 -1.087872,-1.143267 -1.627696,-1.470081 l -0.981493,-0.594204 0.952489,-0.0013 c 1.113359,-0.0016 2.70886,1.044986 3.826047,2.509695 0.402612,0.527849 1.071214,1.135131 1.485784,1.349513 0.725456,0.375147 0.763831,0.363312 1.021773,-0.315124 0.353028,-0.928532 0.206907,-1.350899 -1.531943,-4.428154 -1.062,-1.879426 -1.505296,-2.963731 -1.595511,-3.902605 -0.06871,-0.715087 -0.02027,-1.30013 0.107632,-1.30013 0.127905,0 0.524121,0.54961 0.880483,1.221356 0.361823,0.682043 1.468411,1.937988 2.506028,2.844271 1.021953,0.892603 2.260457,2.031312 2.752227,2.530462 0.707586,0.718203 0.985063,0.850638 1.329976,0.634772 0.739275,-0.462677 0.629566,-1.426287 -0.522017,-4.585028 -0.962044,-2.638844 -1.112568,-3.343489 -1.134042,-5.308782 -0.02241,-2.052334 0.04408,-2.37031 0.705104,-3.371179 0.773565,-1.171275 2.040455,-2.131191 3.750125,-2.841457 l 1.0404,-0.432224 -0.84034,0.957094 c -0.98242,1.118915 -1.76182,2.57684 -2.02198,3.782247 -0.329283,1.525687 0.47302,3.467522 2.66387,6.447485 2.42809,3.302649 2.99896,4.465519 3.00663,6.124629 0.006,1.308901 0.23205,1.543698 0.81258,0.844203 0.39739,-0.478819 0.4432,-1.967526 0.19087,-6.202016 -0.13688,-2.296969 -0.12045,-2.660852 0.067,-1.484688 0.1366,0.856911 0.63127,2.880974 1.09926,4.497916 0.59468,2.05463 0.8551,3.517414 0.86483,4.857782 0.008,1.054839 0.0515,1.918042 0.0975,1.91823 1.22738,0.0051 2.68666,-3.399775 2.69864,-6.296534 0.007,-1.746067 0.45767,-1.875665 0.66801,-0.192193 0.25584,2.047648 0.003,4.405384 -0.69051,6.437731 -0.31312,0.917649 -0.49659,1.741159 -0.40771,1.830029 0.0889,0.0889 0.19614,0.11198 0.23839,0.0513 2.18765,-3.139915 3.52042,-4.182985 4.72704,-3.69953 l 0.6201,0.248459 -0.70408,0.01677 c -1.04766,0.02495 -1.93985,1.268338 -2.41889,3.371061 -1.06078,4.65616 -1.72909,9.36268 -1.85573,13.06874 -0.0742,2.17055 -0.20344,2.78222 -0.90474,4.28085 -1.09128,2.33203 -2.6538,3.97316 -4.77888,5.01934 -1.53509,0.75572 -2.01866,0.85976 -4.26577,0.91779 -1.39392,0.036 -2.832061,-0.0322 -3.195863,-0.15152 z m 6.638593,-1.51842 c 1.83477,-0.8234 3.96741,-2.94757 4.8155,-4.79638 0.45542,-0.99278 0.57743,-1.75831 0.58053,-3.64219 0.004,-2.16165 -0.0769,-2.54956 -0.85854,-4.13871 -1.00368,-2.04063 -2.43673,-3.43913 -4.52975,-4.42052 -1.26452,-0.59292 -1.84318,-0.69663 -3.86821,-0.6933 -2.905393,0.005 -4.232562,0.53044 -6.317349,2.50214 -2.821276,2.66825 -3.700034,6.54051 -2.301174,10.14018 0.646454,1.66352 2.70727,4.01699 4.18796,4.78268 2.631684,1.36089 5.636593,1.45734 8.291033,0.2661 z M 94.323768,106.58504 c 0.188949,-0.22933 0.169267,-0.57409 -0.06419,-1.12448 l -0.336682,-0.79375 -0.335071,0.71073 c -0.519745,1.10245 0.05097,2.03886 0.735941,1.2075 z m 15.461262,-0.99741 c -0.10921,-0.95509 -0.49284,-1.19558 -0.84816,-0.53167 -0.39041,0.72949 -0.1493,1.39964 0.45809,1.27321 0.31615,-0.0658 0.44034,-0.30189 0.39007,-0.74154 z M 98.734025,103.7606 c 0.0832,-0.13462 0.0069,-0.56166 -0.169597,-0.94898 -0.298453,-0.65503 -0.344895,-0.67137 -0.664822,-0.23384 -0.515913,0.70555 -0.430135,1.42757 0.169598,1.42757 0.282454,0 0.581623,-0.11014 0.664821,-0.24475 z m 7.424575,-0.0263 c 0.21396,-0.3462 -0.10777,-1.84564 -0.396,-1.84564 -0.40068,0 -0.77757,1.50271 -0.45723,1.82305 0.36592,0.36591 0.63661,0.37308 0.85323,0.0226 z m -4.08764,-0.26744 c 0.67875,-0.36325 0.65936,-1.44187 -0.0549,-3.05665 l -0.56671,-1.281133 -0.62392,1.413723 c -0.77523,1.75661 -0.78176,2.26363 -0.0359,2.78607 0.69772,0.48871 0.6381,0.48229 1.28143,0.13799 z"
         id="path23"
         inkscape:connector-curvature="0" />
    </g>
  </g>
</svg>
