<?xml version="1.0" encoding="UTF-8" standalone="no"?>
<!-- Created with Inkscape (http://www.inkscape.org/) -->

<svg
   xmlns:dc="http://purl.org/dc/elements/1.1/"
   xmlns:cc="http://creativecommons.org/ns#"
   xmlns:rdf="http://www.w3.org/1999/02/22-rdf-syntax-ns#"
   xmlns:svg="http://www.w3.org/2000/svg"
   xmlns="http://www.w3.org/2000/svg"
   xmlns:sodipodi="http://sodipodi.sourceforge.net/DTD/sodipodi-0.dtd"
   xmlns:inkscape="http://www.inkscape.org/namespaces/inkscape"
   width="270.93335mm"
   height="270.93332mm"
   viewBox="0 0 270.93335 270.93333"
   version="1.1"
   id="svg45"
   inkscape:version="0.92.4 (5da689c313, 2019-01-14)"
   sodipodi:docname="Class_3_Flammable_Solid.svg">
  <defs
     id="defs39" />
  <sodipodi:namedview
     id="base"
     pagecolor="#ffffff"
     bordercolor="#666666"
     borderopacity="1.0"
     inkscape:pageopacity="0.0"
     inkscape:pageshadow="2"
     inkscape:zoom="0.35"
     inkscape:cx="331.42858"
     inkscape:cy="309.4286"
     inkscape:document-units="mm"
     inkscape:current-layer="layer1"
     showgrid="false"
     inkscape:window-width="1920"
     inkscape:window-height="1017"
     inkscape:window-x="-8"
     inkscape:window-y="-8"
     inkscape:window-maximized="1" />
  <metadata
     id="metadata42">
    <rdf:RDF>
      <cc:Work
         rdf:about="">
        <dc:format>image/svg+xml</dc:format>
        <dc:type
           rdf:resource="http://purl.org/dc/dcmitype/StillImage" />
        <dc:title></dc:title>
      </cc:Work>
    </rdf:RDF>
  </metadata>
  <g
     inkscape:label="Layer 1"
     inkscape:groupmode="layer"
     id="layer1"
     transform="translate(-18.142855,40.230351)">
    <g
       id="g58"
       transform="matrix(1.7066667,0,0,1.7181208,-14.111113,-163.07498)">
      <path
         style="fill:#fefefe;stroke-width:0.26458335"
         d="M 18.898809,150.34525 V 71.499413 h 79.375 79.375001 v 78.845837 78.84583 h -79.375001 -79.375 z"
         id="path74"
         inkscape:connector-curvature="0" />
      <path
         style="fill:#f6d0cd;stroke-width:0.26458335"
         d="m 58.606237,189.75517 c -21.693565,-21.56118 -39.44225,-39.27866 -39.441522,-39.37218 0.0016,-0.20066 78.792647,-78.448896 79.11292,-78.567851 0.22515,-0.08362 79.107295,78.186211 79.105695,78.491651 -0.001,0.20121 -78.792733,78.4492 -79.114884,78.56897 -0.12065,0.0448 -17.968645,-17.55941 -39.662209,-39.12059 z m 74.328113,-4.88192 34.5275,-34.52826 -34.59402,-34.59401 -34.594021,-34.594022 -34.594017,34.594022 -34.594018,34.59401 34.527491,34.52826 c 18.99012,18.99053 34.587366,34.52825 34.660544,34.52825 0.07318,0 15.670421,-15.53772 34.660541,-34.52825 z m -68.527337,-0.79376 -33.733727,-33.7345 33.800261,-33.80026 33.800262,-33.800266 33.800261,33.800266 33.80026,33.80026 -33.73372,33.7345 C 113.58706,202.63347 98.346998,217.814 98.273809,217.814 c -0.07319,0 -15.313247,-15.18053 -33.866796,-33.73451 z m 38.005807,21.80988 c 1.80132,-0.872 2.60786,-2.26652 2.60786,-4.50899 0,-1.60653 -0.0767,-1.86799 -0.75659,-2.5776 -0.41613,-0.43435 -1.07078,-0.86857 -1.45477,-0.96495 l -0.69817,-0.17523 0.73457,-0.5351 c 2.10589,-1.53403 1.95466,-4.70088 -0.29076,-6.08863 -0.75635,-0.46745 -1.45753,-0.61173 -3.38188,-0.69589 -2.775778,-0.12141 -3.968604,0.1746 -5.254985,1.30406 -0.822632,0.72228 -1.678583,2.22919 -1.4156,2.49217 0.06641,0.0664 0.973336,0.28197 2.01539,0.479 1.845796,0.34902 1.898978,0.34398 2.062829,-0.19537 0.43207,-1.42228 2.037281,-1.96854 3.061324,-1.04179 1.067002,0.96562 0.107641,3.0017 -1.414349,3.0017 -0.693245,0 -0.74763,0.0754 -0.74763,1.03669 0,0.57018 -0.07227,1.22503 -0.160599,1.45521 -0.13312,0.34691 0.06357,0.41852 1.149617,0.41852 1.693723,0 2.318273,0.61953 2.318273,2.29964 0,0.97115 -0.13435,1.30132 -0.74236,1.82431 -1.260395,1.08415 -2.685002,0.67746 -3.363319,-0.96015 -0.302395,-0.73005 -0.437282,-0.80968 -1.160944,-0.68535 -0.450337,0.0774 -1.387904,0.22026 -2.083483,0.31755 -1.134255,0.15863 -1.247441,0.23505 -1.097476,0.74095 0.509646,1.71929 2.197934,3.19913 4.10863,3.60136 1.781993,0.37512 4.598462,0.11914 5.964422,-0.54211 z m 42.42766,-52.50141 V 137.64525 H 98.273809 51.707142 v 15.74271 15.74271 h 46.566667 46.566671 z m -33.07292,-18.25625 v -0.66146 H 98.406101 85.044642 v 0.66146 0.66145 H 98.406101 111.76756 Z M 94.76622,133.1251 c -0.64049,-0.373 -1.462852,-2.06524 -1.817172,-3.73934 -0.401074,-1.89501 -0.843724,-2.68459 -2.300041,-4.10274 -0.798066,-0.77715 -1.050491,-1.15274 -0.709573,-1.05578 0.291042,0.0828 1.261726,0.38283 2.157076,0.66679 l 1.627908,0.51629 -0.513273,-1.85221 c -0.587275,-2.11925 -1.127641,-3.27456 -1.612498,-3.44753 -0.184963,-0.066 -0.264041,-0.1986 -0.175729,-0.29471 0.355915,-0.38733 1.074023,0.23774 1.972699,1.71712 1.490486,2.4536 1.994178,1.80935 0.803307,-1.02749 -0.600694,-1.43094 -0.796888,-2.32873 -0.706546,-3.23317 0.0218,-0.21828 0.20928,-0.006 0.416616,0.47069 0.400727,0.92224 2.52132,3.76264 2.809118,3.76264 0.364686,0 0.411242,-1.06279 0.162925,-3.71937 -0.289057,-3.09245 -0.05025,-4.53763 0.938813,-5.68137 l 0.586251,-0.67792 0.02204,2.45964 c 0.02561,2.85956 1.126184,9.11982 1.455169,8.27732 0.112967,-0.2893 0.21443,-1.4785 0.22547,-2.64267 0.011,-1.16417 0.15875,-2.59292 0.32825,-3.175 l 0.30819,-1.05833 0.22827,1.19062 c 0.12554,0.65484 0.19455,2.70884 0.15336,4.56444 -0.0412,1.85559 -0.049,3.37364 -0.0173,3.37343 0.0317,-2e-4 0.36254,-0.98263 0.7352,-2.18318 0.37265,-1.20055 0.83817,-2.47129 1.03448,-2.82388 0.95058,-1.70729 0.67491,2.05327 -0.34762,4.74211 -0.30437,0.80036 -0.55346,1.49555 -0.55353,1.54487 -7e-5,0.0493 0.36056,-0.21384 0.80141,-0.58478 0.75593,-0.63608 2.49909,-1.18724 2.80077,-0.88556 0.0759,0.0759 -0.25705,0.65887 -0.73994,1.29542 -0.97379,1.28365 -1.80177,3.0432 -2.46791,5.24463 -0.24219,0.80037 -0.69791,1.73989 -1.01271,2.08783 l -0.57238,0.63263 0.79375,-0.18397 c 1.78787,-0.41437 4.26283,-1.80626 5.44191,-3.06047 1.54893,-1.64762 2.56588,-3.58982 3.95106,-7.54581 0.61144,-1.74625 1.52853,-3.97376 2.03797,-4.95002 1.01244,-1.94018 3.04853,-4.04197 4.35773,-4.49836 0.77497,-0.27015 0.79716,-0.3122 0.34092,-0.64581 -0.63596,-0.46503 -2.078,-0.45552 -2.97971,0.0196 -0.8647,0.45566 -3.12978,2.77239 -4.23311,4.32965 -0.44201,0.62385 -0.86705,1.03168 -0.94454,0.90629 -0.0775,-0.12539 0.20924,-1.31679 0.63719,-2.64756 0.97149,-3.02097 1.21236,-5.44817 0.78946,-7.95538 -0.17842,-1.05777 -0.36878,-1.87883 -0.42302,-1.82459 -0.0542,0.0543 -0.22912,1.26886 -0.3886,2.69913 -0.36399,3.26424 -1.06593,5.55078 -2.0049,6.53085 -0.82655,0.86274 -1.89553,1.07177 -1.51932,0.2971 0.4769,-0.98202 0.16218,-3.46904 -0.94585,-7.47448 -0.62397,-2.25558 -1.23334,-4.99401 -1.35416,-6.08542 -0.14652,-1.32361 -0.16498,-0.6188 -0.0555,2.11667 0.27464,6.85881 0.22021,7.4326 -0.75451,7.95425 -0.53719,0.2875 -0.5487,0.25648 -0.37461,-1.00935 0.28021,-2.03737 -0.28346,-4.36274 -2.10033,-8.6647 -0.92188,-2.182808 -1.822004,-4.637218 -2.000275,-5.45424 -0.334306,-1.532124 -0.242459,-5.743092 0.146497,-6.716589 0.493612,-1.235428 -1.244653,0.82763 -1.998511,2.371931 -0.924521,1.893906 -1.298538,4.223472 -1.318369,8.211398 -0.01654,3.32624 -0.491823,6.38976 -1.255112,8.09005 L 94.107979,109.46708 93.2523,107.615 c -1.358315,-2.94002 -1.844852,-4.5621 -2.13401,-7.11466 -0.148492,-1.310837 -0.317846,-2.431199 -0.376341,-2.489696 -0.05849,-0.05849 -0.238498,0.384395 -0.400007,0.984195 -0.180076,0.668747 -0.269095,3.109541 -0.230159,6.310561 0.05579,4.58645 0.0051,5.34096 -0.417367,6.21647 -0.264474,0.54805 -0.604948,1.07315 -0.75661,1.16688 -0.458507,0.28337 -1.423636,-1.10143 -2.023099,-2.90282 -0.655979,-1.97122 -1.70165,-3.69096 -2.928782,-4.81677 l -0.86519,-0.79375 0.157803,0.66624 c 0.08679,0.36643 0.517639,2.39049 0.957437,4.49791 0.439798,2.10743 1.031565,4.66341 1.315037,5.67996 0.28347,1.01656 0.465273,1.89841 0.404003,1.95968 -0.06127,0.0613 -1.213921,-0.95199 -2.561447,-2.2517 -2.248606,-2.16881 -4.169828,-3.75901 -4.169828,-3.45137 0,0.0689 0.427231,0.63663 0.949404,1.26163 1.38474,1.65743 2.642013,4.3274 3.565012,7.57074 0.446453,1.56879 1.387263,4.04297 2.09069,5.49818 1.915496,3.96265 3.929179,5.99615 7.153227,7.22361 1.581653,0.60216 2.601169,0.77062 1.784078,0.29478 z"
         id="path72"
         inkscape:connector-curvature="0" />
      <path
         style="fill:#f0afab;stroke-width:0.26458335"
         d="M 58.716537,189.79807 C 37.035068,168.27668 19.295684,150.5644 19.295684,150.43745 c 0,-0.30019 78.716359,-78.541162 79.018373,-78.541162 0.309394,0 79.105223,78.225722 79.011573,78.439902 -0.0994,0.22737 -78.804285,78.44006 -79.018999,78.52485 -0.09308,0.0368 -17.908625,-17.54158 -39.590094,-39.06297 z m 74.217813,-4.92482 34.5275,-34.52826 -34.59402,-34.59401 -34.594021,-34.594022 -34.594017,34.594022 -34.594018,34.59401 34.527491,34.52826 c 18.99012,18.99053 34.587366,34.52825 34.660544,34.52825 0.07318,0 15.670421,-15.53772 34.660541,-34.52825 z m -68.527337,-0.79376 -33.733727,-33.7345 33.800261,-33.80026 33.800262,-33.800266 33.800261,33.800266 33.80026,33.80026 -33.73372,33.7345 C 113.58706,202.63347 98.346998,217.814 98.273809,217.814 c -0.07319,0 -15.313247,-15.18053 -33.866796,-33.73451 z m 37.980607,21.88902 c 1.84264,-0.94042 2.76536,-2.46557 2.76536,-4.57086 0,-1.67617 -0.59691,-2.76061 -1.84871,-3.35866 l -0.93186,-0.4452 0.90188,-0.82651 c 0.7709,-0.70648 0.91731,-1.03458 1.00814,-2.25917 0.2076,-2.79911 -1.69089,-4.29215 -5.479454,-4.30923 -2.386285,-0.0108 -3.814234,0.41893 -4.943227,1.48749 -0.857956,0.81203 -1.602044,2.20805 -1.324715,2.48538 0.245247,0.24525 3.747492,0.85315 3.821596,0.66333 0.03696,-0.0947 0.303099,-0.55908 0.591423,-1.03202 0.428758,-0.70329 0.690851,-0.85989 1.439156,-0.85989 0.973537,0 1.738681,0.72981 1.738681,1.65839 0,0.70461 -1.192123,1.78119 -1.972347,1.78119 -0.391555,0 -0.673484,0.15068 -0.673484,0.35995 0,0.19797 -0.07316,0.89372 -0.162584,1.54612 l -0.162584,1.18617 0.820656,-0.12044 c 1.37627,-0.202 2.149613,0.13683 2.561333,1.12221 0.4842,1.15886 0.23747,2.38833 -0.613651,3.05782 -1.200562,0.94437 -2.506863,0.53734 -3.140196,-0.97843 l -0.387644,-0.92777 -1.375894,0.16931 c -3.202451,0.39408 -3.199887,0.39158 -2.180487,2.13105 1.182063,2.01704 3.108172,2.82469 6.373609,2.67259 1.454153,-0.0677 2.461003,-0.26842 3.175003,-0.63282 z m 42.45286,-52.58055 V 137.64525 H 98.273809 51.707142 v 15.74271 15.74271 H 98.273809 144.84048 Z M 111.76756,135.264 v -0.79375 H 98.406101 85.044642 v 0.79375 0.79375 h 13.361459 13.361459 z m -17.340809,-2.54999 c -0.355737,-0.38384 -0.839832,-1.36611 -1.075769,-2.18281 -0.861531,-2.9822 -1.223682,-3.74459 -2.400567,-5.05357 -0.986044,-1.09671 -1.084882,-1.29083 -0.554593,-1.08922 0.354912,0.13494 1.246714,0.42394 1.981782,0.64223 1.325065,0.39351 1.335376,0.39201 1.206145,-0.17498 -0.390803,-1.7146 -0.921205,-3.26724 -1.384204,-4.05197 -0.741807,-1.25727 -0.151683,-1.10141 0.718965,0.18989 0.398801,0.59147 0.989219,1.39514 1.312042,1.78593 l 0.586952,0.71053 0.0084,-0.72156 c 0.0046,-0.39687 -0.289296,-1.51237 -0.653098,-2.4789 -0.363802,-0.96654 -0.661458,-2.12372 -0.661458,-2.57153 0,-0.77852 0.02925,-0.75685 0.667451,0.49452 0.367096,0.7198 1.081725,1.78497 1.588064,2.36705 1.238747,1.42406 1.524997,1.00106 1.253323,-1.85208 -0.278635,-2.92626 -0.169656,-4.9915 0.3126,-5.92408 0.720283,-1.39288 0.941062,-1.22945 0.941062,0.6966 0,0.99836 0.297151,3.47594 0.660334,5.50572 0.363183,2.02978 0.669208,3.75004 0.680053,3.8228 0.01085,0.0728 0.122047,-0.10583 0.247113,-0.39687 0.125066,-0.29105 0.235762,-1.45871 0.245982,-2.59482 0.0102,-1.13611 0.16623,-2.62439 0.34666,-3.30729 l 0.32805,-1.24164 0.1724,1.5875 c 0.27289,2.51288 0.25448,6.38298 -0.034,7.14164 -0.1479,0.38902 -0.15709,0.62787 -0.0209,0.54371 0.13358,-0.0825 0.61135,-1.25022 1.06171,-2.59481 1.11806,-3.33799 1.33191,-3.60344 1.33004,-1.65096 -0.001,1.38943 -0.46724,3.1666 -1.4359,5.47724 -0.1038,0.24759 0.247,0.0392 0.77954,-0.46302 0.78086,-0.73644 1.17902,-0.91318 2.05725,-0.91318 h 1.08899 l -0.66884,0.7276 c -1.05644,1.14924 -1.72157,2.41931 -2.46017,4.69765 -0.37717,1.16346 -0.93388,2.45503 -1.23714,2.87016 l -0.55137,0.75478 0.88791,-0.17704 c 1.68042,-0.33503 4.1004,-1.70546 5.32675,-3.01654 1.48375,-1.58625 2.47815,-3.52086 4.06344,-7.90549 2.01777,-5.5808 3.14917,-7.32018 5.7145,-8.7853 0.96683,-0.55218 1.19495,-0.79539 0.93857,-1.00068 -1.56239,-1.25108 -4.13569,0.09 -6.68869,3.48571 -1.59244,2.11812 -1.78904,1.79293 -0.75354,-1.24642 0.62704,-1.84045 0.74241,-2.60936 0.74375,-4.95651 0.001,-1.69357 -0.14708,-3.24294 -0.37919,-3.96875 l -0.38077,-1.19063 -0.18351,2.64584 c -0.29195,4.20937 -1.08444,6.72742 -2.40936,7.65543 -0.89647,0.62791 -1.35973,0.55173 -0.97835,-0.16087 0.47217,-0.88226 0.12179,-3.33404 -1.08994,-7.62686 -0.61541,-2.18019 -1.15404,-4.75026 -1.24765,-5.95312 -0.15307,-1.966864 -0.18042,-2.043267 -0.3863,-1.07956 -0.12709,0.59483 -0.10653,2.15821 0.0482,3.66605 0.39796,3.87799 0.34865,6.3113 -0.14209,7.01193 -0.66625,0.9512 -0.86983,0.687 -0.72252,-0.93762 0.18144,-2.00098 -0.36516,-4.0822 -2.18214,-8.30858 -0.7932,-1.845035 -1.621633,-4.043541 -1.840951,-4.885567 -0.500687,-1.922266 -0.511749,-4.835274 -0.02553,-6.719932 l 0.373247,-1.446723 -0.902824,1.058334 c -1.905831,2.234105 -2.741872,5.132492 -2.749492,9.53194 -0.0026,1.459028 -0.128397,3.640118 -0.27971,4.846878 -0.265094,2.11416 -1.159264,5.07343 -1.529831,5.06301 -0.223517,-0.006 -1.859605,-3.68154 -2.353411,-5.28662 -0.201464,-0.65484 -0.458409,-2.32172 -0.570992,-3.70417 l -0.204692,-2.513538 -0.494821,1.058333 c -0.44005,0.941189 -0.487836,1.654105 -0.431721,6.440785 0.05892,5.02564 0.02569,5.45975 -0.501343,6.54844 -0.310443,0.64129 -0.664778,1.16598 -0.787408,1.16598 -0.378608,0 -1.215146,-1.38141 -1.809922,-2.98879 -0.312107,-0.84347 -0.795117,-1.97457 -1.073353,-2.51354 -0.526791,-1.02048 -2.667376,-3.27125 -2.667376,-2.80469 0,0.59283 2.157942,10.20957 2.523405,11.24539 0.215964,0.61211 0.339154,1.16644 0.273757,1.23184 -0.0654,0.0654 -1.416638,-1.11404 -3.002751,-2.62096 -1.586111,-1.50693 -3.290049,-2.96488 -3.786521,-3.23989 l -0.902682,-0.50002 1.108335,1.16148 c 1.671931,1.7521 2.925029,4.04445 3.816818,6.98231 1.971916,6.49616 3.49867,9.51612 5.971516,11.8118 1.424744,1.32267 2.514224,1.9742 4.184581,2.50247 1.577129,0.49878 1.760583,0.44138 1.047734,-0.3278 z"
         id="path70"
         inkscape:connector-curvature="0" />
      <path
         style="fill:#eb938c;stroke-width:0.26458335"
         d="M 58.636252,189.67078 19.133474,150.47754 53.610412,116.14714 C 72.572729,97.265417 90.409636,79.568934 93.247985,76.821622 l 5.160634,-4.995114 39.502511,39.193222 39.50252,39.19323 -34.74128,34.59475 c -19.1077,19.02711 -36.94449,36.7236 -39.6373,39.32553 l -4.896042,4.73078 z m 74.298098,-4.79753 34.5275,-34.52826 -34.59402,-34.59401 -34.594021,-34.594022 -34.594017,34.594022 -34.594018,34.59401 34.527491,34.52826 c 18.99012,18.99053 34.587366,34.52825 34.660544,34.52825 0.07318,0 15.670421,-15.53772 34.660541,-34.52825 z m -68.527337,-0.79376 -33.733727,-33.7345 33.800261,-33.80026 33.800262,-33.800266 33.800261,33.800266 33.80026,33.80026 -33.73372,33.7345 C 113.58706,202.63347 98.346998,217.814 98.273809,217.814 c -0.07319,0 -15.313247,-15.18053 -33.866796,-33.73451 z m 37.967107,21.92911 c 0.56698,-0.29423 1.38904,-0.9775 1.8268,-1.51838 0.65345,-0.80735 0.81496,-1.28211 0.90218,-2.65198 0.12976,-2.03771 -0.36934,-3.16878 -1.67245,-3.79019 l -0.90466,-0.4314 0.91662,-1.01459 c 0.78027,-0.86366 0.91662,-1.20544 0.91662,-2.29761 0,-1.58589 -0.76661,-2.8162 -2.2232,-3.56798 -0.80564,-0.41581 -1.56155,-0.53551 -3.439581,-0.54469 -3.492256,-0.0171 -5.060572,0.83157 -6.157375,3.33188 l -0.31268,0.71279 1.502355,0.28982 c 0.826294,0.15939 1.775211,0.34817 2.108705,0.4195 0.490157,0.10483 0.660271,-0.025 0.887725,-0.67746 0.669237,-1.91977 3.400711,-1.6521 3.400711,0.33325 0,0.69092 -1.186093,1.78119 -1.937727,1.78119 -0.532701,0 -0.66612,0.16488 -0.802865,0.99219 -0.325926,1.97185 -0.28082,2.07509 0.8592,1.96637 1.380723,-0.13168 2.068332,0.28988 2.393452,1.46737 0.21797,0.78943 0.18161,1.15924 -0.18686,1.90071 -0.871038,1.75275 -3.090289,1.62909 -3.62869,-0.2022 l -0.260784,-0.88702 -1.591299,0.17562 c -3.088751,0.34087 -3.153857,0.4036 -2.18226,2.10271 1.180777,2.06492 2.988771,2.84864 6.292869,2.72781 1.629194,-0.0596 2.550824,-0.23245 3.293194,-0.61771 z m 42.46636,-52.62064 V 137.64525 H 98.273809 51.707142 v 15.74271 15.74271 H 98.273809 144.84048 Z M 111.76756,135.264 v -0.79375 H 98.406101 85.044642 v 0.79375 0.79375 h 13.361459 13.361459 z m -8.87221,-2.29841 c 3.87749,-1.34651 5.93625,-3.95431 8.21168,-10.40159 1.92791,-5.46262 3.39108,-7.73627 5.80137,-9.01493 0.66504,-0.3528 1.20916,-0.71651 1.20916,-0.80825 0,-0.37377 -1.59874,-0.79973 -2.3677,-0.63084 -1.19003,0.26137 -3.2121,1.96982 -4.68205,3.95585 -0.70655,0.9546 -1.32188,1.62389 -1.36741,1.4873 -0.0455,-0.13659 0.24462,-1.23791 0.64477,-2.44738 0.61823,-1.86859 0.7297,-2.65627 0.7418,-5.24175 0.009,-1.96023 -0.12147,-3.46629 -0.36722,-4.23334 l -0.38145,-1.19062 -0.19002,2.85867 c -0.23169,3.48573 -1.03234,6.31595 -2.08435,7.36796 -0.93531,0.93531 -1.76568,1.05071 -1.30005,0.18068 0.48472,-0.9057 0.13905,-3.4157 -1.0819,-7.8561 -0.61451,-2.23485 -1.19778,-4.91376 -1.29615,-5.95312 l -0.17887,-1.889758 -0.19393,1.190628 c -0.10667,0.65484 -0.0745,2.32172 0.0715,3.70416 0.39687,3.75747 0.34922,6.12581 -0.13722,6.8203 -0.65006,0.92809 -0.82057,0.70246 -0.70535,-0.93332 0.14801,-2.10118 -0.44633,-4.39067 -2.15951,-8.31868 -0.80367,-1.842693 -1.645342,-4.060874 -1.870371,-4.929287 -0.517837,-1.998396 -0.524478,-4.874718 -0.01513,-6.55373 0.496147,-1.635506 0.500005,-1.603867 -0.126404,-1.036974 -0.843929,0.763743 -2.135905,2.930975 -2.561781,4.297263 -0.237284,0.761251 -0.485735,3.224247 -0.626367,6.209371 -0.226274,4.803057 -0.654322,7.442697 -1.449096,8.936097 -0.350586,0.65875 -0.369443,0.63873 -1.31463,-1.39582 -1.253257,-2.69769 -1.988648,-5.63864 -1.988648,-7.952956 0,-1.983245 -0.226542,-2.066284 -0.822907,-0.301635 -0.260437,0.770644 -0.343323,2.460821 -0.304909,6.217711 0.05478,5.35747 -0.136009,6.67656 -1.047879,7.24482 -0.614159,0.38274 -1.02797,-0.19326 -2.06392,-2.87284 -0.448725,-1.16067 -1.115276,-2.50285 -1.481222,-2.98263 -0.777533,-1.0194 -2.01618,-2.2072 -2.155941,-2.06744 -0.153593,0.1536 1.812991,9.38517 2.3413,10.99057 0.262253,0.79692 0.430015,1.49576 0.372801,1.55297 -0.05721,0.0572 -1.394455,-1.1306 -2.971652,-2.63957 -1.5772,-1.50897 -3.279457,-2.97567 -3.782798,-3.25931 -0.879946,-0.49588 -0.86238,-0.45641 0.456517,1.0255 1.710997,1.92248 3.001592,4.53972 4.070943,8.25559 1.49855,5.2073 3.671684,9.05566 6.134566,10.86358 1.356593,0.99583 3.94689,2.18212 4.788238,2.19289 0.416698,0.005 0.370854,-0.12991 -0.304932,-0.89959 -0.556556,-0.63388 -0.925989,-1.48018 -1.230418,-2.81865 -0.527889,-2.32095 -0.699342,-2.65603 -2.155696,-4.21299 l -1.14437,-1.22342 1.883534,0.61404 c 1.035944,0.33773 1.922637,0.57495 1.970426,0.52716 0.209421,-0.20942 -1.038547,-4.09116 -1.536496,-4.77918 -0.355536,-0.49125 -0.421875,-0.721 -0.187433,-0.64915 0.19958,0.0612 0.839123,0.84648 1.421206,1.74514 0.582084,0.89866 1.147631,1.63726 1.256771,1.64134 0.416401,0.0156 0.171458,-1.66013 -0.463021,-3.16758 -0.363802,-0.86436 -0.656714,-1.90257 -0.650914,-2.30713 0.01048,-0.73181 0.01294,-0.73078 0.479266,0.20126 0.257797,0.51526 0.955987,1.55328 1.551535,2.3067 0.915271,1.15791 1.132708,1.30974 1.405303,0.98128 0.249999,-0.30123 0.256534,-1.01397 0.02907,-3.17056 -0.326798,-3.09835 -0.08486,-4.98717 0.770088,-6.01216 0.497864,-0.59688 0.499113,-0.59339 0.507894,1.41682 0.0048,1.10834 0.306459,3.59479 0.670261,5.52545 0.363802,1.93066 0.663282,3.58368 0.665509,3.67338 0.0021,0.0897 0.119468,-0.0155 0.260533,-0.23379 0.141064,-0.21828 0.258974,-1.40891 0.262014,-2.64584 0.003,-1.23692 0.14875,-2.7252 0.3238,-3.30729 l 0.31828,-1.05833 0.1807,1.5875 c 0.28579,2.51084 0.26409,6.11415 -0.0417,6.92809 -0.24452,0.65078 -0.23187,0.69472 0.10018,0.34795 0.20902,-0.21828 0.70678,-1.4407 1.10615,-2.71648 0.39937,-1.27579 0.83055,-2.38414 0.95816,-2.46301 0.52396,-0.32382 0.17886,2.53314 -0.56172,4.65032 -0.91362,2.61189 -0.92986,2.69332 -0.38081,1.90945 0.52444,-0.74875 1.73641,-1.38028 2.6489,-1.38028 0.68401,0 0.69297,0.0193 0.27708,0.59531 -1.05644,1.46328 -1.99629,3.28252 -2.40681,4.65879 -0.75742,2.53923 -0.99539,2.99408 -1.83706,3.51119 l -0.814842,0.50063 0.926042,-0.17595 c 0.50933,-0.0968 1.39839,-0.33998 1.97571,-0.54046 z"
         id="path68"
         inkscape:connector-curvature="0" />
      <path
         style="fill:#e9867e;stroke-width:0.26458335"
         d="M 58.636932,189.67096 19.135265,150.47754 53.611309,116.14739 C 72.573131,97.265807 90.409726,79.569238 93.248186,76.821681 l 5.160833,-4.995559 39.501671,39.193418 39.50166,39.19342 -34.47604,34.33015 c -18.96182,18.88158 -36.79842,36.57815 -39.63688,39.3257 l -5.160831,4.99556 z m 74.297418,-4.79771 34.5275,-34.52826 -34.59402,-34.59401 -34.594021,-34.594022 -34.594017,34.594022 -34.594018,34.59401 34.527491,34.52826 c 18.99012,18.99053 34.587366,34.52825 34.660544,34.52825 0.07318,0 15.670421,-15.53772 34.660541,-34.52825 z m -68.527332,-0.79479 -33.731666,-33.73554 33.799227,-33.79923 33.79923,-33.799226 33.800261,33.800266 33.80026,33.80026 -33.73372,33.7345 C 113.58706,202.63347 98.346535,217.814 98.27278,217.814 c -0.07375,0 -15.313348,-15.18099 -33.865762,-33.73554 z m 37.338272,22.21491 c 3.88088,-1.36925 4.91478,-6.93171 1.54763,-8.32642 l -0.81545,-0.33777 0.80093,-0.82635 c 1.6707,-1.72372 1.63367,-3.88088 -0.0926,-5.3966 -2.216,-1.94567 -7.413448,-1.76477 -9.509189,0.33097 -1.147606,1.1476 -1.644973,2.44848 -1.007179,2.6343 0.489979,0.14276 3.47639,0.68833 3.767844,0.68833 0.100605,0 0.254617,-0.3585 0.342252,-0.79667 0.29982,-1.4991 2.561005,-1.76377 3.093902,-0.36215 0.38192,1.00452 -0.193381,2.00587 -1.335008,2.3237 -1.17462,0.32701 -1.313905,0.54362 -1.318866,2.05109 l -0.004,1.2316 1.068843,-0.14337 c 1.499023,-0.20106 2.370741,0.61678 2.370741,2.22421 0,1.43789 -0.682527,2.20284 -1.965476,2.20284 -1.016524,0 -1.65576,-0.5035 -1.906233,-1.50145 -0.167174,-0.66608 -0.182229,-0.66942 -2.18321,-0.48403 -2.675855,0.24792 -2.742242,0.2975 -2.127181,1.58861 0.641771,1.34717 2.121358,2.66058 3.372282,2.99353 1.534263,0.40836 4.614818,0.35908 5.900048,-0.0944 z m 43.09519,-52.77312 v -15.875 H 98.273809 51.707142 v 15.875 15.875 H 98.273809 144.84048 Z M 111.76756,135.264 v -0.79375 H 98.406101 85.044642 v 0.79375 0.79375 h 13.361459 13.361459 z m -13.163022,-1.50964 c -0.327422,-0.0631 -0.863203,-0.0631 -1.190625,0 -0.327422,0.0631 -0.05953,0.11466 0.595313,0.11466 0.654843,0 0.922734,-0.0516 0.595312,-0.11466 z m -3.16979,-0.47013 c -0.972881,-0.42294 -1.807808,-1.6327 -2.194436,-3.17961 -0.653973,-2.61656 -0.863663,-3.07037 -2.005549,-4.34042 -0.666642,-0.74147 -1.156478,-1.34812 -1.088531,-1.34812 0.06795,0 0.584999,0.16045 1.148998,0.35655 0.563999,0.19611 1.350219,0.43583 1.747155,0.53273 0.696146,0.16994 0.715746,0.1456 0.55349,-0.68728 -0.288041,-1.47854 -1.127204,-3.71486 -1.582941,-4.21845 -0.239646,-0.26481 -0.316661,-0.48147 -0.171141,-0.48147 0.359045,0 0.911543,0.68206 1.768195,2.18282 0.394557,0.69122 0.831421,1.25677 0.970807,1.25677 0.452979,0 0.268377,-1.48479 -0.408028,-3.28183 -0.363802,-0.96654 -0.653912,-2.02251 -0.644686,-2.34661 l 0.01677,-0.58927 0.246866,0.6158 c 0.135777,0.33869 0.808199,1.37421 1.494274,2.30116 1.776849,2.40068 1.98133,2.11155 1.761625,-2.49087 -0.165258,-3.4619 -0.146838,-3.65424 0.45915,-4.79446 l 0.631315,-1.18788 0.161411,2.77812 c 0.136274,2.34543 0.793684,6.78358 1.214956,8.20209 0.262748,0.88473 0.546732,-0.45644 0.679892,-3.21096 0.0748,-1.54774 0.25247,-3.02212 0.39477,-3.27639 0.37948,-0.67809 0.70795,6.01854 0.36868,7.51639 -0.42904,1.89416 0.31048,0.78303 1.1251,-1.6905 0.98804,-3.00007 1.29401,-3.31869 1.12131,-1.16769 -0.0769,0.9585 -0.44542,2.55438 -0.81881,3.54638 -0.66056,1.75495 -0.74859,2.58964 -0.15643,1.48317 0.36483,-0.68169 1.61407,-1.34832 2.52671,-1.34832 h 0.68731 l -0.77026,1.12448 c -1.07349,1.56717 -1.79138,3.03939 -2.16177,4.43326 -0.52548,1.97752 -1.10031,2.94974 -1.96727,3.32724 -1.130956,0.49245 -0.27824,0.46254 1.45241,-0.0509 2.24292,-0.66548 3.72548,-1.52699 5.0327,-2.92452 1.69896,-1.81633 2.45923,-3.23229 3.95485,-7.36571 2.20078,-6.08225 3.64796,-8.29153 6.23571,-9.51949 1.10831,-0.52593 1.12688,-0.77165 0.0907,-1.20083 -1.69447,-0.70187 -4.31297,0.95979 -6.48724,4.11672 -0.56387,0.81872 -1.06809,1.35998 -1.12048,1.20279 -0.0524,-0.15718 0.242,-1.26827 0.65422,-2.46908 0.65292,-1.90197 0.74949,-2.57536 0.74949,-5.226 0,-1.93221 -0.13988,-3.47726 -0.38325,-4.23334 l -0.38326,-1.19062 -0.19252,2.69543 c -0.30622,4.28732 -1.2944,7.31458 -2.6191,8.02354 -0.80111,0.42874 -1.1086,0.33206 -0.7968,-0.25054 0.52745,-0.98555 0.26398,-3.12406 -0.92045,-7.47105 -0.65688,-2.41084 -1.29059,-5.26213 -1.40823,-6.3362 -0.2071,-1.890682 -0.22085,-1.91968 -0.43195,-0.91093 -0.12697,0.60675 -0.0901,2.3748 0.0884,4.23333 0.41056,4.2766 0.38538,5.73037 -0.11155,6.43984 -0.6497,0.92757 -0.78504,0.71079 -0.6911,-1.10698 0.11356,-2.19746 -0.39623,-4.1303 -2.18963,-8.30184 -1.946187,-4.526936 -2.36897,-6.255996 -2.182126,-8.924251 0.08165,-1.166036 0.278638,-2.46247 0.437747,-2.880965 0.459952,-1.209763 0.137459,-1.097894 -1.006305,0.349078 -1.768364,2.237148 -2.170219,3.717139 -2.448499,9.017578 -0.278096,5.2969 -0.576763,7.43572 -1.263701,9.04959 l -0.483901,1.13687 -0.975001,-2.10787 c -1.313082,-2.83878 -1.725697,-4.36534 -1.976212,-7.311433 l -0.211471,-2.486948 -0.508392,1.058333 c -0.452834,0.942676 -0.508442,1.679988 -0.508854,6.746878 -2.65e-4,4.54259 -0.08082,5.84779 -0.399354,6.47905 -0.797915,1.5813 -1.601859,0.92407 -2.662603,-2.17671 -0.626518,-1.83144 -2.04207,-3.96595 -3.195807,-4.81894 -0.62493,-0.46204 -0.799177,-0.51151 -0.676616,-0.19212 0.09079,0.23659 0.593053,2.46707 1.116142,4.95662 0.523092,2.48956 1.170392,5.23114 1.43845,6.09241 0.268057,0.86126 0.431188,1.56594 0.362518,1.56594 -0.06867,0 -1.410739,-1.23952 -2.982372,-2.75448 -1.571633,-1.51496 -3.255127,-2.96009 -3.741098,-3.2114 -0.866055,-0.44785 -0.858483,-0.429 0.381762,0.95045 1.559732,1.73481 3.328803,5.36572 4.248391,8.71959 1.913126,6.97745 5.375212,11.25546 10.181249,12.58071 1.701932,0.4693 2.512044,0.46453 1.424186,-0.008 z"
         id="path66"
         inkscape:connector-curvature="0" />
      <path
         style="fill:#e6776f;stroke-width:0.26458335"
         d="M 58.636932,189.67096 19.135265,150.47754 53.611309,116.14739 C 72.573131,97.265807 90.409511,79.569445 93.247707,76.822141 l 5.160357,-4.995099 39.502166,39.192958 39.50217,39.19296 -34.47606,34.33015 c -18.96184,18.88158 -36.79845,36.57815 -39.63691,39.3257 l -5.160831,4.99556 z m 74.297418,-4.79771 34.5275,-34.52826 -34.59402,-34.59401 -34.594021,-34.594022 -34.594017,34.594022 -34.594018,34.59401 34.527491,34.52826 c 18.99012,18.99053 34.587366,34.52825 34.660544,34.52825 0.07318,0 15.670421,-15.53772 34.660541,-34.52825 z m -68.527332,-0.79479 -33.731666,-33.73554 33.799227,-33.79923 33.79923,-33.799226 33.800261,33.800266 33.80026,33.80026 -33.73372,33.7345 C 113.58706,202.63347 98.346535,217.814 98.27278,217.814 c -0.07375,0 -15.313348,-15.18099 -33.865762,-33.73554 z m 37.173212,22.32652 c 1.43693,-0.39891 3.16722,-2.16622 3.56418,-3.64043 0.58022,-2.15478 -0.17022,-4.1012 -1.84938,-4.79673 l -0.81756,-0.33864 0.80093,-0.82635 c 2.40329,-2.47957 1.12893,-5.75399 -2.53544,-6.51471 -3.176181,-0.65938 -6.397007,0.20473 -7.590191,2.03635 -1.175117,1.80388 -1.088771,2.00506 1.019998,2.37656 2.516802,0.44339 2.427478,0.45839 2.606731,-0.43787 0.296532,-1.48267 2.560328,-1.76556 3.08502,-0.38552 0.435882,1.14646 -0.633494,2.50511 -1.971725,2.50511 -0.473935,0 -0.677317,0.5948 -0.677317,1.98084 v 1.14381 l 0.992187,-0.13231 c 1.504651,-0.20065 2.447397,0.6415 2.447397,2.18624 0,1.4663 -0.672969,2.22975 -1.965477,2.22975 -1.016524,0 -1.65576,-0.5035 -1.906233,-1.50145 -0.167174,-0.66608 -0.182229,-0.66942 -2.183209,-0.48403 -2.710061,0.25109 -2.785311,0.30811 -2.13672,1.61904 0.691148,1.39693 1.735019,2.37723 3.040142,2.85502 1.26406,0.46275 4.612457,0.53181 6.076667,0.12532 z m 43.26025,-52.88473 v -15.875 H 98.273809 51.707142 v 15.875 15.875 H 98.273809 144.84048 Z M 111.76756,135.264 v -0.79375 H 98.406101 85.044642 v 0.79375 0.79375 h 13.361459 13.361459 z m -13.163022,-1.50964 c -0.327422,-0.0631 -0.863203,-0.0631 -1.190625,0 -0.327422,0.0631 -0.05953,0.11466 0.595313,0.11466 0.654843,0 0.922734,-0.0516 0.595312,-0.11466 z m -2.893772,-0.36956 c -1.395576,-0.40377 -1.907376,-1.3016 -2.982343,-5.23179 -0.198081,-0.72421 -0.779666,-1.65811 -1.55284,-2.49353 -0.75842,-0.81947 -1.031645,-1.25524 -0.706982,-1.12757 0.883433,0.34739 3.144469,0.92894 3.240058,0.83335 0.226782,-0.22678 -0.865346,-3.72575 -1.416346,-4.53769 -0.339426,-0.50017 -0.520118,-0.90941 -0.401537,-0.90941 0.311502,0 0.899065,0.74601 1.719212,2.18282 0.394557,0.69122 0.831421,1.25677 0.970807,1.25677 0.452979,0 0.268377,-1.48479 -0.408028,-3.28183 -0.363802,-0.96654 -0.653912,-2.02251 -0.644686,-2.34661 l 0.01677,-0.58927 0.246866,0.6158 c 0.135777,0.33869 0.808199,1.37421 1.494274,2.30116 1.776849,2.40068 1.98133,2.11155 1.761625,-2.49087 -0.165258,-3.4619 -0.146838,-3.65424 0.45915,-4.79446 l 0.631309,-1.18788 0.163272,2.77812 c 0.140687,2.39385 0.811041,6.9717 1.199981,8.19467 0.272674,0.85739 0.616502,-0.41412 0.620502,-2.29466 0.002,-1.04787 0.14901,-2.53615 0.32618,-3.3073 l 0.32213,-1.40208 0.23218,3.29131 c 0.14453,2.04884 0.13545,3.78054 -0.0241,4.58728 -0.38561,1.95028 0.2474,1.0743 1.10464,-1.52859 0.3834,-1.16417 0.82359,-2.29526 0.97819,-2.51354 0.50117,-0.7076 0.0793,2.64921 -0.5486,4.36562 -0.93359,2.55186 -0.95878,2.76331 -0.23155,1.94316 0.77427,-0.87318 1.56765,-1.2817 2.48918,-1.2817 h 0.71027 l -0.65534,0.8599 c -0.90667,1.1897 -1.9389,3.28585 -2.31487,4.70078 -0.52467,1.97455 -1.0999,2.94696 -1.96648,3.3243 -1.053565,0.45875 -0.38507,0.46658 1.302,0.0152 2.12775,-0.56922 3.87328,-1.59682 5.33146,-3.13863 1.63825,-1.7322 2.29449,-2.98172 3.91421,-7.45281 0.67962,-1.87605 1.59271,-4.11826 2.02907,-4.98269 0.91639,-1.81536 2.57841,-3.58242 4.00495,-4.25808 1.20313,-0.56984 1.23849,-0.80805 0.18474,-1.24453 -1.68497,-0.69793 -3.88972,0.66145 -6.35544,3.9186 -0.71708,0.94723 -1.30378,1.54675 -1.30378,1.33225 0,-0.21449 0.32002,-1.27404 0.71115,-2.35456 0.63136,-1.74413 0.71234,-2.35052 0.72176,-5.40415 0.008,-2.65881 -0.0883,-3.64979 -0.42499,-4.36563 l -0.43558,-0.92604 -0.0268,1.5875 c -0.0851,5.03884 -1.63818,9.39271 -3.35041,9.39271 -0.37017,0 -0.40537,-0.0706 -0.15843,-0.3175 0.60093,-0.60093 0.34025,-3.18791 -0.71542,-7.09975 -1.36675,-5.06461 -1.71216,-6.91435 -1.53617,-8.226455 0.11161,-0.83213 0.073,-1.016024 -0.16377,-0.779335 -0.36412,0.364045 -0.39832,3.24661 -0.0928,7.82408 0.16314,2.4444 0.13211,3.3224 -0.13486,3.81557 -0.64495,1.1914 -0.87925,0.88594 -0.78842,-1.02788 0.10644,-2.24269 -0.29731,-3.73855 -2.21638,-8.21165 -2.205351,-5.140384 -2.633245,-7.671857 -1.855616,-10.978024 0.205081,-0.871925 0.332589,-1.625602 0.283352,-1.674839 -0.04924,-0.04924 -0.56743,0.515081 -1.15154,1.254037 -1.759786,2.226296 -2.183223,3.744801 -2.440784,8.752995 -0.123484,2.401091 -0.293442,4.960941 -0.377682,5.688541 -0.145611,1.25768 -1.120365,4.63021 -1.338258,4.63021 -0.239032,0 -2.040091,-4.2282 -2.410565,-5.65908 -0.221867,-0.85693 -0.490472,-2.58333 -0.596898,-3.836462 l -0.193505,-2.278409 -0.509403,1.058333 c -0.457202,0.949886 -0.502552,1.583854 -0.442563,6.186868 0.06618,5.07773 -0.09791,6.57319 -0.831281,7.57613 -0.364249,0.49814 -0.397941,0.49978 -0.901615,0.044 -0.287775,-0.26044 -0.898904,-1.46889 -1.358064,-2.68546 -0.850231,-2.25271 -1.929038,-3.86846 -3.291618,-4.9299 -0.697653,-0.54347 -0.746556,-0.55033 -0.600644,-0.0843 0.08736,0.27902 0.589161,2.52698 1.115102,4.99546 0.525944,2.46849 1.172472,5.18285 1.43673,6.03191 0.577599,1.85583 0.691626,1.91618 -2.931983,-1.55178 -1.393716,-1.33385 -2.933506,-2.63176 -3.421755,-2.88425 -0.886315,-0.45833 -0.885759,-0.45681 0.35021,0.95609 1.499076,1.71367 2.850073,4.22506 3.614044,6.71821 1.384012,4.5166 1.725049,5.42668 2.871264,7.66217 2.223881,4.33728 6.143794,7.22119 9.835896,7.23635 0.571683,0.002 0.54701,-0.0304 -0.181793,-0.24126 z"
         id="path64"
         inkscape:connector-curvature="0" />
      <path
         style="fill:#e05248;stroke-width:0.26458335"
         d="m 58.66765,189.66687 -39.473867,-39.18933 24.6572,-24.54041 C 57.412443,112.4399 75.235215,94.745172 83.457142,86.615508 l 14.948959,-14.781209 39.473869,39.189331 39.47387,39.18933 -24.65721,24.54041 c -13.56145,13.49722 -31.38423,31.19195 -39.60615,39.32162 L 98.141517,228.8562 Z m 74.2667,-4.79362 34.5275,-34.52826 -34.59402,-34.59401 -34.594021,-34.594022 -34.594017,34.594022 -34.594018,34.59401 34.527491,34.52826 c 18.99012,18.99053 34.587366,34.52825 34.660544,34.52825 0.07318,0 15.670421,-15.53772 34.660541,-34.52825 z m -68.395046,-0.92605 -33.601433,-33.60221 33.667968,-33.66797 33.66797,-33.667972 33.667971,33.667972 33.66797,33.66797 -33.60144,33.60221 c -18.48078,18.48122 -33.661312,33.60222 -33.734501,33.60222 -0.07319,0 -15.253719,-15.121 -33.734505,-33.60222 z m 37.919726,22.06726 c 1.85068,-0.92223 2.80609,-2.49547 2.81791,-4.64015 0.01,-1.74118 -0.55271,-2.73427 -1.95256,-3.44848 l -0.86494,-0.44129 0.66287,-0.43433 c 0.87704,-0.57466 1.58754,-2.37484 1.37804,-3.49154 -0.19526,-1.04084 -1.22357,-2.32224 -2.35545,-2.93518 -1.29866,-0.70326 -5.771112,-0.63191 -7.178383,0.11452 -0.582083,0.30874 -1.252333,0.78238 -1.489448,1.05252 -0.68993,0.78605 -1.353386,2.25472 -1.112755,2.46326 0.201104,0.17429 3.336774,0.80604 4.000749,0.80604 0.153561,0 0.359327,-0.36481 0.45726,-0.81069 0.20796,-0.94684 1.095669,-1.45264 2.104888,-1.19935 1.833689,0.46023 0.94211,3.33296 -1.034418,3.33296 -0.476446,0 -0.677317,0.59585 -0.677317,2.00914 v 1.17211 l 1.039548,-0.16623 c 0.886687,-0.14178 1.139576,-0.0662 1.719791,0.51402 1.421825,1.42182 0.601315,3.87929 -1.295233,3.87929 -0.932561,0 -1.993273,-0.95358 -1.993273,-1.79196 0,-0.3354 -0.318926,-0.36879 -2.035932,-0.2132 -2.724774,0.24691 -2.810817,0.30944 -2.216774,1.61098 1.071922,2.34856 2.867745,3.27494 6.38357,3.29299 1.920427,0.01 2.471947,-0.0924 3.641857,-0.67543 z m 42.38145,-52.49421 v -15.875 H 98.273809 51.707142 v 15.875 15.875 H 98.273809 144.84048 Z M 111.76756,135.264 v -0.79375 H 98.406101 85.044642 v 0.79375 0.79375 h 13.361459 13.361459 z m -13.159384,-1.50917 c -0.325421,-0.0628 -0.920734,-0.0644 -1.322916,-0.004 -0.402183,0.0608 -0.13593,0.1122 0.591674,0.11419 0.727604,0.002 1.056664,-0.0478 0.731242,-0.11057 z m -2.971038,-0.42399 c -1.162677,-0.40046 -2.003846,-1.64322 -2.418654,-3.57337 -0.430157,-2.00156 -0.87834,-2.87538 -2.15256,-4.19681 l -1.064927,-1.10438 1.768512,0.53981 c 0.97268,0.29689 1.827078,0.48124 1.898664,0.40966 0.258318,-0.25832 -0.772883,-3.68964 -1.37586,-4.57818 -0.339426,-0.50017 -0.497353,-0.90941 -0.350949,-0.90941 0.146405,0 0.751427,0.77391 1.344496,1.7198 0.593069,0.94588 1.184069,1.71979 1.313336,1.71979 0.452536,0 0.229127,-1.77538 -0.426429,-3.38871 -0.710374,-1.74824 -0.96987,-3.58502 -0.283853,-2.00918 0.196295,0.45089 0.872258,1.48587 1.502143,2.29995 1.675479,2.16543 1.897047,1.8228 1.668666,-2.58038 -0.170611,-3.28934 -0.147134,-3.54697 0.436129,-4.78606 l 0.616445,-1.30958 0.191757,3.04271 c 0.210073,3.33338 1.03257,7.92657 1.435115,8.01432 0.142746,0.0311 0.331421,-1.22209 0.429821,-2.85495 0.0965,-1.60073 0.28737,-3.20448 0.42424,-3.5639 0.36711,-0.96408 0.69662,6.18216 0.34041,7.38284 -0.29123,0.98165 -0.1411,1.43313 0.26723,0.80361 0.13885,-0.21407 0.54996,-1.34171 0.91359,-2.50588 0.87496,-2.80124 1.17713,-3.25072 1.18238,-1.75882 0.002,0.63338 -0.35314,2.21773 -0.7897,3.52078 -0.89331,2.66637 -0.99112,3.34157 -0.32946,2.27443 0.48603,-0.78388 1.78953,-1.52285 2.68621,-1.52285 0.53623,0 0.52981,0.0377 -0.17228,1.01198 -0.90132,1.25076 -2.07786,3.77766 -2.449,5.25984 -0.32918,1.31463 -1.36844,2.64367 -2.19189,2.80306 -0.508112,0.0983 -0.492412,0.11828 0.11775,0.14951 1.17881,0.0603 3.93091,-0.93761 5.42665,-1.96777 2.38556,-1.643 3.76079,-3.8967 5.63894,-9.24099 1.89793,-5.4006 3.3844,-7.62166 5.98559,-8.94362 l 1.23933,-0.62985 -0.62646,-0.43879 c -1.77064,-1.24021 -4.53541,0.37691 -7.39224,4.32371 -0.47399,0.65485 -0.79899,0.9525 -0.72222,0.66146 0.0768,-0.29104 0.46322,-1.6365 0.85877,-2.9899 0.64199,-2.19659 0.70531,-2.76463 0.58987,-5.29167 -0.0711,-1.55701 -0.2873,-3.30718 -0.4804,-3.88926 l -0.35109,-1.05833 -0.17651,2.52636 c -0.31216,4.46805 -1.30322,7.63867 -2.59647,8.30666 l -0.68946,0.35612 -0.0153,-2.28728 c -0.0125,-1.8711 -0.22621,-3.03347 -1.17454,-6.38832 -0.89279,-3.15837 -1.16295,-4.56793 -1.17534,-6.13218 -0.0116,-1.463222 -0.0889,-1.9071 -0.27669,-1.587505 -0.31826,0.54179 -0.34124,3.903635 -0.0546,7.984265 0.16412,2.33629 0.13338,3.19143 -0.13241,3.68327 -0.63333,1.17199 -0.87915,0.89015 -0.78671,-0.90201 0.12361,-2.39629 -0.24884,-3.84751 -2.08387,-8.11975 -2.385496,-5.553813 -2.807599,-7.952913 -1.967042,-11.180032 0.221827,-0.851647 0.356732,-1.595036 0.299794,-1.651975 -0.196937,-0.196937 -1.764877,1.790701 -2.392463,3.032868 -0.868937,1.719862 -1.157719,3.484231 -1.351706,8.258459 -0.164428,4.04673 -0.534509,6.4277 -1.269037,8.16455 l -0.375756,0.88851 -0.836086,-1.78668 c -1.211186,-2.58825 -1.862338,-4.95464 -2.108676,-7.663251 l -0.216564,-2.38125 -0.50727,1.058333 c -0.451318,0.941604 -0.507368,1.685748 -0.508182,6.746878 -7.94e-4,4.94864 -0.06202,5.80038 -0.470731,6.54843 -0.258398,0.47295 -0.567367,0.8599 -0.686597,0.8599 -0.441788,0 -1.102487,-1.00439 -1.586923,-2.41242 -0.274283,-0.79722 -0.754401,-1.95071 -1.066924,-2.56331 -0.567143,-1.11169 -2.830333,-3.68542 -3.048712,-3.46703 -0.167764,0.16776 2.138889,10.77294 2.603585,11.97035 0.367773,0.94767 0.364056,0.99124 -0.05679,0.66563 -0.24768,-0.19163 -1.470057,-1.36233 -2.716396,-2.60155 -1.24634,-1.23922 -2.784453,-2.53991 -3.418027,-2.89043 l -1.151956,-0.6373 1.413547,1.69563 c 1.695704,2.0341 2.876089,4.49162 3.961275,8.24722 2.121355,7.34157 5.052319,11.14992 9.732624,12.64609 0.835006,0.26693 1.87538,0.48501 2.311942,0.48463 l 0.79375,-8e-4 -0.916879,-0.31579 z"
         id="path62"
         inkscape:connector-curvature="0" />
      <path
         style="fill:#d9281b;stroke-width:0.26458335"
         d="M 58.738717,189.62251 C 37.11781,168.13396 19.428532,150.47603 19.429213,150.38268 c 0.0015,-0.20065 78.529133,-78.184103 78.84975,-78.303297 0.225266,-0.08375 78.841667,77.923367 78.839447,78.228427 -0.001,0.20065 -78.529138,78.18411 -78.849755,78.3033 -0.120557,0.0448 -17.909029,-17.50005 -39.529938,-38.9886 z m 74.327923,-4.61697 34.65979,-34.66055 -34.72631,-34.72631 -34.726311,-34.726307 -34.726311,34.726307 -34.726309,34.72631 34.659785,34.66055 c 19.062882,19.0633 34.719659,34.66054 34.792835,34.66054 0.07318,0 15.729951,-15.59724 34.792831,-34.66054 z m -68.527336,-1.05834 -33.601433,-33.60221 33.667968,-33.66797 33.66797,-33.667972 33.667971,33.667972 33.66797,33.66797 -33.60144,33.60221 c -18.48078,18.48122 -33.661312,33.60222 -33.734501,33.60222 -0.07319,0 -15.253719,-15.121 -33.734505,-33.60222 z m 38.521916,21.82466 c 1.36541,-0.9645 2.15496,-2.41674 2.28666,-4.20588 0.11522,-1.56525 -0.48699,-2.76926 -1.77769,-3.55418 l -0.79388,-0.48279 0.66362,-0.62343 c 0.36499,-0.34289 0.79608,-1.06556 0.95798,-1.60594 0.68918,-2.30028 -0.71224,-4.43603 -3.2892,-5.01273 -1.925462,-0.4309 -4.82579,-0.23404 -6.125196,0.41573 -1.162224,0.58119 -2.411666,2.01517 -2.665005,3.05864 -0.162512,0.66936 -0.121981,0.69318 1.688589,0.99219 2.514204,0.41521 2.522649,0.41379 2.860617,-0.48159 0.420394,-1.11375 1.443609,-1.53835 2.321298,-0.96327 1.320497,0.86522 0.660334,2.66362 -1.047496,2.85357 -0.776777,0.0864 -0.795424,0.12322 -0.872008,1.72219 l -0.07826,1.63391 1.226048,-0.0464 c 1.001776,-0.0379 1.31858,0.0678 1.731903,0.57821 1.1317,1.3974 0.21912,3.741 -1.456713,3.741 -0.976757,0 -1.609264,-0.56105 -1.887029,-1.67385 -0.147915,-0.59259 -0.303226,-0.72033 -0.748218,-0.61538 -0.308856,0.0729 -1.365229,0.21488 -2.347494,0.31562 -1.049327,0.10763 -1.784914,0.30687 -1.783456,0.48308 0.0013,0.16495 0.35342,0.91178 0.782338,1.65962 0.607296,1.05884 1.089742,1.51658 2.180331,2.06865 1.304234,0.66023 1.594718,0.70291 4.227071,0.62107 2.64252,-0.0822 2.89945,-0.13933 3.94519,-0.87803 z m 41.77926,-52.25161 v -15.875 H 98.273809 51.707142 v 15.875 15.875 h 46.566667 46.566671 z m -33.07292,-18.38854 v -0.92605 H 98.406101 85.044642 v 0.92605 0.92604 h 13.361459 13.361459 z m -10.54866,-1.5717 c 2.39562,-0.50777 4.31662,-1.53847 5.91091,-3.17144 1.5737,-1.61188 2.55936,-3.51841 4.25041,-8.22145 0.68022,-1.89177 1.58155,-4.04962 2.00297,-4.79522 0.90829,-1.60702 2.79493,-3.4191 4.14867,-3.98473 l 0.96985,-0.40523 -0.61826,-0.50064 c -0.68329,-0.55329 -1.742,-0.64157 -2.81262,-0.23452 -0.86561,0.3291 -3.53358,2.84607 -4.50938,4.25415 -0.39852,0.57506 -0.76173,1.00842 -0.80713,0.96302 -0.0454,-0.0454 0.28398,-1.20842 0.73195,-2.58448 1.01455,-3.11647 1.14462,-6.56769 0.34356,-9.11651 -0.47835,-1.52201 -0.50205,-1.5493 -0.5745,-0.66146 -0.4472,5.47986 -1.00821,7.9626 -2.08969,9.24787 -0.88563,1.05251 -1.5236,1.09964 -1.13746,0.084 0.35009,-0.9208 0.0268,-2.82681 -1.33371,-7.86381 -1.20265,-4.45246 -1.48492,-6.34371 -1.09773,-7.355072 0.15321,-0.400183 0.17409,-0.727604 0.0464,-0.727604 -0.39772,0 -0.81308,1.600386 -0.81308,3.132836 0,0.8065 0.13686,2.8163 0.30413,4.46622 0.23312,2.29937 0.23063,3.24516 -0.0106,4.0504 -0.49202,1.64222 -0.82235,1.24242 -0.82622,-0.99998 -0.004,-2.22688 -0.41964,-3.62297 -2.72898,-9.162918 -1.84202,-4.418824 -2.055491,-6.53293 -1.08519,-10.746975 0.28284,-1.228384 -2.17593,1.708384 -2.778336,3.31846 -0.644089,1.721479 -1.069941,5.109909 -1.079302,8.587793 -0.007,2.60021 -0.446019,5.27243 -1.130255,6.87962 l -0.394057,0.92559 -0.940398,-1.9985 c -1.120212,-2.38063 -1.699268,-4.60791 -1.991159,-7.658796 l -0.215167,-2.248959 -0.507542,1.058334 c -0.451372,0.94121 -0.507934,1.687875 -0.511112,6.746871 -0.003,4.76051 -0.07632,5.85041 -0.449519,6.68073 -0.245271,0.54571 -0.568341,0.99219 -0.717934,0.99219 -0.407133,0 -0.972925,-0.98061 -1.736743,-3.01006 -0.376627,-1.00068 -1.025422,-2.31037 -1.44177,-2.91041 -0.862838,-1.24353 -2.328447,-2.70328 -2.520897,-2.51083 -0.164801,0.1648 1.848159,9.76694 2.373653,11.3227 0.217657,0.64439 0.39574,1.22744 0.39574,1.29566 0,0.0682 -1.12345,-0.96279 -2.496555,-2.29115 -2.21859,-2.14628 -4.84672,-4.16583 -5.096338,-3.91621 -0.04971,0.0497 0.342863,0.55438 0.872392,1.12149 2.079138,2.22668 3.346013,4.69406 4.46908,8.70402 1.296524,4.6293 3.248308,8.31435 5.491575,10.36834 3.013543,2.75927 7.584379,3.84232 12.140354,2.87663 z m -5.039527,-0.12456 C 94.62966,133.16611 93.95565,132.2844 93.239767,129.59 c -0.596069,-2.24346 -1.472028,-3.79677 -2.614512,-4.63625 -0.66889,-0.49149 -0.64725,-0.49129 0.876604,0.008 1.824874,0.59835 2.275192,0.63436 2.270893,0.18157 -0.0058,-0.61325 -0.729155,-3.06336 -1.15841,-3.92382 -0.715721,-1.4347 -0.468074,-1.25252 0.632156,0.46504 0.575847,0.89896 1.16517,1.7075 1.309606,1.79676 0.640387,0.39578 0.524946,-1.19432 -0.236675,-3.25994 -0.874478,-2.37172 -1.052428,-3.2919 -0.391459,-2.02426 0.693359,1.32976 2.554038,3.59704 2.863609,3.48938 0.198006,-0.0689 0.266007,-1.2142 0.211854,-3.56823 -0.0792,-3.44295 0.178769,-5.29788 0.809255,-5.81887 0.25646,-0.21192 0.333187,0.14522 0.348633,1.62283 0.02469,2.36122 1.189977,8.9437 1.561397,8.81996 0.148984,-0.0496 0.396982,-1.53598 0.551112,-3.30299 0.15412,-1.76701 0.37086,-3.30338 0.48164,-3.41416 0.11078,-0.11078 0.16327,1.79152 0.11665,4.22732 -0.0513,2.67794 0.0133,4.3959 0.16328,4.34567 0.13642,-0.0457 0.66657,-1.32579 1.17811,-2.84467 0.5267,-1.56393 0.9758,-2.54405 1.03555,-2.25998 0.15999,0.7607 -0.45061,3.5398 -1.16393,5.29762 -0.71426,1.76012 -0.64977,2.16622 0.17708,1.11505 0.65377,-0.83112 1.82996,-1.49031 2.65916,-1.49031 h 0.58843 l -0.53249,0.59531 c -0.98373,1.0998 -1.80346,2.6964 -2.60246,5.06883 -0.54716,1.62467 -0.99924,2.50665 -1.45521,2.83906 -0.7703,0.56156 -3.050501,0.80985 -4.740267,0.51617 z"
         id="path60"
         inkscape:connector-curvature="0" />
    </g>
  </g>
</svg>
