<?xml version="1.0" encoding="UTF-8" standalone="no"?>
<!-- Created with Inkscape (http://www.inkscape.org/) -->

<svg
   xmlns:dc="http://purl.org/dc/elements/1.1/"
   xmlns:cc="http://creativecommons.org/ns#"
   xmlns:rdf="http://www.w3.org/1999/02/22-rdf-syntax-ns#"
   xmlns:svg="http://www.w3.org/2000/svg"
   xmlns="http://www.w3.org/2000/svg"
   xmlns:sodipodi="http://sodipodi.sourceforge.net/DTD/sodipodi-0.dtd"
   xmlns:inkscape="http://www.inkscape.org/namespaces/inkscape"
   width="270.93332mm"
   height="270.93332mm"
   viewBox="0 0 270.93332 270.93333"
   version="1.1"
   id="svg82"
   inkscape:version="0.92.4 (5da689c313, 2019-01-14)"
   sodipodi:docname="Class_6_Poison.svg">
  <defs
     id="defs76" />
  <sodipodi:namedview
     id="base"
     pagecolor="#ffffff"
     bordercolor="#666666"
     borderopacity="1.0"
     inkscape:pageopacity="0.0"
     inkscape:pageshadow="2"
     inkscape:zoom="0.35"
     inkscape:cx="311.4286"
     inkscape:cy="295.14283"
     inkscape:document-units="mm"
     inkscape:current-layer="layer1"
     showgrid="false"
     inkscape:window-width="1920"
     inkscape:window-height="1017"
     inkscape:window-x="-8"
     inkscape:window-y="-8"
     inkscape:window-maximized="1" />
  <metadata
     id="metadata79">
    <rdf:RDF>
      <cc:Work
         rdf:about="">
        <dc:format>image/svg+xml</dc:format>
        <dc:type
           rdf:resource="http://purl.org/dc/dcmitype/StillImage" />
        <dc:title></dc:title>
      </cc:Work>
    </rdf:RDF>
  </metadata>
  <g
     inkscape:label="Layer 1"
     inkscape:groupmode="layer"
     id="layer1"
     transform="translate(-23.434515,44.010124)">
    <g
       id="g95"
       transform="matrix(1.7066666,0,0,1.7181208,-21.721026,-162.95828)">
      <path
         style="fill:#fefefe;stroke-width:0.26458335"
         d="M 26.458326,148.07738 V 69.231544 h 79.375004 79.375 v 78.845836 78.84583 h -79.375 -79.375004 z"
         id="path111"
         inkscape:connector-curvature="0" />
      <path
         style="fill:#cdcdcd;stroke-width:0.26458335"
         d="m 66.166964,187.48761 c -21.69423,-21.56056 -39.44346,-39.27786 -39.442732,-39.37177 0.0016,-0.20166 78.792368,-78.449534 79.114128,-78.568973 0.22581,-0.08382 79.10644,78.187243 79.10406,78.492773 -0.002,0.20066 -78.79265,78.44889 -79.11292,78.56785 -0.12017,0.0446 -17.968306,-17.55931 -39.662536,-39.11988 z m 78.802466,-0.64877 c 21.40349,-21.24604 38.91557,-38.70509 38.91571,-38.79788 5e-4,-0.31311 -77.81141,-77.522611 -78.04219,-77.438011 -0.3247,0.119026 -78.061189,77.306601 -78.061473,77.510261 -4.36e-4,0.31309 77.812333,77.52289 78.043293,77.43852 0.12607,-0.046 17.74116,-17.46685 39.14466,-38.71289 z m -73.928939,-4.10117 -34.659785,-34.66055 34.726309,-34.7263 34.726315,-34.726316 34.72631,34.726316 34.72631,34.7263 -34.65979,34.66055 c -19.06288,19.0633 -34.71966,34.66054 -34.79283,34.66054 -0.0732,0 -15.729957,-15.59724 -34.792839,-34.66054 z m 68.527339,-1.05834 33.60143,-33.60221 -33.66796,-33.66797 -33.66797,-33.667971 -33.667974,33.667971 -33.667968,33.66797 33.601433,33.60221 c 18.480786,18.48122 33.661319,33.60222 33.734509,33.60222 0.0732,0 15.25371,-15.121 33.7345,-33.60222 z m -36.11575,23.65602 c -2.18655,-0.94563 -3.479058,-3.12645 -3.828168,-6.45916 -0.408048,-3.89539 0.852978,-7.41637 3.174028,-8.86235 1.1961,-0.74516 1.43733,-0.79375 3.94068,-0.79375 2.33467,0 2.79037,0.077 3.66111,0.61834 1.00849,0.62701 2.53014,2.82219 2.19316,3.16392 -0.10113,0.10257 -1.17091,0.30921 -2.37728,0.4592 l -2.1934,0.27272 -0.27748,-0.73514 c -0.7627,-2.0206 -3.23432,-0.47668 -3.23432,2.02036 v 0.65702 l 1.12448,-0.51042 c 3.62155,-1.64388 7.33057,0.90325 7.33057,5.03421 0,2.44976 -1.14548,4.27802 -3.22464,5.14674 -1.29133,0.53955 -5.03019,0.5326 -6.28874,-0.0117 z m 4.37765,-3.13865 c 1.12051,-1.12051 0.77862,-3.72816 -0.56932,-4.34233 -2.14841,-0.97888 -3.75186,2.44311 -1.9766,4.21836 0.94388,0.94389 1.68968,0.9802 2.54592,0.12397 z M 59.266659,151.25238 v -15.875 h 46.566671 46.56666 v 15.875 15.875 H 105.83333 59.266659 Z m 92.604171,-0.13229 v -15.21354 h -46.0375 -46.037504 v 15.21354 15.21354 h 46.037504 46.0375 z M 93.252116,125.464 c -0.210854,-0.50465 -0.384159,-1.0702 -0.385117,-1.25677 -9.58e-4,-0.18658 -0.2383,-0.69641 -0.527423,-1.13298 -1.064876,-1.6079 -0.485521,-2.24882 2.033127,-2.24916 1.155174,-1.6e-4 1.950964,-0.19522 3.192394,-0.78252 1.750912,-0.82832 1.786162,-0.89358 1.480812,-2.74156 -0.197768,-1.19689 -0.549241,-1.46095 -3.600381,-2.70489 l -2.244146,-0.91492 -1.25816,0.55654 c -1.009594,0.44659 -1.383686,0.49935 -1.893538,0.26705 -0.88147,-0.40163 -1.026099,-0.96612 -0.465653,-1.81748 0.262702,-0.39905 0.56402,-1.35684 0.669599,-2.12841 0.105579,-0.77157 0.335031,-1.57524 0.509892,-1.78594 0.532021,-0.64105 1.861449,-0.46345 2.754082,0.36792 0.443492,0.41305 1.388504,1.08265 2.10003,1.48799 l 1.293683,0.73699 -0.183849,-0.7325 c -0.101115,-0.40288 -0.0424,-1.28441 0.130485,-1.95897 0.300784,-1.1736 0.276318,-1.29382 -0.567693,-2.78932 -0.769797,-1.36401 -0.896056,-1.8563 -0.992285,-3.86901 -0.09804,-2.050674 -0.03491,-2.470716 0.569912,-3.79182 1.966077,-4.294482 7.076583,-6.882749 12.295903,-6.227388 4.46117,0.560165 8.17369,3.234584 9.3044,6.702685 0.50152,1.538263 0.21999,5.012913 -0.53862,6.647633 -0.4828,1.04039 -0.61918,1.81053 -0.6386,3.60614 l -0.0247,2.28322 1.06737,-0.37634 c 0.58706,-0.20698 1.50469,-0.80315 2.03918,-1.32483 0.7832,-0.76441 1.10415,-0.91528 1.65365,-0.77736 0.54809,0.13756 0.68184,0.33097 0.68184,0.98597 0,0.57253 0.24738,1.04595 0.83189,1.59196 0.72965,0.68159 0.79619,0.85547 0.54134,1.41479 -0.20616,0.45248 -0.58227,0.68531 -1.29491,0.80163 -1.63661,0.26712 -3.52653,0.90502 -5.56843,1.87947 -1.52325,0.72695 -1.91897,1.03598 -1.92184,1.50081 -0.002,0.32196 -0.0709,0.83617 -0.15322,1.1427 -0.13162,0.49035 0.15084,0.68909 2.35018,1.65365 1.45216,0.63687 2.90969,1.09632 3.4779,1.09632 1.37186,0 2.00167,0.40252 2.00167,1.2793 0,0.40234 -0.12355,0.85508 -0.27456,1.00609 -0.15101,0.15101 -0.4189,0.84761 -0.59531,1.54801 -0.39371,1.56309 -0.98602,2.02112 -1.88582,1.45826 -1.31449,-0.82225 -4.29641,-2.58685 -5.3537,-3.16814 l -1.09794,-0.60363 -1.01873,0.81561 c -0.5603,0.44858 -1.44523,0.99282 -1.96651,1.20942 -2.3338,0.96973 -5.72904,0.736 -7.43642,-0.51192 -1.77009,-1.29376 -1.80286,-1.2968 -4.0056,-0.37217 -1.164476,0.4888 -2.029994,1.01082 -2.029994,1.22433 0,0.61729 -1.252286,1.67109 -1.985849,1.67109 -0.533826,0 -0.772456,-0.20457 -1.070361,-0.91755 z m 1.733293,-1.30602 c 0,-0.52239 0.76217,-1.05078 2.645834,-1.83428 2.300568,-0.95691 2.577627,-1.14328 2.224537,-1.49637 -0.203049,-0.20305 -0.721765,-0.0546 -1.810591,0.51815 -1.192073,0.62707 -1.862863,0.80273 -3.06532,0.80273 h -1.539306 l 0.270766,0.99219 c 0.148919,0.5457 0.390938,1.13971 0.537816,1.32 0.306597,0.37636 0.736264,0.19987 0.736264,-0.30242 z m 24.606251,-0.55456 c 0,-1.29082 0.0431,-1.24376 -1.71979,-1.87694 -0.87313,-0.31359 -2.12315,-0.81743 -2.77782,-1.11963 -1.1814,-0.54534 -1.7938,-0.43541 -1.52188,0.27321 0.0749,0.1952 1.23114,0.94734 2.56942,1.67143 1.33827,0.72408 2.55752,1.46534 2.70946,1.64724 0.47866,0.57309 0.74061,0.36254 0.74061,-0.59531 z m -10.39242,-0.56509 c 1.37621,-0.49157 2.24637,-1.49266 2.96353,-3.40946 0.6988,-1.86772 0.69046,-2.00119 -0.0558,-0.89322 -0.94339,1.40059 -2.57943,2.1626 -4.93302,2.29762 -1.10113,0.0632 -2.51764,-0.0245 -3.14779,-0.19477 -1.43539,-0.38791 -2.85713,-1.67594 -3.37313,-3.05591 l -0.39574,-1.05834 0.1538,1.05834 c 0.24143,1.66129 1.57804,4.15169 2.59535,4.8357 1.64366,1.10516 3.85488,1.25513 6.19283,0.42004 z m -2.83675,-3.53595 c 0,-0.29104 -0.11906,-0.52917 -0.26458,-0.52917 -0.14552,0 -0.26458,0.23813 -0.26458,0.52917 0,0.29104 0.11906,0.52917 0.26458,0.52917 0.14552,0 0.26458,-0.23813 0.26458,-0.52917 z m 1.27617,-0.0881 c 0.0506,-0.26108 -0.0843,-0.4411 -0.33073,-0.4411 -0.24543,0 -0.41627,0.22622 -0.41627,0.55122 0,0.6448 0.61827,0.55366 0.747,-0.11012 z m -2.38125,-0.0884 c -0.12873,-0.66378 -0.747,-0.75493 -0.747,-0.11012 0,0.32499 0.17084,0.55121 0.41627,0.55121 0.24639,0 0.38137,-0.18001 0.33073,-0.44109 z m 3.48633,-0.22037 c 0,-0.21828 -0.11906,-0.39687 -0.26458,-0.39687 -0.14552,0 -0.26458,0.17859 -0.26458,0.39687 0,0.21828 0.11906,0.39688 0.26458,0.39688 0.14552,0 0.26458,-0.1786 0.26458,-0.39688 z m -4.84634,-0.44648 c -0.0845,-0.21107 -0.14716,-0.14837 -0.15985,0.15985 -0.0115,0.27892 0.051,0.43519 0.13896,0.34727 0.0879,-0.0879 0.0973,-0.31613 0.0209,-0.50712 z m 5.55625,-0.26458 c -0.0845,-0.21107 -0.14716,-0.14838 -0.15985,0.15985 -0.0115,0.27891 0.051,0.43518 0.13896,0.34726 0.0879,-0.0879 0.0973,-0.31612 0.0209,-0.50711 z m -6.35,-0.26459 c -0.0845,-0.21106 -0.14716,-0.14837 -0.15985,0.15986 -0.0115,0.27891 0.051,0.43518 0.13896,0.34726 0.0879,-0.0879 0.0973,-0.31612 0.0209,-0.50712 z m 3.01907,-1.08974 c -0.20947,-0.20948 -0.28939,-0.14082 -0.28939,0.24859 0,0.69949 0.37,1.07078 0.48783,0.48952 0.05,-0.24679 -0.0393,-0.57894 -0.19844,-0.73811 z m -0.81856,0.3456 c 0,-0.29398 -0.17639,-0.52916 -0.39688,-0.52916 -0.4028,0 -0.54272,0.55969 -0.22048,0.88194 0.33544,0.33543 0.61736,0.17434 0.61736,-0.35278 z m 2.38125,-0.0156 c 0,-0.29963 -0.11906,-0.4712 -0.26458,-0.38126 -0.14552,0.0899 -0.26459,0.33509 -0.26459,0.54478 0,0.2097 0.11907,0.38126 0.26459,0.38126 0.14552,0 0.26458,-0.24515 0.26458,-0.54478 z m 1.05833,-0.11668 c 0,-0.21828 -0.11906,-0.39687 -0.26458,-0.39687 -0.14552,0 -0.26458,0.17859 -0.26458,0.39687 0,0.21828 0.11906,0.39688 0.26458,0.39688 0.14552,0 0.26458,-0.1786 0.26458,-0.39688 z m -4.84634,-0.44648 c -0.0845,-0.21107 -0.14716,-0.14838 -0.15985,0.15985 -0.0115,0.27891 0.051,0.43518 0.13896,0.34726 0.0879,-0.0879 0.0973,-0.31612 0.0209,-0.50711 z m 5.55625,0 c -0.0845,-0.21107 -0.14716,-0.14838 -0.15985,0.15985 -0.0115,0.27891 0.051,0.43518 0.13896,0.34726 0.0879,-0.0879 0.0973,-0.31612 0.0209,-0.50711 z m -6.35,-0.52917 c -0.0845,-0.21107 -0.14716,-0.14837 -0.15985,0.15985 -0.0115,0.27892 0.051,0.43519 0.13896,0.34727 0.0879,-0.0879 0.0973,-0.31613 0.0209,-0.50712 z m 6.69898,-1.5385 c 0.53769,-0.58241 1.68883,-1.51862 2.5581,-2.08045 2.07953,-1.34407 2.31347,-1.92573 1.98324,-4.93103 -0.16308,-1.4841 -0.16361,-2.98138 -0.002,-4.15135 0.18091,-1.3054 0.16505,-2.09831 -0.0553,-2.76597 -0.41968,-1.271659 0.0333,-1.778098 0.85525,-0.956159 0.63873,0.638739 0.71152,1.419389 0.37646,4.037649 -0.25621,2.00218 -0.0241,1.98469 0.51447,-0.0388 0.55315,-2.07818 0.48988,-4.336467 -0.15904,-5.676954 -2.1549,-4.451438 -9.29453,-6.345683 -14.4155,-3.824639 -2.825453,1.390967 -4.878148,4.352668 -4.883334,7.045843 -0.0021,1.14972 0.700677,4.00295 0.927663,3.76564 0.04234,-0.0443 -0.007,-0.88376 -0.109545,-1.86555 -0.204142,-1.95361 0.08884,-3.28069 0.825661,-3.739865 0.636151,-0.396438 1.230834,0.189915 0.847043,0.835185 -0.163418,0.27474 -0.261173,2.52607 -0.2456,5.65616 0.02914,5.8571 -0.05443,5.58823 2.182632,7.02216 0.76325,0.48924 1.58832,1.19566 1.83348,1.56982 0.61777,0.94283 1.20645,1.12116 3.76474,1.14046 l 2.22346,0.0168 0.97761,-1.05893 z m -4.92552,-0.93436 c -0.75408,-1.15087 0.0596,-4.12043 1.23085,-4.49218 1.21595,-0.38593 2.63578,1.44659 2.63578,3.40188 0,1.16337 -0.52332,1.5736 -2.13268,1.67178 -1.14033,0.0696 -1.35441,-0.002 -1.73395,-0.58148 z m -4.56741,-3.44928 c -1.168036,-1.48491 -0.941047,-4.49788 0.38435,-5.10177 1.3374,-0.60936 3.39623,-0.0668 4.22239,1.11271 1.66636,2.37906 -2.81844,6.26252 -4.60674,3.98906 z m 9.87479,0.42637 c -1.00299,-0.4062 -2.2345,-2.07455 -2.2345,-3.02711 0,-1.74559 1.73323,-2.99667 3.7726,-2.72314 1.48391,0.19903 2.04824,0.91727 2.04824,2.60683 0,2.64909 -1.51915,3.98063 -3.58634,3.14342 z m 9.38024,1.84121 c 0.28205,0 0.69809,-0.0711 0.92453,-0.15799 0.35082,-0.13462 0.3575,-0.2122 0.0452,-0.52451 -0.20847,-0.20847 -0.30121,-0.61628 -0.21506,-0.94571 0.14436,-0.55202 0.10913,-0.54542 -0.75115,0.14075 -0.49644,0.39597 -1.85512,1.10099 -3.01929,1.56672 -1.87543,0.75028 -2.12634,0.93108 -2.20155,1.58646 l -0.0849,0.73966 2.39471,-1.20269 c 1.31708,-0.66148 2.62546,-1.20269 2.90751,-1.20269 z m -20.660259,1.65719 c -0.04867,-0.25272 -0.622943,-0.74389 -1.276171,-1.0915 -1.502179,-0.79936 -4.432461,-2.54766 -5.255487,-3.13558 -0.626264,-0.44737 -0.627695,-0.44633 -0.458499,0.33296 0.116369,0.53598 0.0054,1.08691 -0.353028,1.75255 l -0.522754,0.97082 0.716669,-0.37388 c 1.096053,-0.5718 1.618586,-0.47234 4.174051,0.79456 2.628498,1.3031 3.104854,1.42319 2.975219,0.75007 z"
         id="path109"
         inkscape:connector-curvature="0" />
      <path
         style="fill:#9d9d9d;stroke-width:0.26458335"
         d="M 66.276054,187.5302 C 44.594585,166.00881 26.855201,148.29666 26.855201,148.16986 c 0,-0.29961 78.717559,-78.541441 79.018989,-78.541441 0.30899,0 79.10449,78.225991 79.01096,78.439901 -0.0994,0.22737 -78.80429,78.44006 -79.019,78.52485 -0.0931,0.0368 -17.908627,-17.54158 -39.590096,-39.06297 z M 158.53813,173.41105 184.12314,147.94509 145.04438,109.15225 105.96562,70.359408 92.339576,83.818579 C 84.845253,91.221124 67.199915,108.73743 53.127715,122.74371 l -25.585819,25.46596 39.079569,38.79249 39.079565,38.79248 13.62605,-13.45882 c 7.49432,-7.40234 25.13929,-24.91849 39.21105,-38.92477 z m -87.365348,9.19433 -34.527491,-34.52826 34.594018,-34.59401 34.594021,-34.594021 34.59401,34.594021 34.59402,34.59401 -34.52749,34.52826 c -18.99012,18.99054 -34.58737,34.52825 -34.66054,34.52825 -0.0732,0 -15.670428,-15.53771 -34.660548,-34.52825 z m 68.395048,-0.92605 33.60143,-33.60221 -33.66796,-33.66797 -33.66797,-33.667971 -33.667974,33.667971 -33.667968,33.66797 33.601433,33.60221 c 18.480786,18.48122 33.661319,33.60222 33.734509,33.60222 0.0732,0 15.25371,-15.121 33.7345,-33.60222 z m -35.71888,23.75798 c -1.35264,-0.47282 -2.49124,-1.50775 -3.23263,-2.93832 -0.618025,-1.19252 -0.7253,-1.75928 -0.817486,-4.31888 -0.143031,-3.97141 0.311336,-5.58594 2.044156,-7.26356 1.36835,-1.32476 2.74146,-1.82986 4.96739,-1.82728 2.57311,0.003 4.53703,1.07199 5.45624,2.96995 0.52231,1.07845 0.4045,1.15116 -2.26611,1.39864 -1.70954,0.15843 -2.05052,0.12568 -2.05052,-0.19693 0,-0.53682 -0.86004,-1.26272 -1.49607,-1.26272 -0.82189,0 -1.652,1.09322 -1.9202,2.52882 -0.13432,0.71898 -0.20387,1.34757 -0.15456,1.39688 0.0493,0.0493 0.46617,-0.18872 0.92637,-0.52896 1.18844,-0.87865 3.68389,-0.87336 5.10967,0.0109 2.36946,1.46943 3.2037,4.53564 1.96825,7.23422 -1.04009,2.27185 -2.66731,3.13117 -5.862,3.09565 -1.03331,-0.0115 -2.23594,-0.14574 -2.6725,-0.29834 z m 4.07697,-3.22702 c 0.72218,-0.76872 0.82102,-2.75253 0.18546,-3.72251 -1.18495,-1.80847 -3.60097,-0.64231 -3.60097,1.7381 0,0.89929 0.61403,2.24003 1.11891,2.44317 0.80819,0.32517 1.73385,0.14026 2.2966,-0.45876 z M 59.266659,151.25238 v -15.875 h 46.566671 46.56666 v 15.875 15.875 H 105.83333 59.266659 Z m 92.604171,-0.13229 v -15.21354 h -46.0375 -46.037504 v 15.21354 15.21354 h 46.037504 46.0375 z M 93.407217,125.86977 c -0.15064,-0.28147 -0.275055,-0.66843 -0.276476,-0.85989 -0.0013,-0.19147 -0.301704,-0.99069 -0.667292,-1.77605 -0.624875,-1.34236 -0.638117,-1.45732 -0.220991,-1.91823 0.345271,-0.38153 0.83085,-0.49159 2.188647,-0.49612 1.178787,-0.004 2.129684,-0.18033 2.930797,-0.54371 1.941851,-0.88082 2.071481,-1.08094 1.771661,-2.73505 l -0.259578,-1.4321 -2.010434,-0.93669 c -3.295237,-1.53529 -3.399393,-1.55945 -4.655171,-1.07987 -2.228699,0.85115 -3.310695,0.14346 -2.432106,-1.59076 0.224068,-0.44227 0.482836,-1.36825 0.575046,-2.05774 0.287467,-2.14956 1.511972,-2.66818 3.103528,-1.31445 0.478006,0.40658 1.166759,0.92285 1.530561,1.14728 0.363802,0.22443 0.977792,0.61258 1.36442,0.86256 l 0.702963,0.4545 -0.218593,-0.96922 c -0.143645,-0.6369 -0.100386,-1.36198 0.126177,-2.11479 0.32476,-1.07909 0.305906,-1.20277 -0.324829,-2.13099 -1.604341,-2.36099 -1.848332,-5.64125 -0.608074,-8.17503 1.982153,-4.049434 5.632367,-6.217709 10.467307,-6.217709 4.62121,0 8.54781,2.122356 10.52444,5.688542 0.49155,0.886844 0.58588,1.465622 0.58216,3.571877 -0.004,2.17498 -0.10534,2.74375 -0.75359,4.2227 -0.60441,1.37894 -0.71836,1.94133 -0.58975,2.91081 0.0877,0.6609 0.0485,1.58842 -0.0871,2.06115 -0.13558,0.47273 -0.15352,0.8595 -0.0399,0.8595 0.7496,0 2.16748,-0.754 3.10118,-1.64915 1.33365,-1.27858 2.09794,-1.20962 2.3649,0.21339 0.10577,0.56383 0.47119,1.14999 0.95101,1.52551 0.70381,0.55081 0.74911,0.67596 0.46798,1.29297 -0.24249,0.5322 -0.56973,0.72189 -1.48109,0.85856 -1.54436,0.23159 -3.55582,0.93616 -5.55787,1.94679 -1.51251,0.76351 -1.6408,0.899 -1.81229,1.91405 -0.10151,0.60081 -0.0829,1.18672 0.0414,1.30202 0.63737,0.59128 4.81858,2.19108 5.61444,2.14817 1.69681,-0.0915 2.84558,1.44909 1.75529,2.35395 -0.21828,0.18115 -0.39687,0.53515 -0.39687,0.78666 0,0.25151 -0.13071,0.83224 -0.29047,1.29052 -0.38887,1.11553 -1.23554,1.09935 -2.98944,-0.0571 -0.74266,-0.4897 -2.19086,-1.34646 -3.21822,-1.90392 l -1.86792,-1.01356 -0.91773,0.69999 c -1.70964,1.304 -3.11763,1.77284 -5.34295,1.77912 -2.20601,0.006 -3.4087,-0.35489 -4.8544,-1.45758 -1.09148,-0.83251 -1.30233,-0.82253 -3.513906,0.16634 -1.355056,0.60589 -1.912255,1.01089 -2.136878,1.55318 -0.506241,1.22218 -2.151259,1.73288 -2.640029,0.8196 z m 4.141949,-3.43758 c 2.375998,-0.99009 2.537434,-1.10592 2.322388,-1.66631 -0.133569,-0.34808 -0.427116,-0.27236 -1.879983,0.48492 -1.342128,0.69957 -2.039387,0.89741 -3.162721,0.89741 -1.437931,0 -1.440648,0.002 -1.266558,0.72761 0.09595,0.40018 0.351515,1.07844 0.56791,1.50724 l 0.393449,0.77964 0.479533,-0.93471 c 0.397544,-0.77489 0.832845,-1.08193 2.545982,-1.7958 z m 22.200394,1.06227 c 0.0242,-1.22701 -0.0155,-1.30453 -0.74272,-1.44998 -0.42258,-0.0845 -1.71979,-0.572 -2.88269,-1.0833 -1.16291,-0.5113 -2.16395,-0.92963 -2.22454,-0.92963 -0.0606,0 -0.23609,0.23528 -0.38999,0.52285 -0.25107,0.46913 -0.0957,0.61665 1.51205,1.43575 1.28849,0.65644 4.70228,2.68593 4.70228,2.79549 0,0.003 0.0115,-0.5782 0.0256,-1.29118 z m -11.14124,-0.14144 c 1.64156,-0.49404 2.91254,-1.74389 3.57565,-3.51622 0.64,-1.71055 0.69386,-2.67882 0.0797,-1.43224 -1.04427,2.11948 -4.96951,3.27018 -8.1501,2.38923 -2.05584,-0.56942 -3.01588,-1.65285 -3.72329,-4.20183 -0.458498,-1.65209 -0.448484,-0.77411 0.0162,1.41911 0.43239,2.04085 1.42411,3.92928 2.3989,4.56798 1.74713,1.14477 3.70379,1.40574 5.80299,0.77397 z m -2.24583,-3.85064 c 0,-0.29104 -0.11906,-0.52917 -0.26458,-0.52917 -0.14552,0 -0.26458,0.23813 -0.26458,0.52917 0,0.29104 0.11906,0.52917 0.26458,0.52917 0.14552,0 0.26458,-0.23813 0.26458,-0.52917 z m 1.32292,0 c 0,-0.29398 -0.17639,-0.52917 -0.39688,-0.52917 -0.22048,0 -0.39687,0.23519 -0.39687,0.52917 0,0.29398 0.17639,0.52917 0.39687,0.52917 0.22049,0 0.39688,-0.23519 0.39688,-0.52917 z m -2.38125,-0.26458 c 0,-0.29399 -0.17639,-0.52917 -0.39688,-0.52917 -0.22048,0 -0.39687,0.23518 -0.39687,0.52917 0,0.29398 0.17639,0.52916 0.39687,0.52916 0.22049,0 0.39688,-0.23518 0.39688,-0.52916 z m 3.43958,-0.14791 c 0,-0.2097 -0.11906,-0.38126 -0.26458,-0.38126 -0.14552,0 -0.26458,0.24515 -0.26458,0.54478 0,0.29963 0.11906,0.4712 0.26458,0.38126 0.14552,-0.0899 0.26458,-0.33509 0.26458,-0.54478 z m -4.84373,-0.57466 c -0.0671,-0.25744 -0.12638,-0.11087 -0.13177,0.32569 -0.005,0.43656 0.0495,0.64719 0.12197,0.46806 0.0725,-0.17913 0.0769,-0.53632 0.01,-0.79375 z m 5.55364,-0.12079 c -0.0845,-0.21107 -0.14716,-0.14838 -0.15985,0.15985 -0.0115,0.27891 0.051,0.43518 0.13896,0.34726 0.0879,-0.0879 0.0973,-0.31612 0.0209,-0.50711 z m -6.35551,-0.54571 c -0.0734,-0.1819 -0.13346,-0.0331 -0.13346,0.33073 0,0.3638 0.0601,0.51263 0.13346,0.33073 0.0734,-0.1819 0.0734,-0.47956 0,-0.66146 z m 3.26435,-0.33073 c 0,-0.3638 -0.11906,-0.66145 -0.26458,-0.66145 -0.14552,0 -0.26458,0.29765 -0.26458,0.66145 0,0.36381 0.11906,0.66146 0.26458,0.66146 0.14552,0 0.26458,-0.29765 0.26458,-0.66146 z m 1.32292,-0.1479 c 0,-0.552 -0.38924,-0.68943 -0.66929,-0.2363 -0.24,0.38833 0.0797,1.11421 0.40284,0.91453 0.14655,-0.0906 0.26645,-0.39578 0.26645,-0.67823 z m -2.38125,0.0156 c 0,-0.29398 -0.17639,-0.52916 -0.39688,-0.52916 -0.22048,0 -0.39687,0.23518 -0.39687,0.52916 0,0.29398 0.17639,0.52917 0.39687,0.52917 0.22049,0 0.39688,-0.23519 0.39688,-0.52917 z m 3.43958,-0.14791 c 0,-0.20969 -0.11906,-0.38125 -0.26458,-0.38125 -0.14552,0 -0.26458,0.24515 -0.26458,0.54478 0,0.29963 0.11906,0.47119 0.26458,0.38126 0.14552,-0.0899 0.26458,-0.33509 0.26458,-0.54479 z m -4.49791,-0.24896 c 0,-0.21828 -0.11907,-0.39688 -0.26459,-0.39688 -0.14552,0 -0.26458,0.1786 -0.26458,0.39688 0,0.21828 0.11906,0.39687 0.26458,0.39687 0.14552,0 0.26459,-0.17859 0.26459,-0.39687 z m 5.20231,-0.46302 c -0.0734,-0.18191 -0.13346,-0.0331 -0.13346,0.33073 0,0.3638 0.0601,0.51263 0.13346,0.33072 0.0734,-0.1819 0.0734,-0.47955 0,-0.66145 z m -6.34449,-0.24805 c -0.0845,-0.21107 -0.14716,-0.14837 -0.15985,0.15985 -0.0115,0.27892 0.051,0.43519 0.13896,0.34727 0.0879,-0.0879 0.0973,-0.31613 0.0209,-0.50712 z m -0.52917,-0.26458 c -0.0845,-0.21107 -0.14715,-0.14838 -0.15985,0.15985 -0.0115,0.27891 0.0511,0.43518 0.13897,0.34726 0.0879,-0.0879 0.0973,-0.31612 0.0209,-0.50711 z m 5.79174,-0.24745 c 0.85278,-0.21473 1.30687,-0.51346 1.63852,-1.07789 0.25233,-0.42946 1.13984,-1.19521 1.97223,-1.70166 2.54908,-1.55096 2.49401,-1.38658 2.43883,-7.27988 -0.0264,-2.8169 -0.13087,-5.31796 -0.23221,-5.5579 -0.31503,-0.745893 0.41995,-0.896171 0.9838,-0.201151 0.46237,0.569931 0.49946,0.903531 0.35031,3.150951 -0.122,1.83833 -0.0907,2.38833 0.11637,2.04743 0.49863,-0.82074 1.07117,-4.16249 0.88709,-5.17764 -0.95438,-5.263031 -8.21681,-8.368422 -14.27228,-6.102779 -1.8367,0.687198 -4.105073,2.744928 -4.995349,4.531474 -0.855387,1.716545 -0.929364,4.273775 -0.170452,5.892145 l 0.496295,1.05833 -0.141716,-2.25925 c -0.135316,-2.15725 -0.110472,-2.29461 0.550341,-3.0427 0.578622,-0.655057 0.734356,-0.718837 0.950164,-0.389153 0.178003,0.271933 0.137459,0.578453 -0.130636,0.987623 -0.325429,0.49667 -0.339807,0.90649 -0.08826,2.5161 0.184896,1.18311 0.226767,2.83885 0.108842,4.30405 -0.105408,1.30968 -0.185322,2.61321 -0.177586,2.89673 0.02103,0.77129 0.856523,1.76564 2.270477,2.70224 0.69454,0.46006 1.57793,1.21339 1.96309,1.67406 1.019,1.21881 3.14398,1.61762 5.48213,1.02887 z m -3.46724,-1.9519 c -0.0682,-0.21828 -0.17416,-0.56081 -0.23547,-0.76118 -0.17647,-0.57662 0.36472,-2.6242 0.82927,-3.13752 0.70785,-0.78217 1.85533,-0.59889 2.46033,0.39297 0.69455,1.13867 0.92528,2.47059 0.56497,3.26139 -0.26234,0.57576 -0.45564,0.64121 -1.89364,0.64121 -1.19203,0 -1.63317,-0.10146 -1.72546,-0.39687 z m -4.6027,-3.47527 c -0.749438,-0.95275 -0.794052,-4.02559 -0.068,-4.68267 0.82984,-0.75099 2.01743,-0.82446 3.29894,-0.2041 2.02869,0.98207 2.284,2.65488 0.65398,4.2849 -1.47167,1.47168 -3.01292,1.71045 -3.88493,0.60187 z m 9.77565,0.23371 c -1.1276,-0.56653 -2.12194,-1.99173 -2.12194,-3.04142 0,-0.985 1.27288,-2.23298 2.51525,-2.46605 1.24835,-0.23419 2.75213,0.31632 3.05741,1.11927 0.62525,1.64452 -0.011,3.99394 -1.23223,4.55039 -0.88002,0.40096 -1.13465,0.38235 -2.21849,-0.16219 z m -11.411421,3.20653 c -0.185542,-0.22356 -1.177639,-0.8268 -2.204662,-1.34053 -1.027022,-0.51374 -2.433135,-1.33713 -3.124695,-1.82977 -0.691562,-0.49264 -1.352264,-0.89572 -1.468226,-0.89572 -0.115964,0 -0.162091,0.41759 -0.10251,0.92797 0.06667,0.57106 -0.05553,1.17804 -0.317711,1.57819 -0.596392,0.91021 -0.549238,0.9579 0.509672,0.51546 1.153747,-0.48207 2.061832,-0.25993 4.885116,1.19501 1.530188,0.78856 2.004515,0.93487 2.07237,0.63924 0.04839,-0.21085 -0.06382,-0.56628 -0.249354,-0.78985 z m 18.082071,0.035 c 1.54452,-0.73165 2.88411,-1.19063 3.475,-1.19063 0.97554,0 1.28904,-0.34689 0.5647,-0.62485 -0.21828,-0.0838 -0.39687,-0.45974 -0.39687,-0.83552 v -0.68322 l -0.87545,0.66773 c -0.4815,0.36726 -1.70189,0.97816 -2.71198,1.35755 -2.04987,0.76995 -2.76257,1.28886 -2.76257,2.0114 0,0.26849 0.0436,0.48816 0.0969,0.48816 0.0533,0 1.22791,-0.53578 2.6103,-1.19062 z"
         id="path107"
         inkscape:connector-curvature="0" />
      <path
         style="fill:#7b7b7b;stroke-width:0.26458335"
         d="M 66.196004,187.4029 26.693494,148.20967 61.17018,113.87952 C 80.13236,94.997938 97.969243,77.301369 100.8077,74.553812 l 5.16084,-4.995559 39.50191,39.193417 39.50192,39.19342 -34.47629,34.3304 c -18.96196,18.88172 -36.79858,36.5782 -39.63693,39.32552 l -5.16063,4.99511 z m 82.581166,-4.20187 35.40322,-35.25594 -39.10451,-38.79807 -39.1045,-38.798066 -3.83934,3.674414 C 100.0204,76.044295 82.360964,93.562956 62.888842,112.95373 l -35.403858,35.25594 39.105337,38.79789 39.105339,38.79788 3.83914,-3.67423 c 2.11154,-2.02083 19.7706,-19.53941 39.24237,-38.93018 z m -77.604388,-0.59565 -34.527491,-34.52826 34.594018,-34.59401 34.594021,-34.594021 34.59401,34.594021 34.59402,34.59401 -34.52749,34.52826 c -18.99012,18.99054 -34.58737,34.52825 -34.66054,34.52825 -0.0732,0 -15.670428,-15.53771 -34.660548,-34.52825 z m 68.527338,-0.79375 33.73373,-33.73451 -33.80277,-33.80039 -33.80277,-33.800394 -33.792658,33.805484 -33.792661,33.80549 33.728632,33.72941 c 18.55075,18.55117 33.788517,33.72941 33.861707,33.72941 0.0732,0 15.31324,-15.18053 33.86679,-33.7345 z m -35.74929,23.59554 c -1.62361,-0.60678 -2.55236,-1.4534 -3.3244,-3.03045 -0.640401,-1.30816 -0.754828,-1.89881 -0.838246,-4.32694 -0.193466,-5.63153 1.693826,-8.41664 6.009076,-8.86767 2.85935,-0.29886 5.29701,0.70134 6.26328,2.5699 0.69888,1.35148 0.60439,1.42216 -2.28915,1.71225 -1.71476,0.17193 -1.7539,0.16182 -1.91884,-0.49535 -0.19077,-0.7601 -0.95065,-1.09704 -1.92346,-0.85288 -0.73315,0.18401 -1.247,1.1942 -1.51812,2.98447 l -0.1693,1.11792 0.95473,-0.6479 c 1.23994,-0.84144 2.39713,-1.04286 3.80834,-0.66286 1.60256,0.43153 2.54884,1.21703 3.31266,2.74983 1.34627,2.70161 0.42241,5.91983 -2.10762,7.34178 -1.31212,0.73745 -4.77351,0.96303 -6.25895,0.4079 z m 3.7404,-2.82874 c 0.71623,-0.38332 1.10446,-1.99638 0.77497,-3.22 -0.4772,-1.77221 -2.11633,-2.34457 -3.30636,-1.15453 -0.51943,0.51943 -0.64943,0.91906 -0.64943,1.9964 0,1.07734 0.13,1.47697 0.64943,1.9964 0.68164,0.68164 1.68757,0.83333 2.53139,0.38173 z M 59.266659,151.25238 v -15.875 h 46.566671 46.56666 v 15.875 15.875 H 105.83333 59.266659 Z m 92.604171,-0.13229 v -15.21354 h -46.0375 -46.037504 v 15.21354 15.21354 h 46.037504 46.0375 z M 93.391361,125.70286 c -0.14192,-0.37327 -0.258035,-0.82152 -0.258035,-0.9961 0,-0.17459 -0.238125,-0.76172 -0.529167,-1.30474 -1.048977,-1.95716 -0.554109,-2.57665 2.011699,-2.51832 1.277652,0.029 1.861494,-0.11839 3.224122,-0.81422 l 1.663944,-0.8497 -0.183814,-0.98318 c -0.430985,-2.30522 -0.362561,-2.23163 -3.239635,-3.48415 -2.551086,-1.11061 -2.754588,-1.15743 -3.55419,-0.8177 -0.466493,0.19819 -1.324417,0.37113 -1.906501,0.3843 -0.912513,0.0206 -1.070258,-0.0602 -1.144886,-0.58666 -0.0476,-0.33583 0.09539,-0.88828 0.317754,-1.22766 0.222369,-0.33937 0.486079,-1.23346 0.58602,-1.98686 0.300405,-2.26456 1.64736,-2.69167 3.416112,-1.08322 0.436563,0.397 1.344242,1.0349 2.017067,1.41757 l 1.223317,0.69575 -0.129709,-1.15079 c -0.07134,-0.63294 0.0084,-1.56934 0.177244,-2.0809 0.280543,-0.85004 0.238683,-1.03775 -0.486391,-2.18107 -1.554692,-2.4515 -1.707433,-5.91682 -0.369173,-8.375642 0.968787,-1.779985 3.192827,-3.796112 5.249011,-4.758315 3.03001,-1.417916 7.51941,-1.323417 10.70718,0.225379 2.1758,1.057127 4.60905,3.603079 5.13444,5.372258 0.60668,2.04289 0.52236,3.80499 -0.28493,5.95453 -0.46084,1.22708 -0.75304,2.65566 -0.86589,4.23333 -0.0937,1.30969 -0.14651,2.4197 -0.11741,2.46669 0.21143,0.34137 2.25253,-0.66451 3.16442,-1.55947 1.3903,-1.36447 1.98841,-1.26705 2.43329,0.39631 0.20663,0.77259 0.49501,1.2281 0.84851,1.3403 0.60512,0.19206 0.73481,1.23718 0.20475,1.65 -0.1819,0.14167 -1.01502,0.39032 -1.85138,0.55256 -1.83558,0.35607 -5.80974,2.02339 -6.41376,2.69083 -0.28553,0.3155 -0.40625,0.8285 -0.35133,1.49294 0.0831,1.006 0.0992,1.01916 2.5972,2.12185 1.38245,0.61027 3.03713,1.14868 3.67707,1.19649 1.61676,0.12078 1.93657,0.69384 1.15158,2.06348 -0.32742,0.57128 -0.59531,1.27326 -0.59531,1.55995 0,1.56428 -1.13499,1.80617 -2.79215,0.59506 -0.57437,-0.41976 -2.0002,-1.29013 -3.1685,-1.93413 l -2.12419,-1.17093 -1.18311,0.86762 c -1.60639,1.17803 -3.19259,1.67997 -5.26512,1.66613 -1.99181,-0.0133 -3.33428,-0.4227 -4.63211,-1.4126 -1.12882,-0.86099 -1.31937,-0.85962 -3.473664,0.0251 -1.224965,0.50306 -1.858777,0.93324 -2.120395,1.43915 -0.791826,1.53122 -2.328487,2.01424 -2.76398,0.8688 z m 1.68575,-1.51394 c 0.302996,-0.72517 0.670682,-0.99027 2.212388,-1.59514 2.32573,-0.91247 2.802381,-1.25375 2.575782,-1.84425 -0.15826,-0.41242 -0.322098,-0.37511 -1.624367,0.36998 -1.058762,0.60576 -1.901243,0.86501 -3.132037,0.96381 l -1.683686,0.13515 0.150889,0.82477 c 0.145103,0.79312 0.760666,2.01539 1.015002,2.01539 0.06745,0 0.286168,-0.39137 0.486029,-0.86971 z m 24.613619,-0.1563 c -0.0838,-0.41879 -0.0239,-1.00134 0.13304,-1.29457 0.25703,-0.48026 0.1875,-0.55142 -0.70099,-0.71733 -0.54248,-0.1013 -1.8663,-0.59031 -2.94182,-1.08668 -2.27275,-1.04892 -2.56438,-1.0884 -2.75159,-0.37254 -0.11344,0.4338 0.181,0.70404 1.62279,1.48944 0.96876,0.52771 2.35669,1.35331 3.08429,1.83466 1.63739,1.08323 1.74353,1.09327 1.55428,0.14702 z m -11.13819,-0.5774 c 1.23673,-0.34344 2.71317,-1.60966 3.34587,-2.86946 0.58337,-1.16158 1.17772,-3.58991 0.99184,-4.05237 -0.0748,-0.18607 -0.14538,-0.0645 -0.15687,0.27015 -0.0273,0.79511 -0.60846,1.89182 -1.38842,2.62006 -1.1355,1.06021 -2.57179,1.49134 -4.98247,1.49558 -3.5972,0.006 -4.88505,-0.91284 -5.87749,-4.19493 l -0.48003,-1.5875 0.13772,1.51589 c 0.17793,1.95848 1.04113,4.24618 2.02497,5.36671 1.30058,1.48127 4.01954,2.09273 6.38488,1.43587 z m -3.24838,-4.08513 c 0,-0.41158 -0.14993,-0.66146 -0.39688,-0.66146 -0.73927,0 -0.47301,1.04821 0.33073,1.30203 0.0364,0.0115 0.0661,-0.27677 0.0661,-0.64057 z m 1.05833,0.13229 c 0,-0.29398 -0.17639,-0.52917 -0.39687,-0.52917 -0.22049,0 -0.39688,0.23519 -0.39688,0.52917 0,0.29398 0.17639,0.52917 0.39688,0.52917 0.22048,0 0.39687,-0.23519 0.39687,-0.52917 z m 1.32292,0 c 0,-0.29398 -0.17639,-0.52917 -0.39688,-0.52917 -0.22048,0 -0.39687,0.23519 -0.39687,0.52917 0,0.29398 0.17639,0.52917 0.39687,0.52917 0.22049,0 0.39688,-0.23519 0.39688,-0.52917 z m 1.32292,-0.42518 c 0,-0.20271 -0.1786,-0.36857 -0.39688,-0.36857 -0.21838,0 -0.39687,0.23426 -0.39687,0.52086 0,0.35429 0.12692,0.47216 0.39687,0.36857 0.21828,-0.0838 0.39688,-0.31815 0.39688,-0.52086 z m -4.76655,0.0944 c -0.002,-0.1819 -0.11947,-0.50932 -0.26054,-0.7276 -0.19986,-0.30927 -0.25737,-0.23626 -0.26053,0.33072 -0.002,0.40019 0.11501,0.72761 0.26053,0.72761 0.14552,0 0.26276,-0.14883 0.26054,-0.33073 z m 5.81647,-1.05003 c 0.005,-0.10457 -0.17018,-0.1216 -0.38847,-0.0378 -0.21828,0.0838 -0.39687,0.40044 -0.39687,0.70373 0,0.54166 0.007,0.54233 0.38846,0.0378 0.21365,-0.28247 0.39225,-0.59915 0.39688,-0.70372 z m -6.95199,-0.13556 c -0.0671,-0.25743 -0.12638,-0.11087 -0.13177,0.32569 -0.005,0.43657 0.0495,0.64719 0.12197,0.46806 0.0725,-0.17913 0.0769,-0.53632 0.01,-0.79375 z m 3.25623,-0.46806 c 0,-0.41157 -0.14993,-0.66145 -0.39687,-0.66145 -0.39685,0 -0.55333,0.81368 -0.22049,1.14652 0.35973,0.35973 0.61736,0.15731 0.61736,-0.48507 z m 1.32292,0 c 0,-0.41157 -0.14993,-0.66145 -0.39688,-0.66145 -0.24694,0 -0.39687,0.24988 -0.39687,0.66145 0,0.41158 0.14993,0.66146 0.39687,0.66146 0.24695,0 0.39688,-0.24988 0.39688,-0.66146 z m -5.11093,-0.1819 c -0.0845,-0.21106 -0.14715,-0.14837 -0.15985,0.15986 -0.0115,0.27891 0.0511,0.43518 0.13897,0.34726 0.0879,-0.0879 0.0973,-0.31612 0.0209,-0.50712 z m 2.72968,0.0779 c 0,-0.27547 -0.17859,-0.56939 -0.39688,-0.65316 -0.28672,-0.11002 -0.39687,0.029 -0.39687,0.50086 0,0.4042 0.15127,0.65316 0.39687,0.65316 0.21829,0 0.39688,-0.22539 0.39688,-0.50086 z m 3.43958,-0.1523 c 0,-0.47188 -0.11015,-0.61088 -0.39687,-0.50086 -0.21828,0.0838 -0.39688,0.37769 -0.39688,0.65316 0,0.27547 0.1786,0.50086 0.39688,0.50086 0.2456,0 0.39687,-0.24896 0.39687,-0.65316 z m -4.73768,-0.75078 c -0.20948,-0.20947 -0.2894,-0.14082 -0.2894,0.24859 0,0.69949 0.37001,1.07078 0.48783,0.48952 0.05,-0.24679 -0.0393,-0.57894 -0.19843,-0.73811 z m 5.44208,0.0149 c -0.0734,-0.1819 -0.13346,-0.0331 -0.13346,0.33073 0,0.3638 0.0601,0.51263 0.13346,0.33073 0.0734,-0.1819 0.0734,-0.47956 0,-0.66146 z m -6.23088,-0.2745 c -0.21608,-0.21608 -0.29435,-0.18647 -0.29435,0.11135 0,0.52595 0.35578,0.88174 0.48727,0.48727 0.0558,-0.16735 -0.031,-0.43673 -0.19292,-0.59862 z m 6.76556,0.0265 c -0.0845,-0.21107 -0.14716,-0.14837 -0.15986,0.15985 -0.0115,0.27892 0.0511,0.43519 0.13897,0.34727 0.0879,-0.0879 0.0973,-0.31613 0.0209,-0.50712 z m -7.40834,-0.26458 c -0.0845,-0.21107 -0.14715,-0.14838 -0.15985,0.15985 -0.0115,0.27891 0.0511,0.43518 0.13897,0.34726 0.0879,-0.0879 0.0973,-0.31612 0.0209,-0.50711 z m 7.9375,0 c -0.0845,-0.21107 -0.14715,-0.14838 -0.15985,0.15985 -0.0115,0.27891 0.0511,0.43518 0.13897,0.34726 0.0879,-0.0879 0.0973,-0.31612 0.0209,-0.50711 z m -1.95969,-0.23082 c 0.65963,-0.18318 1.19349,-0.57391 1.57099,-1.14979 0.3145,-0.47977 1.08937,-1.14687 1.72193,-1.48245 0.63256,-0.33557 1.48143,-0.98748 1.88637,-1.44868 l 0.73626,-0.83856 -0.0415,-5.13911 c -0.0228,-2.82651 -0.12822,-5.33543 -0.23425,-5.57537 -0.32816,-0.742583 0.40791,-0.900609 0.96877,-0.207982 0.45478,0.561632 0.4939,0.920602 0.35779,3.283242 -0.14376,2.4955 -0.12947,2.6017 0.24119,1.79242 0.21671,-0.47314 0.53603,-1.68841 0.7096,-2.7006 0.27606,-1.60991 0.25619,-2.02878 -0.15874,-3.345086 -1.61363,-5.119031 -9.48082,-7.549249 -15.11413,-4.668841 -1.305411,0.667482 -3.305206,2.764042 -4.12757,4.327296 -0.809324,1.538471 -0.812962,4.081521 -0.0083,5.792271 l 0.560028,1.19062 -0.154096,-2.38125 c -0.140732,-2.1747 -0.104188,-2.44436 0.421312,-3.10885 0.316476,-0.400183 0.685831,-0.727605 0.82079,-0.727605 0.340564,0 0.308565,1.153895 -0.04171,1.504175 -0.206404,0.20641 -0.195337,0.98846 0.03938,2.7825 0.24992,1.91025 0.2559,2.96993 0.02551,4.51898 -0.184896,1.24316 -0.209907,2.26308 -0.06485,2.6446 0.268716,0.70678 1.781496,2.10954 2.897176,2.68648 0.41298,0.21357 0.95615,0.70157 1.20702,1.08445 0.86016,1.31278 3.40583,1.82673 5.78099,1.16714 z m -3.61218,-1.9784 c -0.33659,-0.87713 -0.1532,-2.65227 0.36115,-3.49586 0.63117,-1.03519 1.57186,-1.14167 2.38408,-0.26985 0.6844,0.73461 0.85166,1.37907 0.74508,2.87076 l -0.0836,1.1694 -1.62082,0.0779 c -1.30041,0.0625 -1.65346,-0.007 -1.78594,-0.35237 z m -4.42049,-3.26207 c -0.49831,-0.40351 -0.63027,-0.81469 -0.721562,-2.24841 -0.159488,-2.50469 0.256492,-3.07861 2.231362,-3.07861 1.32532,0 1.56717,0.0916 2.37516,0.89958 0.49477,0.49477 0.89958,1.13201 0.89958,1.41608 0,1.24828 -2.30616,3.50517 -3.58169,3.50517 -0.32616,0 -0.86745,-0.22221 -1.20285,-0.49381 z m 8.66786,-0.66759 c -1.72442,-1.72442 -1.45857,-3.66675 0.61546,-4.49662 0.98077,-0.39242 1.47451,-0.39194 2.94724,0.003 1.12021,0.3003 1.30188,3.20781 0.28579,4.57391 -0.39528,0.53146 -0.77887,0.70218 -1.71676,0.76409 -1.07739,0.0711 -1.30748,-0.02 -2.13173,-0.84425 z m -10.233321,4.64199 c 0,-0.63237 -0.588936,-1.1349 -2.38125,-2.03184 -0.800364,-0.40054 -2.169583,-1.21267 -3.042708,-1.80474 -0.873125,-0.59206 -1.640398,-1.02206 -1.705052,-0.95556 -0.06465,0.0665 -0.08714,0.5421 -0.04997,1.05687 0.04686,0.649 -0.117832,1.17166 -0.53716,1.70475 -0.554246,0.70461 -0.56112,0.74973 -0.08232,0.5404 1.483542,-0.64859 2.636001,-0.47708 5.045612,0.75087 1.295786,0.66035 2.445271,1.20666 2.554412,1.21402 0.10914,0.007 0.198437,-0.20628 0.198437,-0.47477 z m 18.020531,-0.70246 c 1.62818,-0.79246 2.80662,-1.19527 3.52381,-1.20451 1.05662,-0.0136 1.06598,-0.0219 0.48222,-0.42914 -0.37495,-0.26155 -0.59531,-0.68747 -0.59531,-1.15061 v -0.73534 l -0.77742,0.72621 c -0.42757,0.39942 -1.6665,1.05048 -2.75317,1.44682 -2.03458,0.74205 -2.81941,1.32523 -2.81941,2.095 0,0.63227 0.21491,0.57755 2.93928,-0.74843 z"
         id="path105"
         inkscape:connector-curvature="0" />
      <path
         style="fill:#5b5a5a;stroke-width:0.26458335"
         d="M 66.19665,187.40263 26.694231,148.20967 60.905967,114.14386 C 79.72242,95.407671 97.559144,77.711108 100.54313,74.818169 l 5.42543,-5.25989 39.50166,39.193401 39.50165,39.19341 -34.47604,34.33015 c -18.96183,18.88158 -36.79821,36.57794 -39.6364,39.32525 l -5.16036,4.9951 z m 82.31653,-3.93698 35.6684,-35.52056 -39.10478,-38.79837 -39.10479,-38.798369 -3.83965,3.67448 c -2.11181,2.020963 -19.77151,19.53976 -39.243772,38.930659 l -35.404111,35.25618 39.105614,38.79791 39.105619,38.79791 3.57453,-3.40964 c 1.966,-1.8753 19.62532,-19.39389 39.24294,-38.9302 z m -77.340398,-0.86027 -34.527491,-34.52826 34.594018,-34.59401 34.594021,-34.594021 34.59401,34.594021 34.59402,34.59401 -34.52749,34.52826 c -18.99012,18.99054 -34.58737,34.52825 -34.66054,34.52825 -0.0732,0 -15.670428,-15.53771 -34.660548,-34.52825 z m 68.527338,-0.79375 33.73373,-33.73451 -33.80277,-33.80039 -33.80277,-33.800394 -33.792658,33.805484 -33.792661,33.80549 33.728632,33.72941 c 18.55075,18.55117 33.788517,33.72941 33.861707,33.72941 0.0732,0 15.31324,-15.18053 33.86679,-33.7345 z m -35.7676,23.54392 c -2.64304,-0.85006 -3.93617,-3.06816 -4.130903,-7.0857 -0.214204,-4.41921 0.906483,-7.13056 3.451703,-8.35094 3.21693,-1.54244 7.52087,-0.65443 8.79799,1.81526 0.57673,1.11526 0.5102,1.25917 -0.66173,1.43141 -3.41504,0.50192 -3.10312,0.53287 -3.56136,-0.35328 -0.42208,-0.8162 -1.1216,-1.03106 -2.11533,-0.64973 -0.59412,0.22798 -1.11637,1.32969 -1.34128,2.82951 l -0.19001,1.26711 0.99508,-0.67528 c 1.34104,-0.91006 3.67281,-0.94712 5.21063,-0.0828 1.99851,1.12323 2.97915,4.00052 2.25369,6.61257 -0.25789,0.92853 -1.63313,2.4947 -2.65424,3.02274 -1.1381,0.58853 -4.52459,0.71111 -6.05424,0.21914 z m 3.7491,-2.77197 c 0.65941,-0.35291 1.15346,-1.94572 0.9462,-3.05052 -0.18738,-0.99882 -1.23215,-1.9786 -2.10984,-1.9786 -1.97868,0 -2.83243,3.12014 -1.31312,4.79896 0.48464,0.53552 1.69587,0.64807 2.47676,0.23016 z M 59.266659,151.12009 v -15.74271 h 46.566671 46.56666 v 15.74271 15.74271 H 105.83333 59.266659 Z m 92.604171,0.13229 v -15.34583 h -46.0375 -46.037504 v 15.34583 15.34583 h 46.037504 46.0375 z M 93.134281,124.66463 c -0.314243,-0.94431 -0.681138,-1.78477 -0.815321,-1.8677 -0.424228,-0.26219 -0.263864,-1.4132 0.234021,-1.67966 0.262893,-0.1407 1.192707,-0.23418 2.066258,-0.20775 1.309473,0.0396 1.864167,-0.0937 3.160033,-0.75986 l 1.571762,-0.80793 -0.08872,-1.15244 c -0.155858,-2.02461 -0.339281,-2.23108 -3.030591,-3.41139 -2.794222,-1.22545 -3.056694,-1.26833 -4.186721,-0.68397 -1.131528,0.58513 -2.460085,0.41397 -2.566051,-0.33059 -0.04537,-0.31882 0.09418,-0.8546 0.31011,-1.19063 0.215937,-0.33603 0.477322,-1.19241 0.580861,-1.90307 0.316339,-2.17128 1.450896,-2.75559 2.895693,-1.49131 0.523904,0.45845 3.49441,2.38655 3.676803,2.38655 0.05206,0 0.03585,-0.52166 -0.03601,-1.15925 -0.07187,-0.63759 0.0075,-1.57779 0.176292,-2.08935 0.280543,-0.85004 0.238683,-1.03775 -0.486391,-2.18107 -1.536885,-2.42342 -1.701604,-5.60112 -0.425538,-8.209309 0.76336,-1.560253 2.962995,-3.764041 4.580669,-4.589315 5.66864,-2.891926 13.45292,-0.806065 16.14821,4.327044 0.5991,1.140976 0.69966,1.658289 0.69638,3.5825 -0.003,1.83978 -0.12985,2.53779 -0.6965,3.83646 -0.80215,1.8384 -1.18286,6.21782 -0.54052,6.21774 0.75121,-8e-5 2.29616,-0.84896 3.10396,-1.70547 0.94195,-0.99876 1.98077,-1.05259 1.98077,-0.10265 0,0.70984 0.69108,1.97665 1.18084,2.16459 0.4897,0.18792 0.53618,1.06297 0.0759,1.42981 -0.1819,0.14498 -0.91928,0.3489 -1.63862,0.45315 -1.45859,0.21138 -5.73757,1.96776 -6.52079,2.67657 -0.3336,0.30191 -0.50569,0.80967 -0.50569,1.49207 v 1.03442 l 2.3151,1.07878 c 1.3364,0.62273 2.87437,1.13298 3.63802,1.207 2.05495,0.19916 2.51228,0.9063 1.45521,2.25014 -0.29104,0.37 -0.52916,1.01709 -0.52916,1.43798 0,1.31102 -1.16373,1.86577 -2.11259,1.00707 -0.23895,-0.21625 -1.67467,-1.10248 -3.19049,-1.9694 l -2.75605,-1.57622 -0.86091,0.65665 c -3.25184,2.4803 -7.52483,2.64458 -10.36094,0.39834 l -0.97692,-0.77373 -1.314285,0.46378 c -2.116717,0.74695 -2.998017,1.29823 -3.439141,2.15126 -0.36195,0.69994 -1.277872,1.30708 -1.971834,1.30708 -0.124182,0 -0.482896,-0.77262 -0.797142,-1.71692 z m 2.090526,-0.59251 c 0.243515,-0.5792 0.783413,-0.92788 2.569281,-1.65932 1.243539,-0.50933 2.307122,-0.9978 2.363512,-1.08551 0.0564,-0.0877 -0.0555,-0.37561 -0.248705,-0.63979 -0.336558,-0.46027 -0.385215,-0.45614 -1.164669,0.0989 -1.167855,0.83159 -2.838334,1.36183 -4.290301,1.36183 H 93.19522 l 0.386696,1.1224 c 0.66941,1.94297 1.078971,2.14278 1.642891,0.80151 z m 24.487373,-0.17382 c -0.10124,-0.53966 -0.0534,-0.96658 0.1203,-1.07395 0.50855,-0.3143 0.3103,-0.6056 -0.52598,-0.77286 -0.44787,-0.0896 -1.77852,-0.5807 -2.957,-1.0914 -2.49749,-1.0823 -2.74865,-1.11426 -2.98188,-0.37944 -0.20975,0.66087 -0.43609,0.47013 2.12413,1.79 1.16479,0.60049 2.53401,1.38557 3.04271,1.74462 1.22923,0.86762 1.37611,0.84057 1.17772,-0.21697 z m -9.95226,-0.96444 c 1.34792,-0.75757 2.30761,-2.16736 2.82339,-4.14755 0.48926,-1.87842 0.48829,-3.00771 -10e-4,-1.43848 -0.75424,2.41775 -2.71627,3.56999 -6.09288,3.57816 -1.66718,0.004 -2.38585,-0.12246 -3.35152,-0.58994 -1.44618,-0.70008 -2.00041,-1.4547 -2.65268,-3.6118 l -0.48003,-1.5875 0.13063,1.45521 c 0.30932,3.44567 1.79066,5.9651 3.97794,6.7656 1.52705,0.55886 4.26351,0.35352 5.64639,-0.4237 z m -4.45576,-3.56377 c 0,-0.41158 -0.14993,-0.66146 -0.39688,-0.66146 -0.73927,0 -0.47301,1.04821 0.33073,1.30203 0.0364,0.0115 0.0661,-0.27677 0.0661,-0.64057 z m 1.05833,0.13229 c 0,-0.29398 -0.17639,-0.52917 -0.39687,-0.52917 -0.22049,0 -0.39688,0.23519 -0.39688,0.52917 0,0.29398 0.17639,0.52917 0.39688,0.52917 0.22048,0 0.39687,-0.23519 0.39687,-0.52917 z m 1.32292,0 c 0,-0.29398 -0.17639,-0.52917 -0.39688,-0.52917 -0.22048,0 -0.39687,0.23519 -0.39687,0.52917 0,0.29398 0.17639,0.52917 0.39687,0.52917 0.22049,0 0.39688,-0.23519 0.39688,-0.52917 z m 1.27903,-0.51322 c 0.0601,-0.41043 -0.0247,-0.56676 -0.26458,-0.48771 -0.19414,0.064 -0.39278,0.38816 -0.4414,0.72039 -0.0601,0.41044 0.0247,0.56677 0.26458,0.48772 0.19415,-0.064 0.39278,-0.38816 0.4414,-0.7204 z m -4.72266,0.18249 c -0.002,-0.1819 -0.11947,-0.50932 -0.26054,-0.7276 -0.19986,-0.30927 -0.25737,-0.23626 -0.26053,0.33072 -0.002,0.40019 0.11501,0.72761 0.26053,0.72761 0.14552,0 0.26276,-0.14883 0.26054,-0.33073 z m 6.35405,-1.58141 c 0,-0.13328 -0.1871,-0.0552 -0.41578,0.17345 -0.22867,0.22867 -0.52633,0.41577 -0.66146,0.41577 -0.13512,0 -0.24554,0.26789 -0.24536,0.59531 2.7e-4,0.57114 0.0272,0.5641 0.66146,-0.17344 0.36363,-0.42282 0.66114,-0.87781 0.66114,-1.01109 z m -7.34358,0.72151 c -0.0696,-0.3638 -0.1721,-0.66145 -0.22789,-0.66145 -0.0558,0 -0.10145,0.29765 -0.10145,0.66145 0,0.36381 0.10255,0.66146 0.22789,0.66146 0.12534,0 0.171,-0.29765 0.10145,-0.66146 z m -0.68328,-0.99218 c -0.0734,-0.18191 -0.13345,-0.0331 -0.13345,0.33073 0,0.3638 0.0601,0.51263 0.13345,0.33072 0.0734,-0.1819 0.0734,-0.47955 0,-0.66145 z m 3.79352,0.19843 c 0,-0.41157 -0.14993,-0.66145 -0.39687,-0.66145 -0.24695,0 -0.39688,0.24988 -0.39688,0.66145 0,0.41158 0.14993,0.66146 0.39688,0.66146 0.24694,0 0.39687,-0.24988 0.39687,-0.66146 z m 1.32292,0 c 0,-0.41157 -0.14993,-0.66145 -0.39688,-0.66145 -0.24694,0 -0.39687,0.24988 -0.39687,0.66145 0,0.41158 0.14993,0.66146 0.39687,0.66146 0.24695,0 0.39688,-0.24988 0.39688,-0.66146 z m -2.38125,-0.10398 c 0,-0.27547 -0.17859,-0.56939 -0.39688,-0.65316 -0.28672,-0.11002 -0.39687,0.029 -0.39687,0.50086 0,0.4042 0.15127,0.65316 0.39687,0.65316 0.21829,0 0.39688,-0.22539 0.39688,-0.50086 z m 3.43958,-0.18265 c 0,-0.82886 -0.62136,-0.73814 -0.746,0.10892 -0.0561,0.38159 0.0549,0.57459 0.33073,0.57459 0.27014,0 0.41527,-0.23888 0.41527,-0.68351 z m -4.73768,-0.72043 c -0.20948,-0.20947 -0.2894,-0.14082 -0.2894,0.24859 0,0.69949 0.37001,1.07078 0.48783,0.48952 0.05,-0.24679 -0.0393,-0.57894 -0.19843,-0.73811 z m 5.44208,0.0149 c -0.0734,-0.1819 -0.13346,-0.0331 -0.13346,0.33073 0,0.3638 0.0601,0.51263 0.13346,0.33073 0.0734,-0.1819 0.0734,-0.47956 0,-0.66146 z m -5.99606,0.21406 c 0,-0.20969 -0.11907,-0.45485 -0.26459,-0.54478 -0.14552,-0.0899 -0.26458,0.0816 -0.26458,0.38126 0,0.29963 0.11906,0.54478 0.26458,0.54478 0.14552,0 0.26459,-0.17157 0.26459,-0.38126 z m 6.53074,-0.4621 c -0.0845,-0.21107 -0.14716,-0.14837 -0.15986,0.15985 -0.0115,0.27892 0.0511,0.43519 0.13897,0.34727 0.0879,-0.0879 0.0973,-0.31613 0.0209,-0.50712 z m -7.41385,-0.5457 c -0.0734,-0.18191 -0.13345,-0.0331 -0.13345,0.33072 0,0.36381 0.0601,0.51264 0.13345,0.33073 0.0734,-0.1819 0.0734,-0.47955 0,-0.66145 z m 7.94301,0.28112 c -0.0845,-0.21107 -0.14715,-0.14838 -0.15985,0.15985 -0.0115,0.27891 0.0511,0.43518 0.13897,0.34726 0.0879,-0.0879 0.0973,-0.31612 0.0209,-0.50711 z m -1.68153,-0.31117 c 0.47491,-0.19843 1.06699,-0.6714 1.31575,-1.05105 0.24876,-0.37966 1.0868,-1.09617 1.86231,-1.59226 2.52384,-1.61448 2.48392,-1.4921 2.44587,-7.49983 -0.0183,-2.88134 -0.12193,-5.3794 -0.23039,-5.55124 -0.39361,-0.623605 0.43209,-0.690621 0.93019,-0.0755 0.44631,0.55118 0.48687,0.92641 0.35484,3.28325 -0.1454,2.59553 -0.13864,2.63818 0.27507,1.7349 2.14116,-4.67496 0.19353,-9.150836 -4.84899,-11.143488 -1.25533,-0.49607 -2.05223,-0.606897 -4.44032,-0.617521 -2.71777,-0.01209 -3.02424,0.0411 -4.6302,0.803704 -1.983802,0.942018 -3.849125,2.712976 -4.774648,4.533098 -0.849281,1.670187 -0.865482,4.169717 -0.03821,5.895047 l 0.570891,1.19062 -0.15263,-2.40398 c -0.145579,-2.29287 -0.12196,-2.43962 0.510969,-3.175 0.814303,-0.946114 1.187955,-0.674051 0.747426,0.54421 -0.25772,0.71271 -0.259982,1.38606 -0.01066,3.16835 0.245803,1.75709 0.245771,2.76973 -1.43e-4,4.52762 -0.294706,2.10665 -0.280363,2.32322 0.205957,3.1101 0.287499,0.46518 1.021019,1.14288 1.630048,1.50599 1.10778,0.66048 1.4433,0.94719 2.57927,2.204 0.33375,0.36926 0.86953,0.7223 1.19062,0.78454 1.31642,0.25515 3.69818,0.16237 4.50697,-0.17556 z m -3.73796,-1.80881 c -0.46603,-0.46603 -0.38607,-2.32171 0.14593,-3.38667 0.37247,-0.74559 0.61523,-0.92604 1.24583,-0.92604 1.05471,0 1.99491,1.36518 1.99491,2.89663 0,1.40568 -0.35032,1.73358 -1.85208,1.73358 -0.6694,0 -1.35996,-0.14287 -1.53459,-0.3175 z m -4.09141,-3.04057 c -1.23343,-0.32168 -1.764401,-4.0682 -0.724,-5.1086 1.1233,-1.1233 4.17568,-0.3528 4.76735,1.20341 0.47232,1.24228 -0.77443,3.16382 -2.46947,3.80605 -0.77713,0.29445 -0.81567,0.29687 -1.57388,0.0991 z m 8.77276,-0.47088 c -0.84471,-0.46732 -1.42866,-1.32409 -1.67886,-2.46324 -0.16531,-0.75267 -0.0735,-0.97593 0.73259,-1.78206 0.50688,-0.50687 1.20139,-0.9342 1.54336,-0.94962 2.54978,-0.11497 3.2676,0.44071 3.2676,2.52953 0,1.92338 -0.69954,2.89763 -2.14311,2.98471 -0.56754,0.0342 -1.34225,-0.10946 -1.72158,-0.31932 z m -10.819681,4.13454 c 0,-0.62142 -0.586999,-1.13378 -2.25756,-1.97051 -0.732335,-0.36681 -2.125768,-1.19953 -3.096519,-1.85049 -0.970754,-0.65096 -1.824297,-1.12427 -1.896769,-1.0518 -0.07247,0.0725 -0.06393,0.47095 0.01897,0.8855 0.10165,0.50824 -0.0318,1.06312 -0.409736,1.70368 -0.71891,1.21846 -0.705287,1.34002 0.09167,0.81784 1.094727,-0.7173 2.451553,-0.50611 4.9041,0.76332 1.236927,0.64022 2.338255,1.17002 2.447396,1.17733 0.10914,0.007 0.198437,-0.20638 0.198437,-0.47487 z m 18.020531,-0.70246 c 1.65609,-0.80604 2.79433,-1.19253 3.52381,-1.19651 l 1.07753,-0.006 -0.63313,-0.4868 c -0.47301,-0.36369 -0.59939,-0.6633 -0.49971,-1.18474 0.16112,-0.84284 -0.0699,-0.88647 -0.74438,-0.14062 -0.60474,0.66869 -1.94995,1.37905 -3.47331,1.83415 -0.61446,0.18357 -1.3586,0.55866 -1.65365,0.83354 -0.5452,0.50793 -0.73935,1.53749 -0.28994,1.53749 0.13558,0 1.34733,-0.53578 2.69278,-1.19063 z"
         id="path103"
         inkscape:connector-curvature="0" />
      <path
         style="fill:#313030;stroke-width:0.26458335"
         d="M 66.22682,187.399 26.752607,148.20967 51.145571,123.93348 C 64.561699,110.58158 82.384628,92.886847 90.752076,84.611862 l 15.213544,-15.045428 39.47387,39.189326 39.47386,39.18933 -24.6572,24.54041 c -13.56146,13.49723 -31.38423,31.19195 -39.60616,39.32162 l -14.94896,14.78121 z m 78.80035,-0.41049 c 21.44479,-21.30925 39.0238,-38.82195 39.06447,-38.91712 0.0943,-0.22078 -77.89638,-77.649221 -78.2131,-77.649221 -0.22012,0 -78.141536,77.282121 -78.303475,77.661051 -0.09558,0.22367 78.057495,77.80777 78.287545,77.71759 0.0957,-0.0375 17.71977,-17.50306 39.16456,-38.8123 z m -73.854388,-4.38313 -34.527491,-34.52826 34.594018,-34.59401 34.594021,-34.594021 34.59401,34.594021 34.59402,34.59401 -34.52749,34.52826 c -18.99012,18.99054 -34.58737,34.52825 -34.66054,34.52825 -0.0732,0 -15.670428,-15.53771 -34.660548,-34.52825 z m 68.527338,-0.79375 33.73373,-33.73451 -33.80026,-33.80026 -33.80026,-33.800265 -33.800266,33.800265 -33.800261,33.80026 33.733727,33.73451 c 18.553549,18.55397 33.79361,33.7345 33.8668,33.7345 0.0732,0 15.31324,-15.18053 33.86679,-33.7345 z m -35.76425,23.52766 c -1.74875,-0.5382 -3.19574,-2.24161 -3.79979,-4.47316 -0.345938,-1.27799 -0.428866,-2.32461 -0.331574,-4.18466 0.228154,-4.36182 1.831034,-6.64988 5.139714,-7.33676 2.81869,-0.58516 5.60989,0.25395 6.83322,2.05425 0.9055,1.33256 0.85015,1.58466 -0.38786,1.76662 -3.38415,0.49739 -3.0979,0.52107 -3.48391,-0.28821 -0.26817,-0.56224 -0.57447,-0.76782 -1.23904,-0.83162 -1.18082,-0.11337 -1.79274,0.48955 -2.13993,2.10842 -0.44308,2.06601 -0.40461,2.1454 0.68209,1.40794 0.72955,-0.49508 1.3088,-0.65348 2.38975,-0.65348 1.80403,0 2.91808,0.46462 3.96033,1.65169 2.53742,2.88996 1.23764,7.72845 -2.3634,8.79784 -1.65208,0.49062 -3.6272,0.48353 -5.2596,-0.0189 z m 4.17155,-3.05011 c 0.77937,-0.86118 0.70145,-3.15903 -0.1374,-4.05194 -2.20295,-2.34493 -4.93368,1.71999 -2.76516,4.11618 0.62803,0.69396 2.24887,0.65809 2.90256,-0.0642 z M 59.266659,151.12009 v -15.74271 h 46.566671 46.56666 v 15.74271 15.74271 H 105.83333 59.266659 Z m 92.604171,0.13229 v -15.34583 h -46.0375 -46.037504 v 15.34583 15.34583 h 46.037504 46.0375 z M 93.716161,126.04934 c -0.151641,-0.18272 -0.360156,-0.68873 -0.463368,-1.12448 -0.103214,-0.43575 -0.422539,-1.22127 -0.709612,-1.74561 -0.898583,-1.64123 -0.648293,-1.93578 1.783434,-2.0988 1.671688,-0.11207 2.418477,-0.30695 3.569211,-0.93141 1.357217,-0.7365 1.453444,-0.85311 1.429009,-1.73163 -0.06373,-2.29128 -0.398923,-2.61087 -4.472194,-4.26397 -1.568016,-0.63637 -1.5997,-0.63838 -2.645357,-0.16805 -0.582083,0.26182 -1.302411,0.47915 -1.600729,0.48297 -1.059661,0.0135 -1.577541,-1.18368 -0.793488,-1.83439 0.211148,-0.17523 0.456467,-0.87442 0.54515,-1.55375 0.263374,-2.01744 0.522224,-2.42576 1.537804,-2.42576 0.546565,0 1.070808,0.19901 1.356844,0.51507 0.420002,0.4641 3.441724,2.39535 3.74787,2.39535 0.06893,0 0.04625,-0.42148 -0.05039,-0.93661 -0.09809,-0.52288 -0.02966,-1.45823 0.154919,-2.11749 0.3086,-1.1022 0.287004,-1.24693 -0.324112,-2.17225 -0.966438,-1.46331 -1.353341,-2.88357 -1.351229,-4.96011 0.0024,-2.306146 0.829926,-4.087913 2.823395,-6.078735 3.418422,-3.413881 9.093172,-4.245321 13.797712,-2.021581 4.93489,2.332619 6.78124,6.857696 4.79103,11.741966 -0.57682,1.41561 -0.74148,2.27766 -0.78796,4.12537 l -0.0588,2.3358 1.00345,-0.2547 c 0.55189,-0.14009 1.52816,-0.71658 2.16948,-1.2811 1.5459,-1.36075 2.1555,-1.35372 2.37635,0.0274 0.11525,0.72073 0.38102,1.19305 0.84084,1.49434 0.73179,0.47948 0.79244,1.36102 0.11662,1.69496 -0.21829,0.10787 -1.08637,0.32312 -1.92908,0.47835 -0.84271,0.15523 -2.65841,0.81573 -4.03489,1.46778 l -2.5027,1.18554 v 1.07511 c 0,0.59131 -0.011,1.16441 -0.0245,1.27355 -0.0525,0.42526 5.13122,2.4474 6.2739,2.4474 1.54476,0 1.95846,0.69073 1.17394,1.9601 -0.29929,0.48426 -0.54417,1.14215 -0.54417,1.46196 0,1.50593 -0.98994,2.01775 -2.14713,1.11009 -0.34705,-0.2722 -1.84751,-1.1739 -3.33435,-2.00377 l -2.70336,-1.50884 -1.02243,0.82165 c -2.03035,1.63163 -5.0532,2.27171 -7.50823,1.58984 -0.53504,-0.14861 -1.56986,-0.6809 -2.29961,-1.18289 -1.2921,-0.8888 -1.35386,-0.90314 -2.360227,-0.54808 -1.962692,0.69248 -3.221461,1.48294 -3.635007,2.28265 -0.228251,0.44139 -0.714703,0.91647 -1.081011,1.05574 -0.828656,0.31505 -0.776967,0.31874 -1.107059,-0.079 z m 1.460487,-1.85061 c 0.396012,-0.67021 0.986631,-1.05713 2.677517,-1.75403 1.193183,-0.49178 2.222645,-0.98026 2.287695,-1.0855 0.065,-0.10525 -0.028,-0.39146 -0.206882,-0.63603 -0.298265,-0.4079 -0.452589,-0.37564 -1.866572,0.39021 -1.10372,0.5978 -2.020517,0.87333 -3.228592,0.9703 -1.523809,0.12232 -1.662482,0.18155 -1.432242,0.61175 0.140205,0.26198 0.254921,0.68314 0.254921,0.93591 0,0.3746 0.693965,1.42729 0.940914,1.42729 0.03583,0 0.29379,-0.38695 0.573241,-0.8599 z m 24.679592,-0.4101 c 0,-0.55298 0.12796,-1.13337 0.28435,-1.28977 0.20274,-0.20274 -0.006,-0.33769 -0.7276,-0.47024 -0.55658,-0.10224 -2.0584,-0.64833 -3.3374,-1.21354 l -2.32544,-1.02764 -0.29722,0.65234 c -0.35372,0.77632 -0.46165,0.65771 1.50852,1.65783 0.87313,0.44322 2.24234,1.2282 3.04271,1.74438 0.80036,0.51618 1.5445,0.94156 1.65365,0.94528 0.10914,0.004 0.19843,-0.44566 0.19843,-0.99864 z m -9.92937,-0.84203 c 1.75911,-1.08719 2.52943,-2.70217 3.15729,-6.61922 0.20067,-1.25195 -0.2481,-0.44227 -0.48479,0.87465 -0.24159,1.3442 -1.86484,2.96491 -3.37865,3.37335 -1.76903,0.47731 -5.60348,0.21099 -6.49747,-0.45127 -1.09023,-0.80763 -1.849,-2.07492 -2.2111,-3.69294 -0.46403,-2.0735 -0.702794,-1.97767 -0.44525,0.17871 0.42438,3.55329 1.59608,5.62462 3.75472,6.63759 1.54175,0.72349 4.6996,0.56787 6.10525,-0.30087 z m -4.62271,-3.54821 c 0,-0.34823 -0.17859,-0.70168 -0.39688,-0.78544 -0.28194,-0.10819 -0.39687,0.0241 -0.39687,0.45676 0,0.33498 0.0794,0.68843 0.17639,0.78545 0.35498,0.35498 0.61736,0.16085 0.61736,-0.45677 z m 1.32292,0.10399 c 0,-0.35278 -0.17639,-0.52917 -0.52917,-0.52917 -0.35278,0 -0.52917,0.17639 -0.52917,0.52917 0,0.35278 0.17639,0.52917 0.52917,0.52917 0.35278,0 0.52917,-0.17639 0.52917,-0.52917 z m 2.27512,-0.15292 c 0.15991,-0.20241 0.35469,-0.30407 0.43285,-0.22591 0.19719,0.19719 1.26078,-1.19604 1.26078,-1.65153 0,-0.26165 -0.17604,-0.20447 -0.59532,0.19338 -0.69826,0.66257 -1.87142,1.18158 -2.91041,1.28757 -0.10914,0.0111 -0.19844,0.26783 -0.19844,0.57043 0,0.48086 0.10835,0.52775 0.8599,0.37213 0.47294,-0.0979 0.99072,-0.34366 1.15064,-0.54607 z m -4.65637,-0.36063 c 0,-0.28246 -0.11907,-0.58714 -0.26459,-0.67708 -0.15006,-0.0927 -0.26458,0.12955 -0.26458,0.51355 0,0.37239 0.11906,0.67708 0.26458,0.67708 0.14552,0 0.26459,-0.2311 0.26459,-0.51355 z m -1.03594,-1.15739 c -0.20625,-0.20625 -0.28698,-0.0984 -0.28698,0.3833 0,0.8724 0.37079,1.24554 0.48542,0.48849 0.0487,-0.32164 -0.0406,-0.71394 -0.19844,-0.87179 z m -0.66047,-0.64283 c -0.28903,-0.28903 -0.48722,0.17062 -0.27971,0.64871 0.19677,0.45333 0.21103,0.45292 0.32066,-0.009 0.0631,-0.26605 0.0447,-0.55378 -0.0409,-0.63941 z m 2.65313,-0.21523 c -0.0805,-0.20978 -0.26916,-0.38142 -0.41925,-0.38142 -0.39057,0 -0.33839,1.2563 0.0578,1.39256 0.37606,0.12933 0.58004,-0.44138 0.36141,-1.01114 z m 1.42453,0.54462 c 0,-0.48507 -0.14111,-0.66145 -0.52917,-0.66145 -0.38806,0 -0.52917,0.17638 -0.52917,0.66145 0,0.48507 0.14111,0.66146 0.52917,0.66146 0.38806,0 0.52917,-0.17639 0.52917,-0.66146 z m 2.35576,0.0356 c 0.20427,-0.1651 0.38287,-0.25082 0.39688,-0.19048 0.0762,0.32794 1.21611,-0.70895 1.21611,-1.10618 0,-0.43582 -0.0592,-0.44171 -0.76598,-0.0762 -0.42129,0.21785 -1.25472,0.47425 -1.85208,0.56977 -0.92919,0.14858 -1.08611,0.2674 -1.08611,0.82234 0,0.59316 0.0736,0.63293 0.8599,0.4648 0.47294,-0.10113 1.02702,-0.31894 1.23128,-0.48404 z m -4.73701,-0.40204 c 0,-0.27431 -0.29766,-0.69377 -0.66146,-0.93214 -0.63526,-0.41624 -0.66146,-0.41074 -0.66146,0.13884 0,0.52452 0.64726,1.26338 1.12448,1.28362 0.10914,0.005 0.19844,-0.21602 0.19844,-0.49032 z m -1.69641,-1.55045 c -0.28903,-0.28903 -0.48722,0.17062 -0.27971,0.64871 0.19677,0.45333 0.21103,0.45292 0.32066,-0.009 0.0631,-0.26605 0.0447,-0.55378 -0.0409,-0.63941 z m 7.48232,-0.75627 c 0.52853,-0.59673 1.63379,-1.52307 2.45613,-2.05852 1.64819,-1.07319 2.50646,-2.41715 2.17835,-3.41109 -0.24833,-0.75226 -0.29492,-9.716615 -0.0505,-9.716607 0.10089,2e-6 0.36927,0.265324 0.5964,0.589607 0.3303,0.47156 0.386,1.09393 0.27825,3.10885 l -0.13473,2.51926 0.5531,-1.15331 c 0.32358,-0.67475 0.61254,-1.93946 0.69637,-3.0479 0.17732,-2.344474 -0.45891,-4.04239 -2.12205,-5.663222 -2.22046,-2.163965 -5.1512,-3.120052 -8.90753,-2.905876 -3.68382,0.210041 -6.371157,1.800643 -8.208871,4.858723 -0.842504,1.401985 -0.925536,1.720932 -0.920432,3.535665 0.0044,1.58245 0.13013,2.21338 0.608142,3.053 l 0.60253,1.05833 -0.141713,-2.2507 c -0.123275,-1.95786 -0.07102,-2.36696 0.40164,-3.14418 0.3991,-0.656268 0.621554,-0.815272 0.837914,-0.598911 0.216358,0.216358 0.200314,0.470661 -0.06044,0.957881 -0.288732,0.5395 -0.297984,1.12722 -0.04956,3.14869 0.227634,1.8523 0.229931,3.01929 0.009,4.58142 -0.374224,2.64622 -0.06673,3.33939 2.14876,4.8439 0.8682,0.58959 1.70984,1.31729 1.8703,1.61712 0.50087,0.93588 1.76419,1.30793 4.18392,1.23217 l 2.21404,-0.0693 0.96096,-1.08497 z m -5.01436,-1.05775 c -0.38215,-0.46046 -0.16615,-2.71888 0.33807,-3.53475 0.43596,-0.70542 1.41722,-0.96767 1.95397,-0.52221 1.05496,0.87554 1.59117,3.53687 0.83847,4.16155 -0.50088,0.41569 -2.7614,0.34017 -3.13051,-0.10459 z m -4.5983,-3.53439 c -0.878644,-0.9709 -0.872905,-3.73996 0.01,-4.62244 0.63123,-0.63123 2.50631,-0.53245 3.5796,0.18857 0.74643,0.50144 0.91271,0.79088 0.97967,1.70528 0.072,0.98338 -0.0343,1.21625 -0.99219,2.17418 -0.88203,0.88203 -1.25376,1.07284 -2.09016,1.07284 -0.67428,0 -1.17553,-0.17481 -1.4865,-0.51843 z m 8.8227,-0.50878 c -0.85326,-0.85326 -1.0272,-1.20771 -1.0272,-2.09314 0,-0.86548 0.15309,-1.19477 0.81405,-1.75092 0.94688,-0.79676 2.92624,-0.94785 3.85891,-0.29458 1.09303,0.76558 0.97118,3.76107 -0.1913,4.70283 -1.00203,0.81177 -2.28863,0.60164 -3.45446,-0.56419 z m 10.72395,3.02907 c 1.49531,-0.30502 1.56366,-0.34991 0.99562,-0.65391 -0.49943,-0.26729 -0.57906,-0.46685 -0.43961,-1.10176 0.20799,-0.94696 -0.10802,-0.98894 -0.92201,-0.12249 -0.33733,0.35908 -1.45942,0.96906 -2.49352,1.35553 -2.65143,0.99089 -3.0708,1.29598 -3.0708,2.23399 v 0.7906 l 2.1624,-1.08723 c 1.18931,-0.59798 2.88488,-1.23461 3.76792,-1.41473 z m -21.060143,1.52359 c -0.06942,-0.58697 -0.468117,-0.91615 -2.334231,-1.92722 -1.237781,-0.67064 -2.800215,-1.59755 -3.472077,-2.0598 -0.671859,-0.46226 -1.290449,-0.77157 -1.374645,-0.68738 -0.0842,0.0842 -0.08525,0.49227 -0.0024,0.90682 0.10165,0.50824 -0.0318,1.06312 -0.409737,1.70368 -0.724148,1.22734 -0.710774,1.27559 0.220128,0.7942 1.229871,-0.63599 2.127391,-0.4881 4.661149,0.76803 1.299898,0.64444 2.460654,1.18022 2.57946,1.19063 0.118806,0.0104 0.178337,-0.29962 0.132292,-0.68896 z"
         id="path101"
         inkscape:connector-curvature="0" />
      <path
         style="fill:#221e1f;stroke-width:0.26458335"
         d="M 66.298234,187.35464 C 44.677327,165.86609 26.988049,148.20817 26.98873,148.11481 c 0.0015,-0.20074 78.52922,-78.184136 78.84996,-78.303365 0.2257,-0.0839 78.84147,77.922255 78.83921,78.227885 -0.002,0.20158 -78.52756,78.18487 -78.84893,78.30391 -0.121,0.0448 -17.909827,-17.50005 -39.530736,-38.9886 z m 78.802906,-0.38351 c 21.47651,-21.3188 39.04835,-38.83724 39.04853,-38.92987 6e-4,-0.313 -78.07621,-77.787396 -78.30708,-77.702878 -0.32573,0.119245 -78.325209,77.571298 -78.325604,77.775888 -6.03e-4,0.31241 78.077914,77.78608 78.308324,77.70169 0.12519,-0.0459 17.79932,-17.52603 39.27583,-38.84483 z m -73.928358,-4.36575 -34.527491,-34.52826 34.594018,-34.59401 34.594021,-34.594021 34.59401,34.594021 34.59402,34.59401 -34.52749,34.52826 c -18.99012,18.99054 -34.58737,34.52825 -34.66054,34.52825 -0.0732,0 -15.670428,-15.53771 -34.660548,-34.52825 z m 68.527338,-0.79375 33.73373,-33.73451 -33.80026,-33.80026 -33.80026,-33.800265 -33.800266,33.800265 -33.800261,33.80026 33.733727,33.73451 c 18.553549,18.55397 33.79361,33.7345 33.8668,33.7345 0.0732,0 15.31324,-15.18053 33.86679,-33.7345 z m -35.17441,23.65646 c -2.63761,-0.51723 -4.454,-3.14462 -4.704932,-6.80564 -0.301186,-4.39419 0.862462,-7.35113 3.388202,-8.60977 1.16715,-0.58161 1.76352,-0.7003 3.5188,-0.7003 3.06364,0 4.92668,1.03221 5.56237,3.0818 0.16389,0.52842 0.0597,0.58077 -1.48664,0.74665 -0.91459,0.0981 -1.86165,0.23432 -2.10457,0.30269 -0.28169,0.0793 -0.5046,-0.0739 -0.61538,-0.42296 -0.27733,-0.87377 -1.26122,-1.38807 -2.06839,-1.08119 -0.95477,0.36301 -1.49377,1.30304 -1.68813,2.94413 l -0.16637,1.40472 0.89122,-0.63461 c 0.6478,-0.46128 1.32787,-0.65904 2.48997,-0.72409 1.92059,-0.10751 3.0301,0.38573 4.22162,1.87676 0.70187,0.87829 0.8212,1.26501 0.9055,2.93457 0.0787,1.55941 -0.008,2.1281 -0.45641,3.00796 -1.24374,2.43793 -4.00667,3.40096 -7.68686,2.67928 z m 3.4989,-3.11748 c 0.54913,-0.53827 0.85846,-2.08832 0.6124,-3.06872 -0.43759,-1.74348 -2.42246,-2.31667 -3.61746,-1.04465 -0.50235,0.53472 -0.64143,0.96972 -0.64143,2.00608 0,1.16762 0.10449,1.41667 0.88821,2.11692 0.97556,0.87166 1.86235,0.86856 2.75828,-0.01 z M 59.266659,151.12009 v -15.74271 h 46.566671 46.56666 v 15.74271 15.74271 H 105.83333 59.266659 Z m 92.604171,0.13229 v -15.34583 h -46.0375 -46.037504 v 15.34583 15.34583 h 46.037504 46.0375 z m -58.145745,-25.221 c -0.12899,-0.17121 -0.387834,-0.84608 -0.575209,-1.4997 -0.187376,-0.65362 -0.505876,-1.42426 -0.707782,-1.71252 -0.48714,-0.69549 -0.465016,-1.37051 0.05141,-1.56868 0.230182,-0.0883 1.093385,-0.1607 1.918229,-0.16081 1.11292,-1.5e-4 1.927469,-0.20257 3.158239,-0.78482 0.912188,-0.43154 1.725808,-0.95996 1.808046,-1.17427 0.08224,-0.21431 0.01492,-1.03801 -0.149582,-1.83045 -0.293907,-1.41575 -0.32534,-1.4525 -1.808049,-2.11421 -0.829916,-0.37038 -2.138614,-0.91999 -2.908218,-1.22136 l -1.399278,-0.54793 -1.037577,0.52933 c -1.244404,0.63485 -1.935469,0.66999 -2.390629,0.12155 -0.279437,-0.3367 -0.238964,-0.60695 0.232187,-1.55033 0.313839,-0.62841 0.570617,-1.48997 0.570617,-1.9146 0,-1.82944 1.602798,-2.53944 2.908577,-1.28842 0.378714,0.36283 1.382798,1.07773 2.231293,1.58867 l 1.542719,0.92898 -0.172056,-1.07599 c -0.09463,-0.59179 -0.04175,-1.55991 0.117517,-2.15137 0.268621,-0.99758 0.21984,-1.21279 -0.674124,-2.97403 -0.847799,-1.6703 -0.96621,-2.14152 -0.984617,-3.91825 -0.02601,-2.509731 0.772615,-4.330684 2.779447,-6.337517 4.951875,-4.95187 14.158935,-4.185559 18.051805,1.502463 1.64707,2.406597 1.79987,5.039094 0.47538,8.190134 -0.51528,1.22589 -0.67612,2.11459 -0.73026,4.03489 -0.0382,1.35451 -0.042,2.46274 -0.009,2.46274 0.62695,0 2.60664,-1.04117 3.33923,-1.75619 1.18567,-1.15722 1.85484,-1.10467 2.11474,0.1661 0.10352,0.50614 0.5108,1.19774 0.90508,1.53689 0.60759,0.52262 0.67484,0.70887 0.44115,1.22176 -0.22113,0.48533 -0.56272,0.63887 -1.72536,0.77551 -1.51902,0.17853 -5.47142,1.70969 -6.43644,2.49347 -0.35626,0.28935 -0.61552,0.88008 -0.70606,1.60878 l -0.14307,1.15153 2.29355,1.06273 c 1.26146,0.5845 2.76981,1.1155 3.35189,1.17999 2.08626,0.23116 2.24953,0.30998 2.24055,1.08166 -0.005,0.39741 -0.18323,0.95368 -0.39688,1.23615 -0.21365,0.28248 -0.38846,0.79632 -0.38846,1.14187 0,1.58932 -0.97662,2.07621 -2.2133,1.10344 -0.66091,-0.51987 -5.6455,-3.42036 -5.878,-3.42036 -0.0603,0 -0.70631,0.42872 -1.43567,0.95271 -3.03922,2.18347 -6.71114,2.23474 -9.56824,0.1336 -0.61456,-0.45195 -1.2157,-0.82172 -1.33587,-0.82172 -0.12018,0 -1.11156,0.37487 -2.203077,0.83305 -1.606576,0.67438 -2.063054,0.99844 -2.396617,1.70137 -0.459253,0.9678 -1.755809,1.61896 -2.158725,1.08416 z m 1.543304,-1.81236 c 0.309039,-0.68556 0.763445,-1.00014 2.476733,-1.7146 2.507458,-1.04565 2.787058,-1.27283 2.239936,-1.81995 -0.359119,-0.35912 -0.570214,-0.31469 -1.994329,0.41979 -1.043463,0.53815 -2.143207,0.87133 -3.189078,0.96617 l -1.596382,0.14475 0.351057,1.16648 c 0.193082,0.64156 0.422047,1.28133 0.50881,1.42172 0.30757,0.49766 0.829836,0.24402 1.203253,-0.58436 z m 24.587851,-0.43039 c 0,-0.55298 0.13083,-1.13625 0.29074,-1.29615 0.21125,-0.21126 0.0485,-0.34113 -0.59532,-0.47509 -0.48732,-0.1014 -2.00513,-0.65728 -3.3729,-1.2353 -1.95507,-0.8262 -2.53414,-0.97638 -2.70793,-0.7023 -0.50191,0.79153 -0.17126,1.20376 1.82135,2.27073 1.12779,0.60389 2.46724,1.39489 2.97656,1.75778 1.29951,0.92589 1.5875,0.8679 1.5875,-0.31967 z m -10.64459,-0.46242 c 2.21634,-0.92605 3.32166,-2.83239 3.87754,-6.68757 0.19701,-1.36629 -0.23592,-1.28126 -0.45845,0.09 -0.43295,2.66793 -2.57279,4.09365 -6.13596,4.08822 -3.50848,-0.005 -5.03984,-1.03676 -5.84367,-3.9359 -0.801463,-2.89058 -0.94279,-2.89639 -0.59524,-0.0245 0.41094,3.39571 1.81757,5.73647 3.96378,6.59608 1.00402,0.40213 4.10788,0.32656 5.192,-0.12642 z m -3.90749,-3.92782 c 0,-0.34823 -0.17859,-0.70168 -0.39688,-0.78544 -0.29785,-0.1143 -0.39687,0.0437 -0.39687,0.63315 0,0.52179 0.13322,0.78545 0.39687,0.78545 0.24222,0 0.39688,-0.24674 0.39688,-0.63316 z m 1.32292,0.10399 c 0,-0.35278 -0.17639,-0.52917 -0.52917,-0.52917 -0.35278,0 -0.52917,0.17639 -0.52917,0.52917 0,0.35278 0.17639,0.52917 0.52917,0.52917 0.35278,0 0.52917,-0.17639 0.52917,-0.52917 z m 3.07061,-0.63649 c 0.68346,-0.70374 0.83356,-1.0771 0.85461,-2.12583 0.0241,-1.19881 -0.001,-1.24783 -0.44072,-0.85021 -0.25644,0.23208 -1.08583,0.56497 -1.84309,0.73977 -1.17415,0.27102 -1.37683,0.40849 -1.37683,0.93383 0,0.7881 0.80915,0.8209 2.24111,0.0909 0.56655,-0.28884 1.09774,-0.45114 1.18043,-0.36066 0.0827,0.0905 -5.3e-4,0.21838 -0.18512,0.28421 -0.1845,0.0658 -0.48529,0.26953 -0.66843,0.45266 -0.18313,0.18314 -0.80608,0.4444 -1.38433,0.58057 -0.8107,0.19092 -1.07173,0.38956 -1.14034,0.86776 -0.0838,0.58441 -0.0307,0.60922 0.92234,0.43044 0.61979,-0.11628 1.33226,-0.5202 1.84037,-1.04339 z m -5.45186,0.10732 c 0,-0.43656 -0.11907,-0.79375 -0.26459,-0.79375 -0.29429,0 -0.36517,1.13413 -0.0882,1.41111 0.29892,0.29892 0.35278,0.20467 0.35278,-0.61736 z m -1.03765,-1.40806 c -0.20397,-0.20397 -0.28527,-0.0565 -0.28527,0.5173 0,1.04446 0.37125,1.41827 0.48371,0.48704 0.0477,-0.39549 -0.0415,-0.84745 -0.19844,-1.00434 z m -0.5904,-0.7086 c 0.006,-0.72761 -0.0945,-1.32292 -0.2226,-1.32292 -0.23446,0 -0.30991,2.07781 -0.0889,2.44739 0.23849,0.3988 0.30144,0.17155 0.31148,-1.12447 z m 2.58477,0.11683 c -0.0805,-0.20978 -0.26916,-0.38142 -0.41925,-0.38142 -0.39057,0 -0.33839,1.2563 0.0578,1.39256 0.37606,0.12933 0.58004,-0.44138 0.36141,-1.01114 z m 1.42453,0.54462 c 0,-0.48507 -0.14111,-0.66145 -0.52917,-0.66145 -0.38806,0 -0.52917,0.17638 -0.52917,0.66145 0,0.48507 0.14111,0.66146 0.52917,0.66146 0.38806,0 0.52917,-0.17639 0.52917,-0.66146 z m -2.38332,-0.46302 c -10e-4,-0.37507 -0.246,-0.70845 -0.66146,-0.90114 -0.58758,-0.27253 -0.65939,-0.2469 -0.65939,0.23541 0,0.49936 0.65847,1.23287 1.12448,1.25263 0.10914,0.005 0.19751,-0.25948 0.19637,-0.5869 z m 4.87986,-1.36491 c 0.49063,-0.20499 0.97084,-0.62098 1.06715,-0.92442 0.0963,-0.30344 1.0077,-1.09031 2.02532,-1.7486 2.08401,-1.34815 2.7856,-2.47147 2.45263,-3.92698 -0.24665,-1.07822 -0.2936,-9.431437 -0.053,-9.431439 0.10089,-3e-6 0.36271,0.255952 0.58183,0.568789 0.31555,0.45051 0.37018,1.12448 0.26271,3.24114 -0.14881,2.93085 0.10387,3.0136 0.81895,0.26823 0.46788,-1.79631 0.52115,-3.990723 0.12266,-5.053125 -0.87155,-2.323656 -3.46407,-4.439642 -6.41969,-5.239692 -2.51316,-0.68028 -6.14526,-0.480597 -8.16395,0.448829 -2.067572,0.951939 -3.76031,2.593506 -4.75241,4.608745 -0.737626,1.498333 -0.815123,1.870873 -0.696523,3.348373 0.07339,0.91436 0.381312,2.19436 0.684257,2.84444 l 0.55081,1.18198 -0.05271,-2.57121 c -0.04801,-2.34192 -2.65e-4,-2.62374 0.535257,-3.1603 0.717497,-0.718879 1.084443,-0.460373 0.6086,0.42875 -0.275428,0.51464 -0.289742,1.16032 -0.06891,3.10845 0.195511,1.72478 0.195238,3.14595 -7.94e-4,4.76019 -0.32561,2.6796 -0.127678,3.18678 1.714103,4.39228 0.60061,0.39312 1.57634,1.20584 2.1683,1.80606 0.59195,0.60022 1.25487,1.15637 1.47315,1.23589 0.82557,0.30073 4.27584,0.17569 5.14238,-0.18638 z m -4.12079,-2.0772 c -0.38848,-0.72587 -0.11741,-2.50907 0.50894,-3.348 1.07418,-1.43874 2.63592,-0.39927 2.89836,1.92911 0.18065,1.60274 -0.14367,1.95567 -1.79714,1.95567 -1.05835,0 -1.38034,-0.10734 -1.61016,-0.53678 z m -4.57577,-3.35136 c -0.27865,-0.30791 -0.515477,-1.11953 -0.59832,-2.05052 -0.116547,-1.30969 -0.05061,-1.65008 0.43939,-2.26851 1.24358,-1.56948 4.77445,-0.3943 4.7697,1.5875 -0.005,2.21692 -3.30656,4.17266 -4.61077,2.73153 z m 9.75031,0.25328 c -1.49169,-0.60346 -2.38046,-2.7022 -1.69037,-3.99165 0.58817,-1.09899 3.00951,-1.69445 4.23131,-1.04056 0.7189,0.38474 1.10453,1.99613 0.77266,3.22861 -0.47093,1.74888 -1.74058,2.43995 -3.3136,1.8036 z m 6.53472,3.54814 c 1.44676,-0.72661 2.93259,-1.26902 3.73731,-1.36433 l 1.33578,-0.1582 -0.69026,-0.50282 c -0.57791,-0.42098 -0.66299,-0.63916 -0.52271,-1.34054 l 0.16754,-0.83773 -1.08698,0.93042 c -0.59783,0.51172 -1.85239,1.20062 -2.7879,1.53089 -2.29331,0.8096 -2.82946,1.22074 -2.82946,2.16968 0,0.42831 0.0619,0.77874 0.13758,0.77874 0.0757,0 1.21826,-0.54275 2.5391,-1.20611 z m -17.806503,0.21405 c -0.07016,-0.60967 -0.426476,-0.91047 -2.200386,-1.85752 -1.164167,-0.62152 -2.720692,-1.54431 -3.458946,-2.05064 -0.738256,-0.50634 -1.404516,-0.92061 -1.480579,-0.92061 -0.07606,0 -0.126883,0.50602 -0.112929,1.12448 0.01765,0.78221 -0.161317,1.38622 -0.587957,1.98438 -0.65713,0.9213 -0.33908,1.16319 0.597752,0.4546 0.844962,-0.6391 2.008108,-0.42613 4.381201,0.80217 2.687571,1.39107 2.973967,1.43742 2.861844,0.46314 z"
         id="path99"
         inkscape:connector-curvature="0" />
      <path
         style="fill:#020202;stroke-width:0.26458335"
         d="M 66.299448,187.35495 C 44.677872,165.86702 26.988243,148.20928 26.989161,148.11553 c 0.002,-0.20157 78.528009,-78.184872 78.848979,-78.304016 0.22552,-0.08371 78.84201,77.923156 78.83978,78.228426 -0.002,0.20013 -78.52866,78.18391 -78.84854,78.3029 -0.11988,0.0446 -17.908356,-17.49995 -39.529932,-38.98789 z m 78.801702,-0.38353 c 21.47686,-21.31864 39.04884,-38.83708 39.04884,-38.92987 0,-0.31358 -78.07654,-77.78768 -78.3074,-77.703168 -0.32573,0.119245 -78.325209,77.571298 -78.325604,77.775888 -6.03e-4,0.31221 78.077844,77.78611 78.308014,77.70169 0.12502,-0.0459 17.79929,-17.5259 39.27615,-38.84454 z m -73.928368,-4.36604 -34.527491,-34.52826 34.594018,-34.59401 34.594021,-34.594021 34.59401,34.594021 34.59402,34.59401 -34.52749,34.52826 c -18.99012,18.99054 -34.58737,34.52825 -34.66054,34.52825 -0.0732,0 -15.670428,-15.53771 -34.660548,-34.52825 z m 68.527338,-0.79375 33.73373,-33.73451 -33.80026,-33.80026 -33.80026,-33.800265 -33.800266,33.800265 -33.800261,33.80026 33.733727,33.73451 c 18.553549,18.55397 33.79361,33.7345 33.8668,33.7345 0.0732,0 15.31324,-15.18053 33.86679,-33.7345 z m -34.99987,23.67108 c -1.32504,-0.33184 -2.30993,-0.86078 -3.02119,-1.62255 -2.29467,-2.45763 -2.555604,-9.02081 -0.48345,-12.16016 1.00643,-1.52476 2.9455,-2.34762 5.53217,-2.34762 2.70832,0 4.11912,0.62187 5.06241,2.23147 0.36175,0.61727 0.65772,1.18946 0.65772,1.27153 0,0.0821 -0.74414,0.229 -1.65365,0.32652 -0.9095,0.0975 -1.8524,0.23325 -2.09532,0.30162 -0.28169,0.0793 -0.5046,-0.0739 -0.61538,-0.42296 -0.0955,-0.30101 -0.4672,-0.73959 -0.82593,-0.97463 -1.30996,-0.85832 -2.64609,0.43541 -2.93059,2.83757 l -0.16637,1.40472 0.90247,-0.64365 c 0.75179,-0.53618 1.21516,-0.64365 2.77516,-0.64365 1.64464,0 1.99128,0.0905 2.84671,0.74293 2.41939,1.84536 2.7828,5.88616 0.73881,8.21491 -1.13805,1.29659 -4.50469,2.03964 -6.72357,1.48395 z m 3.27009,-3.14539 c 0.60492,-0.60492 0.7734,-1.01125 0.7734,-1.86523 0,-1.22753 -0.55842,-2.50612 -1.20248,-2.75327 -1.74655,-0.67022 -3.16314,0.46036 -3.16314,2.5245 0,1.16027 0.10645,1.41841 0.86407,2.09535 1.09078,0.97461 1.75251,0.97429 2.72815,-0.001 z M 59.266659,151.12009 v -15.74271 h 46.566671 46.56666 v 15.74271 15.74271 H 105.83333 59.266659 Z m 92.604171,0.13229 v -15.34583 h -46.0375 -46.037504 v 15.34583 15.34583 h 46.037504 46.0375 z"
         id="path97"
         inkscape:connector-curvature="0" />
    </g>
  </g>
</svg>
