<?xml version="1.0" encoding="UTF-8" standalone="no"?>
<!-- Created with Inkscape (http://www.inkscape.org/) -->

<svg
   xmlns:dc="http://purl.org/dc/elements/1.1/"
   xmlns:cc="http://creativecommons.org/ns#"
   xmlns:rdf="http://www.w3.org/1999/02/22-rdf-syntax-ns#"
   xmlns:svg="http://www.w3.org/2000/svg"
   xmlns="http://www.w3.org/2000/svg"
   xmlns:sodipodi="http://sodipodi.sourceforge.net/DTD/sodipodi-0.dtd"
   xmlns:inkscape="http://www.inkscape.org/namespaces/inkscape"
   width="270.93332mm"
   height="270.93332mm"
   viewBox="0 0 270.93332 270.93333"
   version="1.1"
   id="svg82"
   inkscape:version="0.92.4 (5da689c313, 2019-01-14)"
   sodipodi:docname="Class_4_Flammable_Solid.svg">
  <defs
     id="defs76" />
  <sodipodi:namedview
     id="base"
     pagecolor="#ffffff"
     bordercolor="#666666"
     borderopacity="1.0"
     inkscape:pageopacity="0.0"
     inkscape:pageshadow="2"
     inkscape:zoom="0.35"
     inkscape:cx="302.85718"
     inkscape:cy="226.57145"
     inkscape:document-units="mm"
     inkscape:current-layer="layer1"
     showgrid="false"
     inkscape:window-width="1920"
     inkscape:window-height="1017"
     inkscape:window-x="-8"
     inkscape:window-y="-8"
     inkscape:window-maximized="1" />
  <metadata
     id="metadata79">
    <rdf:RDF>
      <cc:Work
         rdf:about="">
        <dc:format>image/svg+xml</dc:format>
        <dc:type
           rdf:resource="http://purl.org/dc/dcmitype/StillImage" />
        <dc:title></dc:title>
      </cc:Work>
    </rdf:RDF>
  </metadata>
  <g
     inkscape:label="Layer 1"
     inkscape:groupmode="layer"
     id="layer1"
     transform="translate(-25.702372,62.152973)">
    <g
       id="g95"
       transform="matrix(1.7066667,0,0,1.7181207,-11.712222,-148.63069)">
      <path
         style="fill:#fefefe;stroke-width:0.26458335"
         d="M 21.922613,129.17857 V 50.332737 h 79.374997 79.375 v 78.845833 78.84584 h -79.375 -79.374997 z"
         id="path111"
         inkscape:connector-curvature="0" />
      <path
         style="fill:#eb938d;stroke-width:0.26458335"
         d="m 61.631251,168.58881 c -21.69423,-21.56057 -39.44346,-39.27787 -39.442732,-39.37178 0.0016,-0.20113 78.791891,-78.449333 79.112921,-78.568567 0.22535,-0.0837 79.10763,78.186687 79.10527,78.491647 -0.002,0.20113 -78.7919,78.44934 -79.11292,78.56857 -0.12017,0.0446 -17.968309,-17.55931 -39.662539,-39.11987 z m 41.046339,36.86586 1.26586,-1.24683 v -4.10104 -4.10104 l -1.32499,1.30506 -1.32499,1.30507 -2.206729,-2.19526 -2.206722,-2.19526 -0.170572,1.80629 c -0.09382,0.99346 -0.171418,2.79029 -0.172453,3.99296 l -0.0019,2.18667 2.315104,2.23763 c 1.273302,1.23069 2.370542,2.24099 2.438302,2.2451 0.0678,0.004 0.69284,-0.5536 1.38907,-1.23935 z m 15.55336,-19.64791 v -4.10104 l -3.57188,3.56452 -3.57187,3.56452 v 4.10104 4.10105 l 3.57187,-3.56453 3.57188,-3.56452 z m -15.55336,9.32915 1.26586,-1.24682 v -2.32505 -2.32505 h -0.79375 c -0.78574,0 -0.79375,-0.0147 -0.79375,-1.45521 v -1.45521 h -2.778129 -2.778125 v 2.83875 2.83874 l 2.176971,2.18834 c 1.197333,1.20359 2.235043,2.18834 2.306013,2.18834 0.071,0 0.69869,-0.56107 1.39491,-1.24683 z m -13.021644,-4.11453 v -4.03844 l -3.704166,-3.69708 -3.704167,-3.69707 v 4.22624 4.22624 l 3.502054,3.50928 c 1.926127,1.9301 3.593002,3.50927 3.704167,3.50927 0.111162,0 0.202112,-1.8173 0.202112,-4.03844 z m 28.575004,-27.38483 v -15.9525 l 3.50573,0.0738 3.50572,0.0738 0.0688,12.29677 0.0688,12.29677 3.56919,-3.56184 3.5692,-3.56185 v -8.80107 -8.80107 h 3.57187 3.57188 v 5.22184 5.22184 l 3.57187,-3.56452 3.57188,-3.56452 v -21.83548 -21.83548 l -3.57188,-3.56452 -3.57187,-3.56452 v 8.26455 8.26456 h -3.57188 -3.57187 v -11.8436 -11.843652 l -3.70417,-3.697079 -3.70417,-3.697078 v 15.540729 15.54073 h -3.57187 -3.57188 v -11.93865 c 0,-10.559575 -0.0456,-11.900764 -0.39519,-11.610666 -0.73337,0.608642 -1.92379,3.025888 -3.12788,6.351394 -1.53166,4.230222 -1.87287,5.023192 -2.83282,6.583292 -0.70468,1.14527 -0.78786,1.50779 -0.78786,3.43399 v 2.15355 h 1.98438 1.98437 v 0.92604 0.92605 h -1.98437 -1.98438 v 1.5875 1.5875 h -3.43958 -3.43958 v -1.5875 -1.5875 h -3.57188 -3.571874 v 1.5875 1.5875 h -3.571875 -3.571875 v -1.5875 -1.5875 h -0.79375 c -0.730752,0 -0.79375,-0.0735 -0.79375,-0.92605 0,-0.85254 0.063,-0.92604 0.79375,-0.92604 h 0.79375 v -3.13837 c 0,-3.09544 -0.01418,-3.16874 -1.035481,-5.35782 -0.569516,-1.22069 -1.216358,-2.81475 -1.437431,-3.54235 -0.22107,-0.727604 -0.657381,-2.156355 -0.969579,-3.175 -0.754322,-2.461223 -1.980546,-4.922187 -3.062748,-6.146766 l -0.881067,-0.996985 -0.01101,13.692191 -0.01102,13.69219 h -3.43952 -3.439584 v -14.4824 -14.482392 l -3.704166,3.697078 -3.704167,3.697079 v 10.785315 10.78532 h -3.571875 -3.571875 v -7.20623 -7.20621 l -3.571875,3.56452 -3.571875,3.56452 v 19.71881 19.71881 l 3.564686,3.55735 3.564687,3.55735 0.07333,-4.09019 0.07334,-4.09019 3.505729,-0.0738 3.505729,-0.0738 v 7.75028 7.75029 l 3.704167,3.69708 3.704166,3.69708 v -11.43969 -11.43968 h 3.439584 3.439583 v 14.88635 14.88636 l 3.704167,3.69708 3.704166,3.69708 V 166.27521 147.6841 l 3.505729,0.0738 3.50573,0.0738 0.06825,15.69455 0.06825,15.69455 2.805437,-3.32528 c 2.398137,-2.8425 2.916417,-3.32528 3.569777,-3.32528 h 0.76433 v -12.43542 -12.43541 h 3.40273 3.40273 l 0.16684,1.38906 c 0.0918,0.76398 0.16788,9.54319 0.16915,19.50934 l 0.002,18.12029 3.57187,-3.56453 3.57188,-3.56452 z m 14.2875,8.015 v -4.23333 l -3.57188,3.56452 -3.57187,3.56452 v 4.23334 4.23333 l 3.57187,-3.56452 3.57188,-3.56453 z m -30.1625,8.6915 c 0,-2.65579 0.0878,-2.66712 -2.371528,0.3061 l -1.633878,1.97526 h 2.002706 2.0027 z M 71.671294,169.0077 67.960113,165.29652 v 4.22875 4.22874 l 3.638021,3.64553 3.638021,3.64553 0.07316,-4.1631 0.07316,-4.16309 z m 75.134656,-11.64365 v -4.23333 l -3.57188,3.56452 -3.57187,3.56452 v 4.23333 4.23334 l 3.57187,-3.56452 3.57188,-3.56453 z m -89.554451,-2.77606 -3.578886,-3.57889 v 4.40862 4.40862 l 3.505729,3.3252 3.505729,3.3252 0.07316,-4.15493 0.07316,-4.15493 z M 161.09345,143.07655 v -4.23333 l -3.57188,3.56452 -3.57187,3.56452 v 4.23333 4.23334 l 3.57187,-3.56452 3.57188,-3.56453 z M 42.963821,140.30031 39.385113,136.7216 v 4.36088 4.36087 l 3.505729,3.51347 3.505729,3.51346 0.07298,-4.29563 0.07298,-4.29563 z M 161.09345,129.17857 v -7.54798 l -3.57188,-3.56452 -3.57187,-3.56452 v 14.67702 14.67702 l 3.57187,-3.56452 3.57188,-3.56452 z M 46.528863,129.1161 v -12.49788 l -3.571875,3.56452 -3.571875,3.56452 v 5.42409 5.42409 l 3.502053,3.50927 c 1.926129,1.93011 3.533473,3.50928 3.571875,3.50928 0.0384,0 0.06982,-5.62405 0.06982,-12.49789 z m 127.529167,0.0625 v -5.43298 l -2.91042,-2.90139 -2.91041,-2.90139 v 4.35202 4.35202 l 1.24682,1.26586 1.24683,1.26586 -1.24683,1.26586 -1.24682,1.26586 v 4.35202 4.35203 l 2.91041,-2.90139 2.91042,-2.90139 z M 32.230183,129.1232 v -9.05119 l -2.507952,2.49753 -2.507951,2.49752 v 4.10129 4.1013 l 2.44217,2.45237 c 1.343194,1.3488 2.471772,2.45237 2.507952,2.45237 0.03618,0 0.06578,-4.07304 0.06578,-9.05119 z m 14.29868,-18.855 v -4.23334 l -3.571875,3.56452 -3.571875,3.56453 v 4.23333 4.23333 l 3.571875,-3.56452 3.571875,-3.56452 z m 110.999537,-3.04083 -3.5787,-3.57871 v 4.36088 4.36088 l 3.50573,3.51346 3.50572,3.51346 0.073,-4.29563 0.073,-4.29563 z m -53.58481,4.29024 c 8e-5,-0.10914 -1.16078,-0.19843 -2.57968,-0.19843 -1.418913,0 -3.026323,-0.0947 -3.572026,-0.21043 -0.809268,-0.17163 -0.992188,-0.13505 -0.992188,0.19844 0,0.34857 0.526714,0.40886 3.571874,0.40886 1.96453,0 3.57194,-0.0893 3.57202,-0.19844 z m -0.30637,-0.70186 c 0.2073,-0.12812 0.29492,-2.74796 0.29455,-8.80716 -2.6e-4,-4.743631 -0.08,-8.54527 -0.17722,-8.448088 -0.0972,0.09718 -0.30279,1.622427 -0.45692,3.389434 -0.15412,1.767007 -0.40212,3.253354 -0.55111,3.302984 -0.37142,0.12374 -1.53671,-6.45873 -1.56139,-8.819959 -0.0155,-1.477603 -0.0922,-1.834748 -0.34864,-1.622825 -0.63586,0.525436 -0.898362,2.407446 -0.81416,5.837254 0.0597,2.431862 -0.005,3.479868 -0.220057,3.554359 -0.167595,0.0581 -0.88197,-0.676235 -1.5875,-1.631857 -1.36624,-1.850538 -1.760742,-1.785364 -0.929614,0.153577 0.710578,1.657715 0.928092,2.792841 0.576771,3.009961 -0.160415,0.0991 -0.465043,0.0364 -0.676947,-0.1395 -0.334767,-0.27783 -0.385287,0.27234 -0.385287,4.1958 0,4.31069 0.0272,4.54719 0.599499,5.21252 0.329721,0.38333 1.01433,0.80152 1.521354,0.92933 1.009893,0.25456 4.245941,0.17509 4.716671,-0.11583 z M 60.816363,95.980716 v -4.233334 l -3.571875,3.564523 -3.571875,3.564522 v 4.233333 4.23333 l 3.571875,-3.56452 3.571875,-3.56452 z m 82.490677,-2.803467 -3.51255,-3.343672 -0.0731,4.117663 -0.0731,4.117665 3.51273,3.520475 3.51273,3.52048 0.073,-4.29447 0.073,-4.294469 z m -27.1098,-2.032532 c 0.67547,-0.618464 1.34986,-1.124479 1.49863,-1.124479 0.17598,0 0.27049,-2.011945 0.27049,-5.758363 V 78.50351 l -3.57187,-3.564522 -3.57188,-3.564524 0.009,10.447365 c 0.009,10.436337 0.009,10.446706 0.53093,9.820567 0.91258,-1.095534 1.79585,-5.137251 1.85786,-8.501325 0.0267,-1.44667 0.0289,-1.450488 0.38036,-0.650486 0.19445,0.442595 0.48157,1.725253 0.63806,2.850348 0.34124,2.453431 0.0712,4.740585 -0.89385,7.569918 -0.36854,1.080516 -0.67008,2.075878 -0.67008,2.211919 0,0.136041 0.51625,-0.450361 1.14721,-1.303113 0.63096,-0.852755 1.69986,-2.056476 2.37534,-2.67494 z m -27.757181,1.6413 c -0.515332,-1.676995 -2.508255,-11.036083 -2.3778,-11.166536 0.217046,-0.217048 2.06801,1.665145 2.702899,2.748503 0.372067,0.634886 0.724704,1.154337 0.783637,1.154337 0.05893,0 0.107151,-2.707076 0.107151,-6.015725 v -6.015728 l -3.704166,3.697078 -3.704167,3.697078 v 3.741984 3.741986 l 1.256771,0.997141 c 0.691224,0.548426 2.123599,1.888675 3.183054,2.978333 1.059452,1.089654 1.977821,1.929651 2.040816,1.866656 0.06299,-0.06299 -0.06669,-0.704294 -0.288195,-1.425107 z M 75.368446,81.623262 c 0,-2.221142 -0.09095,-4.038441 -0.202112,-4.038441 -0.111165,0 -1.77804,1.579174 -3.704167,3.509277 l -3.502054,3.509275 v 4.226242 4.226243 l 3.704167,-3.697079 3.704166,-3.697078 z M 128.82129,78.78478 125.11011,75.0736 v 4.228748 4.228748 l 3.63802,3.645527 3.63802,3.645527 0.0732,-4.163097 0.0732,-4.163094 z m -30.442814,3.766836 c 0.148119,-0.912727 0.271182,-2.731066 0.273476,-4.040753 0.0069,-3.913989 0.455565,-6.950367 1.292145,-8.743783 0.677543,-1.452486 2.347483,-3.711903 2.575183,-3.484205 0.0511,0.0511 -0.0931,0.977834 -0.32038,2.059407 -0.60509,2.879138 -0.1951,5.745251 1.3221,9.242539 0.37272,0.859168 0.40248,0.418991 0.41209,-6.095363 l 0.0104,-7.021405 -1.32499,-1.305066 -1.32499,-1.305067 -2.24689,2.235213 -2.246884,2.235213 v 9.70764 c 0,5.3392 0.07866,9.912634 0.174811,10.163187 0.241829,0.630195 1.050874,-1.471729 1.403969,-3.647557 z M 89.655946,67.27316 v -4.101042 l -3.704166,3.697078 -3.704167,3.697077 v 4.101042 4.101043 l 3.704167,-3.697079 3.704166,-3.697077 z m 24.745554,-2.908088 -3.57889,-3.578888 v 4.228584 4.228583 l 3.50573,3.51349 3.50573,3.513489 0.0732,-4.163185 0.0732,-4.163185 z m -11.78304,-3.318752 1.32499,1.305066 v -4.101041 -4.101042 l -1.32499,-1.305066 -1.32499,-1.305067 -2.24689,2.235213 -2.246884,2.235213 v 4.101042 4.101041 l 2.246884,-2.235212 2.24689,-2.235213 z"
         id="path109"
         inkscape:connector-curvature="0" />
      <path
         style="fill:#a1a1a1;stroke-width:0.26458335"
         d="m 61.631251,168.58881 c -21.69423,-21.56057 -39.44346,-39.27787 -39.442732,-39.37178 0.0016,-0.20113 78.791891,-78.449333 79.112921,-78.568567 0.22535,-0.0837 79.10763,78.186687 79.10527,78.491647 -0.002,0.20113 -78.7919,78.44934 -79.11292,78.56857 -0.12017,0.0446 -17.968309,-17.55931 -39.662539,-39.11987 z m 41.046339,36.86586 1.26586,-1.24683 v -4.10104 -4.10104 l -1.32516,1.30523 -1.32515,1.30522 -2.379013,-2.36799 -2.379014,-2.36799 v 4.19248 4.19249 l 2.315104,2.2062 c 1.273303,1.21341 2.370543,2.21157 2.438303,2.21814 0.0678,0.007 0.69285,-0.54912 1.38907,-1.23487 z m 15.55336,-19.64118 v -4.09404 l -3.66606,3.56133 -3.66605,3.56133 -0.0381,4.22979 -0.0381,4.22979 3.70417,-3.69707 3.70417,-3.69708 z m -15.55336,9.32242 1.26586,-1.24682 v -2.32505 -2.32505 h -0.79375 c -0.78574,0 -0.79375,-0.0147 -0.79375,-1.45521 v -1.45521 h -2.91042 -2.910417 v 2.70675 2.70674 l 2.309588,2.32034 c 1.270269,1.27619 2.367509,2.32034 2.438309,2.32034 0.0708,0 0.69836,-0.56107 1.39458,-1.24683 z M 85.958794,183.2952 82.247613,179.58402 v 4.22875 4.22874 l 3.638021,3.64553 3.638021,3.64553 0.07316,-4.1631 0.07316,-4.16309 z m 32.272156,-19.51881 v -15.8124 h 3.43958 3.43958 v 12.36572 12.36573 l 3.70417,-3.69708 3.70417,-3.69707 v -8.66865 -8.66865 h 3.57187 3.57188 v 5.08968 5.08969 l 3.70416,-3.69708 3.70417,-3.69708 v -21.57063 -21.57063 l -3.70417,-3.69708 -3.70416,-3.69708 v 8.26469 8.26469 h -3.57188 -3.57187 V 104.89951 93.055858 l -3.70417,-3.697079 -3.70417,-3.697078 v 15.540729 15.54073 h -3.43958 -3.43958 v -6.30734 c 0,-3.46904 -0.0784,-8.82575 -0.17429,-11.903796 -0.14399,-4.623353 -0.23571,-5.545484 -0.52749,-5.303324 -0.69276,0.574942 -1.90663,3.059628 -3.08588,6.316538 -1.53166,4.230222 -1.87287,5.023192 -2.83282,6.583292 -0.70468,1.14527 -0.78786,1.50779 -0.78786,3.43399 v 2.15355 h 1.98438 1.98437 v 0.92604 0.92605 h -1.98437 -1.98438 v 1.5875 1.5875 h -3.43958 -3.43958 v -1.5875 -1.5875 h -3.70417 -3.704167 v 1.5875 1.5875 H 93.09553 89.655946 v -1.5875 -1.5875 h -0.79375 c -0.730752,0 -0.79375,-0.0735 -0.79375,-0.92605 0,-0.85254 0.063,-0.92604 0.79375,-0.92604 h 0.79375 v -3.13837 c 0,-3.09544 -0.01418,-3.16874 -1.035481,-5.35782 -0.569516,-1.22069 -1.216358,-2.81475 -1.437431,-3.54235 -0.22107,-0.727604 -0.657381,-2.156355 -0.969579,-3.175 -0.754322,-2.461223 -1.980546,-4.922187 -3.062748,-6.146766 l -0.881067,-0.996985 -0.01101,13.692191 -0.01102,13.69219 h -3.43958 -3.439584 v -14.4824 -14.482392 l -3.704166,3.697078 -3.704167,3.697079 v 10.785315 10.78532 H 64.52053 61.080946 v -7.33865 -7.33864 l -3.704166,3.69708 -3.704167,3.69708 v 19.71854 19.71855 l 3.704167,3.69708 3.704166,3.69708 v -4.16365 -4.16364 h 3.439584 3.439583 v 7.61032 7.61031 l 3.704167,3.69708 3.704166,3.69708 v -11.3074 -11.30739 h 3.439584 3.439583 v 14.75407 14.75406 l 3.704167,3.69708 3.704166,3.69708 v -18.45115 -18.45114 h 3.437501 3.437501 l 0.06823,15.71852 0.06823,15.71851 2.86993,-3.41539 c 2.465472,-2.93407 2.978172,-3.41539 3.638022,-3.41539 h 0.76809 v -12.30313 -12.30312 h 3.43958 3.43958 v 19.50947 19.50948 l 3.70417,-3.69708 3.70417,-3.69707 z m 14.22836,7.93284 -0.0732,-4.15188 -3.61469,3.58817 -3.6147,3.58817 0.14971,4.10185 0.14971,4.10185 3.53815,-3.53814 3.53814,-3.53815 z m -30.10336,8.63382 c 0,-2.65579 0.0878,-2.66712 -2.371528,0.3061 l -1.633878,1.97526 h 2.002706 2.0027 z M 71.671294,169.0077 67.960113,165.29652 v 4.22875 4.22874 l 3.638021,3.64553 3.638021,3.64553 0.07316,-4.1631 0.07316,-4.16309 z m 75.399236,-11.9085 v -4.23333 l -3.70417,3.69708 -3.70416,3.69708 v 4.23333 4.23333 l 3.70416,-3.69708 3.70417,-3.69707 z m -89.621305,-2.32842 -3.64432,-3.61754 -0.08296,4.29235 -0.08296,4.29236 3.654836,3.49998 3.654835,3.49999 0.07244,-4.1748 0.07245,-4.17479 z m 103.870695,-11.83033 0.0381,-4.36208 -3.70417,3.69708 -3.70416,3.69708 v 4.22633 4.22634 l 3.66605,-3.56134 3.66605,-3.56133 z M 42.963821,140.30031 39.385113,136.7216 v 4.36088 4.36087 l 3.505729,3.51347 3.505729,3.51346 0.07298,-4.29563 0.07298,-4.29563 z M 161.35803,129.17857 v -7.28313 l -3.70417,-3.69708 -3.70416,-3.69708 v 14.67729 14.67729 l 3.70416,-3.69708 3.70417,-3.69708 z M 46.528863,129.1161 v -12.49788 l -3.571875,3.56452 -3.571875,3.56452 v 5.42409 5.42409 l 3.502053,3.50927 c 1.926129,1.93011 3.533473,3.50928 3.571875,3.50928 0.0384,0 0.06982,-5.62405 0.06982,-12.49789 z m 127.529167,0.0625 v -5.43298 l -2.91042,-2.90139 -2.91041,-2.90139 v 4.35202 4.35202 l 1.24682,1.26586 1.24683,1.26586 -1.24683,1.26586 -1.24682,1.26586 v 4.35202 4.35203 l 2.91041,-2.90139 2.91042,-2.90139 z M 32.230183,129.1232 v -9.05119 l -2.507952,2.49753 -2.507951,2.49752 v 4.10129 4.1013 l 2.44217,2.45237 c 1.343194,1.3488 2.471772,2.45237 2.507952,2.45237 0.03618,0 0.06578,-4.07304 0.06578,-9.05119 z m 14.29868,-18.855 v -4.23334 l -3.571875,3.56452 -3.571875,3.56453 v 4.23333 4.23333 l 3.571875,-3.56452 3.571875,-3.56452 z m 111.131827,-2.90862 -3.71099,-3.711 v 4.36104 4.36104 l 3.63802,3.6455 3.63802,3.6455 0.073,-4.29554 0.073,-4.29554 z m -53.7171,4.15803 c 8e-5,-0.10914 -1.16078,-0.19843 -2.57968,-0.19843 -1.418913,0 -3.085854,-0.0998 -3.704318,-0.2217 -0.94389,-0.18609 -1.124479,-0.15422 -1.124479,0.19844 0,0.36378 0.496832,0.42013 3.704167,0.42013 2.03729,0 3.70423,-0.0893 3.70431,-0.19844 z m -0.30637,-0.70186 c 0.2073,-0.12812 0.29492,-2.74796 0.29455,-8.80716 -2.6e-4,-4.743631 -0.08,-8.54527 -0.17722,-8.448088 -0.0972,0.09718 -0.30279,1.622427 -0.45692,3.389434 -0.15412,1.767007 -0.40212,3.253354 -0.55111,3.302984 -0.37142,0.12374 -1.53671,-6.45873 -1.56139,-8.819959 -0.0155,-1.477603 -0.0922,-1.834748 -0.34864,-1.622825 -0.63586,0.525436 -0.898362,2.407446 -0.81416,5.837254 0.0597,2.431862 -0.005,3.479868 -0.220057,3.554359 -0.167595,0.0581 -0.88197,-0.676235 -1.5875,-1.631857 -1.36624,-1.850538 -1.760742,-1.785364 -0.929614,0.153577 0.710578,1.657715 0.928092,2.792841 0.576771,3.009961 -0.160415,0.0991 -0.4474,0.051 -0.637744,-0.10696 -0.278389,-0.23104 -0.379312,0.13969 -0.515991,1.89545 -0.485081,6.23134 -0.05385,7.82719 2.275944,8.42266 0.956355,0.24444 4.194171,0.15479 4.653081,-0.12883 z m -42.594387,-14.971153 0.03811,-4.362083 -3.704166,3.697079 -3.704167,3.697079 v 4.226338 4.22633 l 3.666053,-3.56133 3.666051,-3.56133 z m 82.396527,-2.541175 -3.64487,-3.470619 -0.0731,4.118163 -0.0731,4.118165 3.64503,3.652519 3.64502,3.65251 0.073,-4.30006 0.073,-4.300059 z m -27.24212,-2.158725 c 0.67547,-0.618464 1.34986,-1.124479 1.49863,-1.124479 0.17598,0 0.27049,-2.011945 0.27049,-5.758363 V 78.50351 l -3.57187,-3.564522 -3.57188,-3.564524 0.008,10.579657 0.008,10.579659 0.64525,-1.050468 c 0.82465,-1.34253 1.42683,-3.999584 1.64129,-7.242016 0.15683,-2.371098 0.1928,-2.497384 0.49873,-1.750711 0.18134,0.442595 0.45774,1.725253 0.61423,2.850348 0.34124,2.453431 0.0712,4.740585 -0.89385,7.569918 -0.36855,1.080516 -0.67008,2.075878 -0.67008,2.211919 0,0.136041 0.51624,-0.450361 1.14721,-1.303113 0.63096,-0.852755 1.69986,-2.056476 2.37533,-2.67494 z m -27.757181,1.6413 c -0.515332,-1.676995 -2.508255,-11.036083 -2.3778,-11.166536 0.237921,-0.237924 2.116122,1.732307 2.818117,2.956203 l 0.770604,1.343512 0.0024,-6.214163 0.0026,-6.214165 -3.704166,3.697078 -3.704167,3.697078 v 3.849103 3.849101 l 0.84777,0.50079 c 0.466273,0.275436 1.906553,1.559576 3.200625,2.853645 1.294069,1.294069 2.396487,2.30922 2.449817,2.25589 0.05333,-0.05333 -0.08426,-0.686723 -0.305766,-1.407536 z M 75.368446,81.428368 v -4.233334 l -3.704166,3.697079 -3.704167,3.697078 v 4.233334 4.233333 l 3.704167,-3.697079 3.704166,-3.697078 z M 128.82129,78.78478 125.11011,75.0736 v 4.228748 4.228748 l 3.63802,3.645527 3.63802,3.645527 0.0732,-4.163097 0.0732,-4.163094 z m -30.442814,3.766836 c 0.148119,-0.912727 0.271182,-2.731066 0.273476,-4.040753 0.0069,-3.913989 0.455565,-6.950367 1.292145,-8.743783 0.677543,-1.452486 2.347483,-3.711903 2.575183,-3.484205 0.0511,0.0511 -0.0931,0.977834 -0.32038,2.059407 -0.60509,2.879138 -0.1951,5.745251 1.3221,9.242539 0.37272,0.859168 0.40248,0.418991 0.41209,-6.095363 l 0.0104,-7.021405 -1.32499,-1.305066 -1.32499,-1.305067 -2.24689,2.235213 -2.246884,2.235213 v 9.70764 c 0,5.3392 0.07866,9.912634 0.174811,10.163187 0.241829,0.630195 1.050874,-1.471729 1.403969,-3.647557 z M 89.655946,67.27316 v -4.101042 l -3.704166,3.697078 -3.704167,3.697077 v 4.101042 4.101043 l 3.704167,-3.697079 3.704166,-3.697077 z m 24.745554,-2.908088 -3.57889,-3.578888 v 4.228584 4.228583 l 3.50573,3.51349 3.50573,3.513489 0.0732,-4.163185 0.0732,-4.163185 z m -11.78304,-3.318752 1.32499,1.305066 v -4.101041 -4.101042 l -1.32499,-1.305066 -1.32499,-1.305067 -2.24689,2.235213 -2.246884,2.235213 v 4.101042 4.101041 l 2.246884,-2.235212 2.24689,-2.235213 z"
         id="path107"
         inkscape:connector-curvature="0" />
      <path
         style="fill:#e15d53;stroke-width:0.26458335"
         d="M 61.66004,168.50409 22.157278,129.31086 56.634216,94.980461 C 75.596533,76.098741 93.43353,58.402172 96.27199,55.654753 l 5.16083,-4.995307 39.50192,39.193416 39.50192,39.193418 -34.47629,34.3304 c -18.96197,18.88172 -36.79858,36.57821 -39.63693,39.32552 l -5.16064,4.99511 z m 42.28341,31.46951 v -4.23243 l -1.32499,1.30507 -1.32499,1.30507 -2.186268,-2.17491 c -1.202447,-1.1962 -2.273078,-2.17491 -2.379179,-2.17491 -0.1061,0 -0.19291,1.87288 -0.19291,4.16195 v 4.16196 l 2.308199,2.31894 2.308198,2.31894 1.39597,-1.37863 1.39597,-1.37863 z m 10.77822,-6.29916 3.50928,-3.50206 v -4.36575 -4.36576 l -3.70417,3.69708 -3.70417,3.69708 v 4.17073 c 0,2.2939 0.0877,4.17073 0.19489,4.17073 0.10719,0 1.77407,-1.57592 3.70417,-3.50205 z m -12.04408,1.72606 1.26586,-1.24683 v -2.45734 -2.45734 h -0.79375 -0.79375 v -1.59645 -1.59645 l -2.844275,0.0751 -2.84427,0.0751 -0.07535,2.86894 -0.07535,2.86894 2.30604,2.35658 c 1.268315,1.29612 2.369695,2.35658 2.447505,2.35658 0.0778,0 0.71111,-0.56107 1.40733,-1.24682 z m -16.718979,-12.37006 -3.710998,-3.711 v 4.36103 4.36104 l 3.638021,3.64551 3.638021,3.6455 0.07298,-4.29554 0.07298,-4.29555 z m 28.763059,0.32525 3.50928,-3.50206 v -15.94482 -15.94482 h 3.43958 3.43958 v 12.30312 c 0,6.76672 0.0877,12.30313 0.19489,12.30313 0.10719,0 1.77407,-1.57592 3.70417,-3.50205 l 3.50928,-3.50206 v -8.80107 -8.80107 h 3.57187 3.57188 l 0.002,5.22552 0.002,5.22552 3.70169,-3.72278 3.70188,-3.72278 v -21.7909 -21.79089 l -3.7017,-3.72279 -3.70169,-3.722777 -0.002,8.400517 -0.002,8.40053 h -3.57188 -3.57187 V 104.76708 92.79101 l -3.50928,-3.502051 c -1.9301,-1.92613 -3.59698,-3.502055 -3.70417,-3.502055 -0.10719,0 -0.19489,6.965157 -0.19489,15.478126 v 15.47813 h -3.43958 -3.43958 l -5.3e-4,-6.28386 c -2.7e-4,-3.45612 -0.0793,-8.88658 -0.17531,-12.067701 -0.17341,-5.742768 -0.17823,-5.779413 -0.67879,-5.159375 -0.78233,0.969076 -2.41852,4.544584 -3.64249,7.959846 -0.61145,1.70612 -1.51658,3.77437 -2.01141,4.59612 -0.84346,1.4007 -0.89969,1.6409 -0.89969,3.84327 v 2.34919 h 1.98438 1.98437 v 0.79375 0.79376 h -1.98437 -1.98438 v 1.5875 1.5875 h -3.43958 -3.43958 v -1.5875 -1.5875 h -3.70417 -3.704168 v 1.5875 1.5875 h -3.439583 -3.439584 v -1.5875 -1.5875 h -0.79375 c -0.705556,0 -0.79375,-0.0882 -0.79375,-0.79376 0,-0.70555 0.08819,-0.79375 0.79375,-0.79375 h 0.79375 v -3.44712 c 0,-3.30764 -0.03226,-3.51104 -0.797189,-5.02636 -0.996413,-1.97388 -1.69463,-3.863549 -2.24599,-6.078599 -0.517292,-2.078191 -2.464303,-6.132994 -3.557288,-7.408333 l -0.793631,-0.926042 -0.0071,13.824484 -0.0072,13.82448 H 78.80803 75.368446 v -14.4198 c 0,-7.930882 -0.09095,-14.419789 -0.202112,-14.419789 -0.111165,0 -1.77804,1.579174 -3.704167,3.509277 l -3.502054,3.509275 v 10.910517 10.91052 H 64.52053 61.080946 v -7.27605 c 0,-4.00182 -0.09095,-7.27604 -0.202112,-7.27604 -0.111165,0 -1.77804,1.57918 -3.704167,3.50928 l -3.502054,3.50927 v 19.96895 19.96895 l 3.502054,3.50928 c 1.926127,1.9301 3.593002,3.50927 3.704167,3.50927 0.111162,0 0.202112,-1.84547 0.202112,-4.10104 v -4.10104 h 3.439584 3.439583 v 7.74274 7.74274 l 3.509277,3.50205 c 1.930101,1.92613 3.596976,3.50205 3.704167,3.50205 0.107188,0 0.194889,-5.06015 0.194889,-11.24479 v -11.24479 h 3.439584 3.439583 v 14.87926 14.87927 l 3.502054,3.50928 c 1.926127,1.9301 3.593002,3.50927 3.704167,3.50927 0.111162,0 0.202112,-8.27484 0.202112,-18.38854 v -18.38854 h 3.437501 3.437501 l 0.06823,15.78888 0.06823,15.78888 2.778125,-3.34114 c 2.497307,-3.00342 2.865037,-3.3424 3.638017,-3.35347 l 0.8599,-0.0123 v -12.43541 -12.43542 h 3.43958 3.43958 v 19.44687 c 0,10.69579 0.0877,19.44688 0.19489,19.44688 0.10719,0 1.77407,-1.57592 3.70417,-3.50205 z m 17.79678,-11.83895 v -4.36814 l -3.69042,3.70301 -3.69042,3.703 0.1592,4.18909 0.1592,4.18908 3.53122,-3.52395 3.53122,-3.52395 z m -30.1625,8.66972 c 0,-2.05656 -0.0556,-2.37734 -0.35542,-2.05052 -0.94295,1.02787 -3.613334,4.25226 -3.613334,4.36297 0,0.069 0.892969,0.1255 1.984374,0.1255 h 1.98438 z m -26.987504,-3.45258 v -4.30302 l -3.704166,-3.69708 -3.704167,-3.69708 v 4.49083 4.49082 l 3.502054,3.50928 c 1.926127,1.9301 3.593002,3.50928 3.704167,3.50928 0.111162,0 0.202112,-1.93636 0.202112,-4.30303 z m 70.709894,-14.24119 0.99219,-1.01446 v -4.24358 c 0,-2.33397 -0.0877,-4.24358 -0.19489,-4.24358 -0.10719,0 -1.77407,1.57593 -3.70417,3.50206 l -3.50927,3.50205 v 4.34312 4.34312 l 2.71198,-2.58713 c 1.49158,-1.42292 3.15846,-3.04364 3.70416,-3.6016 z m -84.997394,-0.0463 v -4.30302 l -3.704166,-3.69708 -3.704167,-3.69708 v 4.49083 4.49082 l 3.502054,3.50928 c 1.926127,1.9301 3.593002,3.50928 3.704167,3.50928 0.111162,0 0.202112,-1.93636 0.202112,-4.30303 z M 161.35803,143.0066 c 0,-2.36667 -0.0877,-4.30303 -0.19489,-4.30303 -0.10719,0 -1.77407,1.57593 -3.70417,3.50206 l -3.50927,3.50205 v 4.49805 4.49805 l 3.70416,-3.69708 3.70417,-3.69708 z m -118.394381,-2.97104 -3.578536,-3.57854 v 4.49317 4.49316 l 3.505729,3.51344 3.505729,3.51344 0.07281,-4.42807 0.07281,-4.42807 z M 161.35803,129.17857 v -7.50339 l -3.7017,-3.72279 -3.70169,-3.72278 v 14.94896 14.94896 l 3.70169,-3.72278 3.7017,-3.72278 z M 46.528863,129.1161 v -12.76247 l -3.571875,3.56453 -3.571875,3.56452 v 5.68867 5.68867 l 3.502053,3.50927 c 1.926129,1.93011 3.533473,3.50928 3.571875,3.50928 0.0384,0 0.06982,-5.74311 0.06982,-12.76247 z m 127.529167,-0.0698 v -5.56527 l -2.91042,-2.9014 -2.91041,-2.90139 v 4.61568 4.61568 l 1.11342,1.1345 1.11342,1.13449 -1.11342,1.1345 -1.11342,1.13449 v 4.48339 4.48339 l 2.91041,-2.90139 2.91042,-2.90139 z m -141.816667,0.20366 v -9.18904 l -2.513542,2.50309 -2.513541,2.50309 v 4.23359 4.23358 l 2.44217,2.45237 c 1.343194,1.3488 2.474287,2.45237 2.513542,2.45237 0.03925,0 0.07137,-4.13507 0.07137,-9.18905 z m 136.352847,-0.21213 c -0.20988,-0.54693 -0.35701,-0.48248 -0.35701,0.15638 0,0.29963 0.11386,0.47441 0.25303,0.3884 0.13916,-0.086 0.18595,-0.33116 0.10398,-0.54478 z M 46.528863,110.26822 v -4.49792 l -3.571875,3.56452 -3.571875,3.56452 v 4.49792 4.49792 l 3.571875,-3.56452 3.571875,-3.56453 z m 114.829167,5.08233 v -4.30302 l -3.70417,-3.69708 -3.70416,-3.69708 v 4.49082 4.49083 l 3.50205,3.50927 c 1.92613,1.93011 3.593,3.50928 3.70417,3.50928 0.11116,0 0.20211,-1.93636 0.20211,-4.30302 z m -57.41458,-3.76677 c 0,-0.21828 -0.20836,-0.40049 -0.46302,-0.40492 -0.43837,-0.008 -0.43858,-0.0223 -0.004,-0.27549 0.42125,-0.24544 0.45852,-0.99037 0.4529,-9.05393 -0.004,-6.399769 -0.0834,-8.652519 -0.29063,-8.293284 -0.15647,0.271267 -0.34572,1.759548 -0.42054,3.307292 -0.13317,2.754516 -0.41715,4.095692 -0.6799,3.210952 -0.42127,-1.418506 -1.07868,-5.856648 -1.21496,-8.202079 l -0.16141,-2.778125 -0.63131,1.187879 c -0.60599,1.140224 -0.624411,1.332558 -0.45915,4.794462 0.21404,4.483772 -0.003,4.874183 -1.568275,2.815209 -0.573095,-0.754068 -1.1866,-1.61325 -1.363345,-1.909292 -0.3072,-0.514548 -0.321767,-0.507481 -0.330729,0.160454 -0.0052,0.384289 0.226134,1.217726 0.51398,1.852083 0.548875,1.209612 0.713044,2.873159 0.28354,2.873159 -0.138289,0 -0.357774,-0.19001 -0.487746,-0.42226 -0.159327,-0.2847 -0.292899,0.37499 -0.410022,2.02503 -0.414964,5.84605 -0.120504,7.47745 1.498714,8.30335 l 0.841116,0.42902 -1.256771,-0.17052 c -0.998805,-0.13553 -1.256771,-0.0919 -1.256771,0.21229 0,0.21055 0.07937,0.46219 0.17639,0.55921 0.09701,0.097 1.763887,0.17638 3.704169,0.17638 2.9594,0 3.52777,-0.0639 3.52777,-0.39687 z m -3.63802,-0.3218 c 0.40018,-0.0606 1.05502,-0.0606 1.4552,0 0.40019,0.0606 0.0728,0.11022 -0.7276,0.11022 -0.80036,0 -1.127787,-0.0496 -0.7276,-0.11022 z m -39.283798,-15.353136 -0.07298,-4.281868 -3.638021,3.452593 -3.638021,3.45259 v 4.540271 4.54028 l 3.710998,-3.711 3.711001,-3.711 z m 86.048898,5.154206 v -4.303025 l -3.70417,-3.697079 -3.70416,-3.697078 v 4.490826 4.490826 l 3.50205,3.50927 c 1.92613,1.93011 3.593,3.50928 3.70417,3.50928 0.11116,0 0.20211,-1.93636 0.20211,-4.30302 z m -32.23014,-8.424265 c 0.68181,-0.822743 1.66408,-1.758204 2.18282,-2.078802 l 0.94315,-0.582904 v -5.861722 -5.86172 l -3.36962,-3.377117 c -1.85329,-1.857413 -3.46063,-3.377116 -3.57187,-3.377116 -0.11124,0 -0.20226,4.717548 -0.20226,10.483438 0,9.168289 0.0485,10.44316 0.38689,10.162355 0.92814,-0.770292 1.88741,-4.830885 2.06461,-8.739543 l 0.066,-1.455208 0.39491,1.190625 c 0.26887,0.810652 0.38767,2.203887 0.37223,4.365625 -0.0195,2.735427 -0.12027,3.446992 -0.7276,5.139571 -0.81757,2.278489 -0.90876,3.135532 -0.22804,2.143173 0.24703,-0.360117 1.00699,-1.327912 1.6888,-2.150655 z M 88.594756,92.98704 c -0.262097,-0.842113 -0.906855,-3.550785 -1.432799,-6.019271 -0.525941,-2.468486 -1.02676,-4.726281 -1.11293,-5.017323 -0.228028,-0.770186 1.894674,1.290675 2.846713,2.763779 l 0.760206,1.17628 v -6.137217 c 0,-3.37547 -0.09095,-6.137217 -0.202112,-6.137217 -0.111165,0 -1.77804,1.579174 -3.704167,3.509277 l -3.502054,3.509275 v 4.02204 c 0,3.833135 0.02647,4.036205 0.563589,4.323664 0.309975,0.165894 1.78997,1.47977 3.288879,2.919725 1.49891,1.439958 2.780623,2.618103 2.84825,2.618103 0.06763,0 -0.09148,-0.689002 -0.353575,-1.531115 z M 75.368446,81.560659 v -4.365625 l -3.704166,3.697079 -3.704167,3.697078 v 4.365625 4.365625 l 3.704167,-3.697078 3.704166,-3.697079 z m 53.452494,-3.040814 -3.71083,-3.710828 v 4.493331 4.493331 l 3.63802,3.645477 3.63802,3.645477 0.0728,-4.427979 0.0728,-4.42798 z m -30.58226,5.100143 c 0.209225,-0.918247 0.453928,-3.515011 0.543783,-5.770584 0.209793,-5.266307 0.660474,-7.4434 1.953947,-9.438882 1.04633,-1.614218 2.14074,-2.756068 1.81995,-1.898851 -0.94125,2.515257 -0.87867,6.194886 0.15571,9.155516 1.19775,3.428225 1.21469,3.368522 1.22333,-4.310021 l 0.008,-7.153696 -1.32499,-1.305066 -1.32499,-1.305067 -2.24689,2.235213 -2.246884,2.235213 V 76.14582 c 0,5.545131 0.0837,10.165758 0.186005,10.268062 0.28311,0.283107 0.829461,-0.935148 1.252979,-2.793894 z M 89.655946,67.468053 c 0,-2.293903 -0.0877,-4.170732 -0.194889,-4.170732 -0.107191,0 -1.774066,1.575924 -3.704167,3.502053 l -3.509277,3.502053 v 4.365756 4.365758 l 3.704167,-3.697078 3.704166,-3.697078 z m 24.745374,-3.103161 -3.57871,-3.578708 v 4.360876 4.360875 l 3.50573,3.513463 3.50573,3.513463 0.073,-4.295631 0.073,-4.29563 z m -11.78286,-3.053988 1.32499,1.305066 V 58.250345 53.88472 l -1.25677,-1.227497 -1.25678,-1.227496 -2.3151,2.218384 -2.315104,2.218385 v 4.304883 4.304884 l 2.246884,-2.235213 2.24689,-2.235213 z"
         id="path105"
         inkscape:connector-curvature="0" />
      <path
         style="fill:#616161;stroke-width:0.26458335"
         d="M 61.66004,168.50409 22.157278,129.31086 56.634216,94.980461 C 75.596533,76.098741 93.43353,58.402172 96.27199,55.654753 l 5.16083,-4.995307 39.50192,39.193416 39.50192,39.193418 -34.47629,34.3304 c -18.96197,18.88172 -36.79858,36.57821 -39.63693,39.32552 l -5.16064,4.99511 z m 42.28341,31.46951 v -4.23243 l -1.32516,1.30523 -1.32515,1.30523 -2.379013,-2.36799 -2.379014,-2.36799 v 4.35487 4.35488 l 2.308199,2.31894 2.308198,2.31894 1.39597,-1.37863 1.39597,-1.37863 z m 10.77822,-6.29916 3.50928,-3.50206 v -4.36575 -4.36576 l -3.70417,3.69708 -3.70417,3.69708 v 4.17073 c 0,2.2939 0.0877,4.17073 0.19489,4.17073 0.10719,0 1.77407,-1.57592 3.70417,-3.50205 z m -12.04408,1.72606 1.26586,-1.24683 v -2.45734 -2.45734 h -0.79375 -0.79375 v -1.5875 -1.5875 h -2.91042 -2.910417 v 2.94449 2.94448 l 2.29684,2.34718 c 1.263257,1.29095 2.360497,2.34718 2.438307,2.34718 0.0778,0 0.71111,-0.56107 1.40733,-1.24682 z m -16.718979,-12.37006 -3.710998,-3.711 v 4.36103 4.36104 l 3.638021,3.64551 3.638021,3.6455 0.07298,-4.29554 0.07298,-4.29555 z m 28.763059,0.32525 3.50928,-3.50206 v -15.94482 -15.94482 h 3.43958 3.43958 v 12.30312 c 0,6.76672 0.0948,12.30313 0.21064,12.30313 0.11585,0 1.84226,-1.64665 3.83646,-3.65922 l 3.62582,-3.65922 v -8.64391 -8.6439 h 3.30729 3.30729 v 5.15937 c 0,2.83766 0.0948,5.15938 0.21064,5.15938 0.11585,0 1.84226,-1.64665 3.83646,-3.65922 l 3.62582,-3.65922 v -21.78573 -21.78573 l -3.62582,-3.65922 c -1.9942,-2.01257 -3.72061,-3.65922 -3.83646,-3.65922 -0.11585,0 -0.21064,3.75047 -0.21064,8.33438 v 8.33438 h -3.30729 -3.30729 V 104.92425 93.10534 l -3.62582,-3.659216 c -1.9942,-2.012572 -3.72061,-3.65922 -3.83646,-3.65922 -0.11585,0 -0.21064,6.965157 -0.21064,15.478126 v 15.47813 h -3.43958 -3.43958 v -12.03855 c 0,-6.621195 -0.10287,-12.038539 -0.2286,-12.038539 -0.69726,0 -2.48504,3.573659 -4.26526,8.525999 -0.61331,1.70612 -1.51996,3.77437 -2.01479,4.59612 -0.84346,1.4007 -0.89969,1.6409 -0.89969,3.84327 v 2.34919 h 1.98438 1.98437 v 0.79375 0.79376 h -1.98437 -1.98438 v 1.5875 1.5875 h -3.43958 -3.43958 v -1.5875 -1.5875 h -3.70417 -3.704167 v 1.5875 1.5875 H 93.09553 89.655946 v -1.5875 -1.5875 h -0.79375 c -0.705556,0 -0.79375,-0.0882 -0.79375,-0.79376 0,-0.70555 0.08819,-0.79375 0.79375,-0.79375 h 0.79375 v -3.44712 c 0,-3.30764 -0.03226,-3.51104 -0.797189,-5.02636 -0.996413,-1.97388 -1.69463,-3.863549 -2.24599,-6.078599 -0.517292,-2.078191 -2.464303,-6.132994 -3.557288,-7.408333 l -0.793631,-0.926042 -0.0071,13.824484 -0.0071,13.82448 H 78.80803 75.368446 v -14.4198 c 0,-7.930882 -0.09095,-14.419789 -0.202112,-14.419789 -0.111165,0 -1.77804,1.579174 -3.704167,3.509277 l -3.502054,3.509275 v 10.910517 10.91052 H 64.52053 61.080946 v -7.27605 c 0,-4.00182 -0.09095,-7.27604 -0.202112,-7.27604 -0.111165,0 -1.77804,1.57918 -3.704167,3.50928 l -3.502054,3.50927 v 19.96895 19.96895 l 3.502054,3.50928 c 1.926127,1.9301 3.593002,3.50927 3.704167,3.50927 0.111162,0 0.202112,-1.84547 0.202112,-4.10104 v -4.10104 h 3.439584 3.439583 v 7.74274 7.74274 l 3.509277,3.50205 c 1.930101,1.92613 3.596976,3.50205 3.704167,3.50205 0.107188,0 0.194889,-5.06015 0.194889,-11.24479 v -11.24479 h 3.439584 3.439583 v 14.87926 14.87927 l 3.502054,3.50928 c 1.926127,1.9301 3.593002,3.50927 3.704167,3.50927 0.111162,0 0.202112,-8.27484 0.202112,-18.38854 v -18.38854 h 3.437501 3.437501 l 0.06823,15.78888 0.06823,15.78888 2.778125,-3.34114 c 2.497307,-3.00342 2.865037,-3.3424 3.638017,-3.35347 l 0.8599,-0.0123 v -12.43541 -12.43542 h 3.43958 3.43958 v 19.44687 c 0,10.69579 0.0877,19.44688 0.19489,19.44688 0.10719,0 1.77407,-1.57592 3.70417,-3.50205 z m 18.06136,-11.90651 c 0,-2.29383 -0.0878,-4.17061 -0.19501,-4.17061 -0.10726,0 -1.83367,1.63552 -3.83646,3.63448 l -3.64145,3.63448 v 4.36574 4.36575 l 3.83646,-3.82961 3.83646,-3.82962 z m -30.42708,8.73728 c 0,-2.05656 -0.0556,-2.37734 -0.35542,-2.05052 -0.94295,1.02787 -3.613334,4.25226 -3.613334,4.36297 0,0.069 0.892969,0.1255 1.984374,0.1255 h 1.98438 z m -26.987504,-3.45258 v -4.30302 l -3.704166,-3.69708 -3.704167,-3.69708 v 4.49083 4.49082 l 3.502054,3.50928 c 1.926127,1.9301 3.593002,3.50928 3.704167,3.50928 0.111162,0 0.202112,-1.93636 0.202112,-4.30303 z m 70.709894,-14.24238 0.99219,-1.01327 v -4.43859 -4.4386 l -3.83646,3.82962 -3.83646,3.82961 v 4.34387 4.34387 l 2.84427,-2.72162 c 1.56435,-1.49689 3.29076,-3.17759 3.83646,-3.73489 z m -88.694898,-8.03624 -3.710829,-3.71083 v 4.49334 4.49333 l 3.638021,3.64547 3.638021,3.64548 0.07281,-4.42798 0.07281,-4.42798 z M 161.35803,142.8117 v -4.49791 l -3.70417,3.69707 -3.70416,3.69708 v 4.49792 4.49792 l 3.70416,-3.69708 3.70417,-3.69708 z M 43.165621,140.23501 c -2.00262,-2.00645 -3.732019,-3.6481 -3.843109,-3.6481 -0.11109,0 -0.201982,1.93327 -0.201982,4.29616 v 4.29617 l 3.770312,3.77753 3.770313,3.77753 0.0728,-4.42559 0.0728,-4.42559 z M 161.35803,129.17857 v -7.50339 l -3.7017,-3.72279 -3.70169,-3.72278 v 14.94896 14.94896 l 3.70169,-3.72278 3.7017,-3.72278 z m -114.564584,0 c 0,-6.985 -0.09479,-12.7 -0.210638,-12.7 -0.115852,0 -1.842258,1.64665 -3.836459,3.65922 l -3.625819,3.65922 v 5.38156 5.38157 l 3.625819,3.65921 c 1.994201,2.01257 3.720607,3.65922 3.836459,3.65922 0.115851,0 0.210638,-5.715 0.210638,-12.7 z m 127.264584,-0.13229 v -5.56527 l -2.91042,-2.9014 -2.91041,-2.90139 v 4.61568 4.61568 l 1.11342,1.1345 1.11342,1.13449 -1.11342,1.1345 -1.11342,1.13449 v 4.48339 4.48339 l 2.91041,-2.90139 2.91042,-2.90139 z m -141.562957,0.0765 v -9.31618 l -2.640397,2.63048 -2.640396,2.63049 v 4.23333 4.23332 l 2.44217,2.45237 c 1.343194,1.3488 2.531372,2.45237 2.640397,2.45237 0.109024,0 0.198226,-4.19228 0.198226,-9.31618 z m 136.099137,-0.085 c -0.20988,-0.54693 -0.35701,-0.48248 -0.35701,0.15638 0,0.29963 0.11386,0.47441 0.25303,0.3884 0.13916,-0.086 0.18595,-0.33116 0.10398,-0.54478 z m -125.442209,-10.90205 3.641445,-3.63448 v -4.30302 c 0,-2.36666 -0.08776,-4.30302 -0.195013,-4.30302 -0.107257,0 -1.833663,1.63551 -3.836458,3.63447 l -3.641445,3.63448 v 4.30302 c 0,2.36667 0.08775,4.30303 0.195013,4.30303 0.107257,0 1.833663,-1.63552 3.836458,-3.63448 z m 114.508529,-10.7763 -3.71083,-3.71083 v 4.49333 4.49333 l 3.63802,3.64548 3.63802,3.64548 0.0728,-4.42798 0.0728,-4.42798 z m -53.71708,4.22435 c 0,-0.21828 -0.20836,-0.40049 -0.46302,-0.40492 -0.43837,-0.008 -0.43858,-0.0223 -0.004,-0.27549 0.42125,-0.24544 0.45852,-0.99037 0.4529,-9.05393 -0.004,-6.399769 -0.0834,-8.652519 -0.29063,-8.293284 -0.15647,0.271267 -0.34572,1.759548 -0.42054,3.307292 -0.13317,2.754516 -0.41715,4.095692 -0.6799,3.210952 -0.42127,-1.418506 -1.07868,-5.856648 -1.21496,-8.202079 l -0.16141,-2.778125 -0.63131,1.187879 c -0.60599,1.140224 -0.624411,1.332558 -0.45915,4.794462 0.21403,4.483539 -0.003,4.873897 -1.568275,2.815976 -0.573095,-0.75365 -1.255633,-1.731891 -1.516745,-2.173878 l -0.474755,-0.803605 0.155332,0.988546 c 0.08543,0.543701 0.385752,1.496201 0.667379,2.116667 0.528582,1.164545 0.700802,2.847907 0.29136,2.847907 -0.12777,0 -0.411306,-0.26789 -0.630074,-0.59531 -0.36232,-0.542264 -0.400611,-0.19818 -0.429723,3.86141 -0.03599,5.01907 0.180507,5.89476 1.641618,6.64002 l 0.841116,0.42902 -1.256771,-0.17052 c -1.156677,-0.15695 -1.256771,-0.126 -1.256771,0.38868 0,0.54259 0.110056,0.5592 3.704169,0.5592 3.1162,0 3.70416,-0.063 3.70416,-0.39687 z m -3.63802,-0.3218 c 0.40018,-0.0606 1.05502,-0.0606 1.4552,0 0.40019,0.0606 0.0728,0.11022 -0.7276,0.11022 -0.80036,0 -1.127787,-0.0496 -0.7276,-0.11022 z m -39.283798,-15.353136 -0.07298,-4.281868 -3.638021,3.452593 -3.638021,3.45259 v 4.540271 4.54028 l 3.710998,-3.711 3.711001,-3.711 z m 82.421078,-2.769663 c -2.00262,-2.00646 -3.73202,-3.64811 -3.84311,-3.64811 -0.11109,0 -0.20199,1.933276 -0.20199,4.296169 v 4.29617 l 3.77032,3.77753 3.77031,3.77753 0.0728,-4.42559 0.0728,-4.42559 z m -28.70798,-0.389028 c 0.6237,-0.767069 1.6655,-1.760352 2.31511,-2.207294 l 1.18111,-0.812626 v -5.587746 -5.587743 l -3.49311,-3.527671 c -1.92121,-1.940218 -3.58809,-3.527669 -3.70417,-3.527669 -0.11608,0 -0.21106,4.717548 -0.21106,10.483438 0,9.168289 0.0485,10.44316 0.38689,10.162355 0.92814,-0.770292 1.88741,-4.830885 2.06461,-8.739543 l 0.066,-1.455208 0.39491,1.190625 c 0.26887,0.810652 0.38767,2.203887 0.37223,4.365625 -0.0195,2.735427 -0.12027,3.446992 -0.7276,5.139571 -0.81823,2.280322 -0.90873,3.132865 -0.22804,2.148245 0.24703,-0.357328 0.95944,-1.277289 1.58314,-2.044359 z M 88.594756,92.98704 c -0.262097,-0.842113 -0.906855,-3.550785 -1.432799,-6.019271 -0.525941,-2.468486 -1.02676,-4.726281 -1.11293,-5.017323 -0.228028,-0.770186 1.894674,1.290675 2.846713,2.763779 l 0.760206,1.17628 v -6.137217 c 0,-3.37547 -0.09095,-6.137217 -0.202112,-6.137217 -0.111165,0 -1.77804,1.579174 -3.704167,3.509277 l -3.502054,3.509275 v 4.02204 c 0,3.833135 0.02647,4.036205 0.563589,4.323664 0.309975,0.165894 1.78997,1.47977 3.288879,2.919725 1.49891,1.439958 2.780623,2.618103 2.84825,2.618103 0.06763,0 -0.09148,-0.689002 -0.353575,-1.531115 z M 75.368446,81.560659 v -4.365625 l -3.704166,3.697079 -3.704167,3.697078 v 4.365625 4.365625 l 3.704167,-3.697078 3.704166,-3.697079 z m 57.414584,5.236448 v -4.281461 l -3.83406,-3.854476 -3.83407,-3.854474 -0.002,4.494493 -0.002,4.49449 3.63448,3.641448 c 1.99893,2.002795 3.72534,3.641444 3.83643,3.641444 0.11109,0 0.20198,-1.926659 0.20198,-4.281464 z M 98.23868,83.619988 c 0.209225,-0.918247 0.453928,-3.515011 0.543783,-5.770584 0.209793,-5.266307 0.660474,-7.4434 1.953947,-9.438882 1.04633,-1.614218 2.14074,-2.756068 1.81995,-1.898851 -0.94125,2.515257 -0.87867,6.194886 0.15571,9.155516 1.19775,3.428225 1.21469,3.368522 1.22333,-4.310021 l 0.008,-7.153696 -1.33335,-1.312971 -1.33335,-1.31297 -2.370817,2.409123 -2.37082,2.409123 v 9.413757 c 0,6.10528 0.100438,9.675528 0.285782,10.158586 l 0.285784,0.744828 0.375796,-0.711708 c 0.206687,-0.391438 0.546981,-1.463 0.756205,-2.38125 z M 89.655946,67.468053 c 0,-2.293903 -0.0877,-4.170732 -0.194889,-4.170732 -0.107191,0 -1.774066,1.575924 -3.704167,3.502053 l -3.509277,3.502053 v 4.365756 4.365758 l 3.704167,-3.697078 3.704166,-3.697078 z m 28.530264,4.816096 -0.10797,-4.242338 -3.62781,-3.627814 -3.62782,-3.627813 v 4.360876 4.360875 l 3.50206,3.509276 c 1.92612,1.930102 3.60723,3.509277 3.73577,3.509277 0.13002,0 0.18582,-1.882428 0.12577,-4.242339 z m -19.079008,-10.103404 2.186268,-2.174908 1.32499,1.305067 1.32499,1.305066 V 58.250345 53.88472 l -1.25677,-1.231406 -1.25678,-1.231405 -2.447391,2.364592 -2.447396,2.364592 v 4.10228 c 0,2.256255 0.08681,4.102281 0.19291,4.102281 0.106101,0 1.176732,-0.978709 2.379179,-2.174909 z"
         id="path103"
         inkscape:connector-curvature="0" />
      <path
         style="fill:#d8271a;stroke-width:0.26458335"
         d="M 61.691107,168.50019 22.216894,129.31086 46.609858,105.03467 C 60.025986,91.682768 77.848915,73.988176 86.216363,65.713356 l 15.213537,-15.045127 39.47373,39.189026 39.47372,39.189025 -24.65705,24.54041 c -13.56139,13.49723 -31.38409,31.19196 -39.60602,39.32162 l -14.94896,14.78121 z m 40.986483,37.21906 1.26586,-1.24683 v -4.36562 -4.36563 l -1.32516,1.30523 -1.32515,1.30523 -2.379013,-2.36799 -2.379014,-2.36799 v 4.35487 4.35488 l 2.309588,2.32034 c 1.270269,1.27618 2.367509,2.32033 2.438309,2.32033 0.0708,0 0.69836,-0.56107 1.39458,-1.24682 z m 12.04408,-12.04481 3.50928,-3.50206 v -4.36575 -4.36576 l -3.70417,3.69708 -3.70417,3.69708 v 4.17073 c 0,2.2939 0.0877,4.17073 0.19489,4.17073 0.10719,0 1.77407,-1.57592 3.70417,-3.50205 z m -12.04408,1.72606 1.26586,-1.24683 v -2.58963 -2.58963 h -0.79375 c -0.78574,0 -0.79375,-0.0147 -0.79375,-1.45521 v -1.45521 h -2.91042 -2.910417 v 2.97133 2.97133 l 2.309588,2.32034 c 1.270269,1.27618 2.367509,2.32033 2.438309,2.32033 0.0708,0 0.69836,-0.56107 1.39458,-1.24682 z m -16.718979,-12.37006 -3.710998,-3.711 v 4.53731 4.53731 l 3.638021,3.49717 3.638021,3.49717 0.07298,-4.32349 0.07298,-4.32348 z m 28.763059,0.32525 3.50928,-3.50206 v -15.94482 -15.94482 h 3.43958 3.43958 v 12.30312 c 0,6.76672 0.0878,12.30313 0.19502,12.30313 0.10725,0 1.83366,-1.63551 3.83646,-3.63448 l 3.64144,-3.63447 v -8.66865 -8.66865 h 3.30729 3.30729 v 5.15937 c 0,2.83766 0.0878,5.15938 0.19502,5.15938 0.10725,0 1.83366,-1.63551 3.83646,-3.63448 l 3.64144,-3.63447 V 129.18554 107.3573 l -3.63448,-3.64145 c -1.99896,-2.0028 -3.72536,-3.64145 -3.83645,-3.64145 -0.11109,0 -0.20199,3.75047 -0.20199,8.33438 v 8.33438 h -3.30729 -3.30729 V 104.89963 93.056101 l -3.83646,-3.829613 -3.83646,-3.829614 v 15.673136 15.67315 h -3.43958 -3.43958 v -12.03855 c 0,-6.768457 -0.10208,-12.038539 -0.23318,-12.038539 -0.29663,0 -1.39657,1.441366 -2.01911,2.645834 -0.26325,0.509323 -1.06069,2.533385 -1.77209,4.497916 -0.71141,1.964529 -1.76383,4.444219 -2.33871,5.510419 -0.99435,1.84415 -1.04525,2.05351 -1.04525,4.29948 v 2.36093 h 1.98438 c 1.94027,0 1.98437,0.0147 1.98437,0.66146 0,0.64676 -0.0441,0.66146 -1.98437,0.66146 h -1.98438 v 1.71979 1.7198 h -3.43958 -3.43958 v -1.72726 -1.72726 l -3.63802,0.0736 -3.638025,0.0736 -0.07877,1.65365 -0.07877,1.65365 h -3.42696 -3.426958 v -1.7198 -1.71979 h -0.79375 c -0.670277,0 -0.79375,-0.10289 -0.79375,-0.66146 0,-0.5611 0.122542,-0.66146 0.807697,-0.66146 h 0.807696 l -0.09106,-3.63802 c -0.0902,-3.60359 -0.101245,-3.66055 -1.167106,-6.01927 -0.591823,-1.30968 -1.39273,-3.512341 -1.779791,-4.894789 -0.833978,-2.978666 -2.178998,-5.810192 -3.456239,-7.276041 l -0.92216,-1.058334 -0.0099,13.824484 -0.0099,13.82448 H 78.80803 75.368446 V 102.12847 87.513784 l -3.704166,3.697079 -3.704167,3.697078 v 10.917609 10.91761 H 64.52053 61.080946 v -7.27605 c 0,-4.00182 -0.09095,-7.27604 -0.202112,-7.27604 -0.111165,0 -1.77804,1.57918 -3.704167,3.50928 l -3.502054,3.50927 v 19.96895 19.96895 l 3.502054,3.50928 c 1.926127,1.9301 3.593002,3.50927 3.704167,3.50927 0.111162,0 0.202112,-1.84547 0.202112,-4.10104 v -4.10104 h 3.439584 3.439583 v 7.74261 7.7426 l 3.704167,3.69708 3.704166,3.69708 v -11.43969 -11.43968 h 3.439584 3.439583 v 14.88636 14.88635 l 3.704167,3.69708 3.704166,3.69708 v -18.58344 -18.58343 h 3.439584 3.439583 v 15.75832 c 0,10.39263 0.0897,15.70289 0.26344,15.59551 0.144894,-0.0896 1.460744,-1.58486 2.924112,-3.32291 2.290855,-2.72085 2.769095,-3.16009 3.440725,-3.16009 h 0.78006 v -12.43541 -12.43542 h 3.43958 3.43958 v 19.44687 c 0,10.69579 0.0877,19.44688 0.19489,19.44688 0.10719,0 1.77407,-1.57592 3.70417,-3.50205 z m 18.06136,-11.90651 c 0,-2.29383 -0.0878,-4.17061 -0.19501,-4.17061 -0.10726,0 -1.83367,1.63552 -3.83646,3.63448 l -3.64145,3.63448 v 4.36574 4.36575 l 3.83646,-3.82961 3.83646,-3.82962 z m -30.42708,8.79398 c 0,-1.30969 -0.0439,-2.38125 -0.0975,-2.38125 -0.0536,0 -1.00881,1.07156 -2.12271,2.38125 l -2.025271,2.38125 h 2.122711 2.12272 z m -30.685008,-11.5004 -3.710829,-3.71083 v 4.49334 4.49333 l 3.638021,3.64547 3.638021,3.64548 0.07281,-4.42798 0.07281,-4.42798 z m 71.758148,-3.51116 3.64144,-3.63448 v -4.49804 -4.49804 l -3.83646,3.82962 -3.83646,3.82961 v 4.3029 c 0,2.3666 0.0878,4.3029 0.19502,4.3029 0.10725,0 1.83366,-1.63551 3.83646,-3.63447 z m -86.045648,-10.77634 -3.710829,-3.71083 v 4.49334 4.49333 l 3.638021,3.64547 3.638021,3.64548 0.07281,-4.42798 0.07281,-4.42798 z M 161.35803,142.8117 v -4.49791 l -3.70417,3.69707 -3.70416,3.69708 v 4.49792 4.49792 l 3.70416,-3.69708 3.70417,-3.69708 z m -114.564584,5.48644 v -4.42834 l -3.634476,-3.64145 c -1.998962,-2.0028 -3.725368,-3.64144 -3.836458,-3.64144 -0.11109,0 -0.201982,1.99275 -0.201982,4.42834 v 4.42835 l 3.634476,3.64144 c 1.998962,2.0028 3.725368,3.64145 3.836458,3.64145 0.11109,0 0.201982,-1.99276 0.201982,-4.42835 z M 161.35803,129.17857 v -7.54771 l -3.70417,-3.69708 -3.70416,-3.69708 v 14.94187 14.94187 l 3.70416,-3.69708 3.70417,-3.69707 z m -114.564584,0 c 0,-6.985 -0.08776,-12.7 -0.195013,-12.7 -0.107257,0 -1.833663,1.63552 -3.836458,3.63448 l -3.641445,3.63448 v 5.42407 5.42408 l 3.634476,3.64145 c 1.998962,2.00279 3.725368,3.64144 3.836458,3.64144 0.11109,0 0.201982,-5.715 0.201982,-12.7 z m 127.264584,-0.13229 v -5.56527 l -2.91042,-2.9014 -2.91041,-2.90139 v 4.61568 4.61568 l 1.11342,1.1345 1.11342,1.13449 -1.11342,1.1345 -1.11342,1.13449 v 4.48339 4.48339 l 2.91041,-2.90139 2.91042,-2.90139 z m -141.119638,9.96118 c -0.397034,-0.43872 -0.443319,-1.46249 -0.443319,-9.80567 v -9.31581 l -2.633301,2.46348 -2.6333,2.46349 -0.0071,4.36148 -0.0071,4.36149 2.972246,2.9807 c 1.634736,1.63939 3.022408,2.9807 3.083716,2.9807 0.06131,0 -0.08803,-0.22044 -0.33185,-0.48986 z M 168.5547,128.86107 c -0.24695,-0.24694 -0.3175,-0.17639 -0.3175,0.3175 0,0.49389 0.0705,0.56445 0.3175,0.3175 0.24694,-0.24694 0.24694,-0.38805 0,-0.635 z m -125.402699,-10.72531 3.641445,-3.63448 v -4.30302 c 0,-2.36666 -0.08776,-4.30302 -0.195013,-4.30302 -0.107257,0 -1.833663,1.63551 -3.836458,3.63447 l -3.641445,3.63448 v 4.30302 c 0,2.36667 0.08775,4.30303 0.195013,4.30303 0.107257,0 1.833663,-1.63552 3.836458,-3.63448 z m 114.574759,-10.91761 -3.64477,-3.57187 -0.0728,4.48783 -0.0728,4.48783 3.64468,3.65211 3.64467,3.65212 0.0729,-4.56807 0.0729,-4.56807 z m -53.80344,-4.82864 c -0.0175,-8.340184 -0.0666,-9.470365 -0.37675,-8.665105 -0.19614,0.509323 -0.37404,1.997604 -0.39534,3.307291 -0.0618,3.802984 -0.3631,3.877604 -1.04564,0.259004 -0.32879,-1.743181 -0.67769,-4.300514 -0.77531,-5.682962 l -0.17751,-2.513542 -0.57608,0.908595 c -0.751552,1.185342 -0.958443,3.061065 -0.641774,5.818511 0.158264,1.378124 0.162404,2.475365 0.01085,2.873996 -0.236379,0.621726 -0.28997,0.583277 -1.497171,-1.074176 -0.68861,-0.945441 -1.393846,-1.941084 -1.567188,-2.212539 -0.607629,-0.951542 -0.391959,0.758029 0.315169,2.498281 0.617463,1.519584 0.863531,2.961286 0.505431,2.961286 -0.08581,0 -0.375671,-0.26789 -0.644126,-0.59531 -0.478663,-0.583804 -0.488423,-0.506807 -0.504888,3.98294 -0.01754,4.78759 0.162756,5.71999 1.23889,6.40642 0.378418,0.24138 0.305896,0.26917 -0.39687,0.15206 -0.777113,-0.1295 -0.859895,-0.0803 -0.859895,0.51155 v 0.65484 h 3.704162 3.70417 l -0.0201,-9.59114 z M 61.080946,95.910763 c 0,-2.366664 -0.0877,-4.303025 -0.194889,-4.303025 -0.107191,0 -1.774066,1.575924 -3.704167,3.502054 l -3.509277,3.502052 v 4.498046 4.49805 l 3.704167,-3.69708 3.704166,-3.69708 z m 82.361764,-2.771582 c -2.00262,-2.00646 -3.73202,-3.64811 -3.84311,-3.64811 -0.11109,0 -0.20199,1.933276 -0.20199,4.296169 v 4.29617 l 3.77032,3.77753 3.77031,3.77753 0.0728,-4.42559 0.0728,-4.42559 z m -27.30619,-1.732855 c 0.64261,-0.620101 1.37674,-1.19367 1.63141,-1.274601 0.42222,-0.13418 0.46302,-0.652944 0.46302,-5.887548 v -5.740403 l -3.70417,-3.697078 -3.70417,-3.697078 v 10.686941 10.686944 l 0.53585,-0.484931 c 0.73413,-0.664384 1.53086,-3.464351 1.83287,-6.441376 0.13831,-1.363266 0.30341,-2.530615 0.36691,-2.59411 0.18121,-0.181216 0.70446,3.13545 0.69936,4.43299 -0.006,1.415138 -0.54579,4.04653 -1.27066,6.189203 -0.29411,0.869365 -0.47646,1.674968 -0.40523,1.790229 0.0712,0.11526 0.63732,-0.476978 1.25797,-1.316083 0.62065,-0.839105 1.65423,-2.033 2.29684,-2.653099 z m -27.00974,3.012803 c 0,-0.05446 -0.17076,-0.583009 -0.379463,-1.174544 -0.349462,-0.990478 -2.530954,-10.714323 -2.530954,-11.281545 0,-0.484325 1.914147,1.594051 2.668841,2.897823 l 0.765776,1.322916 0.0024,-6.478746 0.0026,-6.478748 -3.704166,3.697078 -3.704167,3.697078 v 4.015904 4.015907 l 1.256771,0.930939 c 0.691224,0.512017 2.14676,1.831846 3.234523,2.932951 1.724541,1.745695 2.387873,2.274327 2.387873,1.902987 z M 75.368446,81.560659 v -4.365625 l -3.704166,3.697079 -3.704167,3.697078 v 4.365625 4.365625 l 3.704167,-3.697078 3.704166,-3.697079 z m 57.414584,5.215012 v -4.302903 l -3.83646,-3.829614 -3.83646,-3.829613 v 4.491069 4.491069 l 3.63448,3.641448 c 1.99896,2.002795 3.72537,3.641444 3.83646,3.641444 0.11109,0 0.20198,-1.936305 0.20198,-4.3029 z M 98.300834,83.802529 c 0.205187,-0.727604 0.480679,-3.585104 0.612206,-6.35 0.140531,-2.954203 0.397714,-5.544214 0.623707,-6.281213 0.46296,-1.509769 1.488883,-3.314265 2.295673,-4.037859 l 0.58964,-0.528845 -0.23149,0.926042 c -0.12732,0.509323 -0.22475,2.176198 -0.21651,3.704167 0.0136,2.509116 0.10321,3.008704 0.92604,5.159375 l 0.91105,2.38125 0.0705,-7.268533 0.0705,-7.268533 -1.32608,-1.32609 -1.32609,-1.326089 -2.382442,2.371397 -2.382435,2.371398 v 9.746348 c 0,6.951237 0.08901,9.912088 0.310367,10.324267 0.301813,0.561985 0.321011,0.552386 0.696328,-0.348123 0.212277,-0.509323 0.553839,-1.521354 0.759026,-2.248959 z M 89.655946,67.27316 v -4.365625 l -3.704166,3.697077 -3.704167,3.697078 v 4.365625 4.365626 l 3.704167,-3.697078 3.704166,-3.697078 z m 28.523094,4.845309 -0.12063,-4.408019 -3.55175,-3.364611 -3.55176,-3.36461 -0.073,4.256517 -0.073,4.256518 3.50887,3.516112 c 1.92988,1.933861 3.61529,3.516112 3.74536,3.516112 0.13427,0 0.18434,-1.905058 0.11584,-4.408019 z m -19.071838,-9.937724 2.186268,-2.174908 1.32499,1.305067 1.32499,1.305066 V 58.250345 53.88472 l -1.32516,-1.305228 -1.32515,-1.305227 -2.379013,2.36799 -2.379014,2.367991 v 4.172704 c 0,2.294987 0.08681,4.172704 0.19291,4.172704 0.106101,0 1.176732,-0.978709 2.379179,-2.174909 z"
         id="path101"
         inkscape:connector-curvature="0" />
      <path
         style="fill:#9c1c13;stroke-width:0.26458335"
         d="M 61.691107,168.50019 22.216894,129.31086 46.609858,105.03467 C 60.025986,91.682768 77.848915,73.988176 86.216363,65.713356 l 15.213537,-15.045127 39.47373,39.189026 39.47372,39.189025 -24.65705,24.54041 c -13.56139,13.49723 -31.38409,31.19196 -39.60602,39.32162 l -14.94896,14.78121 z m 51.341743,26.75807 c 6.44448,-6.4393 24.00214,-23.90553 39.01704,-38.81385 15.01489,-14.90831 27.29981,-27.18197 27.29981,-27.27478 0,-0.26175 -22.52224,-22.78559 -49.59692,-49.600434 C 116.23513,66.181279 104.317,54.338737 103.26804,53.252436 L 101.36085,51.277343 89.604099,63.04202 C 83.137886,69.512591 66.78803,85.760446 53.271087,99.148363 29.162081,123.02724 23.465264,128.73847 23.290522,129.20481 c -0.04801,0.12813 8.387747,8.65785 18.746136,18.95493 10.358391,10.29708 27.891447,27.74094 38.962352,38.76415 11.070905,11.0232 20.17115,20.04218 20.22277,20.04218 0.0516,0 5.3666,-5.26851 11.81107,-11.70781 z M 66.648642,163.84941 C 47.724638,144.93744 32.241363,129.33556 32.241363,129.17857 c 0,-0.35125 68.715137,-69.056249 69.066437,-69.056249 0.33794,0 69.04606,68.718259 69.04606,69.056249 0,0.33799 -68.70812,69.05625 -69.04606,69.05625 -0.13854,0 -15.735155,-15.47343 -34.659158,-34.38541 z m 68.378428,-0.9362 33.72429,-33.73412 L 135.0218,95.436592 101.29224,61.694094 67.678427,95.326938 C 49.190828,113.825 34.108616,129.09831 34.162398,129.26761 c 0.07938,0.24989 66.840192,67.29892 67.071652,67.36122 0.0378,0.0102 15.24466,-15.16186 33.79302,-33.71562 z m -31.81123,26.13438 c -0.85437,-0.10603 -0.85989,-0.11617 -0.85989,-1.57953 v -1.47281 l -4.0349,0.10051 -4.034895,0.10052 -0.07721,-1.89184 -0.0772,-1.89185 1.469076,-1.68003 c 0.807989,-0.92402 2.649997,-3.06167 4.09335,-4.75035 2.524579,-2.95368 2.671629,-3.07681 3.870579,-3.24114 0.68547,-0.094 1.58687,-0.17083 2.00312,-0.17083 h 0.75683 v 5.02708 5.02709 h 1.07042 1.07042 l -0.0782,1.78593 -0.0782,1.78594 -0.99219,0.0821 -0.99218,0.0821 v 1.43923 1.43924 l -1.12448,-0.0423 c -0.61847,-0.0233 -1.51144,-0.0904 -1.98438,-0.14906 z m -0.85989,-8.80443 c 0,-1.30969 -0.0439,-2.38125 -0.0975,-2.38125 -0.0536,0 -1.00881,1.07156 -2.12271,2.38125 l -2.025271,2.38125 h 2.122711 2.12272 z M 88.928342,113.35614 c -0.700447,-0.0701 -0.859896,-0.20082 -0.859896,-0.70481 0,-0.56089 0.142195,-0.63157 1.521354,-0.75623 1.312667,-0.11865 17.11516,-0.0908 23.15104,0.0408 1.99891,0.0436 2.05052,0.0614 2.05052,0.70617 0,0.64096 -0.0594,0.66273 -1.91823,0.70249 -3.96874,0.0849 -23.120116,0.0941 -23.944788,0.0115 z m 15.015108,-2.41703 c 0,-0.14183 0.28365,-0.67585 0.63033,-1.18672 0.34669,-0.51087 0.71347,-1.37201 0.81509,-1.91364 0.21409,-1.14124 1.49767,-3.80597 2.43367,-5.05237 0.51729,-0.68883 0.56243,-0.85989 0.22691,-0.85989 -0.77949,0 -2.16218,0.72595 -2.7106,1.42314 -0.30003,0.38144 -0.60936,0.69352 -0.6874,0.69352 -0.078,0 0.21006,-0.96431 0.6402,-2.14291 0.71418,-1.956915 1.31756,-5.265419 0.96026,-5.265419 -0.0815,0 -0.52998,1.16086 -0.99665,2.579688 -0.46666,1.418831 -0.95273,2.692801 -1.08015,2.831041 -0.13329,0.14462 -0.24021,-1.76541 -0.25179,-4.497916 -0.0181,-4.277596 -0.0556,-4.657302 -0.37675,-3.823229 -0.19614,0.509323 -0.37404,1.997604 -0.39534,3.307291 -0.0618,3.802984 -0.3631,3.877604 -1.04564,0.259004 -0.32879,-1.743181 -0.67769,-4.300514 -0.77531,-5.682962 l -0.17751,-2.513542 -0.57608,0.908595 c -0.751552,1.185342 -0.958443,3.061065 -0.641774,5.818511 0.158264,1.378124 0.162404,2.475365 0.01085,2.873996 -0.236379,0.621726 -0.28997,0.583277 -1.497171,-1.074176 -0.68861,-0.945441 -1.393846,-1.941084 -1.567188,-2.212539 -0.607629,-0.951542 -0.391959,0.758029 0.315169,2.498281 0.645938,1.589664 0.86052,2.961806 0.463021,2.960776 -0.109141,-2.6e-4 -0.601189,-0.59143 -1.093438,-1.313676 -0.492252,-0.722244 -1.147096,-1.525685 -1.455209,-1.785427 -0.551635,-0.465032 -0.553278,-0.464013 -0.107278,0.06659 0.646004,0.768549 1.281129,2.392383 1.515417,3.874493 0.236289,1.49475 0.142261,1.52996 -2.057233,0.77036 l -1.411806,-0.48757 1.052306,1.09152 c 1.303041,1.3516 1.752531,2.2361 2.168178,4.26652 0.375341,1.83352 0.863995,2.89517 1.521349,3.30527 1.073349,0.66963 -1.98905,-0.0911 -3.432487,-0.85271 -3.516479,-1.85532 -5.700795,-5.4793 -8.016735,-13.300483 -0.937236,-3.165155 -2.073296,-5.24274 -3.793429,-6.937291 -0.779997,-0.768397 -1.303134,-1.397085 -1.162526,-1.397085 0.478168,0 2.838704,1.920013 5.152104,4.190617 1.268749,1.245283 2.371349,2.199619 2.450219,2.120746 0.07887,-0.07887 -0.02863,-0.630986 -0.238887,-1.226923 -0.351465,-0.996159 -2.533777,-10.719718 -2.533777,-11.289554 0,-0.136779 0.42644,0.161618 0.947642,0.663107 1.13705,1.094044 2.497045,3.337909 3.105148,5.123201 0.434647,1.276059 1.10827,2.27089 1.537673,2.27089 0.119229,0 0.426805,-0.386953 0.683501,-0.859896 0.4054,-0.746916 0.46713,-1.624687 0.469815,-6.680729 0.0028,-5.294953 0.05012,-5.904497 0.5236,-6.746875 l 0.520502,-0.926042 0.210576,2.248958 c 0.251029,2.680984 0.767202,4.813777 1.692656,6.993927 0.37473,0.882767 0.804418,1.902688 0.954868,2.26649 l 0.273548,0.661458 0.395938,-0.926041 c 0.871305,-2.037858 1.152319,-3.787363 1.38121,-8.598959 0.140531,-2.954203 0.397714,-5.544214 0.623707,-6.281213 0.466571,-1.521565 1.493421,-3.321042 2.304151,-4.037859 l 0.59812,-0.528845 -0.19953,0.661459 c -0.10974,0.363802 -0.26137,1.75529 -0.33695,3.092195 -0.16473,2.913828 0.32726,4.823939 2.30433,8.946347 1.67801,3.49885 2.11783,5.086572 2.11783,7.645344 0,2.015699 0.0236,2.101699 0.45824,1.667092 0.53392,-0.533913 0.58868,-2.335122 0.23082,-7.592645 -0.19126,-2.809967 -0.16108,-3.446542 0.20076,-4.233333 l 0.42587,-0.926042 -0.14634,1.091324 c -0.18727,1.39667 0.19475,3.505963 1.51261,8.351595 1.07135,3.939249 1.33509,5.933001 0.93215,7.046553 -0.22078,0.610134 -0.2166,0.611497 0.59282,0.192931 0.44834,-0.231846 0.98556,-0.686954 1.19383,-1.011346 0.61072,-0.951275 1.18984,-3.318052 1.46293,-5.97889 0.13992,-1.363266 0.30635,-2.530615 0.36985,-2.59411 0.18121,-0.181216 0.70446,3.13545 0.69936,4.43299 -0.006,1.415138 -0.54579,4.04653 -1.27066,6.189203 -0.29411,0.869365 -0.47646,1.674968 -0.40523,1.790229 0.0712,0.11526 0.63757,-0.476978 1.25852,-1.316083 2.31802,-3.132386 4.42174,-4.718428 5.93319,-4.473154 0.51393,0.0834 1.10153,0.318743 1.30577,0.522986 0.31875,0.318749 0.20603,0.451384 -0.79569,0.936307 -1.57244,0.761207 -3.47315,2.629803 -4.25514,4.18324 -0.35265,0.700548 -1.14755,2.702476 -1.76644,4.448726 -1.4587,4.115843 -3.27859,7.598443 -4.58968,8.782923 -1.50808,1.36247 -5.72879,3.18863 -5.72879,2.47866 z"
         id="path99"
         inkscape:connector-curvature="0" />
      <path
         style="fill:#030202;stroke-width:0.26458335"
         d="M 61.691107,168.50019 22.216894,129.31086 46.609858,105.03467 C 60.025986,91.682768 77.848915,73.988176 86.216363,65.713356 l 15.213537,-15.045127 39.47373,39.189026 39.47372,39.189025 -24.65705,24.54041 c -13.56139,13.49723 -31.38409,31.19196 -39.60602,39.32162 l -14.94896,14.78121 z m 78.800353,-0.41049 c 21.44479,-21.30924 39.02375,-38.8218 39.06435,-38.91679 0.0944,-0.22083 -77.89408,-77.649548 -78.21091,-77.649548 -0.22128,0 -78.144728,77.280538 -78.30544,77.659378 -0.09553,0.22519 78.05527,77.81014 78.28643,77.7196 0.0963,-0.0377 17.72077,-17.50339 39.16557,-38.81264 z M 66.637069,163.70657 32.109578,129.17832 66.703596,94.5843 101.29761,59.990282 135.89163,94.5843 l 34.59402,34.59402 -34.52749,34.52825 c -18.99012,18.99054 -34.58737,34.52825 -34.66055,34.52825 -0.0732,0 -15.670421,-15.53771 -34.660541,-34.52825 z M 135.16441,162.91282 168.89814,129.17831 135.09787,95.37805 101.29761,61.577788 67.497351,95.37805 33.69709,129.17831 67.430817,162.91282 c 18.553549,18.55398 33.793603,33.7345 33.866793,33.7345 0.0732,0 15.31325,-15.18052 33.8668,-33.7345 z m -32.80846,24.60638 v -1.45521 h -3.968754 -3.96875 l 0.0097,-1.91823 0.0097,-1.91823 3.973237,-4.69635 3.973237,-4.69636 h 1.97023 1.97024 v 4.89479 4.8948 h 0.92604 0.92604 v 1.71979 1.71979 h -0.92604 -0.92604 v 1.45521 1.45521 h -1.98438 -1.98437 v -1.45521 z m 0,-7.27604 c 0,-1.30969 -0.0439,-2.38125 -0.0975,-2.38125 -0.0536,0 -1.00881,1.07156 -2.12271,2.38125 l -2.025271,2.38125 h 2.122711 2.12272 z M 88.928342,113.35614 c -0.711314,-0.0712 -0.859896,-0.19749 -0.859896,-0.73079 v -0.6447 h 13.361454 13.36146 v 0.66146 c 0,0.64096 -0.0594,0.66273 -1.91823,0.70249 -3.96874,0.0849 -23.120116,0.0941 -23.944788,0.0115 z m 7.606771,-2.68177 c -4.662488,-1.42713 -7.708903,-5.53415 -9.923312,-13.37809 -0.882814,-3.127137 -2.190856,-5.748356 -3.756535,-7.52782 -1.251226,-1.422077 -1.256321,-1.435126 -0.361569,-0.926041 0.499149,0.283998 2.13868,1.694643 3.643399,3.134767 1.50472,1.440125 2.794236,2.560027 2.865594,2.488668 0.07136,-0.07135 -0.04229,-0.617323 -0.25255,-1.21326 -0.48151,-1.36475 -2.611736,-11.18009 -2.459466,-11.332361 0.201033,-0.201035 2.254279,2.19646 2.779106,3.245057 0.280369,0.560168 0.726845,1.613802 0.992172,2.341406 0.543483,1.490406 1.351658,2.778125 1.743554,2.778125 0.143796,0 0.497491,-0.533619 0.78599,-1.18582 0.475395,-1.074708 0.518178,-1.688282 0.456604,-6.548438 -0.06238,-4.923874 -0.02362,-5.460029 0.473726,-6.553242 l 0.541663,-1.190625 0.160007,2.645833 c 0.180533,2.985276 0.558652,4.422611 1.955207,7.432279 l 0.971071,2.092721 0.388996,-0.926041 c 0.86886,-2.068399 1.146143,-3.803388 1.37427,-8.598959 0.140531,-2.954203 0.397714,-5.544214 0.623707,-6.281213 0.466573,-1.521565 1.493423,-3.321042 2.304153,-4.037859 l 0.59812,-0.528845 -0.20217,0.661459 c -0.11119,0.363802 -0.25443,1.852083 -0.31829,3.307291 -0.10963,2.49784 -0.0653,2.786428 0.79297,5.159376 0.5,1.382447 1.33399,3.466041 1.8533,4.630208 1.32541,2.97121 1.8502,5.201192 1.69093,7.185314 -0.0993,1.237403 -0.0511,1.606158 0.19751,1.510749 0.94032,-0.360831 1.15271,-2.794193 0.65511,-7.505438 -0.14602,-1.382448 -0.17816,-3.049323 -0.0714,-3.704167 0.1888,-1.158408 0.19935,-1.133351 0.3901,0.926042 0.10783,1.164167 0.68179,3.843073 1.27546,5.953125 1.20899,4.297061 1.55783,6.74601 1.08642,7.626858 -0.26445,0.494128 -0.23892,0.575226 0.18112,0.575226 1.46287,0 2.76598,-2.962336 3.20931,-7.295703 0.14373,-1.404874 0.31375,-2.606739 0.37782,-2.670813 0.18204,-0.182033 0.70554,3.130444 0.70042,4.431937 -0.006,1.415138 -0.54579,4.04653 -1.27066,6.189203 -0.29411,0.869365 -0.47646,1.674968 -0.40523,1.790229 0.0712,0.11526 0.63728,-0.476978 1.25786,-1.316083 1.36533,-1.846069 2.93192,-3.407336 3.96638,-3.952901 0.91826,-0.484283 2.40794,-0.526645 2.94171,-0.08366 0.32273,0.267843 0.13605,0.481504 -1.14287,1.308113 -2.54361,1.644015 -3.48482,3.112595 -5.34926,8.346549 -1.53646,4.313204 -2.7073,6.570834 -4.25815,8.210634 -1.30835,1.38339 -3.45419,2.58036 -5.28079,2.94568 l -0.88046,0.17609 0.58755,-0.74696 c 0.32316,-0.41082 0.77937,-1.4128 1.0138,-2.22661 0.5535,-1.92141 1.82067,-4.46202 2.68448,-5.38227 l 0.68299,-0.7276 h -0.86065 c -1.0664,0 -1.83147,0.37116 -2.64192,1.28169 -0.49002,0.55053 -0.58311,0.58811 -0.42992,0.17352 1.05138,-2.84556 1.45224,-4.354015 1.45224,-5.464926 0,-0.722252 -0.10442,-1.248656 -0.23203,-1.169784 -0.12762,0.07887 -0.5594,1.187225 -0.9595,2.463012 -0.40011,1.275788 -0.81865,2.419888 -0.93009,2.542458 -0.11144,0.12256 -0.14074,-0.54804 -0.0651,-1.49023 0.0756,-0.942201 0.0466,-3.007012 -0.0644,-4.588477 -0.19319,-2.750754 -0.21672,-2.835254 -0.54276,-1.949352 -0.18745,0.509323 -0.35824,1.997604 -0.37954,3.307291 -0.0618,3.802988 -0.3631,3.877608 -1.04564,0.259004 -0.32879,-1.743181 -0.67769,-4.300514 -0.77531,-5.682962 l -0.17751,-2.513542 -0.57608,0.908595 c -0.751552,1.185342 -0.958443,3.061065 -0.641774,5.818511 0.155664,1.355457 0.161474,2.477817 0.01482,2.863524 -0.236252,0.621393 -0.261099,0.608296 -1.217459,-0.641688 -0.536956,-0.701813 -1.249548,-1.752275 -1.583539,-2.334358 l -0.607259,-1.058334 -0.0032,0.814279 c -0.0019,0.447855 0.294468,1.546818 0.65827,2.442139 0.645221,1.587897 0.861674,2.96878 0.463021,2.95388 -0.10914,-0.004 -0.674687,-0.74269 -1.256771,-1.641346 -1.218522,-1.881232 -2.019842,-2.394325 -1.061521,-0.679704 0.353528,0.632529 0.815639,1.89104 1.026911,2.7967 l 0.384136,1.64663 -0.70393,-0.16749 c -0.387162,-0.0921 -1.269476,-0.37793 -1.9607,-0.63514 -0.691224,-0.2572 -1.256771,-0.44085 -1.256771,-0.40811 0,0.0328 0.520735,0.60301 1.15719,1.26725 1.137179,1.18682 1.508421,1.96875 2.409896,5.07583 0.248725,0.85726 0.733092,1.83953 1.076376,2.18281 0.68031,0.68031 0.409104,0.78893 -0.939295,0.3762 z"
         id="path97"
         inkscape:connector-curvature="0" />
    </g>
  </g>
</svg>
