<?xml version="1.0" encoding="UTF-8" standalone="no"?>
<!-- Created with Inkscape (http://www.inkscape.org/) -->

<svg
   xmlns:dc="http://purl.org/dc/elements/1.1/"
   xmlns:cc="http://creativecommons.org/ns#"
   xmlns:rdf="http://www.w3.org/1999/02/22-rdf-syntax-ns#"
   xmlns:svg="http://www.w3.org/2000/svg"
   xmlns="http://www.w3.org/2000/svg"
   xmlns:sodipodi="http://sodipodi.sourceforge.net/DTD/sodipodi-0.dtd"
   xmlns:inkscape="http://www.inkscape.org/namespaces/inkscape"
   width="270.93332mm"
   height="270.93335mm"
   viewBox="0 0 270.93332 270.93336"
   version="1.1"
   id="svg156"
   inkscape:version="0.92.4 (5da689c313, 2019-01-14)"
   sodipodi:docname="Class_2_Gas_Inhalation_Hazard.svg">
  <defs
     id="defs150" />
  <sodipodi:namedview
     id="base"
     pagecolor="#ffffff"
     bordercolor="#666666"
     borderopacity="1.0"
     inkscape:pageopacity="0.0"
     inkscape:pageshadow="2"
     inkscape:zoom="0.35"
     inkscape:cx="228.57144"
     inkscape:cy="269.42864"
     inkscape:document-units="mm"
     inkscape:current-layer="layer1"
     showgrid="false"
     inkscape:window-width="1920"
     inkscape:window-height="1017"
     inkscape:window-x="-8"
     inkscape:window-y="-8"
     inkscape:window-maximized="1" />
  <metadata
     id="metadata153">
    <rdf:RDF>
      <cc:Work
         rdf:about="">
        <dc:format>image/svg+xml</dc:format>
        <dc:type
           rdf:resource="http://purl.org/dc/dcmitype/StillImage" />
        <dc:title></dc:title>
      </cc:Work>
    </rdf:RDF>
  </metadata>
  <g
     inkscape:label="Layer 1"
     inkscape:groupmode="layer"
     id="layer1"
     transform="translate(-45.357138,50.813685)">
    <g
       id="g169"
       transform="matrix(1.7066667,0,0,1.7181208,-28.181906,-155.47485)">
      <path
         style="fill:#fefefe;stroke-width:0.26458335"
         d="M 43.089283,139.7619 V 60.916069 h 79.374997 79.375 v 78.845831 78.84584 h -79.375 -79.374997 z"
         id="path185"
         inkscape:connector-curvature="0" />
      <path
         style="fill:#cdcdcd;stroke-width:0.26458335"
         d="m 82.796711,179.17182 c -21.693565,-21.56118 -39.44225,-39.27866 -39.441522,-39.37218 0.0016,-0.20066 78.792651,-78.44889 79.112921,-78.567845 0.22515,-0.08362 79.1073,78.186215 79.1057,78.491655 -0.001,0.20121 -78.79274,78.4492 -79.11489,78.56897 -0.12065,0.0448 -17.96865,-17.55942 -39.662209,-39.1206 z m 78.803679,-0.64846 c 21.40349,-21.24604 38.91556,-38.70508 38.91571,-38.79787 5e-4,-0.31365 -77.81162,-77.522537 -78.04303,-77.438016 -0.32545,0.118867 -78.060281,77.306236 -78.060604,77.510846 -4.95e-4,0.31365 77.811614,77.52253 78.043024,77.43801 0.1262,-0.0461 17.7414,-17.46692 39.1449,-38.71297 z m -73.928942,-4.10117 -34.659785,-34.66054 34.726309,-34.72631 34.726308,-34.726311 34.72631,34.726311 34.72631,34.72631 -34.65978,34.66054 c -19.06288,19.06331 -34.71966,34.66055 -34.79284,34.66055 -0.0732,0 -15.72995,-15.59724 -34.792832,-34.66055 z m 68.527342,-1.05833 33.60143,-33.60222 -33.66797,-33.66797 -33.66797,-33.667966 -33.667967,33.667966 -33.667968,33.66797 33.601433,33.60222 c 18.480782,18.48122 33.661312,33.60221 33.734502,33.60221 0.0732,0 15.25372,-15.12099 33.73451,-33.60221 z m -40.0488,22.46192 c 0.51818,-2.30626 1.71753,-3.79442 5.47032,-6.78757 1.44015,-1.14864 2.63865,-2.33239 2.88545,-2.84993 0.38655,-0.8106 0.38649,-0.93963 -8e-4,-1.5306 -0.90902,-1.38735 -2.94891,-0.99815 -3.27346,0.62457 -0.15137,0.75717 -0.2041,0.78174 -1.67763,0.78174 -2.35422,0 -3.17603,-0.23156 -3.16919,-0.89297 0.01,-0.93792 0.92729,-2.65879 1.81684,-3.40729 1.09656,-0.9227 2.35987,-1.25304 4.79193,-1.25304 2.41589,0 3.6951,0.33012 4.76379,1.22936 1.13363,0.95389 1.58621,1.96038 1.58621,3.52759 0,2.26885 -1.1241,3.82954 -4.54482,6.30998 -0.82616,0.59907 -1.57733,1.21092 -1.66926,1.35967 -0.11046,0.17873 0.95979,0.27045 3.15576,0.27045 h 3.3229 v 1.85208 1.85209 h -6.85104 -6.85104 z M 75.897616,142.9369 v -15.875 h 46.566664 46.56667 v 15.875 15.875 H 122.46428 75.897616 Z m 92.604164,-0.13229 v -15.21354 h -46.0375 -46.037497 v 15.21354 15.21354 h 46.037497 46.0375 z m -59.17383,-25.05226 c -0.14562,-0.19126 -0.41808,-0.88252 -0.60545,-1.53615 -0.18738,-0.65362 -0.50588,-1.42425 -0.70778,-1.71251 -0.98296,-1.40338 0.0629,-2.39069 2.23772,-2.11242 1.05288,0.13472 1.48125,0.0299 2.95143,-0.72182 1.61433,-0.82549 1.71732,-0.93282 1.67959,-1.75021 -0.0974,-2.10992 -0.74222,-2.68477 -4.66124,-4.15542 -1.19914,-0.44999 -1.31217,-0.45084 -2.27381,-0.0172 -2.03255,0.91655 -3.49977,0.081 -2.60539,-1.4837 0.26044,-0.45564 0.54437,-1.3761 0.63095,-2.04546 0.0866,-0.66935 0.33842,-1.42537 0.55966,-1.68003 0.54023,-0.621851 1.87477,-0.586233 2.57185,0.0686 0.31126,0.29242 1.22808,0.93039 2.03737,1.41772 l 1.47144,0.88605 -0.13279,-0.98999 c -0.073,-0.5445 0.0115,-1.42724 0.18789,-1.961647 0.29083,-0.881221 0.2606,-1.062617 -0.32484,-1.949077 -0.9495,-1.437719 -1.34092,-2.863762 -1.35976,-4.953997 -0.0213,-2.362793 0.88324,-4.342302 2.88392,-6.311269 3.58158,-3.524814 9.16833,-4.340508 14.01839,-2.046754 5.04135,2.384229 6.88763,6.890734 4.87273,11.893642 -0.64798,1.608921 -0.79177,2.299385 -0.69518,3.338423 0.067,0.720479 0.0262,1.643219 -0.0906,2.050519 -0.15861,0.55308 -0.12094,0.74055 0.1488,0.74055 0.78869,0 1.90225,-0.61009 2.91107,-1.5949 1.36817,-1.335615 2.02074,-1.222186 2.46209,0.42796 0.22071,0.82525 0.5135,1.26912 0.97617,1.47993 0.76092,0.34669 0.81941,0.66586 0.26665,1.45503 -0.27649,0.39475 -0.80988,0.61952 -1.78594,0.75261 -1.45533,0.19843 -5.84763,1.9542 -6.48621,2.59278 -0.20352,0.20352 -0.43146,0.8329 -0.50653,1.39863 l -0.13648,1.02859 2.60417,1.12653 c 1.6537,0.71536 2.99529,1.12578 3.67574,1.12448 0.58936,-0.001 1.21444,0.14082 1.38907,0.31545 0.42264,0.42264 0.40213,1.29518 -0.0456,1.93873 -0.19969,0.28704 -0.45156,0.93861 -0.55972,1.44793 -0.39772,1.87289 -1.12403,2.03359 -3.15087,0.69714 -0.74267,-0.4897 -2.20124,-1.35212 -3.24129,-1.9165 l -1.89098,-1.02614 -1.205,0.86536 c -1.67534,1.20314 -3.10164,1.64515 -5.2989,1.64214 -1.97208,-0.003 -4.11814,-0.73726 -4.89392,-1.6751 -0.5214,-0.63031 -1.33364,-0.54589 -3.3192,0.34497 -1.16229,0.52148 -1.82569,0.99018 -1.98148,1.39994 -0.43074,1.13293 -2.05494,1.89317 -2.57774,1.20656 z m 3.97457,-3.82171 c 2.40953,-1.0046 2.40001,-0.9978 2.18408,-1.56049 -0.1455,-0.37917 -0.2511,-0.36498 -0.94124,0.12645 -1.10952,0.79004 -2.80891,1.33614 -4.15793,1.33614 -1.1326,0 -1.15807,0.0186 -0.99358,0.7276 0.0928,0.40018 0.34301,1.00623 0.55593,1.34677 l 0.38712,0.61916 0.4413,-0.86357 c 0.35434,-0.69343 0.85171,-1.03469 2.52432,-1.73206 z m 20.93572,-0.39599 c -0.7276,-0.2367 -2.01092,-0.74272 -2.85181,-1.12448 -1.8237,-0.82794 -1.94338,-0.83898 -2.11181,-0.19489 -0.10177,0.38919 0.14895,0.63012 1.13767,1.09321 0.69752,0.3267 2.08184,1.10781 3.07625,1.73578 l 1.80803,1.14178 0.1323,-1.11051 0.13229,-1.11051 z m -9.86394,1.34478 c 1.38578,-0.38487 2.5603,-1.46488 3.28458,-3.02025 0.84564,-1.816 0.78375,-2.19301 -0.17984,-1.09553 -1.04442,1.18953 -2.77086,1.83442 -4.97654,1.85893 -3.33797,0.0371 -4.91638,-0.73457 -5.89089,-2.87994 -0.64974,-1.43041 -0.63025,-0.50822 0.0289,1.36717 0.61516,1.75022 1.5695,2.86079 3.04566,3.54423 1.17705,0.54496 3.18917,0.64169 4.68814,0.22539 z m -3.60642,-4.41879 c -0.28903,-0.28903 -0.48722,0.17062 -0.27971,0.64871 0.19676,0.45333 0.21103,0.45291 0.32066,-0.009 0.0631,-0.26605 0.0447,-0.55379 -0.0409,-0.63941 z m 1.43182,0.59397 c 0,-0.21828 -0.11906,-0.39687 -0.26458,-0.39687 -0.14552,0 -0.26459,0.17859 -0.26459,0.39687 0,0.21828 0.11907,0.39688 0.26459,0.39688 0.14552,0 0.26458,-0.1786 0.26458,-0.39688 z m 1.05833,0 c 0,-0.21828 -0.11906,-0.39687 -0.26458,-0.39687 -0.14552,0 -0.26458,0.17859 -0.26458,0.39687 0,0.21828 0.11906,0.39688 0.26458,0.39688 0.14552,0 0.26458,-0.1786 0.26458,-0.39688 z m 1.32292,-0.56039 c 0,-0.21828 -0.11906,-0.3233 -0.26458,-0.23336 -0.14552,0.0899 -0.26459,0.34212 -0.26459,0.5604 0,0.21828 0.11907,0.32329 0.26459,0.23335 0.14552,-0.0899 0.26458,-0.34211 0.26458,-0.56039 z m -4.85186,-0.4318 c -0.0734,-0.1819 -0.13345,-0.0331 -0.13345,0.33073 0,0.36381 0.0601,0.51263 0.13345,0.33073 0.0734,-0.1819 0.0734,-0.47955 0,-0.66146 z m -0.79375,-0.52916 c -0.0734,-0.1819 -0.13345,-0.0331 -0.13345,0.33073 0,0.3638 0.0601,0.51263 0.13345,0.33073 0.0734,-0.18191 0.0734,-0.47956 0,-0.66146 z m 3.26436,-0.46302 c 0,-0.29398 -0.17639,-0.52917 -0.39688,-0.52917 -0.22048,0 -0.39687,0.23519 -0.39687,0.52917 0,0.29398 0.17639,0.52916 0.39687,0.52916 0.22049,0 0.39688,-0.23518 0.39688,-0.52916 z m 1.05833,0 c 0,-0.29104 -0.11906,-0.52917 -0.26458,-0.52917 -0.14552,0 -0.26458,0.23813 -0.26458,0.52917 0,0.29104 0.11906,0.52916 0.26458,0.52916 0.14552,0 0.26458,-0.23812 0.26458,-0.52916 z m -2.38125,-0.13229 c 0,-0.21829 -0.11906,-0.39688 -0.26458,-0.39688 -0.14552,0 -0.26458,0.17859 -0.26458,0.39688 0,0.21828 0.11906,0.39687 0.26458,0.39687 0.14552,0 0.26458,-0.17859 0.26458,-0.39687 z m 3.70417,-0.14791 c 0,-0.29963 -0.11906,-0.4712 -0.26458,-0.38126 -0.14552,0.0899 -0.26459,0.33509 -0.26459,0.54478 0,0.20969 0.11907,0.38126 0.26459,0.38126 0.14552,0 0.26458,-0.24515 0.26458,-0.54478 z m -4.84634,-0.29858 c -0.0845,-0.21107 -0.14716,-0.14837 -0.15985,0.15985 -0.0115,0.27892 0.051,0.43519 0.13896,0.34727 0.0879,-0.0879 0.0973,-0.31612 0.0209,-0.50712 z m 5.55625,-0.26458 c -0.0845,-0.21107 -0.14716,-0.14838 -0.15985,0.15985 -0.0115,0.27891 0.051,0.43518 0.13896,0.34727 0.0879,-0.0879 0.0973,-0.31613 0.0209,-0.50712 z m -6.35,-0.26459 c -0.0845,-0.21106 -0.14716,-0.14837 -0.15985,0.15986 -0.0115,0.27891 0.051,0.43518 0.13896,0.34726 0.0879,-0.0879 0.0973,-0.31612 0.0209,-0.50712 z m 5.75538,-0.85227 c 0.49063,-0.205 0.97085,-0.62099 1.06716,-0.92443 0.0963,-0.30344 1.00769,-1.09031 2.02531,-1.7486 2.27901,-1.47428 2.63637,-2.17758 2.33926,-4.603707 -0.27474,-2.243468 -0.12184,-8.843314 0.20742,-8.953069 0.14152,-0.04717 0.46649,0.233479 0.72216,0.623673 0.3918,0.597959 0.44003,1.088025 0.30693,3.118626 -0.15504,2.365301 -0.15061,2.389904 0.2435,1.350848 0.60706,-1.600485 0.77057,-3.901329 0.37713,-5.306568 -0.449,-1.603668 -2.42881,-3.766845 -4.27234,-4.668048 -5.54923,-2.71271 -12.17064,-0.853915 -14.69357,4.124848 -0.7905,1.559968 -0.89592,4.025519 -0.23397,5.471716 0.41033,0.896472 0.41348,0.88343 0.26605,-1.100897 -0.14143,-1.9036 -0.11179,-2.052571 0.56954,-2.862286 0.62845,-0.746866 0.76702,-0.805892 1.10306,-0.46985 0.33605,0.336045 0.33241,0.463558 -0.0289,1.015039 -0.3575,0.545622 -0.37235,0.954792 -0.11007,3.032676 0.2179,1.726327 0.22551,2.990154 0.0271,4.49308 -0.37117,2.810929 -0.0818,3.506189 1.99906,4.802609 0.86824,0.54095 1.77209,1.31105 2.00856,1.71136 0.23958,0.40559 0.80515,0.83632 1.27744,0.9729 1.30218,0.37655 3.80658,0.33484 4.79926,-0.0799 z m -4.08518,-1.61303 c -0.47266,-0.56952 -0.19122,-2.92136 0.45338,-3.78865 1.11915,-1.50578 2.65613,-0.76581 3.28328,1.58071 0.28686,1.07333 0.2713,1.31805 -0.12195,1.91823 -0.39255,0.59911 -0.63373,0.68796 -1.86748,0.68796 -0.93868,0 -1.52824,-0.13438 -1.74723,-0.39825 z m -4.40107,-3.40256 c -0.62237,-0.53535 -0.74295,-0.87002 -0.8341,-2.315109 -0.0903,-1.431626 -0.019,-1.800275 0.46741,-2.416897 0.4801,-0.608608 0.77637,-0.727443 1.81154,-0.726615 2.13465,0.0016 3.77589,1.455912 3.38789,3.001817 -0.34865,1.389144 -2.31407,3.082614 -3.57764,3.082614 -0.29015,0 -0.85495,-0.28162 -1.2551,-0.62581 z m 8.61956,-0.65083 c -0.8838,-0.88381 -1.04235,-1.21205 -1.04235,-2.157957 0,-0.906835 0.15377,-1.259245 0.82173,-1.883211 0.6983,-0.652309 1.03792,-0.767612 2.26099,-0.767612 1.17531,0 1.55834,0.119094 2.08868,0.649433 0.88634,0.886338 0.90792,2.856387 0.0453,4.140087 -0.5263,0.78325 -0.76687,0.90949 -1.86806,0.98032 -1.16579,0.075 -1.34493,2.6e-4 -2.30633,-0.96106 z m -10.38559,4.08827 c -0.073,-0.19025 -1.0665,-0.83673 -2.20777,-1.43662 -1.14127,-0.59988 -2.61081,-1.45182 -3.26566,-1.89318 -0.65484,-0.44137 -1.25601,-0.80299 -1.33593,-0.80362 -0.0799,-5.3e-4 -0.0982,0.40227 -0.0406,0.89532 0.0665,0.56938 -0.07,1.16295 -0.37397,1.62691 -0.47652,0.72726 -0.47613,0.72913 0.0894,0.42647 1.08091,-0.57848 2.49944,-0.32232 4.83615,0.87331 2.10669,1.07794 2.61922,1.14738 2.29843,0.31141 z m 18.21521,-0.29681 c 1.45057,-0.65414 3.05412,-1.19798 3.56345,-1.20853 0.87966,-0.0182 0.89507,-0.0341 0.30779,-0.31653 -0.5041,-0.24245 -0.58984,-0.4394 -0.4644,-1.06663 l 0.15386,-0.76929 -0.89432,0.78523 c -0.49188,0.43187 -1.7445,1.11009 -2.78361,1.50716 -1.97317,0.75399 -2.66932,1.24428 -2.66932,1.87996 0,0.20788 0.0335,0.37797 0.0746,0.37797 0.041,0 1.2614,-0.5352 2.71198,-1.18934 z"
         id="path183"
         inkscape:connector-curvature="0" />
      <path
         style="fill:#b3b2b1;stroke-width:0.26458335"
         d="M 82.90605,179.21466 C 61.225109,157.69288 43.486158,139.98045 43.486158,139.85372 c 0,-0.29994 78.716612,-78.540776 79.018372,-78.540776 0.30939,0 79.10523,78.225716 79.01158,78.439906 -0.0997,0.2281 -78.80468,78.44023 -79.01997,78.52517 -0.0936,0.0369 -17.90915,-17.54158 -39.59009,-39.06336 z m 92.26303,-14.11909 25.58501,-25.46596 -39.07876,-38.79284 -39.07876,-38.792837 -13.62604,13.459171 c -7.49432,7.402545 -25.139292,24.918856 -39.211049,38.925136 l -25.585009,25.46596 39.078759,38.79283 39.078759,38.79285 13.62604,-13.45918 c 7.49433,-7.40254 25.1393,-24.91885 39.21105,-38.92513 z m -87.365341,9.19433 -34.527491,-34.52825 34.594018,-34.59402 34.594014,-34.594016 34.59402,34.594016 34.59402,34.59402 -34.52749,34.52825 c -18.99012,18.99054 -34.58737,34.52826 -34.66055,34.52826 -0.0732,0 -15.67042,-15.53772 -34.660541,-34.52826 z m 68.395051,-0.92604 33.60143,-33.60222 -33.66797,-33.66797 -33.66797,-33.667966 -33.667967,33.667966 -33.667968,33.66797 33.601433,33.60222 c 18.480782,18.48122 33.661312,33.60221 33.734502,33.60221 0.0732,0 15.25372,-15.12099 33.73451,-33.60221 z m -40.03355,22.55586 c 0.6831,-2.48375 1.9006,-4.04942 5.08934,-6.54475 3.62051,-2.8332 4.18926,-3.79506 2.96686,-5.01746 -0.37112,-0.37112 -0.92372,-0.67477 -1.22799,-0.67477 -0.70846,0 -1.85208,1.13619 -1.85208,1.84006 0,0.47684 -0.16515,0.54084 -1.38907,0.53828 -0.76398,-0.002 -1.83554,-0.0767 -2.38125,-0.16691 -1.16461,-0.1925 -1.26478,-0.66957 -0.49211,-2.34372 0.97879,-2.12075 2.78697,-3.04271 5.96746,-3.04271 4.28454,0 6.49705,1.63058 6.49705,4.78822 0,2.25621 -0.93856,3.54776 -4.46639,6.14622 l -2.21743,1.63327 3.4742,0.0738 3.4742,0.0738 v 1.8444 1.84441 h -6.85784 -6.85784 z M 75.897616,142.9369 v -15.875 h 46.566664 46.56667 v 15.875 15.875 H 122.46428 75.897616 Z m 92.604164,-0.13229 v -15.21354 h -46.0375 -46.037497 v 15.21354 15.21354 h 46.037497 46.0375 z m -59.41246,-25.65608 c -0.21085,-0.50465 -0.38337,-1.04661 -0.38337,-1.20435 0,-0.15775 -0.26789,-0.75423 -0.59531,-1.3255 -0.88604,-1.54595 -0.52168,-1.93977 1.96021,-2.11871 1.41723,-0.10218 2.40341,-0.35347 3.50787,-0.89383 l 1.5364,-0.75169 -0.17142,-1.2922 c -0.25194,-1.89923 -0.29611,-1.95512 -2.22062,-2.8098 -3.23219,-1.43541 -3.66185,-1.54123 -4.61901,-1.13754 -1.23511,0.52092 -2.58284,0.50392 -2.92799,-0.0369 -0.22137,-0.34688 -0.15318,-0.68745 0.29858,-1.49123 0.322,-0.57293 0.58546,-1.44547 0.58546,-1.93898 0,-2.06323 1.74657,-2.764234 3.29469,-1.32237 0.44349,0.41305 1.38402,1.08002 2.09006,1.48215 l 1.28371,0.73115 -0.18184,-0.82789 c -0.10001,-0.45534 -0.0383,-1.3902 0.13717,-2.07746 0.3088,-1.209572 0.29046,-1.29539 -0.57271,-2.680947 -0.85907,-1.378976 -0.89171,-1.529095 -0.89171,-4.101041 0,-3.171791 0.30583,-3.953973 2.45258,-6.272721 2.62082,-2.830801 6.38263,-4.056343 10.54892,-3.436684 3.68142,0.547542 7.09357,2.772634 8.59691,5.606119 0.9278,1.748716 0.88821,4.992458 -0.0918,7.519035 -0.52437,1.351937 -0.73878,2.43114 -0.79396,3.996369 l -0.0756,2.14429 1.08061,-0.3682 c 0.59434,-0.20252 1.52395,-0.82222 2.06579,-1.37712 1.2961,-1.327315 2.14349,-1.241574 2.38054,0.24087 0.10287,0.64329 0.41128,1.20999 0.84356,1.55003 0.74234,0.58392 0.7998,1.55356 0.11221,1.89333 -0.21828,0.10786 -1.08636,0.32312 -1.92907,0.47835 -0.84271,0.15523 -2.65842,0.81573 -4.0349,1.46777 l -2.50269,1.18554 v 1.17503 1.17502 l 2.53252,1.09072 c 1.51296,0.6516 2.94336,1.09071 3.55298,1.09071 1.71806,0 2.3169,1.0453 1.32283,2.30905 -0.29104,0.37 -0.52917,0.96216 -0.52917,1.3159 0,1.71102 -1.12636,2.12981 -2.66057,0.98922 -0.50122,-0.37262 -1.9598,-1.27053 -3.2413,-1.99536 l -2.33001,-1.31786 -0.81418,0.68509 c -2.85318,2.40079 -6.93529,2.67788 -9.91755,0.67318 -1.45107,-0.97542 -1.54415,-1.00067 -2.47644,-0.67174 -1.89884,0.66995 -3.16139,1.46908 -3.57029,2.25982 -0.3701,0.71568 -1.28014,1.30895 -2.00788,1.30895 -0.14348,0 -0.43338,-0.4129 -0.64424,-0.91754 z m 1.78822,-1.52986 c 0.34926,-0.71931 0.78984,-1.00722 2.69484,-1.76107 2.34139,-0.92653 2.41672,-0.98317 2.05833,-1.54766 -0.15939,-0.25104 -0.58125,-0.13157 -1.72731,0.48916 -1.01353,0.54895 -2.0377,0.8686 -3.08826,0.96386 -1.53092,0.13882 -1.56797,0.16053 -1.42306,0.83376 0.18614,0.86475 0.67099,1.88185 0.89708,1.88185 0.094,0 0.35875,-0.38695 0.58838,-0.8599 z m 24.55133,-0.46302 c 0,-0.66396 0.12324,-1.06274 0.33073,-1.07017 0.1819,-0.007 -0.50271,-0.28409 -1.52136,-0.61685 -1.01864,-0.33277 -2.35335,-0.86322 -2.96602,-1.17879 -1.33364,-0.68693 -1.81611,-0.71983 -2.03898,-0.13903 -0.0918,0.23911 -0.13426,0.45918 -0.0945,0.48904 0.0398,0.0299 1.28835,0.73142 2.77454,1.55902 1.48619,0.8276 2.77314,1.61956 2.85989,1.75992 0.35104,0.56799 0.65566,0.19486 0.65566,-0.80314 z m -10.45105,-0.50161 c 1.49217,-0.69085 2.41772,-1.78286 3.03721,-3.58344 0.66688,-1.93832 0.68407,-2.40527 0.0443,-1.20249 -0.26972,0.50706 -0.98669,1.27372 -1.59326,1.70369 -0.99519,0.70546 -1.34866,0.79253 -3.62095,0.89191 -4.03007,0.17626 -5.73833,-0.8168 -6.62039,-3.84864 l -0.36793,-1.26463 0.14827,1.27884 c 0.33117,2.85632 1.58096,5.09351 3.32875,5.95865 1.48562,0.73536 4.13157,0.76635 5.64402,0.0661 z m -3.83645,-3.73172 c 0,-0.29398 -0.17639,-0.52917 -0.39688,-0.52917 -0.22048,0 -0.39687,0.23519 -0.39687,0.52917 0,0.29398 0.17639,0.52917 0.39687,0.52917 0.22049,0 0.39688,-0.23519 0.39688,-0.52917 z m 1.05833,0.13229 c 0,-0.21828 -0.17859,-0.39687 -0.39688,-0.39687 -0.21828,0 -0.39687,0.17859 -0.39687,0.39687 0,0.21828 0.17859,0.39688 0.39687,0.39688 0.21829,0 0.39688,-0.1786 0.39688,-0.39688 z m 1.32292,0 c 0,-0.21828 -0.1786,-0.39687 -0.39688,-0.39687 -0.21828,0 -0.39687,0.17859 -0.39687,0.39687 0,0.21828 0.17859,0.39688 0.39687,0.39688 0.21828,0 0.39688,-0.1786 0.39688,-0.39688 z m 1.05833,-0.41249 c 0,-0.29963 -0.11906,-0.4712 -0.26458,-0.38126 -0.14552,0.0899 -0.26459,0.33509 -0.26459,0.54478 0,0.2097 0.11907,0.38126 0.26459,0.38126 0.14552,0 0.26458,-0.24515 0.26458,-0.54478 z m -4.85186,-0.5797 c -0.0734,-0.1819 -0.13345,-0.0331 -0.13345,0.33073 0,0.36381 0.0601,0.51263 0.13345,0.33073 0.0734,-0.1819 0.0734,-0.47955 0,-0.66146 z m 5.56177,0.0165 c -0.0845,-0.21107 -0.14716,-0.14837 -0.15985,0.15985 -0.0115,0.27892 0.051,0.43519 0.13896,0.34727 0.0879,-0.0879 0.0973,-0.31612 0.0209,-0.50712 z m -6.35552,-0.5457 c -0.0734,-0.1819 -0.13345,-0.0331 -0.13345,0.33073 0,0.3638 0.0601,0.51263 0.13345,0.33073 0.0734,-0.18191 0.0734,-0.47956 0,-0.66146 z m 3.26436,-0.46302 c 0,-0.29398 -0.17639,-0.52917 -0.39688,-0.52917 -0.22048,0 -0.39687,0.23519 -0.39687,0.52917 0,0.29398 0.17639,0.52916 0.39687,0.52916 0.22049,0 0.39688,-0.23518 0.39688,-0.52916 z m 1.32292,0 c 0,-0.29398 -0.17639,-0.52917 -0.39688,-0.52917 -0.22048,0 -0.39687,0.23519 -0.39687,0.52917 0,0.29398 0.17639,0.52916 0.39687,0.52916 0.22049,0 0.39688,-0.23518 0.39688,-0.52916 z m -2.64584,-0.26459 c -0.15576,-0.29104 -0.33854,-0.52916 -0.40618,-0.52916 -0.0676,0 -0.12298,0.23812 -0.12298,0.52916 0,0.29937 0.17639,0.52917 0.40618,0.52917 0.3242,0 0.34902,-0.10681 0.12298,-0.52917 z m 3.70417,-0.022 c 0,-0.6448 -0.61827,-0.55366 -0.747,0.11012 -0.0506,0.26108 0.0843,0.4411 0.33073,0.4411 0.24543,-1e-5 0.41627,-0.22623 0.41627,-0.55122 z m -4.85186,-0.57327 c -0.0734,-0.1819 -0.13345,-0.0331 -0.13345,0.33073 0,0.3638 0.0601,0.51263 0.13345,0.33073 0.0734,-0.1819 0.0734,-0.47956 0,-0.66146 z m 5.56177,0.0165 c -0.0845,-0.21107 -0.14716,-0.14838 -0.15985,0.15985 -0.0115,0.27891 0.051,0.43518 0.13896,0.34727 0.0879,-0.0879 0.0973,-0.31613 0.0209,-0.50712 z m -6.35,-0.26459 c -0.0845,-0.21106 -0.14716,-0.14837 -0.15985,0.15986 -0.0115,0.27891 0.051,0.43518 0.13896,0.34726 0.0879,-0.0879 0.0973,-0.31612 0.0209,-0.50712 z m 6.87916,0 c -0.0845,-0.21106 -0.14715,-0.14837 -0.15985,0.15986 -0.0115,0.27891 0.0511,0.43518 0.13897,0.34726 0.0879,-0.0879 0.0973,-0.31612 0.0209,-0.50712 z m -1.01814,-0.85386 c 0.3981,-0.20586 0.88043,-0.66693 1.07185,-1.02459 0.19141,-0.35766 0.81203,-0.91107 1.37916,-1.22982 1.47831,-0.83086 2.62761,-1.85549 2.90777,-2.59237 0.14825,-0.38993 0.14303,-1.51312 -0.0134,-2.890155 -0.16102,-1.417124 -0.1644,-2.974231 -0.009,-4.199017 0.1672,-1.318757 0.15547,-2.208689 -0.0364,-2.759011 -0.15575,-0.446794 -0.20276,-1.01922 -0.10446,-1.272061 0.15622,-0.401831 0.26266,-0.362636 0.84544,0.311308 0.63688,0.736524 0.65986,0.87857 0.51353,3.175 -0.15013,2.356189 -0.14479,2.385571 0.26865,1.477939 0.23201,-0.509323 0.48508,-1.843323 0.56238,-2.964447 0.12706,-1.84272 0.0709,-2.180712 -0.58471,-3.520779 -0.86107,-1.759958 -2.60869,-3.251757 -4.83825,-4.130002 -2.22623,-0.876935 -6.69046,-0.879515 -8.87648,-0.0051 -1.87214,0.74884 -4.05351,2.802014 -4.95863,4.667233 -0.84609,1.743581 -0.86476,4.008353 -0.0469,5.688542 0.31876,0.654844 0.52134,0.947468 0.45018,0.650275 -0.0712,-0.297194 -0.15528,-1.399511 -0.18693,-2.449598 -0.0529,-1.755827 -5.3e-4,-1.96619 0.65116,-2.617959 0.63426,-0.634259 0.72744,-0.65995 0.88685,-0.244536 0.098,0.255302 0.0308,0.739436 -0.14924,1.075857 -0.25992,0.485658 -0.26013,1.103648 -0.001,2.999629 0.25437,1.861344 0.25727,2.860286 0.0132,4.529788 -0.37947,2.595254 -0.17008,3.185124 1.56784,4.416774 0.65484,0.46408 1.61151,1.26756 2.12593,1.78551 0.51441,0.51795 1.22879,1.05887 1.5875,1.20205 0.99987,0.39911 4.1452,0.34825 4.97417,-0.0804 z m -4.22847,-1.85413 c -0.39553,-0.86808 -0.0686,-2.85533 0.61207,-3.72068 0.75075,-0.95442 1.73604,-0.81177 2.52703,0.36585 0.67005,0.99757 0.83596,3.12867 0.28636,3.67827 -0.17463,0.17462 -0.95109,0.3175 -1.72547,0.3175 -1.23305,0 -1.44424,-0.0796 -1.69999,-0.64094 z m -3.87557,-2.81776 c -1.43278,-0.55963 -1.84662,-4.302993 -0.58834,-5.32188 1.30787,-1.059053 4.08739,-0.269171 4.75908,1.352434 0.79117,1.910066 -2.18683,4.744346 -4.17074,3.969446 z m 8.60331,-0.5459 c -1.34741,-1.00503 -1.94965,-3.028722 -1.18322,-3.975917 1.02192,-1.262946 3.42462,-1.717545 4.62692,-0.875424 1.13662,0.796121 1.09627,3.619821 -0.0684,4.784461 -0.80866,0.80866 -2.34017,0.83901 -3.37533,0.0669 z m 10.55746,2.26605 c 1.12117,-0.16813 1.15521,-0.19779 0.64067,-0.55819 -0.41302,-0.28929 -0.5028,-0.55144 -0.37417,-1.09246 l 0.16925,-0.71185 -0.78363,0.73304 c -0.43099,0.40318 -1.7235,1.09496 -2.87223,1.5373 -2.4654,0.94933 -2.76588,1.16516 -2.76588,1.9866 0,0.61034 0.0384,0.60158 2.40095,-0.54831 1.32052,-0.64271 2.93379,-1.24847 3.58504,-1.34613 z m -21.37957,1.67309 c -0.0624,-0.43867 -0.63969,-0.89129 -2.20122,-1.72577 -1.16416,-0.62213 -2.61237,-1.48565 -3.21825,-1.91892 -1.38003,-0.98689 -1.6141,-0.98678 -1.46917,7.9e-4 0.0731,0.49828 -0.0872,1.13239 -0.43562,1.72293 l -0.55135,0.93447 0.77354,-0.40001 c 1.20005,-0.62058 2.0739,-0.46719 4.50398,0.79061 1.23693,0.64022 2.34654,1.17003 2.4658,1.17734 0.11926,0.007 0.17879,-0.25429 0.13229,-0.58134 z"
         id="path181"
         inkscape:connector-curvature="0" />
      <path
         style="fill:#9c9b9b;stroke-width:0.26458335"
         d="M 82.906963,179.21379 C 61.22552,157.69186 43.486158,139.9797 43.486158,139.85343 c 0,-0.29898 78.718182,-78.540486 79.018982,-78.540486 0.309,0 79.1045,78.225996 79.01097,78.439906 -0.0994,0.22741 -78.80431,78.44006 -79.01906,78.52486 -0.0931,0.0368 -17.90864,-17.54199 -39.590087,-39.06392 z M 175.17025,165.0959 200.75642,139.62961 161.6765,100.83713 122.59657,62.044639 108.97053,75.503129 c -7.49432,7.402169 -25.139816,24.918321 -39.21221,38.924781 l -25.586174,25.46629 39.079924,38.79248 39.07992,38.79249 13.62604,-13.45849 c 7.49433,-7.40217 25.13982,-24.91832 39.21222,-38.92478 z m -87.366511,9.194 -34.527491,-34.52825 34.594018,-34.59402 34.594014,-34.594016 34.59402,34.594016 34.59402,34.59402 -34.52749,34.52825 c -18.99012,18.99054 -34.58737,34.52826 -34.66055,34.52826 -0.0732,0 -15.67042,-15.53772 -34.660541,-34.52826 z m 68.395051,-0.92604 33.60143,-33.60222 -33.66797,-33.66797 -33.66797,-33.667966 -33.667967,33.667966 -33.667968,33.66797 33.601433,33.60222 c 18.480782,18.48122 33.661312,33.60221 33.734502,33.60221 0.0732,0 15.25372,-15.12099 33.73451,-33.60221 z m -40.0787,22.95273 c 0.007,-0.76637 0.89461,-2.71957 1.73657,-3.82344 0.36159,-0.47407 1.83275,-1.81374 3.26926,-2.97707 2.93364,-2.37574 3.71961,-3.24844 3.71961,-4.13003 0,-0.66806 -1.12567,-1.70331 -1.85208,-1.70331 -0.68083,0 -1.85208,1.02132 -1.85208,1.615 0,0.73356 -0.52652,0.85346 -2.80872,0.6396 l -2.00333,-0.18773 0.17975,-0.95815 c 0.58112,-3.09766 3.01053,-4.50676 7.26705,-4.21501 2.44034,0.16726 3.74762,0.72048 4.72237,1.99845 0.61096,0.80102 0.71267,1.18891 0.71267,2.7181 0,1.55511 -0.10245,1.93079 -0.7993,2.93101 -0.43961,0.631 -1.91892,1.98071 -3.28736,2.99935 l -2.48807,1.85209 3.4858,0.0738 3.4858,0.0738 v 1.8444 1.84441 h -6.74687 -6.74688 l 0.006,-0.59532 z M 75.897616,142.9369 v -15.875 h 46.566664 46.56667 v 15.875 15.875 H 122.46428 75.897616 Z m 92.604164,-0.13229 v -15.21354 h -46.0375 -46.037497 v 15.21354 15.21354 h 46.037497 46.0375 z M 109.24442,117.5543 c -0.15064,-0.28148 -0.27389,-0.65354 -0.27389,-0.82681 0,-0.17328 -0.31332,-1.01322 -0.69628,-1.86656 -0.91833,-2.04632 -0.69214,-2.35111 1.74475,-2.35111 1.46238,0 2.07151,-0.14695 3.43659,-0.82909 l 1.65916,-0.82909 -0.17124,-1.2908 c -0.0942,-0.70994 -0.2342,-1.45491 -0.31117,-1.65549 -0.15792,-0.41155 -3.93081,-2.20631 -5.15104,-2.45036 -0.50214,-0.10042 -1.17879,0.0127 -1.82822,0.30549 -1.82437,0.82268 -3.13267,-0.0207 -2.20875,-1.42388 0.25,-0.37968 0.54093,-1.32161 0.64651,-2.09318 0.10558,-0.77157 0.33503,-1.57524 0.50989,-1.78593 0.51347,-0.618693 1.73912,-0.45424 2.69132,0.3611 0.47801,0.4093 1.45265,1.07971 2.16587,1.48979 l 1.29676,0.74562 -0.16657,-0.83288 c -0.0916,-0.45808 -0.0327,-1.41306 0.13102,-2.12217 0.26971,-1.16842 0.24385,-1.364794 -0.27586,-2.094647 -0.91769,-1.288785 -1.35607,-2.883273 -1.35607,-4.932362 0,-2.457625 0.96054,-4.498653 3.0448,-6.469866 2.74438,-2.595517 6.62746,-3.656401 10.48394,-2.864276 2.90505,0.596701 4.75427,1.595144 6.59108,3.558702 2.54264,2.718094 2.98734,5.50322 1.49104,9.338319 -0.47716,1.222997 -0.70035,2.376794 -0.77261,3.99418 l -0.10162,2.27439 1.03972,-0.26391 c 0.58816,-0.14929 1.50974,-0.71103 2.12195,-1.29341 1.34109,-1.27575 2.06499,-1.26113 2.33105,0.0471 0.10312,0.50703 0.51367,1.20243 0.91234,1.54535 0.61809,0.53165 0.68854,0.72668 0.4784,1.32422 -0.20994,0.59696 -0.45522,0.7308 -1.65611,0.90362 -1.51181,0.21757 -4.90241,1.482 -6.3149,2.35497 -0.75899,0.46908 -0.86366,0.67197 -0.86366,1.67401 v 1.14024 l 2.47885,1.08714 c 1.56769,0.68754 2.87367,1.08714 3.55297,1.08714 1.05951,0 1.90748,0.50923 1.90393,1.14338 -0.001,0.1715 -0.2383,0.66902 -0.52742,1.10558 -0.28912,0.43656 -0.52647,1.06947 -0.52742,1.40645 -0.005,1.64047 -1.08712,2.08093 -2.49031,1.01336 -0.4503,-0.34259 -1.91375,-1.23959 -3.25211,-1.99333 l -2.43338,-1.37043 -1.21583,0.92807 c -2.91979,2.22873 -7.21184,2.2968 -9.91328,0.15722 -1.16952,-0.92628 -1.22221,-0.92366 -3.63393,0.18046 -0.97341,0.44564 -1.63209,0.95961 -1.97532,1.54134 -0.28804,0.48819 -0.87606,0.99864 -1.33449,1.15845 -1.03057,0.35926 -0.93834,0.3758 -1.26046,-0.22607 z m 1.6572,-2.00177 c 0.24288,-0.50932 0.56531,-0.92604 0.7165,-0.92604 0.4268,0 4.23209,-1.64059 4.22753,-1.82263 -0.002,-0.089 -0.10001,-0.31293 -0.21728,-0.49771 -0.1628,-0.25649 -0.60005,-0.13645 -1.84855,0.50745 -1.03842,0.53555 -2.16156,0.88704 -3.07706,0.96296 l -1.44174,0.11956 0.15661,0.8282 c 0.18709,0.98943 0.55162,1.75425 0.83612,1.75425 0.11345,0 0.40499,-0.41672 0.64787,-0.92604 z m 24.52725,-0.21167 c 0,-0.48022 0.12679,-0.99992 0.28176,-1.15489 0.1993,-0.19929 -0.0676,-0.36974 -0.91196,-0.58235 -0.65655,-0.16532 -2.09258,-0.7102 -3.19118,-1.21084 -1.89831,-0.86509 -2.01063,-0.88564 -2.26303,-0.41401 -0.14608,0.27294 -0.26559,0.56229 -0.26559,0.643 0,0.0807 0.92273,0.61588 2.05052,1.1893 1.12778,0.57342 2.46724,1.34281 2.97656,1.70977 1.21037,0.87206 1.32292,0.85674 1.32292,-0.17998 z m -9.5975,-1.03161 c 1.14019,-0.75482 2.26409,-2.69014 2.58149,-4.44526 l 0.16746,-0.92604 -0.61062,1.05833 c -0.43048,0.74611 -1.03442,1.27299 -2.04713,1.78594 -1.23907,0.6276 -1.74818,0.7268 -3.70417,0.72179 -3.63981,-0.009 -4.8415,-0.78495 -5.88249,-3.7968 -0.53656,-1.55242 -0.62485,-1.11017 -0.18872,0.94532 0.57602,2.71477 1.78686,4.42283 3.70967,5.23301 0.34267,0.14439 1.58441,0.23446 2.75942,0.20017 1.8171,-0.053 2.29758,-0.16907 3.21509,-0.77646 z m -3.63167,-3.12235 c 0,-0.29398 -0.17639,-0.52916 -0.39688,-0.52916 -0.72089,0 -0.47086,0.78431 0.33073,1.03744 0.0364,0.0115 0.0662,-0.21723 0.0662,-0.50828 z m -1.05833,-0.23627 c 0,-0.27548 -0.1786,-0.56939 -0.39688,-0.65316 -0.28672,-0.11002 -0.39687,0.029 -0.39687,0.50086 0,0.40419 0.15127,0.65316 0.39687,0.65316 0.21828,0 0.39688,-0.22539 0.39688,-0.50086 z m 2.38125,0.10398 c 0,-0.21828 -0.1786,-0.39687 -0.39688,-0.39687 -0.21828,0 -0.39687,0.17859 -0.39687,0.39687 0,0.21828 0.17859,0.39688 0.39687,0.39688 0.21828,0 0.39688,-0.1786 0.39688,-0.39688 z m -3.7854,-0.85486 c -0.0671,-0.25743 -0.12638,-0.11087 -0.13177,0.3257 -0.005,0.43656 0.0495,0.64718 0.12197,0.46805 0.0725,-0.17913 0.0769,-0.53632 0.01,-0.79375 z m 4.84373,0.45799 c 0,-0.29104 -0.11906,-0.52917 -0.26458,-0.52917 -0.14552,0 -0.26459,0.23813 -0.26459,0.52917 0,0.29104 0.11907,0.52916 0.26459,0.52916 0.14552,0 0.26458,-0.23812 0.26458,-0.52916 z m 0.70439,-0.8599 c -0.0734,-0.1819 -0.13345,-0.0331 -0.13345,0.33073 0,0.3638 0.0601,0.51263 0.13345,0.33073 0.0734,-0.1819 0.0734,-0.47956 0,-0.66146 z m -6.35,-0.26458 c -0.0734,-0.1819 -0.13345,-0.0331 -0.13345,0.33073 0,0.3638 0.0601,0.51263 0.13345,0.33073 0.0734,-0.18191 0.0734,-0.47956 0,-0.66146 z m 2.10204,-0.35237 c -0.0883,-0.23018 -0.1606,-0.52784 -0.1606,-0.66146 0,-0.13362 -0.11906,-0.24294 -0.26458,-0.24294 -0.29558,0 -0.36266,0.87205 -0.0882,1.14652 0.33486,0.33487 0.6735,0.17516 0.51337,-0.24212 z m 1.16232,-0.11065 c 0,-0.29398 -0.17639,-0.52917 -0.39688,-0.52917 -0.22048,0 -0.39687,0.23519 -0.39687,0.52917 0,0.29398 0.17639,0.52916 0.39687,0.52916 0.22049,0 0.39688,-0.23518 0.39688,-0.52916 z m 1.32292,0 c 0,-0.29398 -0.17639,-0.52917 -0.39688,-0.52917 -0.22048,0 -0.39687,0.23519 -0.39687,0.52917 0,0.29398 0.17639,0.52916 0.39687,0.52916 0.22049,0 0.39688,-0.23518 0.39688,-0.52916 z m 1.05833,-0.28663 c 0,-0.64481 -0.61827,-0.55366 -0.747,0.11012 -0.0506,0.26108 0.0843,0.44109 0.33073,0.44109 0.24543,0 0.41627,-0.22622 0.41627,-0.55121 z m -4.85186,-0.57327 c -0.0734,-0.1819 -0.13345,-0.0331 -0.13345,0.33073 0,0.3638 0.0601,0.51263 0.13345,0.33073 0.0734,-0.1819 0.0734,-0.47956 0,-0.66146 z m 5.56177,0.0165 c -0.0845,-0.21107 -0.14716,-0.14838 -0.15985,0.15985 -0.0115,0.27891 0.051,0.43518 0.13896,0.34727 0.0879,-0.0879 0.0973,-0.31613 0.0209,-0.50712 z m -6.35,-0.26459 c -0.0845,-0.21106 -0.14716,-0.14837 -0.15985,0.15986 -0.0115,0.27891 0.051,0.43518 0.13896,0.34726 0.0879,-0.0879 0.0973,-0.31612 0.0209,-0.50712 z m 6.87916,0 c -0.0845,-0.21106 -0.14715,-0.14837 -0.15985,0.15986 -0.0115,0.27891 0.0511,0.43518 0.13897,0.34726 0.0879,-0.0879 0.0973,-0.31612 0.0209,-0.50712 z m 0.14862,-1.80247 c 0.62325,-0.65484 1.72593,-1.60879 2.45041,-2.11988 1.87158,-1.32034 2.0809,-1.88487 1.74326,-4.701634 -0.18578,-1.549863 -0.19093,-2.90154 -0.0157,-4.119989 0.18021,-1.253098 0.17222,-2.142289 -0.0259,-2.877926 -0.37715,-1.400622 0.0154,-1.81524 0.78836,-0.832617 0.52614,0.668885 0.56354,0.948045 0.43675,3.260016 l -0.13867,2.528488 0.50717,-1.455208 c 2.23506,-6.412934 -2.51716,-11.476698 -10.38314,-11.06384 -2.84957,0.149564 -5.1604,1.190109 -6.81766,3.069917 -1.77563,2.014077 -2.22645,3.082901 -2.19995,5.215798 0.02,1.607931 0.69518,4.119729 1.02009,3.794815 0.0544,-0.05436 -0.004,-0.924917 -0.12882,-1.934572 -0.24199,-1.951231 0.023,-3.096789 0.88091,-3.80827 0.37215,-0.308631 0.45928,-0.29654 0.60531,0.084 0.0938,0.244485 0.0217,0.722595 -0.16013,1.062463 -0.26411,0.493493 -0.26464,1.08344 -0.003,2.929348 0.25909,1.825241 0.26046,2.80643 0.006,4.664938 -0.3743,2.739003 -0.20635,3.188883 1.64217,4.398783 0.6006,0.39312 1.57633,1.20585 2.16829,1.80606 0.59195,0.60022 1.25487,1.16201 1.47315,1.24842 0.21829,0.0864 1.43641,0.1311 2.70695,0.0993 l 2.31007,-0.0578 1.13318,-1.19062 z m -5.2273,-0.70241 c -0.53426,-0.53426 -0.48593,-1.84705 0.11687,-3.17462 0.81534,-1.79566 2.322,-1.76958 3.08368,0.0534 0.46343,1.10914 0.48693,2.87179 0.0432,3.24005 -0.5071,0.42085 -2.78762,0.33734 -3.24375,-0.1188 z m -4.09789,-3.08104 c -1.38646,-0.69651 -1.74447,-4.281497 -0.52608,-5.268089 0.72869,-0.590058 2.14709,-0.607938 3.33951,-0.0421 1.04146,0.494205 1.50645,1.209143 1.47629,2.269861 -0.0536,1.885538 -2.76422,3.806678 -4.28972,3.040328 z m 8.81024,-0.43917 c -0.98778,-0.60228 -1.66649,-1.77546 -1.66649,-2.880583 0,-1.145751 1.52928,-2.421797 2.9024,-2.421797 1.68136,0 2.32231,0.376597 2.68153,1.575551 0.3763,1.255996 0.0115,2.883219 -0.83659,3.731279 -0.66208,0.66207 -1.99086,0.66015 -3.08085,-0.004 z m 10.44936,2.21635 c 1.06991,-0.17109 1.10166,-0.20104 0.59169,-0.55823 -0.40697,-0.28505 -0.49647,-0.54639 -0.36565,-1.06763 l 0.17323,-0.69019 -1.03284,0.83001 c -0.56806,0.45651 -1.74049,1.07348 -2.60539,1.37105 -2.11653,0.72819 -2.79147,1.20652 -2.79147,1.97829 0,0.63746 0.004,0.63656 2.44993,-0.52197 1.34747,-0.6383 2.95869,-1.2419 3.5805,-1.34133 z m -21.37627,1.77408 c 0,-0.62249 -0.22782,-0.8048 -2.51354,-2.01136 -1.01864,-0.5377 -2.4179,-1.38397 -3.10946,-1.88059 -0.69157,-0.49662 -1.30916,-0.90294 -1.37243,-0.90294 -0.0633,0 -0.0486,0.4092 0.0325,0.90933 0.10856,0.669 -0.0107,1.16546 -0.4514,1.87847 l -0.59896,0.96914 0.8185,-0.42326 c 1.24718,-0.64495 2.09746,-0.50151 4.54894,0.76736 1.23693,0.64022 2.33825,1.17003 2.4474,1.17734 0.10914,0.007 0.19843,-0.21026 0.19843,-0.48349 z"
         id="path179"
         inkscape:connector-curvature="0" />
      <path
         style="fill:#7c7c7c;stroke-width:0.26458335"
         d="M 82.82671,179.08742 43.323948,139.8942 77.800886,105.56379 C 96.763203,86.682073 114.60011,68.98559 117.43846,66.238278 l 5.16063,-4.995114 39.50277,39.193226 39.50276,39.19322 -34.47694,34.3304 c -18.96232,18.88173 -36.79922,36.57821 -39.63757,39.32552 l -5.16064,4.99512 z m 82.58231,-4.20163 35.40411,-35.25618 -39.10559,-38.79788 -39.10559,-38.797887 -3.83915,3.674232 c -2.11153,2.020827 -19.770879,19.539406 -39.243001,38.930175 l -35.403858,35.25595 39.105337,38.79788 39.105342,38.79788 3.83914,-3.67399 c 2.11153,-2.0207 19.771,-19.53928 39.24326,-38.93018 z M 87.803739,174.2899 53.276248,139.76165 87.870266,105.16763 122.46428,70.573614 l 34.59402,34.594016 34.59402,34.59402 -34.52749,34.52825 c -18.99012,18.99054 -34.58737,34.52826 -34.66055,34.52826 -0.0732,0 -15.67042,-15.53772 -34.660541,-34.52826 z m 68.527341,-0.79375 33.73373,-33.73451 -33.80027,-33.80026 -33.80026,-33.80026 -33.799227,33.79923 -33.799227,33.79923 33.731666,33.73554 c 18.552418,18.55454 33.792008,33.73554 33.865758,33.73554 0.0738,0 15.31428,-15.18053 33.86783,-33.73451 z m -40.2168,23.02172 c 0,-0.76882 1.01308,-3.04455 1.7946,-4.0313 0.43614,-0.55068 1.98593,-1.95314 3.44398,-3.11659 3.53387,-2.81987 4.18241,-3.96571 2.91362,-5.14777 -1.11281,-1.03673 -2.6319,-0.57872 -3.13483,0.94517 l -0.31668,0.95954 -2.1519,-0.18707 c -1.18355,-0.10289 -2.20075,-0.23535 -2.26045,-0.29435 -0.19869,-0.19637 0.55757,-2.34896 1.08673,-3.09323 0.98802,-1.38964 2.41479,-1.89543 5.37181,-1.9043 2.30253,-0.007 2.81749,0.0779 3.96875,0.65352 1.81451,0.90726 2.56927,2.22895 2.443,4.27808 -0.127,2.06104 -1.05044,3.3089 -4.16279,5.62522 l -2.51355,1.87066 3.50573,0.0738 3.50573,0.0738 v 1.8444 1.84441 h -6.74687 c -5.79924,0 -6.74688,-0.0554 -6.74688,-0.39404 z M 75.897616,142.9369 v -15.875 h 46.566664 46.56667 v 15.875 15.875 H 122.46428 75.897616 Z m 92.604164,-0.13229 v -15.21354 h -46.0375 -46.037497 v 15.21354 15.21354 h 46.037497 46.0375 z m -59.42491,-25.73073 c -0.0926,-0.40018 -0.46771,-1.4109 -0.83361,-2.24603 -0.87942,-2.00717 -0.64546,-2.31708 1.75186,-2.32061 1.31872,-0.002 2.11166,-0.16929 3.19777,-0.67485 2.11829,-0.98602 2.0983,-0.95618 1.75979,-2.62729 -0.34137,-1.68523 -0.47726,-1.80101 -3.66262,-3.12056 l -2.31068,-0.95721 -1.21856,0.53903 c -2.08833,0.92377 -3.20727,0.0311 -2.12924,-1.69866 0.20087,-0.3223 0.43915,-1.16931 0.52951,-1.88223 0.0904,-0.71292 0.29779,-1.45706 0.46094,-1.65364 0.49209,-0.592943 1.73258,-0.41556 2.67002,0.3818 0.47801,0.40658 1.19653,0.94236 1.59671,1.19063 0.40018,0.24826 1.01987,0.64014 1.37707,0.87084 l 0.64946,0.41944 -0.25661,-0.88246 c -0.17804,-0.61226 -0.15707,-1.27502 0.0685,-2.16449 0.28849,-1.13763 0.26955,-1.376017 -0.16816,-2.116665 -1.27543,-2.15814 -1.33951,-2.394265 -1.33951,-4.935689 0,-2.289982 0.0696,-2.639189 0.78252,-3.926247 0.97826,-1.766073 3.11823,-3.744595 5.10508,-4.719935 1.44025,-0.707016 1.70978,-0.746526 5.09261,-0.746526 3.46611,0 3.62455,0.02495 5.35076,0.842692 2.16562,1.025902 4.2551,2.924636 5.1813,4.708319 0.98941,1.905402 0.96577,4.856038 -0.0581,7.252378 -0.58305,1.36462 -0.73177,2.142648 -0.77077,4.032113 -0.046,2.23003 -0.0231,2.33368 0.48205,2.18229 1.22771,-0.36792 2.29761,-1.00612 2.91326,-1.73778 0.90188,-1.07182 1.76417,-0.93913 2.01834,0.31059 0.10312,0.50703 0.50628,1.19607 0.89591,1.53121 0.54068,0.46508 0.66993,0.76268 0.54588,1.25693 -0.16291,0.64906 -0.33816,0.72747 -2.35076,1.05178 -1.07092,0.17257 -4.85742,1.69188 -5.86984,2.35525 -0.66307,0.43446 -1.04285,2.39021 -0.5413,2.7875 0.83011,0.65756 4.85885,2.13402 5.82297,2.13402 0.60012,0 1.234,0.14288 1.40862,0.3175 0.43115,0.43114 0.38593,1.55415 -0.0878,2.18047 -0.21365,0.28247 -0.38846,0.79631 -0.38846,1.14187 0,0.88517 -0.46646,1.65183 -1.00502,1.65183 -0.25149,0 -1.05097,-0.39568 -1.77663,-0.87929 -0.72567,-0.48361 -2.23618,-1.38163 -3.35669,-1.99561 l -2.0373,-1.11632 -1.1377,0.82692 c -3.48324,2.53177 -6.99736,2.4328 -10.80187,-0.30422 -0.58146,-0.41831 -4.45634,1.22615 -4.75785,2.01917 -0.34821,0.91588 -1.0342,1.44935 -1.86371,1.44935 -0.6226,0 -0.802,-0.13914 -0.93814,-0.72761 z m 1.72473,-1.2015 c 0.31856,-0.83788 0.65071,-1.0633 2.99758,-2.03434 2.10723,-0.8719 2.19868,-0.94949 1.821,-1.54513 -0.17398,-0.27439 -0.56446,-0.16939 -1.82253,0.49007 -1.21457,0.63667 -1.97456,0.84872 -3.14797,0.87838 -0.85077,0.0215 -1.51922,0.12892 -1.48545,0.23871 0.0338,0.1098 0.13954,0.52652 0.23504,0.92604 0.39985,1.67283 0.99523,2.11704 1.40233,1.04627 z m 24.62727,-0.53152 c 0,-0.48022 0.12679,-0.99992 0.28176,-1.15489 0.1993,-0.19929 -0.0556,-0.36671 -0.8709,-0.57201 -0.63397,-0.15963 -2.08964,-0.71723 -3.23483,-1.23911 -1.61878,-0.73771 -2.13065,-0.87243 -2.30005,-0.60539 -0.44575,0.70271 -0.17732,1.00347 1.82567,2.04554 1.12841,0.58706 2.46786,1.36116 2.97656,1.72021 1.21228,0.85566 1.32179,0.83956 1.32179,-0.19435 z m -10.10286,-0.7721 c 1.24192,-0.58244 2.16868,-1.77146 2.81653,-3.61356 0.62234,-1.7696 0.52278,-2.51626 -0.15338,-1.15025 -0.38133,0.77036 -0.95137,1.36159 -1.78573,1.85209 -1.1239,0.6607 -1.45613,0.72049 -4.00373,0.72049 -2.30901,0 -2.92641,-0.0894 -3.6563,-0.52917 -1.05291,-0.63446 -1.84126,-1.83914 -2.30468,-3.5218 -0.29674,-1.07745 -0.34482,-1.13487 -0.36536,-0.43639 -0.0367,1.24649 0.72383,3.85266 1.44268,4.94395 1.58057,2.39949 5.00914,3.14198 8.00997,1.73464 z m -3.12631,-3.38186 c 0,-0.29398 -0.17639,-0.52916 -0.39688,-0.52916 -0.4028,0 -0.54272,0.5597 -0.22048,0.88194 0.33544,0.33544 0.61736,0.17434 0.61736,-0.35278 z m 1.32292,-0.29289 c 0,-0.27547 -0.1786,-0.50086 -0.39688,-0.50086 -0.2456,0 -0.39687,0.24897 -0.39687,0.65316 0,0.47188 0.11015,0.61088 0.39687,0.50086 0.21828,-0.0838 0.39688,-0.37768 0.39688,-0.65316 z m -2.38125,0.0566 c 0,-0.27548 -0.1786,-0.56939 -0.39688,-0.65316 -0.28672,-0.11002 -0.39687,0.029 -0.39687,0.50086 0,0.40419 0.15127,0.65316 0.39687,0.65316 0.21828,0 0.39688,-0.22539 0.39688,-0.50086 z m -1.40415,-0.75088 c -0.0671,-0.25743 -0.12638,-0.11087 -0.13177,0.3257 -0.005,0.43656 0.0495,0.64718 0.12197,0.46805 0.0725,-0.17913 0.0769,-0.53632 0.01,-0.79375 z m 4.84373,0.43594 c 0,-0.6448 -0.61827,-0.55366 -0.747,0.11012 -0.0506,0.26108 0.0843,0.44109 0.33073,0.44109 0.24543,0 0.41627,-0.22622 0.41627,-0.55121 z m 0.79375,-0.52274 c 0,-0.29963 -0.11906,-0.47119 -0.26458,-0.38125 -0.14552,0.0899 -0.26459,0.33508 -0.26459,0.54478 0,0.20969 0.11907,0.38126 0.26459,0.38126 0.14552,0 0.26458,-0.24516 0.26458,-0.54479 z m -6.43936,-0.57969 c -0.0734,-0.1819 -0.13345,-0.0331 -0.13345,0.33073 0,0.3638 0.0601,0.51263 0.13345,0.33073 0.0734,-0.18191 0.0734,-0.47956 0,-0.66146 z m 6.88468,0.0165 c -0.0845,-0.21106 -0.14715,-0.14837 -0.15985,0.15986 -0.0115,0.27891 0.0511,0.43518 0.13897,0.34726 0.0879,-0.0879 0.0973,-0.31612 0.0209,-0.50712 z m -3.62032,-0.34726 c 0,-0.41158 -0.14993,-0.66146 -0.39688,-0.66146 -0.73927,0 -0.47301,1.04821 0.33073,1.30203 0.0364,0.0115 0.0662,-0.27677 0.0662,-0.64057 z m -3.92024,-0.18962 c -0.18986,-0.18986 -0.31309,-0.20548 -0.31309,-0.0397 0,0.35316 0.3129,0.66606 0.48948,0.48948 0.0752,-0.0752 -0.004,-0.27759 -0.17639,-0.44979 z m 2.81416,0.0119 c -0.10699,-0.72711 -0.746,-0.9715 -0.746,-0.28531 0,0.54913 0.21382,0.85989 0.59166,0.85989 0.13139,0 0.20084,-0.25856 0.15434,-0.57458 z m 2.429,0.0454 c 0,-0.29398 -0.17639,-0.52917 -0.39688,-0.52917 -0.22048,0 -0.39687,0.23519 -0.39687,0.52917 0,0.29398 0.17639,0.52916 0.39687,0.52916 0.22049,0 0.39688,-0.23518 0.39688,-0.52916 z m 1.05833,-0.29289 c 0,-0.27548 -0.17859,-0.50086 -0.39688,-0.50086 -0.24559,0 -0.39687,0.24896 -0.39687,0.65315 0,0.47188 0.11015,0.61089 0.39687,0.50086 0.21829,-0.0838 0.39688,-0.37768 0.39688,-0.65315 z m -4.49792,-0.0884 c 0,-0.42139 -0.48005,-0.81439 -0.71174,-0.58269 -0.21766,0.21766 0.12211,0.96395 0.43886,0.96395 0.15008,0 0.27288,-0.17157 0.27288,-0.38126 z m 5.29167,-0.16353 c 0,-0.29963 -0.11906,-0.47119 -0.26458,-0.38126 -0.14552,0.0899 -0.26459,0.33509 -0.26459,0.54479 0,0.20969 0.11907,0.38126 0.26459,0.38126 0.14552,0 0.26458,-0.24516 0.26458,-0.54479 z m -6.43384,-0.56316 c -0.0845,-0.21106 -0.14716,-0.14837 -0.15985,0.15986 -0.0115,0.27891 0.051,0.43518 0.13896,0.34726 0.0879,-0.0879 0.0973,-0.31612 0.0209,-0.50712 z m 6.87916,0 c -0.0845,-0.21106 -0.14715,-0.14837 -0.15985,0.15986 -0.0115,0.27891 0.0511,0.43518 0.13897,0.34726 0.0879,-0.0879 0.0973,-0.31612 0.0209,-0.50712 z m -7.54056,-0.53688 c -0.18986,-0.18986 -0.31309,-0.20548 -0.31309,-0.0397 0,0.35316 0.3129,0.66606 0.48948,0.48948 0.0752,-0.0752 -0.004,-0.27759 -0.17639,-0.44979 z m 6.46883,-0.22495 c 0.31031,-0.11558 0.82411,-0.57514 1.14177,-1.02125 0.31765,-0.4461 1.10061,-1.11763 1.7399,-1.49228 0.63929,-0.37465 1.49479,-1.05981 1.90111,-1.52259 l 0.73877,-0.84141 -0.0297,-4.894575 c -0.0164,-2.692016 -0.11865,-5.221999 -0.2273,-5.622181 -0.261,-0.961364 0.45949,-1.005197 1.07526,-0.06542 0.37057,0.565565 0.39586,0.961276 0.17328,2.711979 -0.47678,3.75008 0.32542,3.192282 0.99456,-0.691555 0.6527,-3.78846 -1.73401,-7.096821 -6.14693,-8.520618 -2.51888,-0.812696 -6.28944,-0.663132 -8.45352,0.33532 -2.06909,0.954628 -3.76074,2.595824 -4.75286,4.611092 -0.72879,1.480381 -0.81329,1.87565 -0.69049,3.229922 0.077,0.848712 0.38151,2.068775 0.67677,2.711247 l 0.53684,1.168135 -0.14964,-2.434741 c -0.1232,-2.004655 -0.0716,-2.553822 0.29206,-3.108854 0.24293,-0.370763 0.61754,-0.674113 0.83247,-0.674113 0.46038,0 0.5209,0.822375 0.0921,1.251193 -0.21752,0.217519 -0.22711,1.004872 -0.0353,2.897188 0.14502,1.430578 0.17038,3.312009 0.0564,4.185994 -0.11383,0.873127 -0.21702,1.910777 -0.22929,2.305897 -0.026,0.83562 1.23597,2.40507 2.43052,3.0228 0.43274,0.22378 1.21874,0.87398 1.74666,1.4449 0.70597,0.76346 1.2748,1.10025 2.15049,1.27325 1.21231,0.23949 3.11755,0.12004 4.13609,-0.25933 z m -3.88393,-1.5779 c -0.26112,-0.16166 -0.3721,-0.65243 -0.34594,-1.52986 0.067,-2.24899 1.20142,-3.64158 2.43055,-2.98377 1.20815,0.64658 1.87836,3.96879 0.90438,4.48294 -0.60083,0.31717 -2.49486,0.33661 -2.98899,0.0307 z m -4.75235,-3.56652 c -0.96201,-1.15916 -0.78986,-4.591103 0.25845,-5.152136 1.68113,-0.899716 4.50828,0.496374 4.50458,2.224431 -0.002,0.980955 -0.72651,2.146815 -1.75543,2.825165 -0.91133,0.60083 -2.54775,0.65662 -3.0076,0.10254 z m 9.48532,-0.004 c -0.87322,-0.47429 -1.81013,-1.94882 -1.81013,-2.848833 0,-1.63408 2.02038,-2.844255 4.09783,-2.454526 1.12512,0.211077 1.51948,0.868106 1.51948,2.531602 0,2.650297 -1.72227,3.904167 -3.80718,2.771757 z m 10.02565,2.25128 c 0.97179,-0.005 1.60635,-0.38678 1.0187,-0.61228 -0.26177,-0.10046 -0.41906,-0.47918 -0.41906,-1.00899 v -0.84818 l -0.61972,0.5822 c -0.34084,0.3202 -1.61697,1.00278 -2.83585,1.51683 -2.62155,1.10564 -2.89443,1.30443 -2.89443,2.10859 0,0.59881 0.0501,0.5876 2.50921,-0.56156 1.38008,-0.64491 2.83859,-1.17439 3.24115,-1.17661 z m -20.83161,1.76996 c 0,-0.54856 -1.03697,-1.36751 -2.91042,-2.29853 -0.94589,-0.47006 -2.27152,-1.2569 -2.94587,-1.74852 -0.67433,-0.49163 -1.30481,-0.89386 -1.40105,-0.89386 -0.0962,0 -0.0976,0.41232 -0.003,0.91628 0.13096,0.69806 0.0303,1.14542 -0.42277,1.87847 l -0.59467,0.96219 0.81849,-0.42326 c 1.23087,-0.63651 1.85252,-0.53159 4.43446,0.74844 2.55289,1.26561 3.02492,1.39962 3.02492,0.85879 z"
         id="path177"
         inkscape:connector-curvature="0" />
      <path
         style="fill:#5a5a59;stroke-width:0.26458335"
         d="M 82.827406,179.08761 43.325739,139.8942 77.801783,105.56404 C 96.763605,86.682463 114.59999,68.986101 117.43818,66.238797 l 5.16036,-4.995099 39.50217,39.192952 39.50217,39.19296 -34.47607,34.33015 c -18.96184,18.88159 -36.79844,36.57815 -39.6369,39.32571 l -5.16084,4.99556 z m 82.316784,-3.93744 35.66845,-35.52056 -39.10537,-38.79791 -39.10537,-38.797904 -3.57454,3.409637 c -1.96599,1.8753 -19.625314,19.39389 -39.242935,38.930197 l -35.668399,35.52057 39.104807,38.79839 39.104807,38.79839 3.57505,-3.41012 c 1.96628,-1.87557 19.62585,-19.39438 39.2435,-38.93069 z M 87.803739,174.2899 53.276248,139.76165 87.870266,105.16763 122.46428,70.573614 l 34.59402,34.594016 34.59402,34.59402 -34.52749,34.52825 c -18.99012,18.99054 -34.58737,34.52826 -34.66055,34.52826 -0.0732,0 -15.67042,-15.53772 -34.660541,-34.52826 z m 68.527341,-0.79375 33.73373,-33.73451 -33.80027,-33.80026 -33.80026,-33.80026 -33.800259,33.80026 -33.800261,33.80026 33.733727,33.73451 c 18.553553,18.55398 33.793603,33.73451 33.866793,33.73451 0.0732,0 15.31325,-15.18053 33.8668,-33.73451 z m -40.2168,23.05215 c 0,-0.74609 0.80661,-2.6105 1.61851,-3.74105 0.46153,-0.64267 2.06679,-2.15009 3.56725,-3.34983 3.03622,-2.42771 3.80463,-3.47622 3.39701,-4.63527 -0.29974,-0.85233 -1.30942,-1.29571 -2.35371,-1.03361 -0.52621,0.13207 -0.83846,0.47212 -1.1412,1.24283 l -0.41678,1.06101 -2.1371,-0.18043 c -1.17541,-0.0992 -2.17469,-0.21267 -2.22064,-0.25207 -0.0459,-0.0394 0.0419,-0.53015 0.1952,-1.09054 0.79817,-2.91768 2.43142,-3.91948 6.38862,-3.91861 2.18139,5.3e-4 2.70955,0.0922 3.81856,0.66287 2.49527,1.28412 3.17162,4.05537 1.63125,6.68382 -0.4748,0.81018 -1.53302,1.82138 -3.28267,3.13681 l -2.58201,1.94122 3.37344,0.074 3.37344,0.074 v 1.84418 1.84418 h -6.61458 c -5.43429,0 -6.61459,-0.0649 -6.61459,-0.36361 z M 75.897616,142.80461 V 127.0619 h 46.566664 46.56667 v 15.74271 15.74271 H 122.46428 75.897616 Z m 92.604164,0.13229 v -15.34583 h -46.0375 -46.037497 v 15.34583 15.34584 h 46.037497 46.0375 z m -59.24887,-25.63133 c -0.15531,-0.29019 -0.28238,-0.67239 -0.28238,-0.84932 0,-0.17692 -0.3274,-0.96827 -0.72755,-1.75855 -0.71287,-1.40787 -0.71719,-1.44444 -0.21401,-1.81237 0.31247,-0.22849 1.15443,-0.37551 2.15045,-0.37551 1.65769,0 3.11287,-0.44723 4.37701,-1.34521 0.66433,-0.47191 0.68079,-0.54507 0.42465,-1.88797 -0.14655,-0.76837 -0.37182,-1.53259 -0.5006,-1.69828 -0.12879,-0.1657 -1.40975,-0.78914 -2.84659,-1.38545 l -2.61245,-1.08419 -1.23959,0.54833 c -1.59119,0.70386 -2.51889,0.52089 -2.50707,-0.49446 0.005,-0.39741 0.18322,-0.95368 0.39688,-1.23615 0.21365,-0.28248 0.38846,-0.84027 0.38846,-1.23955 0,-0.89185 0.45331,-2.13556 0.87644,-2.40461 0.56397,-0.358605 1.49417,-0.21851 2.01635,0.30367 0.54346,0.54345 3.79728,2.67616 3.91039,2.56305 0.0368,-0.0368 -0.0431,-0.45045 -0.17749,-0.9192 -0.16989,-0.59238 -0.1354,-1.21454 0.11312,-2.0403 0.34938,-1.160915 0.33731,-1.221616 -0.52875,-2.659867 -1.43028,-2.375207 -1.57411,-5.453605 -0.37138,-7.948457 0.89567,-1.857909 3.08189,-3.927025 5.20137,-4.922753 1.56369,-0.734626 2.13369,-0.854982 4.46994,-0.943831 4.01756,-0.152792 6.64569,0.731736 9.15888,3.082535 1.49719,1.400442 2.19495,2.62037 2.61257,4.567682 0.34317,1.600131 -0.0248,3.969703 -0.87524,5.636768 -0.40299,0.789932 -0.54366,1.635586 -0.58285,3.503833 l -0.0517,2.46261 0.67405,-0.16049 c 1.05772,-0.25185 1.6583,-0.60826 2.69685,-1.60041 1.04441,-0.99776 2.07824,-1.03209 2.07824,-0.069 0,0.79536 0.56675,1.82297 1.09849,1.99174 0.50232,0.15943 0.63521,0.80291 0.28089,1.36017 -0.11002,0.17302 -1.05809,0.49349 -2.10683,0.71216 -2.08495,0.43472 -6.35627,2.3058 -6.52813,2.85968 -0.0592,0.1908 -0.16812,0.78279 -0.24203,1.31553 l -0.13439,0.96862 2.51207,1.0819 c 1.38164,0.59505 2.92807,1.0819 3.43652,1.0819 1.33166,0 1.94799,0.41126 1.94799,1.29983 0,0.41362 -0.17859,0.90026 -0.39687,1.08142 -0.21828,0.18116 -0.3985,0.58269 -0.40049,0.89229 -0.0132,2.05345 -0.82331,2.3962 -2.71641,1.14926 -0.75956,-0.5003 -2.28835,-1.40475 -3.39732,-2.00989 l -2.0163,-1.10026 -1.37746,0.92696 c -3.26192,2.19511 -6.78369,2.2437 -9.72122,0.13412 l -1.14978,-0.82571 -1.25218,0.42798 c -1.96487,0.67157 -2.88833,1.25732 -3.55881,2.25733 -0.74451,1.11044 -1.86608,1.38401 -2.30578,0.56242 z m 1.79923,-1.75304 c 0.30051,-0.50932 0.66841,-0.92604 0.81756,-0.92604 0.62901,0 3.98,-1.68744 3.98,-2.00419 0,-0.68944 -0.53945,-0.64403 -2.1723,0.18289 -1.32027,0.66861 -1.9822,0.84021 -3.20325,0.83041 -1.32687,-0.0106 -1.5146,0.0477 -1.3615,0.42313 0.0977,0.2395 0.27482,0.75901 0.39366,1.15445 0.46839,1.55846 0.78547,1.62807 1.54583,0.33935 z m 24.45813,0.002 c -0.0889,-0.54782 -0.0203,-1.07995 0.16848,-1.30745 0.26591,-0.3204 0.12979,-0.43344 -0.82564,-0.6856 -0.62922,-0.16607 -2.08132,-0.72206 -3.2269,-1.23552 -1.67692,-0.75163 -2.12733,-0.86339 -2.31105,-0.57342 -0.45314,0.71521 -0.20134,0.99251 1.96471,2.16367 1.21055,0.65453 2.65591,1.49877 3.21192,1.87609 0.556,0.37732 1.04635,0.68603 1.08966,0.68603 0.0433,0 0.0113,-0.41571 -0.0712,-0.9238 z m -10.23916,-0.91427 c 1.78384,-0.78818 2.97391,-2.84278 3.37967,-5.83485 l 0.16146,-1.19062 -0.39454,1.22479 c -0.47328,1.46927 -2.03108,2.98197 -3.48729,3.38633 -1.62534,0.45133 -4.5654,0.34113 -5.77342,-0.2164 -1.47232,-0.67953 -2.20767,-1.57093 -2.78394,-3.37478 -0.4686,-1.4668 -0.49565,-1.49787 -0.50912,-0.58479 -0.008,0.53037 0.23222,1.76222 0.53343,2.73743 1.23639,4.00298 4.91712,5.60112 8.87375,3.85289 z m -3.11915,-3.4989 c -0.12464,-0.84706 -0.74601,-0.93778 -0.74601,-0.10892 0,0.44464 0.14513,0.68351 0.41528,0.68351 0.27578,0 0.38687,-0.193 0.33073,-0.57459 z m 1.32291,-0.17374 c 0.0562,-0.38158 -0.0549,-0.57459 -0.33073,-0.57459 -0.27014,0 -0.41527,0.23888 -0.41527,0.68351 0,0.82886 0.62136,0.73814 0.746,-0.10892 z m -2.38125,-0.0908 c -0.12464,-0.84706 -0.746,-0.93778 -0.746,-0.10892 0,0.44463 0.14513,0.68351 0.41527,0.68351 0.27579,0 0.38688,-0.19301 0.33073,-0.57459 z m -1.3564,-0.67715 c -0.0671,-0.25743 -0.12638,-0.11087 -0.13177,0.3257 -0.005,0.43656 0.0495,0.64718 0.12197,0.46805 0.0725,-0.17913 0.0769,-0.53632 0.01,-0.79375 z m 4.84373,0.43594 c 0,-0.6448 -0.61827,-0.55366 -0.747,0.11012 -0.0506,0.26108 0.0843,0.44109 0.33073,0.44109 0.24543,0 0.41627,-0.22622 0.41627,-0.55121 z m -5.63748,-0.96511 c -0.0671,-0.25743 -0.12638,-0.11086 -0.13177,0.3257 -0.005,0.43656 0.0495,0.64719 0.12197,0.46805 0.0725,-0.17913 0.0769,-0.53631 0.01,-0.79375 z m 6.43123,0.44237 c 0,-0.29963 -0.11906,-0.47119 -0.26458,-0.38125 -0.14552,0.0899 -0.26459,0.33508 -0.26459,0.54478 0,0.20969 0.11907,0.38126 0.26459,0.38126 0.14552,0 0.26458,-0.24516 0.26458,-0.54479 z m 0.44532,-0.56316 c -0.0845,-0.21106 -0.14715,-0.14837 -0.15985,0.15986 -0.0115,0.27891 0.0511,0.43518 0.13897,0.34726 0.0879,-0.0879 0.0973,-0.31612 0.0209,-0.50712 z m -3.62032,-0.34726 c 0,-0.41158 -0.14993,-0.66146 -0.39688,-0.66146 -0.39684,0 -0.55332,0.81369 -0.22048,1.14653 0.35973,0.35973 0.61736,0.1573 0.61736,-0.48507 z m -3.70417,0 c 0,-0.21828 -0.11906,-0.39688 -0.26458,-0.39688 -0.14552,0 -0.26458,0.1786 -0.26458,0.39688 0,0.21828 0.11906,0.39687 0.26458,0.39687 0.14552,0 0.26458,-0.17859 0.26458,-0.39687 z m 2.59809,-0.17771 c -0.12464,-0.84707 -0.746,-0.93779 -0.746,-0.10892 0,0.44463 0.14513,0.6835 0.41527,0.6835 0.27579,0 0.38688,-0.193 0.33073,-0.57458 z m 2.429,-0.0786 c 0,-0.47188 -0.11015,-0.61089 -0.39688,-0.50086 -0.21828,0.0838 -0.39687,0.37768 -0.39687,0.65315 0,0.27548 0.17859,0.50086 0.39687,0.50086 0.2456,0 0.39688,-0.24896 0.39688,-0.65315 z m 1.01059,-0.0952 c 0.0561,-0.38158 -0.0549,-0.57458 -0.33073,-0.57458 -0.27015,0 -0.41528,0.23887 -0.41528,0.6835 0,0.82887 0.62137,0.73815 0.74601,-0.10892 z m 1.81598,0.16956 c -0.0845,-0.21107 -0.14716,-0.14838 -0.15985,0.15985 -0.0115,0.27891 0.051,0.43518 0.13896,0.34727 0.0879,-0.0879 0.0973,-0.31613 0.0209,-0.50712 z m -6.26616,-0.33165 c 0,-0.42139 -0.48005,-0.81439 -0.71174,-0.58269 -0.21766,0.21766 0.12211,0.96395 0.43886,0.96395 0.15008,0 0.27288,-0.17157 0.27288,-0.38126 z m 5.29167,-0.14791 c 0,-0.29104 -0.11906,-0.52917 -0.26458,-0.52917 -0.14552,0 -0.26459,0.23813 -0.26459,0.52917 0,0.29104 0.11907,0.52917 0.26459,0.52917 0.14552,0 0.26458,-0.23813 0.26458,-0.52917 z m -6.43936,-0.8599 c -0.0734,-0.1819 -0.13345,-0.0331 -0.13345,0.33073 0,0.36381 0.0601,0.51263 0.13345,0.33073 0.0734,-0.1819 0.0734,-0.47955 0,-0.66146 z m 6.88468,0.28112 c -0.0845,-0.21106 -0.14715,-0.14837 -0.15985,0.15986 -0.0115,0.27891 0.0511,0.43518 0.13897,0.34726 0.0879,-0.0879 0.0973,-0.31612 0.0209,-0.50712 z m -7.32449,-0.34726 c 0,-0.21828 -0.11906,-0.39688 -0.26458,-0.39688 -0.14552,0 -0.26458,0.1786 -0.26458,0.39688 0,0.21828 0.11906,0.39687 0.26458,0.39687 0.14552,0 0.26458,-0.17859 0.26458,-0.39687 z m 6.41615,-0.43665 c 0.25466,-0.13389 0.66291,-0.5485 0.90723,-0.92138 0.24431,-0.37287 1.20047,-1.15557 2.12479,-1.73933 0.92432,-0.58376 1.83321,-1.37582 2.01975,-1.76014 0.2461,-0.50702 0.32202,-2.0418 0.27667,-5.593544 -0.0344,-2.692135 -0.10136,-5.132916 -0.14885,-5.423958 -0.13181,-0.807683 0.64263,-0.649393 1.05747,0.216135 0.28217,0.588735 0.29996,1.17234 0.0847,2.778126 -0.47437,3.538384 0.42653,2.771484 1.01875,-0.86722 0.63971,-3.930507 -1.73953,-7.266066 -6.16231,-8.639242 -1.47705,-0.458589 -2.28073,-0.538793 -4.49792,-0.448878 -2.31872,0.09403 -2.9174,0.217818 -4.24386,0.877476 -1.68187,0.836404 -3.74673,2.888786 -4.56559,4.537989 -0.73392,1.478161 -0.68953,4.614172 0.0856,6.043531 l 0.57389,1.058333 -0.15244,-2.513542 c -0.13791,-2.274033 -0.10062,-2.57657 0.39135,-3.175 0.71666,-0.871754 1.29947,-0.439623 0.82159,0.609193 -0.2343,0.514236 -0.24558,1.304684 -0.0443,3.10714 0.18416,1.649439 0.18346,3.09459 -0.002,4.548875 -0.33567,2.629366 -0.0293,3.350736 1.99742,4.703156 0.75941,0.50675 1.74449,1.3272 2.18908,1.82322 0.58977,0.65799 1.12634,0.95526 1.98438,1.09936 1.31424,0.22071 3.57765,0.0515 4.28488,-0.3203 z m -4.10208,-1.76097 c -0.43508,-0.52424 -0.34074,-2.44627 0.1684,-3.43083 0.77349,-1.49576 1.98877,-1.40368 2.81364,0.21319 0.62073,1.21674 0.68152,2.70713 0.13279,3.25586 -0.5166,0.5166 -2.67637,0.49009 -3.11483,-0.0382 z m -4.54373,-3.37713 c -0.22846,-0.22846 -0.47509,-0.70471 -0.54807,-1.05834 -0.073,-0.35362 -0.18883,-0.9181 -0.25746,-1.254387 -0.2309,-1.131464 0.3311,-2.475233 1.18273,-2.827994 1.78423,-0.73905 4.23371,0.595784 4.23371,2.307135 0,0.753957 -0.22612,1.163456 -1.15581,2.093146 -0.93182,0.93182 -1.33835,1.15581 -2.09777,1.15581 -0.51807,0 -1.12887,-0.18692 -1.35733,-0.41537 z m 9.90258,0.22971 c -0.82976,-0.30082 -2.11691,-1.79554 -2.27587,-2.642865 -0.31775,-1.693736 1.42327,-3.176336 3.41609,-2.909044 1.70467,0.228643 2.1432,0.931998 2.06407,3.310529 -0.0529,1.59028 -1.74176,2.77162 -3.20429,2.24138 z m 6.37886,3.22837 c 1.34545,-0.65484 2.75257,-1.19245 3.12694,-1.19467 0.37436,-0.002 0.85592,-0.11489 1.07012,-0.25036 0.33363,-0.21098 0.32414,-0.27136 -0.0661,-0.42112 -0.30434,-0.11679 -0.4556,-0.46613 -0.4556,-1.05222 v -0.87738 l -0.72761,0.72594 c -0.40018,0.39927 -1.62057,1.0616 -2.71198,1.47184 -2.31218,0.86912 -2.91041,1.31478 -2.91041,2.16815 0,0.34124 0.0514,0.62045 0.11421,0.62045 0.0628,0 1.21503,-0.53578 2.56048,-1.19063 z m -17.75594,0.54807 c 0,-0.57834 -0.69755,-1.15403 -2.47787,-2.045 -0.89275,-0.44677 -2.30644,-1.275 -3.14154,-1.84051 -0.8351,-0.5655 -1.5887,-1.02818 -1.67467,-1.02818 -0.086,0 -0.0772,0.36003 0.0194,0.80006 0.12687,0.57764 0.0194,1.06503 -0.3866,1.75314 -0.30928,0.52419 -0.51567,0.99973 -0.45865,1.05675 0.057,0.057 0.44882,-0.0763 0.87065,-0.2963 1.16676,-0.60847 1.7214,-0.50382 4.11637,0.77668 2.31519,1.23784 3.13289,1.45274 3.13289,0.82336 z"
         id="path175"
         inkscape:connector-curvature="0" />
      <path
         style="fill:#2b2926;stroke-width:0.26458335"
         d="M 82.858124,179.08352 43.384257,139.8942 68.041457,115.35378 C 81.602917,101.85656 99.425689,84.161828 107.64762,76.032164 l 14.94895,-14.781209 39.47387,39.189325 39.47387,39.18933 -24.6572,24.54041 c -13.56146,13.49723 -31.38423,31.19196 -39.60616,39.32163 l -14.94896,14.7812 z m 78.800006,-0.41049 c 21.44479,-21.30924 39.0238,-38.82195 39.06446,-38.91711 0.0943,-0.22079 -77.89637,-77.649226 -78.21309,-77.649226 -0.21998,0 -78.14142,77.281926 -78.30337,77.660726 -0.09579,0.22405 78.05591,77.80854 78.28643,77.71825 0.0963,-0.0377 17.72077,-17.50339 39.16557,-38.81264 z M 87.803739,174.2899 53.276248,139.76165 87.870266,105.16763 122.46428,70.573614 l 34.59402,34.594016 34.59402,34.59402 -34.52749,34.52825 c -18.99012,18.99054 -34.58737,34.52826 -34.66055,34.52826 -0.0732,0 -15.67042,-15.53772 -34.660541,-34.52826 z m 68.527341,-0.79375 33.73373,-33.73451 -33.80027,-33.80026 -33.80026,-33.80026 -33.800259,33.80026 -33.800261,33.80026 33.733727,33.73451 c 18.553553,18.55398 33.793603,33.73451 33.866793,33.73451 0.0732,0 15.31325,-15.18053 33.8668,-33.73451 z m -40.07293,22.55586 c 0.49375,-2.28372 2.38203,-4.58292 6.12998,-7.46397 1.85624,-1.42689 2.4574,-2.20391 2.4574,-3.1762 0,-2.24039 -3.29749,-2.25091 -3.85934,-0.0123 -0.16799,0.6693 -0.17698,0.67124 -2.32184,0.49954 -1.18425,-0.0948 -2.17973,-0.19247 -2.21217,-0.21704 -0.0324,-0.0246 0.0684,-0.51422 0.22415,-1.08812 0.78097,-2.87829 2.45351,-3.94145 6.18483,-3.9314 2.82338,0.008 3.98293,0.3498 5.09607,1.50387 1.41756,1.46967 1.73708,3.07339 0.97594,4.8983 -0.52612,1.2614 -1.63021,2.41655 -4.00459,4.18978 -1.04573,0.78097 -1.97549,1.53995 -2.06613,1.68661 -0.1074,0.17378 0.99286,0.26669 3.15809,0.26669 h 3.32291 v 1.85208 1.85209 h -6.63561 -6.6356 z M 75.897616,142.80461 V 127.0619 h 46.566664 46.56667 v 15.74271 15.74271 H 122.46428 75.897616 Z m 92.604164,0.13229 v -15.34583 h -46.0375 -46.037497 v 15.34583 15.34584 h 46.037497 46.0375 z m -59.27321,-25.8141 c -0.14192,-0.37327 -0.25804,-0.79395 -0.25804,-0.93483 0,-0.14089 -0.29612,-0.84054 -0.65806,-1.55478 -0.59778,-1.17966 -0.62003,-1.33664 -0.24296,-1.71371 0.2971,-0.29711 0.88095,-0.40499 2.05406,-0.37955 1.1679,0.0253 2.0308,-0.13302 3.00223,-0.55092 2.03799,-0.87672 2.26836,-1.2265 1.90958,-2.89945 -0.3418,-1.59373 -0.71041,-1.88917 -4.02298,-3.22448 -2.04576,-0.82464 -2.07632,-0.82842 -3.07113,-0.37983 -1.36755,0.61668 -2.51558,0.46852 -2.63002,-0.33944 -0.0481,-0.33942 0.0879,-0.81567 0.30222,-1.05833 0.21429,-0.24266 0.47358,-1.06937 0.5762,-1.83714 0.30086,-2.250962 1.25882,-2.754594 2.78956,-1.46656 0.75607,0.63619 3.61621,2.46562 3.85475,2.46562 0.0524,0 0.0238,-0.5209 -0.0635,-1.15756 -0.0892,-0.65081 -0.019,-1.58061 0.16027,-2.123932 0.29605,-0.897048 0.26104,-1.056595 -0.48809,-2.224003 -3.99286,-6.222341 1.43447,-14.083357 9.71445,-14.070529 3.63896,0.0056 6.41543,1.090986 8.7976,3.439057 1.9228,1.895285 2.48129,3.441222 2.28096,6.313882 -0.0923,1.324058 -0.38134,2.590002 -0.84053,3.681807 -0.5527,1.31418 -0.6639,1.903344 -0.52899,2.802951 0.0939,0.626467 0.0506,1.574337 -0.0963,2.106387 -0.20595,0.74588 -0.19016,0.96736 0.069,0.96736 0.87363,0 2.23566,-0.69528 3.23061,-1.64916 1.32198,-1.26738 2.2115,-1.2249 2.2115,0.10563 0,0.55344 0.25086,1.0364 0.80928,1.55804 1.1465,1.07099 0.76531,1.68882 -1.26587,2.05174 -1.49329,0.26681 -5.60776,1.86593 -6.44878,2.50637 -0.23269,0.17719 -0.50503,0.86872 -0.60519,1.53673 l -0.18212,1.21456 2.45728,1.12656 c 1.53742,0.70485 2.91076,1.15002 3.66871,1.18921 0.66629,0.0345 1.3509,0.14883 1.52135,0.25418 0.4178,0.25821 0.39193,1.24638 -0.0494,1.88737 -0.19764,0.28704 -0.43891,0.95642 -0.53617,1.4875 -0.29397,1.6052 -1.10974,1.86066 -2.41179,0.75525 -0.62932,-0.53429 -5.26089,-3.17606 -5.56828,-3.17606 -0.11761,0 -0.8385,0.43023 -1.60199,0.95606 -2.97931,2.05193 -6.69437,2.06431 -9.54794,0.0318 -1.23692,-0.88101 -1.46877,-0.86977 -3.85847,0.18707 -1.02449,0.45308 -1.62298,0.91023 -1.90459,1.45481 -0.73437,1.42012 -2.10357,1.77769 -2.5284,0.6603 z m 4.48535,-3.13546 c 2.26594,-0.93921 2.37912,-1.02372 2.09736,-1.56589 -0.16381,-0.3152 -0.32598,-0.60743 -0.36036,-0.6494 -0.0344,-0.042 -0.6874,0.31213 -1.45113,0.7869 -1.13735,0.70701 -1.71947,0.8819 -3.21714,0.96652 -1.64092,0.0927 -1.81411,0.15451 -1.68803,0.60217 0.0773,0.27437 0.21411,0.76674 0.30408,1.09416 0.09,0.32742 0.35212,0.80983 0.58255,1.07201 0.39729,0.45203 0.44273,0.43038 0.87822,-0.41849 0.38478,-0.75001 0.8477,-1.05619 2.85445,-1.88798 z m 21.89699,1.49904 c -0.0163,-0.5457 0.0254,-1.15017 0.0926,-1.34326 0.0813,-0.23335 -0.36571,-0.50894 -1.33296,-0.82188 -0.80036,-0.25895 -2.15463,-0.78557 -3.00948,-1.17028 -0.85485,-0.38471 -1.63942,-0.69947 -1.74347,-0.69947 -0.10406,0 -0.3248,0.29762 -0.49053,0.66137 -0.29195,0.64075 -0.23755,0.69363 1.74346,1.69534 1.12465,0.56867 2.5806,1.39998 3.23544,1.84735 0.65484,0.44736 1.26803,0.81556 1.36263,0.8182 0.0946,0.003 0.15865,-0.44166 0.14233,-0.98737 z M 124.474,115.03061 c 1.38193,-0.41039 2.65904,-1.52187 3.35244,-2.91766 0.49378,-0.99397 0.99711,-3.32717 0.95885,-4.4448 -0.0267,-0.78159 -0.0458,-0.76176 -0.24733,0.25739 -0.56272,2.84589 -2.18201,4.19856 -5.38406,4.49757 -2.03355,0.1899 -4.14577,-0.26793 -5.15534,-1.11743 -0.78455,-0.66015 -1.4241,-1.93926 -1.89174,-3.7835 -0.44224,-1.7441 -0.60694,-1.1199 -0.27278,1.03382 0.85091,5.48429 4.00801,7.85015 8.63996,6.47461 z m -3.33263,-3.9843 c 0,-0.76181 -0.72797,-1.18308 -1.08099,-0.62557 -0.18716,0.29559 -0.23464,0.27688 -0.23788,-0.0937 -0.002,-0.25466 -0.12311,-0.46302 -0.26863,-0.46302 -0.14552,0 -0.26459,0.24387 -0.26459,0.54193 0,0.43646 1.02187,1.18017 1.78594,1.29979 0.0364,0.006 0.0661,-0.29103 0.0661,-0.6594 z m 1.05833,0.008 c 0,-0.41158 -0.14993,-0.66146 -0.39688,-0.66146 -0.24694,0 -0.39687,0.24988 -0.39687,0.66146 0,0.41157 0.14993,0.66146 0.39687,0.66146 0.24695,0 0.39688,-0.24989 0.39688,-0.66146 z m 1.32292,0 c 0,-0.48507 -0.14111,-0.66146 -0.52917,-0.66146 -0.38806,0 -0.52917,0.17639 -0.52917,0.66146 0,0.48507 0.14111,0.66146 0.52917,0.66146 0.38806,0 0.52917,-0.17639 0.52917,-0.66146 z m 1.01059,-0.35146 c 0.0561,-0.38159 -0.0549,-0.57459 -0.33073,-0.57459 -0.27015,0 -0.41528,0.23887 -0.41528,0.68351 0,0.82886 0.62137,0.73814 0.74601,-0.10892 z m 1.37066,-1.14217 c 0,-0.46022 -0.0276,-0.46191 -0.52917,-0.0325 -0.29104,0.2492 -0.52917,0.68321 -0.52917,0.96446 0,0.49461 0.0173,0.49568 0.52917,0.0325 0.29104,-0.2634 0.52917,-0.6974 0.52917,-0.96446 z m -7.38525,-0.58526 c -0.49374,-0.49374 -0.55225,-0.50298 -0.55225,-0.0873 0,0.25574 0.20836,0.78445 0.46302,1.17491 l 0.46302,0.70993 0.0892,-0.62266 c 0.0534,-0.37263 -0.13253,-0.84442 -0.46302,-1.17491 z m 3.68108,0.0945 c 0,-0.52917 -0.13229,-0.79375 -0.39688,-0.79375 -0.26458,0 -0.39687,0.26458 -0.39687,0.79375 0,0.52916 0.13229,0.79375 0.39687,0.79375 0.26459,0 0.39688,-0.26459 0.39688,-0.79375 z m 1.27434,-0.0866 c 0.06,-0.50641 -0.0363,-0.7072 -0.33903,-0.7072 -0.50103,0 -0.79254,0.62386 -0.5666,1.21262 0.23906,0.62301 0.80975,0.30451 0.90563,-0.50542 z m -2.33267,-0.0127 c 0,-0.49035 -0.17926,-0.66424 -0.81602,-0.79159 -0.44881,-0.0898 -1.16318,-0.41041 -1.5875,-0.71255 -0.74476,-0.53031 -0.77148,-0.53181 -0.77148,-0.0432 0,0.57646 0.56966,1.15887 1.72038,1.75887 1.09833,0.57268 1.45462,0.52087 1.45462,-0.21156 z m 3.39085,-0.2503 c 0.0651,-0.54946 -0.008,-0.6704 -0.33073,-0.5466 -0.49571,0.19023 -0.57756,1.52299 -0.0836,1.36078 0.1819,-0.0597 0.36833,-0.42611 0.41429,-0.81418 z m 1.81697,0.29991 c -0.0845,-0.21107 -0.14716,-0.14838 -0.15985,0.15985 -0.0115,0.27891 0.051,0.43518 0.13896,0.34727 0.0879,-0.0879 0.0973,-0.31613 0.0209,-0.50712 z m -0.97449,-0.62747 c 0,-0.384 -0.11452,-0.60629 -0.26458,-0.51355 -0.14552,0.0899 -0.26459,0.39462 -0.26459,0.67708 0,0.28245 0.11907,0.51355 0.26459,0.51355 0.14552,0 0.26458,-0.30469 0.26458,-0.67708 z m 1.05833,-0.78128 c 0,-0.73341 -0.65539,-0.27237 -0.74907,0.52694 -0.0799,0.68156 -0.0507,0.71063 0.33073,0.32923 0.23009,-0.23009 0.41834,-0.61537 0.41834,-0.85617 z m -1.36323,-0.42995 c 0.29562,-0.18462 0.68673,-0.61452 0.86913,-0.95533 0.18239,-0.34081 1.01947,-1.0375 1.86016,-1.54819 2.5914,-1.5742 2.53309,-1.39886 2.47261,-7.434641 -0.0289,-2.881535 -0.10071,-5.402869 -0.15964,-5.60296 -0.22771,-0.773144 0.50552,-0.537726 0.89481,0.287295 0.34733,0.736103 0.36596,1.206373 0.12083,3.050641 -0.45864,3.450704 0.23652,3.344392 1.02019,-0.156019 0.71725,-3.203673 0.15234,-5.22931 -2.055,-7.36875 -4.00946,-3.886124 -11.51606,-3.862166 -15.36374,0.04903 -2.43667,2.476894 -3.16341,5.219287 -2.16198,8.158329 0.71182,2.089074 0.9824,1.817733 0.77686,-0.779068 -0.17244,-2.178815 -0.14313,-2.40565 0.40009,-3.096249 0.72715,-0.92441 1.31545,-0.569 0.67531,0.407974 -0.3574,0.54546 -0.37648,0.880369 -0.12598,2.211096 0.18445,0.97989 0.23121,2.817022 0.12463,4.896686 -0.1967,3.838286 -0.0687,4.158876 2.17858,5.455986 0.68058,0.39283 1.32197,0.84994 1.42531,1.01581 0.60799,0.97587 1.25503,1.51413 2.06743,1.71987 1.21081,0.30664 4.29998,0.11342 4.9804,-0.31151 z m -4.07992,-1.63057 c -0.58,-0.32493 -0.48228,-2.52403 0.1589,-3.57568 0.65394,-1.07259 1.65161,-1.07801 2.44291,-0.0133 0.70707,0.95141 0.91799,2.91384 0.36271,3.37469 -0.47507,0.39427 -2.39544,0.53306 -2.96452,0.21426 z m -4.85639,-3.79285 c -0.41048,-0.52183 -0.54837,-1.07999 -0.54837,-2.219642 0,-1.763234 0.49078,-2.557727 1.71979,-2.784028 1.12206,-0.206608 3.09464,0.838343 3.43103,1.817553 0.33258,0.968118 -0.418,2.429757 -1.68422,3.279757 -1.21387,0.81486 -2.22924,0.78228 -2.91823,-0.0936 z m 10.03509,0.3999 c -1.68313,-0.67116 -2.6905,-2.552296 -2.06839,-3.86243 0.76456,-1.610104 3.70018,-2.121173 4.78024,-0.832202 1.00016,1.193625 0.34788,4.217802 -1.02209,4.738662 -0.78622,0.29892 -0.83274,0.29771 -1.68976,-0.044 z m -11.37721,3.88713 c 0,-0.66959 -0.76657,-1.34006 -2.24896,-1.96702 -0.43656,-0.18464 -1.71022,-0.93387 -2.83035,-1.66496 -2.02449,-1.32136 -2.86823,-1.49458 -2.32367,-0.47706 0.29007,0.542 -0.20493,2.13631 -0.77211,2.48684 -0.66026,0.40807 -0.23146,0.66065 0.48903,0.28807 1.31423,-0.67962 2.59234,-0.48006 5.04022,0.78695 1.23693,0.64023 2.33826,1.17003 2.4474,1.17734 0.10914,0.007 0.19844,-0.27626 0.19844,-0.63016 z m 17.78841,-0.54718 c 1.718,-0.81382 2.85962,-1.19062 3.6073,-1.19062 1.14751,0 1.46757,-0.3749 0.5647,-0.66146 -0.40109,-0.1273 -0.52916,-0.40032 -0.52916,-1.12807 v -0.96011 l -0.8599,0.82302 c -0.48674,0.46587 -1.81418,1.18836 -3.05895,1.6649 -1.69335,0.64827 -2.2566,0.99323 -2.44929,1.50004 -0.21366,0.56198 -0.14727,1.14293 0.13062,1.14293 0.0447,0 1.21229,-0.53578 2.59468,-1.19063 z"
         id="path173"
         inkscape:connector-curvature="0" />
      <path
         style="fill:#020202;stroke-width:0.26458335"
         d="M 82.929191,179.03916 C 61.308284,157.55061 43.619006,139.89269 43.619687,139.79934 c 0.0015,-0.20065 78.529133,-78.184107 78.849753,-78.303301 0.22526,-0.08375 78.84166,77.923371 78.83944,78.228431 -0.002,0.20065 -78.52913,78.1841 -78.84975,78.3033 -0.12056,0.0448 -17.90903,-17.50006 -39.529939,-38.98861 z m 78.802919,-0.38321 c 21.47686,-21.31865 39.04884,-38.83709 39.04884,-38.92987 0,-0.31338 -78.07647,-77.787715 -78.30709,-77.703173 -0.32551,0.119329 -78.326244,77.570933 -78.326244,77.774823 0,0.31338 78.076474,77.78771 78.307094,77.70317 0.1257,-0.0461 17.80053,-17.52631 39.2774,-38.84495 z M 87.803739,174.2899 53.276248,139.76165 87.870266,105.16763 122.46428,70.573614 l 34.59402,34.594016 34.59402,34.59402 -34.52749,34.52825 c -18.99012,18.99054 -34.58737,34.52826 -34.66055,34.52826 -0.0732,0 -15.67042,-15.53772 -34.660541,-34.52826 z m 68.527341,-0.79375 33.73373,-33.73451 -33.80027,-33.80026 -33.80026,-33.80026 -33.800259,33.80026 -33.800261,33.80026 33.733727,33.73451 c 18.553553,18.55398 33.793603,33.73451 33.866793,33.73451 0.0732,0 15.31325,-15.18053 33.8668,-33.73451 z m -40.05763,22.68815 c 0.57855,-2.48721 1.9022,-4.19492 5.32027,-6.86394 2.63647,-2.0587 3.25181,-2.79907 3.25181,-3.9125 0,-1.09101 -0.70569,-1.72512 -1.91986,-1.72512 -0.71348,0 -1.0896,0.17474 -1.50052,0.69714 -0.3016,0.38342 -0.54837,0.90331 -0.54837,1.1553 0,0.40414 -0.22613,0.44304 -1.91823,0.32996 -1.05502,-0.0705 -2.02244,-0.22432 -2.14982,-0.34179 -0.39227,-0.36178 0.0827,-2.04484 0.82649,-2.92881 1.14602,-1.36197 2.47368,-1.8106 5.35823,-1.8106 2.82313,0 4.26831,0.46729 5.23125,1.69146 2.0639,2.62382 1.01272,5.64245 -2.94943,8.46979 -0.90188,0.64357 -1.86223,1.41592 -2.1341,1.71634 l -0.49432,0.54621 h 3.3483 3.3483 v 1.85208 1.85209 h -6.61962 -6.61963 z M 75.897616,142.80461 V 127.0619 h 46.566664 46.56667 v 15.74271 15.74271 H 122.46428 75.897616 Z m 92.604164,0.13229 v -15.34583 h -46.0375 -46.037497 v 15.34583 15.34584 h 46.037497 46.0375 z"
         id="path171"
         inkscape:connector-curvature="0" />
    </g>
  </g>
</svg>
