<?xml version="1.0" encoding="UTF-8" standalone="no"?>
<!-- Created with Inkscape (http://www.inkscape.org/) -->

<svg
   xmlns:dc="http://purl.org/dc/elements/1.1/"
   xmlns:cc="http://creativecommons.org/ns#"
   xmlns:rdf="http://www.w3.org/1999/02/22-rdf-syntax-ns#"
   xmlns:svg="http://www.w3.org/2000/svg"
   xmlns="http://www.w3.org/2000/svg"
   xmlns:sodipodi="http://sodipodi.sourceforge.net/DTD/sodipodi-0.dtd"
   xmlns:inkscape="http://www.inkscape.org/namespaces/inkscape"
   width="270.93335mm"
   height="270.93332mm"
   viewBox="0 0 270.93335 270.93333"
   version="1.1"
   id="svg8"
   inkscape:version="0.92.4 (5da689c313, 2019-01-14)"
   sodipodi:docname="Class_5.1_Oxidizer_Hazmat.svg">
  <defs
     id="defs2" />
  <sodipodi:namedview
     id="base"
     pagecolor="#ffffff"
     bordercolor="#666666"
     borderopacity="1.0"
     inkscape:pageopacity="0.0"
     inkscape:pageshadow="2"
     inkscape:zoom="0.35"
     inkscape:cx="-135.71428"
     inkscape:cy="229.42857"
     inkscape:document-units="mm"
     inkscape:current-layer="layer1"
     showgrid="false"
     inkscape:window-width="1920"
     inkscape:window-height="1017"
     inkscape:window-x="-8"
     inkscape:window-y="-8"
     inkscape:window-maximized="1" />
  <metadata
     id="metadata5">
    <rdf:RDF>
      <cc:Work
         rdf:about="">
        <dc:format>image/svg+xml</dc:format>
        <dc:type
           rdf:resource="http://purl.org/dc/dcmitype/StillImage" />
        <dc:title></dc:title>
      </cc:Work>
    </rdf:RDF>
  </metadata>
  <g
     inkscape:label="Layer 1"
     inkscape:groupmode="layer"
     id="layer1"
     transform="translate(-28.726189,61.397027)">
    <g
       id="g21"
       transform="matrix(1.7066667,0,0,1.7181207,-20.299841,-145.2771)">
      <path
         style="fill:#fefefe;stroke-width:0.26458335"
         d="M 28.726189,127.66666 V 48.820827 h 79.375001 79.375 v 78.845833 78.84584 h -79.375 -79.375001 z"
         id="path37"
         inkscape:connector-curvature="0" />
      <path
         style="fill:#fef09e;stroke-width:0.26458335"
         d="M 68.337129,167.01625 C 46.685177,145.44674 28.97463,127.73216 28.980358,127.65052 c 0.02395,-0.34138 78.919082,-78.432818 79.240022,-78.432818 0.35492,0 78.99123,78.080908 78.99123,78.433318 0,0.29591 -78.8178,78.45707 -79.18325,78.52357 -0.17822,0.0324 -18.039279,-17.58882 -39.691231,-39.15834 z M 154.66786,130.70937 V 114.96666 H 108.10119 61.534522 v 15.74271 15.74271 h 46.566668 46.56667 z"
         id="path35"
         inkscape:connector-curvature="0" />
      <path
         style="fill:#fdea70;stroke-width:0.26458335"
         d="M 68.455612,167.01702 28.942325,127.79895 68.455612,88.453723 C 90.187918,66.813848 108.05417,49.133066 108.15839,49.163098 c 0.10423,0.03003 17.947,17.675854 39.65062,39.212938 l 39.46111,39.158334 -39.51832,39.3473 c -21.73508,21.64101 -39.57785,39.34868 -39.65061,39.35036 -0.0728,0.002 -17.913272,-17.64507 -39.645578,-39.21501 z M 154.66786,130.70937 V 114.96666 H 108.10119 61.534522 v 15.74271 15.74271 h 46.566668 46.56667 z"
         id="path33"
         inkscape:connector-curvature="0" />
      <path
         style="fill:#fcda00;stroke-width:0.26458335"
         d="M 68.478697,166.98733 28.988495,127.79895 58.689114,98.231435 C 75.024452,81.969301 92.854643,64.273425 98.311756,58.907266 l 9.922024,-9.756652 39.4941,39.191878 39.49409,39.191878 -30.49841,30.36279 c -16.77413,16.69954 -34.60607,34.39384 -39.62654,39.32067 l -9.12812,8.95788 z m 86.189163,-36.14567 v -15.875 H 108.10119 61.534522 v 15.875 15.875 h 46.566668 46.56667 z"
         id="path31"
         inkscape:connector-curvature="0" />
      <path
         style="fill:#cfb300;stroke-width:0.26458335"
         d="M 73.308354,162.32695 38.648569,127.66641 73.374878,92.940099 108.10119,58.213787 l 34.72631,34.726312 34.72631,34.726311 -34.65979,34.66054 c -19.06288,19.0633 -34.71966,34.66055 -34.79283,34.66055 -0.0732,0 -15.729954,-15.59725 -34.792836,-34.66055 z M 141.83569,161.26862 175.43713,127.6664 141.76916,93.998432 108.10119,60.330462 74.433219,93.998432 40.765251,127.6664 74.366684,161.26862 c 18.480786,18.48121 33.661316,33.60221 33.734506,33.60221 0.0732,0 15.25372,-15.121 33.7345,-33.60221 z m -47.093036,16.77449 c -1.329044,-0.48642 -2.946963,-2.04766 -3.332456,-3.21572 -0.162295,-0.49175 -0.25345,-0.93357 -0.202565,-0.98182 0.05088,-0.0482 1.134311,-0.17341 2.407618,-0.27815 2.059049,-0.16937 2.315105,-0.14174 2.315105,0.24977 0,0.67375 1.215575,1.73906 1.984375,1.73906 1.154139,0 1.984375,-1.08703 1.984375,-2.59813 0,-2.41252 -1.811563,-3.50177 -3.549841,-2.13444 -0.658601,0.51806 -0.847696,0.53879 -2.575573,0.28234 -1.025634,-0.15223 -1.915824,-0.32782 -1.978202,-0.3902 -0.06238,-0.0624 0.206496,-2.03489 0.597503,-4.38337 l 0.710919,-4.26995 h 5.381972 5.381976 v 1.85208 1.85208 h -3.53881 -3.538798 l -0.167201,0.83601 c -0.09196,0.45981 -0.122645,0.88057 -0.06818,0.93503 0.05446,0.0545 0.662479,-0.0273 1.351153,-0.18158 1.419846,-0.3182 2.758616,-0.14397 4.109746,0.53483 4.21972,2.11997 3.18223,8.99063 -1.55637,10.30689 -1.372552,0.38126 -4.482229,0.29709 -5.716743,-0.15473 z m 12.035616,-2.23221 v -2.39118 l 2.4474,0.0761 2.44739,0.0761 0.0764,2.31511 0.0764,2.3151 h -2.52385 -2.52384 z m 12.43542,-2.75997 v -5.15115 l -1.78594,0.91653 c -0.98226,0.50409 -2.05383,0.9171 -2.38125,0.91781 -0.5589,0.001 -0.59518,-0.10794 -0.59318,-1.78464 l 0.002,-1.78594 1.91602,-0.92604 c 1.45973,-0.70551 2.13646,-1.22534 2.84165,-2.18282 l 0.92564,-1.25677 h 1.91872 1.91872 V 170 v 8.20208 h -2.38125 -2.38125 v -5.15115 z m -21.910245,-59.60562 0.08212,-0.99219 h 10.715625 10.71562 l 0.0821,0.99219 0.0821,0.99219 H 108.10119 97.221329 Z m 7.339465,-1.73558 c -2.767,-0.781 -5.531654,-3.19694 -6.804006,-5.94579 -0.641075,-1.38501 -0.706083,-1.83723 -0.768977,-5.34936 -0.08134,-4.541871 -0.460743,-8.043854 -1.015257,-9.370993 -0.220374,-0.527429 -0.651319,-2.057768 -0.957659,-3.400756 -0.567047,-2.485927 -1.02674,-3.663882 -1.753111,-4.492316 -0.561546,-0.640453 -0.132556,-0.579144 0.925663,0.132292 0.487024,0.327422 1.437664,1.398288 2.11254,2.379702 0.674872,0.981414 1.26171,1.749722 1.304083,1.707348 0.04237,-0.04237 -0.154165,-0.847709 -0.43675,-1.789636 -0.700791,-2.335919 -1.810877,-4.012065 -3.044973,-4.59768 -0.878536,-0.416891 -0.944719,-0.509104 -0.531413,-0.7404 0.929314,-0.52007 2.442226,0.243308 4.353375,2.196616 0.988136,1.00993 1.930519,1.836237 2.094185,1.836237 0.40295,0 0.66338,-1.142351 0.43295,-1.899134 -0.10289,-0.337923 -0.585263,-1.277215 -1.071946,-2.087311 -1.984613,-3.303455 -2.612517,-5.315147 -1.974093,-6.324642 0.295701,-0.467573 0.301667,-0.461297 1.036878,1.090823 0.652598,1.377721 6.011671,6.572571 6.580231,6.378589 0.59023,-0.201377 0.35252,-1.77084 -0.72626,-4.795007 -0.58134,-1.629689 -1.12988,-3.584455 -1.21897,-4.343924 -0.34902,-2.975405 0.9347,-5.171233 3.88651,-6.647967 1.05134,-0.525962 1.96919,-0.898627 2.03967,-0.828145 0.0705,0.07048 -0.29853,0.600434 -0.82003,1.17767 -1.25915,1.39373 -1.76874,2.431811 -1.95157,3.975477 -0.19445,1.641837 0.53794,3.302205 2.80574,6.360785 2.06139,2.780197 2.68982,4.004749 2.91919,5.688248 l 0.18099,1.328497 0.3565,-0.732296 c 0.29264,-0.601114 0.30131,-1.35946 0.0484,-4.233333 -0.21742,-2.470584 -0.22689,-3.793067 -0.0322,-4.493226 0.40769,-1.465974 0.66003,-1.207122 0.55935,0.573796 -0.0678,1.198873 0.14346,2.395382 0.89925,5.093712 0.61565,2.197965 0.99794,4.149693 1.01463,5.180081 0.0147,0.909325 0.10744,1.653466 0.20602,1.653646 0.37314,7.94e-4 1.28611,-1.434357 1.5788,-2.481609 0.16755,-0.599467 0.44246,-2.280563 0.61093,-3.735771 l 0.3063,-2.645834 0.37676,1.058334 c 0.5845,1.641919 0.4575,5.725496 -0.23787,7.648191 -0.31086,0.859526 -0.56519,1.609908 -0.56519,1.667515 0,0.05761 0.74636,-0.675409 1.65858,-1.628923 1.78314,-1.863846 2.70723,-2.186159 3.78095,-1.318757 0.49457,0.399534 0.48844,0.409599 -0.16538,0.271751 -0.834,-0.17584 -1.69148,0.385844 -2.2562,1.477891 -0.73065,1.412912 -2.68467,13.205627 -2.35845,14.233449 0.25499,0.80341 -0.3374,3.7197 -1.05248,5.18126 -1.0722,2.19151 -2.57222,3.68815 -4.79997,4.78916 -1.71533,0.84777 -2.27617,0.99125 -4.1499,1.06166 -1.23066,0.0463 -2.68891,-0.066 -3.37585,-0.25992 z m 6.72123,-1.86916 c 2.47547,-1.21113 4.44419,-3.59382 5.05566,-6.1187 0.36659,-1.51375 0.18316,-3.987358 -0.41405,-5.583545 -0.79793,-2.132682 -2.96432,-4.296198 -5.12839,-5.121611 -4.54929,-1.735172 -9.50247,0.2379 -11.667758,4.647785 -0.662186,1.348623 -0.765705,1.863503 -0.765705,3.808411 0,2.54889 0.66271,4.37065 2.245853,6.17375 2.57567,2.93352 7.21412,3.88686 10.67439,2.19391 z M 100.42827,93.557052 c 0,-0.432679 -0.31563,-1.079974 -0.526614,-1.079974 -0.256347,0 -0.527161,0.974696 -0.326551,1.175306 0.238075,0.238072 0.853165,0.169343 0.853165,-0.09533 z m 15.15352,-1.137487 c -0.25055,-0.53871 -0.30125,-0.553931 -0.46947,-0.140925 -0.27072,0.664708 0.0608,1.434402 0.45016,1.045062 0.21617,-0.21617 0.22158,-0.469233 0.0193,-0.904137 z M 104.53078,90.88721 c 0.23117,-0.374042 -0.11895,-1.360927 -0.41739,-1.176483 -0.32178,0.198869 -0.31882,1.443434 0.003,1.443434 0.13693,0 0.32321,-0.120129 0.41395,-0.266951 z m 7.65669,-0.238339 c 0.18227,-0.294908 -0.0957,-1.08221 -0.38211,-1.08221 -0.28639,0 -0.56438,0.787302 -0.38212,1.08221 0.0818,0.132389 0.25377,0.240707 0.38212,0.240707 0.12834,0 0.30029,-0.108318 0.38211,-0.240707 z m -4.06889,-0.297768 c 0.64864,-0.347144 0.64254,-0.701757 -0.0393,-2.283859 l -0.55111,-1.278708 -0.49614,0.926042 c -1.04453,1.949635 -0.4275,3.446833 1.08658,2.636525 z"
         id="path29"
         inkscape:connector-curvature="0" />
      <path
         style="fill:#a58e00;stroke-width:0.26458335"
         d="M 73.463894,162.40843 C 54.533469,143.38994 39.044939,127.7437 39.044939,127.639 c 0,-0.10469 15.538231,-15.76825 34.529403,-34.807907 l 34.529398,-34.617557 34.53515,34.635533 c 18.99433,19.049541 34.49953,34.742351 34.45601,34.872911 -0.12381,0.37144 -68.74668,69.26552 -68.99284,69.26552 -0.12057,0 -15.707742,-15.56059 -34.638166,-34.57907 z M 141.83569,161.26862 175.43713,127.6664 141.76916,93.998432 108.10119,60.330462 74.433219,93.998432 40.765251,127.6664 74.366684,161.26862 c 18.480786,18.48121 33.661316,33.60221 33.734506,33.60221 0.0732,0 15.25372,-15.121 33.7345,-33.60221 z M 95.533481,178.2361 c -1.152634,-0.30506 -2.299798,-0.95253 -2.945615,-1.66253 -0.79561,-0.87468 -1.506545,-2.36287 -1.244089,-2.60424 0.121526,-0.11175 1.203219,-0.28485 2.403766,-0.38466 1.907456,-0.15857 2.182813,-0.12758 2.182813,0.24563 0,0.66273 1.222409,1.72595 1.984375,1.72595 0.377031,0 0.977754,-0.29225 1.334942,-0.64944 0.870817,-0.87081 0.933287,-3.17943 0.109958,-4.06317 -0.694756,-0.74574 -2.159963,-0.76532 -3.175151,-0.0425 -0.689229,0.49078 -0.906791,0.51215 -2.546765,0.25016 -0.986237,-0.15755 -1.810205,-0.30973 -1.831044,-0.33818 -0.02085,-0.0284 0.266729,-1.98648 0.639037,-4.35119 l 0.676929,-4.29948 h 5.372608 5.372615 v 1.85208 1.85208 h -3.54102 c -3.448506,0 -3.545185,0.0156 -3.700553,0.59532 -0.336603,1.25602 -0.224357,1.53015 0.511918,1.25022 0.373274,-0.14192 1.347716,-0.25804 2.165424,-0.25804 1.940231,0 3.485441,0.75057 4.468541,2.17054 0.66234,0.95665 0.75596,1.32821 0.74766,2.96725 -0.0129,2.54014 -1.02954,4.27711 -3.14332,5.37019 -0.88644,0.4584 -4.620908,0.69741 -5.843029,0.37396 z m 11.244789,-2.28298 v -2.24896 h 2.38125 2.38125 v 2.24896 2.24896 h -2.38125 -2.38125 z m 12.43542,-2.93246 c 0,-2.84979 -0.0893,-5.13707 -0.19844,-5.08285 -2.81906,1.40041 -3.69523,1.79722 -3.96875,1.79739 -0.23285,1.5e-4 -0.33073,-0.54351 -0.33073,-1.83703 v -1.83725 l 1.60291,-0.71934 c 1.45983,-0.65514 3.68876,-2.65902 3.68876,-3.31633 0,-0.12504 0.89297,-0.22734 1.98437,-0.22734 h 1.98438 V 170 v 8.20208 h -2.38125 -2.38125 z M 97.517856,113.51145 v -0.92604 h 10.583334 10.58333 v 0.92604 0.92605 H 108.10119 97.517856 Z m 7.571774,-1.7495 c -1.64101,-0.38525 -4.04367,-1.79945 -5.213694,-3.06878 -0.59422,-0.64465 -1.45487,-1.96738 -1.912559,-2.9394 -0.796166,-1.69087 -0.833747,-1.92183 -0.868765,-5.33919 -0.04651,-4.53858 -0.32835,-7.552824 -0.816409,-8.731252 -0.210941,-0.509323 -0.668932,-2.127565 -1.017754,-3.596092 -0.778176,-3.276085 -1.061341,-4.042495 -1.775089,-4.804429 -0.939642,-1.003081 -0.08519,-0.660834 1.2213,0.489188 0.677633,0.596474 1.533226,1.598404 1.90132,2.226506 1.232334,2.102821 1.468813,1.903412 0.642332,-0.541642 -0.893787,-2.644172 -1.726502,-3.874714 -3.120094,-4.610719 l -0.977987,-0.516509 1.273524,-0.0117 c 1.229968,-0.0113 1.345507,0.05687 3.378173,1.993152 1.157558,1.102664 2.251342,1.956662 2.430642,1.897776 0.1793,-0.05889 0.3593,-0.514582 0.4,-1.012658 0.0573,-0.701678 -0.28232,-1.530083 -1.508479,-3.679029 -1.681535,-2.947024 -2.1091,-4.360479 -1.604333,-5.303646 0.29269,-0.546897 0.339093,-0.511045 0.916067,0.707796 0.335539,0.708822 1.302565,1.936359 2.158995,2.740624 0.85319,0.801214 2.1593,2.030127 2.90247,2.730915 1.27648,1.203675 1.37634,1.249056 1.80508,0.820317 0.53821,-0.538218 0.47528,-0.881761 -0.7812,-4.264218 -1.78324,-4.800462 -1.73074,-7.416549 0.19064,-9.500999 1.01282,-1.098784 3.33222,-2.487555 4.15448,-2.487555 0.25438,0 0.0493,0.359046 -0.56664,0.992187 -0.53089,0.545703 -1.20728,1.527969 -1.50309,2.182813 -1.08905,2.410889 -0.58726,4.290223 2.11935,7.9375 2.32786,3.1369 2.87502,4.182472 3.07578,5.877581 0.14538,1.227492 0.19099,1.300165 0.52836,0.841801 0.29867,-0.405791 0.3344,-1.315561 0.18698,-4.760018 -0.10162,-2.374257 -0.0785,-4.443772 0.0524,-4.67744 0.15799,-0.282242 0.24351,0.114719 0.26188,1.215636 0.0163,0.976649 0.40723,3.019384 0.97109,5.074315 1.17518,4.28276 1.35137,5.389018 1.00387,6.303013 -0.24576,0.646387 -0.2259,0.696801 0.18731,0.475657 1.32137,-0.707176 2.04644,-2.683923 2.39061,-6.517465 l 0.21348,-2.377872 0.35831,1.190625 c 0.59024,1.961372 0.43992,5.360271 -0.3452,7.805209 -0.647,2.014826 -0.65237,2.078477 -0.11145,1.322916 0.31253,-0.436562 1.12311,-1.359296 1.80128,-2.05052 1.33155,-1.357181 2.32393,-1.616499 3.30858,-0.864569 0.48008,0.36661 0.45847,0.381916 -0.3311,0.234551 -1.55504,-0.290227 -2.49629,1.439526 -3.25831,5.98783 -0.86234,5.147152 -1.10827,7.052623 -1.2976,10.054164 -0.18503,2.9333 -0.29997,3.48769 -1.01641,4.90263 -2.25193,4.44746 -7.08411,6.75999 -11.80809,5.65099 z m 6.31885,-1.91059 c 5.76585,-2.67279 7.09457,-10.359646 2.56013,-14.810702 -1.84512,-1.811192 -3.93261,-2.680436 -6.39659,-2.663579 -3.75308,0.02566 -6.84344,1.963983 -8.385337,5.259374 -0.64289,1.374002 -0.742259,1.907749 -0.738867,3.968747 0.0046,2.81081 0.511103,4.17368 2.253544,6.064 2.09025,2.26765 4.06047,3.09227 7.13525,2.98639 1.51273,-0.0521 2.36168,-0.24324 3.57187,-0.80423 z M 100.42422,93.336974 c -0.002,-0.254662 -0.10849,-0.627933 -0.23614,-0.829495 -0.18616,-0.293942 -0.290091,-0.258107 -0.525118,0.181043 -0.427595,0.798971 -0.361201,1.111473 0.236144,1.111473 0.329124,0 0.527634,-0.175038 0.525114,-0.463021 z m 15.33129,-0.264584 c -0.0102,-0.254661 -0.10504,-0.682659 -0.21069,-0.951108 -0.17139,-0.435472 -0.22679,-0.411943 -0.51393,0.218266 -0.17701,0.388493 -0.25377,0.81649 -0.17057,0.951108 0.26225,0.424328 0.91461,0.265271 0.89519,-0.218266 z m -11.1125,-2.38125 c -0.0102,-0.254661 -0.10504,-0.682659 -0.21069,-0.951108 -0.17139,-0.435472 -0.22679,-0.411943 -0.51393,0.218265 -0.17701,0.388493 -0.25377,0.816491 -0.17057,0.951109 0.26225,0.424328 0.91461,0.265271 0.89519,-0.218266 z m 7.5664,-0.528624 c -0.1961,-0.781317 -0.33893,-1.013756 -0.51484,-0.837848 -0.0609,0.06093 -0.1929,0.437965 -0.29326,0.837848 -0.15794,0.629253 -0.10358,0.727062 0.40405,0.727062 0.50763,0 0.56198,-0.09781 0.40405,-0.727062 z m -3.89655,0.144979 c 0.44494,-0.444948 0.40088,-0.845781 -0.2625,-2.387847 l -0.57999,-1.348234 -0.43987,1.035703 c -0.77973,1.835947 -0.82416,2.143559 -0.3746,2.593123 0.50329,0.503286 1.21486,0.549347 1.65696,0.107255 z"
         id="path27"
         inkscape:connector-curvature="0" />
      <path
         style="fill:#625400;stroke-width:0.26458335"
         d="M 73.440645,162.19466 38.913154,127.66641 73.507172,93.07239 108.10119,58.478372 l 34.59402,34.594018 34.59402,34.59402 -34.5275,34.52825 c -18.99012,18.99054 -34.58736,34.52825 -34.66054,34.52825 -0.0732,0 -15.670425,-15.53771 -34.660545,-34.52825 z M 141.81931,161.33406 175.40515,127.665 141.81931,94.00011 C 123.34711,75.484417 108.17395,60.334087 108.10119,60.332709 108.02843,60.33133 92.857546,75.480771 74.388118,93.99813 l -33.58078,33.66793 33.58078,33.70398 c 18.469428,18.53719 33.640312,33.68803 33.713072,33.66853 0.0728,-0.0195 15.24592,-15.18652 33.71812,-33.70451 z m -46.228282,16.84379 c -2.041118,-0.48063 -3.288946,-1.47752 -4.010227,-3.20379 -0.482398,-1.15454 -0.513297,-1.13662 2.431326,-1.41006 1.590275,-0.14767 1.918229,-0.11178 1.918229,0.20992 0,0.21343 0.246766,0.70176 0.54837,1.08519 0.716812,0.91127 2.031823,0.95046 2.845093,0.0848 0.796601,-0.84795 0.824651,-3.37161 0.04612,-4.15013 -0.701072,-0.70108 -2.350617,-0.70526 -3.236772,-0.008 -0.586738,0.46153 -0.839849,0.49189 -2.218494,0.26612 -0.855906,-0.14017 -1.645489,-0.25554 -1.75463,-0.25638 -0.324162,-0.002 -0.20089,-1.51354 0.421029,-5.16091 l 0.586491,-3.43958 5.350148,-0.0716 5.350149,-0.0716 v 1.85756 1.85756 h -3.54357 c -3.815873,0 -3.864768,0.0186 -3.864768,1.4703 0,0.57045 0.06733,0.60767 0.678683,0.37524 0.99391,-0.37789 3.355165,-0.31475 4.382235,0.11717 1.65002,0.69389 3.14117,2.84254 3.14117,4.52622 0,2.7652 -1.97521,5.38075 -4.46699,5.91514 -1.590896,0.34118 -3.174491,0.34363 -4.603592,0.007 z m 11.187242,-2.22473 v -2.24896 h 2.38125 2.38125 v 2.24896 2.24896 h -2.38125 -2.38125 z m 12.61181,2.07257 c -0.097,-0.097 -0.17639,-2.47995 -0.17639,-5.29542 v -5.11903 l -0.99219,0.65492 c -0.80391,0.53065 -2.98022,1.46925 -3.4067,1.46925 -0.0545,0 -0.099,-0.81756 -0.099,-1.8168 v -1.81681 l 1.30472,-0.54222 c 1.40572,-0.58419 3.60188,-2.43606 3.8624,-3.2569 0.1387,-0.43699 0.42427,-0.50477 2.12675,-0.50477 h 1.96655 V 170 v 8.20208 h -2.20486 c -1.21268,0 -2.28424,-0.0794 -2.38125,-0.17639 z M 97.517856,113.51145 v -0.92604 h 10.583334 10.58333 v 0.92604 0.92605 H 108.10119 97.517856 Z m 7.474654,-1.84721 c -2.06877,-0.58212 -3.43486,-1.36383 -4.84142,-2.7704 -2.17737,-2.17737 -3.365887,-5.40156 -3.062198,-8.30709 0.227383,-2.175491 -0.31473,-7.690874 -0.92714,-9.432589 -0.281418,-0.800364 -0.744566,-2.513412 -1.029216,-3.806769 -0.284649,-1.293358 -0.838144,-2.900702 -1.229987,-3.571875 l -0.712443,-1.220314 0.907103,0.689356 c 0.498908,0.379145 1.298702,1.212583 1.77732,1.852083 0.478618,0.639501 1.154911,1.519915 1.502875,1.956477 l 0.632664,0.79375 -0.541189,-1.852083 c -0.910543,-3.116098 -1.695382,-4.285459 -3.522898,-5.248902 l -0.79375,-0.418452 1.009581,-0.01058 c 1.357548,-0.01423 1.864032,0.282884 3.929015,2.304963 1.947713,1.907249 2.602033,2.04021 2.602033,0.528753 0,-0.574815 -0.49183,-1.738704 -1.429032,-3.381742 -1.712865,-3.002878 -2.146001,-4.380122 -1.715902,-5.456054 l 0.301162,-0.7534 0.204554,0.713311 c 0.342757,1.195245 1.782257,2.964286 3.737168,4.592702 1.02205,0.85136 2.08408,1.834999 2.36008,2.185868 0.53548,0.680749 1.19726,0.635971 1.47973,-0.100126 0.0898,-0.234 -0.39816,-2.099154 -1.08435,-4.144788 -1.86793,-5.568624 -1.68959,-7.792832 0.80012,-9.97883 0.80244,-0.704548 2.95077,-1.867095 3.45031,-1.867095 0.0674,0 -0.31003,0.565547 -0.83865,1.256771 -2.64249,3.455327 -2.35504,5.576523 1.44316,10.649479 1.90935,2.550171 2.84534,4.690473 2.6038,5.954017 -0.0815,0.426193 -0.012,0.571965 0.22846,0.479676 0.60158,-0.230846 0.67948,-1.066983 0.48641,-5.220134 -0.12594,-2.708873 -0.0952,-4.215852 0.0927,-4.55016 0.22273,-0.396165 0.25284,-0.280312 0.14515,0.558476 -0.0939,0.731228 0.18831,2.325867 0.91303,5.159375 1.32766,5.19095 1.44282,5.870329 1.13315,6.68482 -0.22163,0.582922 -0.19017,0.648343 0.25573,0.531738 1.1512,-0.301048 1.98986,-2.613776 2.32906,-6.422808 l 0.20028,-2.248958 0.35387,1.190625 c 0.56986,1.917276 0.42976,4.852715 -0.34671,7.264693 -0.37277,1.157926 -0.63973,2.143345 -0.59325,2.189824 0.0465,0.04648 0.58702,-0.581062 1.2012,-1.394539 1.65362,-2.190208 3.43617,-3.086423 4.23187,-2.127668 0.25494,0.307184 0.21737,0.351285 -0.20514,0.240797 -0.81475,-0.213061 -1.63709,0.390975 -2.16884,1.593086 -0.69268,1.565915 -2.08762,9.969926 -2.34479,14.126456 -0.19565,3.1622 -0.29834,3.66973 -1.05236,5.20136 -2.17075,4.40942 -7.36694,6.85465 -11.87236,5.5869 z m 6.6501,-1.85326 c 7.17838,-3.63194 6.62427,-13.89938 -0.91678,-16.987327 -1.83872,-0.75293 -5.0023,-0.64557 -6.90432,0.23431 -2.00091,0.925631 -3.7489,2.584868 -4.644592,4.408757 -0.652659,1.329008 -0.732999,1.782718 -0.732817,4.13848 1.83e-4,2.38259 0.07348,2.78494 0.73664,4.04393 1.205029,2.28772 3.285949,4.04498 5.745449,4.85184 0.3638,0.11935 1.68434,0.18469 2.93452,0.1452 1.89291,-0.0598 2.5254,-0.19946 3.7819,-0.83519 z M 100.42422,93.336974 c -0.005,-0.530794 -0.434661,-1.303129 -0.621513,-1.116275 -0.06884,0.06885 -0.207287,0.452351 -0.307652,0.852234 -0.155821,0.620834 -0.100975,0.727062 0.375367,0.727062 0.356438,0 0.556388,-0.167172 0.553798,-0.463021 z m 15.34583,-0.396875 c -0.002,-0.327422 -0.11445,-0.769872 -0.24939,-0.983224 -0.19627,-0.310324 -0.30167,-0.239739 -0.52701,0.352933 -0.31166,0.819751 -0.17947,1.225603 0.3992,1.225603 0.22019,0 0.37954,-0.251497 0.3772,-0.595312 z m -11.1125,-2.38125 c -0.002,-0.327422 -0.11445,-0.769872 -0.24939,-0.983224 -0.19627,-0.310324 -0.30167,-0.239739 -0.52701,0.352933 -0.31166,0.819751 -0.17947,1.225603 0.3992,1.225603 0.22019,0 0.37954,-0.251497 0.3772,-0.595312 z m 7.67292,-0.132292 c -0.002,-0.254661 -0.12129,-0.641615 -0.26458,-0.859896 -0.23159,-0.352777 -0.28948,-0.352777 -0.52107,0 -0.44208,0.673436 -0.31417,1.322917 0.26054,1.322917 0.32912,0 0.52763,-0.175038 0.52511,-0.463021 z m -4.01761,-0.119062 c 0.45445,-0.454454 0.39583,-1.026327 -0.25555,-2.493138 l -0.57304,-1.290404 -0.61418,1.322916 c -0.3378,0.727605 -0.61571,1.507464 -0.61758,1.733021 -0.005,0.574091 0.5303,1.045105 1.18722,1.045105 0.30559,0 0.6985,-0.142875 0.87313,-0.3175 z"
         id="path25"
         inkscape:connector-curvature="0" />
      <path
         style="fill:#010100;stroke-width:0.26458335"
         d="M 73.440645,162.19466 38.913154,127.66641 73.507172,93.07239 108.10119,58.478372 l 34.59402,34.594018 34.59402,34.59402 -34.5275,34.52825 c -18.99012,18.99054 -34.58736,34.52825 -34.66054,34.52825 -0.0732,0 -15.670425,-15.53771 -34.660545,-34.52825 z M 141.96799,161.40091 175.70171,127.6664 141.90145,93.86614 108.10119,60.065878 74.300927,93.86614 40.500666,127.6664 74.234393,161.40091 c 18.553549,18.55398 33.793607,33.7345 33.866797,33.7345 0.0732,0 15.31325,-15.18052 33.8668,-33.7345 z m -47.841606,16.11413 c -0.984454,-0.49057 -1.566751,-1.00792 -2.036323,-1.80918 -0.361693,-0.61718 -0.657622,-1.25195 -0.657622,-1.41059 0,-0.15865 0.684609,-0.36281 1.521354,-0.45369 0.836745,-0.0909 1.78694,-0.22021 2.111547,-0.28738 0.470797,-0.0974 0.664932,0.0567 0.959641,0.76208 0.507053,1.21355 1.674678,1.69777 2.751352,1.141 2.425337,-1.25419 1.406647,-5.78727 -1.205272,-5.36341 -0.501923,0.0814 -1.12961,0.34449 -1.39486,0.58454 -0.398841,0.36095 -0.805116,0.40403 -2.348434,0.24904 -1.02639,-0.10308 -1.866161,-0.29636 -1.866161,-0.42952 0,-0.30701 1.01265,-6.73563 1.214154,-7.70783 l 0.150807,-0.7276 h 5.270646 5.270647 v 1.71979 1.71979 h -3.58018 c -2.633842,0 -3.606902,0.0874 -3.681274,0.33073 -0.0556,0.1819 -0.169791,0.72689 -0.253759,1.21109 -0.152557,0.87974 -0.152054,0.88021 0.704709,0.66146 1.415815,-0.36149 3.955744,-0.22583 4.878594,0.26057 0.46542,0.24531 1.1798,0.88335 1.5875,1.41788 0.67341,0.88289 0.74128,1.17153 0.74128,3.15249 0,1.99608 -0.0672,2.27598 -0.79375,3.30757 -1.24453,1.76697 -2.63497,2.35821 -5.545915,2.35821 -2.074979,0 -2.616528,-0.0979 -3.798681,-0.68704 z m 12.651886,-1.69421 v -2.11667 h 2.38125 2.38125 v 2.11667 2.11667 h -2.38125 -2.38125 z m 12.7,-3.04271 c 0,-2.83766 -0.032,-5.15937 -0.0711,-5.15937 -0.0391,0 -1.01914,0.47625 -2.17782,1.05833 -1.15867,0.58208 -2.19822,1.05833 -2.3101,1.05833 -0.11189,0 -0.20108,-0.80367 -0.1982,-1.78593 l 0.005,-1.78594 1.84779,-0.86804 c 1.42807,-0.67087 2.07075,-1.16668 2.82936,-2.18281 l 0.98158,-1.31478 h 1.66331 1.66332 v 8.06979 8.0698 h -2.11667 -2.11667 z M 97.517856,113.51145 v -0.92604 h 10.583334 10.58333 v 0.92604 0.92605 H 108.10119 97.517856 Z m 7.143754,-1.95322 c -2.85882,-0.93778 -5.071437,-2.80119 -6.389732,-5.38127 -0.838528,-1.64112 -0.85123,-1.72266 -1.043479,-6.6983 -0.214164,-5.542799 -0.330589,-6.505237 -1.022993,-8.45679 -0.258151,-0.727605 -0.675751,-2.275417 -0.928,-3.439584 -0.252248,-1.164167 -0.742997,-2.689389 -1.090557,-3.389381 l -0.631922,-1.272715 0.798721,0.568738 c 0.439296,0.312809 1.400649,1.460759 2.136338,2.551004 0.735688,1.090242 1.39981,1.920065 1.475828,1.844048 0.253518,-0.253519 -1.284296,-4.622234 -1.939811,-5.510739 -0.35541,-0.48173 -1.087872,-1.143267 -1.627696,-1.470081 l -0.981493,-0.594204 0.952489,-0.0013 c 1.113359,-0.0016 2.70886,1.044986 3.826047,2.509695 0.402612,0.527849 1.071214,1.135131 1.485784,1.349513 0.725456,0.375147 0.763826,0.363312 1.021776,-0.315124 0.35253,-0.927241 0.20618,-1.352127 -1.515227,-4.398881 -1.403643,-2.484342 -1.923719,-4.188712 -1.56411,-5.125836 0.129844,-0.33837 0.339312,-0.112513 0.854527,0.921388 0.448704,0.900432 1.327772,1.933408 2.56606,3.015326 1.03594,0.905129 2.28589,2.054087 2.77766,2.553237 0.70759,0.718204 0.98507,0.850638 1.32998,0.634773 0.73927,-0.462677 0.62956,-1.426287 -0.52202,-4.585029 -0.96204,-2.638843 -1.11257,-3.343489 -1.13404,-5.308782 -0.0224,-2.052334 0.0441,-2.37031 0.7051,-3.371179 0.77357,-1.171275 2.04046,-2.131191 3.75013,-2.841456 l 1.0404,-0.432225 -0.84034,0.957094 c -0.98242,1.118915 -1.76182,2.576841 -2.02198,3.782247 -0.32928,1.525688 0.47302,3.467522 2.66387,6.447486 2.42809,3.302648 2.99896,4.465518 3.00663,6.124628 0.006,1.308902 0.23205,1.543698 0.81258,0.844203 0.39738,-0.478819 0.4432,-1.967526 0.19087,-6.202016 -0.13688,-2.296969 -0.12045,-2.660852 0.067,-1.484688 0.1366,0.856911 0.63127,2.880974 1.09926,4.497917 0.59468,2.05463 0.8551,3.517413 0.86483,4.857782 0.008,1.054838 0.0515,1.918041 0.0975,1.918229 1.22738,0.0051 2.68665,-3.399774 2.69864,-6.296533 0.007,-1.746068 0.45767,-1.875666 0.66801,-0.192194 0.25584,2.047648 0.003,4.405384 -0.69052,6.437731 -0.31311,0.917649 -0.49658,1.741165 -0.40771,1.830036 0.0889,0.08887 0.19615,0.111971 0.23839,0.05134 2.18766,-3.139922 3.52043,-4.182992 4.72704,-3.699537 l 0.62011,0.24846 -0.70408,0.01677 c -1.04766,0.02495 -1.93985,1.268339 -2.41889,3.371062 -1.06078,4.656156 -1.7291,9.362678 -1.85573,13.068737 -0.0742,2.17055 -0.20344,2.78222 -0.90474,4.28085 -1.09128,2.33203 -2.6538,3.97316 -4.77888,5.01934 -1.53509,0.75572 -2.01866,0.85976 -4.26577,0.91779 -1.39392,0.036 -2.83206,-0.0322 -3.19586,-0.15152 z m 6.63858,-1.51843 c 1.83478,-0.82339 3.96742,-2.94756 4.81551,-4.79637 0.45542,-0.99278 0.57743,-1.75831 0.58053,-3.64219 0.004,-2.161657 -0.0769,-2.549565 -0.85854,-4.138716 -1.00368,-2.040628 -2.43674,-3.439123 -4.52975,-4.420516 -1.26452,-0.59292 -1.84318,-0.696634 -3.86821,-0.693303 -2.90539,0.0048 -4.23256,0.530439 -6.31735,2.502143 -2.821276,2.668246 -3.700034,6.540502 -2.301174,10.140182 0.646454,1.66352 2.707274,4.01698 4.187964,4.78268 2.63168,1.36089 5.63658,1.45733 8.29102,0.26609 z m -10.9288,-16.305951 c 0.18895,-0.229328 0.16926,-0.574091 -0.0642,-1.124479 l -0.336683,-0.79375 -0.335071,0.710731 c -0.519745,1.10245 0.05097,2.038856 0.735944,1.207498 z m 15.46126,-0.997408 c -0.10921,-0.955098 -0.49284,-1.195583 -0.84816,-0.531678 -0.39041,0.729496 -0.1493,1.399641 0.45809,1.273213 0.31615,-0.06581 0.44034,-0.30189 0.39007,-0.741535 z m -11.05101,-1.827035 c 0.0832,-0.134618 0.007,-0.56166 -0.16959,-0.948984 -0.29846,-0.655029 -0.3449,-0.671364 -0.66482,-0.233839 -0.51592,0.705554 -0.43014,1.427578 0.16959,1.427578 0.28246,0 0.58163,-0.110141 0.66482,-0.244755 z m 7.42458,-0.02627 c 0.21396,-0.346197 -0.10777,-1.845638 -0.396,-1.845638 -0.40068,0 -0.77757,1.502714 -0.45723,1.82305 0.36592,0.365916 0.63661,0.373079 0.85323,0.02257 z M 108.11858,90.6157 c 0.67875,-0.363254 0.65936,-1.441865 -0.0549,-3.056647 l -0.56671,-1.281136 -0.62392,1.413727 c -0.77523,1.756606 -0.78176,2.26363 -0.0359,2.786071 0.69773,0.488704 0.63811,0.482285 1.28144,0.137985 z"
         id="path23"
         inkscape:connector-curvature="0" />
    </g>
  </g>
</svg>
