<?xml version="1.0" encoding="UTF-8" standalone="no"?>
<!-- Created with Inkscape (http://www.inkscape.org/) -->

<svg
   xmlns:dc="http://purl.org/dc/elements/1.1/"
   xmlns:cc="http://creativecommons.org/ns#"
   xmlns:rdf="http://www.w3.org/1999/02/22-rdf-syntax-ns#"
   xmlns:svg="http://www.w3.org/2000/svg"
   xmlns="http://www.w3.org/2000/svg"
   xmlns:sodipodi="http://sodipodi.sourceforge.net/DTD/sodipodi-0.dtd"
   xmlns:inkscape="http://www.inkscape.org/namespaces/inkscape"
   width="270.93332mm"
   height="270.93332mm"
   viewBox="0 0 270.93332 270.93333"
   version="1.1"
   id="svg378"
   inkscape:version="0.92.4 (5da689c313, 2019-01-14)"
   sodipodi:docname="Class_3_Flammable_Liquid.svg">
  <defs
     id="defs372" />
  <sodipodi:namedview
     id="base"
     pagecolor="#ffffff"
     bordercolor="#666666"
     borderopacity="1.0"
     inkscape:pageopacity="0.0"
     inkscape:pageshadow="2"
     inkscape:zoom="0.35"
     inkscape:cx="308.57143"
     inkscape:cy="323.71434"
     inkscape:document-units="mm"
     inkscape:current-layer="layer1"
     showgrid="false"
     inkscape:window-width="1920"
     inkscape:window-height="1017"
     inkscape:window-x="-8"
     inkscape:window-y="-8"
     inkscape:window-maximized="1" />
  <metadata
     id="metadata375">
    <rdf:RDF>
      <cc:Work
         rdf:about="">
        <dc:format>image/svg+xml</dc:format>
        <dc:type
           rdf:resource="http://purl.org/dc/dcmitype/StillImage" />
        <dc:title></dc:title>
      </cc:Work>
    </rdf:RDF>
  </metadata>
  <g
     inkscape:label="Layer 1"
     inkscape:groupmode="layer"
     id="layer1"
     transform="translate(-24.190475,36.450582)">
    <g
       id="g391"
       transform="matrix(1.7066666,0,0,1.7181207,-19.674913,-177.47865)">
      <path
         style="fill:#fefefe;stroke-width:0.26458335"
         d="M 25.702377,160.92858 V 82.082748 h 79.375003 79.375 v 78.845832 78.84584 h -79.375 -79.375003 z"
         id="path407"
         inkscape:connector-curvature="0" />
      <path
         style="fill:#f5cdc9;stroke-width:0.26458335"
         d="M 65.411015,200.33882 C 43.716785,178.77825 25.967555,161.06095 25.968283,160.96704 25.96984,160.766 104.7601,82.517741 105.081,82.398542 c 0.22472,-0.08347 79.1075,78.187338 79.1059,78.492198 -0.001,0.20029 -78.7929,78.44863 -79.11368,78.56795 -0.11998,0.0446 -17.967975,-17.55931 -39.662205,-39.11987 z m 74.326905,-4.88224 34.52749,-34.52825 -34.59402,-34.59402 -34.59401,-34.594017 -34.59402,34.594017 -34.594018,34.59402 34.527491,34.52825 c 18.99012,18.99054 34.587367,34.52825 34.660547,34.52825 0.0732,0 15.67042,-15.53771 34.66054,-34.52825 z m -68.527339,-0.79375 -33.733727,-33.73451 33.800261,-33.80026 33.800265,-33.800261 33.80026,33.800261 33.80026,33.80026 -33.73373,33.73451 c -18.55355,18.55398 -33.7936,33.7345 -33.86679,33.7345 -0.0732,0 -15.31325,-15.18052 -33.866799,-33.7345 z m 38.005799,21.80988 c 1.80132,-0.87201 2.60787,-2.26653 2.60787,-4.50899 0,-1.60653 -0.0767,-1.868 -0.7566,-2.57761 -0.41612,-0.43434 -1.07077,-0.86857 -1.45476,-0.96494 l -0.69818,-0.17523 0.73458,-0.5351 c 2.10589,-1.53404 1.95466,-4.70089 -0.29076,-6.08863 -0.75635,-0.46745 -1.45754,-0.61174 -3.38188,-0.6959 -2.77578,-0.1214 -3.96861,0.17461 -5.25499,1.30407 -0.822629,0.72227 -1.67858,2.22918 -1.415597,2.49217 0.06641,0.0664 0.973337,0.28196 2.015387,0.479 1.8458,0.34902 1.89898,0.34398 2.06283,-0.19538 0.43207,-1.42227 2.03728,-1.96853 3.06133,-1.04179 1.067,0.96563 0.10764,3.0017 -1.41435,3.0017 -0.69325,0 -0.74763,0.0754 -0.74763,1.0367 0,0.57018 -0.0723,1.22502 -0.1606,1.45521 -0.13312,0.3469 0.0636,0.41851 1.14961,0.41851 1.69373,0 2.31828,0.61953 2.31828,2.29965 0,0.97115 -0.13436,1.30132 -0.74236,1.8243 -1.2604,1.08415 -2.685,0.67746 -3.36332,-0.96015 -0.3024,-0.73005 -0.43728,-0.80967 -1.16095,-0.68535 -0.45033,0.0774 -1.3879,0.22027 -2.08348,0.31755 -1.134253,0.15863 -1.247439,0.23505 -1.097474,0.74096 0.509646,1.71929 2.197934,3.19913 4.108634,3.60135 1.78199,0.37513 4.59846,0.11914 5.96441,-0.5421 z M 56.92321,169.26296 v -4.36563 h 2.116667 2.116667 v -2.24896 -2.24895 H 59.039877 56.92321 v -1.85209 -1.85208 h 2.513542 2.513542 V 154.314 151.93275 H 57.849252 53.74821 v 10.84792 10.84791 h 1.5875 1.5875 z m 15.345834,1.71979 v -2.64583 H 69.62321 66.977377 v -8.20209 -8.20208 h -1.5875 -1.5875 v 10.84792 10.84791 h 4.233333 4.233334 z m 4.110804,0.92604 0.184174,-1.71979 h 2.055022 2.055021 l 0.184174,1.71979 0.184174,1.71979 h 1.698731 c 0.934304,0 1.698733,-0.0686 1.698733,-0.15256 0,-0.0839 -0.892969,-4.89682 -1.984375,-10.69535 -1.091406,-5.79854 -1.984375,-10.61145 -1.984375,-10.69536 0,-0.0839 -0.803672,-0.15225 -1.785937,-0.15187 l -1.785938,7.9e-4 -1.956477,10.5165 c -1.076061,5.78407 -2.011535,10.66533 -2.078826,10.84723 -0.09001,0.2433 0.33419,0.33073 1.604687,0.33073 h 1.727039 l 0.184173,-1.7198 z m 1.546405,-10.18646 c 0.294868,-2.03729 0.609886,-3.70416 0.700038,-3.70416 0.09015,0 0.372329,1.45851 0.627062,3.24114 0.254733,1.78263 0.521904,3.44951 0.593709,3.70417 0.111559,0.39564 -0.0577,0.46302 -1.163187,0.46302 h -1.293747 z m 10.511277,4.0349 0.0289,-7.87136 0.886275,6.74688 c 0.48745,3.71078 0.95799,7.25289 1.045641,7.87135 l 0.159369,1.12448 h 1.141339 c 1.367422,0 1.120518,0.90673 2.305486,-8.46666 l 0.886376,-7.01146 0.07014,7.73906 0.07014,7.73906 h 1.318919 1.318922 V 162.78067 151.93275 H 95.55237 c -1.516078,0 -2.117127,0.0938 -2.118291,0.33073 -0.0039,0.78778 -1.597718,12.46931 -1.717712,12.5893 -0.07301,0.073 -0.132747,0.0151 -0.132747,-0.12879 0,-0.14385 -0.356457,-2.99143 -0.792125,-6.32796 -0.435671,-3.33652 -0.792859,-6.1557 -0.79375,-6.26484 -8.95e-4,-0.10914 -0.954125,-0.19844 -2.118292,-0.19844 h -2.116666 v 10.84792 10.84791 h 1.322916 1.322917 z m 14.28662,-0.13229 0.028,-8.00365 1.02023,7.67292 c 0.56113,4.2201 1.02477,7.82174 1.03031,8.00364 0.007,0.21319 0.42577,0.33073 1.17968,0.33073 1.40639,0 1.17729,0.82403 2.2804,-8.20208 0.45351,-3.71078 0.92629,-6.985 1.05062,-7.27604 0.13221,-0.30946 0.2335,2.79398 0.24398,7.47448 l 0.0179,8.00364 h 1.19063 1.19062 v -10.84791 -10.84792 h -2.11666 c -1.83742,0 -2.11739,0.0611 -2.1221,0.46302 -0.0118,1.00778 -1.54679,12.2899 -1.69183,12.43493 -0.0851,0.0852 -0.15482,-0.0176 -0.15482,-0.22843 0,-0.2108 -0.35719,-3.11411 -0.79375,-6.45181 -0.43657,-3.33771 -0.79375,-6.10211 -0.79375,-6.14313 0,-0.041 -0.9525,-0.0746 -2.11667,-0.0746 h -2.11667 v 10.84792 10.84791 h 1.32292 1.32292 z m 14.0994,6.20727 0.23679,-1.66409 2.01216,0.0766 2.01217,0.0766 0.22154,1.65365 0.22154,1.65364 h 1.72754 c 1.51467,0 1.71275,-0.0571 1.60742,-0.46302 -0.0661,-0.25466 -0.99473,-5.13622 -2.06367,-10.84791 l -1.94353,-10.3849 h -1.75522 -1.75521 l -1.94353,10.3849 c -1.06894,5.71169 -1.99919,10.59933 -2.06721,10.86143 -0.11105,0.42791 0.0486,0.46841 1.56437,0.39687 l 1.68804,-0.0797 z m 1.04081,-7.00102 c 0.0794,-0.32742 0.35461,-2.04949 0.61159,-3.82682 0.25698,-1.77733 0.52563,-3.17311 0.597,-3.10174 0.0714,0.0714 0.38182,1.79344 0.68988,3.82682 l 0.56011,3.69705 h -1.30146 c -1.21605,0 -1.292,-0.0391 -1.15712,-0.59531 z m 16.25832,8.26411 c 1.02923,-0.67083 1.73519,-2.52506 1.85787,-4.87974 0.1327,-2.54687 -0.23471,-4.08323 -1.2541,-5.24425 -0.74789,-0.8518 -0.75059,-0.8671 -0.26004,-1.47291 0.68098,-0.84096 1.0351,-2.2579 1.0351,-4.14169 0,-2.08983 -0.39065,-3.41163 -1.31393,-4.44588 l -0.75506,-0.84579 -3.59424,-0.0866 -3.59424,-0.0866 v 10.89379 10.89379 l 3.63802,-0.0956 c 2.63765,-0.0693 3.80373,-0.20364 4.24062,-0.4884 z m -4.70364,-6.21359 v -2.24896 h 1.29052 c 1.42589,0 1.7943,0.27669 2.04633,1.53684 0.37413,1.87066 -0.42317,2.96108 -2.16512,2.96108 h -1.17173 z m 0,-8.33438 v -2.11666 h 1.18132 c 1.40187,0 1.7291,0.41948 1.7291,2.21656 0,1.39328 -0.63167,2.01677 -2.04325,2.01677 h -0.86717 z m 16.93334,12.43542 v -2.64583 h -2.64584 -2.64583 v -8.20209 -8.20208 h -1.5875 -1.5875 v 10.84792 10.84791 h 4.23333 4.23334 z m 10.84791,0.26458 v -2.38125 h -2.91041 -2.91042 v -2.24896 -2.24895 h 2.51354 2.51354 v -2.11667 -2.11667 h -2.51354 -2.51354 v -1.85208 -1.85208 h 2.77813 2.77812 v -2.24896 -2.24896 h -4.49792 -4.49791 v 10.84792 10.84791 h 4.63021 4.6302 z m -38.62916,-25.53229 v -0.66146 H 105.20967 91.84821 v 0.66146 0.66146 h 13.36146 13.36146 z m -17.00134,-2.00661 c -0.64049,-0.37299 -1.46285,-2.06523 -1.817174,-3.73934 -0.401074,-1.895 -0.843724,-2.68459 -2.300041,-4.10274 -0.798066,-0.77715 -1.050491,-1.15273 -0.709573,-1.05577 0.291042,0.0828 1.261726,0.38283 2.157076,0.66678 l 1.627912,0.51629 -0.51328,-1.85221 c -0.587272,-2.11925 -1.127638,-3.27455 -1.612495,-3.44752 -0.184963,-0.066 -0.264041,-0.19861 -0.175729,-0.29472 0.355915,-0.38733 1.074023,0.23774 1.972704,1.71713 1.49048,2.4536 1.99417,1.80934 0.8033,-1.02749 -0.60069,-1.43094 -0.79689,-2.32874 -0.70654,-3.23317 0.0218,-0.21829 0.20928,-0.006 0.41661,0.47069 0.40073,0.92223 2.52132,3.76264 2.80912,3.76264 0.36469,0 0.41124,-1.06279 0.16293,-3.71937 -0.28897,-3.09151 -0.0509,-4.53374 0.93881,-5.68604 l 0.58625,-0.68259 -0.0876,1.56417 c -0.0734,1.31039 0.64723,6.70684 1.20764,9.04335 0.14496,0.60442 0.1711,0.61404 0.35945,0.13229 0.11172,-0.28573 0.21216,-1.47202 0.2232,-2.63619 0.011,-1.16416 0.15875,-2.59291 0.32825,-3.175 l 0.30819,-1.05833 0.22827,1.19063 c 0.12555,0.65484 0.19456,2.70884 0.15336,4.56443 -0.0412,1.8556 -0.049,3.37365 -0.0173,3.37344 0.0317,-2e-4 0.36254,-0.98264 0.7352,-2.18319 0.37266,-1.20054 0.83818,-2.47129 1.03449,-2.82387 0.95057,-1.70729 0.6749,2.05326 -0.34763,4.7421 -0.30436,0.80037 -0.55345,1.49556 -0.55353,1.54488 -7e-5,0.0493 0.36056,-0.21384 0.80141,-0.58479 0.75593,-0.63607 2.49909,-1.18723 2.80077,-0.88555 0.0759,0.0759 -0.25704,0.65886 -0.73994,1.29541 -0.97379,1.28365 -1.80177,3.04321 -2.46791,5.24464 -0.24219,0.80036 -0.69791,1.73989 -1.01271,2.08783 l -0.57237,0.63263 0.79375,-0.18397 c 1.78786,-0.41438 4.26282,-1.80627 5.44191,-3.06047 1.54892,-1.64762 2.56588,-3.58983 3.95105,-7.54582 0.61144,-1.74625 1.52853,-3.97375 2.03797,-4.95002 1.01245,-1.94017 3.04853,-4.04196 4.35773,-4.49835 0.77497,-0.27016 0.79717,-0.31221 0.34092,-0.64582 -0.63595,-0.46502 -2.078,-0.45552 -2.9797,0.0196 -0.86471,0.45567 -3.12978,2.77239 -4.23312,4.32966 -0.442,0.62384 -0.86705,1.03167 -0.94454,0.90629 -0.0775,-0.12539 0.20924,-1.3168 0.6372,-2.64757 0.97148,-3.02096 1.21235,-5.44817 0.78945,-7.95538 -0.17841,-1.05776 -0.36877,-1.87883 -0.42302,-1.82458 -0.0542,0.0542 -0.22912,1.26885 -0.3886,2.69913 -0.36398,3.26423 -1.06593,5.55077 -2.0049,6.53085 -0.82655,0.86274 -1.89553,1.07177 -1.51932,0.29709 0.47691,-0.98201 0.16219,-3.46903 -0.94585,-7.47448 -0.62397,-2.25557 -1.23333,-4.99401 -1.35415,-6.08542 -0.14652,-1.32361 -0.16499,-0.6188 -0.0555,2.11667 0.27464,6.85881 0.22021,7.4326 -0.75451,7.95426 -0.53719,0.28749 -0.5487,0.25647 -0.37461,-1.00935 0.28021,-2.03737 -0.28346,-4.36274 -2.10033,-8.6647 -0.92188,-2.18281 -1.822,-4.63722 -2.00027,-5.45425 -0.33431,-1.53212 -0.24246,-5.74309 0.14649,-6.71658 0.49362,-1.235432 -1.24465,0.82763 -1.99851,2.37193 -0.92452,1.8939 -1.29854,4.22347 -1.31837,8.2114 -0.0165,3.32623 -0.49182,6.38976 -1.25511,8.09005 l -0.5254,1.17037 -0.85568,-1.85209 c -1.358313,-2.94002 -1.84485,-4.5621 -2.134008,-7.11466 -0.148492,-1.31083 -0.317847,-2.43119 -0.376341,-2.48969 -0.05849,-0.0585 -0.238498,0.38439 -0.400008,0.98419 -0.180075,0.66875 -0.269094,3.10955 -0.230158,6.31056 0.05579,4.58645 0.0051,5.34096 -0.417367,6.21648 -0.264475,0.54805 -0.604949,1.07314 -0.75661,1.16687 -0.458507,0.28338 -1.423636,-1.10142 -2.0231,-2.90282 -0.655979,-1.97121 -1.701649,-3.69095 -2.928781,-4.81676 l -0.86519,-0.79375 0.157803,0.66623 c 0.08679,0.36643 0.517638,2.39049 0.957437,4.49792 0.439798,2.10743 1.031565,4.66341 1.315037,5.67996 0.283469,1.01655 0.465272,1.89841 0.404003,1.95968 -0.06127,0.0613 -1.213922,-0.952 -2.561447,-2.25171 -2.248601,-2.1688 -4.169823,-3.75901 -4.169823,-3.45137 0,0.0689 0.427231,0.63664 0.949404,1.26164 1.38474,1.65743 2.642013,4.32739 3.565012,7.57073 0.446453,1.56879 1.387263,4.04297 2.09069,5.49818 1.915496,3.96266 3.929179,5.99616 7.153227,7.22361 1.58165,0.60217 2.60117,0.77062 1.78408,0.29478 z"
         id="path405"
         inkscape:connector-curvature="0" />
      <path
         style="fill:#ed9e99;stroke-width:0.26458335"
         d="M 65.520105,200.3814 C 43.838636,178.86001 26.099252,161.14859 26.099252,161.0227 c 0,-0.29907 78.717418,-78.543077 79.018298,-78.543077 0.30979,0 79.10472,78.227057 79.01142,78.441967 -0.0983,0.22646 -78.80385,78.43736 -79.01938,78.52279 -0.0927,0.0368 -17.908016,-17.54158 -39.589485,-39.06298 z m 74.217815,-4.92482 34.52749,-34.52825 -34.59402,-34.59402 -34.59401,-34.594017 -34.59402,34.594017 -34.594018,34.59402 34.527491,34.52825 c 18.99012,18.99054 34.587367,34.52825 34.660547,34.52825 0.0732,0 15.67042,-15.53771 34.66054,-34.52825 z m -68.527339,-0.79375 -33.733727,-33.73451 33.800261,-33.80026 33.800265,-33.800261 33.80026,33.800261 33.80026,33.80026 -33.73373,33.73451 c -18.55355,18.55398 -33.7936,33.7345 -33.86679,33.7345 -0.0732,0 -15.31325,-15.18052 -33.866799,-33.7345 z m 36.808339,22.35318 c 2.42439,-0.67343 3.92587,-2.57525 3.93327,-4.98202 0.005,-1.68371 -0.53574,-2.73131 -1.74715,-3.3837 l -0.86262,-0.46455 0.91019,-1.00746 c 0.76841,-0.85054 0.91003,-1.20311 0.90919,-2.26348 -0.002,-2.63436 -1.88843,-4.07677 -5.40812,-4.13535 -1.02681,-0.0171 -2.32052,0.065 -2.8749,0.18231 -1.83316,0.38808 -4.318191,3.29401 -3.336007,3.90103 0.298677,0.1846 2.616287,0.61098 3.485007,0.64116 0.10965,0.004 0.4073,-0.40979 0.66146,-0.91912 0.3848,-0.77114 0.62385,-0.93952 1.42914,-1.00666 0.76082,-0.0634 1.05705,0.0479 1.38906,0.5219 0.23211,0.33138 0.42202,0.81955 0.42202,1.08483 0,0.7046 -1.19212,1.78118 -1.97235,1.78118 -0.39155,0 -0.67348,0.15068 -0.67348,0.35995 0,0.19797 -0.0722,0.88694 -0.16052,1.53104 l -0.16052,1.17109 1.05725,-0.10082 c 1.37204,-0.13085 2.06122,0.26033 2.43063,1.37965 0.23824,0.72187 0.21851,1.09755 -0.0974,1.85352 -0.78041,1.8678 -2.78333,1.89735 -3.69637,0.0545 l -0.4946,-0.99827 -1.35749,0.16678 c -3.09192,0.37987 -3.101988,0.3875 -2.383909,1.80556 0.795079,1.57012 1.880699,2.41216 3.672259,2.84831 1.19348,0.29055 3.8443,0.27902 4.92592,-0.0214 z M 56.92321,169.26296 v -4.36563 h 2.116667 2.116667 v -2.24896 -2.24895 H 59.039877 56.92321 v -1.85209 -1.85208 h 2.513542 2.513542 V 154.314 151.93275 H 57.849252 53.74821 v 10.84792 10.84791 h 1.5875 1.5875 z m 15.345834,1.71979 v -2.64583 H 69.62321 66.977377 v -8.20209 -8.20208 h -1.5875 -1.5875 v 10.84792 10.84791 h 4.233333 4.233334 z m 4.107071,1.38906 c 0.307367,-2.26239 0.225589,-2.18281 2.242929,-2.18281 2.018765,0 1.945888,-0.0703 2.263928,2.18281 l 0.177406,1.25677 h 1.689748 c 1.136227,0 1.689751,-0.10382 1.689751,-0.31694 0,-0.29765 -3.550293,-19.4968 -3.843285,-20.78358 -0.124674,-0.54756 -0.283688,-0.59531 -1.982589,-0.59531 -1.015873,0 -1.847043,0.10104 -1.847043,0.22452 0,0.21316 -3.531928,19.20996 -3.856717,20.74371 l -0.154078,0.7276 h 1.724602 1.724602 z m 1.184595,-7.35898 c 0,-0.6491 0.819904,-6.02335 0.986386,-6.4655 0.148304,-0.39387 1.080307,4.75662 1.113149,6.15157 0.0159,0.67533 -0.05889,0.7276 -1.041201,0.7276 -0.78345,0 -1.058334,-0.10744 -1.058334,-0.41367 z m 10.877302,1.00898 0.02938,-7.60677 0.906233,7.01146 c 0.498424,3.8563 0.963721,7.27935 1.033989,7.60677 0.109402,0.50978 0.29809,0.59531 1.313341,0.59531 0.652071,0 1.196115,-0.0298 1.208987,-0.0661 0.01286,-0.0364 0.476541,-3.45943 1.030383,-7.60677 l 1.006978,-7.54063 0.02795,7.60677 0.02795,7.60677 h 1.455209 1.455208 v -10.84791 -10.84792 h -2.225701 -2.225702 l -0.157117,0.99219 c -0.08642,0.5457 -0.462307,3.37175 -0.835311,6.28011 -0.597183,4.65627 -0.906169,6.40132 -0.906169,5.11774 0,-0.43825 -1.236504,-10.15562 -1.467173,-11.53014 l -0.144306,-0.8599 H 87.73518 85.49821 v 10.84792 10.84791 h 1.455209 1.455208 z m 14.287128,-0.13229 0.029,-7.73906 0.89609,6.87916 c 1.26414,9.70466 0.96175,8.64162 2.43114,8.54672 l 1.23939,-0.08 0.96646,-7.40833 0.96645,-7.40834 0.0285,7.47448 0.0285,7.47448 h 1.45521 1.45521 V 162.78072 151.9328 h -2.24896 c -1.23693,0 -2.24969,0.0893 -2.25058,0.19844 -0.004,0.50479 -1.5948,12.33409 -1.66846,12.40775 -0.0459,0.0459 -0.41346,-2.56333 -0.81676,-5.79833 -0.4033,-3.235 -0.79068,-6.09018 -0.86084,-6.34484 -0.10782,-0.39134 -0.45249,-0.46302 -2.2264,-0.46302 h -2.09884 v 10.84792 10.84791 h 1.32292 1.32292 z m 14.15542,6.08542 0.23536,-1.65365 1.89476,-0.0773 c 2.1238,-0.0866 1.89175,-0.32194 2.35897,2.39237 l 0.17078,0.99218 h 1.69035 c 0.92969,0 1.68961,-0.0893 1.68871,-0.19843 -8e-4,-0.10914 -0.89387,-4.94911 -1.98438,-10.75549 -1.0905,-5.80637 -1.98273,-10.59864 -1.98273,-10.64948 0,-0.0508 -0.83344,-0.0924 -1.85209,-0.0924 -1.01864,0 -1.85208,0.0416 -1.85208,0.0924 0,0.0508 -0.89223,4.84311 -1.98273,10.64948 -1.09051,5.80638 -1.98348,10.64635 -1.98438,10.75549 -7.9e-4,0.10914 0.75565,0.19843 1.68123,0.19843 h 1.68287 z m 1.18087,-7.40834 c 0.0107,-0.47294 0.22943,-2.11005 0.48604,-3.63802 0.51845,-3.08708 0.56449,-3.04445 1.21117,1.12163 0.54863,3.53443 0.57946,3.37629 -0.65835,3.37629 -1.02162,0 -1.05765,-0.0298 -1.03886,-0.8599 z m 15.71615,8.68512 c 1.37134,-0.57298 2.05908,-2.12929 2.20381,-4.98712 0.14025,-2.76948 -0.25309,-4.42564 -1.29968,-5.47223 -0.71737,-0.71737 -0.7262,-0.75833 -0.25542,-1.18438 1.18073,-1.06854 1.44476,-5.83455 0.4377,-7.90096 -0.75258,-1.54424 -1.45683,-1.77428 -5.43181,-1.77428 h -3.45272 v 10.84792 10.84791 h 3.44808 c 2.38503,0 3.72616,-0.11618 4.35004,-0.37686 z m -4.35854,-6.37001 v -2.24896 l 1.12448,0.004 c 0.61847,0.002 1.26586,0.094 1.43866,0.20382 0.52462,0.33358 0.92115,1.71985 0.75115,2.62604 -0.20119,1.07244 -1.02414,1.664 -2.31483,1.664 l -0.99946,1e-5 z m 0,-8.46667 v -1.98437 h 1.03944 c 1.33336,0 1.87098,0.54261 1.87098,1.88837 0,1.65706 -0.35184,2.08038 -1.7291,2.08038 h -1.18132 z m 16.93334,12.56771 v -2.64583 h -2.51354 -2.51355 v -8.20209 -8.20208 h -1.71979 -1.71979 v 10.84792 10.84791 h 4.23333 4.23334 z m 10.84791,0.26458 v -2.38125 h -2.91041 -2.91042 v -2.10708 -2.10709 l 2.57969,-0.0757 2.57969,-0.0757 0.0768,-2.18281 0.0769,-2.18282 h -2.65654 -2.65653 v -1.71979 -1.71979 h 2.77813 2.77812 v -2.38125 -2.38125 h -4.49792 -4.49791 v 10.84792 10.84791 h 4.63021 4.6302 z m -38.62916,-25.4 v -0.79375 H 105.20967 91.84821 v 0.79375 0.79375 h 13.36146 13.36146 z m -17.291,-2.54648 c -0.38192,-0.38192 -0.88793,-1.36419 -1.12448,-2.18281 -0.87404,-3.02487 -1.277963,-3.88221 -2.388295,-5.06925 l -1.136007,-1.21448 1.883534,0.61405 c 1.035944,0.33772 1.919418,0.57816 1.963268,0.53431 0.18964,-0.18964 -0.787698,-3.33022 -1.355782,-4.35669 -0.792758,-1.43244 -0.357052,-1.46809 0.59971,-0.0491 0.398802,0.59148 0.989222,1.39515 1.312042,1.78594 l 0.58695,0.71052 0.008,-0.81427 c 0.005,-0.44786 -0.28929,-1.54682 -0.65309,-2.44214 -0.36381,-0.89533 -0.6603,-2.01718 -0.65888,-2.49302 0.003,-0.85544 0.01,-0.85031 0.66012,0.45777 0.36165,0.7276 1.06949,1.83114 1.57298,2.45231 0.88028,1.08602 0.9269,1.10798 1.2138,0.57191 0.21923,-0.40964 0.22284,-1.25161 0.0136,-3.17477 -0.31475,-2.89327 -0.0649,-4.83688 0.75119,-5.84477 0.45578,-0.56286 0.47141,-0.50779 0.61889,2.17977 0.0832,1.51647 0.32609,3.59065 0.53972,4.6093 0.21363,1.01864 0.47077,2.32009 0.57143,2.89211 0.29455,1.67388 0.66138,0.59369 0.66767,-1.96607 0.003,-1.23693 0.14799,-2.72521 0.32212,-3.30729 l 0.31659,-1.05834 0.18493,1.45521 c 0.28428,2.23694 0.26797,6.22965 -0.0288,7.06038 -0.24787,0.69372 -0.23886,0.70968 0.13128,0.23262 0.21858,-0.28172 0.69451,-1.47235 1.05762,-2.64584 0.90177,-2.91425 1.18474,-3.2825 1.18984,-1.54838 0.003,1.15843 -0.55292,3.36974 -1.45029,5.76476 -0.17057,0.45523 -0.13603,0.44578 0.24722,-0.0677 0.60059,-0.80461 1.78995,-1.38755 2.83098,-1.38755 h 0.85639 l -0.66885,0.7276 c -1.05643,1.14923 -1.72157,2.41931 -2.46016,4.69765 -0.37717,1.16345 -0.93837,2.46109 -1.24712,2.88365 l -0.56135,0.76827 0.89788,-0.17485 c 1.63865,-0.3191 4.10055,-1.72413 5.33674,-3.04571 1.49762,-1.60108 2.52448,-3.61143 4.17589,-8.17539 1.87712,-5.18776 3.14015,-7.10936 5.59398,-8.5108 1.14333,-0.65298 1.23787,-0.77347 0.85577,-1.09059 -1.34618,-1.11723 -3.93582,0.20129 -6.2881,3.20158 -0.89795,1.14532 -1.66765,1.92679 -1.71043,1.73659 -0.0428,-0.19019 0.25139,-1.28666 0.65371,-2.43659 0.6454,-1.84469 0.73042,-2.46451 0.7223,-5.26579 -0.007,-2.29222 -0.12804,-3.46926 -0.43663,-4.23333 l -0.42743,-1.05834 -0.0186,2.06168 c -0.0345,3.81004 -1.1196,7.56867 -2.45522,8.50417 -0.85446,0.59849 -1.35878,0.54996 -1.01231,-0.0974 0.47836,-0.89383 0.30043,-2.53894 -0.68029,-6.28987 -1.37386,-5.25452 -1.66859,-6.65967 -1.70893,-8.14732 l -0.0359,-1.32291 -0.24933,1.05833 c -0.15992,0.67883 -0.15039,2.0473 0.0266,3.81627 0.39859,3.98429 0.35577,6.13842 -0.13597,6.84048 -0.65429,0.93414 -0.89832,0.69116 -0.73035,-0.72716 0.23274,-1.96507 -0.30808,-4.14399 -2.04471,-8.23793 -0.86009,-2.02758 -1.74504,-4.38595 -1.96655,-5.24082 -0.50125,-1.93439 -0.51268,-4.74564 -0.0267,-6.57115 0.20338,-0.763987 0.32489,-1.389065 0.27001,-1.389065 -0.0549,0 -0.57968,0.63564 -1.16624,1.412535 -1.76788,2.34153 -2.13672,3.80978 -2.40351,9.56767 -0.22682,4.89521 -0.61394,7.29074 -1.42477,8.81671 l -0.37635,0.70829 -1.091888,-2.31931 c -1.249122,-2.65331 -1.835288,-5.07276 -1.873936,-7.73485 l -0.02689,-1.85209 -0.564557,1.19063 c -0.527129,1.11169 -0.56003,1.54761 -0.496274,6.5753 0.06379,5.03055 0.03123,5.4612 -0.495083,6.54843 -0.309853,0.64007 -0.663704,1.16377 -0.786333,1.16377 -0.356675,0 -1.214639,-1.36356 -1.58155,-2.51354 -0.606951,-1.90234 -1.785292,-3.94866 -2.887594,-5.01464 -0.594836,-0.57523 -1.081521,-0.91684 -1.081521,-0.75913 0,0.60449 1.925794,9.27074 2.395445,10.77973 0.271473,0.87225 0.446161,1.63333 0.388199,1.6913 -0.05796,0.058 -1.40312,-1.12755 -2.989233,-2.63448 -1.586111,-1.50693 -3.290049,-2.97194 -3.786521,-3.25559 -0.854345,-0.4881 -0.828953,-0.43288 0.474199,1.03134 1.683351,1.8914 2.995367,4.4917 3.945068,7.81876 1.680546,5.88742 3.834021,9.58909 6.81224,11.70977 0.946761,0.67416 3.558329,1.76912 4.239909,1.7777 0.43821,0.006 0.41438,-0.0785 -0.1953,-0.68812 z"
         id="path403"
         inkscape:connector-curvature="0" />
      <path
         style="fill:#e9867e;stroke-width:0.26458335"
         d="m 65.439804,200.2541 -39.50276,-39.19323 34.212353,-34.0658 C 78.966193,108.25888 96.803073,90.56243 99.786912,87.669636 l 5.425158,-5.259627 39.50155,39.193141 39.50156,39.19314 -34.47567,34.3304 c -18.96162,18.88172 -36.79796,36.57821 -39.63631,39.32552 l -5.16063,4.99511 z m 74.298116,-4.79752 34.52749,-34.52825 -34.59402,-34.59402 -34.59401,-34.594017 -34.59402,34.594017 -34.594018,34.59402 34.527491,34.52825 c 18.99012,18.99054 34.587367,34.52825 34.660547,34.52825 0.0732,0 15.67042,-15.53771 34.66054,-34.52825 z m -68.51828,-0.78469 -33.724666,-33.72544 33.789791,-33.80946 33.789785,-33.80945 33.79558,33.80649 33.79558,33.80648 -33.72763,33.72841 c -18.5502,18.55063 -33.78751,33.72841 -33.8607,33.72841 -0.0732,0 -15.309173,-15.17645 -33.85774,-33.72544 z m 37.32922,22.20482 c 3.88088,-1.36926 4.91477,-6.93171 1.54763,-8.32643 l -0.81545,-0.33777 0.80093,-0.82634 c 1.11947,-1.155 1.44971,-2.22513 1.09417,-3.54553 -0.54202,-2.01289 -2.77084,-3.22456 -5.93147,-3.22456 -2.70451,0 -5.259948,1.46446 -5.935122,3.40127 -0.321824,0.92319 -0.370801,0.89291 2.178402,1.34648 2.03772,0.36257 2.00193,0.36703 2.00193,-0.24983 0,-1.24506 1.7114,-2.00335 2.77165,-1.22808 1.16855,0.85447 0.21658,3.08016 -1.31745,3.08016 -0.718,0 -0.92504,0.44335 -0.92504,1.98084 v 1.14381 l 1.06885,-0.14336 c 1.47504,-0.19785 2.37074,0.62025 2.37074,2.16534 0,1.55263 -0.57944,2.26171 -1.84819,2.26171 -1.13075,0 -1.76475,-0.47043 -2.02352,-1.50146 -0.16718,-0.66608 -0.18223,-0.66941 -2.18321,-0.48402 -2.685731,0.24883 -2.736293,0.2895 -2.081714,1.67421 0.595165,1.25902 1.841234,2.3856 3.172754,2.8685 1.26071,0.45722 4.6907,0.42609 6.05411,-0.0549 z m -51.420815,-47.54761 0.07254,-4.43177 h 1.977977 1.977978 v -2.24896 -2.24895 H 59.172165 57.18779 v -1.85209 -1.85208 h 2.38125 2.38125 v -2.38125 -2.38125 h -4.23333 -4.233333 v 10.80382 c 0,5.9421 0.08441,10.88823 0.187579,10.9914 0.103169,0.10317 0.906841,0.15277 1.785937,0.11024 l 1.598359,-0.0773 z m 15.140999,1.78594 v -2.77812 H 69.755502 67.24196 v -8.20209 -8.20208 h -1.719791 -1.719792 v 10.98021 10.98021 h 4.233333 4.233334 z m 4.091948,1.65365 c 0.421727,-2.79431 0.233867,-2.57969 2.258052,-2.57969 2.024184,0 1.836324,-0.21462 2.258052,2.57969 l 0.169711,1.12448 h 1.68092 c 0.924507,0 1.728716,-0.0893 1.787133,-0.19844 0.05841,-0.10914 -0.804315,-5.02047 -1.917179,-10.91406 l -2.023388,-10.71563 -1.882589,-0.0773 -1.88259,-0.0773 -0.281617,1.40023 c -0.620284,3.0841 -3.729287,19.98613 -3.729287,20.27418 0,0.20267 0.581406,0.30834 1.696535,0.30834 h 1.696535 z m 1.296458,-8.33438 c 0.09129,-0.5457 0.306901,-2.03398 0.479139,-3.30729 0.172239,-1.27331 0.388872,-2.3151 0.481407,-2.3151 0.146934,0 1.059381,5.41586 1.059381,6.288 0,0.20635 -0.402381,0.32658 -1.092951,0.32658 h -1.092952 z m 10.813203,1.98438 0.07027,-7.47448 0.874159,7.01146 c 0.480788,3.8563 0.937236,7.22593 1.014331,7.48807 0.113739,0.38674 0.371842,0.46158 1.368724,0.39687 l 1.228553,-0.0797 0.969073,-7.40833 0.969076,-7.40833 0.02919,7.4883 0.02919,7.48831 1.389063,-0.08 1.389062,-0.08 0.06908,-10.91406 0.06908,-10.91406 h -2.246852 c -2.11631,0 -2.254181,0.0346 -2.372982,0.59531 -0.06937,0.32742 -0.441211,3.09563 -0.82631,6.15156 -0.385101,3.05594 -0.727035,5.58557 -0.759854,5.6214 -0.03282,0.0358 -0.410369,-2.70261 -0.839001,-6.08542 l -0.779328,-6.15056 -2.308482,-0.0764 -2.308479,-0.0764 v 10.81412 c 0,5.94777 0.07937,10.89349 0.17639,10.99051 0.09701,0.097 0.750004,0.17639 1.451086,0.17639 h 1.274699 z m 14.287557,-0.13229 0.0702,-7.60678 0.88309,7.14375 c 0.4857,3.92907 0.94214,7.35823 1.01433,7.62037 0.10685,0.38804 0.36067,0.46179 1.36587,0.39687 l 1.23463,-0.0797 0.96199,-7.27604 0.96199,-7.27604 0.0963,7.27604 0.0963,7.27604 h 1.32292 1.32292 l 0.0691,-10.91406 0.0691,-10.91406 h -2.23991 -2.2399 l -0.14457,0.8599 c -0.0795,0.47294 -0.4507,3.23982 -0.82486,6.14863 -0.37416,2.90881 -0.70934,5.31779 -0.74484,5.35329 -0.0355,0.0355 -0.41001,-2.73138 -0.83222,-6.14863 l -0.76767,-6.21319 h -2.32366 -2.32366 v 10.80382 c 0,5.9421 0.07937,10.88319 0.17639,10.98021 0.09701,0.097 0.75003,0.17639 1.45115,0.17639 h 1.27476 z m 14.04678,6.28385 c 0.48168,-2.62277 0.25072,-2.38125 2.27709,-2.38125 h 1.82378 l 0.16971,1.12448 c 0.41995,2.7825 0.25117,2.57969 2.14679,2.57969 1.476,0 1.69877,-0.0641 1.69877,-0.48911 0,-0.43292 -3.48071,-19.36539 -3.83802,-20.876 -0.12936,-0.54687 -0.2907,-0.59531 -1.98282,-0.59531 -1.69211,0 -1.85346,0.0484 -1.98281,0.59531 -0.36353,1.53687 -3.83802,20.44699 -3.83802,20.88863 0,0.44746 0.17883,0.49321 1.65343,0.42296 l 1.65344,-0.0788 z m 1.2541,-7.73906 c 0.009,-0.32742 0.22946,-1.905 0.48897,-3.50573 0.33403,-2.0604 0.52242,-2.71723 0.64505,-2.24896 0.14804,0.5653 0.96552,5.8282 0.96552,6.21597 0,0.0737 -0.47625,0.13403 -1.05834,0.13403 -0.92622,0 -1.05619,-0.0743 -1.0412,-0.59531 z m 14.79954,8.77479 c 0.65484,-0.15083 1.45462,-0.52221 1.77729,-0.82528 1.9788,-1.85861 2.00169,-8.08124 0.0374,-10.17211 l -0.54128,-0.57617 0.55084,-0.75035 c 1.57015,-2.13887 1.15556,-7.36549 -0.70004,-8.82511 -0.59155,-0.46531 -1.07861,-0.52421 -4.33491,-0.52421 h -3.66849 v 10.80382 c 0,5.9421 0.0794,10.88319 0.17639,10.98021 0.27763,0.27763 5.38283,0.19324 6.70278,-0.1108 z m -3.43959,-6.85656 v -2.11667 h 1.14962 c 1.46701,0 2.02538,0.57584 2.02538,2.08875 0,1.76745 -0.32733,2.14458 -1.86139,2.14458 h -1.31361 z m 0,-8.33438 v -1.98437 h 1.05224 c 1.38055,0 1.99333,0.83479 1.78004,2.42496 -0.17049,1.27113 -0.48489,1.5342 -1.84009,1.53974 l -0.99219,0.004 z m 17.14103,12.63386 0.0754,-2.71198 h -2.65509 -2.65509 v -8.20209 -8.20208 h -1.71979 -1.71979 v 10.98676 10.98676 l 4.29948,-0.0727 4.29948,-0.0727 z m 10.64022,0.19843 v -2.64583 h -2.91041 -2.91042 v -1.98438 -1.98437 h 2.64583 2.64584 v -2.24896 -2.24896 h -2.64584 -2.64583 v -1.71979 -1.71979 h 2.77813 2.77812 v -2.38125 -2.38125 h -4.49792 -4.49791 v 10.98021 10.98021 h 4.63021 4.6302 z m -38.62916,-25.4 v -0.79375 H 105.20967 91.84821 v 0.79375 0.79375 h 13.36146 13.36146 z m -13.16302,-1.50964 c -0.32743,-0.0631 -0.86321,-0.0631 -1.19063,0 -0.32742,0.0631 -0.0595,0.11466 0.59531,0.11466 0.65485,0 0.92274,-0.0516 0.59532,-0.11466 z m -3.16979,-0.47013 c -0.97289,-0.42294 -1.80781,-1.63269 -2.19444,-3.1796 -0.653973,-2.61656 -0.863663,-3.07037 -2.005549,-4.34043 -0.666642,-0.74146 -1.156478,-1.34811 -1.088531,-1.34811 0.06795,0 0.584999,0.16044 1.148998,0.35655 0.563999,0.1961 1.350219,0.43583 1.747155,0.53272 0.696147,0.16994 0.715747,0.1456 0.553487,-0.68728 -0.28804,-1.47853 -1.127201,-3.71486 -1.582938,-4.21844 -0.239646,-0.26481 -0.316661,-0.48147 -0.171141,-0.48147 0.359045,0 0.911543,0.68205 1.768199,2.18281 0.39455,0.69123 0.83142,1.25677 0.9708,1.25677 0.45298,0 0.26838,-1.48479 -0.40802,-3.28183 -0.36381,-0.96653 -0.65392,-2.0225 -0.64469,-2.3466 l 0.0168,-0.58928 0.24687,0.61581 c 0.13578,0.33869 0.8082,1.37421 1.49427,2.30116 1.77685,2.40068 1.98133,2.11155 1.76163,-2.49088 -0.16526,-3.4619 -0.14684,-3.65423 0.45915,-4.79446 l 0.63131,-1.18788 0.16142,2.77813 c 0.13627,2.34543 0.79368,6.78357 1.21495,8.20208 0.26275,0.88473 0.54673,-0.45644 0.6799,-3.21095 0.0748,-1.54775 0.25247,-3.02213 0.39477,-3.2764 0.37947,-0.67808 0.70795,6.01855 0.36868,7.51639 -0.42904,1.89417 0.31047,0.78303 1.1251,-1.6905 0.98803,-3.00006 1.29401,-3.31869 1.12131,-1.16768 -0.077,0.9585 -0.44542,2.55437 -0.81881,3.54638 -0.66056,1.75495 -0.7486,2.58963 -0.15643,1.48316 0.36483,-0.68168 1.61407,-1.34831 2.52671,-1.34831 h 0.6873 l -0.77025,1.12447 c -1.07349,1.56717 -1.79138,3.03939 -2.16177,4.43326 -0.52548,1.97753 -1.10031,2.94974 -1.96728,3.32724 -1.13095,0.49245 -0.27823,0.46254 1.45242,-0.0509 2.20159,-0.65321 3.69913,-1.52208 5.0418,-2.92524 1.67089,-1.74617 2.41569,-3.13638 3.94575,-7.36499 2.20078,-6.08224 3.64796,-8.29152 6.23571,-9.51949 1.10831,-0.52593 1.12688,-0.77165 0.0907,-1.20082 -1.69448,-0.70188 -4.31298,0.95979 -6.48724,4.11672 -0.56387,0.81872 -1.06809,1.35997 -1.12049,1.20279 -0.0524,-0.15719 0.24201,-1.26827 0.65423,-2.46909 0.65291,-1.90197 0.74949,-2.57535 0.74949,-5.226 0,-1.9322 -0.13988,-3.47725 -0.38326,-4.23333 l -0.38325,-1.19063 -0.19252,2.69543 c -0.30622,4.28732 -1.2944,7.31459 -2.6191,8.02355 -0.80111,0.42874 -1.1086,0.33206 -0.7968,-0.25054 0.52745,-0.98556 0.26398,-3.12406 -0.92045,-7.47105 -0.65688,-2.41084 -1.29059,-5.26213 -1.40824,-6.3362 -0.20709,-1.89069 -0.22084,-1.91968 -0.43194,-0.91094 -0.12697,0.60676 -0.0901,2.3748 0.0884,4.23333 0.41056,4.27661 0.38538,5.73037 -0.11155,6.43984 -0.6497,0.92757 -0.78504,0.71079 -0.6911,-1.10697 0.11356,-2.19746 -0.39623,-4.1303 -2.18964,-8.30185 -1.94618,-4.52693 -2.36897,-6.25599 -2.18212,-8.92425 0.0817,-1.16603 0.27863,-2.46247 0.43774,-2.88096 0.45996,-1.209764 0.13746,-1.097895 -1.0063,0.34908 -1.78443,2.25747 -2.17175,3.70465 -2.44886,9.14987 -0.26594,5.22564 -0.55454,7.25218 -1.27319,8.9405 l -0.47405,1.11366 -0.975003,-2.10787 c -1.313082,-2.83877 -1.725697,-4.36534 -1.976212,-7.31143 l -0.211471,-2.48695 -0.508392,1.05834 c -0.452834,0.94267 -0.508442,1.67999 -0.508854,6.74687 -2.65e-4,4.5426 -0.08082,5.84779 -0.399354,6.47906 -0.797915,1.5813 -1.601859,0.92406 -2.662603,-2.17671 -0.626518,-1.83145 -2.04207,-3.96595 -3.195807,-4.81895 -0.62493,-0.46203 -0.799177,-0.51151 -0.676616,-0.19212 0.09079,0.23659 0.593053,2.46707 1.116142,4.95663 0.523092,2.48955 1.170392,5.23113 1.43845,6.0924 0.268057,0.86127 0.431188,1.56594 0.362518,1.56594 -0.06867,0 -1.410739,-1.23951 -2.982372,-2.75447 -1.571633,-1.51497 -3.255127,-2.96009 -3.741098,-3.2114 -0.866055,-0.44786 -0.858483,-0.429 0.381762,0.95045 1.559732,1.7348 3.328803,5.36572 4.248391,8.71959 1.913126,6.97744 5.375212,11.25545 10.181249,12.58071 1.70193,0.4693 2.51204,0.46453 1.42419,-0.008 z"
         id="path401"
         inkscape:connector-curvature="0" />
      <path
         style="fill:#e6776e;stroke-width:0.26458335"
         d="M 65.440513,200.25364 25.937502,161.06087 60.149627,126.99532 C 78.966296,108.25927 96.803073,90.562824 99.786912,87.66989 l 5.425158,-5.259881 39.50155,39.193141 39.50156,39.19314 -34.47567,34.3304 c -18.96162,18.88172 -36.79775,36.578 -39.63583,39.32506 l -5.16016,4.99465 z m 74.297407,-4.79706 34.52749,-34.52825 -34.59402,-34.59402 -34.59401,-34.594017 -34.59402,34.594017 -34.594018,34.59402 34.527491,34.52825 c 18.99012,18.99054 34.587367,34.52825 34.660547,34.52825 0.0732,0 15.67042,-15.53771 34.66054,-34.52825 z m -68.51828,-0.78469 -33.724666,-33.72544 33.790267,-33.80946 33.790269,-33.80945 33.7941,33.80748 33.79411,33.80748 -33.72663,33.72742 c -18.54966,18.55008 -33.78652,33.72741 -33.85971,33.72741 -0.0732,0 -15.309173,-15.17645 -33.85774,-33.72544 z m 37.16416,22.31643 c 1.43693,-0.39892 3.16722,-2.16622 3.56418,-3.64044 0.58022,-2.15478 -0.17022,-4.10119 -1.84939,-4.79673 l -0.81755,-0.33864 0.80093,-0.82634 c 2.40329,-2.47957 1.12893,-5.754 -2.53544,-6.51472 -3.17618,-0.65937 -6.39701,0.20474 -7.590193,2.03635 -1.175117,1.80389 -1.088771,2.00507 1.020003,2.37657 2.5168,0.44338 2.42747,0.45839 2.60673,-0.43788 0.29653,-1.48266 2.56032,-1.76555 3.08502,-0.38551 0.43587,1.14645 -0.6335,2.5051 -1.97173,2.5051 -0.47393,0 -0.67732,0.59481 -0.67732,1.98084 v 1.14381 l 0.99219,-0.13231 c 1.50465,-0.20064 2.4474,0.6415 2.4474,2.18624 0,1.4663 -0.67297,2.22976 -1.96548,2.22976 -1.01652,0 -1.65576,-0.5035 -1.90623,-1.50146 -0.16718,-0.66608 -0.18223,-0.66941 -2.18321,-0.48402 -2.710062,0.25109 -2.785312,0.30811 -2.136721,1.61903 0.691148,1.39693 1.735021,2.37724 3.040141,2.85502 1.26406,0.46276 4.61246,0.53181 6.07667,0.12533 z m -51.255755,-47.65922 0.07254,-4.43177 h 1.977977 1.977978 v -2.24896 -2.24895 H 59.172165 57.18779 v -1.85209 -1.85208 h 2.38125 2.38125 v -2.38125 -2.38125 h -4.23333 -4.233333 v 10.80382 c 0,5.9421 0.08441,10.88823 0.187579,10.9914 0.103169,0.10317 0.906841,0.15277 1.785937,0.11024 l 1.598359,-0.0773 z m 15.140999,1.78594 v -2.77812 H 69.755502 67.24196 v -8.20209 -8.20208 h -1.719791 -1.719792 v 10.98021 10.98021 h 4.233333 4.233334 z m 4.233333,0.92604 0.312394,-1.85208 h 1.807157 c 2.020853,0 1.833485,-0.21433 2.255168,2.57969 l 0.169711,1.12448 h 1.68092 c 0.924507,0 1.728083,-0.0893 1.785731,-0.19844 0.05764,-0.10914 -0.802527,-5.02047 -1.911491,-10.91406 l -2.016299,-10.71563 -1.888279,-0.0773 -1.888275,-0.0773 -0.280318,1.40023 c -0.750279,3.74777 -3.730586,19.90041 -3.730586,20.21899 0,0.2705 0.433962,0.36353 1.695887,0.36353 h 1.695886 z m 1.058333,-6.86857 c 0,-0.53411 0.834734,-5.71836 0.981541,-6.09601 0.08486,-0.21828 0.36726,0.91281 0.62757,2.51354 0.660358,4.06073 0.692555,3.83646 -0.550777,3.83646 -0.582084,0 -1.058334,-0.11429 -1.058334,-0.25399 z m 10.909943,1.24618 0.07027,-7.47448 0.932505,7.40833 0.932508,7.40833 h 1.31245 1.31245 l 0.967674,-7.40833 0.967676,-7.40833 0.02851,7.4883 0.02851,7.48831 1.389063,-0.08 1.389062,-0.08 0.06908,-10.91406 0.06908,-10.91406 h -2.246852 c -2.115828,0 -2.254303,0.0347 -2.374609,0.59531 -0.07027,0.32742 -0.443053,3.09563 -0.828418,6.15156 -0.385366,3.05594 -0.725319,5.58432 -0.755452,5.61862 -0.03013,0.0343 -0.405609,-2.70414 -0.834393,-6.08542 l -0.779605,-6.14778 -2.310979,-0.0764 -2.31098,-0.0764 v 10.81412 c 0,5.94777 0.07937,10.89349 0.17639,10.99051 0.09701,0.097 0.750004,0.17639 1.451086,0.17639 h 1.274699 z m 14.254857,-0.13229 0.0294,-7.60678 0.90623,7.01146 c 0.49842,3.85631 0.96372,7.27935 1.03399,7.60677 0.10909,0.50835 0.29867,0.59532 1.29773,0.59532 0.64348,0 1.22215,-0.0893 1.28593,-0.19844 0.0638,-0.10914 0.5173,-3.39907 1.00781,-7.31097 l 0.89183,-7.11252 0.13229,7.24482 0.13229,7.24481 h 1.32292 1.32292 l 0.0691,-10.91406 0.0691,-10.91406 h -2.23087 c -2.63691,0 -2.22098,-0.89155 -3.20715,6.87457 -0.37849,2.98064 -0.71459,5.44578 -0.74688,5.47807 -0.0323,0.0323 -0.4063,-2.73384 -0.83112,-6.14696 l -0.77241,-6.20568 h -2.32643 -2.32643 v 10.80382 c 0,5.9421 0.07937,10.88319 0.17639,10.98021 0.09701,0.097 0.75186,0.17639 1.45521,0.17639 h 1.27882 z m 14.07948,6.28385 c 0.48168,-2.62277 0.25072,-2.38125 2.27709,-2.38125 h 1.82378 l 0.16971,1.12448 c 0.41995,2.7825 0.25117,2.57969 2.14679,2.57969 1.476,0 1.69877,-0.0641 1.69877,-0.48911 0,-0.43292 -3.48071,-19.36539 -3.83802,-20.876 -0.12936,-0.54687 -0.2907,-0.59531 -1.98282,-0.59531 -1.69211,0 -1.85346,0.0484 -1.98281,0.59531 -0.36353,1.53687 -3.83802,20.44699 -3.83802,20.88863 0,0.44746 0.17883,0.49321 1.65343,0.42296 l 1.65344,-0.0788 z m 1.24721,-7.60677 c 0.006,-0.25466 0.22648,-1.83224 0.49078,-3.50573 0.32455,-2.05503 0.53311,-2.82799 0.64249,-2.38125 0.15428,0.6301 0.97316,5.83299 0.97316,6.18313 0,0.0918 -0.47625,0.16687 -1.05834,0.16687 -0.83544,0 -1.05617,-0.0975 -1.04809,-0.46302 z m 14.80643,8.6425 c 0.65484,-0.15083 1.45462,-0.52221 1.77729,-0.82528 1.98268,-1.86225 2.00143,-8.08151 0.0307,-10.17927 l -0.54801,-0.58332 0.54522,-0.69313 c 1.62061,-2.06028 1.21221,-7.37885 -0.68096,-8.86802 -0.59155,-0.46531 -1.07861,-0.52421 -4.33491,-0.52421 h -3.66849 v 10.80382 c 0,5.9421 0.0794,10.88319 0.17639,10.98021 0.27763,0.27763 5.38283,0.19324 6.70278,-0.1108 z m -3.38457,-6.79042 0.0773,-2.05052 1.01814,-0.0837 c 1.41383,-0.11618 2.02456,0.48537 2.02456,1.99415 0,1.81873 -0.31784,2.19055 -1.87252,2.19055 h -1.32474 z m -0.055,-8.40052 v -1.98437 h 1.04334 c 1.21717,0 1.86708,0.69074 1.86708,1.98437 0,1.29363 -0.64991,1.98438 -1.86708,1.98438 h -1.04334 z m 17.14103,12.63386 0.0754,-2.71198 h -2.65509 -2.65509 v -8.20209 -8.20208 h -1.71979 -1.71979 v 10.98676 10.98676 l 4.29948,-0.0727 4.29948,-0.0727 z m 10.64022,0.19843 v -2.64583 h -2.91041 -2.91042 v -1.98438 -1.98437 h 2.64583 2.64584 v -2.24896 -2.24896 h -2.64584 -2.64583 v -1.71979 -1.71979 h 2.77813 2.77812 v -2.38125 -2.38125 h -4.49792 -4.49791 v 10.98021 10.98021 h 4.63021 4.6302 z m -38.62916,-25.4 v -0.79375 H 105.20967 91.84821 v 0.79375 0.79375 h 13.36146 13.36146 z m -13.16302,-1.50964 c -0.32743,-0.0631 -0.86321,-0.0631 -1.19063,0 -0.32742,0.0631 -0.0595,0.11466 0.59531,0.11466 0.65485,0 0.92274,-0.0516 0.59532,-0.11466 z m -2.89378,-0.36956 c -1.39557,-0.40377 -1.90737,-1.3016 -2.982339,-5.23178 -0.198081,-0.72421 -0.779666,-1.65811 -1.55284,-2.49353 -0.75842,-0.81948 -1.031645,-1.25525 -0.706982,-1.12758 0.883433,0.3474 3.144471,0.92894 3.240061,0.83335 0.22678,-0.22678 -0.865349,-3.72574 -1.416349,-4.53768 -0.339426,-0.50018 -0.497353,-0.90941 -0.350949,-0.90941 0.146405,0 0.751427,0.77391 1.344498,1.71979 0.59307,0.94589 1.18407,1.71979 1.31333,1.71979 0.4359,0 0.23928,-1.51322 -0.42642,-3.28183 -0.36381,-0.96653 -0.65392,-2.0225 -0.64469,-2.3466 l 0.0168,-0.58928 0.24687,0.61581 c 0.13578,0.33869 0.8082,1.37421 1.49427,2.30116 1.77685,2.40068 1.98133,2.11155 1.76163,-2.49088 -0.16526,-3.4619 -0.14684,-3.65423 0.45915,-4.79446 l 0.63131,-1.18788 0.16327,2.77813 c 0.14069,2.39385 0.81104,6.97169 1.19998,8.19467 0.27268,0.85739 0.61651,-0.41413 0.62051,-2.29467 0.002,-1.04786 0.14901,-2.53614 0.32618,-3.30729 l 0.32213,-1.40209 0.23218,3.29132 c 0.14453,2.04884 0.13544,3.78054 -0.0241,4.58727 -0.38562,1.95028 0.2474,1.07431 1.10463,-1.52859 0.38341,-1.16416 0.82359,-2.29526 0.97819,-2.51354 0.50118,-0.7076 0.0794,2.64922 -0.5486,4.36563 -0.31942,0.87312 -0.63873,1.82562 -0.70957,2.11666 -0.12641,0.51936 -0.12115,0.51975 0.28358,0.0212 0.67293,-0.82886 1.82352,-1.47283 2.63487,-1.47469 l 0.759,-0.002 -0.65532,0.85989 c -0.90667,1.1897 -1.9389,3.28585 -2.31488,4.70079 -0.52008,1.95728 -1.1023,2.9469 -1.96648,3.34251 l -0.81467,0.37294 1.19063,-0.16324 c 2.07529,-0.28454 4.60819,-1.62723 6.18176,-3.27696 1.70504,-1.78755 2.35467,-3.01309 3.98995,-7.52714 0.67962,-1.87605 1.5927,-4.11827 2.02907,-4.98269 0.91639,-1.81537 2.57841,-3.58243 4.00495,-4.25808 1.20313,-0.56984 1.23849,-0.80805 0.18473,-1.24453 -1.68497,-0.69794 -3.88972,0.66145 -6.35543,3.91859 -0.71708,0.94724 -1.30378,1.54675 -1.30378,1.33226 0,-0.2145 0.32002,-1.27405 0.71115,-2.35456 0.63135,-1.74413 0.71234,-2.35053 0.72175,-5.40416 0.008,-2.6588 -0.0883,-3.64979 -0.42498,-4.36562 l -0.43559,-0.92605 -0.0268,1.5875 c -0.0344,2.03538 -0.41877,4.65654 -0.93724,6.39122 -0.37975,1.27073 -1.63365,3.00161 -2.17435,3.00161 -0.13041,0 -0.18892,-0.75692 -0.13001,-1.68205 0.0865,-1.35846 -0.097,-2.44006 -0.95378,-5.62239 -1.39775,-5.19154 -1.74154,-7.02342 -1.56504,-8.33926 0.11161,-0.83213 0.073,-1.01603 -0.16377,-0.77934 -0.36413,0.36405 -0.39832,3.24661 -0.0928,7.82408 0.16314,2.44441 0.13211,3.3224 -0.13486,3.81557 -0.64495,1.1914 -0.87925,0.88594 -0.78842,-1.02788 0.10643,-2.24268 -0.29731,-3.73855 -2.21638,-8.21164 -2.20535,-5.14039 -2.63324,-7.67186 -1.85561,-10.97803 0.20508,-0.87193 0.33259,-1.625603 0.28335,-1.67484 -0.0492,-0.04924 -0.56743,0.515081 -1.15154,1.25404 -1.75979,2.22629 -2.18322,3.7448 -2.44079,8.75299 -0.12348,2.4011 -0.29344,4.96094 -0.37768,5.68854 -0.14561,1.25768 -1.12036,4.63021 -1.33825,4.63021 -0.23904,0 -2.040096,-4.22819 -2.41057,-5.65908 -0.221867,-0.85693 -0.490472,-2.58333 -0.596898,-3.83646 l -0.193505,-2.27842 -0.509403,1.05834 c -0.457202,0.94988 -0.502552,1.58385 -0.442563,6.18686 0.06618,5.07773 -0.09791,6.57319 -0.831281,7.57613 -0.364249,0.49814 -0.397941,0.49979 -0.901615,0.044 -0.287775,-0.26043 -0.898904,-1.46888 -1.358064,-2.68545 -0.850231,-2.25271 -1.929038,-3.86846 -3.291618,-4.9299 -0.697653,-0.54347 -0.746556,-0.55034 -0.600644,-0.0843 0.08736,0.27901 0.589161,2.52697 1.115102,4.99546 0.525944,2.46848 1.172472,5.18284 1.43673,6.0319 0.577599,1.85583 0.691626,1.91618 -2.931983,-1.55178 -1.393716,-1.33385 -2.933507,-2.63176 -3.421755,-2.88424 -0.886315,-0.45833 -0.885759,-0.45682 0.35021,0.95609 1.499076,1.71367 2.850073,4.22505 3.614044,6.7182 1.384012,4.51661 1.725049,5.42669 2.871264,7.66217 2.223881,4.33728 6.143794,7.2212 9.835899,7.23635 0.57168,0.002 0.54701,-0.0304 -0.1818,-0.24126 z"
         id="path399"
         inkscape:connector-curvature="0" />
      <path
         style="fill:#e0544a;stroke-width:0.26458335"
         d="M 65.470059,200.24984 25.995035,161.06087 50.38881,136.78468 c 13.416575,-13.3519 31.239869,-31.04666 39.607317,-39.321678 l 15.213543,-15.045491 39.47326,39.189389 39.47326,39.18939 -24.6566,24.54077 c -13.56112,13.49743 -31.38362,31.19199 -39.60555,39.32126 l -14.94895,14.78049 z m 74.267861,-4.79326 34.52749,-34.52825 -34.59402,-34.59402 -34.59401,-34.594017 -34.59402,34.594017 -34.594018,34.59402 34.527491,34.52825 c 18.99012,18.99054 34.587367,34.52825 34.660547,34.52825 0.0732,0 15.67042,-15.53771 34.66054,-34.52825 z m -68.395048,-0.92604 -33.601433,-33.60222 33.667968,-33.66797 33.667973,-33.667967 33.66797,33.667967 33.66796,33.66797 -33.60143,33.60222 c -18.48078,18.48122 -33.66131,33.60221 -33.7345,33.60221 -0.0732,0 -15.253722,-15.12099 -33.734508,-33.60221 z M 109.2626,216.5978 c 1.85068,-0.92224 2.80609,-2.49548 2.81791,-4.64016 0.01,-1.74117 -0.55271,-2.73427 -1.95256,-3.44847 l -0.86494,-0.4413 0.66287,-0.43433 c 0.87704,-0.57466 1.58753,-2.37484 1.37804,-3.49154 -0.19526,-1.04084 -1.22357,-2.32223 -2.35546,-2.93518 -1.29865,-0.70326 -5.7711,-0.63191 -7.17837,0.11452 -0.58209,0.30874 -1.25234,0.78238 -1.48945,1.05253 -0.689933,0.78604 -1.353389,2.25471 -1.112758,2.46326 0.201104,0.17429 3.336778,0.80604 4.000748,0.80604 0.15356,0 0.35933,-0.36482 0.45726,-0.8107 0.20796,-0.94683 1.09567,-1.45264 2.10489,-1.19934 1.83369,0.46022 0.94211,3.33295 -1.03442,3.33295 -0.47644,0 -0.67732,0.59585 -0.67732,2.00915 v 1.17211 l 1.03955,-0.16623 c 0.88669,-0.14179 1.13958,-0.0662 1.71979,0.51401 1.42183,1.42182 0.60132,3.8793 -1.29523,3.8793 -0.93256,0 -1.99327,-0.95359 -1.99327,-1.79197 0,-0.33539 -0.31893,-0.36879 -2.03593,-0.2132 -2.724779,0.24692 -2.810822,0.30944 -2.216779,1.61098 1.071919,2.34857 2.867749,3.27495 6.383569,3.29299 1.92042,0.01 2.47195,-0.0924 3.64186,-0.67542 z m -52.134555,-47.2687 0.07254,-4.43177 h 1.977977 1.977978 v -2.24896 -2.24895 H 59.172165 57.18779 v -1.85209 -1.85208 h 2.38125 2.38125 v -2.38125 -2.38125 h -4.23333 -4.233333 v 10.80382 c 0,5.9421 0.08441,10.88823 0.187579,10.9914 0.103169,0.10317 0.906841,0.15277 1.785937,0.11024 l 1.598359,-0.0773 z m 15.140999,1.78594 v -2.77812 H 69.755502 67.24196 v -8.20209 -8.20208 h -1.719791 -1.719792 v 10.98021 10.98021 h 4.233333 4.233334 z m 4.065857,2.05052 c 0.07653,-0.40018 0.215522,-1.23362 0.308861,-1.85208 l 0.169712,-1.12448 h 1.804921 1.804922 l 0.312393,1.85208 0.312394,1.85209 h 1.859036 c 1.640192,0 1.844802,-0.0545 1.738104,-0.46302 -0.06651,-0.25467 -1.003133,-5.19545 -2.081379,-10.97952 l -1.960446,-10.5165 -1.913189,-8e-4 c -1.767763,-5.2e-4 -1.923492,0.0446 -2.048735,0.59463 -0.370049,1.62531 -3.843285,20.5273 -3.843285,20.91597 0,0.37595 0.277135,0.44924 1.698768,0.44924 1.643081,0 1.703332,-0.0238 1.837923,-0.72761 z m 1.299451,-8.46666 c 0.07688,-0.40019 0.293132,-1.82894 0.480552,-3.175 0.187423,-1.34607 0.419015,-2.4474 0.514652,-2.4474 0.09563,0 0.312465,0.98227 0.481843,2.18281 0.169378,1.20055 0.381593,2.6293 0.471588,3.175 l 0.163626,0.99219 h -1.126024 c -1.08589,0 -1.121042,-0.0259 -0.986237,-0.7276 z m 10.803078,1.71979 0.0288,-7.47448 0.963385,7.40833 0.963385,7.40833 h 1.322917 1.322916 l 0.962584,-7.27604 0.96258,-7.27604 0.02961,7.34219 0.0296,7.34219 h 1.455209 1.455208 v -10.99051 -10.99051 l -2.305992,0.0764 -2.305989,0.0764 -0.709054,5.57948 c -0.389978,3.06872 -0.755635,5.80716 -0.812568,6.08542 -0.05693,0.27826 -0.383831,-1.69672 -0.726437,-4.38886 -0.342606,-2.69213 -0.696611,-5.43057 -0.786678,-6.08541 l -0.163758,-1.19063 -2.312469,-0.0764 -2.312472,-0.0764 v 10.99051 10.99051 h 1.455209 1.455208 z m 14.28665,-0.13229 0.028,-7.60678 1.00698,7.54063 c 0.55384,4.14734 1.01751,7.57692 1.03038,7.62127 0.0129,0.0444 0.58895,0.0444 1.28017,0 l 1.25678,-0.0806 0.33981,-2.51354 c 0.18689,-1.38244 0.61988,-4.59713 0.96219,-7.14375 l 0.62238,-4.63021 0.03,7.2099 0.03,7.2099 h 1.45521 1.45521 V 162.91301 151.9328 h -2.24392 c -2.11329,0 -2.25126,0.0346 -2.36996,0.59531 -0.0693,0.32742 -0.43126,3.02865 -0.8043,6.00273 -0.37304,2.97408 -0.71593,5.4451 -0.76198,5.49115 -0.0461,0.046 -0.42008,-2.65519 -0.83117,-6.00273 l -0.74745,-6.08646 h -2.33832 -2.33832 v 10.80382 c 0,5.9421 0.07937,10.88319 0.17639,10.98021 0.09701,0.097 0.75186,0.17639 1.45521,0.17639 h 1.27882 z m 14.11816,6.48229 c 0.42167,-2.79393 0.23446,-2.57969 2.25425,-2.57969 h 1.80623 l 0.17626,1.38906 c 0.3022,2.38162 0.24198,2.31511 2.09609,2.31511 0.91182,0 1.71567,-0.0578 1.78632,-0.12846 0.0707,-0.0707 -0.78184,-4.98198 -1.89441,-10.91406 l -2.02287,-10.78561 h -1.94382 -1.94382 l -2.02286,10.78561 c -1.11257,5.93208 -1.96506,10.84341 -1.89441,10.91406 0.0707,0.0707 0.87205,0.12846 1.78089,0.12846 h 1.65244 z m 1.28486,-8.33438 c 0.084,-0.5457 0.29728,-2.04398 0.47389,-3.3295 0.17662,-1.28552 0.40589,-2.17849 0.5095,-1.98437 0.10361,0.19411 0.3322,1.36497 0.50798,2.60189 0.17578,1.23693 0.38411,2.57638 0.46295,2.97657 0.13834,0.70216 0.10401,0.7276 -0.98187,0.7276 h -1.12522 z m 14.86382,9.1665 c 2.25768,-0.61737 3.1375,-2.31684 3.13603,-6.05764 -0.001,-2.57093 -0.47203,-4.13367 -1.5041,-4.99021 -0.34008,-0.28225 -0.30026,-0.48709 0.30514,-1.5698 0.61099,-1.09268 0.69516,-1.53687 0.68721,-3.62645 -0.007,-1.91931 -0.12089,-2.596 -0.58553,-3.48825 -0.94818,-1.82081 -1.269,-1.93571 -5.40492,-1.93571 h -3.64529 v 10.98021 10.98021 l 2.97656,-0.002 c 1.63711,-7.9e-4 3.45282,-0.13171 4.0349,-0.29088 z m -3.51686,-6.78525 0.0773,-2.05052 0.87862,-0.0843 c 0.49262,-0.0473 1.16098,0.10071 1.52135,0.33684 0.52446,0.34363 0.64273,0.6423 0.64273,1.62305 0,1.85506 -0.31165,2.22546 -1.87252,2.22546 h -1.32474 z m -0.055,-8.40052 v -1.98437 h 1.02594 c 1.28549,0 1.75219,0.52854 1.75219,1.98437 0,1.45583 -0.4667,1.98438 -1.75219,1.98438 h -1.02594 z m 17.14103,12.63386 0.0754,-2.71198 h -2.65509 -2.65509 v -8.20209 -8.20208 h -1.71979 -1.71979 v 10.98676 10.98676 l 4.29948,-0.0727 4.29948,-0.0727 z m 10.64022,0.19843 v -2.64583 h -2.91041 -2.91042 v -1.98438 -1.98437 h 2.64583 2.64584 v -2.24896 -2.24896 h -2.64584 -2.64583 v -1.71979 -1.71979 h 2.77813 2.77812 v -2.38125 -2.38125 h -4.49792 -4.49791 v 10.98021 10.98021 h 4.63021 4.6302 z m -38.62916,-25.4 v -0.79375 H 105.20967 91.84821 v 0.79375 0.79375 h 13.36146 13.36146 z m -13.03073,-1.51242 c -0.40018,-0.0606 -1.05503,-0.0606 -1.45521,0 -0.40018,0.0606 -0.0728,0.11022 0.7276,0.11022 0.80037,0 1.12779,-0.0496 0.72761,-0.11022 z m -3.09969,-0.42074 c -1.16268,-0.40045 -2.00385,-1.64322 -2.41866,-3.57337 -0.430155,-2.00156 -0.878338,-2.87538 -2.152558,-4.19681 l -1.064927,-1.10438 1.768512,0.53981 c 0.97268,0.2969 1.827073,0.48124 1.898663,0.40966 0.25832,-0.25832 -0.772882,-3.68964 -1.375859,-4.57817 -0.339426,-0.50018 -0.497353,-0.90941 -0.350949,-0.90941 0.146405,0 0.751427,0.77391 1.344498,1.71979 0.59307,0.94589 1.18407,1.71979 1.31333,1.71979 0.45254,0 0.22913,-1.77538 -0.42642,-3.38871 -0.71038,-1.74824 -0.96987,-3.58502 -0.28386,-2.00918 0.1963,0.4509 0.87226,1.48588 1.50215,2.29996 1.67547,2.16542 1.89704,1.8228 1.66866,-2.58039 -0.17061,-3.28933 -0.14713,-3.54696 0.43613,-4.78605 l 0.61644,-1.30959 0.19176,3.04271 c 0.21008,3.33339 1.03257,7.92658 1.43512,8.01433 0.14274,0.0311 0.33142,-1.22209 0.42982,-2.85495 0.0965,-1.60073 0.28737,-3.20449 0.42423,-3.5639 0.36712,-0.96409 0.69663,6.18215 0.34042,7.38283 -0.29123,0.98166 -0.1411,1.43314 0.26722,0.80361 0.13885,-0.21406 0.54997,-1.34171 0.9136,-2.50588 0.87496,-2.80124 1.17713,-3.25072 1.18238,-1.75881 0.002,0.63337 -0.35314,2.21773 -0.7897,3.52078 -0.89332,2.66636 -0.99112,3.34157 -0.32946,2.27443 0.48603,-0.78388 1.78952,-1.52285 2.68621,-1.52285 0.53623,0 0.52981,0.0377 -0.17228,1.01198 -0.90133,1.25075 -2.07786,3.77766 -2.449,5.25984 -0.32918,1.31463 -1.36845,2.64367 -2.1919,2.80305 -0.5081,0.0984 -0.4924,0.11828 0.11775,0.14951 1.17882,0.0603 3.93092,-0.93761 5.42665,-1.96776 2.38557,-1.643 3.7608,-3.8967 5.63895,-9.241 1.89793,-5.40059 3.38439,-7.62166 5.98558,-8.94362 l 1.23934,-0.62985 -0.62646,-0.43878 c -1.77064,-1.24021 -4.53541,0.3769 -7.39224,4.32371 -0.47399,0.65484 -0.79899,0.9525 -0.72222,0.66146 0.0768,-0.29104 0.46322,-1.6365 0.85877,-2.98991 0.64198,-2.19658 0.7053,-2.76463 0.58987,-5.29166 -0.0711,-1.55701 -0.28731,-3.30718 -0.48041,-3.88927 l -0.35108,-1.05833 -0.17651,2.52636 c -0.31216,4.46806 -1.30322,7.63867 -2.59648,8.30667 l -0.68945,0.35612 -0.0153,-2.28728 c -0.0125,-1.87111 -0.22621,-3.03348 -1.17454,-6.38833 -0.89279,-3.15836 -1.16296,-4.56792 -1.17534,-6.13218 -0.0116,-1.46322 -0.0889,-1.9071 -0.27669,-1.5875 -0.31826,0.54179 -0.34125,3.90363 -0.0546,7.98427 0.16412,2.33628 0.13338,3.19142 -0.13241,3.68327 -0.63333,1.17199 -0.87915,0.89014 -0.78671,-0.90201 0.12361,-2.39629 -0.24884,-3.84752 -2.08387,-8.11976 -2.3855,-5.55381 -2.8076,-7.95291 -1.96704,-11.18003 0.22182,-0.85164 0.35673,-1.595033 0.29979,-1.651972 -0.19694,-0.196937 -1.76488,1.790702 -2.39246,3.032872 -0.86894,1.71986 -1.15772,3.48423 -1.35171,8.25846 -0.16443,4.04673 -0.53451,6.42769 -1.26904,8.16455 l -0.37575,0.8885 -0.83609,-1.78667 c -1.211184,-2.58825 -1.862336,-4.95464 -2.108674,-7.66326 l -0.216564,-2.38125 -0.50727,1.05834 c -0.451318,0.9416 -0.507368,1.68575 -0.508182,6.74687 -7.94e-4,4.94865 -0.06202,5.80039 -0.470731,6.54844 -0.258398,0.47294 -0.567367,0.8599 -0.686597,0.8599 -0.441788,0 -1.102487,-1.00439 -1.586923,-2.41243 -0.274283,-0.79722 -0.754401,-1.9507 -1.066924,-2.5633 -0.567143,-1.11169 -2.830333,-3.68542 -3.048712,-3.46704 -0.167764,0.16777 2.138889,10.77294 2.603585,11.97035 0.367773,0.94767 0.364056,0.99124 -0.05679,0.66563 -0.24768,-0.19163 -1.470057,-1.36233 -2.716396,-2.60154 -1.24634,-1.23923 -2.784453,-2.53992 -3.418027,-2.89043 l -1.151956,-0.63731 1.413547,1.69564 c 1.695704,2.0341 2.876089,4.49162 3.961275,8.24721 2.121355,7.34157 5.052319,11.14992 9.732629,12.6461 0.835,0.26693 1.87537,0.48501 2.31194,0.48462 l 0.79375,-7.9e-4 -0.91688,-0.3158 z"
         id="path397"
         inkscape:connector-curvature="0" />
      <path
         style="fill:#de4337;stroke-width:0.26458335"
         d="M 65.542079,200.20653 C 43.921285,178.71828 26.232294,161.06032 26.233212,160.96664 c 0.002,-0.20151 78.528118,-78.184819 78.848988,-78.303922 0.22532,-0.08364 78.84167,77.922692 78.84018,78.228432 -0.001,0.20083 -78.52865,78.1842 -78.8499,78.30337 -0.12092,0.0448 -17.909604,-17.49974 -39.530401,-38.98799 z M 139.87021,195.58887 174.53,160.92833 139.80369,126.20202 105.07738,91.475708 70.351066,126.20202 35.624757,160.92833 70.284542,195.58887 c 19.062882,19.0633 34.719658,34.66055 34.792838,34.66055 0.0732,0 15.72995,-15.59725 34.79283,-34.66055 z m -68.527338,-1.05833 -33.601433,-33.60222 33.667968,-33.66797 33.667973,-33.667967 33.66797,33.667967 33.66796,33.66797 -33.60143,33.60222 c -18.48078,18.48122 -33.66131,33.60221 -33.7345,33.60221 -0.0732,0 -15.253722,-15.12099 -33.734508,-33.60221 z m 37.986538,22.02669 c 1.20023,-0.60792 1.55935,-0.96696 2.18333,-2.18281 1.24305,-2.42213 0.68752,-4.8074 -1.36358,-5.85482 l -0.84374,-0.43086 0.62456,-0.40922 c 0.74307,-0.48688 1.4974,-1.97134 1.4974,-2.94678 0,-1.24157 -0.9748,-2.74015 -2.18638,-3.36117 -2.26689,-1.16195 -6.5044,-0.92277 -8.33325,0.47036 -0.77,0.58655 -1.91579,2.35045 -1.91579,2.94928 0,0.22214 4.18859,1.01576 4.3229,0.81906 0.0373,-0.0547 0.20929,-0.42857 0.38213,-0.8309 0.45814,-1.06641 1.44197,-1.44674 2.29559,-0.88743 1.32049,0.86522 0.66034,2.66362 -1.04749,2.85357 -0.77678,0.0864 -0.79543,0.12322 -0.87201,1.72219 l -0.0783,1.63391 1.22605,-0.0464 c 1.00177,-0.0379 1.31858,0.0678 1.7319,0.57822 1.14057,1.40836 0.21867,3.741 -1.47852,3.741 -0.97831,0 -1.98437,-0.97163 -1.98437,-1.91645 0,-0.409 -0.12903,-0.49007 -0.59532,-0.37408 -0.32742,0.0814 -1.39898,0.22986 -2.38125,0.3298 -0.982261,0.1 -1.785933,0.28908 -1.785933,0.4203 0,0.13123 0.227756,0.68033 0.506127,1.22024 1.243136,2.4111 2.806316,3.21643 6.259456,3.22479 2.10016,0.005 2.57939,-0.0851 3.83645,-0.72179 z M 57.187794,169.39525 v -4.49792 h 2.116666 2.116667 v -2.24896 -2.24895 H 59.30446 57.187794 v -1.85209 -1.85208 h 2.38125 2.38125 V 154.314 151.93275 H 57.71696 53.483627 v 10.98021 10.98021 h 1.852083 1.852084 z m 15.288942,1.65365 0.0754,-2.71198 H 69.897049 67.24196 v -8.20209 -8.20208 h -1.852083 -1.852083 v 10.80382 c 0,5.9421 0.08222,10.88603 0.1827,10.98652 0.100486,0.10049 2.094783,0.1501 4.431771,0.11024 l 4.24907,-0.0725 z m 3.856382,2.38125 c 0.07204,-0.25467 0.210299,-1.0881 0.307239,-1.85209 l 0.17626,-1.38906 h 1.802427 1.802426 l 0.17626,1.38906 c 0.305213,2.40535 0.215516,2.31511 2.301161,2.31511 1.796002,0 1.858028,-0.0214 1.726387,-0.59532 -0.0751,-0.32742 -1.005715,-5.26851 -2.068028,-10.9802 l -1.931479,-10.3849 h -1.911575 c -1.591927,0 -1.934504,0.0774 -2.048688,0.46302 -0.264064,0.89175 -3.867298,20.41407 -3.867298,20.95303 0,0.49302 0.160547,0.54437 1.701962,0.54437 1.394629,0 1.725615,-0.0836 1.832946,-0.46302 z m 1.324337,-8.73125 c 0.07282,-0.25467 0.282213,-1.56435 0.46531,-2.91042 0.183099,-1.34607 0.411154,-2.4474 0.506791,-2.4474 0.09563,0 0.317941,1.0418 0.494014,2.31511 0.176072,1.2733 0.385617,2.58299 0.465653,2.91041 0.133355,0.54556 0.05317,0.59532 -0.959326,0.59532 -0.926285,0 -1.083448,-0.0748 -0.972442,-0.46302 z m 10.781165,1.98437 0.03,-7.2099 0.622379,4.63021 c 0.34231,2.54662 0.775298,5.76131 0.962195,7.14375 l 0.339812,2.51354 1.341382,0.0783 1.341382,0.0783 0.864642,-6.95748 c 0.475554,-3.82662 0.90433,-7.07655 0.952834,-7.22207 0.04851,-0.14552 0.09759,2.97987 0.109079,6.94531 l 0.02089,7.2099 h 1.455209 1.455208 v -10.98021 -10.98021 h -2.324105 -2.324106 l -0.775046,6.15156 -0.775044,6.15156 -0.782537,-6.15156 -0.782534,-6.15156 H 87.834232 85.49821 v 10.98021 10.98021 h 1.455209 1.455208 z m 14.28711,-0.13229 0.0296,-7.34219 0.96258,7.27604 0.96258,7.27604 1.38906,0.08 c 1.18765,0.0684 1.39097,0.0108 1.40222,-0.39688 0.007,-0.26226 0.41161,-3.45341 0.89861,-7.09143 l 0.88545,-6.61458 0.0274,7.0776 0.0274,7.07761 h 1.45521 1.45521 v -10.99051 -10.99051 l -2.31056,0.0764 -2.31057,0.0764 -0.5625,4.36563 c -0.30938,2.40109 -0.65795,5.08 -0.7746,5.95312 l -0.2121,1.5875 -0.46201,-3.43958 c -0.2541,-1.89177 -0.60558,-4.60044 -0.78106,-6.01927 l -0.31905,-2.57969 h -2.35149 -2.35148 v 10.98021 10.98021 h 1.45521 1.45521 z m 14.09042,6.61458 c 0.0765,-0.40018 0.21552,-1.23362 0.30886,-1.85208 l 0.16971,-1.12448 h 1.79789 1.79789 l 0.22937,1.78594 0.22938,1.78593 1.91392,0.0776 1.91391,0.0777 -0.14282,-0.7391 c -0.0786,-0.40651 -1.00161,-5.32302 -2.05125,-10.92557 l -1.90843,-10.18646 h -1.97429 -1.97429 l -1.90843,10.18646 c -1.04963,5.60255 -1.97166,10.51388 -2.04895,10.91406 l -0.14051,0.72761 h 1.82444 c 1.78018,0 1.82782,-0.0177 1.9636,-0.72761 z m 1.30783,-8.59896 c 0.0767,-0.32742 0.2914,-1.69986 0.47718,-3.04987 0.18578,-1.35 0.41877,-2.3025 0.51775,-2.11666 0.099,0.18584 0.32019,1.34992 0.49159,2.58685 0.17141,1.23692 0.37287,2.45731 0.44771,2.71198 0.11426,0.38877 -0.0411,0.46302 -0.96877,0.46302 -1.01068,0 -1.09296,-0.0507 -0.96546,-0.59532 z m 15.95327,8.73823 c 2.37246,-1.28224 2.96062,-8.03742 0.90055,-10.34304 -0.73165,-0.81885 -0.73638,-0.84501 -0.27131,-1.49944 1.61907,-2.2783 1.30807,-7.28516 -0.5496,-8.84829 -0.78512,-0.66064 -0.92149,-0.68131 -4.49356,-0.68131 h -3.68387 v 11.00558 11.00558 l 3.63802,-0.0975 c 2.76076,-0.074 3.83618,-0.20457 4.45977,-0.5416 z m -4.39362,-6.42312 v -1.98438 h 1.18131 c 1.35809,0 1.7291,0.42579 1.7291,1.98438 0,1.55858 -0.37101,1.98437 -1.7291,1.98437 h -1.18131 z m 0,-8.46667 v -1.98437 h 0.89364 c 1.15638,0 1.53171,0.48624 1.53171,1.98437 0,1.49813 -0.37533,1.98438 -1.53171,1.98438 h -0.89364 z m 16.93333,12.7 v -2.77812 h -2.64583 -2.64584 v -8.20209 -8.20208 h -1.85208 -1.85208 v 10.80382 c 0,5.9421 0.0794,10.88319 0.17639,10.98021 0.097,0.097 2.12107,0.17639 4.49791,0.17639 h 4.32153 z m 10.58333,0.13229 v -2.64583 h -2.91041 -2.91042 v -1.98438 -1.98437 h 2.64583 2.64584 v -2.38125 -2.38125 h -2.64584 -2.64583 v -1.5875 -1.5875 h 2.91042 2.91041 v -2.38125 -2.38125 h -4.6302 -4.63021 v 10.98021 10.98021 h 4.63021 4.6302 z M 118.57113,145.71504 V 144.789 H 105.20967 91.84821 v 0.92604 0.92604 h 13.36146 13.36146 z m -10.2502,-1.70349 c 5.02209,-1.28443 7.07118,-3.54987 9.58741,-10.59963 0.54536,-1.52797 1.32618,-3.52079 1.73514,-4.4285 0.88388,-1.96179 2.99946,-4.29483 4.51371,-4.97766 l 1.08683,-0.49009 -0.58763,-0.47583 c -0.76059,-0.61589 -1.88966,-0.60419 -3.11924,0.0323 -1.11177,0.57553 -3.34591,2.80736 -4.38642,4.38189 -0.8645,1.30818 -0.87444,1.01812 -0.0483,-1.41077 1.03756,-3.05056 1.30146,-5.59499 0.84571,-8.15409 -0.51629,-2.899 -0.94372,-3.64355 -0.96169,-1.6752 -0.0322,3.52089 -0.9361,7.43386 -2.01297,8.71365 -0.88067,1.04662 -1.52871,1.10697 -1.14851,0.10696 0.35195,-0.92571 0.12317,-2.35835 -1.0917,-6.83624 -1.26648,-4.66811 -1.64488,-6.7863 -1.45933,-8.16909 l 0.14643,-1.09132 -0.38143,0.79375 c -0.47067,0.97946 -0.49687,2.73379 -0.10472,7.01146 0.27801,3.0326 0.26287,3.39518 -0.18232,4.36562 l -0.48551,1.05833 -0.17043,-2.64583 c -0.17722,-2.75116 -0.20183,-2.83089 -2.76063,-8.94446 -1.41984,-3.39233 -1.88078,-5.91872 -1.50524,-8.25014 0.16438,-1.02047 0.37646,-2.15306 0.47129,-2.516858 0.16587,-0.636315 0.13709,-0.628027 -0.75702,0.218028 -1.07382,1.0161 -2.17684,3.12617 -2.58408,4.94336 -0.15561,0.69438 -0.39186,3.41877 -0.52498,6.0542 -0.22431,4.44061 -0.59565,6.78337 -1.26469,7.97888 -0.23257,0.41558 -0.37809,0.26552 -1.05509,-1.08797 -1.189953,-2.37903 -1.671508,-4.09269 -2.024531,-7.20446 l -0.321312,-2.83225 -0.513326,0.92605 c -0.464318,0.83762 -0.51344,1.4818 -0.514491,6.74687 -0.0011,5.1086 -0.05957,5.92811 -0.478541,6.6976 -0.771633,1.41721 -0.856168,1.3203 -3.188083,-3.65489 -0.841166,-1.79465 -2.860877,-4.27516 -3.202668,-3.93337 -0.200739,0.20074 2.056889,10.57102 2.683259,12.32538 0.0926,0.25934 -0.89194,-0.54925 -2.18785,-1.79688 -2.411188,-2.32134 -4.559912,-3.95558 -5.182003,-3.94125 -0.229893,0.005 -0.198405,0.096 0.09217,0.26561 0.73732,0.43027 2.899765,3.46457 3.670459,5.1503 0.399182,0.87313 1.100265,2.89719 1.557965,4.49792 1.539364,5.38366 4.223467,9.74621 6.996226,11.37115 3.259486,1.91019 7.083926,2.43249 10.818156,1.47744 z m -5.27118,0.0152 c -1.77386,-0.31117 -2.38484,-1.07199 -2.99987,-3.73563 -0.438162,-1.89762 -1.115768,-3.21521 -2.222862,-4.3223 l -0.89677,-0.89677 1.583594,0.49287 c 0.87098,0.27108 1.705308,0.49287 1.854058,0.49287 0.37791,0 0.0428,-1.643 -0.7258,-3.55905 -0.347435,-0.86607 -0.586981,-1.61939 -0.532326,-1.67404 0.05466,-0.0547 0.499457,0.58531 0.988446,1.42215 1.53132,2.62067 2.3211,2.02159 1.19018,-0.9028 -0.37617,-0.9727 -0.75926,-2.12574 -0.8513,-2.5623 -0.1408,-0.66779 -0.0393,-0.58382 0.63932,0.52916 1.21102,1.98604 2.27922,3.15691 2.66344,2.91944 0.25249,-0.15604 0.28585,-1.02892 0.142,-3.71482 -0.18904,-3.52948 0.01,-5.03381 0.74603,-5.64209 0.2408,-0.19897 0.32177,0.16638 0.33618,1.51693 0.0247,2.31332 1.20213,9.05526 1.56076,8.9368 0.14979,-0.0495 0.36626,-1.39009 0.48105,-2.97915 0.35377,-4.89733 0.70069,-4.70633 0.63989,0.3523 -0.0302,2.51043 0.0259,4.56426 0.12458,4.56407 0.18115,-2.7e-4 0.82373,-1.61556 1.65797,-4.16754 0.24975,-0.76398 0.52101,-1.38906 0.6028,-1.38906 0.3616,0 -0.24537,3.2857 -0.97004,5.25112 -0.43747,1.18647 -0.74046,2.15721 -0.67332,2.15721 0.0671,0 0.51063,-0.42084 0.98553,-0.93521 0.58394,-0.63246 1.18456,-0.98626 1.85533,-1.0929 l 0.99188,-0.15769 -1.13112,1.68821 c -0.64821,0.96747 -1.43964,2.65771 -1.85377,3.95908 -0.40594,1.27564 -0.98266,2.51382 -1.31596,2.82525 -0.67961,0.63504 -3.06451,0.94057 -4.8699,0.62388 z"
         id="path395"
         inkscape:connector-curvature="0" />
      <path
         style="fill:#d9281b;stroke-width:0.26458335"
         d="m 65.543293,200.20684 c -21.621462,-21.48763 -39.310999,-39.1454 -39.310081,-39.23948 0.002,-0.20198 78.527368,-78.185259 78.848988,-78.304642 0.22552,-0.08372 78.84201,77.923172 78.83975,78.228432 -0.002,0.20074 -78.52781,78.18433 -78.84793,78.30296 -0.12044,0.0446 -17.909265,-17.49963 -39.530727,-38.98727 z M 139.87021,195.58887 174.53,160.92833 139.80369,126.20202 105.07738,91.475708 70.351066,126.20202 35.624757,160.92833 70.284542,195.58887 c 19.062882,19.0633 34.719658,34.66055 34.792838,34.66055 0.0732,0 15.72995,-15.59725 34.79283,-34.66055 z m -68.527338,-1.05833 -33.601433,-33.60222 33.667968,-33.66797 33.667973,-33.667967 33.66797,33.667967 33.66796,33.66797 -33.60143,33.60222 c -18.48078,18.48122 -33.66131,33.60221 -33.7345,33.60221 -0.0732,0 -15.253722,-15.12099 -33.734508,-33.60221 z m 38.521908,21.82465 c 1.36541,-0.96449 2.15497,-2.41674 2.28667,-4.20587 0.11522,-1.56525 -0.487,-2.76927 -1.77769,-3.55419 l -0.79388,-0.48278 0.66362,-0.62344 c 0.36498,-0.34288 0.79607,-1.06556 0.95798,-1.60594 0.68917,-2.30027 -0.71224,-4.43603 -3.28921,-5.01272 -1.92545,-0.43091 -4.82578,-0.23405 -6.12519,0.41573 -1.16222,0.58118 -2.411664,2.01517 -2.665003,3.05864 -0.162512,0.66936 -0.121981,0.69318 1.688593,0.99218 2.5142,0.41521 2.52265,0.41379 2.86061,-0.48159 0.4204,-1.11374 1.44361,-1.53835 2.3213,-0.96327 1.32049,0.86522 0.66034,2.66362 -1.04749,2.85357 -0.77678,0.0864 -0.79543,0.12322 -0.87201,1.72219 l -0.0783,1.63391 1.22605,-0.0464 c 1.00177,-0.0379 1.31858,0.0678 1.7319,0.57822 1.13169,1.39739 0.21911,3.741 -1.45671,3.741 -0.97676,0 -1.60927,-0.56106 -1.88703,-1.67386 -0.14875,-0.59592 -0.30072,-0.71945 -0.74822,-0.6082 -0.30886,0.0768 -1.36523,0.22139 -2.3475,0.32133 -1.027759,0.10458 -1.78488,0.30661 -1.783451,0.47591 0.0013,0.16181 0.35342,0.90606 0.782338,1.6539 0.607293,1.05884 1.089743,1.51658 2.180333,2.06866 1.30423,0.66023 1.59472,0.70291 4.22707,0.62107 2.64252,-0.0822 2.89944,-0.13934 3.94518,-0.87804 z M 57.187794,169.39525 v -4.49792 h 2.116666 2.116667 v -2.24896 -2.24895 H 59.30446 57.187794 v -1.85209 -1.85208 h 2.38125 2.38125 V 154.314 151.93275 H 57.71696 53.483627 v 10.98021 10.98021 h 1.852083 1.852084 z m 19.145324,4.0349 c 0.07204,-0.25467 0.210299,-1.0881 0.307239,-1.85209 l 0.17626,-1.38906 h 1.802427 1.802426 l 0.17626,1.38906 c 0.305242,2.40557 0.215236,2.31511 2.30332,2.31511 h 1.865098 l -0.141534,-0.72761 c -0.07784,-0.40018 -1.007348,-5.34587 -2.065567,-10.99043 l -1.924034,-10.26283 -1.983206,0.0764 -1.983208,0.0764 -2.00134,10.71563 -2.00134,10.71562 -0.07573,-2.57969 -0.07573,-2.57968 H 69.878213 67.24196 v -8.20209 -8.20208 h -1.852083 -1.852083 v 10.98021 10.98021 h 6.332169 c 5.804353,0 6.343089,-0.0386 6.463155,-0.46302 z m 1.328007,-8.73125 c 0.07484,-0.25467 0.275415,-1.47506 0.445725,-2.71198 0.170312,-1.23693 0.396007,-2.34332 0.501547,-2.45865 0.105542,-0.11532 0.336661,0.83718 0.513598,2.11667 0.176941,1.27949 0.387192,2.59424 0.467228,2.92166 0.133355,0.54556 0.05317,0.59532 -0.959326,0.59532 -0.927682,0 -1.083027,-0.0743 -0.968772,-0.46302 z m 10.776733,1.98437 0.02923,-7.2099 0.944902,7.2099 0.944901,7.2099 h 1.365054 1.365051 l 0.610302,-4.82865 c 1.297535,-10.26599 1.254918,-10.19183 1.29246,-2.24896 l 0.03345,7.07761 h 1.455209 1.455208 V 162.91296 151.93275 H 95.60712 93.280612 l -0.741759,5.88698 c -0.407966,3.23784 -0.772859,5.91966 -0.810871,5.9596 -0.03801,0.0399 -0.141611,-0.55537 -0.230217,-1.32292 -0.08861,-0.76754 -0.422939,-3.44936 -0.742963,-5.9596 L 90.17294,151.93275 H 87.835577 85.49821 v 10.98021 10.98021 h 1.455209 1.455208 z m 14.288502,-0.13229 0.0302,-7.34219 0.95658,7.34219 0.95659,7.34219 h 1.35834 1.35833 l 0.42879,-3.24115 c 0.23583,-1.78263 0.63903,-4.90802 0.89599,-6.94531 l 0.46721,-3.70417 0.0705,6.94531 0.0705,6.94532 h 1.45081 1.45082 v -10.99051 -10.99051 l -2.31511,0.0764 -2.3151,0.0764 -0.55713,4.36563 c -1.08747,8.52119 -0.88196,8.28425 -1.72112,1.98437 -0.40707,-3.05594 -0.74559,-5.76461 -0.75229,-6.01927 -0.0107,-0.40577 -0.30659,-0.46302 -2.39342,-0.46302 H 99.7856 v 10.98021 10.98021 h 1.45521 1.45521 z m 14.08979,6.61458 c 0.0765,-0.40018 0.21552,-1.23362 0.30886,-1.85208 l 0.16971,-1.12448 h 1.79789 1.79789 l 0.22937,1.78594 0.22938,1.78593 1.9523,0.0784 c 1.76858,0.071 1.94062,0.0337 1.82816,-0.39687 -0.0683,-0.26142 -1.00635,-5.20773 -2.0846,-10.9918 l -1.96044,-10.5165 h -1.98438 -1.98437 l -1.96045,10.5165 c -1.07824,5.78407 -2.01486,10.72485 -2.08138,10.97952 -0.10671,0.40856 0.0981,0.46302 1.74099,0.46302 1.82106,0 1.86497,-0.016 2.00107,-0.72761 z m 1.30783,-8.59896 c 0.0767,-0.32742 0.29058,-1.69407 0.47536,-3.037 0.18478,-1.34294 0.3916,-2.38607 0.45959,-2.31808 0.068,0.068 0.32452,1.43465 0.57008,3.03701 l 0.44645,2.91339 h -1.04543 c -0.94907,0 -1.03259,-0.0549 -0.90605,-0.59532 z m 15.09784,9.03911 c 1.28064,-0.35559 2.09443,-1.21635 2.53322,-2.67942 0.89502,-2.98437 0.54659,-6.4623 -0.80121,-7.99736 -0.66969,-0.76273 -0.71909,-0.92137 -0.37565,-1.2064 0.56376,-0.46788 1.19086,-2.77004 1.19086,-4.37179 0,-1.83881 -0.60755,-3.73948 -1.48962,-4.66017 l -0.72604,-0.75782 h -3.78696 -3.78696 v 10.98021 10.98021 l 3.10885,-0.002 c 1.70987,-7.9e-4 3.56995,-0.1295 4.13351,-0.28598 z m -3.53819,-6.724 v -1.98438 h 1.18131 c 1.37726,0 1.7291,0.42332 1.7291,2.08038 0,1.34576 -0.53762,1.88837 -1.87098,1.88837 h -1.03943 z m 0,-8.46667 v -1.98437 h 0.74318 c 1.22724,0 1.68217,0.52554 1.68217,1.94327 0,1.53883 -0.36802,2.02548 -1.53171,2.02548 h -0.89364 z m 16.93333,12.7 v -2.77812 h -2.64583 -2.64584 v -8.20209 -8.20208 h -1.85208 -1.85208 v 10.98021 10.98021 h 4.49791 4.49792 z m 10.58333,0.13229 v -2.64583 h -2.91041 -2.91042 v -1.98438 -1.98437 h 2.64583 2.64584 v -2.38125 -2.38125 h -2.64584 -2.64583 v -1.5875 -1.5875 h 2.91042 2.91041 v -2.38125 -2.38125 h -4.6302 -4.63021 v 10.98021 10.98021 h 4.63021 4.6302 z M 118.57113,145.71504 V 144.789 H 105.20967 91.84821 v 0.92604 0.92604 h 13.36146 13.36146 z m -10.54866,-1.57169 c 3.42965,-0.72695 6.11164,-2.68316 7.82072,-5.70435 0.45277,-0.80037 1.44446,-3.18162 2.20377,-5.29167 0.7593,-2.11005 1.72377,-4.44649 2.14327,-5.19209 0.90303,-1.60499 2.78923,-3.41818 4.1452,-3.98474 l 0.96985,-0.40523 -0.61826,-0.50063 c -0.6833,-0.5533 -1.742,-0.64158 -2.81262,-0.23453 -0.86561,0.3291 -3.53358,2.84607 -4.50939,4.25416 -0.39851,0.57506 -0.76172,1.00842 -0.80712,0.96302 -0.0454,-0.0454 0.28397,-1.20842 0.73195,-2.58448 1.01455,-3.11647 1.14461,-6.56769 0.34355,-9.11652 -0.47834,-1.52201 -0.50204,-1.5493 -0.5745,-0.66146 -0.44719,5.47986 -1.0082,7.96261 -2.08968,9.24787 -0.88563,1.05252 -1.5236,1.09965 -1.13746,0.084 0.35009,-0.9208 0.0268,-2.82681 -1.33372,-7.8638 -1.20264,-4.45246 -1.48491,-6.34371 -1.09772,-7.35508 0.1532,-0.40018 0.17409,-0.7276 0.0464,-0.7276 -0.39772,0 -0.81308,1.60038 -0.81308,3.13283 0,0.8065 0.13686,2.8163 0.30413,4.46622 0.23311,2.29938 0.23063,3.24516 -0.0106,4.0504 -0.48428,1.61633 -0.82269,1.25194 -0.82269,-0.8858 0,-2.32721 -0.40008,-3.7531 -2.29383,-8.17534 -1.86613,-4.35771 -2.3867,-6.81051 -1.98056,-9.33187 0.16438,-1.02047 0.36864,-2.15306 0.45393,-2.516858 0.28903,-1.232954 -2.17484,1.712838 -2.77558,3.318458 -0.64409,1.72148 -1.06994,5.10991 -1.0793,8.58779 -0.007,2.60022 -0.44602,5.27244 -1.13025,6.87963 l -0.39406,0.92558 -0.9404,-1.9985 c -1.120212,-2.38062 -1.699268,-4.60791 -1.991159,-7.65879 l -0.215167,-2.24896 -0.507542,1.05833 c -0.451372,0.94121 -0.507934,1.68788 -0.511112,6.74688 -0.003,4.7605 -0.07632,5.85041 -0.449519,6.68073 -0.245271,0.5457 -0.568341,0.99219 -0.717934,0.99219 -0.407133,0 -0.972925,-0.98062 -1.736743,-3.01006 -0.376627,-1.00069 -1.025422,-2.31037 -1.44177,-2.91042 -0.862838,-1.24352 -2.328447,-2.70328 -2.520897,-2.51083 -0.164801,0.16481 1.848159,9.76694 2.373653,11.32271 0.217657,0.64439 0.39574,1.22743 0.39574,1.29566 0,0.0682 -1.12345,-0.9628 -2.496555,-2.29115 -2.21859,-2.14628 -4.84672,-4.16584 -5.096338,-3.91621 -0.04971,0.0497 0.342863,0.55438 0.872392,1.12148 2.079138,2.22669 3.346013,4.69407 4.46908,8.70402 1.296524,4.6293 3.248308,8.31436 5.491575,10.36835 3.013543,2.75927 7.584376,3.84232 12.140356,2.87663 z m -5.03953,-0.12457 c -1.54971,-0.26934 -2.22372,-1.15105 -2.9396,-3.84544 -0.596074,-2.24346 -1.472033,-3.79678 -2.614517,-4.63626 -0.66889,-0.49149 -0.64725,-0.49128 0.876604,0.008 1.824873,0.59836 2.275193,0.63436 2.270893,0.18157 -0.006,-0.61325 -0.729155,-3.06336 -1.15841,-3.92381 -0.715721,-1.4347 -0.468074,-1.25252 0.63216,0.46504 0.57584,0.89895 1.16517,1.70749 1.3096,1.79676 0.64039,0.39578 0.52495,-1.19433 -0.23667,-3.25995 -0.87448,-2.37171 -1.05243,-3.2919 -0.39146,-2.02426 0.69336,1.32977 2.55404,3.59705 2.86361,3.48938 0.198,-0.0689 0.266,-1.2142 0.21185,-3.56823 -0.0792,-3.44295 0.17877,-5.29787 0.80926,-5.81886 0.25646,-0.21193 0.33318,0.14522 0.34863,1.62282 0.0247,2.36123 1.18998,8.9437 1.5614,8.81996 0.14898,-0.0496 0.39698,-1.53598 0.5511,-3.30298 0.15413,-1.76701 0.37087,-3.30338 0.48165,-3.41416 0.11078,-0.11078 0.16327,1.79151 0.11665,4.22732 -0.0513,2.67794 0.0133,4.39589 0.16328,4.34566 0.13642,-0.0457 0.66657,-1.32579 1.1781,-2.84466 0.52671,-1.56393 0.97581,-2.54405 1.03556,-2.25998 0.15998,0.76069 -0.45061,3.53979 -1.16394,5.29761 -0.71426,1.76013 -0.64976,2.16622 0.17709,1.11505 0.65376,-0.83111 1.82996,-1.4903 2.65916,-1.4903 h 0.58843 l -0.53249,0.59531 c -0.97654,1.09176 -1.79561,2.68974 -2.59967,5.07183 -0.55008,1.62968 -1.00121,2.50813 -1.458,2.83906 -0.7707,0.55835 -3.0565,0.8058 -4.74027,0.51316 z"
         id="path393"
         inkscape:connector-curvature="0" />
    </g>
  </g>
</svg>
