<?xml version="1.0" encoding="UTF-8" standalone="no"?>
<!-- Created with Inkscape (http://www.inkscape.org/) -->

<svg
   xmlns:dc="http://purl.org/dc/elements/1.1/"
   xmlns:cc="http://creativecommons.org/ns#"
   xmlns:rdf="http://www.w3.org/1999/02/22-rdf-syntax-ns#"
   xmlns:svg="http://www.w3.org/2000/svg"
   xmlns="http://www.w3.org/2000/svg"
   xmlns:sodipodi="http://sodipodi.sourceforge.net/DTD/sodipodi-0.dtd"
   xmlns:inkscape="http://www.inkscape.org/namespaces/inkscape"
   width="270.93332mm"
   height="270.93335mm"
   viewBox="0 0 270.93332 270.93336"
   version="1.1"
   id="svg156"
   inkscape:version="0.92.4 (5da689c313, 2019-01-14)"
   sodipodi:docname="Class_5.1_Oxidizer.svg">
  <defs
     id="defs150" />
  <sodipodi:namedview
     id="base"
     pagecolor="#ffffff"
     bordercolor="#666666"
     borderopacity="1.0"
     inkscape:pageopacity="0.0"
     inkscape:pageshadow="2"
     inkscape:zoom="0.35"
     inkscape:cx="337.14287"
     inkscape:cy="329.42864"
     inkscape:document-units="mm"
     inkscape:current-layer="layer1"
     showgrid="false"
     inkscape:window-width="1920"
     inkscape:window-height="1017"
     inkscape:window-x="-8"
     inkscape:window-y="-8"
     inkscape:window-maximized="1" />
  <metadata
     id="metadata153">
    <rdf:RDF>
      <cc:Work
         rdf:about="">
        <dc:format>image/svg+xml</dc:format>
        <dc:type
           rdf:resource="http://purl.org/dc/dcmitype/StillImage" />
        <dc:title></dc:title>
      </cc:Work>
    </rdf:RDF>
  </metadata>
  <g
     inkscape:label="Layer 1"
     inkscape:groupmode="layer"
     id="layer1"
     transform="translate(-16.630948,34.938683)">
    <g
       id="g169"
       transform="matrix(1.7066666,0,0,1.7181208,-19.493494,-169.47266)">
      <path
         style="fill:#fefefe;stroke-width:0.26458335"
         d="M 21.166666,157.14881 V 78.302979 h 79.375004 79.375 v 78.845831 78.84584 h -79.375 -79.375004 z"
         id="path185"
         inkscape:connector-curvature="0" />
      <path
         style="fill:#fdf09e;stroke-width:0.26458335"
         d="M 60.984394,196.60163 C 39.302925,175.08024 21.563541,157.36809 21.563541,157.2413 c 0,-0.30045 78.717999,-78.541446 79.020269,-78.541446 0.31047,0 79.10306,78.226126 79.00958,78.441546 -0.0984,0.22668 -78.80368,78.43767 -79.01951,78.52321 -0.0928,0.0368 -17.908017,-17.54158 -39.589486,-39.06298 z"
         id="path183"
         inkscape:connector-curvature="0" />
      <path
         style="fill:#fbd800;stroke-width:0.26458335"
         d="M 60.934703,196.47007 21.460032,157.28111 45.853453,133.00528 C 59.269836,119.65357 77.092968,101.95884 85.460416,93.683659 l 15.213544,-15.04579 39.47421,39.189321 39.47422,39.18933 -24.65755,24.54077 c -13.56165,13.49743 -31.38458,31.19199 -39.60651,39.32126 l -14.94896,14.78049 z"
         id="path181"
         inkscape:connector-curvature="0" />
      <path
         style="fill:#ceb100;stroke-width:0.26458335"
         d="m 65.748831,191.8091 -34.659785,-34.66054 34.726309,-34.72631 34.726315,-34.726311 34.72631,34.726311 34.72631,34.72631 -34.65979,34.66054 c -19.06288,19.06331 -34.71966,34.66055 -34.79283,34.66055 -0.0732,0 -15.729957,-15.59724 -34.792839,-34.66055 z m 68.527339,-1.05833 33.60143,-33.60222 -33.66796,-33.66797 -33.66797,-33.667966 -33.667974,33.667966 -33.667968,33.66797 33.601433,33.60222 c 18.480786,18.48122 33.661319,33.60221 33.734509,33.60221 0.0732,0 15.25371,-15.12099 33.7345,-33.60221 z m -47.093039,16.77449 c -1.329044,-0.48642 -2.946963,-2.04766 -3.332456,-3.21571 -0.162295,-0.49176 -0.25345,-0.93358 -0.202565,-0.98183 0.05088,-0.0482 1.128628,-0.17293 2.394987,-0.27709 l 2.302473,-0.18938 0.175154,0.69787 c 0.370851,1.47759 2.075392,1.92388 3.169426,0.82985 0.863221,-0.86322 0.915641,-2.90953 0.101063,-3.9451 -0.688153,-0.87484 -1.988733,-0.93465 -3.001471,-0.13803 -0.658601,0.51805 -0.847696,0.53878 -2.575573,0.28233 -1.025634,-0.15223 -1.910429,-0.32242 -1.966214,-0.3782 -0.05579,-0.0558 0.210468,-2.02831 0.591672,-4.38338 l 0.693097,-4.28194 h 5.387806 5.387803 v 1.85208 1.85208 h -3.538802 -3.538802 l -0.167201,0.83601 c -0.09196,0.45981 -0.122645,0.88057 -0.06818,0.93504 0.05446,0.0545 0.629922,-0.0199 1.278802,-0.16538 1.388957,-0.31127 2.893767,-0.12396 4.182102,0.52058 4.220382,2.11139 3.181668,8.98883 -1.556377,10.30493 -1.37255,0.38126 -4.482227,0.29709 -5.716741,-0.15473 z m 12.035618,-2.23221 v -2.39118 l 2.447401,0.0761 2.44739,0.0761 0.0764,2.31511 0.0765,2.3151 h -2.52385 -2.523841 z m 12.435421,-2.75997 v -5.15114 l -1.78594,0.91652 c -0.98227,0.50409 -2.05383,0.9171 -2.38125,0.91781 -0.5589,0.001 -0.59518,-0.10794 -0.59319,-1.78464 l 0.002,-1.78594 1.91602,-0.92604 c 1.45973,-0.70551 2.13645,-1.22534 2.84165,-2.18281 l 0.92564,-1.25678 h 1.91872 1.91872 v 8.20209 8.20208 h -2.38125 -2.38125 v -5.15115 z M 49.943818,167.99787 c -3.316665,-0.99867 -5.169717,-4.35491 -5.421744,-9.81985 -0.307402,-6.66572 1.939423,-11.00392 6.152047,-11.87845 2.69036,-0.55852 5.094394,0.19591 6.851375,2.1501 1.615025,1.7963 2.276499,3.82119 2.459847,7.53002 0.389189,7.87262 -2.366325,12.31762 -7.597844,12.2563 -0.945885,-0.0111 -2.045541,-0.11824 -2.443681,-0.23812 z m 3.957357,-5.61591 c 0.913686,-0.85278 1.240597,-2.21811 1.253011,-5.23315 0.0097,-2.36656 -0.07733,-2.95828 -0.587779,-3.9942 -1.161548,-2.3573 -3.438922,-2.423 -4.54836,-0.13121 -1.049668,2.16833 -0.928502,7.35378 0.207608,8.88488 1.042511,1.40497 2.479321,1.59013 3.67552,0.47368 z m 5.894658,5.40731 c 0,-0.12428 1.137398,-2.65131 2.527551,-5.61562 l 2.527549,-5.38965 -2.262966,-4.92638 c -1.244631,-2.70951 -2.262968,-5.00868 -2.262968,-5.10926 0,-0.10058 1.179809,-0.18288 2.621796,-0.18288 h 2.621796 l 1.148517,2.90874 c 0.631685,1.5998 1.219324,2.90949 1.305869,2.91041 0.08654,9.3e-4 0.670579,-1.308 1.297856,-2.90873 l 1.140505,-2.91042 h 2.604746 c 1.432613,0 2.604749,0.0653 2.604749,0.14506 0,0.0798 -1.016437,2.39868 -2.258746,5.15311 l -2.258748,5.00806 2.523332,5.4496 c 1.387829,2.99729 2.523328,5.50042 2.523328,5.56252 0,0.0621 -1.22039,0.11167 -2.711979,0.11017 l -2.711979,-0.003 -1.322917,-3.16954 c -0.727604,-1.74325 -1.393933,-3.17077 -1.480732,-3.17227 -0.0868,-0.002 -0.752168,1.39626 -1.478601,3.10612 l -1.320786,3.10886 -2.688585,0.0754 c -1.478724,0.0415 -2.688587,-0.0263 -2.688587,-0.15057 z m 17.727083,-10.50816 v -10.71563 h 2.513542 2.513541 v 10.71563 10.71562 h -2.513541 -2.513542 z m 7.9375,0.0267 v -10.7423 h 4.441854 c 4.080187,0 4.537977,0.0485 5.622396,0.59531 1.405787,0.7089 2.695263,2.49635 3.364309,4.66356 0.655894,2.12461 0.653915,8.80548 -0.0032,10.92928 -0.591891,1.91289 -1.87888,3.60494 -3.383512,4.44842 -1.101448,0.61746 -1.467221,0.66663 -5.61004,0.75428 l -4.431771,0.0938 v -10.74231 z m 7.888801,5.06106 c 0.903967,-0.74435 1.19639,-1.90911 1.210884,-4.82315 0.0218,-4.38069 -0.78381,-5.95313 -3.04995,-5.95313 h -1.022652 v 5.71859 5.71858 l 1.256771,-0.18709 c 0.691224,-0.1029 1.413449,-0.31611 1.604947,-0.4738 z m 8.515363,-5.08773 v -10.71563 h 2.38125 2.38125 v 10.71563 10.71562 h -2.38125 -2.38125 z m 6.61459,8.44125 v -2.27437 l 4.10118,-6.06001 4.10117,-6.06 h -3.7043 -3.7043 v -2.38125 -2.38125 h 6.74687 6.74688 v 2.09563 2.09564 l -4.10105,6.08535 c -2.25557,3.34695 -4.10104,6.15438 -4.10104,6.23875 0,0.0844 1.905,0.15338 4.23334,0.15338 h 4.23333 v 2.38125 2.38125 h -7.27604 -7.27604 z m 16.40416,-8.44125 v -10.71563 h 6.21771 6.21771 v 2.38125 2.38125 h -3.83646 -3.83646 v 1.5875 1.5875 h 3.57188 3.57187 v 2.24896 2.24896 h -3.57187 -3.57188 v 1.98437 1.98438 h 3.96875 3.96875 v 2.51354 2.51354 h -6.35 -6.35 z m 15.08125,0 v -10.71563 h 4.87757 c 2.81286,0 5.19286,0.11946 5.6224,0.28221 1.92496,0.72935 2.98002,2.63927 2.9865,5.40633 0.006,2.62196 -0.38483,3.76903 -1.74988,5.13409 -1.15916,1.15915 -1.16365,1.17084 -0.66195,1.72066 0.27782,0.30447 0.71614,0.9703 0.97403,1.47963 0.42317,0.83572 2.768,7.01363 2.768,7.29282 0,0.0635 -1.23203,0.11551 -2.73785,0.11551 h -2.73784 l -1.14017,-3.10885 c -1.41557,-3.85977 -1.97571,-4.99986 -2.62803,-5.34897 -0.281,-0.15038 -0.57826,-0.27343 -0.66059,-0.27343 -0.0823,0 -0.14969,1.96453 -0.14969,4.36563 v 4.36562 h -2.38125 -2.38125 z m 8.11329,-2.92986 c 0.56808,-0.56808 0.65476,-0.84192 0.52318,-1.65278 -0.20599,-1.26936 -0.75831,-1.63507 -2.46933,-1.63507 h -1.40464 v 1.98437 1.98438 h 1.33494 c 1.08133,0 1.46431,-0.12936 2.01585,-0.6809 z M 89.164583,142.86131 v -1.05833 h 10.715625 10.715622 v 1.05833 1.05834 H 99.880208 89.164583 Z m 7.83636,-1.60032 c -1.716042,-0.43107 -4.108752,-1.86446 -5.246317,-3.1429 -1.893753,-2.12826 -3.113006,-5.70557 -2.73989,-8.03891 0.254717,-1.59291 -0.358865,-7.77949 -0.921978,-9.29603 -0.27314,-0.73561 -0.731578,-2.3519 -1.018751,-3.59178 -0.655948,-2.83206 -0.976673,-3.67844 -1.677337,-4.42641 -0.81965,-0.87499 -0.06883,-0.74478 1.115867,0.19352 0.547788,0.43385 1.501643,1.56495 2.119675,2.51354 0.61803,0.94859 1.16169,1.72471 1.20813,1.72471 0.04644,0 -0.26289,-1.02753 -0.687401,-2.2834 -0.882835,-2.61177 -1.763218,-3.91217 -3.070707,-4.53566 -0.834112,-0.39776 -0.865878,-0.45289 -0.367228,-0.63736 1.155549,-0.42746 2.211366,0.0963 4.210256,2.08876 1.075344,1.07186 2.088246,1.9052 2.250893,1.85186 0.162645,-0.0533 0.329483,-0.50449 0.370747,-1.00257 0.05756,-0.69478 -0.259392,-1.49071 -1.361564,-3.41913 -1.796026,-3.14243 -2.231671,-4.48601 -1.777648,-5.48249 l 0.327337,-0.71842 0.829299,1.54551 c 0.53702,1.0008 1.438934,2.07022 2.559048,3.03431 0.951362,0.81884 2.169644,1.93337 2.707293,2.47673 0.884388,0.89379 1.01676,0.94872 1.389063,0.57641 0.226335,-0.22633 0.411519,-0.50315 0.411519,-0.61515 0,-0.26396 -0.54062,-1.9473 -1.579089,-4.91683 -0.900911,-2.57618 -1.113427,-5.14552 -0.547198,-6.615696 0.476777,-1.237914 2.107497,-2.768377 3.831424,-3.595866 0.865064,-0.415233 1.625054,-0.702765 1.688854,-0.638959 0.0638,0.06381 -0.25629,0.540039 -0.71132,1.058296 -0.970454,1.105285 -1.749885,2.566948 -2.008978,3.767437 -0.329282,1.525688 0.473017,3.467518 2.663868,6.447488 2.40018,3.26467 2.99597,4.46186 3.01504,6.05848 0.0134,1.12525 0.0366,1.16157 0.42093,0.66146 0.34499,-0.44888 0.37903,-1.15471 0.22432,-4.6522 -0.17037,-3.85183 -0.0728,-5.27149 0.36217,-5.26839 0.0993,7.2e-4 0.1889,0.86391 0.19905,1.91823 0.0129,1.34354 0.28222,2.82709 0.90026,4.95965 0.5792,1.9985 0.89068,3.65514 0.9076,4.82728 0.0142,0.98151 0.0943,1.78518 0.1781,1.78593 0.0838,8e-4 0.40096,-0.26652 0.70485,-0.59394 0.74683,-0.80464 1.39737,-3.18447 1.6314,-5.96805 0.1869,-2.22298 0.20563,-2.27354 0.55818,-1.50643 0.61395,1.33591 0.48011,6.27395 -0.22163,8.17736 -0.31689,0.85952 -0.57616,1.61436 -0.57616,1.6774 0,0.0631 0.46551,-0.47428 1.03446,-1.19406 0.56896,-0.71979 1.35892,-1.56392 1.75547,-1.87585 0.86241,-0.67836 2.29215,-0.74289 2.80007,-0.12638 0.32595,0.39565 0.29363,0.42347 -0.31584,0.27175 -0.89282,-0.22224 -1.77761,0.40943 -2.28949,1.63453 -0.74778,1.78969 -2.12502,10.41613 -2.29813,14.3945 -0.12677,2.91336 -0.79495,4.90364 -2.27476,6.77574 -1.19715,1.5145 -2.07651,2.18085 -4.10148,3.10791 -1.66919,0.76418 -4.816014,1.05775 -6.582277,0.61407 z m 6.654427,-2.09245 c 1.95568,-1.04245 3.32105,-2.46506 4.19224,-4.36799 2.76755,-6.04514 -1.69148,-12.9475 -8.364277,-12.9475 -4.213628,0 -7.701778,2.68448 -8.88001,6.83403 -1.075941,3.78932 0.66329,8.1404 4.046424,10.12305 2.010159,1.17803 2.96151,1.41956 5.230461,1.32794 1.797932,-0.0726 2.366402,-0.2186 3.775162,-0.96953 z M 92.335532,122.81913 c -0.0021,-0.25467 -0.104722,-0.62184 -0.227764,-0.81594 -0.178456,-0.28152 -0.257921,-0.26376 -0.392824,0.0878 -0.280234,0.73028 -0.192106,1.19117 0.227764,1.19117 0.218281,0 0.395052,-0.20836 0.392824,-0.46302 z m 15.349888,-0.59532 c 0,-0.27386 -0.11049,-0.56622 -0.24554,-0.64968 -0.30039,-0.18565 -0.64784,0.8036 -0.41472,1.1808 0.24131,0.39045 0.66026,0.0534 0.66026,-0.53112 z m -11.250021,-2.6623 c -0.171119,-0.53914 -0.215548,-0.5534 -0.445299,-0.14285 -0.14037,0.25082 -0.181817,0.64731 -0.09211,0.88109 0.257255,0.67039 0.763686,-0.0253 0.537409,-0.73824 z m 7.791841,0.47949 c -0.0102,-0.1819 -0.11679,-0.56885 -0.2368,-0.8599 -0.20762,-0.50349 -0.23089,-0.49707 -0.47951,0.1323 -0.14372,0.3638 -0.20872,0.75075 -0.14446,0.85989 0.19352,0.32867 0.88075,0.22305 0.86077,-0.13229 z m -3.93427,-0.34987 c 0.28652,-0.34523 0.26221,-0.66038 -0.14287,-1.85208 -0.268472,-0.78984 -0.571681,-1.43607 -0.673795,-1.43607 -0.223406,0 -1.051306,2.10097 -1.051306,2.66791 0,0.95936 1.243777,1.37235 1.867971,0.62024 z"
         id="path179"
         inkscape:connector-curvature="0" />
      <path
         style="fill:#a89000;stroke-width:0.26458335"
         d="m 65.881122,191.67681 -34.527491,-34.52825 34.594018,-34.59402 34.594021,-34.594016 34.59401,34.594016 34.59402,34.59402 -34.52749,34.52825 c -18.99012,18.99054 -34.58737,34.52826 -34.66054,34.52826 -0.0732,0 -15.670428,-15.53772 -34.660548,-34.52826 z m 68.395048,-0.92604 33.60143,-33.60222 -33.66796,-33.66797 -33.66797,-33.667966 -33.667974,33.667966 -33.667968,33.66797 33.601433,33.60222 c 18.480786,18.48122 33.661319,33.60221 33.734509,33.60221 0.0732,0 15.25371,-15.12099 33.7345,-33.60221 z m -46.302212,16.96748 c -1.857465,-0.4916 -3.113194,-1.49865 -3.962752,-3.17798 -0.51026,-1.00864 -0.284364,-1.34064 0.920043,-1.3522 0.363802,-0.004 1.286537,-0.0814 2.050521,-0.1732 1.192054,-0.14318 1.389063,-0.10363 1.389063,0.27891 0,0.67843 1.212704,1.74462 1.984375,1.74462 0.377031,0 0.977754,-0.29225 1.334942,-0.64943 0.870812,-0.87081 0.933288,-3.17944 0.109958,-4.06318 -0.694756,-0.74574 -2.159963,-0.76532 -3.175151,-0.0424 -0.689229,0.49077 -0.906791,0.51214 -2.546765,0.25015 -0.986237,-0.15755 -1.810205,-0.30973 -1.831044,-0.33818 -0.02085,-0.0284 0.266729,-1.98648 0.639037,-4.35119 l 0.676929,-4.29948 h 5.372608 5.372611 v 1.85208 1.85208 h -3.541017 c -3.448505,0 -3.545184,0.0156 -3.700552,0.59532 -0.336603,1.25602 -0.224357,1.53015 0.511918,1.25022 0.373274,-0.14192 1.347716,-0.25804 2.165424,-0.25804 1.940229,0 3.485441,0.75057 4.468545,2.17054 0.662332,0.95665 0.755952,1.32821 0.74766,2.96726 -0.01286,2.54013 -1.029547,4.2771 -3.143321,5.37018 -0.886447,0.4584 -4.620911,0.69741 -5.843032,0.37396 z m 11.244791,-2.28298 v -2.24896 H 101.6 h 2.38125 v 2.24896 2.24896 H 101.6 99.218749 Z m 12.435421,-2.93246 c 0,-2.84979 -0.0893,-5.13707 -0.19844,-5.08285 -2.81906,1.40042 -3.69524,1.79722 -3.96875,1.7974 -0.23285,1.4e-4 -0.33073,-0.54352 -0.33073,-1.83704 v -1.83725 l 1.6029,-0.71934 c 1.45984,-0.65513 3.68877,-2.65902 3.68877,-3.31633 0,-0.12504 0.89296,-0.22734 1.98437,-0.22734 h 1.98438 v 8.20209 8.20208 h -2.38125 -2.38125 z M 50.269121,168.0141 c -4.000787,-1.21698 -6.129609,-5.68945 -5.738414,-12.05591 0.391749,-6.37549 3.033653,-9.6483 7.79353,-9.65471 3.18311,-0.004 5.189363,1.32373 6.5731,4.35097 1.253802,2.74298 1.490062,8.37759 0.494189,11.78603 -0.824336,2.82134 -2.862917,5.06189 -5.072219,5.57474 -1.201664,0.27894 -3.131246,0.27841 -4.050186,-0.001 z m 3.154172,-5.16509 c 1.082535,-0.5598 1.624102,-1.94464 1.793973,-4.58735 0.28032,-4.36102 -0.818714,-6.93368 -2.962058,-6.93368 -1.919224,0 -3.042709,2.14927 -3.042709,5.82083 0,2.52326 0.48074,4.23783 1.463884,5.22097 0.948518,0.94852 1.614665,1.06474 2.74691,0.47923 z m 6.37254,5.03482 c 0,-0.0621 1.131093,-2.55572 2.513541,-5.54138 1.382448,-2.98566 2.513542,-5.50086 2.513542,-5.58933 0,-0.0885 -1.012031,-2.3615 -2.248958,-5.05117 -1.236927,-2.68967 -2.248959,-4.9457 -2.248959,-5.01339 0,-0.0677 1.172136,-0.12308 2.604749,-0.12308 h 2.604746 l 1.145562,2.92332 c 0.630057,1.60782 1.217366,2.9677 1.305134,3.02194 0.08776,0.0542 0.692081,-1.26113 1.342921,-2.92306 l 1.183347,-3.02168 2.607995,-2.6e-4 c 1.982023,-2e-4 2.575618,0.0791 2.473108,0.33047 -0.07419,0.1819 -1.116206,2.50369 -2.315596,5.15952 l -2.180712,4.8288 2.423046,5.22537 c 1.332675,2.87395 2.421485,5.37851 2.41958,5.56568 -0.0026,0.25899 -0.616563,0.32222 -2.569128,0.26459 l -2.565664,-0.0757 -0.861536,-1.98438 c -0.473845,-1.0914 -1.112875,-2.57968 -1.420069,-3.30729 l -0.558536,-1.32291 -1.475459,3.37343 -1.47546,3.37344 h -2.608598 c -1.434727,0 -2.608596,-0.0508 -2.608596,-0.1129 z m 17.903473,-0.0635 c -0.09702,-0.097 -0.17639,-4.91904 -0.17639,-10.71562 v -10.53924 h 2.38125 2.38125 v 10.71563 10.71562 h -2.20486 c -1.212676,0 -2.284238,-0.0794 -2.38125,-0.17639 z m 8.025693,-10.52948 v -10.76909 l 4.597443,0.088 c 4.463341,0.0854 4.625705,0.10813 5.56646,0.77805 1.395169,0.9935 2.213861,2.22696 2.87864,4.33704 0.499176,1.58443 0.580356,2.42561 0.561753,5.82083 -0.0241,4.40028 -0.380037,5.84309 -1.989529,8.06494 -1.322099,1.8251 -2.523257,2.20184 -7.447579,2.33589 l -4.167188,0.11343 z m 7.255571,5.30752 c 1.265322,-0.52869 1.61026,-1.70497 1.598049,-5.44957 -0.01431,-4.38702 -0.710803,-5.55625 -3.309818,-5.55625 h -1.045885 v 5.68855 5.68854 h 0.93454 c 0.513996,0 1.334397,-0.16707 1.823114,-0.37127 z m 8.88401,-5.31727 v -10.71563 h 2.38125 2.38125 v 10.71563 10.71562 h -2.38125 -2.38125 z m 6.87917,8.33007 v -2.38556 l 3.97162,-5.94882 3.97163,-5.94882 h -3.57475 -3.57475 v -2.38125 -2.38125 h 6.48229 6.48229 v 2.26394 2.26394 l -4.11689,6.07043 -4.1169,6.07044 h 4.24919 4.24919 v 2.38125 2.38125 h -7.01146 -7.01146 z m 16.13958,-8.32529 v -10.72041 h 6.21771 6.21771 v 2.38125 2.38125 h -3.83646 -3.83646 v 1.5875 1.5875 h 3.58258 3.58257 l -0.0768,2.18281 -0.0769,2.18282 -3.50573,0.0738 -3.50573,0.0738 v 1.97669 1.9767 h 3.97868 3.97868 l -0.0761,2.44739 -0.0761,2.4474 -6.28385,0.0709 -6.28386,0.0709 z m 15.08125,-0.005 v -10.71563 h 4.6981 c 2.58396,0 5.10507,0.11672 5.60248,0.25937 2.16228,0.62014 3.34646,2.95839 3.13531,6.19092 -0.16976,2.59885 -1.27145,4.58685 -2.93198,5.29069 -0.21741,0.0922 -0.17315,0.22601 0.14044,0.42477 0.74632,0.47303 1.68115,2.31289 2.93618,5.77874 0.83966,2.31879 1.08702,3.29601 0.85667,3.3844 -0.17813,0.0684 -1.38537,0.0896 -2.68276,0.0472 l -2.35889,-0.0771 -1.52553,-3.96875 c -0.83904,-2.18281 -1.72564,-4.11758 -1.97022,-4.29948 -1.06458,-0.79176 -1.1373,-0.53377 -1.1373,4.0349 v 4.36562 h -2.38125 -2.38125 z m 8.21563,-2.68584 c 0.52419,-0.52419 0.60785,-2.16109 0.14644,-2.86529 -0.38614,-0.58932 -0.62006,-0.66658 -2.01817,-0.66658 h -1.5814 v 2.01617 2.01618 l 1.59144,-0.11512 c 0.87529,-0.0633 1.71305,-0.23672 1.86169,-0.38536 z M 89.164583,142.99361 v -0.92605 h 10.715625 10.715622 v 0.92605 0.92604 H 99.880208 89.164583 Z m 8.214069,-1.72937 c -3.008144,-0.62761 -5.952247,-2.92504 -7.313314,-5.70696 -0.689081,-1.40843 -0.751723,-1.81769 -0.930746,-6.08055 -0.229788,-5.47166 -0.43615,-7.34271 -0.945843,-8.57583 -0.210521,-0.50933 -0.679159,-2.1762 -1.041418,-3.70417 -0.362257,-1.52797 -0.96043,-3.29416 -1.329272,-3.92486 -0.564545,-0.96535 -0.593553,-1.10546 -0.183404,-0.88575 0.865817,0.46381 1.818034,1.48147 2.960875,3.16437 0.614865,0.90543 1.16146,1.64624 1.214652,1.64624 0.177887,0 -0.965036,-3.55984 -1.444101,-4.49792 -0.539639,-1.05669 -1.361152,-1.86575 -2.50879,-2.47077 l -0.79375,-0.41846 1.190625,-0.009 c 1.423162,-0.0106 2.078426,0.38742 4.009112,2.43506 1.567532,1.66248 1.979904,1.82752 2.313961,0.92604 0.259501,-0.70028 -0.161271,-2.05008 -1.105196,-3.54535 -1.396659,-2.21244 -2.042877,-3.78239 -2.042877,-4.96304 0,-0.65109 0.0939,-1.24184 0.208674,-1.31277 0.114771,-0.0709 0.46922,0.43897 0.787665,1.13311 0.817142,1.7812 6.236946,6.84761 6.813433,6.36917 0.576303,-0.47829 0.509633,-0.86585 -0.797332,-4.6351 -1.831509,-5.28202 -1.627831,-7.752388 0.816094,-9.898182 0.904629,-0.794274 2.96913,-1.867095 3.59297,-1.867095 0.14583,0 -0.21481,0.545244 -0.80141,1.211654 -1.303985,1.48141 -2.015061,3.449064 -1.77928,4.923553 0.228248,1.42739 0.938538,2.75314 2.85376,5.32652 1.93409,2.59874 2.85144,4.46315 2.85492,5.80234 0.003,1.08144 0.38969,1.32744 0.67482,0.42909 0.0983,-0.3097 0.0969,-2.42306 -0.003,-4.69636 -0.14299,-3.25085 -0.10673,-4.2324 0.16984,-4.59765 0.30263,-0.39968 0.35478,-0.17842 0.37414,1.5875 0.0164,1.49227 0.26376,2.88175 0.90711,5.0946 0.55761,1.91793 0.89162,3.65388 0.90355,4.69603 0.0131,1.14635 0.12153,1.65342 0.35355,1.65365 0.96188,0.001 2.17892,-3.91607 2.17892,-7.01283 0,-0.96213 0.1053,-1.68425 0.234,-1.6047 0.43063,0.26614 0.89812,3.62002 0.74025,5.31065 -0.0853,0.91357 -0.4049,2.4025 -0.71019,3.30875 -0.30529,0.90624 -0.51263,1.69016 -0.46075,1.74204 0.0519,0.0519 0.54069,-0.50358 1.08626,-1.23435 1.58004,-2.11639 3.1598,-2.83907 4.28538,-1.96039 0.48831,0.3812 0.47811,0.3929 -0.20735,0.23758 -0.94283,-0.21364 -2.16184,0.95998 -2.56946,2.47377 -0.80358,2.98432 -2.13355,11.93938 -2.13355,14.36593 0,4.03308 -2.88388,7.9867 -6.83046,9.36415 -1.49396,0.52143 -4.113416,0.70884 -5.592968,0.40015 z m 5.468198,-1.62092 c 2.31657,-0.86558 4.56139,-3.21768 5.35792,-5.61398 1.51753,-4.56538 -0.59731,-9.45934 -4.96528,-11.49019 -1.25776,-0.58478 -1.8794,-0.70076 -3.756157,-0.70076 -1.873798,0 -2.491709,0.11492 -3.704167,0.68891 -2.152716,1.01911 -3.557357,2.37608 -4.55295,4.39841 -0.790715,1.60617 -0.870799,1.98929 -0.868749,4.15608 0.0019,2.07186 0.09952,2.58548 0.739328,3.89233 0.922541,1.88437 3.150875,3.96414 5.014942,4.6806 1.932559,0.74279 4.729333,0.73806 6.735113,-0.0114 z M 92.335532,122.81913 c -0.0021,-0.25467 -0.115179,-0.63875 -0.250997,-0.85353 -0.201311,-0.31835 -0.292608,-0.26945 -0.494049,0.26458 -0.282921,0.75004 -0.177347,1.05197 0.367837,1.05197 0.209693,0 0.379437,-0.20836 0.377209,-0.46302 z m 15.345838,-0.39688 c -0.002,-0.32742 -0.10473,-0.75412 -0.22777,-0.94823 -0.17845,-0.28152 -0.25792,-0.26376 -0.39282,0.0878 -0.29279,0.76301 -0.18441,1.45575 0.22776,1.45575 0.23639,0 0.39524,-0.24073 0.39283,-0.59531 z M 96.568865,120.041 c -0.0021,-0.32742 -0.104722,-0.75412 -0.227764,-0.94823 -0.178456,-0.28152 -0.257921,-0.26376 -0.392824,0.0878 -0.29279,0.76301 -0.184407,1.45575 0.227764,1.45575 0.236387,0 0.395237,-0.24073 0.392824,-0.59531 z m 7.672915,-0.13229 c -0.002,-0.25466 -0.10849,-0.62793 -0.23614,-0.8295 -0.18522,-0.29245 -0.29375,-0.25127 -0.53735,0.20391 -0.1679,0.31371 -0.2332,0.68698 -0.14512,0.8295 0.26833,0.43416 0.92292,0.28886 0.91861,-0.20391 z m -4.11863,0.0378 c 0.23019,-0.0883 0.41852,-0.41177 0.41852,-0.71876 0,-0.67749 -0.794585,-2.82481 -1.04528,-2.82481 -0.31954,0 -1.071391,1.84754 -1.071391,2.63276 0,0.93388 0.683162,1.30029 1.698151,0.91081 z"
         id="path177"
         inkscape:connector-curvature="0" />
      <path
         style="fill:#8d7a00;stroke-width:0.26458335"
         d="m 65.881122,191.67681 -34.527491,-34.52825 34.594018,-34.59402 34.594021,-34.594016 34.59401,34.594016 34.59402,34.59402 -34.52749,34.52825 c -18.99012,18.99054 -34.58737,34.52826 -34.66054,34.52826 -0.0732,0 -15.670428,-15.53772 -34.660548,-34.52826 z m 68.524268,-0.79068 33.73065,-33.73143 -33.7996,-33.80346 -33.7996,-33.803469 -33.789771,33.808469 -33.789771,33.80847 33.725649,33.72643 c 18.549107,18.54953 33.785533,33.72643 33.858723,33.72643 0.0732,0 15.31186,-15.17915 33.86372,-33.73144 z m -47.035836,16.56246 c -1.6735,-0.57806 -2.605722,-1.38172 -3.252967,-2.80438 -0.587127,-1.2905 -0.527751,-1.33311 2.203725,-1.5813 1.700808,-0.15455 2.050521,-0.12088 2.050521,0.19744 0,0.21107 0.246766,0.69748 0.54837,1.08091 0.716812,0.91128 2.031823,0.95046 2.845093,0.0848 0.796603,-0.84794 0.824649,-3.3716 0.04612,-4.15013 -0.687329,-0.68733 -2.203897,-0.69149 -3.162829,-0.009 -0.65391,0.46563 -0.907222,0.49212 -2.402761,0.25127 -0.919482,-0.14808 -1.750594,-0.31794 -1.846918,-0.37747 -0.09633,-0.0595 0.136776,-1.98831 0.518003,-4.28617 l 0.69314,-4.17791 5.34964,-0.0716 5.349642,-0.0716 v 1.85756 1.85756 h -3.541017 c -3.448505,0 -3.545184,0.0156 -3.700552,0.59532 -0.336603,1.25602 -0.224357,1.53015 0.511918,1.25022 0.900105,-0.34222 3.332684,-0.32889 4.26503,0.0234 1.683666,0.63613 3.240736,2.89329 3.25256,4.71497 0.01641,2.52856 -1.75337,5.03856 -4.029191,5.7144 -1.793417,0.53259 -3.979918,0.49478 -5.697527,-0.0985 z m 11.849195,-2.01332 v -2.24896 H 101.6 h 2.38125 v 2.24896 2.24896 H 101.6 99.218749 Z m 12.611811,2.07257 c -0.097,-0.097 -0.17639,-2.48637 -0.17639,-5.30968 v -5.1333 l -0.76336,0.54356 c -0.7874,0.56068 -3.06262,1.60914 -3.49191,1.60914 -0.13346,0 -0.24265,-0.81756 -0.24265,-1.8168 v -1.81681 l 1.27373,-0.52934 c 1.44703,-0.60136 3.01528,-1.88404 3.68067,-3.01045 0.43191,-0.73117 0.53442,-0.7641 2.37869,-0.7641 h 1.92733 v 8.20209 8.20208 h -2.20486 c -1.21268,0 -2.28424,-0.0794 -2.38125,-0.17639 z M 50.403124,168.01391 c -4.397946,-1.07067 -6.80133,-7.01916 -5.672656,-14.0401 0.796102,-4.95217 3.465904,-7.67291 7.529246,-7.67291 4.67587,0 7.330654,3.32099 7.719994,9.65729 0.515432,8.38832 -3.561112,13.52018 -9.576584,12.05572 z m 3.020169,-5.1649 c 1.150265,-0.59482 1.679297,-2.02674 1.818751,-4.92277 0.207645,-4.31214 -0.84663,-6.59826 -3.04287,-6.59826 -2.087414,0 -3.170264,2.55436 -2.923156,6.89548 0.146224,2.56883 0.707654,4.04271 1.757206,4.61308 0.893355,0.48548 1.469549,0.48849 2.390069,0.0125 z m 6.574359,4.99676 c -0.08303,-0.083 0.968692,-2.54611 2.337154,-5.47353 1.368459,-2.92742 2.48811,-5.45859 2.48811,-5.62483 0,-0.16623 -1.012031,-2.47897 -2.248958,-5.13941 -1.236927,-2.66044 -2.248959,-4.88337 -2.248959,-4.93984 0,-0.0565 1.16086,-0.10256 2.579688,-0.10242 l 2.579687,2.6e-4 1.190625,3.04219 c 0.654844,1.67321 1.263965,3.04231 1.353601,3.04245 0.08964,1.4e-4 0.68495,-1.36693 1.322916,-3.03794 l 1.159942,-3.0382 2.583238,-0.005 2.583238,-0.005 -0.363982,0.8599 c -0.200189,0.47294 -1.213818,2.73344 -2.252509,5.02332 -1.038691,2.28986 -1.888527,4.27188 -1.888527,4.40447 0,0.13259 1.071562,2.56781 2.38125,5.4116 1.309688,2.84379 2.38125,5.30116 2.38125,5.46081 0,0.19585 -0.830876,0.26565 -2.553782,0.21457 l -2.553782,-0.0757 -1.298671,-3.04271 c -0.714269,-1.67349 -1.386308,-3.13159 -1.493422,-3.24023 -0.107116,-0.10863 -0.833969,1.29035 -1.615231,3.10886 l -1.420476,3.30637 h -2.425721 c -1.334146,0 -2.493651,-0.0679 -2.576679,-0.15096 z m 17.701654,-0.0254 c -0.09702,-0.097 -0.17639,-4.91905 -0.17639,-10.71563 V 146.5655 h 2.38125 2.38125 v 10.71563 10.71562 h -2.20486 c -1.212676,0 -2.284238,-0.0794 -2.38125,-0.17639 z m 8.025693,-10.53924 V 146.5655 l 4.167188,0.006 c 4.746297,0.007 5.662049,0.25609 7.146584,1.94688 1.106241,1.25994 1.61368,2.47175 2.062929,4.92648 0.727782,3.97663 0.363779,8.04513 -0.964517,10.78046 -1.452327,2.99075 -3.316195,3.75615 -9.171038,3.76611 l -3.241146,0.006 z m 7.246144,5.43532 c 1.046324,-0.39781 1.55045,-1.70289 1.690193,-4.37555 0.152932,-2.92494 -0.284726,-5.26451 -1.145926,-6.12571 -0.489223,-0.48922 -0.908603,-0.62261 -1.957552,-0.62261 h -1.334942 v 5.68855 5.68854 h 1.041109 c 0.572611,0 1.340813,-0.11395 1.707118,-0.25322 z m 9.069827,5.10391 c -0.097,-0.097 -0.17639,-4.91904 -0.17639,-10.71562 V 146.5655 h 2.38125 2.38125 v 10.71563 10.71562 h -2.20486 c -1.21267,0 -2.28424,-0.0794 -2.38125,-0.17639 z m 6.70278,-2.22835 v -2.40473 l 3.96479,-5.8635 3.96478,-5.86349 -3.56791,-0.0736 -3.56791,-0.0736 v -2.37379 -2.37378 h 6.48229 6.48229 v 2.21485 2.21485 l -4.11215,6.11953 -4.11215,6.11952 h 4.24444 4.24445 v 2.38125 2.38125 h -7.01146 -7.01146 z m 16.13958,-8.3061 V 146.5655 h 6.22801 6.22801 l -0.0764,2.3151 -0.0764,2.31511 -3.77031,0.0734 -3.77032,0.0734 v 1.58024 1.58023 h 3.58258 3.58257 l -0.0768,2.18281 -0.0769,2.18282 -3.50573,0.0738 -3.50573,0.0738 v 1.97669 1.9767 h 3.97868 3.97868 l -0.0761,2.44739 -0.0761,2.4474 -6.28385,0.0709 -6.28386,0.0709 z m 15.08125,-0.0147 v -10.74615 l 5.09323,0.0864 c 5.86173,0.0994 6.4437,0.27912 7.60677,2.34886 0.56995,1.01426 0.6612,1.50654 0.65956,3.55835 -0.002,1.94856 -0.10838,2.58104 -0.58793,3.48072 -0.53326,1.00046 -1.44454,1.93375 -2.26772,2.32249 -0.23914,0.11294 -0.23255,0.1891 0.0267,0.30873 0.64724,0.29868 1.66033,2.24355 2.841,5.454 0.64925,1.76544 1.18047,3.37222 1.18047,3.57062 0,0.28494 -0.53774,0.34482 -2.55951,0.285 l -2.55951,-0.0757 -1.52893,-3.96308 c -0.84091,-2.1797 -1.73595,-4.11446 -1.98897,-4.29948 -1.06091,-0.77575 -1.1363,-0.5293 -1.21226,3.96308 l -0.0727,4.29948 -2.3151,0.0764 -2.31511,0.0764 v -10.74615 z m 8.20209,-2.7682 c 0.65572,-0.65572 0.70578,-2.27671 0.0913,-2.95573 -0.32907,-0.36362 -0.82218,-0.48385 -1.98438,-0.48385 h -1.54649 v 1.98437 1.98438 h 1.45521 c 1.10243,0 1.58349,-0.12829 1.98438,-0.52917 z m -59.002087,-11.5094 v -0.92605 h 10.715625 10.715622 v 0.92605 0.92604 H 99.880208 89.164583 Z m 8.334375,-1.71169 c -3.151638,-0.67963 -6.129481,-3.04552 -7.432675,-5.90525 -0.691002,-1.51633 -0.762651,-1.98125 -0.926066,-6.00911 -0.227071,-5.59687 -0.419057,-7.12251 -1.181984,-9.39271 -0.342328,-1.01864 -0.755149,-2.53661 -0.917381,-3.37327 -0.162232,-0.83665 -0.621401,-2.16834 -1.020374,-2.95931 -0.514107,-1.01923 -0.604988,-1.37219 -0.312005,-1.21174 0.638713,0.34978 2.229919,2.1156 3.179157,3.52802 0.471419,0.70145 0.902049,1.23044 0.956956,1.17554 0.05491,-0.0549 -0.22446,-1.09176 -0.620816,-2.3041 -0.724884,-2.21724 -2.306122,-4.51243 -3.108767,-4.51243 -0.197326,0 -0.432358,-0.11906 -0.522295,-0.26458 -0.09892,-0.16004 0.267419,-0.26458 0.927179,-0.26458 0.995759,0 1.272037,0.17273 3.173862,1.98437 1.145739,1.09141 2.205572,1.98438 2.355189,1.98438 0.149614,0 0.391329,-0.22292 0.537141,-0.49538 0.354322,-0.66205 0.0098,-1.7878 -1.124236,-3.67395 -1.593725,-2.65062 -2.032677,-3.70967 -2.032677,-4.90416 0,-0.63639 0.07391,-1.23098 0.164235,-1.3213 0.09033,-0.0903 0.455038,0.41933 0.810466,1.13257 0.436367,0.87568 1.590535,2.17441 3.554034,3.99919 2.717872,2.52586 2.936709,2.67348 3.350271,2.25992 0.409824,-0.40983 0.41134,-0.55447 0.02056,-1.96083 -0.23205,-0.83509 -0.749953,-2.41132 -1.150898,-3.50273 -0.854649,-2.32644 -1.135983,-5.04988 -0.66811,-6.467553 0.469234,-1.421787 1.717771,-2.71499 3.480126,-3.604623 2.05566,-1.037696 2.32513,-0.977821 1.2007,0.266787 -1.437561,1.591213 -1.869437,2.595327 -1.884471,4.38143 -0.01624,1.931339 0.402217,2.844459 2.718771,5.932439 2.10228,2.80234 2.94782,4.54526 2.96223,6.1061 0.0104,1.12846 0.0325,1.163 0.42271,0.66146 0.35083,-0.45092 0.38731,-1.1747 0.24671,-4.89479 -0.10615,-2.80826 -0.0687,-4.5072 0.10499,-4.7625 0.19795,-0.29097 0.27168,0.0267 0.27631,1.19062 0.004,0.99235 0.40139,3.07539 1.06012,5.55625 1.10491,4.16123 1.23316,5.1321 0.78783,5.96419 -0.23978,0.44804 -0.20223,0.48152 0.33073,0.29484 1.24139,-0.43481 2.29958,-3.66685 2.34261,-7.15503 l 0.0216,-1.74983 0.41716,0.92604 c 0.67056,1.48854 0.59847,5.26598 -0.14572,7.63476 -0.33628,1.07041 -0.56711,1.99053 -0.51294,2.04469 0.0542,0.0542 0.56404,-0.512 1.13305,-1.25814 1.63331,-2.14173 3.12325,-2.81825 4.24023,-1.92532 0.49616,0.39664 0.49231,0.40468 -0.11325,0.23675 -1.56926,-0.43517 -2.6015,1.24452 -3.34192,5.4381 -0.81068,4.59147 -1.19991,7.50908 -1.41187,10.58333 -0.17128,2.48406 -0.34738,3.34742 -0.95912,4.70233 -0.97272,2.15438 -3.45524,4.53919 -5.53531,5.31744 -1.70531,0.63804 -4.347377,0.89614 -5.85202,0.57167 z m 6.175532,-1.99264 c 1.87497,-1.0237 3.30252,-2.4924 4.20108,-4.32216 0.63956,-1.30236 0.73589,-1.81074 0.73589,-3.88373 0,-2.15745 -0.0824,-2.55265 -0.86246,-4.13871 -1.00368,-2.04063 -2.43674,-3.43913 -4.52975,-4.42052 -1.24108,-0.58193 -1.85884,-0.69722 -3.735917,-0.69722 -1.877079,0 -2.494839,0.11529 -3.73592,0.69722 -2.015267,0.94494 -3.422872,2.2802 -4.465113,4.23565 -1.023811,1.92087 -1.322581,4.37647 -0.798349,6.56171 0.658858,2.74643 3.162052,5.47049 5.992604,6.52137 0.686398,0.25483 1.804982,0.35301 3.403653,0.29873 2.042182,-0.0693 2.582452,-0.1907 3.794282,-0.85234 z M 92.335532,122.68683 c -0.0071,-1.04748 -0.396947,-1.35165 -0.74717,-0.58299 -0.345916,0.75921 -0.214329,1.17831 0.369961,1.17831 0.220192,0 0.379548,-0.2515 0.377209,-0.59532 z m 15.469918,0.086 c 0.0832,-0.13462 0.0101,-0.55472 -0.16256,-0.93355 -0.35023,-0.76866 -0.74004,-0.46449 -0.74717,0.58299 -0.004,0.59322 0.61285,0.83093 0.90973,0.35056 z m -11.165944,-2.29128 c 0.08513,-0.0851 0.0298,-0.51333 -0.122967,-0.95154 -0.204452,-0.5865 -0.337326,-0.70275 -0.50351,-0.44053 -0.545878,0.86134 -0.0173,2.03585 0.626477,1.39207 z m 7.587734,-0.57282 c -0.0102,-0.25466 -0.10504,-0.68266 -0.2107,-0.95111 -0.17138,-0.43547 -0.22679,-0.41194 -0.51393,0.21827 -0.17701,0.38849 -0.25376,0.81649 -0.17057,0.9511 0.26226,0.42433 0.91462,0.26528 0.8952,-0.21826 z m -4.10409,0.0378 c 0.57123,-0.2192 0.51901,-1.31203 -0.131193,-2.74547 l -0.538088,-1.18628 -0.514435,1.14902 c -0.977426,2.18316 -0.454903,3.41153 1.183716,2.78273 z"
         id="path175"
         inkscape:connector-curvature="0" />
      <path
         style="fill:#736300;stroke-width:0.26458335"
         d="m 65.881122,191.67681 -34.527491,-34.52825 34.594018,-34.59402 34.594021,-34.594016 34.59401,34.594016 34.59402,34.59402 -34.52749,34.52825 c -18.99012,18.99054 -34.58737,34.52826 -34.66054,34.52826 -0.0732,0 -15.670428,-15.53772 -34.660548,-34.52826 z m 68.524268,-0.79068 33.73065,-33.73143 -33.7996,-33.80346 -33.7996,-33.803469 -33.789771,33.808469 -33.789771,33.80847 33.725649,33.72643 c 18.549107,18.54953 33.785533,33.72643 33.858723,33.72643 0.0732,0 15.31186,-15.17915 33.86372,-33.73144 z M 88.031505,207.66 c -2.041118,-0.48063 -3.288946,-1.47752 -4.010227,-3.20379 -0.482398,-1.15454 -0.513297,-1.13662 2.431326,-1.41006 1.590275,-0.14767 1.918229,-0.11178 1.918229,0.20992 0,0.21343 0.246766,0.70176 0.54837,1.08519 0.716812,0.91128 2.031823,0.95046 2.845093,0.0848 0.796603,-0.84794 0.824649,-3.3716 0.04612,-4.15013 -0.701072,-0.70107 -2.350617,-0.70525 -3.236772,-0.008 -0.586738,0.46152 -0.839849,0.49189 -2.218494,0.26611 -0.855906,-0.14016 -1.645489,-0.25554 -1.75463,-0.25638 -0.324162,-0.002 -0.20089,-1.51354 0.421029,-5.16091 l 0.586491,-3.43958 5.350148,-0.0716 5.350145,-0.0716 v 1.85756 1.85756 h -3.543568 c -3.815871,0 -3.864766,0.0186 -3.864766,1.47031 0,0.57044 0.06733,0.60767 0.678683,0.37523 0.914834,-0.34782 3.007267,-0.32616 4.110482,0.0426 1.755672,0.58677 3.393239,2.77037 3.407108,4.54319 0.02191,2.80084 -1.944065,5.43297 -4.461179,5.97279 -1.590892,0.34119 -3.174487,0.34364 -4.603588,0.007 z m 11.187244,-2.22473 v -2.24896 H 101.6 h 2.38125 v 2.24896 2.24896 H 101.6 99.218749 Z m 12.611811,2.07257 c -0.097,-0.097 -0.17639,-2.47995 -0.17639,-5.29542 v -5.11903 l -0.99219,0.65492 c -0.80391,0.53065 -2.98023,1.46925 -3.40671,1.46925 -0.0545,0 -0.099,-0.81756 -0.099,-1.8168 v -1.81681 l 1.30471,-0.54222 c 1.40572,-0.58419 3.60188,-2.43606 3.86241,-3.2569 0.13869,-0.43699 0.42427,-0.50477 2.12675,-0.50477 h 1.96655 v 8.20209 8.20208 h -2.20486 c -1.21268,0 -2.28424,-0.0794 -2.38125,-0.17639 z M 49.741666,167.76051 c -2.832521,-1.0043 -4.526867,-3.75841 -5.10412,-8.29659 -0.571992,-4.49682 0.542756,-9.09012 2.739115,-11.28648 1.34175,-1.34175 2.713612,-1.86396 4.91448,-1.87073 4.599445,-0.0142 7.274192,3.31448 7.692181,9.57267 0.281874,4.22026 -0.763138,8.25257 -2.64921,10.22231 -1.899864,1.98414 -4.854345,2.62965 -7.592446,1.65882 z m 4.224681,-5.27067 c 0.992175,-0.99218 1.43409,-3.16983 1.272072,-6.26851 -0.179636,-3.43567 -1.091904,-4.89335 -3.062436,-4.89335 -1.319781,0 -2.296792,1.10603 -2.70261,3.0595 -0.426249,2.05184 -0.215558,5.79116 0.399312,7.08691 0.861904,1.81632 2.809642,2.29947 4.093662,1.01545 z m 6.031466,5.35609 c -0.08294,-0.0829 0.96878,-2.53996 2.337152,-5.46006 1.368375,-2.9201 2.487951,-5.45134 2.487951,-5.62498 0,-0.17365 -1.012031,-2.49245 -2.248958,-5.15289 -1.236927,-2.66044 -2.248959,-4.88337 -2.248959,-4.93984 0,-0.0565 1.16086,-0.10256 2.579688,-0.10242 l 2.579687,2.6e-4 1.190625,3.04219 c 0.654844,1.67321 1.261433,3.04231 1.347978,3.04245 0.08654,1.4e-4 0.675574,-1.32218 1.308958,-2.93849 0.633383,-1.61631 1.286372,-2.99046 1.451086,-3.05367 0.164716,-0.0632 1.325419,-0.0802 2.579341,-0.0378 l 2.279859,0.0771 -2.234653,4.95986 c -1.229058,2.72793 -2.234652,5.0762 -2.234652,5.21838 0,0.14218 1.071562,2.57368 2.38125,5.40334 1.309688,2.82966 2.38125,5.27797 2.38125,5.44069 0,0.20272 -0.795737,0.27202 -2.527834,0.22013 l -2.527835,-0.0757 -1.326676,-3.04271 c -0.729674,-1.67349 -1.417175,-3.13538 -1.527784,-3.24864 -0.110609,-0.11326 -0.714576,1.01784 -1.342149,2.51354 -1.747121,4.16395 -1.474224,3.9101 -4.203475,3.9101 -1.282078,0 -2.398911,-0.0679 -2.48185,-0.1508 z m 17.701493,-0.0256 c -0.09702,-0.097 -0.17639,-4.91905 -0.17639,-10.71563 v -10.53924 h 2.38125 2.38125 v 10.71563 10.71562 h -2.20486 c -1.212676,0 -2.284238,-0.0794 -2.38125,-0.17639 z m 8.025693,-10.53924 v -10.71563 l 3.902604,0.002 c 4.515517,0.002 5.546524,0.22149 6.938548,1.4791 2.046462,1.84885 3.100358,5.78341 2.828014,10.55796 -0.180355,3.1619 -0.674018,4.93789 -1.844796,6.6368 -1.482966,2.15182 -3.386463,2.7558 -8.685483,2.7558 h -3.138887 z m 7.246144,5.43532 c 1.278295,-0.486 1.617985,-1.63147 1.611858,-5.43532 -0.0076,-4.72581 -0.541076,-5.68855 -3.152066,-5.68855 h -1.208019 v 5.68855 5.68854 h 1.041109 c 0.572611,0 1.340813,-0.11395 1.707118,-0.25322 z m 9.069827,5.10391 c -0.097,-0.097 -0.17639,-4.91904 -0.17639,-10.71562 v -10.53924 h 2.38125 2.38125 v 10.71563 10.71562 h -2.20486 c -1.21267,0 -2.28424,-0.0794 -2.38125,-0.17639 z m 6.70278,-2.21338 v -2.38977 l 3.98432,-5.87846 3.98432,-5.87846 -3.58745,-0.0736 -3.58744,-0.0736 v -2.37379 -2.37378 h 6.48229 6.48229 v 2.1837 2.1837 l -4.10275,6.15067 -4.10275,6.15068 h 4.23505 4.23504 v 2.38125 2.38125 h -7.01146 -7.01146 z m 16.13958,-8.32107 v -10.72041 h 6.22801 6.22801 l -0.0764,2.3151 -0.0764,2.31511 -3.77031,0.0734 -3.77032,0.0734 v 1.58024 1.58023 h 3.58258 3.58257 l -0.0768,2.18281 -0.0769,2.18282 -3.50573,0.0738 -3.50573,0.0738 v 1.97669 1.9767 h 3.97868 3.97868 l -0.0761,2.44739 -0.0761,2.4474 -6.28385,0.0709 -6.28386,0.0709 z m 15.08125,-0.0147 v -10.74615 l 5.09323,0.0864 c 5.86173,0.0994 6.4437,0.27912 7.60677,2.34886 0.56995,1.01426 0.6612,1.50654 0.65956,3.55835 -0.002,1.94856 -0.10838,2.58104 -0.58793,3.48072 -0.54096,1.01492 -1.49805,1.98687 -2.26772,2.30295 -0.21323,0.0876 -0.13814,0.28878 0.22876,0.61293 0.30042,0.26541 0.7471,0.80611 0.99264,1.20155 0.47729,0.76869 2.82678,7.07899 2.82678,7.59222 0,0.21695 -0.75252,0.28472 -2.56721,0.23119 l -2.56721,-0.0757 -0.74945,-1.98438 c -0.41219,-1.0914 -1.05973,-2.80489 -1.43898,-3.80774 -0.71381,-1.88759 -1.38955,-2.80684 -2.06331,-2.80684 -0.32504,0 -0.40248,0.71905 -0.46302,4.29948 l -0.0727,4.29948 -2.3151,0.0764 -2.31511,0.0764 v -10.74615 z m 8.20209,-2.7682 c 0.65572,-0.65572 0.70578,-2.27671 0.0913,-2.95573 -0.32907,-0.36362 -0.82218,-0.48385 -1.98438,-0.48385 h -1.54649 v 1.98437 1.98438 h 1.45521 c 1.10243,0 1.58349,-0.12829 1.98438,-0.52917 z M 89.164583,142.99361 v -0.92605 h 10.715625 10.715622 v 0.92605 0.92604 H 99.880208 89.164583 Z m 8.041388,-1.8282 c -3.091854,-0.75044 -5.87544,-3.01455 -7.151716,-5.81705 -0.67963,-1.49236 -0.74952,-1.9617 -0.919171,-6.17263 -0.220768,-5.47969 -0.391879,-6.93619 -1.018754,-8.67171 -0.262816,-0.7276 -0.683723,-2.27542 -0.935352,-3.43958 -0.25163,-1.16417 -0.789734,-2.74167 -1.195787,-3.50556 l -0.738278,-1.38889 0.702064,0.50482 c 0.983692,0.70732 1.976911,1.82023 2.776093,3.11062 0.603197,0.97394 1.233263,1.65261 1.233263,1.3284 0,-0.0628 -0.29635,-1.02198 -0.658556,-2.13157 -0.815639,-2.49864 -1.547784,-3.6393 -2.897791,-4.51466 l -1.047493,-0.6792 h 1.128048 c 1.042236,0 1.286521,0.15095 3.211208,1.98437 1.145739,1.09141 2.205572,1.98438 2.355189,1.98438 0.512993,0 0.811146,-0.95976 0.564893,-1.81839 -0.13055,-0.4552 -0.855559,-1.89878 -1.61113,-3.20796 -1.34984,-2.33887 -1.864026,-4.15377 -1.468694,-5.18399 0.128267,-0.33425 0.350983,-0.0932 0.892921,0.96653 0.504722,0.98694 1.577203,2.20275 3.563443,4.03968 2.396109,2.216 2.904059,2.57584 3.241146,2.29608 0.6048,-0.50194 0.499094,-1.15449 -0.793292,-4.89716 -1.350518,-3.91103 -1.524704,-5.84824 -0.690899,-7.683865 0.697574,-1.535705 2.63167,-3.027635 4.793944,-3.697969 0.60269,-0.186842 0.57085,-0.105088 -0.36054,0.925852 -1.442326,1.596482 -2.108997,3.222253 -1.959465,4.778442 0.150908,1.57054 0.858739,2.94562 3.000995,5.82993 2.0382,2.74421 2.74276,4.22413 2.76159,5.80073 0.0135,1.13034 0.0352,1.16383 0.42842,0.66146 0.35163,-0.44925 0.3919,-1.16851 0.26665,-4.7625 -0.0811,-2.32833 -0.0416,-4.47146 0.088,-4.7625 0.17299,-0.38871 0.24044,-0.12094 0.2541,1.00876 0.0106,0.87639 0.47383,3.30158 1.07693,5.63806 1.12036,4.34048 1.22315,5.11855 0.78444,5.93828 -0.3096,0.57849 -0.18252,0.63306 0.555,0.23835 1.14299,-0.61171 2.10014,-3.77217 2.10014,-6.93453 0,-1.98653 0.37436,-1.7616 0.79711,0.47892 0.38103,2.01935 0.22475,3.81808 -0.5495,6.32482 -0.30209,0.97805 -0.49563,1.83189 -0.43009,1.89743 0.0655,0.0655 0.55563,-0.47545 1.08911,-1.20219 1.55651,-2.12039 3.15815,-2.87341 4.26832,-2.00676 0.48961,0.38222 0.48076,0.39352 -0.18937,0.24209 -1.99704,-0.45127 -2.76356,1.5627 -4.18606,10.99865 -0.16453,1.0914 -0.39607,3.36821 -0.51453,5.05957 -0.25896,3.69728 -0.8973,5.33324 -2.91236,7.46388 -1.46604,1.55012 -3.36769,2.60271 -5.52159,3.05629 -1.708868,0.35986 -2.435284,0.34636 -4.182569,-0.0777 z m 6.390479,-1.80457 c 1.77525,-0.91353 3.37845,-2.55967 4.27912,-4.39372 0.648,-1.31953 0.73589,-1.79873 0.73589,-4.01206 0,-2.35673 -0.0561,-2.617 -0.89935,-4.17204 -1.07601,-1.98428 -2.47979,-3.31495 -4.49286,-4.25886 -1.24108,-0.58193 -1.85884,-0.69722 -3.735917,-0.69722 -1.877079,0 -2.494839,0.11529 -3.73592,0.69722 -2.013066,0.94391 -3.416853,2.27458 -4.49286,4.25886 -0.84324,1.55504 -0.899345,1.81531 -0.899345,4.17204 0,2.21333 0.08789,2.69253 0.735888,4.01206 1.154726,2.3514 3.282148,4.20832 5.746403,5.01573 0.363802,0.1192 1.733021,0.18258 3.042709,0.14084 1.949012,-0.0621 2.623572,-0.20058 3.716242,-0.76285 z M 92.335532,122.68683 c -0.0071,-1.04748 -0.396947,-1.35165 -0.74717,-0.58299 -0.345916,0.75921 -0.214329,1.17831 0.369961,1.17831 0.220192,0 0.379548,-0.2515 0.377209,-0.59532 z m 15.469918,0.086 c 0.0832,-0.13462 0.0101,-0.55472 -0.16256,-0.93355 -0.35023,-0.76866 -0.74004,-0.46449 -0.74717,0.58299 -0.004,0.59322 0.61285,0.83093 0.90973,0.35056 z m -11.112495,-2.38125 c 0.0832,-0.13462 0.0082,-0.55882 -0.166719,-0.94267 l -0.31799,-0.6979 -0.358569,0.68435 c -0.197212,0.37639 -0.286728,0.80059 -0.198924,0.94266 0.202187,0.32715 0.843238,0.33549 1.042202,0.0135 z m 7.549265,-0.35056 c -0.002,-0.1819 -0.0792,-0.61329 -0.17168,-0.95865 l -0.16806,-0.62792 -0.34811,0.62792 c -0.49601,0.89469 -0.44633,1.28938 0.1623,1.28938 0.29104,0 0.52754,-0.14883 0.52555,-0.33073 z m -4.11907,-0.0944 c 0.23019,-0.0883 0.41911,-0.41575 0.41983,-0.72761 0.002,-0.6599 -0.826621,-3.08054 -1.053909,-3.08054 -0.159324,0 -0.669885,1.17235 -1.065699,2.44706 -0.345826,1.11373 0.525717,1.81162 1.699778,1.36109 z"
         id="path173"
         inkscape:connector-curvature="0" />
      <path
         style="fill:#010100;stroke-width:0.26458335"
         d="m 65.881122,191.67681 -34.527491,-34.52825 34.594018,-34.59402 34.594021,-34.594016 34.59401,34.594016 34.59402,34.59402 -34.52749,34.52825 c -18.99012,18.99054 -34.58737,34.52826 -34.66054,34.52826 -0.0732,0 -15.670428,-15.53772 -34.660548,-34.52826 z m 68.527338,-0.79375 33.73373,-33.73451 -33.80026,-33.80026 -33.80026,-33.80026 -33.800266,33.80026 -33.800261,33.80026 33.733727,33.73451 c 18.553549,18.55398 33.79361,33.73451 33.8668,33.73451 0.0732,0 15.31324,-15.18053 33.86679,-33.73451 z M 86.566861,206.9972 c -0.984454,-0.49058 -1.566751,-1.00793 -2.036323,-1.80919 -0.361693,-0.61718 -0.657622,-1.25195 -0.657622,-1.41059 0,-0.15864 0.684609,-0.3628 1.521354,-0.45369 0.836745,-0.0909 1.78694,-0.2202 2.111547,-0.28738 0.470797,-0.0974 0.664932,0.0567 0.959641,0.76209 0.507053,1.21354 1.674678,1.69776 2.751352,1.14099 2.425332,-1.25419 1.406649,-5.78726 -1.205272,-5.36341 -0.501923,0.0814 -1.12961,0.3445 -1.39486,0.58454 -0.398841,0.36095 -0.805116,0.40403 -2.348434,0.24904 -1.02639,-0.10307 -1.866161,-0.2918 -1.866161,-0.41939 0,-0.28081 1.012579,-6.69408 1.218575,-7.71796 l 0.146386,-0.7276 h 5.270646 5.270643 v 1.71979 1.71979 h -3.580178 c -2.63384,0 -3.606901,0.0874 -3.681272,0.33073 -0.0556,0.1819 -0.169791,0.72689 -0.253759,1.21109 -0.152557,0.87974 -0.152054,0.88021 0.704709,0.66146 1.415815,-0.36148 3.955743,-0.22582 4.878594,0.26057 0.465421,0.24531 1.179796,0.88335 1.5875,1.41788 0.67341,0.88289 0.741281,1.17153 0.741281,3.15249 0,1.99608 -0.06717,2.27598 -0.79375,3.30757 -1.244532,1.76697 -2.634973,2.35821 -5.545916,2.35821 -2.074979,0 -2.616528,-0.0979 -3.798681,-0.68703 z m 12.651888,-1.69422 v -2.11667 H 101.6 h 2.38125 v 2.11667 2.11667 H 101.6 99.218749 Z m 12.700001,-3.04271 c 0,-2.83765 -0.032,-5.15937 -0.0711,-5.15937 -0.0391,0 -1.01915,0.47625 -2.17782,1.05833 -1.15867,0.58208 -2.19822,1.05833 -2.31011,1.05833 -0.11188,0 -0.20107,-0.80367 -0.19819,-1.78593 l 0.005,-1.78594 1.84779,-0.86804 c 1.42807,-0.67086 2.07075,-1.16668 2.82936,-2.18281 l 0.98157,-1.31478 h 1.66332 1.66331 v 8.0698 8.06979 h -2.11666 -2.11667 z M 49.029831,167.36524 c -1.567679,-0.74482 -2.658785,-2.075 -3.574156,-4.35728 -0.537757,-1.34077 -0.59902,-1.94 -0.59902,-5.85915 0,-3.90543 0.06246,-4.52123 0.592539,-5.84182 0.733903,-1.82839 2.151298,-3.51785 3.593297,-4.28303 1.472584,-0.78141 4.839759,-0.82709 6.340211,-0.086 1.400905,0.69192 2.531218,1.89199 3.257407,3.45844 0.968883,2.08995 1.225172,3.8807 1.096653,7.66251 -0.169487,4.98737 -1.152149,7.39284 -3.712676,9.08834 -0.93123,0.61663 -1.401244,0.72793 -3.35203,0.79383 -1.960615,0.0662 -2.455542,-0.012 -3.642225,-0.57584 z m 4.878292,-4.7768 c 1.019837,-0.85813 1.421559,-2.32902 1.437516,-5.26337 0.01566,-2.88049 -0.379981,-4.38652 -1.412145,-5.3754 -1.517361,-1.45372 -3.722153,-0.58684 -4.418473,1.73726 -0.38331,1.27938 -0.390488,5.64797 -0.01151,7.01291 0.646761,2.32946 2.789047,3.24802 4.404622,1.8886 z m 6.152293,5.00854 c 0,-0.0743 1.091406,-2.47751 2.425348,-5.34037 1.333939,-2.86287 2.423766,-5.33213 2.421837,-5.48724 -0.003,-0.24396 -3.669424,-8.43984 -4.361899,-9.75062 -0.232879,-0.44082 -0.07748,-0.46765 2.298649,-0.39688 l 2.548411,0.0759 1.189316,2.91042 c 0.654121,1.60073 1.281538,3.00525 1.394256,3.12116 0.112718,0.1159 0.743852,-1.19378 1.402524,-2.91042 l 1.197584,-3.12116 2.527334,-0.0755 2.527332,-0.0755 -2.344296,5.16954 -2.344295,5.16955 2.496449,5.34041 c 1.373048,2.93723 2.49645,5.38195 2.49645,5.43272 0,0.0508 -1.149202,0.0582 -2.553782,0.0166 l -2.553782,-0.0757 -1.298671,-3.04271 c -0.714269,-1.67349 -1.384921,-3.13021 -1.490339,-3.23715 -0.105418,-0.10693 -0.824831,1.29205 -1.598692,3.10886 l -1.40702,3.30329 h -2.486356 c -1.367496,0 -2.486358,-0.0608 -2.486358,-0.13517 z m 17.727083,-10.44817 v -10.58333 h 2.248959 2.248958 v 10.58333 10.58334 h -2.248958 -2.248959 z m 7.9375,-0.0311 v -10.6144 l 4.300895,0.10383 c 4.947576,0.11943 5.797047,0.38976 7.272345,2.31428 1.454206,1.89701 1.788219,3.50789 1.788219,8.62423 0,4.40198 -0.01632,4.53325 -0.765138,6.15468 -0.882304,1.91047 -2.329347,3.34523 -3.780198,3.74811 -0.556003,0.15439 -2.767086,0.28138 -4.913518,0.28219 l -3.902605,0.001 z m 7.760415,5.31069 c 0.925785,-0.72822 1.232183,-1.99873 1.233942,-5.11664 0.0024,-4.3347 -0.720841,-5.68836 -3.16489,-5.9232 l -1.33155,-0.12795 v 5.8545 5.8545 h 1.287235 c 0.896146,0 1.496272,-0.16443 1.975263,-0.54121 z m 8.643756,-5.27963 v -10.58333 h 2.24895 2.24896 v 10.58333 10.58334 h -2.24896 -2.24895 z m 6.61458,8.3931 v -2.19024 l 4.11516,-6.07799 4.11517,-6.07799 -3.71829,-0.0734 -3.71829,-0.0734 v -2.2417 -2.24169 h 6.48229 6.48229 v 2.11923 2.11922 l -4.10199,6.14901 -4.102,6.149 4.23429,0.0727 4.23429,0.0727 v 2.2424 2.24241 h -7.01146 -7.01146 z m 16.13958,-8.3931 v -10.58333 h 6.08542 6.08542 v 2.24896 2.24896 h -3.83646 -3.83646 v 1.71979 1.71979 h 3.57187 3.57188 v 2.11667 2.11666 h -3.57188 -3.57187 v 2.11667 2.11667 h 3.96875 3.96875 v 2.38125 2.38125 h -6.21771 -6.21771 z m 15.08125,-0.0318 V 146.5018 l 4.96665,0.10682 c 4.36929,0.094 5.09287,0.17233 6.01606,0.65142 1.6101,0.83557 2.32583,2.44306 2.32583,5.22365 0,1.91713 -0.0966,2.37624 -0.75452,3.58501 -0.45371,0.83362 -1.07605,1.54964 -1.56104,1.79602 -1.11108,0.56443 -1.10288,0.53408 -0.31246,1.15582 0.38893,0.30593 0.88544,0.90104 1.10337,1.32246 0.34973,0.67631 2.7682,7.06465 2.7682,7.31215 0,0.0529 -1.15494,0.0621 -2.56653,0.0204 l -2.56652,-0.0757 -1.41966,-3.7026 c -1.53286,-3.99785 -1.92718,-4.63178 -2.88101,-4.63178 h -0.62045 v 4.23333 4.23334 h -2.24896 -2.24896 z m 8.17017,-2.45282 c 0.68273,-0.61787 0.85189,-1.70293 0.42482,-2.72504 -0.38448,-0.92019 -1.33047,-1.25895 -3.05651,-1.09453 l -0.90827,0.0865 -0.0791,1.82583 c -0.0435,1.00421 -0.0119,2.00106 0.0703,2.21523 0.20886,0.54428 2.86144,0.31406 3.54882,-0.30801 z M 89.429166,142.99361 v -0.92605 h 10.451042 10.451042 v 0.92605 0.92604 H 99.880208 89.429166 Z m 7.011458,-2.075 c -4.539138,-1.49945 -7.512285,-5.74743 -7.214621,-10.30813 0.150437,-2.30492 -0.486471,-9.00338 -0.940718,-9.89368 -0.208201,-0.40807 -0.640726,-1.90122 -0.961168,-3.31811 -0.320439,-1.41688 -0.851956,-3.10817 -1.18115,-3.75841 l -0.598535,-1.18226 0.788186,0.56124 c 0.433501,0.30868 1.158737,1.09937 1.611638,1.7571 0.452897,0.65772 1.148688,1.56067 1.546198,2.00655 l 0.722749,0.81069 -0.79131,-2.37188 c -0.963367,-2.88761 -1.793537,-4.19562 -3.100933,-4.88581 l -0.992836,-0.52413 0.87729,-0.0117 c 1.216115,-0.0162 1.747962,0.31244 3.980439,2.45972 1.837711,1.76759 1.968011,1.84469 2.315104,1.37001 0.554506,-0.75833 0.449649,-1.50559 -0.431805,-3.07721 -1.695815,-3.02362 -2.639986,-5.14736 -2.639986,-5.93817 0,-1.23746 0.297111,-1.2928 0.80849,-0.1506 0.690502,1.54228 6.093539,6.72401 6.864427,6.58325 0.74999,-0.13694 0.609814,-1.86357 -0.353881,-4.35889 -2.525617,-6.53966 -1.663096,-9.828189 3.099692,-11.818209 l 0.953616,-0.398447 -1.037552,1.374572 c -1.286465,1.704337 -1.605143,2.522857 -1.597732,4.103775 0.0076,1.616919 0.691121,3.071839 2.748244,5.849649 2.17815,2.94124 2.84866,4.30362 2.89611,5.88451 0.0422,1.40675 0.36426,1.52549 0.93853,0.34605 0.31101,-0.63876 0.32014,-1.33623 0.0565,-4.31437 -0.30899,-3.49022 -0.25754,-4.88901 0.0972,-2.64152 0.0992,0.62827 0.60043,2.67563 1.11394,4.54969 0.72549,2.64765 0.90861,3.75376 0.82129,4.96093 -0.13059,1.80537 0.16797,1.99072 1.21062,0.7516 0.82669,-0.98247 1.1536,-2.06801 1.55126,-5.15116 0.36586,-2.83671 0.66433,-2.30893 0.70502,1.24669 0.0203,1.77083 -0.12445,2.77995 -0.62439,4.35428 -0.69302,2.18234 -0.67589,2.70737 0.0541,1.65911 1.65074,-2.37036 3.55659,-3.72798 4.47977,-3.19112 0.42993,0.25002 0.4077,0.28145 -0.20411,0.28862 -1.28245,0.015 -2.10054,1.52692 -2.7508,5.08368 -0.86666,4.7404 -1.45502,9.16455 -1.45618,10.94978 -0.003,4.438 -2.2568,8.10664 -6.05488,9.85542 -1.78159,0.82032 -5.540329,1.07074 -7.307796,0.48688 z m 6.886106,-1.33373 c 0.79241,-0.36278 2.01308,-1.23251 2.7126,-1.93273 3.96357,-3.96757 3.75818,-9.85628 -0.47658,-13.66369 -3.49093,-3.13865 -8.755712,-3.10318 -12.241322,0.0825 -3.689022,3.37156 -4.292055,8.26598 -1.515632,12.30138 1.820392,2.64585 5.096042,4.22774 8.283544,4.00034 1.12041,-0.0799 2.33892,-0.37644 3.23739,-0.78777 z M 92.329084,123.29424 c 0.336783,-0.21303 0.332274,-0.35683 -0.03514,-1.12043 l -0.421516,-0.87604 -0.330372,0.71073 c -0.323405,0.69575 -0.216416,1.54222 0.193911,1.53418 0.113707,-0.002 0.380608,-0.11403 0.593117,-0.24844 z m 15.559376,-0.814 c 0.0423,-0.21942 -0.0963,-0.63478 -0.30792,-0.923 -0.37422,-0.5097 -0.3926,-0.50351 -0.671,0.22576 -0.15743,0.41239 -0.21476,0.86547 -0.12739,1.00683 0.23199,0.37537 1.01669,0.15577 1.10631,-0.30959 z m -11.112497,-2.38125 c 0.04226,-0.21942 -0.08953,-0.62647 -0.292862,-0.90454 -0.359736,-0.49197 -0.37831,-0.48949 -0.689481,0.0919 -0.175882,0.32864 -0.251447,0.77561 -0.16792,0.99328 0.189338,0.4934 1.046371,0.35878 1.150263,-0.18068 z m 7.412987,0.20659 c 0.18895,-0.22932 0.16926,-0.57409 -0.0642,-1.12448 l -0.33668,-0.79375 -0.33507,0.71074 c -0.51975,1.10245 0.051,2.03885 0.73594,1.20749 z m -3.90495,-0.41542 c 0.55366,-0.44832 0.5715,-0.55333 0.25852,-1.52135 -0.18491,-0.57188 -0.5129,-1.38843 -0.728868,-1.81455 l -0.392676,-0.77475 -0.619655,1.43621 c -0.77847,1.80432 -0.786675,2.23015 -0.05287,2.74413 0.740767,0.51886 0.812763,0.51559 1.535549,-0.0697 z"
         id="path171"
         inkscape:connector-curvature="0" />
    </g>
  </g>
</svg>
