<?xml version="1.0" encoding="UTF-8" standalone="no"?>
<!-- Created with Inkscape (http://www.inkscape.org/) -->

<svg
   xmlns:dc="http://purl.org/dc/elements/1.1/"
   xmlns:cc="http://creativecommons.org/ns#"
   xmlns:rdf="http://www.w3.org/1999/02/22-rdf-syntax-ns#"
   xmlns:svg="http://www.w3.org/2000/svg"
   xmlns="http://www.w3.org/2000/svg"
   xmlns:sodipodi="http://sodipodi.sourceforge.net/DTD/sodipodi-0.dtd"
   xmlns:inkscape="http://www.inkscape.org/namespaces/inkscape"
   width="270.93335mm"
   height="270.93332mm"
   viewBox="0 0 270.93335 270.93332"
   version="1.1"
   id="svg193"
   inkscape:version="0.92.4 (5da689c313, 2019-01-14)"
   sodipodi:docname="Class_4_Flammable_Solid.svg">
  <defs
     id="defs187" />
  <sodipodi:namedview
     id="base"
     pagecolor="#ffffff"
     bordercolor="#666666"
     borderopacity="1.0"
     inkscape:pageopacity="0.0"
     inkscape:pageshadow="2"
     inkscape:zoom="0.35"
     inkscape:cx="292.1429"
     inkscape:cy="334.28567"
     inkscape:document-units="mm"
     inkscape:current-layer="layer1"
     showgrid="false"
     inkscape:window-width="1920"
     inkscape:window-height="1017"
     inkscape:window-x="-8"
     inkscape:window-y="-8"
     inkscape:window-maximized="1" />
  <metadata
     id="metadata190">
    <rdf:RDF>
      <cc:Work
         rdf:about="">
        <dc:format>image/svg+xml</dc:format>
        <dc:type
           rdf:resource="http://purl.org/dc/dcmitype/StillImage" />
        <dc:title></dc:title>
      </cc:Work>
    </rdf:RDF>
  </metadata>
  <g
     inkscape:label="Layer 1"
     inkscape:groupmode="layer"
     id="layer1"
     transform="translate(-28.537191,33.653575)">
    <g
       id="g206"
       transform="matrix(1.7355932,0,0,1.7066667,-18.367719,-174.1285)">
      <path
         style="fill:#fefefe;stroke-width:0.26458335"
         d="M 27.02529,161.68452 V 82.309525 h 78.05209 78.05208 v 79.374995 79.375 H 105.07738 27.02529 Z"
         id="path222"
         inkscape:connector-curvature="0" />
      <path
         style="fill:#a9a8a8;stroke-width:0.26458335"
         d="m 67.619843,198.97179 -37.815965,-37.81666 37.835418,-37.83542 37.835414,-37.835415 37.91461,37.915295 37.9146,37.9153 -37.93405,37.73678 -37.93406,37.73677 z m 55.184617,15.8986 v -3.83646 l -5.68854,5.68393 -5.68854,5.68393 v 3.83645 3.83646 l 5.68854,-5.68392 5.68854,-5.68393 z m -29.14643,1.29771 -5.910864,-6.10791 -0.07334,4.04703 -0.07334,4.04703 5.761885,5.76831 5.761884,5.76831 0.222321,-3.70744 0.222322,-3.70743 z m 29.14643,-19.35783 v -12.107 h -1.5875 -1.5875 v -6.87916 -6.87917 h 1.5875 1.5875 v -2.49757 -2.49757 l -0.98374,-0.0821 c -0.89616,-0.0748 -1.00449,-0.17044 -1.2169,-1.07431 l -0.23318,-0.99219 h -1.68331 -1.68331 l -0.28498,1.05833 -0.28498,1.05834 h -1.70959 c -0.94028,0 -1.70662,-0.0893 -1.70298,-0.19844 0.004,-0.10914 0.86684,-3.175 1.91823,-6.81302 l 1.91161,-6.61458 1.86745,-0.0767 1.86745,-0.0767 1.08817,3.78088 1.08817,3.78088 0.0209,-22.88877 0.021,-22.88876 -5.68854,-5.68393 -5.68854,-5.68392 v 4.15194 4.15194 l 1.0614,-0.4752 c 0.58377,-0.26136 1.1394,-0.5532 1.23472,-0.64852 0.0953,-0.0953 0.28545,-0.17332 0.42249,-0.17332 0.43636,0 -0.0604,1.31237 -1.07472,2.83949 -0.86562,1.3032 -0.98207,1.67063 -0.97939,3.0901 0.002,0.88607 0.1752,2.58325 0.38562,3.77152 l 0.38259,2.16048 1.57436,-1.45758 c 2.66248,-2.46498 3.74269,-2.58601 2.45227,-0.27477 -0.47745,0.85517 -0.8061,1.8993 -0.89038,2.82885 -0.13439,1.48199 0.3283,4.50441 0.68956,4.50441 0.10666,0 0.60423,-0.42688 1.10572,-0.94862 1.03513,-1.07692 2.08881,-1.69721 2.88303,-1.69721 0.57447,0 0.69372,0.25933 0.31025,0.67468 -0.41617,0.45077 -1.07526,2.83104 -1.73272,6.2576 -0.69031,3.59777 -1.2664,5.18174 -2.45016,6.73685 -0.84993,1.11654 -3.43426,2.88006 -4.59376,3.13473 -0.74766,0.16422 -0.78088,0.23254 -0.78088,1.6057 v 1.43418 h 3.43958 3.43958 v 0.79375 0.79375 h -3.43958 -3.43958 v 3.175 c 0,2.64584 0.0661,3.175 0.39687,3.175 0.3426,0 0.39688,0.94075 0.39688,6.87917 0,5.93843 -0.0543,6.87917 -0.39688,6.87917 -0.34365,0 -0.39687,1.02893 -0.39687,7.67291 v 7.67292 h 0.66145 c 0.63772,0 0.66146,0.0617 0.66146,1.71979 0,1.65806 -0.0237,1.71979 -0.66146,1.71979 h -0.66145 v 11.34878 c 0,9.84373 0.0526,11.36897 0.39687,11.50107 0.29208,0.11208 0.39688,0.57368 0.39688,1.7481 0,1.2421 -0.088,1.5958 -0.39688,1.5958 -0.33786,0 -0.39687,0.69795 -0.39687,4.69405 v 4.69405 l 5.68854,-5.68393 5.68854,-5.68393 z m -8.73125,-18.98616 v -6.87917 h 1.71979 1.71979 v 6.87917 6.87916 h -1.71979 -1.71979 z m -14.834213,33.06207 c -0.200231,-0.12375 -0.237667,-0.76914 -0.11625,-2.00407 0.0985,-1.00185 0.230923,-6.8347 0.294267,-12.96188 l 0.115176,-11.14034 -1.313585,0.12622 c -1.910932,0.18362 -3.080338,-0.11798 -4.171225,-1.07578 -1.273257,-1.11792 -1.946783,-2.7165 -2.121784,-5.03591 -0.393375,-5.21377 2.010458,-8.4061 6.053744,-8.03946 l 1.541785,0.1398 V 158.35214 145.80952 H 95.94925 92.377375 v -0.79375 -0.79375 h 3.571875 3.571875 v -1.43674 -1.43675 l -1.918229,-0.93366 c -3.467047,-1.68752 -5.901389,-4.43228 -7.084685,-7.98808 -0.487272,-1.46425 -0.576752,-2.29418 -0.548558,-5.0879 0.01852,-1.83604 0.137351,-3.44191 0.264044,-3.5686 0.356552,-0.35656 1.045858,0.81434 1.656776,2.8143 0.303998,0.9952 0.841478,2.12629 1.1944,2.51354 l 0.641676,0.7041 -0.178242,-1.19062 c -0.09803,-0.65485 -0.531765,-2.14313 -0.963846,-3.30729 -0.657492,-1.77149 -0.766389,-2.39712 -0.667771,-3.83646 0.118068,-1.7232 1.221103,-4.49792 1.78806,-4.49792 0.143068,0 0.260125,0.57194 0.260125,1.27097 0,1.62768 0.99483,3.66272 2.419919,4.9502 0.586697,0.53005 1.118565,0.91187 1.18193,0.84851 0.06336,-0.0634 -0.06629,-0.81201 -0.288112,-1.66366 -0.460426,-1.76769 -0.52455,-4.56211 -0.136724,-5.95823 0.145003,-0.522 0.739651,-1.62862 1.321441,-2.45915 l 1.057796,-1.51005 v -4.81469 -4.8147 l -5.953125,5.94872 -5.953125,5.94871 v 18.72148 18.72147 h 1.701961 c 1.396386,0 1.724652,0.0831 1.828334,0.46303 0.0695,0.25466 0.399913,1.92804 0.73424,3.71863 0.360717,1.93192 0.67753,3.06148 0.779198,2.77813 0.09423,-0.26262 0.450162,-1.93601 0.790962,-3.71864 l 0.619635,-3.24115 h 2.196793 2.196794 v 6.87917 6.87917 h -1.455209 -1.455208 l -0.03008,-4.0349 -0.03008,-4.03489 -0.794364,4.04766 -0.794367,4.04765 -1.353364,-0.0789 -1.353365,-0.0789 -0.833446,-4.23334 -0.833448,-4.23333 -0.03145,4.29948 -0.03145,4.29948 h -0.926042 -0.926041 v 2.51354 c 0,2.11236 0.06659,2.51354 0.417226,2.51354 1.185209,0 3.08786,3.43034 2.210573,3.9855 -0.208362,0.13185 -0.884857,0.24156 -1.50332,0.24378 -1.414354,0.005 -1.469787,0.47891 -0.139769,1.19468 1.463553,0.78763 2.19029,2.03247 2.19029,3.75179 0,0.78352 -0.162404,1.81327 -0.3609,2.28833 -0.392067,0.93835 -1.832644,2.29425 -2.437527,2.29425 -0.320019,0 -0.376573,1.75304 -0.376573,11.67281 v 11.67281 l 5.886979,5.94035 5.886979,5.94034 0.07275,-4.43043 c 0.05006,-3.04831 -0.01937,-4.48738 -0.222589,-4.61297 z m 47.111813,-19.69846 -0.002,-3.9709 -6.08385,6.09707 -6.08385,6.09708 v 3.95493 3.95493 l 6.08542,-6.0811 6.08542,-6.0811 -0.002,-3.97091 z m -70.141734,9.78523 0.02872,-2.38346 -5.953125,-5.94872 -5.953125,-5.94871 v 4.09663 4.09663 l 5.754687,5.76188 5.754688,5.76187 0.169722,-1.52633 c 0.09334,-0.83949 0.182642,-2.59889 0.198438,-3.90979 z m 64.233674,-9.92016 5.86433,-5.95264 -0.0251,-23.7301 -0.0251,-23.7301 -6.03765,-6.03337 -6.03765,-6.03336 v 14.06967 c 0,9.54586 0.093,14.30917 0.28915,14.81451 0.21355,0.55009 0.20262,1.21086 -0.0418,2.52724 -0.29987,1.61519 -0.28356,1.88755 0.17388,2.9031 0.60107,1.33442 0.60248,3.23042 0.003,4.38917 -0.37595,0.72698 -0.42453,2.6567 -0.42453,16.8634 0,8.82336 0.0893,16.00257 0.19844,15.9538 0.10914,-0.0488 2.83739,-2.76737 6.06277,-6.04132 z m -3.87996,-32.0141 v -6.87917 h 1.71979 1.7198 v 5.15938 5.15937 h 2.51354 2.51354 v 1.7198 1.71979 h -4.23333 -4.23334 z M 76.237791,181.1314 v -15.21354 h -0.926042 c -0.509323,0 -0.926041,-0.0668 -0.926041,-0.14848 0,-0.0817 0.416718,-1.59595 0.926041,-3.36508 l 0.926042,-3.2166 -0.0075,-16.54482 -0.0075,-16.54481 -5.933184,6.08541 -5.933186,6.08542 -0.01241,23.14888 -0.01241,23.14889 5.884776,5.88913 c 3.236642,3.23903 5.915549,5.88914 5.953143,5.88914 0.03759,0 0.06835,-6.84609 0.06835,-15.21354 z M 65.654457,159.03869 v -6.87917 h 1.719792 1.719792 v 5.15938 5.15937 h 2.513542 2.513541 v 1.7198 1.71979 h -4.233333 -4.233334 z m 103.187503,9.66191 v -3.96875 l -5.68854,5.68392 -5.68854,5.68393 v 3.96875 3.96875 l 5.68854,-5.68393 5.68854,-5.68392 z M 47.537514,169.63056 41.841957,163.935 v 4.23032 4.23032 l 5.622396,5.62749 5.622396,5.62749 0.07316,-4.16225 0.07316,-4.16225 z m 51.070317,11.35446 c 0.568404,-0.62808 0.852691,-2.68684 0.633333,-4.58648 -0.242231,-2.09771 -1.887167,-2.97161 -3.121112,-1.65813 -1.08045,1.15009 -1.091661,5.06732 -0.01781,6.21998 0.672418,0.72175 1.86409,0.73347 2.505578,0.0246 z m 70.234129,-19.56508 v -1.19524 l -5.68854,-5.68393 -5.68854,-5.68392 v 12.56309 12.5631 l 5.68854,-5.68393 5.68854,-5.68393 z M 53.219041,161.3561 v -11.97009 l -5.688542,5.68393 c -3.307589,3.30491 -5.688542,5.88867 -5.688542,6.1731 0,0.27887 2.417117,2.97801 5.622396,6.27839 3.092318,3.18408 5.652162,5.79272 5.688542,5.79699 0.03638,0.004 0.06615,-5.37877 0.06615,-11.96232 z m 66.399309,-0.92835 c -0.006,-0.10914 -0.22233,-1.07485 -0.48049,-2.14603 l -0.46939,-1.94759 -0.33599,1.55072 c -0.1848,0.85289 -0.3982,1.81861 -0.47423,2.14603 -0.12375,0.53291 -0.0382,0.59531 0.81648,0.59531 0.5251,0 0.94973,-0.0893 0.94362,-0.19844 z M 53.219041,142.90372 v -4.36562 l -5.688542,5.68392 -5.688542,5.68393 v 4.36563 4.36562 l 5.688542,-5.68393 5.688542,-5.68392 z m 109.941209,1.06208 -5.69537,-5.69538 v 4.21564 4.21564 l 5.62239,5.70547 5.6224,5.70548 0.073,-4.22574 0.073,-4.22574 z M 76.237791,119.77845 v -4.25931 l -5.953125,5.94872 -5.953125,5.94871 0.01307,4.36783 0.01307,4.36783 5.940065,-6.05724 5.940044,-6.05723 z m 23.041843,13.6652 c -0.21741,-0.37338 -0.27319,-0.24643 -0.27963,0.63642 -0.01175,1.60988 0.366829,2.37592 0.470022,0.95108 0.04466,-0.6166 -0.04102,-1.33097 -0.190392,-1.5875 z m 13.383156,0.84697 c 0.43472,-0.32641 0.40301,-0.34274 -0.30937,-0.15927 -0.57381,0.14778 -0.81424,0.38277 -0.86768,0.84807 -0.0696,0.60592 -0.0515,0.61525 0.30937,0.15927 0.21081,-0.26641 0.60127,-0.64804 0.86768,-0.84807 z m 27.81182,-13.01203 c -3.24048,-3.24288 -5.98207,-5.89615 -6.09243,-5.89615 -0.11035,0 -0.20064,1.80978 -0.20064,4.02172 v 4.02172 l 6.01927,6.04062 6.01927,6.04063 0.0732,-4.1662 0.0731,-4.16619 z M 99.521125,96.469144 V 92.23581 L 93.568,98.184525 87.614875,104.13324 v 4.23333 4.23334 l 5.953125,-5.94872 5.953125,-5.94871 z m 17.601995,1.459523 -5.69574,-5.695746 v 4.098025 4.098024 l 5.62239,5.62752 5.6224,5.62752 0.0734,-4.0298 0.0734,-4.0298 z"
         id="path220"
         inkscape:connector-curvature="0" />
      <path
         style="fill:#e15d53;stroke-width:0.26458335"
         d="M 67.638949,198.99089 29.80411,161.15536 67.506541,123.45223 c 20.736335,-20.73672 37.821809,-37.703122 37.967709,-37.703122 0.1459,0 17.23143,16.966462 37.96783,37.703242 l 37.70254,37.70324 -37.83542,37.83542 -37.83541,37.83541 z m 55.154251,15.87719 -0.0113,-4.10335 -5.67727,5.7719 -5.67728,5.7719 v 4.01538 4.01538 l 5.68854,-5.68393 5.68854,-5.68393 z m -29.217996,1.06469 -5.960329,-5.96033 v 4.17316 4.17317 l 5.886979,5.78455 5.886979,5.78456 0.07335,-3.99739 0.07335,-3.99739 z m 29.216206,-19.12481 0.0131,-12.10469 h -1.59197 -1.59196 l 0.0706,-6.81302 0.0706,-6.81302 1.52135,-0.0793 1.52136,-0.0794 v -2.50033 -2.50034 h -0.921 c -0.78969,0 -0.94373,-0.10374 -1.08043,-0.72761 -0.31625,-1.44326 -0.27502,-1.41769 -2.15311,-1.33508 l -1.78055,0.0783 -0.23374,0.99219 -0.23374,0.99219 h -1.71134 c -1.50881,0 -1.69414,-0.0548 -1.56602,-0.46302 0.0799,-0.25466 0.74786,-2.54662 1.4843,-5.09323 0.73643,-2.54662 1.57865,-5.43917 1.87159,-6.4279 l 0.53261,-1.79769 1.76341,0.0779 1.76341,0.0779 1.11333,3.83645 1.11332,3.83646 0.005,-23.01875 0.005,-23.01875 -5.67461,-5.81054 -5.67462,-5.81054 v 4.28919 c 0,2.35905 0.0643,4.28918 0.14283,4.28918 0.0786,0 0.60959,-0.23812 1.18008,-0.52916 0.57049,-0.29104 1.16266,-0.52917 1.31593,-0.52917 0.38174,0 -0.31538,1.61627 -1.19394,2.76812 -0.95705,1.25476 -1.07594,2.62126 -0.5278,6.06659 l 0.46762,2.93925 1.46158,-1.40154 c 1.53983,-1.47658 2.85534,-2.31266 3.07629,-1.95515 0.0725,0.11729 -0.21841,0.90753 -0.64644,1.75611 -0.86516,1.71518 -1.03751,3.90847 -0.48085,6.11915 l 0.29738,1.18102 1.28281,-1.19992 c 1.22747,-1.14815 2.23319,-1.72155 3.01956,-1.72155 0.28446,0 0.24542,0.26982 -0.17729,1.22543 -0.29814,0.67399 -0.89449,2.96594 -1.32524,5.09323 -0.43075,2.12729 -1.09157,4.55735 -1.46849,5.40013 -0.84821,1.89654 -2.91455,3.85732 -4.9572,4.70395 l -1.46683,0.60797 v 1.40652 1.40652 h 3.30729 3.30729 v 0.79375 0.79375 h -3.30729 -3.30729 v 3.1467 c 0,2.55298 0.0749,3.17543 0.39687,3.29899 0.33844,0.12987 0.39688,1.14694 0.39688,6.90747 0,5.82821 -0.0545,6.75518 -0.39688,6.75518 -0.34365,0 -0.39687,1.02893 -0.39687,7.67291 v 7.67292 h 0.66145 c 0.63772,0 0.66146,0.0617 0.66146,1.71979 0,1.65806 -0.0237,1.71979 -0.66146,1.71979 h -0.66145 v 11.50938 c 0,7.49653 0.0922,11.50937 0.26458,11.50937 0.14699,0 0.26458,0.70556 0.26458,1.5875 0,0.88195 -0.11759,1.5875 -0.26458,1.5875 -0.16694,0 -0.2624,1.782 -0.25867,4.82865 l 0.006,4.82865 5.66957,-5.82084 5.66959,-5.82083 0.013,-12.10469 z m -8.65652,-18.91771 0.0706,-6.81302 1.65365,-0.0788 1.65364,-0.0788 v 6.89179 6.89179 h -1.72426 -1.72425 z m -14.642745,24.39845 0.03287,-17.60417 -1.265426,0.16787 c -2.617962,0.34728 -4.584941,-0.74201 -5.633122,-3.11958 -0.498128,-1.1299 -0.617469,-1.87314 -0.627645,-3.909 -0.01116,-2.23096 0.07082,-2.68427 0.728496,-4.02851 0.407586,-0.83308 1.069563,-1.74859 1.471057,-2.03448 1.131218,-0.8055 3.01738,-1.19274 4.265949,-0.87582 l 1.056804,0.26825 v -12.66419 -12.66419 l -3.505729,-0.0738 -3.50573,-0.0738 v -0.66145 -0.66146 l 3.50573,-0.0738 3.505729,-0.0738 -0.0071,-1.51368 -0.0071,-1.51367 -1.777174,-0.79375 c -3.357793,-1.49971 -6.217304,-4.85567 -7.311488,-8.58084 -0.433361,-1.47539 -0.522746,-4.60503 -0.200494,-7.02015 l 0.175258,-1.31348 0.422211,0.65202 c 0.232214,0.35862 0.697064,1.48547 1.032997,2.50411 0.335934,1.01865 0.784709,2.11998 0.997281,2.4474 1.149525,1.7706 1.057336,-0.69427 -0.134067,-3.5846 -1.004906,-2.4379 -1.009076,-4.85364 -0.01209,-6.99873 0.713804,-1.5358 1.41868,-2.09137 1.114193,-0.87819 -0.32262,1.28541 0.591727,3.46411 2.168599,5.16732 0.813628,0.87881 1.569188,1.59785 1.679022,1.59785 0.109834,0 -0.02111,-0.92274 -0.291018,-2.05053 -0.88514,-3.69867 -0.626528,-5.63079 1.099666,-8.21579 l 1.051341,-1.57437 -0.01179,-4.99372 -0.01179,-4.99372 -5.941333,6.04172 -5.941335,6.04172 v 18.76297 18.76296 h 1.571884 c 0.864537,0 1.646002,0.11993 1.73659,0.2665 0.09059,0.14658 0.498099,1.96228 0.905584,4.0349 l 0.740884,3.7684 0.300215,-1.45521 c 0.165118,-0.80037 0.510428,-2.5863 0.767352,-3.96875 l 0.467135,-2.51354 h 2.112989 2.112992 l 0.07061,6.81302 0.07061,6.81302 h -1.321276 -1.321279 l -0.07225,-4.69636 -0.07225,-4.69635 -0.934804,4.63021 -0.934805,4.63021 -1.226423,0.0798 -1.226423,0.0798 -0.287227,-1.40268 c -0.157974,-0.77147 -0.572534,-2.7719 -0.921242,-4.44539 l -0.634018,-3.0427 -0.02638,4.43177 -0.02639,4.43177 h -0.926042 -0.926041 v 2.45337 2.45338 l 0.878475,0.47309 c 0.966586,0.52054 1.611764,1.45381 1.883044,2.72387 l 0.176784,0.82766 -1.469151,0.18356 c -1.747311,0.21831 -1.903773,0.66181 -0.491964,1.39447 1.444987,0.74988 2.014881,1.67057 2.131684,3.44381 0.130501,1.98122 -0.67283,3.6651 -2.11597,4.43533 l -0.991474,0.52917 -7.93e-4,11.6395 -7.94e-4,11.63951 5.884775,5.88914 c 3.236783,3.23903 5.901775,5.88914 5.92236,5.88914 0.02058,0 0.05222,-7.92188 0.07029,-17.60416 z m 40.971095,-0.98062 5.88914,-5.88477 v -4.10109 -4.10109 l -6.08542,6.0811 -6.08542,6.0811 v 3.90477 c 0,2.14762 0.0883,3.90476 0.19628,3.90476 0.10796,0 2.84639,-2.64815 6.08542,-5.88478 z m -64.225449,1.28729 v -4.06831 l -5.846982,-5.98585 c -3.215841,-3.29222 -5.954279,-5.98585 -6.085417,-5.98585 -0.131426,0 -0.238435,1.86926 -0.238435,4.16503 v 4.16503 l 5.884776,5.88913 c 3.236624,3.23903 5.975062,5.88914 6.085417,5.88914 0.110352,0 0.200641,-1.83074 0.200641,-4.06832 z m 70.114589,-41.17543 v -23.94911 l -6.09316,-6.08325 -6.09315,-6.08326 0.10681,15.08125 c 0.0588,8.29468 0.13238,15.20031 0.16362,15.34583 0.0312,0.14552 -0.0248,0.97896 -0.12447,1.85208 -0.13845,1.21255 -0.0819,1.77498 0.23937,2.38125 0.51972,0.98073 0.53443,3.21342 0.027,4.10104 -0.31631,0.55333 -0.37966,3.34288 -0.3875,17.06347 l -0.009,16.40201 6.08542,-6.0811 6.08542,-6.0811 z m -9.72791,-2.3151 0.0706,-6.81302 h 1.5875 1.5875 l 0.0718,5.08337 0.0718,5.08338 2.44172,0.076 2.44172,0.076 0.0788,1.65364 0.0788,1.65365 h -4.25043 -4.25042 z M 76.237791,181.1314 v -15.21354 h -0.943872 c -0.839848,0 -0.924346,-0.0615 -0.766694,-0.55824 0.09745,-0.30703 0.52219,-1.76529 0.943872,-3.24059 l 0.766694,-2.68235 v -16.66715 -16.66715 l -6.085417,6.0811 -6.085417,6.0811 0.0083,23.02091 0.0083,23.02091 5.839812,6.01927 c 3.211899,3.3106 5.946598,6.01927 6.077109,6.01927 0.137255,0 0.237297,-6.41386 0.237297,-15.21354 z m -10.521654,-22.02656 0.07061,-6.81302 h 1.5875 1.5875 l 0.07186,5.09323 0.07186,5.09322 h 2.507827 2.507829 v 1.7198 1.71979 h -4.237799 -4.2378 z m 97.633513,19.31684 5.75689,-5.75244 v -4.03715 c 0,-2.22043 -0.0929,-4.03715 -0.20639,-4.03715 -0.11351,0 -2.79242,2.5958 -5.95312,5.76844 l -5.74674,5.76845 v 4.02114 c 0,2.21163 0.0883,4.02114 0.19623,4.02114 0.10793,0 2.78684,-2.5886 5.95313,-5.75243 z M 47.537333,169.63038 41.841957,163.935 v 4.36261 4.36261 l 5.622396,5.62746 5.622396,5.62747 0.07298,-4.2947 0.07298,-4.29469 z m 51.378891,11.18725 c 0.719897,-1.0987 0.665916,-4.8112 -0.0846,-5.81795 -0.97613,-1.3094 -2.551888,-1.15413 -3.164396,0.3118 -0.574577,1.37516 -0.494262,4.30544 0.146828,5.3569 0.450551,0.73896 0.672823,0.85989 1.580412,0.85989 0.854059,0 1.145209,-0.13596 1.521754,-0.71064 z m 70.190316,-19.39769 c 0,-0.86038 -0.44828,-1.3784 -5.95312,-6.87917 l -5.95313,-5.94871 v 12.82788 12.82788 l 5.95313,-5.94871 c 5.50484,-5.50076 5.95312,-6.01878 5.95312,-6.87917 z M 53.219041,161.29639 v -12.0298 l -5.622396,5.70291 c -3.890253,3.94596 -5.649444,5.91258 -5.710191,6.38348 -0.07462,0.57845 0.758775,1.52783 5.553943,6.32689 3.102955,3.10548 5.672541,5.64632 5.71019,5.64632 0.03765,0 0.06845,-5.41341 0.06845,-12.0298 z m 66.410419,-0.90233 c 0,-0.12767 -0.20064,-1.10993 -0.44587,-2.18281 l -0.44587,-1.95068 -0.35285,1.19062 c -0.19407,0.65485 -0.42537,1.63711 -0.51399,2.18281 l -0.16114,0.99219 h 0.95986 c 0.52792,0 0.95986,-0.10446 0.95986,-0.23213 z M 53.219041,143.03601 v -4.49791 l -5.688542,5.68392 -5.688542,5.68393 v 4.49792 4.49792 l 5.688542,-5.68393 5.688542,-5.68393 z m 115.887499,11.04395 v -4.16498 l -5.75243,-5.75689 c -3.16384,-3.1663 -5.84274,-5.7569 -5.95313,-5.7569 -0.11037,0 -0.20069,1.86904 -0.20069,4.15343 v 4.15343 l 5.74674,5.76845 c 3.1607,3.17264 5.83961,5.76844 5.95312,5.76844 0.11352,0 0.20639,-1.87424 0.20639,-4.16498 z M 99.10792,133.13424 c -0.413316,-0.39269 -0.431845,-0.32615 -0.270306,0.9707 0.266226,2.13729 0.539488,2.518 0.632629,0.88138 0.06102,-1.07223 -0.02972,-1.53608 -0.362323,-1.85208 z m -28.759267,-2.99907 5.889138,-5.88478 v -4.36567 -4.36567 l -6.085417,6.0811 -6.085417,6.0811 v 4.16935 c 0,2.29314 0.08833,4.16934 0.196279,4.16934 0.107955,0 2.846393,-2.64815 6.085417,-5.88477 z m 42.567867,3.84614 c -0.0511,-0.0511 -0.40701,0.0266 -0.79099,0.1726 -0.46405,0.17643 -0.69815,0.46167 -0.69815,0.85065 0,0.56541 0.0268,0.55957 0.79099,-0.1726 0.43504,-0.4168 0.74921,-0.79959 0.69815,-0.85065 z m 27.35745,-12.90189 -6.09243,-6.09243 v 4.23051 4.23051 l 6.01927,6.02407 6.01927,6.02407 0.0732,-4.16215 0.0732,-4.16215 z M 99.507673,96.466938 99.521125,92.23581 93.568,98.184525 l -5.953125,5.948715 0.0047,4.36783 0.0047,4.36783 5.934985,-6.08542 5.934988,-6.08541 0.01344,-4.231132 z m 17.615257,1.461539 -5.69555,-5.695556 v 4.230317 4.230312 l 5.62239,5.62749 5.6224,5.6275 0.0732,-4.16226 0.0732,-4.16225 z"
         id="path218"
         inkscape:connector-curvature="0" />
      <path
         style="fill:#666565;stroke-width:0.26458335"
         d="M 67.638949,198.99089 29.80411,161.15536 67.506541,123.45223 c 20.736335,-20.73672 37.821809,-37.703122 37.967709,-37.703122 0.1459,0 17.23143,16.966462 37.96783,37.703242 l 37.70254,37.70324 -37.83542,37.83542 -37.83541,37.83541 z m 49.683361,25.45228 5.74673,-5.76845 v -3.88885 c 0,-2.13886 -0.1066,-3.88885 -0.23689,-3.88885 -0.13029,0 -2.8092,2.63127 -5.95313,5.84725 l -5.71623,5.84725 v 3.81004 c 0,2.09553 0.0929,3.81005 0.20639,3.81005 0.11351,0 2.79242,-2.5958 5.95313,-5.76844 z m -23.879397,-8.64273 -6.092622,-6.09262 v 4.1692 4.16919 l 6.019271,5.92392 6.019271,5.92391 0.07335,-4.00049 0.07335,-4.00048 z m 23.889087,-1.30861 5.73704,-5.9302 v -11.92918 -11.92918 h -1.72426 -1.72425 l 0.0706,-6.81302 0.0706,-6.81302 1.65365,-0.0788 1.65364,-0.0788 v -2.50092 -2.50091 h -1.05329 c -0.93401,0 -1.07135,-0.0824 -1.21272,-0.72761 -0.31625,-1.44326 -0.27502,-1.41769 -2.15311,-1.33508 l -1.78055,0.0783 -0.23374,0.99219 -0.23374,0.99219 h -1.71134 c -1.50881,0 -1.69414,-0.0548 -1.56602,-0.46302 0.0799,-0.25466 0.74786,-2.54662 1.4843,-5.09323 0.73643,-2.54662 1.57865,-5.43917 1.87159,-6.4279 l 0.53261,-1.79769 1.76243,0.0779 1.76243,0.0779 1.12487,3.93828 c 0.61868,2.16606 1.18818,4.00161 1.26557,4.07899 0.0774,0.0774 0.14071,-10.24741 0.14071,-22.94401 v -23.08472 l -5.75469,-5.92761 c -3.16507,-3.26019 -5.84398,-5.92926 -5.95312,-5.93126 -0.10914,-0.002 -0.19844,1.90137 -0.19844,4.2297 0,2.75396 0.0961,4.23333 0.27513,4.23333 0.15131,0 0.74188,-0.23812 1.31237,-0.52916 0.57049,-0.29104 1.16266,-0.52917 1.31593,-0.52917 0.38174,0 -0.31538,1.61627 -1.19394,2.76812 -0.95705,1.25476 -1.07594,2.62126 -0.5278,6.06659 l 0.46762,2.93925 1.46158,-1.40154 c 1.53983,-1.47658 2.85534,-2.31266 3.07629,-1.95515 0.0725,0.11729 -0.21841,0.90753 -0.64644,1.75611 -0.86516,1.71518 -1.03751,3.90847 -0.48085,6.11915 l 0.29738,1.18102 1.28281,-1.19992 c 1.22747,-1.14815 2.23319,-1.72155 3.01956,-1.72155 0.28446,0 0.24542,0.26982 -0.17729,1.22543 -0.29814,0.67399 -0.89449,2.96594 -1.32524,5.09323 -0.43075,2.12729 -1.08852,4.55054 -1.46171,5.38501 -0.86061,1.92435 -2.7426,3.70723 -4.98804,4.72536 l -1.70736,0.77416 v 1.32028 1.32028 h 3.43959 3.43958 v 0.79375 0.79375 h -3.43958 -3.43959 v 3.14415 c 0,2.92162 0.0374,3.15393 0.52917,3.28252 0.51178,0.13383 0.52917,0.36089 0.52917,6.91002 0,6.59526 -0.0138,6.77165 -0.52917,6.77165 -0.517,0 -0.52917,0.17639 -0.52917,7.67291 v 7.67292 h 0.79375 0.79375 v 1.71979 1.71979 h -0.79375 -0.79375 v 11.38539 c 0,9.87627 0.0526,11.40558 0.39688,11.53768 0.29065,0.11154 0.39687,0.56962 0.39687,1.71149 0,1.20956 -0.089,1.55919 -0.39687,1.55919 -0.33808,0 -0.39688,0.70556 -0.39688,4.7625 0,2.61938 0.0972,4.76251 0.21608,4.76251 0.11885,0 2.79776,-2.6686 5.95313,-5.9302 z m -3.19711,-36.60158 0.0706,-6.81302 1.65365,-0.0788 1.65364,-0.0788 v 6.89179 6.89179 h -1.72426 -1.72425 z m -14.642745,24.39845 0.03287,-17.60417 -1.265426,0.16787 c -2.617962,0.34728 -4.584941,-0.74201 -5.633122,-3.11958 -0.498128,-1.1299 -0.617469,-1.87314 -0.627645,-3.909 -0.01116,-2.23096 0.07082,-2.68427 0.728496,-4.02851 0.407586,-0.83308 1.069563,-1.74859 1.471057,-2.03448 1.131218,-0.8055 3.01738,-1.19274 4.265949,-0.87582 l 1.056804,0.26825 v -12.66419 -12.66419 l -3.505729,-0.0738 -3.50573,-0.0738 v -0.66145 -0.66146 l 3.50573,-0.0738 3.505729,-0.0738 -0.0071,-1.51368 -0.0071,-1.51367 -1.777174,-0.79375 c -3.357793,-1.49971 -6.217304,-4.85567 -7.311488,-8.58084 -0.433361,-1.47539 -0.522746,-4.60503 -0.200494,-7.02015 l 0.175258,-1.31348 0.422211,0.65202 c 0.232214,0.35862 0.697064,1.48547 1.032997,2.50411 0.335934,1.01865 0.784709,2.11998 0.997281,2.4474 1.149525,1.7706 1.057336,-0.69427 -0.134067,-3.5846 -1.004906,-2.4379 -1.009076,-4.85364 -0.01209,-6.99873 0.713804,-1.5358 1.41868,-2.09137 1.114193,-0.87819 -0.32262,1.28541 0.591727,3.46411 2.168599,5.16732 0.813628,0.87881 1.569188,1.59785 1.679022,1.59785 0.109834,0 -0.02111,-0.92274 -0.291018,-2.05053 -0.88514,-3.69867 -0.626528,-5.63079 1.099666,-8.21579 l 1.051341,-1.57437 -0.01236,-4.99372 -0.01236,-4.99372 -6.073058,6.18029 -6.073056,6.18029 v 18.6244 18.62439 h 1.704176 c 0.937297,0 1.778294,0.11993 1.868882,0.2665 0.09059,0.14658 0.498099,1.96228 0.905584,4.0349 l 0.740884,3.7684 0.300215,-1.45521 c 0.165118,-0.80037 0.510428,-2.5863 0.767352,-3.96875 l 0.467135,-2.51354 h 2.112989 2.112992 l 0.07061,6.81302 0.07061,6.81302 h -1.321276 -1.321279 l -0.07225,-4.69636 -0.07225,-4.69635 -0.934804,4.63021 -0.934805,4.63021 -1.226423,0.0798 -1.226423,0.0798 -0.287227,-1.40268 c -0.157974,-0.77147 -0.572534,-2.7719 -0.921242,-4.44539 l -0.634018,-3.0427 -0.02638,4.43177 -0.02639,4.43177 H 88.40866 87.350326 l 0.0068,2.44739 0.0068,2.4474 0.989965,0.45541 c 1.05723,0.48635 1.735756,1.41119 2.023478,2.75802 l 0.177776,0.83219 -1.602436,0.18598 c -0.926031,0.10748 -1.602436,0.31474 -1.602436,0.49102 0,0.16777 0.493311,0.54303 1.096248,0.83392 1.555388,0.75039 2.1569,1.67539 2.277208,3.50188 0.134906,2.04813 -0.664009,3.65426 -2.248977,4.5213 l -1.124479,0.61514 v 11.42129 11.42129 l 6.017115,6.02139 c 3.309411,3.31176 6.033934,6.02138 6.054492,6.02138 0.02056,0 0.05217,-7.92188 0.07025,-17.60416 z m 41.113165,-1.12829 6.01165,-6.03245 v -4.08575 -4.08575 l -6.21771,6.21348 -6.21771,6.21349 v 3.90471 c 0,2.1476 0.0927,3.90472 0.20606,3.90472 0.11333,0 2.9113,-2.7146 6.21771,-6.03245 z m -64.367519,1.43496 v -4.06831 l -5.846982,-5.98585 c -3.215841,-3.29222 -5.954279,-5.98585 -6.085417,-5.98585 -0.131426,0 -0.238435,1.86926 -0.238435,4.16503 v 4.16503 l 5.884776,5.88913 c 3.236624,3.23903 5.975062,5.88914 6.085417,5.88914 0.110352,0 0.200641,-1.83074 0.200641,-4.06832 z m 70.319969,-41.17543 -0.0155,-23.68021 -6.18582,-6.21771 -6.18582,-6.2177 0.10455,15.08125 c 0.0575,8.29468 0.13011,15.20031 0.16135,15.34583 0.0312,0.14552 -0.0248,0.97896 -0.12447,1.85208 -0.13845,1.21255 -0.0819,1.77498 0.23937,2.38125 0.51972,0.98073 0.53443,3.21342 0.027,4.10104 -0.31636,0.55341 -0.37941,3.34111 -0.38596,17.06563 l -0.008,16.40417 6.19434,-6.21771 6.19433,-6.21771 -0.0155,-23.68021 z m -9.93329,-2.3151 0.0706,-6.81302 h 1.5875 1.5875 l 0.0718,5.08337 0.0718,5.08338 2.44172,0.076 2.44172,0.076 0.0788,1.65364 0.0788,1.65365 h -4.25043 -4.25042 z M 76.237791,181.1314 v -15.21354 h -0.943872 c -0.839848,0 -0.924346,-0.0615 -0.766694,-0.55824 0.09745,-0.30703 0.52219,-1.76529 0.943872,-3.24059 l 0.766694,-2.68235 v -16.66715 -16.66715 l -6.085417,6.0811 -6.085417,6.0811 0.0083,23.02091 0.0083,23.02091 5.839812,6.01927 c 3.211899,3.3106 5.946598,6.01927 6.077109,6.01927 0.137255,0 0.237297,-6.41386 0.237297,-15.21354 z m -10.521654,-22.02656 0.07061,-6.81302 h 1.5875 1.5875 l 0.07186,5.09323 0.07186,5.09322 h 2.507827 2.507829 v 1.7198 1.71979 h -4.237799 -4.2378 z m 97.633513,19.31684 5.75689,-5.75244 -0.002,-4.23559 -0.002,-4.23558 -5.95153,5.96503 -5.95152,5.96503 v 4.02299 c 0,2.21264 0.0883,4.02299 0.19623,4.02299 0.10793,0 2.78684,-2.5886 5.95313,-5.75243 z M 47.537333,169.63038 41.841957,163.935 v 4.36261 4.36261 l 5.622396,5.62746 5.622396,5.62747 0.07298,-4.2947 0.07298,-4.29469 z m 51.378891,11.18725 c 0.719897,-1.0987 0.665916,-4.8112 -0.0846,-5.81795 -0.97613,-1.3094 -2.551888,-1.15413 -3.164396,0.3118 -0.574577,1.37516 -0.494262,4.30544 0.146828,5.3569 0.450551,0.73896 0.672823,0.85989 1.580412,0.85989 0.854059,0 1.145209,-0.13596 1.521754,-0.71064 z m 70.190316,-19.39769 c 0,-0.86038 -0.44828,-1.3784 -5.95312,-6.87917 l -5.95313,-5.94871 v 12.82788 12.82788 l 5.95313,-5.94871 c 5.50484,-5.50076 5.95312,-6.01878 5.95312,-6.87917 z M 53.219041,161.29639 v -12.0298 l -5.622396,5.70291 c -3.890253,3.94596 -5.649444,5.91258 -5.710191,6.38348 -0.07462,0.57845 0.758775,1.52783 5.553943,6.32689 3.102955,3.10548 5.672541,5.64632 5.71019,5.64632 0.03765,0 0.06845,-5.41341 0.06845,-12.0298 z m 66.410419,-0.90233 c 0,-0.12767 -0.20064,-1.10993 -0.44587,-2.18281 l -0.44587,-1.95068 -0.35285,1.19062 c -0.19407,0.65485 -0.42537,1.63711 -0.51399,2.18281 l -0.16114,0.99219 h 0.95986 c 0.52792,0 0.95986,-0.10446 0.95986,-0.23213 z M 53.219041,143.03601 v -4.49791 l -5.688542,5.68392 -5.688542,5.68393 v 4.49792 4.49792 l 5.688542,-5.68393 5.688542,-5.68393 z m 109.941209,0.92972 -5.95996,-5.95996 v 4.35144 4.35143 l 5.88698,5.90876 5.88698,5.90875 0.073,-4.30023 0.073,-4.30023 z M 76.237791,119.88467 v -4.36562 l -6.085417,6.0811 -6.085417,6.0811 v 4.36563 4.36562 l 6.085417,-6.0811 6.085417,-6.0811 z m 22.870129,13.24957 c -0.413316,-0.39269 -0.431845,-0.32615 -0.270306,0.9707 0.266226,2.13729 0.539488,2.518 0.632629,0.88138 0.06102,-1.07223 -0.02972,-1.53608 -0.362323,-1.85208 z m 13.8136,0.85207 c -0.047,-0.047 -0.46192,0.0458 -0.92207,0.20624 -0.64966,0.22647 -0.83666,0.44531 -0.83666,0.97913 v 0.68748 l 0.92208,-0.89371 c 0.50714,-0.49154 0.88364,-0.93215 0.83665,-0.97914 z m 27.48474,-12.77463 -6.22472,-6.22472 v 4.23057 4.23057 l 6.15156,6.15627 6.15157,6.15627 0.0732,-4.16212 0.0732,-4.16211 z m -46.756377,-14.53798 5.871242,-6.06292 v -4.187532 -4.187534 l -6.085417,6.081103 -6.085417,6.081103 v 4.16934 c 0,2.29314 0.09638,4.16935 0.214175,4.16935 0.117798,0 2.856236,-2.72831 6.085417,-6.06291 z m 29.419157,1.23206 v -4.0371 l -5.95312,-5.948718 -5.95313,-5.948715 v 4.217372 4.217371 l 5.74674,5.76844 c 3.1607,3.17265 5.83961,5.76845 5.95312,5.76845 0.11352,0 0.20639,-1.8167 0.20639,-4.0371 z"
         id="path216"
         inkscape:connector-curvature="0" />
      <path
         style="fill:#d8271a;stroke-width:0.26458335"
         d="m 67.704632,199.05657 -37.768927,-37.76961 37.76962,-37.76893 37.769615,-37.768923 37.76893,37.769623 37.76892,37.76961 -37.76961,37.76893 -37.76962,37.76892 z m 49.607518,25.40261 5.75689,-5.75244 v -3.90486 c 0,-2.14767 -0.0929,-3.90486 -0.20639,-3.90486 -0.11351,0 -2.79242,2.59581 -5.95312,5.76845 l -5.74674,5.76844 v 3.88885 c 0,2.13887 0.0883,3.88885 0.19623,3.88885 0.10793,0 2.78684,-2.5886 5.95313,-5.75243 z m -17.791025,1.45079 v -4.03705 l -6.085417,-6.0811 -6.085417,-6.0811 v 4.22901 4.22902 l 5.884776,5.88914 c 3.236624,3.23902 5.975061,5.88913 6.085416,5.88913 0.110353,0 0.200642,-1.81667 0.200642,-4.03705 z m 17.801185,-11.25639 5.74673,-5.76844 v -12.09093 -12.09094 h -1.5875 -1.5875 v -6.73367 -6.73367 l 1.52136,-0.0794 1.52135,-0.0794 0.0757,-2.57968 0.0757,-2.57969 h -1.03032 c -0.99854,0 -1.03764,-0.0347 -1.26753,-1.12448 l -0.23722,-1.12448 h -1.8509 -1.8509 l -0.24925,1.12448 -0.24925,1.12448 h -1.63995 -1.63994 l 1.43771,-4.96094 c 0.79074,-2.72851 1.67726,-5.7699 1.97005,-6.75863 l 0.53233,-1.79769 1.76341,0.0779 1.76341,0.0779 1.06827,3.75037 c 0.58754,2.06271 1.15661,3.83872 1.26459,3.9467 0.10798,0.10798 0.19633,-10.26505 0.19633,-23.0512 v -23.24752 l -5.74673,-5.76845 c -3.16071,-3.17264 -5.83962,-5.76844 -5.95313,-5.76844 -0.11351,0 -0.20639,1.905 -0.20639,4.23333 0,3.21338 0.0797,4.23194 0.33073,4.22752 0.1819,-0.003 0.83675,-0.2355 1.45521,-0.51623 1.40829,-0.63925 1.41999,-0.40267 0.0904,1.82906 -1.33245,2.23657 -1.44698,2.88752 -0.95778,5.44402 0.22233,1.16188 0.40426,2.55899 0.40428,3.10469 3e-5,0.54571 0.055,0.99219 0.12219,0.99219 0.0672,0 0.69225,-0.55499 1.38906,-1.23332 1.34057,-1.30502 2.63765,-2.20363 3.18313,-2.20527 0.2046,-5.3e-4 0.005,0.61708 -0.52917,1.63609 -0.74034,1.41281 -0.85559,1.89309 -0.84125,3.50573 0.009,1.02776 0.1686,2.31938 0.35436,2.87027 l 0.33775,1.00162 1.0129,-0.91509 c 1.2876,-1.16327 2.05801,-1.64273 2.98598,-1.85829 0.71397,-0.16585 0.72612,-0.15132 0.3607,0.43154 -0.58149,0.92752 -1.15354,2.95577 -1.76551,6.25973 -0.30671,1.65589 -0.799,3.65576 -1.09398,4.44415 -0.73261,1.9581 -2.75389,3.98102 -5.06671,5.07083 l -1.79955,0.84796 0.0798,1.38296 0.0798,1.38297 3.37344,0.074 3.37344,0.074 v 0.65355 0.65355 h -3.43958 -3.43959 v 3.18331 c 0,2.58553 0.0745,3.2119 0.39688,3.3356 0.33836,0.12984 0.39687,1.14288 0.39687,6.87086 0,5.79567 -0.0545,6.71857 -0.39687,6.71857 -0.34366,0 -0.39688,1.02893 -0.39688,7.67291 v 7.67292 h 0.66146 c 0.63771,0 0.66146,0.0617 0.66146,1.71979 0,1.65806 -0.0237,1.7198 -0.66146,1.7198 h -0.66146 v 11.38538 c 0,9.87627 0.0526,11.40558 0.39688,11.53768 0.29065,0.11154 0.39687,0.56962 0.39687,1.71149 0,1.20956 -0.089,1.55919 -0.39687,1.55919 -0.33808,0 -0.39688,0.70556 -0.39688,4.76251 0,2.61937 0.0929,4.7625 0.20639,4.7625 0.11351,0 2.79242,-2.59581 5.95313,-5.76845 z m -2.98452,-36.69718 v -6.74688 h 1.5875 1.5875 v 6.74688 6.74687 h -1.5875 -1.5875 z m -14.845018,24.27552 0.03343,-17.66094 -1.757884,0.0903 c -4.035753,0.2073 -5.871115,-2.27179 -5.602835,-7.56796 0.227488,-4.49093 2.182328,-6.45856 6.047591,-6.08716 l 1.308053,0.12569 v -12.66116 -12.66117 h -2.212031 c -3.333758,0 -4.667136,-0.23478 -4.667136,-0.8218 0,-0.44143 0.304951,-0.492 3.373438,-0.55935 l 3.373437,-0.074 0.07527,-1.5875 0.07527,-1.5875 -1.92242,-0.91833 c -2.556029,-1.22099 -5.122685,-3.73132 -6.229853,-6.09313 -1.179422,-2.51595 -1.435666,-4.11134 -1.225349,-7.62917 0.209098,-3.49747 0.40155,-3.50474 1.549236,-0.0585 0.709816,2.13139 1.299308,3.1898 1.776577,3.1898 0.463428,0 0.05965,-2.38643 -0.721389,-4.2636 -1.022499,-2.4575 -0.997146,-4.6417 0.07988,-6.88176 l 0.811083,-1.68693 0.02416,1.19062 c 0.03282,1.61722 1.005483,3.59055 2.512711,5.09778 1.30569,1.30569 1.869483,1.57685 1.640901,0.7892 -1.295762,-4.46491 -1.122944,-7.1226 0.629222,-9.67667 l 1.056997,-1.54074 -0.0016,-5.07384 -0.0016,-5.07385 -6.085636,6.09887 -6.085637,6.09887 0.06794,18.77196 0.06793,18.77197 1.733494,0.077 1.733495,0.077 0.7493,3.84309 c 0.412115,2.11369 0.835853,3.7459 0.941639,3.62713 0.105783,-0.11878 0.46328,-1.70424 0.794432,-3.52325 0.331153,-1.81901 0.658128,-3.45612 0.726612,-3.63802 0.08416,-0.22353 0.758529,-0.33073 2.080586,-0.33073 h 1.956067 v 6.74687 6.74688 h -1.184785 -1.184789 l -0.07198,-4.96094 -0.07199,-4.96094 -0.86746,4.36563 c -0.477102,2.40109 -0.925854,4.63351 -0.997228,4.96094 -0.110154,0.50532 -0.302326,0.59531 -1.27137,0.59531 h -1.141603 l -0.871358,-4.56406 c -0.479245,-2.51024 -0.971666,-4.74266 -1.094269,-4.96094 -0.127217,-0.2265 -0.226367,1.73281 -0.230957,4.56406 l -0.008,4.96094 H 88.276322 87.35028 v 2.46454 2.46453 l 0.927852,0.44246 c 1.063934,0.50736 1.980131,1.84028 1.981575,2.88287 0.0011,0.67449 -0.07533,0.71818 -1.385593,0.79375 -1.805483,0.10413 -1.950652,0.65413 -0.390245,1.47851 1.523452,0.80485 2.159603,1.91579 2.153544,3.76084 -0.0065,1.9738 -0.683029,3.28668 -2.130938,4.13521 l -1.156195,0.67757 v 11.38956 11.38957 l 5.88698,6.02467 c 3.237838,3.31358 5.962375,6.03509 6.054524,6.0478 0.09215,0.0127 0.182591,-7.9243 0.200977,-17.63782 z m 47.124188,-11.11039 c 0,-2.22035 -0.0933,-4.03701 -0.20733,-4.03701 -0.11403,0 -2.91199,2.78831 -6.2177,6.19624 l -6.01039,6.19624 v 4.05426 4.05425 l 6.21771,-6.21349 6.21771,-6.21348 z m -76.257115,1.3298 c -3.240382,-3.24279 -5.981891,-5.89597 -6.092246,-5.89597 -0.110352,0 -0.200642,1.87428 -0.200642,4.16507 v 4.16508 l 6.019271,6.02404 6.019271,6.02405 0.07297,-4.29315 0.07297,-4.29315 z m 76.180485,-31.05399 -0.0226,-23.76101 -6.17762,-6.166 -6.17763,-6.16601 0.0424,17.04576 c 0.0359,14.42053 0.10298,17.19081 0.43591,17.98762 0.42258,1.01139 0.3089,3.33037 -0.1876,3.82688 -0.17997,0.17997 -0.27161,5.85467 -0.27161,16.81919 v 16.54757 l 6.19071,-6.1865 6.1907,-6.1865 -0.0226,-23.761 z m -9.71295,-2.22636 v -6.74687 h 1.44949 1.4495 l 0.0719,5.09323 0.0719,5.09323 2.4474,0.0761 2.4474,0.0761 v 1.57757 1.57757 h -3.96875 -3.96875 z m -60.589589,22.09271 v -15.34583 h -0.893212 -0.893212 l 0.893212,-3.0994 0.893212,-3.0994 v -16.80834 -16.80834 l -6.085417,6.0811 -6.085417,6.0811 v 23.15109 23.15109 l 6.017115,6.02138 c 3.309411,3.31176 6.047849,6.02138 6.085417,6.02138 0.03757,0 0.0683,-6.90562 0.0683,-15.34583 z m -10.31875,-22.09271 v -6.74687 h 1.449496 1.449493 l 0.07186,5.09323 0.07186,5.09323 2.447396,0.0761 2.447396,0.0761 v 1.57757 1.57757 h -3.96875 -3.96875 z m 103.187499,9.26483 v -4.23333 l -5.95312,5.94871 -5.95313,5.94872 v 4.23333 4.23333 l 5.95313,-5.94871 5.95312,-5.94872 z m -121.50327,1.17998 -5.629021,-5.79744 -0.0728,4.41427 -0.0728,4.41428 5.629053,5.63412 5.629053,5.63413 0.07277,-4.25095 0.07277,-4.25096 z m 50.634732,11.89119 c 1.255675,-0.67202 1.750335,-4.4817 0.819692,-6.31295 -1.030867,-2.02845 -3.070823,-1.5142 -3.713014,0.93601 -0.505442,1.92847 -0.196567,3.97634 0.741172,4.91408 0.805023,0.80503 1.309909,0.91361 2.15215,0.46286 z m 65.150038,-13.30613 c 5.03932,-5.21609 5.7185,-6.0203 5.7185,-6.77122 0,-0.75113 -0.67941,-1.5548 -5.73254,-6.78091 -3.1529,-3.26083 -5.83181,-5.92878 -5.95313,-5.92878 -0.12132,0 -0.22058,5.715 -0.22058,12.7 0,7.20923 0.10144,12.7 0.23463,12.7 0.12904,0 2.80795,-2.66359 5.95312,-5.91909 z m -110.172458,-6.97935 -0.0035,-12.10468 -5.685083,5.71227 c -4.785265,4.80814 -5.685083,5.83378 -5.685083,6.48003 0,0.64667 0.886422,1.65491 5.620088,6.39242 3.091049,3.09356 5.650893,5.62465 5.688542,5.62465 0.03765,0 0.0669,-5.44711 0.06499,-12.10469 z m 66.496028,-0.52916 c 0.14258,-0.24953 -0.88296,-4.6452 -1.04577,-4.48239 -0.22123,0.22123 -1.1106,4.27086 -0.98322,4.47697 0.16208,0.26225 1.87962,0.26683 2.02899,0.005 z M 53.219041,142.90372 v -4.63021 l -5.688542,5.68393 -5.688542,5.68393 v 4.63021 4.63021 l 5.688542,-5.68393 5.688542,-5.68393 z m 110.141729,0.99644 c -3.1675,-3.16995 -5.8494,-5.76355 -5.95979,-5.76355 -0.11037,0 -0.20069,1.93379 -0.20069,4.29732 v 4.29732 l 5.88698,5.89182 5.88698,5.89183 0.0728,-4.42559 0.0728,-4.42559 z M 99.138715,133.14289 c -0.372065,-0.37207 -0.4112,-0.32382 -0.409864,0.50525 7.94e-4,0.50413 0.149638,1.39284 0.330729,1.97493 l 0.329253,1.05833 0.08061,-1.56359 c 0.059,-1.14455 -0.02963,-1.67382 -0.330729,-1.97492 z M 76.237791,119.75238 v -4.49791 l -6.085417,6.0811 -6.085417,6.0811 v 4.49791 4.49792 l 6.085417,-6.0811 6.085417,-6.0811 z m 36.060759,15.07693 c 0.57528,-0.721 0.64466,-0.92604 0.31334,-0.92604 -0.79806,0 -1.4491,0.53911 -1.4491,1.19994 0,0.88413 0.26222,0.82089 1.13576,-0.2739 z m 34.31841,-3.36025 v -4.2863 l -6.01165,-6.03245 c -3.30641,-3.31785 -6.10438,-6.03245 -6.21771,-6.03245 -0.11333,0 -0.20319,1.87523 -0.19969,4.16719 l 0.006,4.16718 5.97156,6.15157 c 3.28435,3.38336 6.07945,6.15156 6.21133,6.15156 0.13346,0 0.23979,-1.90067 0.23979,-4.2863 z m -52.984973,-24.61723 5.889138,-5.88477 -0.0016,-4.500122 -0.0016,-4.500121 -6.083845,6.097074 -6.083848,6.097079 v 4.28782 c 0,2.3583 0.08833,4.28782 0.196279,4.28782 0.107955,0 2.846393,-2.64815 6.085417,-5.88478 z m 29.437053,0.9376 V 103.636 l -5.74673,-5.768448 c -3.16071,-3.172644 -5.83962,-5.768444 -5.95313,-5.768444 -0.11351,0 -0.20639,1.874242 -0.20639,4.164982 v 4.16498 l 5.75244,5.7569 c 3.16383,3.16629 5.84274,5.75689 5.95312,5.75689 0.11038,0 0.20069,-1.86904 0.20069,-4.15343 z"
         id="path214"
         inkscape:connector-curvature="0" />
      <path
         style="fill:#9d1e16;stroke-width:0.26458335"
         d="m 67.704632,199.05657 -37.768927,-37.76961 37.76962,-37.76893 37.769615,-37.768923 37.76893,37.769623 37.76892,37.76961 -37.76961,37.76893 -37.76962,37.76892 z m 78.449308,-3.59477 c 18.73581,-18.75472 34.0651,-34.19217 34.0651,-34.30544 0,-0.20122 -64.96441,-65.331248 -71.36334,-71.54527 l -3.23313,-3.139704 -2.94602,2.747715 c -4.031749,3.760357 -71.947093,71.678699 -71.947093,71.950259 0,0.11965 16.795622,17.02509 37.323605,37.56764 l 37.323598,37.35009 3.35609,-3.2629 c 1.84584,-1.7946 18.68538,-18.60768 37.42119,-37.36239 z M 98.407893,220.88505 C 94.544527,216.9196 83.064457,205.32932 72.896627,195.12886 53.981234,176.15277 39.460707,161.4727 39.460707,161.32558 c 0,-0.14163 35.918971,-36.35448 51.398637,-51.81917 l 14.753846,-14.739579 12.23365,12.255259 c 26.1603,26.20649 53.77324,54.14753 53.77324,54.41215 0,0.35791 -65.75778,66.6607 -66.11275,66.6607 -0.0413,0 -3.23607,-3.24445 -7.099437,-7.20989 z m 27.790517,-15.34253 c 11.15744,-11.23967 25.56062,-25.71799 32.00706,-32.17405 6.44644,-6.45606 11.68375,-11.84945 11.63847,-11.9853 -0.10764,-0.32291 -44.3365,-44.96445 -55.47117,-55.98875 -4.74004,-4.69305 -8.72064,-8.532812 -8.84578,-8.532812 -0.12514,0 -9.470121,9.316642 -20.766623,20.703642 -11.296505,11.38701 -25.712029,25.83847 -32.034502,32.11437 l -11.495402,11.41072 0.549487,0.76012 c 0.302218,0.41806 10.753764,10.99948 23.225657,23.51427 12.471895,12.51479 26.669984,26.77253 31.551311,31.68386 4.881332,4.91133 8.983162,8.92968 9.115192,8.92968 0.13203,0 9.36887,-9.19609 20.5263,-20.43575 z m -19.62173,8.08853 c -0.097,-0.097 -0.17639,-0.75185 -0.17639,-1.45521 v -1.27882 h -3.57187 -3.571878 v -1.82392 -1.82393 l 3.638018,-4.39488 3.63802,-4.39488 1.85209,0.0673 1.85208,0.0672 0.0724,4.39995 0.0724,4.39995 0.78749,0.1575 c 0.76905,0.1538 0.7875,0.19485 0.7875,1.75161 v 1.59411 h -0.79375 c -0.78573,0 -0.79375,0.0147 -0.79375,1.45521 v 1.45521 h -1.80798 c -0.9944,0 -1.88737,-0.0794 -1.98438,-0.17639 z m -0.18767,-8.09184 -0.0113,-1.91823 -1.06174,1.19063 c -0.58395,0.65484 -1.30136,1.51805 -1.59423,1.91823 l -0.5325,0.7276 h 1.60551 1.60552 l -0.0113,-1.91823 z M 83.651398,184.50443 c -1.134288,-0.56989 -2.019107,-1.84904 -2.258285,-3.26473 -0.09942,-0.5885 -0.13919,-1.10674 -0.08836,-1.15164 0.05083,-0.0449 0.779712,-0.13619 1.61974,-0.20287 1.466257,-0.11639 1.5338,-0.0939 1.689182,0.56249 0.366972,1.55019 1.685076,2.09635 2.605299,1.07952 0.814933,-0.90049 0.210831,-1.67326 -1.955035,-2.50088 -2.938328,-1.1228 -4.134395,-2.96779 -3.485703,-5.37685 0.493548,-1.83289 2.120392,-2.96911 4.251182,-2.96911 2.132851,0 4.227859,1.72932 4.230301,3.4919 0.0011,0.67467 -0.07512,0.71816 -1.388073,0.79375 -1.275291,0.0734 -1.427511,0.019 -1.858504,-0.66459 -0.359662,-0.57043 -0.638096,-0.72512 -1.190625,-0.66145 -1.056905,0.12178 -1.153581,1.16686 -0.143936,1.556 2.32815,0.89732 3.973962,1.89327 4.450646,2.69327 0.668496,1.12191 0.677344,3.41227 0.01844,4.77254 -0.993833,2.0517 -4.244792,2.97383 -6.496267,1.84265 z m 11.171206,-0.26923 c -1.937706,-1.06498 -2.84185,-3.49517 -2.657123,-7.14188 0.231695,-4.57396 2.195435,-6.48192 6.241632,-6.06431 1.888197,0.19488 2.645577,0.75631 3.613177,2.67836 0.70293,1.39632 0.77937,1.80005 0.77937,4.11674 0,2.31668 -0.0764,2.72042 -0.77937,4.11674 -1.09153,2.16822 -1.79857,2.61155 -4.302965,2.69799 -1.554842,0.0537 -2.235303,-0.0412 -2.894721,-0.40364 z m 3.415398,-2.72822 c 1.255675,-0.67202 1.750335,-4.4817 0.819692,-6.31295 -1.030867,-2.02845 -3.070823,-1.5142 -3.713014,0.93601 -0.505442,1.92847 -0.196567,3.97634 0.741172,4.91408 0.805023,0.80503 1.309909,0.91361 2.15215,0.46286 z m 6.045618,-3.68287 v -6.87917 h 1.7198 1.71979 v 5.15938 5.15937 h 2.38125 2.38125 v 1.71979 1.71979 h -4.10104 -4.10105 z m 10.05417,0.13229 v -6.74688 h 1.5875 1.5875 v 6.74688 6.74687 h -1.5875 -1.5875 z m 5.55625,0.0505 v -6.73954 l 2.85791,-0.1867 c 3.42042,-0.22344 4.42722,0.0779 5.4435,1.62939 0.96359,1.47103 1.30173,3.18389 1.17943,5.97446 -0.0867,1.97849 -0.23203,2.67032 -0.75914,3.61408 -1.13302,2.02858 -1.66484,2.25962 -5.43275,2.36012 l -3.28895,0.0877 z m 5.55625,2.83117 c 0.29694,-0.28957 0.39688,-1.01057 0.39688,-2.86334 0,-2.88528 -0.3717,-3.59021 -1.89309,-3.59021 h -0.88504 v 3.60133 3.60132 l 0.99219,-0.18104 c 0.5457,-0.0996 1.17078,-0.3552 1.38906,-0.56806 z M 56.129457,159.03869 v -6.87917 h 3.96875 3.96875 v 1.5875 1.5875 h -2.248958 -2.248958 v 1.05834 1.05833 h 1.984375 1.984375 v 1.45521 1.45521 h -1.984375 -1.984375 v 2.77812 2.77813 h -1.719792 -1.719792 z m 9.789584,0.13229 v -6.74687 h 1.449496 1.449493 l 0.07186,5.09323 0.07186,5.09323 2.447396,0.0761 2.447396,0.0761 v 1.57757 1.57757 h -3.96875 -3.96875 z m 9.463294,3.37344 c 0.507214,-1.85539 1.353672,-4.92125 1.881018,-6.81302 l 0.958813,-3.43958 1.863564,-0.0766 1.863566,-0.0766 1.906746,6.7024 c 1.048713,3.68632 1.906749,6.79211 1.906749,6.90174 0,0.10964 -0.799613,0.16414 -1.77692,0.12111 l -1.776918,-0.0782 -0.233741,-0.99219 -0.233738,-0.99219 h -1.683311 -1.683309 l -0.28498,1.05834 -0.28498,1.05833 H 76.132513 74.46013 Z m 5.606846,-2.11667 c -0.0061,-0.10914 -0.222332,-1.07485 -0.480491,-2.14603 l -0.469384,-1.94759 -0.335994,1.55072 c -0.184799,0.85289 -0.398201,1.81861 -0.474232,2.14603 -0.123748,0.53291 -0.03817,0.59531 0.816486,0.59531 0.5251,0 0.949725,-0.0893 0.943615,-0.19844 z m 5.56736,-1.42213 v -6.91224 l 0.826823,0.16536 c 0.454753,0.091 1.442228,0.16537 2.194391,0.16537 h 1.367568 l 0.751424,3.85397 c 0.413285,2.11969 0.837978,3.7568 0.943764,3.63803 0.105783,-0.11878 0.46328,-1.70424 0.794432,-3.52325 0.331153,-1.81901 0.658128,-3.45612 0.726612,-3.63802 0.08416,-0.22353 0.758529,-0.33073 2.080586,-0.33073 h 1.956067 v 6.74687 6.74688 h -1.184785 -1.184789 l -0.07198,-4.96094 -0.07199,-4.96094 -0.86746,4.36563 c -0.477102,2.40109 -0.925854,4.63351 -0.997228,4.96094 -0.110154,0.50532 -0.302326,0.59531 -1.27137,0.59531 h -1.141603 l -0.871358,-4.56406 c -0.479245,-2.51024 -0.971666,-4.74266 -1.094269,-4.96094 -0.127217,-0.2265 -0.226367,1.73281 -0.230957,4.56406 l -0.008,4.96094 h -1.322917 -1.322917 z m 13.758329,0.0331 v -6.87917 h 2.21698 2.21698 l 0.75491,3.87188 0.75491,3.87187 0.47893,-2.48281 c 0.26341,-1.36555 0.60138,-3.10789 0.75104,-3.87187 l 0.27211,-1.38907 h 1.67939 c 2.73477,0 2.51642,-0.61082 2.51642,7.03977 v 6.71857 h -1.32291 -1.32292 l -0.0276,-4.16719 -0.0276,-4.16719 -0.84112,4.10104 -0.84112,4.10105 -1.32251,0.078 -1.3225,0.078 -0.82216,-4.04671 -0.82216,-4.04672 -0.0294,4.03489 -0.0294,4.0349 h -1.45521 -1.45521 z m 14.19578,1.91823 c 0.79074,-2.72851 1.67726,-5.7699 1.97005,-6.75863 l 0.53233,-1.79769 1.76341,0.0779 1.76341,0.0779 1.08427,3.70417 c 0.59635,2.03729 1.16014,3.88276 1.25287,4.10104 0.22602,0.53205 1.51497,5.08078 1.51497,5.34637 0,0.11544 -0.75699,0.20988 -1.6822,0.20988 h -1.6822 l -0.23721,-1.12448 -0.23722,-1.12448 h -1.8509 -1.8509 l -0.24925,1.12448 -0.24925,1.12448 h -1.63995 -1.63994 z m 5.20096,-0.26458 c 0.14258,-0.24953 -0.88296,-4.6452 -1.04577,-4.48239 -0.22123,0.22123 -1.1106,4.27086 -0.98322,4.47697 0.16208,0.26225 1.87962,0.26683 2.02899,0.005 z m 5.53578,-1.5875 0.0706,-6.81302 h 3.76492 c 3.69336,0 3.77788,0.013 4.44617,0.68186 0.89389,0.89471 1.16765,3.10094 0.56405,4.54558 -0.22757,0.54464 -0.55496,0.99026 -0.72753,0.99026 -0.17257,0 -0.009,0.23999 0.36422,0.53331 1.86544,1.46735 1.42926,5.86109 -0.65393,6.58729 -0.45397,0.15826 -2.41699,0.28774 -4.36227,0.28774 h -3.53685 z m 6.2418,2.60743 c 0.10141,-1.06211 -0.23142,-1.34099 -1.60713,-1.34661 l -0.99218,-0.004 v 1.20512 1.20512 l 1.25677,-0.0806 c 1.21703,-0.0781 1.25948,-0.10904 1.34254,-0.97894 z m -0.53556,-4.57858 c 0.5679,-0.5679 0.37641,-1.52528 -0.36119,-1.80571 -1.40173,-0.53294 -1.70256,-0.36816 -1.70256,0.93259 0,1.17058 0.0147,1.19062 0.87312,1.19062 0.48022,0 1.016,-0.14287 1.19063,-0.3175 z m 5.87375,2.03729 v -6.74687 h 1.44949 1.4495 l 0.0719,5.09323 0.0719,5.09323 2.4474,0.0761 2.4474,0.0761 v 1.57757 1.57757 h -3.96875 -3.96875 z m 9.525,-0.13229 v -6.87917 h 4.36562 4.36563 v 1.5875 1.5875 h -2.64584 -2.64583 v 0.92605 0.92604 h 2.38125 2.38125 v 1.5875 1.5875 h -2.38125 -2.38125 v 1.19062 1.19063 h 2.64583 2.64584 v 1.5875 1.5875 H 150.718 146.35238 Z M 93.501854,145.61813 c -0.614013,-0.0762 -0.859896,-0.24361 -0.859896,-0.58548 0,-0.44326 0.470763,-0.49315 6.35,-0.67288 3.492502,-0.10677 9.207502,-0.10677 12.700002,0 l 6.35,0.19412 v 0.62782 0.62781 l -11.84011,-0.0423 c -6.512053,-0.0233 -12.227053,-0.0904 -12.699996,-0.14905 z m 12.775506,-3.76221 c -0.0848,-0.13719 0.36959,-0.48111 1.00973,-0.76428 1.20278,-0.53204 2.17076,-1.6918 3.34899,-4.01247 0.33222,-0.65435 0.73668,-1.3092 0.8988,-1.45521 0.16211,-0.14601 0.59119,-0.6092 0.95352,-1.02932 l 0.65877,-0.76384 -0.66146,0.1345 c -0.3638,0.074 -0.85357,0.21585 -1.08837,0.31528 -0.38096,0.16131 -0.41245,-0.0955 -0.29263,-2.38639 0.16315,-3.11903 -0.13269,-3.12907 -1.14017,-0.0387 -0.85662,2.62763 -1.78276,4.16443 -2.50967,4.16443 -0.66786,0 -0.6673,-0.51246 0.004,-3.43958 0.28357,-1.23693 0.51337,-2.96334 0.51068,-3.83646 l -0.005,-1.5875 -0.49953,0.9449 c -0.59534,1.12612 -1.20197,1.67849 -1.58404,1.44235 -0.69464,-0.42931 -1.11979,-1.86925 -1.12581,-3.813 l -0.006,-2.01383 -0.54985,1.19062 c -0.74332,1.60955 -0.90591,4.59535 -0.34058,6.2545 0.51158,1.50139 0.53348,1.95046 0.0945,1.93878 -0.41346,-0.011 -1.17336,-0.65629 -2.11667,-1.79743 l -0.72761,-0.8802 0.006,1.01249 c 0.003,0.55687 0.24089,1.53056 0.52822,2.16375 0.50857,1.12076 0.49867,1.62686 -0.0318,1.62686 -0.14316,0 -0.86854,-0.56555 -1.611933,-1.25677 l -1.351632,-1.25677 0.153718,1.52614 c 0.221472,2.19878 1.910707,4.82272 4.054157,6.29746 0.64014,0.44043 1.16389,0.91412 1.16389,1.05265 0,0.13853 -0.44648,0.24896 -0.99219,0.24541 -4.269852,-0.0278 -9.751402,-3.63823 -11.639749,-7.66645 -1.179423,-2.51595 -1.435667,-4.11134 -1.225349,-7.62917 0.209097,-3.49747 0.40155,-3.50474 1.549236,-0.0585 0.709816,2.13139 1.299308,3.1898 1.776576,3.1898 0.463429,0 0.05965,-2.38643 -0.721389,-4.2636 -1.022498,-2.4575 -0.997146,-4.6417 0.07988,-6.88176 l 0.811082,-1.68693 0.02416,1.19062 c 0.03282,1.61722 1.005483,3.59055 2.512711,5.09778 1.30569,1.30569 1.869482,1.57685 1.640901,0.7892 -1.309817,-4.51334 -1.126271,-7.09626 0.695669,-9.78958 0.615246,-0.9095 1.193003,-1.65365 1.283901,-1.65365 0.0909,0 0.295881,1.01178 0.455511,2.24839 0.15963,1.23661 0.44339,2.51654 0.63058,2.84427 0.29876,0.52308 0.35866,0.25644 0.49031,-2.18224 0.16281,-3.01606 0.2003,-3.12093 2.64911,-7.40833 1.45048,-2.53953 2.23241,-5.14152 1.96825,-6.54963 -0.14896,-0.794 -0.11062,-0.90515 0.26275,-0.76187 0.24044,0.0923 0.48494,0.16775 0.54335,0.16775 0.26944,0 1.40285,2.65798 1.6697,3.91563 0.44331,2.08934 0.36744,3.2535 -0.36059,5.53314 -0.36194,1.13333 -0.6596,2.39134 -0.66146,2.79558 l -0.003,0.73497 1.57439,-1.25983 c 1.59825,-1.27891 5.04019,-2.90344 5.04019,-2.37887 0,0.15667 -0.46532,1.06592 -1.03405,2.02056 -1.33245,2.23657 -1.44698,2.88752 -0.95778,5.44402 0.22233,1.16188 0.40426,2.55899 0.40428,3.10469 3e-5,0.54571 0.055,0.99219 0.12219,0.99219 0.0672,0 0.69225,-0.55499 1.38906,-1.23332 1.34057,-1.30502 2.63765,-2.20363 3.18313,-2.20527 0.2046,-5.3e-4 0.005,0.61708 -0.52917,1.63609 -0.74034,1.41281 -0.85559,1.89309 -0.84125,3.50573 0.009,1.02776 0.1686,2.31938 0.35436,2.87027 l 0.33775,1.00162 1.0129,-0.91509 c 1.2876,-1.16327 2.05801,-1.64273 2.98598,-1.85829 0.71397,-0.16585 0.72612,-0.15132 0.3607,0.43154 -0.58149,0.92752 -1.15354,2.95577 -1.76551,6.25973 -0.30671,1.65589 -0.799,3.65576 -1.09398,4.44415 -1.31108,3.50418 -6.12299,6.43576 -10.56369,6.43576 -0.55363,0 -1.07598,-0.11225 -1.16077,-0.24944 z"
         id="path212"
         inkscape:connector-curvature="0" />
      <path
         style="fill:#5b1510;stroke-width:0.26458335"
         d="m 67.704632,199.05657 -37.768927,-37.76961 37.76962,-37.76893 37.769615,-37.768923 37.76893,37.769623 37.76892,37.76961 -37.76961,37.76893 -37.76962,37.76892 z m 75.424528,-0.41445 37.38962,-37.39033 -34.21497,-34.24978 C 127.48557,108.16463 110.57841,91.283111 108.73235,89.487531 l -3.35648,-3.26469 -37.488991,37.517529 -37.488988,37.51752 37.446195,37.38728 c 20.595405,20.563 37.547274,37.38727 37.670824,37.38727 0.12354,0 17.04996,-16.82564 37.61425,-37.39032 z M 90.886061,213.18499 C 82.750364,205.01437 67.832418,190.01667 57.735068,179.85676 l -18.358816,-18.47255 7.524606,-7.58891 c 4.138534,-4.17389 19.059204,-19.18272 33.157043,-33.35295 l 25.632439,-25.764042 2.80237,2.875318 c 1.54131,1.581424 16.3755,16.551514 32.96487,33.266874 16.58938,16.71535 30.1625,30.49106 30.1625,30.61269 0,0.12163 -6.72703,6.99157 -14.94895,15.26655 -8.22193,8.27497 -23.05885,23.2119 -32.97093,33.19316 l -18.02196,18.14776 z m 55.543729,-27.90583 c 12.90878,-12.99841 23.4705,-23.72773 23.4705,-23.84293 0,-0.17857 -17.92674,-18.30765 -55.60742,-56.23508 l -8.66932,-8.726084 -31.478962,31.640614 c -17.313429,17.40233 -31.801871,32.02436 -32.196534,32.49339 l -0.717571,0.85278 11.484383,11.5553 c 6.316412,6.35541 20.828017,20.93538 32.248016,32.39993 l 20.763628,20.84464 8.61639,-8.67453 c 4.73902,-4.771 19.17812,-19.30961 32.08689,-32.30803 z m -39.76491,27.08516 v -1.4673 h -3.70417 -3.704168 l 0.0034,-1.78593 0.0034,-1.78594 3.706738,-4.43177 3.70675,-4.43177 h 1.68293 c 2.0757,0 2.00076,-0.19526 2.00562,5.22552 l 0.004,4.03489 h 0.79375 0.79375 v 1.5875 c 0,1.58125 -0.003,1.5875 -0.77992,1.5875 -0.75432,0 -0.78255,0.0456 -0.8599,1.38907 l -0.08,1.38906 -1.78594,0.0782 -1.78593,0.0782 z m -0.11157,-4.99778 c 0.075,-0.19553 0.10106,-1.21577 0.0579,-2.26722 l -0.0786,-1.91173 -1.5875,1.91589 c -2.30032,2.77616 -2.2841,2.61854 -0.26942,2.61854 1.2136,0 1.78258,-0.10772 1.87765,-0.35548 z M 84.424423,184.71697 c -1.741747,-0.52851 -2.808928,-1.88765 -2.957793,-3.76696 l -0.06946,-0.87694 1.496719,-0.0786 1.496721,-0.0786 0.309777,0.93863 c 0.485826,1.47207 2.286979,1.69026 2.763671,0.33479 0.325705,-0.92614 -0.224171,-1.49544 -2.098138,-2.17228 -2.645817,-0.95561 -3.571875,-2.07449 -3.571875,-4.31561 0,-2.25449 1.272482,-3.57831 3.768363,-3.92041 2.278652,-0.31233 4.694565,1.4264 4.697314,3.38064 0.0011,0.66426 -0.07879,0.70813 -1.442563,0.79375 -1.307825,0.0821 -1.457381,0.0354 -1.590625,-0.49704 -0.282514,-1.12889 -1.982997,-1.43531 -2.369902,-0.42705 -0.223354,0.58205 0.245832,1.06457 1.390348,1.42987 1.742353,0.55612 3.379462,1.5846 3.892428,2.44534 0.694021,1.16454 0.676786,3.42947 -0.03654,4.80193 -0.939197,1.80706 -3.434168,2.68958 -5.678443,2.00857 z m 10.398181,-0.48177 c -1.032643,-0.56755 -2.018197,-1.94622 -2.416276,-3.38005 -0.363485,-1.30924 -0.377523,-4.70244 -0.02471,-5.97258 0.619707,-2.23099 2.190515,-3.68196 4.194519,-3.87452 1.983095,-0.19055 3.118829,0.12087 4.285803,1.17517 1.41643,1.27966 1.91437,3.01757 1.79273,6.25703 -0.10559,2.81201 -0.78533,4.55014 -2.16407,5.53357 -1.142913,0.81524 -4.387998,0.96489 -5.667994,0.26138 z m 3.415398,-2.72822 c 1.255675,-0.67202 1.750335,-4.4817 0.819692,-6.31295 -1.030867,-2.02845 -3.070823,-1.5142 -3.713014,0.93601 -0.505442,1.92847 -0.196567,3.97634 0.741172,4.91408 0.805023,0.80503 1.309909,0.91361 2.15215,0.46286 z m 6.107298,-3.61673 0.0706,-6.81302 1.65364,-0.0788 1.65365,-0.0788 v 5.172 5.172 h 2.38125 2.38125 v 1.71979 1.71979 h -4.10551 -4.10551 z m 9.99249,0.0661 v -6.74688 h 1.5875 1.5875 v 6.74688 6.74687 h -1.5875 -1.5875 z m 5.55625,0.0316 v -6.71527 l 2.73304,-0.18628 c 2.12948,-0.14515 2.9329,-0.10123 3.63802,0.19888 1.89291,0.80563 2.87092,2.62617 3.08377,5.74035 0.18512,2.7084 -0.28267,4.81252 -1.33682,6.01314 -1.21144,1.37975 -2.12336,1.66445 -5.33138,1.66445 h -2.78663 z m 5.46108,2.86575 c 0.64331,-0.64331 0.6703,-0.78984 0.58329,-3.16598 -0.10301,-2.81285 -0.32732,-3.22455 -1.8955,-3.47903 l -0.97387,-0.15803 v 3.73878 3.73878 h 0.80578 c 0.51088,0 1.05264,-0.24686 1.4803,-0.67452 z M 56.129457,159.03869 v -6.87917 h 3.96875 3.96875 v 1.5875 1.5875 h -2.248958 -2.248958 v 1.04675 1.04674 l 1.918229,0.0777 1.918229,0.0777 0.07997,1.38907 0.07997,1.38906 h -1.998202 -1.998202 v 2.77812 2.77813 h -1.719792 -1.719792 z m 9.789584,0.13229 v -6.74687 h 1.449496 1.449493 l 0.07186,5.09323 0.07186,5.09323 2.447396,0.0761 2.447396,0.0761 v 1.57757 1.57757 h -3.96875 -3.96875 z m 9.594088,2.97657 c 0.576091,-2.07368 1.434031,-5.13954 1.906537,-6.81303 l 0.859102,-3.0427 h 1.812944 1.812944 l 1.782627,6.2177 c 0.980448,3.41974 1.850798,6.4856 1.93411,6.81303 0.145507,0.57183 0.08367,0.59531 -1.568313,0.59531 -1.661096,0 -1.725231,-0.0248 -1.879222,-0.72761 -0.316245,-1.44326 -0.275015,-1.41769 -2.153102,-1.33508 l -1.780553,0.0783 -0.233741,0.99219 -0.233738,0.99219 H 76.11921 74.465697 Z m 5.481119,-1.85209 c -0.0033,-0.1819 -0.222218,-1.16416 -0.486434,-2.18281 l -0.48039,-1.85208 -0.439608,1.90431 c -0.577062,2.49974 -0.584658,2.46131 0.486433,2.46131 0.567667,0 0.923703,-0.12799 0.919999,-0.33073 z m 5.562293,-1.10886 c 0,-3.70219 0.0893,-6.778 0.198438,-6.83513 0.10914,-0.0571 1.098936,-0.0523 2.199542,0.0108 l 2.001107,0.11467 0.746273,3.82756 c 0.410449,2.10515 0.832824,3.73037 0.93861,3.61159 0.105783,-0.11877 0.46328,-1.70423 0.794432,-3.52324 0.331153,-1.81902 0.658128,-3.45612 0.726612,-3.63803 0.08416,-0.22353 0.758529,-0.33072 2.080586,-0.33072 h 1.956067 v 6.74687 6.74688 h -1.184785 -1.184789 l -0.07198,-4.96094 -0.07199,-4.96093 -0.86746,4.36563 c -0.477102,2.40109 -0.925854,4.63351 -0.997228,4.96094 -0.110154,0.50532 -0.302326,0.59531 -1.27137,0.59531 h -1.141603 l -0.871358,-4.56406 c -0.479245,-2.51024 -0.971666,-4.74266 -1.094269,-4.96094 -0.127217,-0.2265 -0.226367,1.73281 -0.230957,4.56406 l -0.008,4.96094 h -1.322917 -1.322917 z m 13.820009,-0.0818 0.0706,-6.81302 h 2.11666 2.11667 l 0.7761,3.96875 0.7761,3.96875 0.8114,-3.96875 0.8114,-3.96875 1.44107,-0.0818 c 0.79258,-0.045 1.71532,-0.0129 2.05052,0.0712 l 0.60945,0.15296 v 6.74183 6.74184 h -1.32291 -1.32292 l -0.0254,-4.43177 -0.0254,-4.43177 -0.75899,3.83645 c -1.1111,5.6163 -0.85738,5.06842 -2.30394,4.97509 l -1.24447,-0.0803 -0.84352,-4.23334 -0.84352,-4.23333 -0.0201,4.29948 -0.0201,4.29948 h -1.45967 -1.45968 z m 14.1341,1.85208 c 0.79074,-2.72851 1.67726,-5.7699 1.97005,-6.75863 l 0.53233,-1.79769 1.76243,0.0779 1.76243,0.0779 1.15226,3.96875 c 0.63374,2.18281 1.5009,5.15912 1.92703,6.61403 0.42613,1.4549 0.77478,2.67529 0.77478,2.71197 0,0.0367 -0.75699,0.0667 -1.6822,0.0667 h -1.6822 l -0.23721,-1.12448 -0.23722,-1.12448 h -1.8509 -1.8509 l -0.24925,1.12448 -0.24925,1.12448 h -1.63995 -1.63994 z m 5.20096,-0.26458 c 0.14258,-0.24953 -0.88296,-4.6452 -1.04577,-4.48239 -0.22123,0.22123 -1.1106,4.27086 -0.98322,4.47697 0.16208,0.26225 1.87962,0.26683 2.02899,0.005 z m 5.73868,-1.62884 v -6.90398 h 3.1835 c 3.87261,0 4.84584,0.31571 5.45302,1.76887 0.55064,1.31787 0.36047,3.37465 -0.38052,4.11564 l -0.54868,0.54869 0.63789,0.50176 c 1.43235,1.12669 1.50618,4.1508 0.14127,5.78642 l -0.75493,0.90467 -3.86578,0.0909 -3.86577,0.091 z m 5.82084,3.41477 c 0.60021,-0.60021 0.64437,-0.87785 0.25527,-1.60489 -0.21433,-0.40047 -0.55956,-0.51177 -1.5875,-0.51177 h -1.31361 v 1.14653 c 0,0.63059 0.0794,1.2259 0.17639,1.32291 0.38422,0.38422 1.95716,0.15951 2.46945,-0.35278 z m -0.047,-5.90297 c 0.11889,-1.03686 -0.37063,-1.50536 -1.57287,-1.50536 h -1.02594 v 1.20512 1.20512 l 1.25677,-0.0806 c 1.15803,-0.0743 1.26347,-0.13907 1.34204,-0.82424 z m 5.60328,2.59568 v -6.74687 h 1.44949 1.4495 l 0.0719,5.09323 0.0719,5.09323 2.4474,0.0761 2.4474,0.0761 v 1.57757 1.57757 h -3.96875 -3.96875 z m 9.525,-0.13884 v -6.88572 l 4.29948,0.0727 4.29947,0.0727 v 1.4552 1.45521 l -2.71197,0.0754 -2.71198,0.0754 v 0.91678 0.91679 h 2.51354 2.51354 v 1.44528 1.44528 l -2.4474,0.0761 -2.44739,0.0761 -0.0806,1.25677 -0.0806,1.25677 h 2.79262 2.79263 v 1.5875 1.5875 H 150.718 146.35238 Z M 93.501854,145.61813 c -0.614013,-0.0762 -0.859896,-0.24361 -0.859896,-0.58548 0,-0.44326 0.470763,-0.49315 6.35,-0.67288 3.492502,-0.10677 9.207502,-0.10677 12.700002,0 l 6.35,0.19412 v 0.62782 0.62781 l -11.84011,-0.0423 c -6.512053,-0.0233 -12.227053,-0.0904 -12.699996,-0.14905 z m 12.839486,-3.65341 c -0.29115,-0.30107 0.0293,-0.65311 0.59453,-0.65311 0.79656,0 2.21547,-1.42681 3.13552,-3.153 0.46438,-0.87128 1.31941,-2.18516 1.90006,-2.91974 1.06096,-1.34221 0.94415,-1.72588 -0.31955,-1.04958 -0.29394,0.15732 -0.58434,0.23612 -0.64533,0.17512 -0.061,-0.061 0.006,-0.72795 0.14914,-1.48211 0.14302,-0.75417 0.18503,-1.91851 0.0933,-2.58742 -0.16101,-1.17468 -0.1787,-1.19482 -0.51813,-0.58984 -0.19329,0.3445 -0.59154,1.41189 -0.88502,2.37198 -0.5567,1.82123 -1.40817,3.29886 -2.17615,3.77645 -0.7128,0.44327 -0.83991,0.0288 -0.49472,-1.61316 0.77891,-3.70513 1.03873,-5.60195 0.85928,-6.27298 l -0.19285,-0.72108 -0.4443,0.93169 c -1.17101,2.45565 -2.35194,1.45693 -2.59466,-2.19435 l -0.15069,-2.26677 -0.50201,1.05833 c -0.69843,1.47245 -0.86186,5.22225 -0.28751,6.59686 0.89476,2.14145 0.33559,2.29848 -1.47939,0.41548 l -1.27428,-1.32204 0.002,1.1236 c 8e-4,0.61798 0.17949,1.46463 0.39688,1.88145 0.21738,0.41682 0.39524,0.98655 0.39524,1.26608 0,0.44109 -0.0786,0.46791 -0.59531,0.20305 -0.32742,-0.16784 -1.0569,-0.73758 -1.62107,-1.26607 l -1.025761,-0.96091 0.146812,1.522 c 0.234807,2.43422 2.090209,5.14813 4.682829,6.8496 2.03359,1.33459 -2.76551,0.7005 -5.768052,-0.76212 -2.682322,-1.30665 -5.216215,-3.76837 -6.334678,-6.15427 -1.179422,-2.51595 -1.435666,-4.11134 -1.225349,-7.62917 0.209098,-3.49747 0.40155,-3.50474 1.549236,-0.0585 0.709816,2.13139 1.299308,3.1898 1.776577,3.1898 0.463428,0 0.05965,-2.38643 -0.721389,-4.2636 -1.022499,-2.4575 -0.997146,-4.6417 0.07988,-6.88176 l 0.811083,-1.68693 0.02416,1.19062 c 0.03282,1.61722 1.005483,3.59055 2.512711,5.09778 1.30569,1.30569 1.869483,1.57685 1.640901,0.7892 -0.598202,-2.06127 -0.765524,-3.12389 -0.782013,-4.96639 -0.02141,-2.39118 0.482476,-3.7698 2.033701,-5.5643 l 0.878105,-1.01582 0.176837,1.90276 c 0.0973,1.04653 0.38441,2.40922 0.63811,3.02821 l 0.46127,1.12544 0.14535,-2.84121 c 0.13911,-2.71935 0.19494,-2.93497 1.30147,-5.02709 3.11845,-5.89603 3.23502,-6.17104 3.3797,-7.97342 0.0774,-0.96419 0.23484,-1.75307 0.34987,-1.75307 0.43522,0 1.32956,1.45741 1.68979,2.75367 0.78971,2.84171 0.77514,3.86827 -0.0982,6.91467 -0.82152,2.86578 -0.94909,3.56082 -0.65356,3.56082 0.0887,0 0.78414,-0.5692 1.54535,-1.2649 1.40396,-1.28314 5.17248,-3.20548 5.17248,-2.63851 0,0.16485 -0.46532,1.08079 -1.03405,2.03543 -1.33245,2.23657 -1.44698,2.88752 -0.95778,5.44402 0.22233,1.16188 0.40426,2.55899 0.40428,3.10469 3e-5,0.54571 0.055,0.99219 0.12219,0.99219 0.0672,0 0.69225,-0.55499 1.38906,-1.23332 1.34057,-1.30502 2.63765,-2.20363 3.18313,-2.20527 0.2046,-5.3e-4 0.005,0.61708 -0.52917,1.63609 -0.74034,1.41281 -0.85559,1.89309 -0.84125,3.50573 0.009,1.02776 0.1686,2.31938 0.35436,2.87027 l 0.33775,1.00162 1.0129,-0.91509 c 1.2876,-1.16327 2.05801,-1.64273 2.98598,-1.85829 0.71397,-0.16585 0.72612,-0.15132 0.3607,0.43154 -0.58204,0.92841 -1.15368,2.95653 -1.76792,6.27247 -0.30803,1.66289 -0.77692,3.59418 -1.04197,4.29174 -0.98119,2.58227 -3.05103,4.46347 -6.22593,5.6585 -1.74931,0.65844 -5.1347,1.13765 -5.48415,0.77629 z"
         id="path210"
         inkscape:connector-curvature="0" />
      <path
         style="fill:#040303;stroke-width:0.26458335"
         d="M 67.752214,198.83957 30.068462,161.15513 67.771587,123.452 105.47471,85.748877 l 37.78245,37.783143 37.78245,37.78314 -37.80182,37.60443 -37.80182,37.60443 z m 75.425276,-75.12264 c -20.59087,-20.59126 -37.55733,-37.438655 -37.70324,-37.438655 -0.14591,0 -17.112314,16.847345 -37.703126,37.438545 l -37.437842,37.43854 37.57025,37.57095 37.570248,37.57095 37.57084,-37.57084 37.57083,-37.57083 z M 80.328382,202.49522 C 66.498153,188.5623 51.651436,173.58539 47.335675,169.21318 l -7.846837,-7.94947 16.994986,-17.05365 c 9.347243,-9.37952 24.211897,-24.32975 33.032569,-33.22276 L 105.55398,94.818198 119.9339,109.2679 c 7.90897,7.94734 22.82187,22.92589 33.1398,33.28568 l 18.75987,18.83597 -33.02514,33.2204 c -18.16383,18.27123 -33.09468,33.21983 -33.17966,33.21912 -0.085,-7.9e-4 -11.470162,-11.40094 -25.300388,-25.33385 z m 57.008768,-8.02683 c 17.37907,-17.47517 31.82404,-32.06 32.09993,-32.41074 0.49176,-0.62517 0.4918,-0.65019 0.002,-1.27267 -0.2747,-0.34922 -14.75581,-14.96415 -32.18024,-32.4776 L 105.57822,96.464733 89.651235,112.47476 c -8.759841,8.80552 -23.231306,23.35545 -32.158808,32.33318 -8.927502,8.97774 -16.189063,16.45143 -16.136803,16.60821 0.05226,0.15678 4.261288,4.47826 9.353394,9.60328 5.092107,5.12502 19.491894,19.64689 31.999529,32.27082 12.507632,12.62394 22.806213,22.95229 22.885723,22.95189 0.0795,-2.7e-4 14.3638,-14.29858 31.74288,-31.77375 z m -30.67227,17.75155 v -1.32292 h -3.70417 -3.704168 v -1.70623 -1.70623 l 3.628058,-4.37918 3.62805,-4.37919 h 1.7959 1.79591 v 4.49792 4.49791 h 0.92604 0.92604 v 1.5875 1.5875 h -0.92604 -0.92604 v 1.32292 1.32292 h -1.71979 -1.71979 z m 0,-6.74687 c 0,-1.23693 -0.0493,-2.24896 -0.10947,-2.24896 -0.15789,0 -3.5947,4.14769 -3.5947,4.33825 0,0.0878 0.83344,0.15966 1.85208,0.15966 h 1.85209 z M 83.778416,184.46413 c -1.174549,-0.51529 -2.248958,-2.23023 -2.248958,-3.58971 0,-0.54368 0.163798,-0.64193 1.339855,-0.80368 0.736923,-0.10136 1.366779,-0.14229 1.39968,-0.091 0.0329,0.0513 0.175681,0.44681 0.317283,0.87887 0.141603,0.43206 0.56959,0.96076 0.951082,1.17489 0.621065,0.34859 0.766006,0.34189 1.38557,-0.0641 0.478716,-0.31367 0.691947,-0.68612 0.691947,-1.20864 0,-0.89018 -0.295659,-1.16673 -1.719792,-1.60867 -3.635089,-1.12805 -4.993844,-3.56783 -3.556289,-6.38568 0.667354,-1.30812 1.761946,-1.82191 3.87852,-1.82054 1.870614,10e-4 3.117003,0.67527 3.662442,1.98068 0.717677,1.71765 0.572013,1.98708 -1.074256,1.98708 -1.042604,0 -1.455209,-0.1009 -1.455209,-0.35587 0,-0.97633 -1.745808,-1.60042 -2.370701,-0.84746 -0.648449,0.78133 -0.187399,1.2999 1.811806,2.03786 1.072962,0.39605 2.294395,1.04925 2.714297,1.45154 1.671876,1.60176 1.577562,4.75038 -0.19372,6.46718 -0.876853,0.84988 -1.046229,0.90498 -2.967165,0.96534 -1.120473,0.0352 -2.27535,-0.0405 -2.566392,-0.16815 z m 11.077001,-0.26848 c -2.048407,-1.24906 -2.875777,-3.4336 -2.689936,-7.10233 0.212023,-4.18563 1.892678,-6.14838 5.2647,-6.14838 3.204399,0 4.888029,1.92547 5.190629,5.93623 0.25707,3.40729 -0.63346,5.92908 -2.5498,7.2205 -1.187692,0.80038 -3.974752,0.8506 -5.215593,0.094 z m 3.357446,-2.67522 c 0.853856,-0.45697 1.308262,-1.69327 1.308262,-3.55939 0,-2.15481 -0.517282,-3.4845 -1.501058,-3.85853 -1.73599,-0.66002 -2.861138,0.80266 -2.849751,3.70465 0.01241,3.16285 1.249628,4.67281 3.042547,3.71327 z m 6.335347,-3.56403 v -6.74688 h 1.45521 1.45521 v 5.02709 5.02708 h 2.51354 2.51354 v 1.71979 1.71979 h -3.96875 -3.96875 z m 9.78958,0 v -6.74688 h 1.5875 1.5875 v 6.74688 6.74687 h -1.5875 -1.5875 z m 5.55625,0 v -6.74688 h 3.13588 c 2.81606,0 3.22521,0.0607 4.01188,0.59532 1.50982,1.02604 1.96784,2.29183 2.07008,5.72096 0.17164,5.75695 -1.17411,7.155 -6.90273,7.17101 l -2.31511,0.006 z m 5.29749,3.30418 c 0.9311,-0.49831 1.34015,-3.31619 0.77617,-5.3469 -0.31507,-1.13445 -1.11036,-1.79374 -2.16378,-1.79374 h -0.73488 v 3.70417 3.70416 h 0.81115 c 0.44613,0 1.03623,-0.12046 1.31134,-0.26769 z m -69.062073,-22.0896 v -6.74687 h 3.96875 3.96875 v 1.31261 1.31262 l -2.315104,0.0764 -2.315104,0.0764 -0.08064,1.25677 -0.08064,1.25677 h 1.998872 1.998871 v 1.32292 1.32292 h -1.984375 -1.984375 v 2.77812 2.77813 h -1.5875 -1.5875 z m 9.789584,0 v -6.74687 h 1.449496 1.449493 l 0.07186,5.09323 0.07186,5.09323 2.447396,0.0761 2.447396,0.0761 v 1.57757 1.57757 h -3.96875 -3.96875 z m 8.73125,6.47164 c 0,-0.2523 1.927521,-7.14316 3.201226,-11.44433 l 0.532349,-1.79769 1.762509,0.0779 1.762506,0.0779 1.399582,4.89479 c 0.769768,2.69214 1.627725,5.69847 1.906567,6.68073 l 0.506986,1.78594 h -1.661811 -1.661813 l -0.237212,-1.12448 -0.237215,-1.12448 h -1.850898 -1.850901 l -0.249253,1.12448 -0.249254,1.12448 h -1.536684 c -0.887725,0 -1.536684,-0.11624 -1.536684,-0.27524 z m 6.432156,-4.95028 c 0.142579,-0.24953 -0.882962,-4.6452 -1.045771,-4.48239 -0.221234,0.22123 -1.110607,4.27086 -0.983226,4.47697 0.162078,0.26225 1.879624,0.26683 2.028997,0.005 z m 5.738678,-1.52136 v -6.74687 h 2.069917 2.069918 l 0.750654,3.9923 c 0.412859,2.19577 0.835517,3.83288 0.939239,3.63802 0.10372,-0.19485 0.449443,-1.78303 0.768268,-3.52928 0.318829,-1.74625 0.639607,-3.38336 0.712841,-3.63802 0.111437,-0.3875 0.453916,-0.46302 2.099701,-0.46302 h 1.966545 v 6.74687 6.74688 h -1.184785 -1.184789 l -0.07198,-4.96094 -0.07199,-4.96094 -0.749503,3.70417 c -0.412226,2.03729 -0.868577,4.26971 -1.014111,4.96094 l -0.26461,1.25677 h -1.112433 -1.112432 l -0.886299,-4.56406 c -0.487463,-2.51024 -0.985412,-4.74266 -1.106554,-4.96094 -0.12378,-0.22303 -0.223782,1.77615 -0.228303,4.56406 l -0.008,4.96094 H 88.01175 86.821125 Z m 13.758335,-0.0111 v -6.758 l 2.04542,0.0773 2.04542,0.0773 0.68744,3.63685 c 0.37809,2.00027 0.75693,3.70635 0.84188,3.7913 0.15203,0.15202 0.26265,-0.31133 1.20486,-5.0469 l 0.47379,-2.38125 2.03914,-0.0773 2.03913,-0.0773 v 6.758 6.75801 h -1.19062 -1.19063 l -0.008,-4.96094 c -0.005,-2.77259 -0.1048,-4.78587 -0.22738,-4.56406 -0.12064,0.21828 -0.60562,2.4507 -1.07774,4.96094 l -0.8584,4.56406 h -1.16318 c -0.63974,0 -1.16427,-0.0298 -1.16561,-0.0661 -0.02,-0.54147 -1.83478,-9.2676 -1.95175,-9.38457 -0.0894,-0.0893 -0.16248,2.0005 -0.16248,4.64413 v 4.8066 h -1.19063 -1.19062 v -6.75801 z m 12.7,6.48985 c 0,-0.25801 1.64335,-6.12801 3.2059,-11.45141 l 0.52767,-1.79769 1.73959,0.0779 1.73959,0.0779 1.41984,4.89479 c 0.78091,2.69214 1.64918,5.69846 1.92948,6.68073 l 0.50965,1.78594 h -1.66181 -1.66181 l -0.23639,-1.12448 -0.23639,-1.12448 -1.878,-0.0769 -1.878,-0.0769 -0.23843,1.13527 -0.23843,1.13527 -1.52123,0.0793 c -0.98851,0.0516 -1.52123,-0.0238 -1.52123,-0.2152 z m 6.43215,-4.95735 c 0.15293,-0.26764 -0.88915,-4.63901 -1.06416,-4.464 -0.12653,0.12653 -1.10477,4.006 -1.12562,4.464 -0.005,0.10914 0.46018,0.19843 1.03368,0.19843 0.57349,0 1.09374,-0.0893 1.1561,-0.19843 z m 5.73868,-1.52136 v -6.74687 h 3.42714 c 1.99928,0 3.70259,0.12551 4.08829,0.30124 1.47083,0.67016 1.9471,3.43512 0.86609,5.02807 l -0.61431,0.90524 0.72444,0.71396 c 1.26515,1.24687 1.34214,3.8331 0.15831,5.31777 -0.74781,0.93783 -2.00211,1.20054 -5.80569,1.21595 l -2.84427,0.0115 z m 5.93423,3.42069 c 1.06972,-1.06973 0.0646,-2.49465 -1.75977,-2.49465 h -0.99946 v 1.45521 1.45521 h 1.17173 c 0.71243,0 1.3347,-0.16298 1.5875,-0.41577 z m -0.24578,-5.50007 c 0.41294,-0.63024 0.30332,-1.44358 -0.24519,-1.81917 -0.15614,-0.10691 -0.73037,-0.19621 -1.27607,-0.19844 l -0.99219,-0.004 v 1.32292 1.32291 h 1.05224 c 0.81366,0 1.14496,-0.14152 1.46121,-0.62417 z m 5.68864,2.07938 v -6.74687 h 1.44949 1.4495 l 0.0719,5.09323 0.0719,5.09323 2.4474,0.0761 2.4474,0.0761 v 1.57757 1.57757 h -3.96875 -3.96875 z m 9.525,0 v -6.74687 h 4.23333 4.23333 v 1.31333 1.31334 l -2.57968,0.0757 -2.57969,0.0757 -0.0814,1.12448 -0.0814,1.12448 h 2.52875 2.52876 v 1.32292 1.32291 h -2.52737 -2.52737 l 0.08,1.38907 0.08,1.38906 2.71198,0.0754 2.71198,0.0754 v 1.44596 1.44595 h -4.36563 -4.36562 z m -52.718234,-13.5542 c -0.769835,-0.0805 -0.992188,-0.21879 -0.992188,-0.61698 0,-0.50074 0.308139,-0.51319 12.700002,-0.51319 h 12.7 v 0.66146 0.66145 l -11.70781,-0.0445 c -6.439301,-0.0245 -12.154301,-0.0912 -12.700004,-0.14827 z m 13.084984,-3.7138 c -0.51889,-0.0873 -0.42267,-0.19456 0.66146,-0.73757 1.27912,-0.64068 1.97954,-1.49715 3.65875,-4.47386 0.40731,-0.72202 1.02564,-1.59785 1.37408,-1.94629 0.77194,-0.77194 0.58152,-1.05034 -0.45165,-0.66036 -0.96371,0.36376 -1.07454,0.25003 -0.7748,-0.79511 0.33148,-1.1558 0.30725,-4.14902 -0.0336,-4.14902 -0.27585,0 -1.31333,2.15905 -1.31372,2.73392 -5.3e-4,0.67742 -1.57959,3.59334 -2.09553,3.86946 -0.50561,0.2706 -0.54955,0.22412 -0.54331,-0.5748 0.004,-0.47806 0.23881,-1.88123 0.52238,-3.11816 0.53254,-2.32295 0.65297,-3.86742 0.3609,-4.62854 -0.13228,-0.34473 -0.28787,-0.22748 -0.7276,0.5483 -0.71606,1.26329 -1.40146,1.71948 -1.75757,1.16982 -0.55856,-0.86215 -0.84007,-2.58382 -0.69218,-4.23333 l 0.15419,-1.71979 -0.50394,0.65894 c -0.65875,0.86136 -1.33398,3.30204 -1.32308,4.78237 0.005,0.6453 0.23899,1.82812 0.52053,2.62848 0.28154,0.80037 0.51578,1.54757 0.52053,1.66044 0.0201,0.47766 -1.58334,-0.67044 -2.30297,-1.64898 -0.43001,-0.58473 -0.85973,-0.98527 -0.95491,-0.89008 -0.28878,0.28878 -0.17295,1.47934 0.25281,2.59841 0.22146,0.58209 0.46824,1.2667 0.54841,1.52136 0.25982,0.82532 -0.65564,0.51708 -1.76804,-0.59532 -0.582082,-0.58208 -1.117863,-1.05833 -1.190623,-1.05833 -0.07276,0 -0.131128,0.50602 -0.129707,1.12448 0.0049,2.15023 1.76589,5.03565 4.07525,6.67755 0.90324,0.64218 1.11604,0.91013 0.81465,1.02579 -0.56865,0.21821 -3.987835,-0.47508 -5.421652,-1.09931 -2.803988,-1.22076 -5.970654,-4.27066 -7.005349,-6.74703 -0.990669,-2.37101 -1.217099,-3.93206 -1.034553,-7.1324 0.200179,-3.50951 0.440714,-3.60132 1.410857,-0.53851 0.615582,1.94343 1.147209,3.02723 1.716807,3.49995 0.736571,0.6113 0.500422,-1.63143 -0.424233,-4.02895 -1.093378,-2.83501 -1.111348,-4.80162 -0.06398,-7.00205 l 0.724557,-1.52223 0.188811,1.35975 c 0.103847,0.74786 0.527053,1.9812 0.940457,2.74076 0.993965,1.82625 3.726677,4.1867 3.171237,2.73924 -0.09208,-0.23996 -0.349136,-1.48927 -0.57123,-2.77624 -0.522893,-3.03001 -0.230124,-4.82232 1.104599,-6.76228 1.503685,-2.18555 1.694102,-2.24811 1.694102,-0.55665 0,1.60633 0.61127,3.96522 1.14156,4.40533 0.28148,0.2336 0.3431,-0.22165 0.3299,-2.43704 -0.018,-3.01872 -0.2383,-2.41135 3.30458,-9.1109 0.98148,-1.85597 1.17747,-2.4825 1.26585,-4.04677 0.12577,-2.22569 0.41034,-2.25915 1.46132,-0.17182 1.14327,2.27064 1.26243,5.14706 0.33481,8.08184 -0.38185,1.20806 -0.69427,2.55704 -0.69427,2.99773 v 0.80125 l 1.48673,-1.32509 c 1.54035,-1.37289 5.19122,-3.366 5.3513,-2.92141 0.0501,0.13923 -0.39405,1.05617 -0.98706,2.03764 -1.3759,2.27719 -1.49982,2.96692 -0.98251,5.46841 0.23277,1.12552 0.42321,2.50991 0.42321,3.07643 0,0.56652 0.0957,1.03003 0.21268,1.03003 0.11697,0 0.62299,-0.4315 1.12448,-0.95889 1.1434,-1.20246 2.86184,-2.48069 3.33501,-2.48069 0.25055,0 0.12576,0.42079 -0.41194,1.38906 -0.42426,0.76399 -0.85261,1.89594 -0.95189,2.51547 -0.2007,1.25245 0.29417,4.73266 0.70947,4.98933 0.14639,0.0905 0.82576,-0.38669 1.50972,-1.06036 0.68395,-0.67367 1.62506,-1.33427 2.09134,-1.468 0.46629,-0.13373 0.84773,-0.22169 0.84766,-0.19547 -7e-5,0.0262 -0.24713,0.69755 -0.54903,1.49185 -0.30189,0.79429 -0.88426,3.14111 -1.29416,5.21515 -0.40989,2.07403 -1.02039,4.34119 -1.35666,5.03811 -0.74543,1.5449 -2.72482,3.52823 -4.26138,4.26985 -1.85072,0.89326 -5.44139,1.64891 -6.77188,1.42513 z"
         id="path208"
         inkscape:connector-curvature="0" />
    </g>
  </g>
</svg>
