<?xml version="1.0" encoding="UTF-8" standalone="no"?>
<!-- Created with Inkscape (http://www.inkscape.org/) -->

<svg
   xmlns:dc="http://purl.org/dc/elements/1.1/"
   xmlns:cc="http://creativecommons.org/ns#"
   xmlns:rdf="http://www.w3.org/1999/02/22-rdf-syntax-ns#"
   xmlns:svg="http://www.w3.org/2000/svg"
   xmlns="http://www.w3.org/2000/svg"
   xmlns:sodipodi="http://sodipodi.sourceforge.net/DTD/sodipodi-0.dtd"
   xmlns:inkscape="http://www.inkscape.org/namespaces/inkscape"
   width="270.93332mm"
   height="270.93332mm"
   viewBox="0 0 270.93332 270.93333"
   version="1.1"
   id="svg230"
   inkscape:version="0.92.4 (5da689c313, 2019-01-14)"
   sodipodi:docname="Class_5.2_Organic_Peroxide.svg">
  <defs
     id="defs224" />
  <sodipodi:namedview
     id="base"
     pagecolor="#ffffff"
     bordercolor="#666666"
     borderopacity="1.0"
     inkscape:pageopacity="0.0"
     inkscape:pageshadow="2"
     inkscape:zoom="0.35"
     inkscape:cx="334.28571"
     inkscape:cy="315.14283"
     inkscape:document-units="mm"
     inkscape:current-layer="layer1"
     showgrid="false"
     inkscape:window-width="1920"
     inkscape:window-height="1017"
     inkscape:window-x="-8"
     inkscape:window-y="-8"
     inkscape:window-maximized="1" />
  <metadata
     id="metadata227">
    <rdf:RDF>
      <cc:Work
         rdf:about="">
        <dc:format>image/svg+xml</dc:format>
        <dc:type
           rdf:resource="http://purl.org/dc/dcmitype/StillImage" />
        <dc:title></dc:title>
      </cc:Work>
    </rdf:RDF>
  </metadata>
  <g
     inkscape:label="Layer 1"
     inkscape:groupmode="layer"
     id="layer1"
     transform="translate(-17.386905,38.71845)">
    <g
       id="g243"
       transform="matrix(1.7066666,0,0,1.7181207,-14.867071,-166.75833)">
      <path
         style="fill:#fefefe;stroke-width:0.26458335"
         d="M 18.898815,153.36905 V 74.523216 h 79.375 79.375005 v 78.845834 78.84584 h -79.375005 -79.375 z"
         id="path259"
         inkscape:connector-curvature="0" />
      <path
         style="fill:#fbd800;stroke-width:0.26458335"
         d="m 58.627653,192.71997 -39.51387,-39.21863 39.51387,-39.34507 C 80.360282,92.516485 98.224729,74.835703 98.326425,74.865647 c 0.289869,0.08535 79.061745,78.320783 79.025425,78.487263 -0.041,0.18792 -78.809843,78.44388 -79.040051,78.52539 -0.09365,0.0332 -17.951517,-17.58809 -39.684146,-39.15833 z"
         id="path257"
         inkscape:connector-curvature="0" />
      <path
         style="fill:#cfb200;stroke-width:0.26458335"
         d="M 63.348688,188.16163 28.556609,153.3688 63.415212,118.5102 98.273815,83.651592 133.13242,118.5102 l 34.8586,34.8586 -34.79208,34.79283 c -19.13564,19.13606 -34.851949,34.79284 -34.925125,34.79284 -0.07318,0 -15.789481,-15.65678 -34.925127,-34.79284 z M 132.14061,187.1033 165.87434,153.36879 132.07408,119.56853 98.273815,85.768267 64.473553,119.56853 30.673292,153.36879 64.407019,187.1033 c 18.553549,18.55398 33.793607,33.7345 33.866796,33.7345 0.07319,0 15.313245,-15.18052 33.866795,-33.7345 z m -47.980943,16.9444 c -1.252278,-0.4465 -2.184185,-1.29165 -2.844935,-2.58009 -0.802005,-1.56388 -0.706956,-1.72269 1.150229,-1.92183 0.909505,-0.0975 1.837946,-0.22866 2.063202,-0.29142 0.277686,-0.0774 0.519359,0.18953 0.750565,0.82892 0.970076,2.6827 3.835056,0.9579 3.321521,-1.99964 -0.08844,-0.50933 -0.347766,-1.13441 -0.576287,-1.38907 -0.562035,-0.62632 -1.888783,-0.58551 -2.59707,0.0799 -0.538525,0.50592 -0.697442,0.5221 -2.332157,0.23743 -0.96484,-0.16802 -1.757256,-0.38257 -1.760929,-0.47677 -0.0037,-0.0942 0.258927,-2.10604 0.583552,-4.47076 l 0.590227,-4.29947 h 4.840407 4.840406 v 1.98437 1.98438 h -3.153976 -3.153979 l -0.178493,0.81267 c -0.09817,0.44696 -0.131342,0.85981 -0.07371,0.91744 0.05763,0.0576 0.531074,-0.0261 1.052103,-0.18596 1.657204,-0.50861 3.346378,-0.0713 4.611584,1.19391 1.661623,1.66162 2.032577,3.4214 1.265621,6.00402 -0.516567,1.73947 -1.924381,3.24819 -3.417821,3.6628 -1.419792,0.39417 -3.738423,0.35188 -4.980057,-0.0908 z m 10.409981,-2.2599 v -2.38125 h 2.248959 2.248958 v 2.38125 2.38125 h -2.248958 -2.248959 z m 6.209172,1.38906 c 0.40808,-2.21683 1.1569,-3.31962 4.36064,-6.42199 3.36284,-3.25643 3.82099,-4.02349 3.0793,-5.15546 -0.83049,-1.26748 -2.5012,-0.69731 -2.90206,0.9904 l -0.17193,0.72388 -2.04642,-0.16549 c -1.12552,-0.091 -2.08959,-0.20198 -2.14237,-0.24658 -0.0528,-0.0446 0.0544,-0.71259 0.23819,-1.48443 0.65426,-2.74769 2.88067,-4.09891 6.34935,-3.85345 3.42854,0.24261 5.15089,1.85221 5.14913,4.81203 -0.001,2.20723 -0.87379,3.62513 -3.63623,5.90941 l -2.15603,1.78283 2.96275,0.0748 2.96276,0.0748 v 1.97571 1.97571 h -6.11486 -6.11487 z m -7.612813,-25.22705 c -1.217885,-0.64268 -2.398254,-2.41687 -2.854396,-4.29037 -0.469524,-1.92849 -0.411004,-6.08119 0.110932,-7.87185 0.546261,-1.87413 1.808212,-3.62144 2.964386,-4.10452 1.446636,-0.60444 3.467814,-0.48315 4.78191,0.28696 0.88174,0.51673 1.320141,1.04536 1.982161,2.39012 0.73711,1.49728 0.86686,2.07639 0.97681,4.35972 0.24633,5.11545 -1.08364,8.5029 -3.731115,9.50318 -1.166969,0.44091 -3.115887,0.31504 -4.230688,-0.27324 z m 3.395975,-4.01528 c 0.569727,-0.49006 0.751803,-0.96824 0.984988,-2.58686 0.375365,-2.60553 -0.0983,-4.82761 -1.20351,-5.64602 -0.682408,-0.50533 -0.795173,-0.51675 -1.455208,-0.1474 -0.945473,0.52907 -1.343809,1.78479 -1.362004,4.29361 -0.01564,2.15713 0.437563,3.75621 1.234885,4.35713 0.624845,0.47093 1.005371,0.41378 1.800849,-0.27046 z m -39.034,-4.02902 v -8.33438 h 3.464885 c 3.048034,0 3.554857,0.0641 4.212728,0.53252 1.171453,0.83414 1.670759,2.4956 1.533855,5.10395 -0.184763,3.52022 -1.427218,4.94687 -4.308178,4.94687 h -1.199124 v 3.04271 3.0427 h -1.852083 -1.852083 z m 5.546942,-1.96698 c 0.474551,-0.88671 0.327215,-2.06671 -0.314148,-2.51594 -1.213866,-0.85022 -1.528628,-0.5809 -1.528628,1.30792 v 1.71979 h 0.784442 c 0.504764,0 0.882092,-0.18246 1.058334,-0.51177 z m 5.300974,1.96698 v -8.33438 h 4.497917 4.497917 v 1.85209 1.85208 h -2.778125 -2.778125 v 1.19063 1.19062 h 2.513541 2.513542 v 1.85208 1.85209 h -2.513542 -2.513541 v 1.45521 1.4552 h 2.910416 2.910417 v 1.98438 1.98437 h -4.630208 -4.630209 z m 10.583334,0 v -8.33438 h 3.717306 c 4.218312,0 4.944588,0.21709 5.6418,1.68636 1.099487,2.31699 0.744606,5.39021 -0.800902,6.93572 -0.496609,0.49661 -0.782952,0.90292 -0.636317,0.90292 0.392697,0 1.037092,1.3741 2.037498,4.34472 0.488693,1.45113 0.888531,2.67957 0.888531,2.72986 0,0.0503 -0.912275,0.0567 -2.027277,0.0141 l -2.027277,-0.0773 -0.747961,-2.24896 c -1.02593,-3.08475 -1.564373,-4.23333 -1.984542,-4.23333 -0.280178,0 -0.356693,0.70946 -0.356693,3.30729 v 3.30729 h -1.852083 -1.852083 z m 5.934225,-2.13557 c 0.228677,-0.22867 0.415775,-0.81979 0.415775,-1.3136 0,-1.02044 -0.539613,-1.44562 -1.83469,-1.44562 h -0.811144 v 1.5875 1.5875 h 0.907143 c 0.49893,0 1.094242,-0.1871 1.322916,-0.41578 z m 16.153683,9.95589 c 0.0897,-0.28273 0.87167,-2.14853 1.73763,-4.14622 0.86595,-1.99769 1.57446,-3.82044 1.57446,-4.05054 0,-0.2301 -0.60751,-1.84688 -1.35003,-3.59284 -0.74251,-1.74596 -1.45394,-3.44236 -1.58095,-3.76978 -0.22664,-0.58428 -0.19491,-0.59532 1.71178,-0.59532 h 1.9427 l 0.85544,2.2665 c 0.47048,1.24658 0.89487,2.22706 0.94307,2.17886 0.0482,-0.0482 0.43185,-1.03836 0.85256,-2.20035 l 0.76493,-2.11271 1.92065,-0.0782 c 2.26176,-0.0921 2.24837,-0.59347 0.12105,4.53177 l -1.42971,3.44453 1.62862,3.85614 c 0.89573,2.12089 1.73584,4.06451 1.8669,4.31917 0.21706,0.4218 0.0542,0.46302 -1.82886,0.46302 h -2.06713 l -0.88157,-2.37895 c -0.48487,-1.30842 -0.96879,-2.32505 -1.07537,-2.25918 -0.10659,0.0659 -0.58683,1.1364 -1.06721,2.37895 l -0.87341,2.25918 h -1.96435 c -1.82469,0 -1.95275,-0.0365 -1.8012,-0.51405 z m 12.57251,-7.82032 v -8.33438 h 1.71979 1.71979 v 8.33438 8.33437 h -1.71979 -1.71979 z m 5.82083,0 v -8.33438 h 3.29809 3.29808 l 0.97938,0.8599 c 0.53866,0.47294 1.194,1.34507 1.45631,1.93805 0.98525,2.2273 1.11781,8.25739 0.23219,10.56234 -0.48667,1.26665 -1.58925,2.54093 -2.54355,2.93966 -0.57374,0.23973 -1.90429,0.3688 -3.80158,0.3688 h -2.91892 z m 5.29749,4.09793 c 0.66872,-0.35789 1.04956,-1.84484 1.04956,-4.09793 0,-3.22971 -0.57987,-4.36563 -2.22861,-4.36563 h -0.67885 v 4.36563 4.36562 h 0.67885 c 0.37337,0 0.90394,-0.12046 1.17905,-0.26769 z m 6.07959,-4.09793 v -8.33438 h 4.49792 4.49792 v 1.85209 1.85208 h -2.77813 -2.77812 v 1.19063 1.19062 h 2.64583 2.64583 v 1.85208 1.85209 h -2.64583 -2.64583 v 1.45521 1.4552 h 2.91041 2.91042 v 1.98438 1.98437 h -4.63021 -4.63021 z M 63.997155,156.96564 c -4.02722,-1.75415 -4.791218,-12.28756 -1.137552,-15.68365 0.862399,-0.8016 1.885005,-1.14211 3.429992,-1.14211 1.567955,0 2.517172,0.44289 3.605245,1.68213 1.329557,1.51429 1.786522,3.2835 1.786522,6.91683 0,2.40997 -0.118401,3.51552 -0.49139,4.58821 -0.5423,1.55962 -1.699448,3.03748 -2.840209,3.62739 -0.91866,0.47506 -3.273756,0.48112 -4.352608,0.0112 z m 3.239511,-4.2346 c 0.717,-0.61622 0.745389,-0.73718 0.831101,-3.54132 0.06945,-2.27223 -0.003,-3.08076 -0.333467,-3.71976 -0.88559,-1.71255 -2.474931,-1.66996 -3.208608,0.086 -0.501973,1.20138 -0.508846,5.14797 -0.01103,6.33938 0.639958,1.53163 1.577398,1.81945 2.722018,0.83572 z m 20.003812,3.93557 c -0.857678,-0.51408 -1.310772,-1.07106 -1.984375,-2.43933 -0.861681,-1.75033 -0.872913,-1.82087 -0.872913,-5.48287 0,-3.31347 0.0651,-3.85104 0.609497,-5.03265 0.681066,-1.47825 1.679062,-2.63872 2.750801,-3.19862 0.91974,-0.4805 3.675491,-0.48074 4.825037,-5.3e-4 1.048287,0.438 2.210729,2.23607 2.322973,3.59318 0.07458,0.90177 0.06542,0.90974 -1.556628,1.35431 l -1.631654,0.4472 -0.158485,-0.63145 c -0.235334,-0.93765 -1.238618,-1.50791 -2.086071,-1.18571 -1.198475,0.45566 -1.626031,1.67798 -1.626031,4.6486 0,2.96882 0.427575,4.19295 1.623348,4.64759 1.001763,0.38087 2.571737,-0.43297 2.682307,-1.39045 0.07676,-0.66473 0.0071,-0.71701 -1.058334,-0.79375 l -1.14051,-0.082 -0.07824,-1.78593 -0.07823,-1.78594 h 2.790214 2.790213 v 3.54109 3.54108 l -1.087554,0.98254 c -1.430932,1.29276 -2.534687,1.72541 -4.394051,1.72237 -1.161005,-0.002 -1.797828,-0.16312 -2.641315,-0.66869 z m 42.250042,0.18357 c -1.18249,-0.62544 -2.47385,-2.7445 -2.86774,-4.70581 -0.42385,-2.11052 -0.37758,-5.51689 0.10031,-7.38483 0.79409,-3.10385 2.49235,-4.61966 5.1757,-4.61966 2.36703,0 3.75668,1.2306 4.61672,4.08831 l 0.35122,1.16702 -1.57261,0.53108 -1.57262,0.53108 -0.35265,-0.84364 c -0.77653,-1.8577 -2.25256,-1.9744 -3.0217,-0.23891 -0.61139,1.37952 -0.59966,5.68474 0.0187,6.851 0.9108,1.71793 2.59553,1.26231 3.12627,-0.84546 0.1643,-0.65247 0.40761,-1.18631 0.54069,-1.18631 0.13308,0 0.84144,0.30378 1.57413,0.67506 1.26818,0.64263 1.32403,0.71569 1.16299,1.52135 -0.31199,1.56086 -1.55371,3.73487 -2.48572,4.35203 -1.15508,0.76487 -3.45354,0.8165 -4.79365,0.10769 z m -56.087538,-8.11134 v -8.33437 h 3.585014 c 2.736654,0 3.774659,0.0981 4.386416,0.41442 2.263317,1.17041 2.437135,6.49448 0.27482,8.41783 l -0.559731,0.49787 0.539414,0.75754 c 0.465007,0.65304 2.3574,5.76532 2.3574,6.36849 0,0.11693 -0.88315,0.2126 -1.962557,0.2126 h -1.962555 l -0.851744,-2.57969 c -1.044118,-3.16234 -1.471607,-4.0349 -1.976813,-4.0349 -0.322914,0 -0.390081,0.56947 -0.390081,3.3073 v 3.30729 h -1.719792 -1.719791 z m 5.68207,-2.07921 c 0.306202,-0.2239 0.49154,-0.68696 0.49154,-1.22808 0,-1.04743 -0.63228,-1.5875 -1.858555,-1.5875 h -0.875472 v 1.5875 1.5875 h 0.875472 c 0.48151,0 1.096666,-0.16174 1.367015,-0.35942 z m 16.807513,10.31224 c 0,-0.0557 0.830591,-3.53832 1.845755,-7.73906 1.015166,-4.20075 1.910402,-7.90561 1.989417,-8.23303 0.132649,-0.54969 0.291273,-0.59531 2.069813,-0.59531 h 1.92615 l 1.94148,8.00364 c 1.06782,4.40201 1.99958,8.15799 2.07057,8.34664 0.10002,0.26576 -0.30982,0.32533 -1.82042,0.26458 l -1.94951,-0.0784 -0.22879,-1.25677 -0.22879,-1.25678 h -1.79864 -1.798628 l -0.181949,1.32292 -0.181948,1.32292 H 97.71982 c -1.004991,0 -1.827255,-0.0456 -1.827255,-0.10135 z m 6.810005,-6.84396 c -0.0692,-0.18191 -0.27969,-1.1946 -0.46782,-2.25043 -0.18812,-1.05583 -0.3958,-1.86592 -0.46151,-1.80021 -0.15261,0.15261 -0.832,3.30561 -0.8443,3.91834 -0.007,0.35711 0.209,0.46302 0.94506,0.46302 0.65417,0 0.91479,-0.10402 0.82857,-0.33072 z m 5.88999,-1.38907 v -8.33437 l 1.65365,0.004 1.65365,0.004 1.85208,4.27973 1.85208,4.27973 0.0727,-4.28348 0.0727,-4.28348 h 1.58095 1.58095 v 8.33438 8.33437 h -1.66151 -1.6615 l -1.84423,-4.25303 -1.84422,-4.25303 -0.0727,4.25303 -0.0727,4.25303 h -1.58095 -1.58095 v -8.33437 z m 12.43542,0 v -8.33437 h 1.71979 1.7198 v 8.33437 8.33438 h -1.7198 -1.71979 z M 87.955065,134.84822 v -1.05834 H 98.009232 108.0634 v 1.05834 1.05833 H 98.009232 87.955065 Z m 6.420871,-1.82764 c -1.693725,-0.62502 -2.557023,-1.22479 -3.971091,-2.75887 -1.974684,-2.14228 -2.932216,-5.00578 -2.589946,-7.74522 0.236892,-1.89603 -0.318571,-7.31009 -0.904401,-8.81509 -0.259149,-0.66576 -0.674613,-2.16297 -0.923256,-3.32714 -0.253844,-1.18852 -0.787323,-2.66849 -1.21662,-3.37512 l -0.764545,-1.25846 0.744593,0.38504 c 0.851011,0.44008 2.023163,1.70704 2.91633,3.15221 0.337156,0.54553 0.660683,0.9442 0.71895,0.88593 0.21867,-0.21867 -0.971598,-3.53108 -1.598375,-4.44814 -0.358754,-0.52491 -1.076269,-1.15557 -1.59448,-1.40148 -0.518207,-0.2459 -0.942197,-0.50105 -0.942197,-0.56698 0,-0.0659 0.548471,-0.11988 1.218825,-0.11988 1.15072,0 1.325552,0.10349 3.128885,1.85209 1.050534,1.01864 2.041853,1.85208 2.202929,1.85208 0.161078,0 0.368734,-0.23904 0.46146,-0.53119 0.174331,-0.54926 -0.390475,-1.88112 -2.112425,-4.98128 -0.706975,-1.27283 -0.930924,-1.985132 -0.930924,-2.960952 0,-0.706713 0.0939,-1.342967 0.208675,-1.413899 0.114771,-0.07093 0.471789,0.444571 0.793376,1.145563 0.411518,0.89702 1.36832,1.997028 3.230301,3.713768 3.67012,3.38385 4.170233,3.10124 2.530089,-1.42974 -1.764676,-4.874993 -1.80475,-7.191228 -0.158959,-9.187856 0.724281,-0.878679 2.643195,-2.081276 3.957391,-2.480123 0.59708,-0.181209 0.577546,-0.118087 -0.29778,0.962243 -1.36256,1.68167 -1.796426,2.684796 -1.796426,4.153431 0,1.728054 0.398965,2.589372 2.655996,5.733995 2.170259,3.02372 2.392639,3.47109 2.630459,5.29166 l 0.17281,1.32292 0.34155,-0.79375 c 0.27262,-0.63355 0.28114,-1.43492 0.0422,-3.97053 -0.29763,-3.158819 -0.19863,-4.752754 0.3149,-5.070131 0.16993,-0.105022 0.21433,0.115934 0.12074,0.600818 -0.18559,0.961541 0.15941,2.876063 1.17755,6.534613 0.53508,1.92271 0.76545,3.28578 0.70435,4.16735 -0.0988,1.42574 0.002,1.55516 0.65185,0.83705 0.78993,-0.87286 1.2509,-2.42895 1.56618,-5.28692 0.31053,-2.81491 0.316,-2.83023 0.63551,-1.781 0.51895,1.70417 0.43041,5.57994 -0.16622,7.27604 -0.69291,1.9698 -0.6577,2.10893 0.2252,0.89011 1.65085,-2.27892 3.38757,-3.0727 4.36347,-1.99434 0.41555,0.45918 0.39729,0.47738 -0.3663,0.36531 -1.04541,-0.15343 -1.70512,0.44963 -2.21723,2.02681 -0.61198,1.88481 -1.75094,9.25814 -1.98314,12.83845 -0.17709,2.73056 -0.3196,3.4369 -0.95532,4.73522 -0.91686,1.87246 -2.8188,3.69753 -4.82981,4.63458 -2.029501,0.94566 -5.34236,1.09834 -7.395164,0.34081 z m 6.374264,-1.35619 c 1.8312,-0.68513 3.54338,-2.19165 4.54399,-3.99818 0.71554,-1.29186 0.78483,-1.63886 0.78483,-3.93049 0,-2.12501 -0.0991,-2.71488 -0.64106,-3.81606 -0.85582,-1.73887 -2.39394,-3.22872 -4.21458,-4.0823 -2.00436,-0.93971 -5.09563,-0.9723 -6.95433,-0.0733 -3.12125,1.50964 -5.088745,4.46869 -5.101233,7.6721 -0.01024,2.62573 0.686485,4.3578 2.470528,6.14185 2.514434,2.51443 5.897447,3.28906 9.111855,2.08639 z m -9.864875,-15.67435 c -0.0109,-0.1055 -0.01984,-0.37042 -0.01984,-0.5887 0,-0.21828 -0.105177,-0.39687 -0.233725,-0.39687 -0.281096,0 -0.566267,0.9639 -0.349348,1.18081 0.196239,0.19624 0.62892,0.0561 0.602916,-0.19524 z m 14.528185,-0.39026 c -0.002,-0.25466 -0.10477,-0.62191 -0.22787,-0.81612 -0.16792,-0.2649 -0.26285,-0.20388 -0.38006,0.24436 -0.0859,0.32859 -0.0954,0.69585 -0.0211,0.81611 0.23886,0.38647 0.63321,0.23328 0.62903,-0.24435 z m -10.544713,-2.73327 c -0.214818,-0.55869 -0.269962,-0.58123 -0.433247,-0.17715 -0.249936,0.61853 0.06318,1.43353 0.415422,1.08128 0.168481,-0.16848 0.174929,-0.49555 0.01783,-0.90413 z m 7.226723,0.57433 c 0.19123,-0.30941 -0.10185,-1.08221 -0.41043,-1.08221 -0.12995,0 -0.23628,0.29766 -0.23628,0.66146 0,0.65384 0.3585,0.88708 0.64671,0.42075 z m -3.69933,-0.44863 c 0.452649,-0.45265 0.380275,-0.96524 -0.332277,-2.35337 l -0.407445,-0.79375 -0.478139,1.05834 c -0.604981,1.33909 -0.612127,1.88812 -0.02899,2.22776 0.629028,0.36638 0.755607,0.35227 1.246854,-0.13898 z"
         id="path255"
         inkscape:connector-curvature="0" />
      <path
         style="fill:#a68f00;stroke-width:0.26458335"
         d="M 63.505686,188.25194 C 44.501699,169.16555 28.952982,153.47242 28.952982,153.37831 c 0,-0.0941 15.597072,-15.82117 34.66016,-34.94904 L 98.273304,83.651341 132.93398,118.42573 c 19.06337,19.12592 34.66067,34.8547 34.66067,34.95286 0,0.25753 -69.065028,69.57588 -69.321613,69.57588 -0.118054,0 -15.763362,-15.61614 -34.767351,-34.70253 z m 68.612064,-0.93806 c 18.49365,-18.58368 33.62482,-33.85549 33.62482,-33.93736 0,-0.0819 -15.18049,-15.38681 -33.73442,-34.01098 L 98.273725,85.503425 64.539059,119.36908 c -18.554065,18.62612 -33.702587,33.9619 -33.663381,34.07952 0.118798,0.35639 67.161433,67.65379 67.397679,67.65379 0.120772,0 15.350753,-15.20483 33.844393,-33.78851 z m -47.205393,16.87235 c -1.975964,-0.48104 -3.535241,-1.95255 -3.971378,-3.74784 -0.163449,-0.67281 -0.130913,-0.69174 1.477915,-0.8599 2.447896,-0.25585 2.551973,-0.23734 2.733564,0.48617 0.09085,0.36196 0.460073,0.85134 0.820505,1.0875 1.789398,1.17246 3.381576,-1.25198 2.494097,-3.79781 -0.513352,-1.4726 -1.99354,-1.66831 -3.422412,-0.45253 -0.306276,0.2606 -0.759274,0.27565 -1.984375,0.0659 -0.873125,-0.14948 -1.627412,-0.30704 -1.676193,-0.35014 -0.08411,-0.0743 0.888979,-6.9946 1.16111,-8.2574 0.12726,-0.59053 0.16649,-0.59531 4.885749,-0.59531 h 4.757459 v 1.85208 1.85208 h -3.163011 -3.163009 l -0.176044,0.93838 c -0.09682,0.51611 -0.131807,0.98261 -0.07775,1.03668 0.05407,0.0541 0.633902,-0.0239 1.288532,-0.17336 4.44873,-1.01537 7.372482,3.70016 5.167026,8.33355 -1.063611,2.23451 -4.090371,3.32723 -7.15179,2.58193 z m 9.921875,-2.39843 v -2.38125 h 2.116666 2.116667 v 2.38125 2.38125 h -2.116667 -2.116666 z m 5.949668,1.52136 c 0.4495,-2.26201 1.6702,-4.05893 4.61919,-6.79958 3.1042,-2.88489 3.59186,-3.72554 2.83302,-4.88368 -0.8709,-1.32917 -2.36119,-0.99394 -2.85114,0.64135 -0.27342,0.9126 -0.41632,1.06677 -0.87471,0.94367 -0.30135,-0.0809 -1.08368,-0.15059 -1.73853,-0.15481 -1.80219,-0.0116 -1.92825,-0.17618 -1.4272,-1.86341 0.80608,-2.71435 3.20184,-3.99031 6.68799,-3.56196 2.95322,0.36287 4.60439,2.06554 4.60439,4.74799 0,2.30581 -0.62725,3.2205 -4.7058,6.86226 l -1.05834,0.94499 2.97657,0.007 2.97656,0.007 v 1.98438 1.98437 h -6.10644 -6.10644 z m -7.5617,-25.41823 c -0.951656,-0.50071 -1.336384,-0.94583 -2.092135,-2.42051 -0.876972,-1.71123 -0.930979,-1.97164 -1.019217,-4.91432 -0.180317,-6.01347 1.702929,-9.24955 5.382799,-9.24955 2.398509,0 4.15257,1.38869 5.065993,4.01075 0.67194,1.92889 0.68324,7.16354 0.0196,9.09451 -1.230797,3.58134 -4.354888,5.05871 -7.35707,3.47912 z m 3.180638,-3.60968 c 0.838245,-0.44862 1.210019,-1.84392 1.201155,-4.50803 -0.0062,-1.86903 -0.126177,-2.73305 -0.467831,-3.36961 -0.834424,-1.55465 -2.533036,-1.37713 -3.250372,0.3397 -0.493455,1.181 -0.494953,5.13981 -0.0024,6.31868 0.543073,1.29975 1.50196,1.76379 2.519439,1.21926 z m -38.874856,-4.37574 v -8.33438 h 3.332615 c 3.794413,0 4.539215,0.25727 5.328213,1.84046 0.695812,1.39621 0.6585,5.37556 -0.06187,6.59855 -0.83145,1.41159 -1.771385,1.96286 -3.568319,2.09284 l -1.591056,0.11509 v 3.01091 3.0109 h -1.719792 -1.719791 z m 5.490104,-1.78867 c 0.469619,-0.3699 0.41198,-2.19333 -0.08504,-2.69035 -0.228674,-0.22867 -0.764456,-0.41577 -1.190625,-0.41577 H 60.96757 v 1.67569 c 0,0.92164 0.07721,1.7529 0.171572,1.84727 0.209878,0.20987 1.425715,-0.0599 1.878949,-0.41684 z m 5.357812,1.78867 v -8.33438 h 4.510006 4.510005 l -0.07823,1.78594 -0.07823,1.78594 -2.711979,0.0754 -2.711979,0.0754 v 1.18137 1.18137 h 2.513541 2.513542 v 1.71979 1.71979 h -2.513542 -2.513541 v 1.5875 1.5875 h 2.778125 2.778125 v 1.98438 1.98437 h -4.497917 -4.497917 z m 10.847917,0 v -8.33438 l 3.505729,0.004 c 3.900668,0.004 4.479811,0.17121 5.416016,1.56044 0.501531,0.74422 0.603255,1.24771 0.603255,2.98585 0,2.24534 -0.291719,3.0976 -1.42153,4.15302 l -0.67806,0.63341 0.627996,0.74633 c 0.345398,0.41048 1.013883,1.91138 1.485524,3.33534 0.471639,1.42395 0.91231,2.73783 0.979271,2.91974 0.09051,0.24588 -0.383895,0.33072 -1.849176,0.33072 h -1.970926 l -1.166236,-3.23961 c -0.825965,-2.29439 -1.301334,-3.26502 -1.629259,-3.32669 -0.421039,-0.0792 -0.463021,0.21455 -0.463021,3.23961 v 3.3267 h -1.719791 -1.719792 z m 5.573644,-1.99368 c 0.372687,-0.19946 0.511773,-0.55646 0.511773,-1.31361 0,-1.17226 -0.479904,-1.5875 -1.83469,-1.5875 h -0.811144 v 1.5875 1.5875 h 0.811144 c 0.44613,0 1.041442,-0.12325 1.322917,-0.27389 z m 16.122191,10.25894 c 0,-0.038 0.82366,-1.99959 1.83035,-4.35904 l 1.83035,-4.28992 -0.86878,-2.05711 c -0.47783,-1.13141 -1.23665,-2.92031 -1.68627,-3.97534 l -0.81749,-1.91823 h 1.94014 1.94014 l 0.87315,2.42149 0.87314,2.42148 0.84777,-2.35534 0.84777,-2.35533 1.91642,-0.0784 c 1.486,-0.0608 1.88598,-0.001 1.78089,0.26459 -0.0745,0.18864 -0.81874,2.01593 -1.65378,4.06064 l -1.51826,3.71765 1.75306,4.07668 c 0.96419,2.24218 1.75306,4.17609 1.75306,4.29759 0,0.12149 -0.86039,0.18591 -1.91197,0.14316 l -1.91198,-0.0777 -0.96692,-2.51354 -0.96692,-2.51354 -0.38417,0.92604 c -0.21129,0.50932 -0.67135,1.67018 -1.02236,2.57969 l -0.63819,1.65364 h -1.91958 c -1.05576,0 -1.91957,-0.0311 -1.91957,-0.0691 z m 12.7,-8.26526 v -8.33438 h 1.71979 1.71979 v 8.33438 8.33437 h -1.71979 -1.71979 z m 5.82083,0 v -8.33438 h 3.13588 c 3.83252,0 4.50063,0.32406 5.72766,2.77813 0.77659,1.55318 0.79375,1.6737 0.79375,5.57422 0,3.90676 -0.016,4.01821 -0.79519,5.55625 -1.15184,2.27348 -2.21113,2.76015 -6.00774,2.76015 h -2.85436 z m 5.28123,4.10663 c 0.72873,-0.39001 1.06877,-1.69657 1.06877,-4.10663 0,-3.2973 -0.54609,-4.36563 -2.23156,-4.36563 h -0.67885 v 4.36563 4.36562 h 0.67885 c 0.37337,0 0.89662,-0.11654 1.16279,-0.25899 z m 6.09585,-4.10663 v -8.33438 h 4.49792 4.49792 v 1.85209 1.85208 h -2.77813 -2.77812 v 1.19063 1.19062 h 2.64583 2.64583 v 1.71979 1.71979 h -2.64583 -2.64583 v 1.5875 1.5875 h 2.91041 2.91042 v 1.98438 1.98437 h -4.63021 -4.63021 z M 63.961627,156.82359 c -2.225413,-1.01037 -3.286818,-3.62116 -3.286818,-8.08475 0,-5.90383 2.006346,-8.82568 5.8685,-8.54632 2.830643,0.20475 4.501727,2.30371 5.044388,6.33599 0.526518,3.91235 -0.401252,8.00136 -2.19342,9.66719 -1.329396,1.23567 -3.533002,1.49036 -5.43265,0.62789 z m 3.080919,-3.71354 c 1.034447,-0.55362 1.623039,-4.44728 1.01686,-6.72673 -0.584107,-2.19644 -2.265418,-2.89666 -3.270829,-1.3622 -0.624144,0.95256 -0.927756,3.44906 -0.654293,5.38005 0.347461,2.45352 1.456031,3.48609 2.908262,2.70888 z m 20.912519,3.93183 c -2.160767,-0.85709 -3.419449,-3.45935 -3.632147,-7.50929 -0.297257,-5.65993 1.609291,-9.08033 5.20645,-9.34052 2.029296,-0.14679 2.702702,0.0346 3.841948,1.03487 0.867053,0.76128 1.915374,3.1574 1.602719,3.66329 -0.06361,0.10292 -0.800979,0.3405 -1.638604,0.52795 -1.25276,0.28035 -1.543482,0.27923 -1.638663,-0.006 -0.181618,-0.54486 -1.297106,-1.56783 -1.709621,-1.56783 -0.205269,0 -0.674849,0.23726 -1.043509,0.52725 -0.886047,0.69696 -1.353452,2.69845 -1.197533,5.12799 0.142319,2.21763 0.589201,3.29669 1.598644,3.86015 0.670788,0.37442 0.80644,0.36475 1.719792,-0.12268 0.789334,-0.42124 1.008475,-0.70455 1.074476,-1.38906 0.08125,-0.84266 0.06136,-0.8599 -0.992188,-0.8599 h -1.075097 v -1.71979 -1.71979 h 2.513541 2.513542 v 3.68065 3.68064 l -0.859896,0.72589 c -1.811112,1.52887 -4.473189,2.12471 -6.283854,1.40648 z m 41.907275,-0.0685 c -2.72177,-1.23281 -4.16963,-6.13699 -3.29486,-11.1603 0.67698,-3.88752 2.59547,-5.83738 5.53427,-5.62481 1.01478,0.0734 1.80412,0.30679 2.34843,0.69438 0.93894,0.66858 1.96208,2.5949 2.01794,3.79929 0.0352,0.75835 -0.0622,0.85363 -1.31298,1.28445 l -1.35097,0.46533 -0.44808,-1.0156 c -0.72193,-1.63629 -2.15634,-1.71473 -3.00445,-0.1643 -0.35585,0.65054 -0.46012,1.48131 -0.46012,3.66618 0,2.4558 0.0726,2.92265 0.55534,3.57188 1.11809,1.50367 2.76313,0.77919 3.17132,-1.39667 0.0928,-0.49456 0.20059,-0.8992 0.23957,-0.8992 0.039,0 0.73577,0.3044 1.54844,0.67645 1.41741,0.64892 1.47169,0.71086 1.33315,1.52136 -0.22442,1.31293 -1.47896,3.64665 -2.2802,4.24167 -0.91991,0.68315 -3.42932,0.8687 -4.5968,0.33989 z M 73.402982,148.7388 v -8.33437 h 3.465742 c 4.048498,0 4.958699,0.28856 5.697816,1.80638 0.501128,1.02909 0.65954,3.81885 0.29152,5.13388 -0.111215,0.39741 -0.621199,1.14155 -1.133298,1.65365 -0.512098,0.5121 -0.810061,0.93109 -0.66214,0.93109 0.396292,0 1.457711,2.23454 2.121151,4.46552 0.319257,1.07359 0.643173,2.11538 0.719812,2.3151 0.110326,0.2875 -0.266089,0.36313 -1.807469,0.36313 h -1.946812 l -1.032936,-2.97656 c -1.107157,-3.19045 -1.34206,-3.63803 -1.909324,-3.63803 -0.290144,0 -0.364479,0.67452 -0.364479,3.3073 v 3.30729 h -1.719792 -1.719791 z m 6.076989,-2.57968 c 0.364014,-0.65349 0.364014,-0.80173 0,-1.45521 -0.326562,-0.58625 -0.622117,-0.74341 -1.521354,-0.80897 l -1.116052,-0.0814 v 1.61793 1.61793 l 1.116052,-0.0814 c 0.899237,-0.0656 1.194792,-0.22271 1.521354,-0.80896 z m 16.512773,10.46362 c 0.199186,-0.65867 3.868571,-15.91192 3.868571,-16.08125 0,-0.0754 0.863205,-0.13661 1.918225,-0.13605 l 1.91823,0.001 1.9218,8.00263 c 1.05699,4.40145 1.92019,8.15147 1.91823,8.33337 -0.002,0.23019 -0.52481,0.33073 -1.71832,0.33073 -1.61606,0 -1.72265,-0.0381 -1.85208,-0.66146 -0.0755,-0.36381 -0.19913,-0.95912 -0.27467,-1.32292 -0.1304,-0.62807 -0.22911,-0.66146 -1.95575,-0.66146 h -1.81842 l -0.228721,1.25677 -0.228722,1.25677 -1.806102,0.0787 c -1.634251,0.0712 -1.792414,0.0335 -1.662271,-0.39688 z m 6.766886,-6.23029 c -0.007,-0.1819 -0.22358,-1.34276 -0.48207,-2.57969 -0.50027,-2.39402 -0.56883,-2.36913 -1.09333,0.39688 -0.16556,0.87312 -0.36038,1.79586 -0.43293,2.05052 -0.11015,0.3867 0.0455,0.46302 0.94427,0.46302 0.69099,0 1.07183,-0.11837 1.06406,-0.33073 z m 5.83293,-1.66627 v -8.347 l 1.63798,0.0788 1.63797,0.0788 1.92587,4.36562 1.92587,4.36563 0.008,-4.43177 0.008,-4.43177 h 1.58749 1.58751 v 8.347 8.347 l -1.64564,-0.0788 -1.64564,-0.0788 -1.86009,-4.23246 -1.86009,-4.23246 -0.0727,4.29861 -0.0727,4.2986 h -1.58095 -1.58095 z m 12.43542,0.0126 v -8.33438 h 1.71979 1.7198 v 8.33438 8.33437 h -1.7198 -1.71979 z M 87.955065,134.84822 v -1.05834 H 98.009232 108.0634 v 1.05834 1.05833 H 98.009232 87.955065 Z m 6.954848,-1.69134 c -2.657766,-0.86739 -4.962014,-2.85493 -6.167877,-5.32012 -0.584112,-1.19412 -0.663585,-1.77369 -0.816311,-5.95313 -0.180165,-4.93035 -0.398497,-6.95163 -0.843084,-7.8052 -0.151593,-0.29105 -0.604702,-1.86889 -1.006911,-3.50631 -0.402209,-1.63743 -0.985446,-3.33407 -1.296078,-3.77032 -0.310634,-0.43624 -0.47862,-0.79317 -0.373308,-0.79317 0.492619,0 1.986796,1.43897 2.859664,2.754 0.531548,0.80082 1.075288,1.52329 1.20831,1.6055 0.386159,0.23866 -1.032164,-3.72795 -1.673016,-4.67891 -0.319924,-0.47474 -1.054407,-1.1309 -1.632186,-1.45814 l -1.050509,-0.59499 1.005326,-0.004 c 1.338707,-0.006 2.151425,0.46005 3.880427,2.22422 1.589659,1.622 2.03681,1.78961 2.272207,0.85171 0.177295,-0.70639 -0.154453,-1.51679 -1.856676,-4.53549 -0.884166,-1.56798 -1.194435,-2.404113 -1.196906,-3.225533 -0.0045,-1.490074 0.349914,-1.616571 0.929306,-0.331702 0.671021,1.488055 5.909019,6.431275 6.390961,6.031305 0.550873,-0.4572 0.423825,-1.25027 -0.70902,-4.426 -1.76996,-4.961763 -1.384525,-7.866646 1.277532,-9.628313 1.058463,-0.700458 2.955801,-1.583859 2.955801,-1.376222 0,0.06238 -0.469929,0.734308 -1.044289,1.493166 -2.219074,2.931903 -1.985045,4.917589 1.067646,9.058703 2.138158,2.900506 2.869988,4.380596 2.889668,5.844166 0.0135,1.00323 0.0351,1.03078 0.41573,0.52917 0.33771,-0.44509 0.37266,-1.16372 0.21994,-4.52282 -0.12757,-2.805851 -0.0922,-4.143624 0.11877,-4.497914 0.2464,-0.413687 0.2734,-0.314159 0.15029,0.554062 -0.10818,0.763009 0.15632,2.23963 0.94788,5.291662 0.69961,2.69751 1.06549,4.64129 1.00851,5.35782 -0.10122,1.27295 0.0569,1.37537 0.83468,0.54053 0.76746,-0.82377 1.54615,-4.04152 1.61947,-6.6921 l 0.0293,-1.05833 0.3488,1.05833 c 0.58239,1.7671 0.47647,4.86526 -0.24389,7.13367 -0.34835,1.09696 -0.60077,1.99446 -0.56095,1.99446 0.0398,0 0.56549,-0.6531 1.16816,-1.45133 1.03812,-1.37498 2.20913,-2.25284 3.00515,-2.25284 0.19769,0 0.59056,0.18476 0.87303,0.41058 0.49895,0.39887 0.49656,0.40589 -0.0836,0.24614 -0.44199,-0.12168 -0.79749,0.0358 -1.36761,0.60595 -0.84286,0.84286 -1.12689,1.68931 -1.75895,5.24199 -0.75745,4.25744 -0.91556,5.49337 -1.13911,8.90433 -0.19717,3.00849 -0.31123,3.55395 -1.06216,5.0793 -0.98358,1.99794 -2.67171,3.61969 -4.79057,4.60221 -1.764786,0.81833 -5.042711,1.0449 -6.803487,0.47025 z m 6.671197,-1.8108 c 3.35509,-1.73845 5.30672,-5.52711 4.65717,-9.04086 -0.53202,-2.87792 -2.25078,-5.20714 -4.74699,-6.43298 -1.987647,-0.97609 -5.300899,-1.04992 -7.232704,-0.16116 -1.758503,0.80903 -3.52833,2.54529 -4.365467,4.28267 -0.970589,2.01435 -1.038592,5.08347 -0.155204,7.00477 1.016884,2.21164 2.872928,3.99451 5.006946,4.80954 1.646116,0.62869 5.194043,0.38893 6.836249,-0.46198 z M 91.126014,115.99665 c -0.0021,-0.1819 -0.12129,-0.50932 -0.264583,-0.7276 -0.231585,-0.35278 -0.289481,-0.35278 -0.521065,0 -0.415708,0.63326 -0.311068,1.05833 0.260532,1.05833 0.291042,0 0.527344,-0.14882 0.525116,-0.33073 z m 14.377166,-0.13229 c 0.0643,-0.10914 0.006,-0.49323 -0.13027,-0.85352 -0.20144,-0.53404 -0.29274,-0.58293 -0.49405,-0.26459 -0.37317,0.59012 -0.30353,1.31655 0.12621,1.31655 0.2097,0 0.43384,-0.0893 0.49811,-0.19844 z m -10.506211,-2.29903 c 0.08037,-0.20944 0.03148,-0.58567 -0.108646,-0.83606 -0.232608,-0.41565 -0.281633,-0.40506 -0.563541,0.12169 -0.315638,0.58977 -0.191596,1.09517 0.268785,1.09517 0.141499,0 0.323029,-0.17136 0.403402,-0.3808 z m 7.227001,-0.21451 c -0.0102,-0.1819 -0.11059,-0.5662 -0.22303,-0.85399 -0.19821,-0.50733 -0.21414,-0.50515 -0.52281,0.0716 -0.1751,0.32718 -0.24631,0.71148 -0.15823,0.854 0.23118,0.37405 0.92603,0.31901 0.90407,-0.0716 z m -3.738488,-0.25135 c 0.436001,-0.436 0.402695,-0.7628 -0.227603,-2.23322 l -0.545102,-1.27167 -0.513231,1.14634 c -0.282276,0.63048 -0.513231,1.34765 -0.513231,1.59369 0,0.56424 0.506622,1.08236 1.058333,1.08236 0.232834,0 0.566209,-0.14288 0.740834,-0.3175 z"
         id="path253"
         inkscape:connector-curvature="0" />
      <path
         style="fill:#8d7a00;stroke-width:0.26458335"
         d="M 63.48098,188.02934 28.821195,153.3688 63.547504,118.64249 98.273815,83.916176 l 34.726315,34.726314 34.7263,34.72631 -34.65978,34.66054 c -19.06288,19.0633 -34.719659,34.66055 -34.792835,34.66055 -0.07318,0 -15.729953,-15.59725 -34.792835,-34.66055 z m 68.79192,-0.79375 33.86602,-33.8668 -33.93255,-33.93255 -33.932555,-33.932557 -33.932553,33.932557 -33.932556,33.93255 33.866021,33.8668 c 18.626312,18.62674 33.925902,33.8668 33.999088,33.8668 0.07319,0 15.372775,-15.24006 33.999085,-33.8668 z m -47.360543,16.96796 c -1.112457,-0.29038 -1.741147,-0.66605 -2.565652,-1.53308 -0.794903,-0.83591 -1.641205,-2.63813 -1.32934,-2.83087 0.110728,-0.0684 1.062164,-0.20925 2.114304,-0.31292 1.604917,-0.15815 1.912979,-0.12483 1.912979,0.20688 0,0.67791 1.062064,1.78966 1.709685,1.78966 1.048959,0 1.76788,-0.8186 1.922327,-2.18887 0.271185,-2.40594 -1.096637,-3.87113 -2.794314,-2.99323 -0.442278,0.22871 -0.866124,0.51613 -0.941883,0.6387 -0.108688,0.17587 -3.254539,-0.13443 -3.536754,-0.34885 -0.07411,-0.0563 0.920869,-7.27542 1.140767,-8.27685 0.13203,-0.60128 0.132964,-0.60138 4.821843,-0.52917 l 4.689788,0.0722 0.07823,1.78593 0.07823,1.78594 h -3.158781 c -3.405606,0 -3.47998,0.032 -3.47998,1.49787 0,0.61351 0.06159,0.64536 0.859896,0.44473 1.908339,-0.47961 3.991083,-0.005 4.995801,1.13917 2.270901,2.58539 1.611112,7.3084 -1.255651,8.98844 -1.270249,0.74441 -3.753461,1.05793 -5.261504,0.66429 z m 9.921875,-2.41575 v -2.38125 h 2.116666 2.116667 v 2.38125 2.38125 h -2.116667 -2.116666 z m 5.956198,1.52136 c 0.52383,-2.53888 1.55051,-3.92116 6.02224,-8.10811 2.03129,-1.90193 2.31293,-3.05322 0.98615,-4.03118 -0.96168,-0.70884 -1.80893,-0.38417 -2.39117,0.9163 l -0.47848,1.06872 -1.50852,-0.0699 c -2.37758,-0.11013 -2.49017,-0.1982 -2.11718,-1.65601 0.66251,-2.58939 2.18665,-3.70112 5.15651,-3.76126 3.14119,-0.0636 4.76417,0.66008 5.74829,2.56315 0.57965,1.12092 0.51898,3.31524 -0.12666,4.58079 -0.48485,0.95039 -2.13968,2.66984 -4.21665,4.3813 -0.47294,0.38972 -0.85989,0.77177 -0.85989,0.849 0,0.0772 1.27992,0.17421 2.84427,0.21552 l 2.84427,0.0751 0.0777,1.91823 0.0777,1.91823 h -6.11803 -6.11803 z m -6.857446,-25.08019 c -1.101841,-0.3296 -2.406229,-1.69656 -3.11563,-3.26509 -0.546497,-1.20833 -0.612516,-1.75321 -0.612899,-5.05837 -2.65e-4,-3.3082 0.06472,-3.84558 0.609065,-5.02708 1.110131,-2.40954 2.676819,-3.57188 4.814462,-3.57188 3.200154,0 5.084278,2.5585 5.469018,7.4265 0.26686,3.37657 -0.71432,7.15414 -2.208957,8.50456 -1.219806,1.1021 -3.236201,1.50552 -4.955059,0.99136 z m 2.739374,-4.20846 c 0.767223,-0.76722 1.144961,-2.54692 1.013796,-4.77646 -0.136951,-2.32793 -0.7069,-3.62056 -1.707062,-3.87159 -1.593252,-0.39988 -2.46678,1.17545 -2.467367,4.44968 -5.29e-4,2.35788 0.249849,3.43768 0.985054,4.25007 0.553715,0.61185 1.535359,0.58852 2.175579,-0.0517 z m -38.967987,4.04299 c -0.09701,-0.097 -0.176389,-3.84749 -0.176389,-8.33438 v -8.15799 h 3.466041 3.466042 l 0.875877,0.87588 c 1.102296,1.1023 1.548079,2.70659 1.386482,4.98969 -0.215061,3.03849 -1.423744,4.39853 -4.126851,4.64364 l -1.628008,0.14762 v 3.00596 3.00596 h -1.543402 c -0.848873,0 -1.622779,-0.0794 -1.719792,-0.17638 z m 5.312236,-9.93145 c 0.470455,-0.39044 0.414327,-2.20766 -0.08357,-2.70556 -0.228674,-0.22867 -0.764456,-0.41577 -1.190625,-0.41577 h -0.774851 v 1.67569 c 0,0.92164 0.08571,1.76141 0.190471,1.86617 0.228695,0.22869 1.394002,-0.035 1.858571,-0.42053 z m 5.359291,1.77346 v -8.33438 h 4.510006 4.510005 l -0.07823,1.78594 -0.07823,1.78594 -2.711979,0.0754 -2.711979,0.0754 v 1.18137 1.18137 h 2.513541 2.513542 v 1.71979 1.71979 h -2.513542 -2.513541 v 1.5875 1.5875 h 2.778125 2.778125 v 1.98438 1.98437 h -4.497917 -4.497917 z m 10.847917,0.0126 v -8.347 l 3.505729,0.004 c 3.791191,0.004 4.413906,0.16768 5.327843,1.39858 0.409398,0.55139 0.575395,1.23979 0.648624,2.68991 0.117678,2.33039 -0.250389,3.59951 -1.300078,4.48277 l -0.778391,0.65497 0.645065,0.95055 c 0.599628,0.88362 2.269958,5.41493 2.269958,6.15801 0,0.2319 -0.544364,0.33007 -1.830208,0.33007 H 85.88215 l -0.980726,-2.94322 c -0.539398,-1.61877 -1.23385,-3.19635 -1.54323,-3.50573 l -0.562504,-0.5625 -0.132292,3.43958 -0.132291,3.43958 -1.653646,0.0788 -1.653646,0.0788 v -8.34699 z m 5.767917,-2.04991 c 0.174625,-0.17463 0.3175,-0.74613 0.3175,-1.27 0,-1.21424 -0.38571,-1.5875 -1.640417,-1.5875 h -1.005417 v 1.5875 1.5875 h 1.005417 c 0.552979,0 1.148292,-0.14288 1.322917,-0.3175 z m 16.172078,9.7879 c 0.13191,-0.33377 0.96037,-2.3096 1.84101,-4.39073 l 1.60115,-3.78387 -1.682,-3.95519 -1.68201,-3.9552 h 1.90972 1.90971 l 0.7152,2.05053 c 0.99506,2.85291 1.10128,2.97713 1.49759,1.75144 0.18208,-0.56311 0.56176,-1.64892 0.84373,-2.4129 l 0.51268,-1.38907 h 1.83307 c 1.00819,0 1.83307,0.0303 1.83307,0.0674 0,0.0371 -0.71437,1.7828 -1.5875,3.8794 -0.87312,2.09661 -1.5875,3.95095 -1.5875,4.12077 0,0.16981 0.70851,1.94322 1.57447,3.94091 2.25372,5.19916 2.2532,4.69849 0.005,4.60616 l -1.90362,-0.0782 -1.00685,-2.51354 -1.00685,-2.51354 -0.39316,0.92604 c -0.21623,0.50932 -0.67936,1.64042 -1.02917,2.51354 l -0.63603,1.5875 -1.90067,0.0777 c -1.88725,0.0771 -1.89899,0.0734 -1.66084,-0.52917 z m 12.63223,0.40738 c -0.097,-0.097 -0.17639,-3.84749 -0.17639,-8.33438 v -8.15799 h 1.71979 1.71979 v 8.33438 8.33437 h -1.5434 c -0.84887,0 -1.62278,-0.0794 -1.71979,-0.17638 z m 5.64444,-8.17957 v -8.35595 l 3.28895,0.0877 c 3.90832,0.10425 4.35491,0.32418 5.57459,2.74538 0.77713,1.54269 0.79375,1.65917 0.79375,5.56314 0,3.90773 -0.0159,4.01882 -0.79519,5.55625 -1.15198,2.27269 -2.21167,2.75941 -6.00774,2.75941 h -2.85436 z m 5.71368,3.83103 c 0.41663,-0.45974 0.51751,-1.04471 0.58176,-3.37344 0.0986,-3.57275 -0.31343,-4.62316 -1.86367,-4.75146 l -0.99218,-0.0821 v 4.3816 4.38159 h 0.88503 c 0.56312,0 1.06836,-0.20229 1.38906,-0.55617 z m 5.84596,4.35471 c -0.1004,-0.10041 -0.18256,-3.85366 -0.18256,-8.34055 v -8.15799 h 4.49792 4.49792 v 1.85209 1.85208 h -2.77813 -2.77812 v 1.18105 1.18104 l 2.57969,0.0757 2.57968,0.0757 0.0788,1.65365 0.0788,1.65364 h -2.65845 -2.65846 v 1.57855 1.57855 l 2.84427,0.0751 2.84427,0.0751 v 1.85208 1.85208 l -4.38151,0.0723 c -2.40982,0.0398 -4.46365,-0.01 -4.56406,-0.11024 z M 63.969726,156.79344 c -2.141699,-1.06013 -3.27542,-3.76172 -3.289255,-7.8381 -0.0094,-2.77217 0.174643,-4.00367 0.823217,-5.50816 1.268253,-2.94196 4.164835,-4.08372 6.880158,-2.71198 2.225056,1.12406 3.278699,3.70566 3.266575,8.00364 -0.01222,4.33265 -1.054362,6.88607 -3.266575,8.00365 -1.466249,0.74072 -2.985209,0.75826 -4.41412,0.051 z m 3.064362,-3.67886 c 0.797846,-0.427 1.202817,-1.85192 1.206018,-4.24345 0.0035,-2.60314 -0.163309,-3.35743 -0.92261,-4.17245 -1.25966,-1.35209 -2.764597,-0.30686 -3.185917,2.2127 -0.256767,1.53554 -0.118866,3.93583 0.288846,5.02755 0.472445,1.26507 1.545072,1.74754 2.613663,1.17565 z m 21.005294,3.93192 c -1.123304,-0.32506 -2.54418,-2.0358 -3.110179,-3.74467 -0.252844,-0.76339 -0.525373,-2.36527 -0.605616,-3.55972 -0.330163,-4.91461 1.511724,-8.96563 4.31559,-9.49164 1.434322,-0.26908 3.510859,0.0226 4.296534,0.60351 0.768009,0.56785 1.73414,2.1662 2.000676,3.30987 0.157443,0.67557 0.08826,0.74006 -1.206214,1.12448 -1.68057,0.49907 -2.070941,0.50983 -2.070941,0.0571 0,-0.52158 -1.146514,-1.50133 -1.756871,-1.50133 -0.702757,0 -1.631992,1.01727 -1.953614,2.1387 -0.337807,1.17787 -0.328224,4.34566 0.01691,5.58833 0.361966,1.30328 1.446694,2.15474 2.481416,1.9478 1.083249,-0.21665 1.741328,-0.88872 1.741328,-1.77834 0,-0.70181 -0.07161,-0.75274 -1.058333,-0.75274 h -1.058333 v -1.71979 -1.71979 h 2.513541 2.513542 v 3.68193 3.68194 l -1.078291,0.85402 c -1.82562,1.44592 -3.885393,1.88685 -5.981142,1.28039 z m 41.984568,-0.006 c -2.44888,-0.9765 -3.95281,-4.96795 -3.62455,-9.61957 0.33005,-4.67674 2.29978,-7.2811 5.50686,-7.2811 1.84576,0 3.21157,1.03725 4.18074,3.175 0.80439,1.77431 0.7361,1.97385 -0.87921,2.56889 l -1.43061,0.527 -0.39567,-1.00726 c -0.28331,-0.72123 -0.60245,-1.05916 -1.12388,-1.19003 -1.68812,-0.42369 -2.36611,0.92436 -2.36611,4.70456 0,2.4558 0.0726,2.92265 0.55534,3.57188 1.12505,1.51303 2.79774,0.84057 3.15397,-1.26798 0.0955,-0.56534 0.22669,-1.02789 0.29149,-1.02789 0.1123,0 2.80096,1.31983 2.94939,1.44781 0.18281,0.15764 -0.98962,3.35484 -1.48572,4.05155 -1.02598,1.44085 -3.51805,2.07048 -5.33204,1.34714 z m -56.620968,-8.32123 v -8.35389 l 3.858821,0.0857 3.858823,0.0857 0.758397,0.84953 c 1.443077,1.61649 1.669004,4.43845 0.533537,6.66415 -0.299553,0.58717 -0.787244,1.19742 -1.08376,1.35611 -0.534482,0.28605 -0.533551,0.29515 0.108233,1.05786 0.356045,0.42314 1.033238,1.93439 1.504879,3.35834 0.471638,1.42396 0.914426,2.74335 0.983975,2.932 0.09791,0.26558 -0.313449,0.32529 -1.822831,0.26458 l -1.949283,-0.0784 -1.060292,-2.92581 c -1.191813,-3.28873 -1.332574,-3.55649 -1.869657,-3.55649 -0.311623,0 -0.381259,0.60407 -0.381259,3.3073 v 3.30729 h -1.719792 -1.719791 z m 5.938123,-2.28831 c 0.940099,-1.34218 0.238014,-2.58696 -1.459106,-2.58696 h -1.039434 v 1.5875 1.5875 h 1.043331 c 0.778211,0 1.14799,-0.14943 1.455209,-0.58804 z m 16.614296,10.32432 c 0.07112,-0.18896 1.004123,-3.94992 2.073338,-8.35768 l 1.944026,-8.01412 1.856825,0.0766 1.85683,0.0766 1.9194,7.9375 c 1.05567,4.36562 1.92143,8.08633 1.92391,8.26823 0.003,0.23071 -0.50924,0.33073 -1.69427,0.33073 h -1.69877 l -0.17306,-0.8599 c -0.37316,-1.85403 -0.28777,-1.78594 -2.23944,-1.78594 h -1.80563 l -0.228721,1.25678 -0.228722,1.25677 -1.817513,0.079 c -1.404136,0.061 -1.788102,7.9e-4 -1.688203,-0.26459 z m 6.804229,-6.49513 c -0.007,-0.25466 -0.22747,-1.47506 -0.4907,-2.71198 -0.3692,-1.73487 -0.51782,-2.09776 -0.65016,-1.5875 -0.18917,0.72936 -0.96371,4.46458 -0.96371,4.6475 0,0.0633 0.47626,0.115 1.05834,0.115 0.83616,0 1.05579,-0.0972 1.04623,-0.46302 z m 5.83293,-1.53398 v -8.347 l 1.62074,0.0788 1.62074,0.0788 1.88499,4.31424 1.88499,4.31424 0.0725,-4.38038 0.0725,-4.38039 h 1.5811 1.58111 v 8.347 8.347 l -1.64049,-0.0788 -1.64049,-0.0788 -1.86524,-4.30428 -1.86524,-4.30428 -0.0726,4.37042 -0.0725,4.37043 h -1.5811 -1.58111 z m 12.43542,0.0126 v -8.33438 h 1.71979 1.7198 v 8.33438 8.33437 h -1.7198 -1.71979 z M 88.058128,135.52892 c -0.0797,-0.2077 -0.10573,-0.65418 -0.05784,-0.99219 l 0.08707,-0.61455 9.988021,-0.0693 9.988021,-0.0693 v 1.06151 1.06152 h -9.930178 c -8.357868,0 -9.953125,-0.0598 -10.075093,-0.37763 z m 7.021994,-2.3654 c -2.641851,-0.71232 -4.869407,-2.58768 -6.237282,-5.25112 -0.674844,-1.314 -0.729837,-1.68961 -0.90959,-6.2126 -0.197027,-4.95765 -0.389893,-6.75155 -0.812355,-7.55595 -0.133954,-0.25506 -0.58632,-1.84932 -1.005261,-3.5428 -0.418939,-1.69349 -1.013455,-3.41957 -1.321144,-3.83574 -0.307689,-0.41617 -0.488394,-0.75668 -0.401569,-0.75668 0.4928,0 2.076477,1.57122 2.949456,2.92626 0.55526,0.86187 1.089642,1.56807 1.187516,1.56934 0.09788,10e-4 -0.09837,-0.8933 -0.436112,-1.98795 -0.689002,-2.23314 -1.610246,-3.61171 -2.864371,-4.28629 -0.810705,-0.43607 -0.820106,-0.45919 -0.223997,-0.55082 1.169771,-0.17981 1.936726,0.2348 3.631285,1.96306 1.936554,1.97506 2.642658,2.13586 2.59865,0.59178 -0.01789,-0.62742 -0.50074,-1.76844 -1.429089,-3.37698 -1.002128,-1.73639 -1.437063,-2.79343 -1.524706,-3.705559 -0.159181,-1.656638 0.247459,-1.879314 0.862983,-0.472568 0.280829,0.641815 1.215856,1.783277 2.211311,2.699517 0.948608,0.87313 2.194465,2.0356 2.768568,2.58328 0.818092,0.78043 1.122149,0.93077 1.405988,0.69521 0.561586,-0.46608 0.444836,-1.22129 -0.693367,-4.48509 -1.111215,-3.186407 -1.366382,-5.489935 -0.780327,-7.0444 0.403791,-1.071016 1.773388,-2.41233 3.216124,-3.149704 1.717032,-0.877566 1.991894,-0.799955 1.033338,0.29178 -1.29054,1.469843 -1.725038,2.501905 -1.725038,4.09747 0,1.735932 0.321114,2.408048 2.820418,5.903374 1.966759,2.75054 2.540739,3.97151 2.573229,5.47371 0.0192,0.88658 0.0373,0.90349 0.42498,0.39688 0.34218,-0.44715 0.37665,-1.14887 0.2224,-4.52723 -0.10039,-2.198934 -0.078,-4.183558 0.0497,-4.410277 0.15441,-0.274104 0.24178,0.134635 0.26079,1.219934 0.0171,0.976143 0.37943,2.855103 0.9015,4.674863 0.53459,1.86338 0.88243,3.68352 0.89746,4.69602 0.0135,0.90933 0.11383,1.65347 0.22297,1.65365 0.48642,7.9e-4 1.26179,-1.14392 1.64197,-2.42412 0.22789,-0.7674 0.49537,-2.41108 0.5944,-3.6526 l 0.18005,-2.25733 0.32589,1.05833 c 0.54052,1.7554 0.43682,4.59221 -0.25521,6.98149 -0.34196,1.18065 -0.5929,2.14664 -0.55762,2.14664 0.0353,0 0.52342,-0.60341 1.08477,-1.34092 1.02347,-1.34462 2.33889,-2.36325 3.05183,-2.36325 0.20967,0 0.61234,0.18042 0.89481,0.40094 0.48865,0.38145 0.4788,0.39305 -0.20269,0.23874 -0.88796,-0.20107 -1.82775,0.70745 -2.27048,2.19491 -0.6099,2.04911 -1.67201,9.05138 -1.87787,12.38046 -0.22977,3.7157 -0.57476,4.8534 -2.09862,6.92074 -2.18958,2.97051 -6.640881,4.44129 -10.385648,3.4316 z m 5.707238,-1.42459 c 1.87434,-0.58888 4.36089,-3.10002 5.04292,-5.0928 0.7923,-2.31499 0.66613,-4.59553 -0.37078,-6.70178 -1.64962,-3.35086 -4.58605,-5.08811 -8.244018,-4.87732 -3.209737,0.18497 -5.892861,1.98684 -7.336772,4.92708 -1.034894,2.10736 -1.04803,5.05298 -0.0322,7.22034 1.247005,2.66059 3.684831,4.52114 6.504183,4.96399 1.501296,0.23582 2.64909,0.12212 4.436667,-0.43951 z m -9.661346,-15.74228 c -0.0021,-0.1819 -0.12129,-0.50932 -0.264583,-0.7276 -0.231585,-0.35278 -0.289481,-0.35278 -0.521065,0 -0.415708,0.63326 -0.311068,1.05833 0.260532,1.05833 0.291042,0 0.527344,-0.14882 0.525116,-0.33073 z m 14.377166,-0.13229 c 0.0643,-0.10914 0.006,-0.49323 -0.13027,-0.85352 -0.20144,-0.53404 -0.29274,-0.58293 -0.49405,-0.26459 -0.37317,0.59012 -0.30353,1.31655 0.12621,1.31655 0.2097,0 0.43384,-0.0893 0.49811,-0.19844 z m -10.5188,-2.26623 c 0.07345,-0.1914 0.02244,-0.63788 -0.113347,-0.99219 l -0.246888,-0.64418 -0.293725,0.74981 c -0.299297,0.76403 -0.199004,1.23456 0.263147,1.23456 0.141499,0 0.317365,-0.1566 0.390813,-0.348 z m 7.25413,-0.3796 c -0.002,-0.25466 -0.10849,-0.62793 -0.23614,-0.8295 -0.18522,-0.29245 -0.29375,-0.25127 -0.53735,0.20391 -0.16789,0.31371 -0.2332,0.68698 -0.14512,0.8295 0.26833,0.43416 0.92292,0.28886 0.91861,-0.20391 z m -3.753028,-0.11906 c 0.444984,-0.44499 0.390152,-0.957 -0.249354,-2.32834 l -0.555236,-1.19062 -0.49035,1.05833 c -0.569185,1.22848 -0.648033,2.41142 -0.173498,2.6029 0.58692,0.23682 1.143238,0.18293 1.468438,-0.14227 z"
         id="path251"
         inkscape:connector-curvature="0" />
      <path
         style="fill:#726200;stroke-width:0.26458335"
         d="M 63.48098,188.02934 28.821195,153.3688 63.547504,118.64249 98.273815,83.916176 l 34.726315,34.726314 34.7263,34.72631 -34.65978,34.66054 c -19.06288,19.0633 -34.719659,34.66055 -34.792835,34.66055 -0.07318,0 -15.729953,-15.59725 -34.792835,-34.66055 z m 68.79192,-0.79375 33.86602,-33.8668 -33.93255,-33.93255 -33.932555,-33.932557 -33.932553,33.932557 -33.932556,33.93255 33.866021,33.8668 c 18.626312,18.62674 33.925902,33.8668 33.999088,33.8668 0.07319,0 15.372775,-15.24006 33.999085,-33.8668 z m -47.762033,16.80922 c -0.657381,-0.21178 -1.57408,-0.77648 -2.037109,-1.25489 -0.886484,-0.91592 -1.794843,-2.74447 -1.461643,-2.94232 0.107842,-0.064 1.059278,-0.20155 2.114304,-0.30559 1.595295,-0.15732 1.918229,-0.12383 1.918229,0.19888 0,0.67175 1.065319,1.78233 1.709685,1.78233 1.625825,0 2.584085,-2.59028 1.636297,-4.4231 -0.639104,-1.23589 -2.37005,-1.38303 -3.286035,-0.27934 -0.256514,0.30908 -0.623856,0.33164 -1.973501,0.12122 -0.912077,-0.14221 -1.689793,-0.28257 -1.728258,-0.31191 -0.07522,-0.0574 0.896067,-6.92797 1.151252,-8.14361 l 0.153998,-0.73362 4.674011,0.0722 4.67401,0.0722 0.07823,1.78593 0.07823,1.78594 h -3.158781 c -3.398089,0 -3.47998,0.0348 -3.47998,1.47685 0,0.72348 0.05397,0.73916 1.306864,0.37984 3.609682,-1.03524 6.774344,2.57774 5.742417,6.55592 -0.45216,1.74313 -1.362758,3.0584 -2.598084,3.75269 -1.291241,0.72572 -3.926618,0.92189 -5.514145,0.41046 z m 10.323365,-2.25701 v -2.38125 h 2.116666 2.116667 v 2.38125 2.38125 h -2.116667 -2.116666 z m 5.989668,1.52136 c 0.44937,-2.48326 1.49884,-3.90412 5.98877,-8.10811 2.03129,-1.90193 2.31293,-3.05322 0.98615,-4.03118 -0.96311,-0.70989 -1.80888,-0.38427 -2.39348,0.92148 -0.47345,1.05748 -0.50028,1.07292 -1.75564,1.01044 -0.70117,-0.0349 -1.58818,-0.12526 -1.97114,-0.20079 -0.66973,-0.13208 -0.68685,-0.1794 -0.44861,-1.23976 0.5977,-2.66013 2.2653,-3.93347 5.23003,-3.9935 3.12512,-0.0633 4.76479,0.66128 5.73286,2.53332 0.57505,1.11201 0.51899,3.37529 -0.11435,4.61674 -0.48213,0.94506 -2.1401,2.66663 -4.21353,4.37518 -0.47294,0.38972 -0.85989,0.77177 -0.85989,0.849 0,0.0772 1.27992,0.17421 2.84427,0.21552 l 2.84427,0.0751 0.0777,1.91823 0.0777,1.91823 h -6.09039 -6.0904 z m -6.91571,-25.12317 c -2.678007,-0.93357 -4.012867,-4.19462 -3.784288,-9.245 0.136263,-3.01065 0.70752,-4.7551 2.012535,-6.14567 1.966624,-2.09556 5.295529,-1.99057 7.121448,0.22458 1.318025,1.599 1.797975,3.5033 1.768755,7.0179 -0.027,3.25126 -0.53519,5.21297 -1.750636,6.75816 -1.119614,1.42336 -3.502274,2.04036 -5.367814,1.39003 z m 2.761872,-4.11329 c 1.454041,-1.17797 1.442474,-6.84201 -0.01696,-8.30144 -0.772647,-0.77265 -1.805747,-0.55472 -2.537934,0.53536 -0.527735,0.78569 -0.603858,1.22982 -0.603858,3.52312 0,1.44326 0.13436,2.88416 0.298582,3.20202 0.516324,0.99936 1.085847,1.50396 1.697487,1.50396 0.325128,0 0.848331,-0.20836 1.162677,-0.46302 z m -38.965691,3.9908 c -0.09701,-0.097 -0.176389,-3.85671 -0.176389,-8.35488 v -8.17849 l 3.59424,0.0866 3.59424,0.0866 0.758396,0.84953 c 1.943929,2.17753 1.619401,7.28445 -0.564181,8.87825 -0.4137,0.30196 -1.334884,0.56025 -2.315104,0.64913 l -1.628008,0.14762 v 3.00596 3.00596 h -1.543402 c -0.848873,0 -1.622779,-0.0794 -1.719792,-0.17638 z m 5.288497,-9.91175 c 0.489686,-0.4064 0.449969,-2.21546 -0.05983,-2.72526 -0.228674,-0.22867 -0.764456,-0.41577 -1.190625,-0.41577 h -0.774851 v 1.88515 1.88516 l 0.834678,-0.16694 c 0.459074,-0.0918 0.994855,-0.29986 1.190625,-0.46234 z m 5.38303,1.75376 v -8.33438 h 4.510006 4.510005 l -0.07823,1.78594 -0.07823,1.78594 -2.711979,0.0754 -2.711979,0.0754 v 1.18137 1.18137 h 2.513541 2.513542 v 1.71979 1.71979 h -2.513542 -2.513541 v 1.5875 1.5875 h 2.778125 2.778125 v 1.98438 1.98437 h -4.497917 -4.497917 z m 10.847917,-0.0122 v -8.37181 l 3.809148,0.091 c 3.358745,0.0802 3.879263,0.15352 4.40214,0.62012 0.900991,0.80401 1.313712,2.05084 1.313712,3.96875 0,2.01158 -0.441301,3.25623 -1.430367,4.03423 l -0.700738,0.5512 0.649981,0.9578 c 0.603353,0.88908 2.274874,5.41914 2.274874,6.16522 0,0.2313 -0.537551,0.33007 -1.796322,0.33007 H 85.94992 l -1.030872,-2.95948 c -0.566981,-1.62772 -1.276683,-3.2053 -1.577115,-3.50573 l -0.546243,-0.54624 -0.132292,3.43958 -0.132291,3.43958 -1.653646,0.0788 -1.653646,0.0788 v -8.3718 z m 6.031733,-2.56752 c 0.286467,-0.60043 0.286467,-0.85477 0,-1.45521 -0.285909,-0.59925 -0.54515,-0.74195 -1.469647,-0.80896 l -1.122503,-0.0814 v 1.61793 1.61793 l 1.122503,-0.0814 c 0.924497,-0.067 1.183738,-0.20971 1.469647,-0.80897 z m 16.014412,10.06593 c 0.20198,-0.47941 1.03922,-2.44205 1.86052,-4.36142 l 1.49328,-3.48976 -1.58747,-3.75789 c -0.87311,-2.06684 -1.58748,-3.85996 -1.58748,-3.98472 0,-0.12475 0.80572,-0.22683 1.79048,-0.22683 h 1.79048 l 0.73043,2.05053 c 0.40174,1.12778 0.82752,2.20595 0.94619,2.39592 0.14147,0.22648 0.51086,-0.47957 1.0728,-2.05052 l 0.85705,-2.39593 h 1.85855 c 1.38342,0 1.82358,0.0845 1.72175,0.33073 -0.0752,0.1819 -0.80236,1.92324 -1.61581,3.86965 -0.81345,1.9464 -1.479,3.68224 -1.479,3.85742 0,0.17518 0.70851,1.95299 1.57447,3.95068 2.25419,5.20024 2.25468,4.69848 -0.005,4.60616 l -1.91291,-0.0782 -0.92669,-2.46048 c -0.50968,-1.35327 -1.01815,-2.3653 -1.12992,-2.24896 -0.11179,0.11634 -0.60633,1.22356 -1.099,2.46048 l -0.89577,2.24896 -1.91235,0.0779 -1.91235,0.0779 0.36724,-0.87166 z m 12.52608,0.67175 c -0.097,-0.097 -0.17639,-3.84749 -0.17639,-8.33438 v -8.15799 h 1.71979 1.71979 v 8.33438 8.33437 h -1.5434 c -0.84887,0 -1.62278,-0.0794 -1.71979,-0.17638 z m 5.64444,-8.1517 v -8.38382 l 3.28895,0.0877 c 2.8409,0.0758 3.39056,0.1632 4.03489,0.64177 1.80665,1.34185 2.61738,4.34298 2.41323,8.93321 -0.10856,2.44105 -0.22621,3.00733 -0.8975,4.31993 -1.13786,2.2249 -1.88228,2.57445 -5.73071,2.69092 l -3.10886,0.0941 z m 5.71368,3.80239 c 0.4381,-0.48409 0.50403,-0.9823 0.50403,-3.80868 0,-3.73079 -0.27529,-4.36563 -1.89309,-4.36563 h -0.88503 v 4.36563 4.36562 h 0.88503 c 0.56373,0 1.06802,-0.20219 1.38906,-0.55694 z m 5.84596,4.35548 c -0.1004,-0.10041 -0.18256,-3.85366 -0.18256,-8.34055 v -8.15799 h 4.49792 4.49792 v 1.85209 1.85208 h -2.77813 -2.77812 v 1.18105 1.18104 l 2.57969,0.0757 2.57968,0.0757 0.0788,1.65365 0.0788,1.65364 h -2.65845 -2.65846 v 1.57855 1.57855 l 2.84427,0.0751 2.84427,0.0751 v 1.85208 1.85208 l -4.38151,0.0723 c -2.40982,0.0398 -4.46365,-0.01 -4.56406,-0.11024 z M 64.623784,157.07822 c -2.571763,-0.77613 -3.937447,-3.6686 -3.937447,-8.33938 0,-5.47288 1.994135,-8.61248 5.457991,-8.59315 3.513021,0.0196 5.535227,3.17015 5.515597,8.59315 -0.01048,2.89434 -0.432239,4.73102 -1.457722,6.34804 -1.182841,1.86515 -3.388103,2.65236 -5.578419,1.99134 z m 2.410304,-3.96364 c 0.815903,-0.43666 1.205844,-1.84945 1.207735,-4.37574 0.0019,-2.52714 -0.387114,-3.93655 -1.207735,-4.37573 -1.387039,-0.74233 -2.518347,0.25092 -2.902509,2.54827 -0.256767,1.53554 -0.118866,3.93583 0.288846,5.02755 0.472445,1.26507 1.545072,1.74754 2.613663,1.17565 z m 20.75797,3.71704 c -2.058903,-0.93498 -3.225207,-3.31633 -3.472204,-7.08951 -0.252838,-3.86246 0.81471,-7.24901 2.750685,-8.72592 0.875321,-0.66776 1.185463,-0.74401 3.026217,-0.74401 2.435349,0 3.230909,0.43693 4.119859,2.2627 1.088083,2.23476 1.080749,2.27224 -0.536715,2.74245 -1.871078,0.54393 -1.833306,0.55025 -2.243101,-0.37554 -0.383106,-0.86549 -1.443746,-1.30459 -2.120344,-0.8778 -1.00253,0.63238 -1.438815,1.64024 -1.565667,3.61685 -0.183517,2.8596 0.09915,4.34087 1.000337,5.24206 0.4147,0.4147 1.039947,0.75073 1.396865,0.75073 0.993476,0 2.040408,-0.96015 2.040408,-1.87128 0,-0.72725 -0.06463,-0.77455 -1.058333,-0.77455 h -1.058333 v -1.71979 -1.71979 h 2.513541 2.513542 v 3.65988 3.65989 l -1.099021,0.88319 c -2.001679,1.6086 -4.201567,1.99148 -6.207736,1.08044 z m 42.086352,0.13402 c -1.10762,-0.48245 -2.08233,-1.71361 -2.79177,-3.52632 -0.79091,-2.02087 -0.87565,-6.80737 -0.16166,-9.13107 0.78681,-2.56066 2.63538,-4.16837 4.7929,-4.16837 1.9655,0 3.30423,0.94918 4.29149,3.04271 0.90106,1.91073 0.84061,2.13616 -0.71103,2.65153 -1.49166,0.49545 -1.4454,0.51148 -2.05654,-0.71236 -0.36878,-0.73849 -0.58489,-0.88083 -1.33735,-0.88083 -0.67656,0 -1.03478,0.18383 -1.45521,0.74681 -0.49062,0.65698 -0.55772,1.10814 -0.55772,3.7504 0,2.63694 0.0678,3.09484 0.55534,3.7511 1.12311,1.51178 2.85212,0.81062 3.1885,-1.29303 0.0881,-0.55119 0.23433,-0.99654 0.32488,-0.98968 0.0905,0.007 0.7757,0.33429 1.52257,0.72761 l 1.35795,0.71512 -0.37658,1.45521 c -0.47182,1.82323 -1.46209,3.2769 -2.60023,3.81698 -1.0604,0.50319 -2.8853,0.52343 -3.98554,0.0442 z m -56.475428,-8.2516 v -8.35919 l 3.809148,0.091 c 4.177437,0.0997 4.487645,0.21152 5.390748,1.94241 0.993277,1.90371 0.306503,5.91416 -1.179516,6.88784 l -0.635751,0.41656 0.648385,0.77056 c 0.356614,0.42381 1.034275,1.93562 1.505916,3.35957 0.471638,1.42396 0.914426,2.74335 0.983975,2.932 0.09792,0.2656 -0.313801,0.32529 -1.824789,0.26458 l -1.951241,-0.0784 -0.992825,-2.88408 c -1.041951,-3.02678 -1.351632,-3.59822 -1.949988,-3.59822 -0.290144,0 -0.364479,0.67452 -0.364479,3.3073 v 3.30729 h -1.719792 -1.719791 z m 5.934225,-2.11076 c 0.228677,-0.22868 0.415775,-0.75595 0.415775,-1.17173 0,-1.04794 -0.635913,-1.5875 -1.870983,-1.5875 h -1.039434 v 1.5875 1.5875 h 1.039434 c 0.592164,0 1.218343,-0.17891 1.455208,-0.41577 z m 16.819941,10.03785 c 0,-0.25153 0.859489,-4.01237 1.909974,-8.35742 l 1.909975,-7.90009 1.849023,0.0766 1.84903,0.0766 1.91925,7.9375 c 1.05559,4.36562 1.92389,8.08633 1.92954,8.26823 0.007,0.23131 -0.50036,0.33073 -1.68848,0.33073 h -1.69877 l -0.17306,-0.8599 c -0.37316,-1.85403 -0.28777,-1.78594 -2.23944,-1.78594 h -1.80563 l -0.228645,1.25678 -0.228642,1.25677 -1.652064,0.0788 c -1.419555,0.0677 -1.652061,0.0144 -1.652061,-0.37857 z m 6.602482,-6.38093 c -0.007,-0.25466 -0.22747,-1.47506 -0.4907,-2.71198 -0.3692,-1.73487 -0.51782,-2.09776 -0.65016,-1.5875 -0.18917,0.72936 -0.96371,4.46458 -0.96371,4.6475 0,0.0633 0.47626,0.115 1.05834,0.115 0.83616,0 1.05579,-0.0972 1.04623,-0.46302 z m 5.83293,-1.53398 v -8.347 l 1.62536,0.0788 1.62535,0.0788 1.88038,4.34385 1.88037,4.34385 0.0725,-4.41 0.0725,-4.40999 h 1.5811 1.58111 v 8.347 8.347 l -1.62833,-0.0788 -1.62832,-0.0788 -1.87741,-4.29459 -1.8774,-4.29458 -0.0726,4.36073 -0.0725,4.36073 h -1.5811 -1.58111 z m 12.43542,0.0126 v -8.33438 h 1.71979 1.7198 v 8.33438 8.33437 h -1.7198 -1.71979 z m -32.969852,-13.2099 c -0.0797,-0.2077 -0.10573,-0.65418 -0.05784,-0.99219 l 0.08707,-0.61455 9.988021,-0.0693 9.988021,-0.0693 v 1.06151 1.06152 h -9.930178 c -8.357868,0 -9.953125,-0.0598 -10.075093,-0.37763 z m 6.474632,-2.61606 c -2.953022,-1.00657 -5.233543,-3.32039 -6.149134,-6.23894 -0.237749,-0.75785 -0.440166,-2.96862 -0.5355,-5.84862 -0.0843,-2.54661 -0.271426,-5.04693 -0.415841,-5.55625 -0.144415,-0.50932 -0.661093,-2.44721 -1.148175,-4.30641 -0.487553,-1.86099 -1.147074,-3.73402 -1.467331,-4.16718 -0.319948,-0.43276 -0.513805,-0.78683 -0.430795,-0.78683 0.48958,0 1.906376,1.41788 2.965093,2.96737 0.673444,0.98562 1.275728,1.74075 1.338408,1.67807 0.06268,-0.0627 -0.20846,-1.08211 -0.602536,-2.26541 -0.703273,-2.11174 -1.748816,-3.5658 -3.174592,-4.41499 -0.479092,-0.28534 -0.441537,-0.31648 0.396875,-0.32898 1.144135,-0.0171 1.90596,0.47428 3.812077,2.45867 1.238721,1.28958 1.554686,1.49524 1.881068,1.22437 0.694127,-0.57608 0.425117,-1.62421 -1.103969,-4.30135 -1.072951,-1.87854 -1.530646,-2.97771 -1.617858,-3.885357 -0.156765,-1.631486 0.247425,-1.868783 0.851398,-0.499849 0.260686,0.590861 0.969301,1.567516 1.574696,2.170356 2.320674,2.31085 4.48812,4.08534 4.82985,3.95421 0.609486,-0.23388 0.395917,-1.77619 -0.602768,-4.35295 -0.995839,-2.569411 -1.369672,-4.965934 -1.044779,-6.697763 0.232756,-1.240692 1.735756,-2.907577 3.367095,-3.734239 1.7359,-0.879647 2.009834,-0.804336 1.050129,0.288708 -1.291283,1.47069 -1.72512,2.501696 -1.724179,4.09747 0.0011,1.753424 0.510601,2.81674 2.890722,6.032114 1.735456,2.34447 2.498596,4.00158 2.513686,5.45825 0.008,0.78374 0.0228,0.79387 0.41201,0.2836 0.34113,-0.44726 0.37534,-1.16846 0.22103,-4.65902 -0.10551,-2.386417 -0.0819,-4.192069 0.0559,-4.277227 0.13115,-0.08105 0.19868,0.289098 0.15006,0.82256 -0.0506,0.555201 0.38172,2.780057 1.01103,5.203267 0.73554,2.83218 1.05612,4.56173 0.9686,5.22552 -0.28535,2.16403 1.3421,0.56373 1.92818,-1.89602 0.15894,-0.66706 0.38003,-2.16534 0.49131,-3.3295 l 0.20233,-2.11667 0.31829,1.40209 c 0.49675,2.18822 0.38976,4.30582 -0.33247,6.58013 -0.35792,1.12709 -0.61369,2.08633 -0.56837,2.13164 0.0453,0.0453 0.50284,-0.45729 1.01674,-1.1169 1.66495,-2.13704 3.04835,-2.87596 4.03381,-2.1546 0.49967,0.36576 0.49104,0.37734 -0.18488,0.24813 -0.89769,-0.17161 -1.83358,0.77093 -2.29512,2.31142 -0.61078,2.03858 -1.64323,8.84693 -1.86432,12.29393 -0.29771,4.64145 -1.24858,6.72252 -3.9917,8.73615 -2.65217,1.94687 -5.887407,2.43686 -9.02604,1.36703 z m 5.83071,-1.03618 c 1.14589,-0.28967 3.13533,-1.61237 4.05158,-2.69372 2.81081,-3.31735 2.47059,-8.83052 -0.72681,-11.77778 -2.01774,-1.85989 -3.08546,-2.26703 -5.943592,-2.26642 -2.21325,5.3e-4 -2.67159,0.0846 -3.836458,0.7046 -1.712934,0.91162 -3.389561,2.65554 -4.153794,4.32048 -0.484317,1.05512 -0.605983,1.77817 -0.601038,3.57188 0.0056,2.04834 0.08663,2.39845 0.907846,3.92478 2.074196,3.85516 5.761257,5.36408 10.302266,4.21618 z m -9.364234,-15.55166 c 0.206815,-0.33464 -0.09058,-1.32055 -0.398338,-1.32055 -0.307752,0 -0.605152,0.98591 -0.398338,1.32055 0.09074,0.14682 0.269994,0.26695 0.398338,0.26695 0.128344,0 0.307597,-0.12013 0.398338,-0.26695 z m 14.547244,-0.52133 c 0.0881,-0.14252 0.0228,-0.51579 -0.14512,-0.8295 -0.2436,-0.45518 -0.35213,-0.49636 -0.53735,-0.20391 -0.3603,0.56892 -0.28133,1.29252 0.14106,1.29252 0.2097,0 0.45333,-0.1166 0.54141,-0.25911 z m -10.5621,-2.20556 c 0.07345,-0.1914 0.02794,-0.63347 -0.101132,-0.98239 l -0.234674,-0.63438 -0.324419,0.60619 c -0.346319,0.6471 -0.217752,1.35858 0.245493,1.35858 0.154655,0 0.341284,-0.1566 0.414732,-0.348 z m 7.25413,-0.3796 c -0.002,-0.25466 -0.10849,-0.62793 -0.23614,-0.8295 -0.18522,-0.29245 -0.29375,-0.25127 -0.53735,0.20391 -0.16789,0.31371 -0.2332,0.68698 -0.14512,0.8295 0.26833,0.43416 0.92292,0.28886 0.91861,-0.20391 z m -3.753028,-0.11906 c 0.444984,-0.44499 0.390152,-0.957 -0.249354,-2.32834 l -0.555236,-1.19062 -0.49035,1.05833 c -0.569185,1.22848 -0.648033,2.41142 -0.173498,2.6029 0.58692,0.23682 1.143238,0.18293 1.468438,-0.14227 z"
         id="path249"
         inkscape:connector-curvature="0" />
      <path
         style="fill:#3b3300;stroke-width:0.26458335"
         d="M 63.48098,188.02934 28.821195,153.3688 63.547504,118.64249 98.273815,83.916176 l 34.726315,34.726314 34.7263,34.72631 -34.65978,34.66054 c -19.06288,19.0633 -34.719659,34.66055 -34.792835,34.66055 -0.07318,0 -15.729953,-15.59725 -34.792835,-34.66055 z m 68.79192,-0.79375 33.86602,-33.8668 -33.93255,-33.93255 -33.932555,-33.932557 -33.932553,33.932557 -33.932556,33.93255 33.866021,33.8668 c 18.626312,18.62674 33.925902,33.8668 33.999088,33.8668 0.07319,0 15.372775,-15.24006 33.999085,-33.8668 z m -46.99762,16.93445 c -0.673518,-0.11687 -1.447424,-0.33325 -1.719791,-0.48085 -0.824572,-0.44683 -1.898441,-1.71186 -2.329821,-2.74455 -0.477565,-1.14326 -0.503062,-1.12662 2.165335,-1.41274 1.51307,-0.16223 1.653645,-0.13435 1.653645,0.32795 0,0.77874 0.980258,1.66337 1.843186,1.66337 1.164405,0 1.860981,-1.05773 1.860981,-2.82583 0,-1.16715 -0.119951,-1.55151 -0.649433,-2.08099 -0.795594,-0.7956 -1.69772,-0.82824 -2.629683,-0.0952 -0.611145,0.48073 -0.914363,0.52994 -2.285114,0.37084 -0.869259,-0.10088 -1.623258,-0.26101 -1.675556,-0.35583 -0.0523,-0.0948 0.178874,-1.95834 0.513715,-4.14116 0.334841,-2.18281 0.615969,-4.05804 0.624726,-4.16718 0.0088,-0.10914 2.159053,-0.19844 4.778428,-0.19844 h 4.7625 v 1.71979 1.71979 h -3.183302 c -2.31634,0 -3.210838,0.0901 -3.284398,0.33073 -0.0556,0.1819 -0.170463,0.73024 -0.255246,1.21854 -0.134675,0.77561 -0.09577,0.86104 0.307832,0.67605 0.254096,-0.11647 1.176364,-0.25115 2.049489,-0.29929 1.276525,-0.0704 1.790928,0.0304 2.625985,0.51458 2.683753,1.55602 3.092791,6.11426 0.778539,8.67586 -1.299885,1.43882 -3.467021,2.01574 -5.952017,1.58452 z m 9.558952,-2.24995 v -2.24895 h 2.116666 2.116667 v 2.24895 2.24896 h -2.116667 -2.116666 z m 6.085628,1.52642 c 5.3e-4,-1.46608 1.42711,-3.85408 3.45076,-5.77588 1.06329,-1.00977 2.38096,-2.26071 2.92815,-2.77985 1.11176,-1.05478 1.48901,-2.09878 1.12865,-3.12344 -0.55665,-1.58282 -2.84394,-1.194 -3.19124,0.54248 l -0.16335,0.81676 -1.84334,-0.15454 c -1.01383,-0.085 -1.91244,-0.22364 -1.9969,-0.3081 -0.31253,-0.31254 0.53543,-2.67495 1.22408,-3.41029 1.04993,-1.12109 2.15727,-1.48876 4.48383,-1.48876 1.62415,0 2.31965,0.12802 3.23416,0.59531 1.80339,0.92149 2.25436,1.72796 2.25436,4.0315 0,1.73621 -0.0853,2.06353 -0.80416,3.08636 -0.44228,0.6293 -1.69198,1.88833 -2.77709,2.79784 -1.08512,0.90951 -2.01309,1.77411 -2.06216,1.92132 -0.0568,0.17027 1.03037,0.26767 2.98762,0.26767 h 3.07685 l -0.0782,1.78593 -0.0782,1.78594 -5.88698,0.0712 -5.88698,0.0712 z m -6.542021,-25.18758 c -2.963569,-0.74357 -4.490228,-4.0364 -4.240144,-9.14549 0.161602,-3.30143 0.848124,-5.2593 2.306,-6.5764 1.737048,-1.56932 4.473331,-1.58619 6.312154,-0.0389 2.427931,2.04297 3.092191,9.19699 1.210979,13.04206 -1.086069,2.21985 -3.294938,3.29435 -5.588989,2.71875 z m 2.679192,-4.60251 c 0.487574,-0.65587 0.555326,-1.1135 0.555326,-3.75091 0,-2.64143 -0.06724,-3.09404 -0.557208,-3.75091 -0.988237,-1.32486 -2.43196,-1.15805 -3.154439,0.36446 -0.505605,1.06548 -0.677394,4.2439 -0.319958,5.91978 0.44957,2.10785 2.325894,2.76504 3.476279,1.21758 z m -39.264466,-3.75091 v -8.33438 l 3.108854,10e-4 c 3.550915,0.001 4.573286,0.38156 5.226439,1.94478 0.990153,2.36976 0.677373,5.90147 -0.654688,7.39231 -0.672441,0.75259 -0.910084,0.83722 -2.622526,0.93399 l -1.883079,0.10633 v 3.14514 3.14514 h -1.5875 -1.5875 z m 5.140079,-1.606 c 0.624189,-0.62419 0.770718,-1.57341 0.371933,-2.40939 -0.282697,-0.59262 -0.561176,-0.76409 -1.346703,-0.82923 l -0.990309,-0.0821 v 1.86806 1.86805 h 0.774851 c 0.426169,0 0.961771,-0.18692 1.190228,-0.41537 z m 5.443254,1.606 v -8.33438 h 4.365625 4.365625 v 1.7198 1.71979 h -2.645833 -2.645833 v 1.32291 1.32292 h 2.513541 2.513542 v 1.71979 1.71979 h -2.513542 -2.513541 v 1.5875 1.5875 h 2.778125 2.778125 v 1.98438 1.98437 h -4.497917 -4.497917 z m 10.847917,0 v -8.33438 l 3.241146,0.0149 c 4.105116,0.0189 4.906547,0.27632 5.688542,1.82706 1.130257,2.24137 0.562472,5.94054 -1.076659,7.01454 l -0.657979,0.43113 0.59699,0.59699 c 0.486384,0.48638 2.52671,5.81449 2.52671,6.59824 0,0.11552 -0.802825,0.17483 -1.784056,0.1318 l -1.784057,-0.0782 -1.060214,-2.95025 c -1.092089,-3.03895 -1.521344,-3.79662 -2.150944,-3.79662 -0.29089,0 -0.364479,0.69444 -0.364479,3.43958 v 3.43958 h -1.5875 -1.5875 z m 5.976191,-2.37932 c 0.460931,-0.70347 0.330536,-1.94583 -0.24248,-2.31033 -0.170365,-0.10837 -0.815768,-0.19886 -1.434232,-0.20109 l -1.124479,-0.004 v 1.5875 1.5875 h 1.184526 c 0.970606,0 1.262568,-0.11911 1.616665,-0.65953 z m 15.984224,10.43968 c 0,-0.164 0.78618,-2.13086 1.74706,-4.37079 l 1.74706,-4.0726 -1.61477,-3.82813 c -0.88812,-2.10547 -1.61477,-3.89996 -1.61477,-3.98776 0,-0.0878 0.79978,-0.12443 1.77728,-0.0814 l 1.77728,0.0782 0.68518,1.85887 c 1.15538,3.13452 1.05026,2.93647 1.32661,2.49933 0.13542,-0.2142 0.55552,-1.31219 0.93354,-2.43997 l 0.68732,-2.05053 h 1.81563 1.81562 l -1.57277,3.82905 c -0.86502,2.10598 -1.57277,4.00377 -1.57277,4.21731 0,0.21354 0.72472,2.09211 1.61049,4.1746 0.88576,2.08248 1.67241,3.93516 1.7481,4.11707 0.10247,0.24628 -0.33761,0.33072 -1.72353,0.33072 h -1.86113 l -1.05351,-2.71197 c -0.83265,-2.14343 -1.09689,-2.60105 -1.26039,-2.18282 -0.11379,0.29104 -0.58923,1.48167 -1.05653,2.64584 l -0.84965,2.11666 -1.74568,0.0782 c -1.16483,0.0522 -1.74567,-0.021 -1.74567,-0.21996 z m 12.7,-8.06036 v -8.33438 h 1.5875 1.5875 v 8.33438 8.33437 h -1.5875 -1.5875 z m 5.55625,-0.0272 v -8.36158 l 3.24115,0.0934 c 3.74739,0.10794 4.50788,0.44561 5.46734,2.4276 1.28424,2.65287 1.44471,8.31705 0.30967,10.92996 -1.1344,2.61142 -2.45401,3.2683 -6.57076,3.27078 l -2.4474,0.001 z m 5.4505,4.19035 c 0.87146,-0.5819 1.3148,-3.51956 0.90779,-6.01522 -0.3004,-1.84201 -1.18185,-2.86248 -2.35503,-2.7265 l -0.69597,0.0807 -0.0725,4.43177 -0.0725,4.43177 0.99858,-0.004 c 0.54922,-0.002 1.12959,-0.0915 1.28971,-0.19844 z m 6.19117,-4.16314 v -8.33438 h 4.36562 4.36563 v 1.7198 1.71979 h -2.77813 -2.77812 v 1.32291 1.32292 h 2.51354 2.51354 v 1.71979 1.71979 h -2.51354 -2.51354 v 1.5875 1.5875 h 2.77812 2.77813 v 1.98438 1.98437 h -4.36563 -4.36562 z M 64.671732,157.02909 c -1.245458,-0.35102 -2.480112,-1.58902 -3.223128,-3.23187 -0.546587,-1.20854 -0.612471,-1.75267 -0.612471,-5.05838 0,-3.32917 0.06343,-3.84456 0.626515,-5.09101 1.235313,-2.7345 3.500475,-3.94859 6.074053,-3.2556 2.649842,0.71353 4.014197,3.5504 4.014197,8.34661 0,6.33291 -2.6202,9.49057 -6.879166,8.29025 z m 3.016549,-4.53917 c 0.482743,-0.64922 0.555326,-1.11609 0.555326,-3.57188 0,-3.14911 -0.421691,-4.40816 -1.573218,-4.69717 -1.812205,-0.45484 -2.629869,0.85872 -2.647646,4.25339 -0.0069,1.30969 0.07986,2.7117 0.192699,3.11558 0.518832,1.85701 2.398966,2.34429 3.472839,0.90008 z m 20.440136,4.46195 c -2.055614,-0.73293 -3.144112,-2.57418 -3.67497,-6.2164 -0.568153,-3.8981 0.650434,-8.35685 2.652721,-9.7062 1.759696,-1.18585 4.778317,-1.1253 6.176423,0.12391 0.459967,0.41098 1.004009,1.32461 1.288663,2.16409 l 0.492631,1.45282 -0.851911,0.29726 c -0.468553,0.1635 -1.220115,0.37814 -1.670143,0.47698 -0.725879,0.15943 -0.837618,0.10246 -0.990004,-0.5047 -0.207772,-0.82783 -1.188117,-1.32623 -2.139159,-1.08753 -1.109779,0.27854 -1.709357,1.9257 -1.716376,4.71524 -0.01064,4.23139 1.369036,5.9033 3.72368,4.51237 0.600067,-0.35447 0.768426,-0.64431 0.768426,-1.32291 0,-0.83744 -0.03843,-0.869 -1.058333,-0.869 h -1.058333 v -1.71979 -1.71979 h 2.513541 2.513542 v 3.54939 3.54939 l -1.192821,1.04996 c -1.737749,1.52963 -3.769421,1.97091 -5.777577,1.25491 z m 42.068753,0 c -1.3644,-0.48648 -2.13624,-1.26016 -2.8027,-2.80937 -1.63718,-3.80574 -1.07353,-10.2957 1.09463,-12.6036 1.51696,-1.61473 4.50406,-1.76345 6.16305,-0.30683 0.75611,0.66387 1.98625,3.07463 1.98625,3.89256 0,0.30924 -2.73652,1.22505 -2.83033,0.9472 -0.0452,-0.13387 -0.32256,-0.6377 -0.61634,-1.11961 -0.44819,-0.73521 -0.66734,-0.86294 -1.36185,-0.79375 -1.34151,0.13364 -1.91813,1.17874 -2.03184,3.68256 -0.1771,3.8998 0.43353,5.52802 2.07316,5.52802 0.88609,0 1.50489,-0.72076 1.75264,-2.0414 0.18937,-1.00943 0.36407,-1.03958 1.92357,-0.33198 1.14959,0.52161 1.15671,0.53323 0.98517,1.60597 -0.33132,2.07199 -1.60128,3.86619 -3.15255,4.45395 -0.98015,0.37137 -1.93792,0.34016 -3.18286,-0.10372 z m -56.606255,-0.0435 c -0.103365,-0.10336 -0.187933,-3.87044 -0.187933,-8.37129 v -8.18336 l 3.650326,0.0915 c 4.141865,0.10384 4.831633,0.3563 5.528173,2.02336 0.492561,1.17886 0.544213,3.54656 0.106312,4.87341 -0.178366,0.54045 -0.674576,1.27738 -1.102693,1.63761 l -0.778391,0.65498 0.645064,0.95055 c 0.604758,0.89116 2.269959,5.41742 2.269959,6.17008 0,0.25311 -0.453523,0.32181 -1.742615,0.26393 l -1.742612,-0.0782 -1.139399,-3.14183 c -1.026451,-2.83039 -1.457621,-3.58844 -2.048198,-3.601 -0.104793,-0.002 -0.223856,1.514 -0.264583,3.36939 l -0.07405,3.37344 -1.465712,0.0777 c -0.806143,0.0427 -1.550284,-0.007 -1.653646,-0.11025 z m 5.831337,-10.34558 c 0.401979,-0.53312 0.427263,-1.51482 0.05684,-2.20697 -0.208007,-0.38866 -0.558067,-0.51177 -1.455208,-0.51177 h -1.181317 v 1.75361 1.75361 l 1.124479,-0.17493 c 0.618464,-0.0962 1.273307,-0.37231 1.455208,-0.61355 z m 16.74603,10.04741 c 0.0061,-0.25466 0.872355,-3.97537 1.92496,-8.26823 l 1.913828,-7.80521 1.76584,-0.0779 1.76583,-0.0779 0.26538,1.00397 c 0.44507,1.68377 3.73011,15.36073 3.73011,15.52997 0,0.0871 -0.76065,0.15838 -1.69034,0.15838 h -1.69035 l -0.17585,-0.99219 c -0.35023,-1.97616 -0.28219,-1.91823 -2.25268,-1.91823 h -1.804804 l -0.175845,0.99219 c -0.345977,1.95216 -0.310293,1.91823 -2.017543,1.91823 -1.322776,0 -1.567918,-0.0728 -1.558536,-0.46302 z m 6.591348,-6.48229 c -0.007,-0.32743 -0.22747,-1.60735 -0.4907,-2.84428 -0.3692,-1.73486 -0.51782,-2.09775 -0.65016,-1.5875 -0.2568,0.99009 -0.96371,4.49624 -0.96371,4.7798 0,0.13601 0.47626,0.24729 1.05834,0.24729 0.92473,0 1.05681,-0.0752 1.04623,-0.59531 z m 6.00932,6.76892 c -0.097,-0.097 -0.17639,-3.84748 -0.17639,-8.33438 v -8.15798 h 1.55018 1.55018 l 2.01725,4.56406 2.01725,4.56406 0.004,-4.56406 0.004,-4.56406 h 1.59127 1.59126 l -0.0699,8.26823 -0.0699,8.26823 -1.48921,0.0784 -1.48921,0.0784 -1.95037,-4.43277 -1.95037,-4.43276 -0.0726,4.42052 -0.0725,4.42052 h -1.40471 c -0.7726,0 -1.48409,-0.0794 -1.58111,-0.17639 z m 12.43542,0 c -0.097,-0.097 -0.17639,-3.84748 -0.17639,-8.33438 v -8.15798 h 1.71979 1.7198 v 8.33437 8.33438 h -1.54341 c -0.84887,0 -1.62278,-0.0794 -1.71979,-0.17639 z M 87.955065,134.84822 v -0.79375 H 98.009232 108.0634 v 0.79375 0.79375 H 98.009232 87.955065 Z m 7.766857,-1.59795 c -2.804893,-0.55514 -5.683861,-2.83832 -6.927398,-5.49381 -0.610782,-1.3043 -0.71148,-1.8812 -0.747985,-4.28533 -0.07254,-4.77752 -0.382608,-8.01118 -0.913317,-9.525 -0.280591,-0.80036 -0.75043,-2.4645 -1.044089,-3.69808 -0.293658,-1.23358 -0.763846,-2.63257 -1.044866,-3.10885 -0.281016,-0.47629 -0.420682,-0.86598 -0.310366,-0.86598 0.327064,0 2.270535,2.15868 3.058974,3.39771 0.402048,0.63182 0.788655,1.0911 0.859126,1.02063 0.180809,-0.18081 -0.671131,-3.04522 -1.235419,-4.15376 -0.476911,-0.93689 -1.535901,-2.04776 -2.504225,-2.62692 -0.450816,-0.26962 -0.359207,-0.29772 0.618696,-0.18974 0.990759,0.1094 1.412396,0.38325 3.080655,2.00087 1.063035,1.03077 2.051807,1.87412 2.197267,1.87412 0.322087,0 0.585885,-0.63606 0.58507,-1.4107 -2.64e-4,-0.31552 -0.597641,-1.63808 -1.327348,-2.93901 -1.537703,-2.74145 -1.987863,-4.049057 -1.737432,-5.046847 0.174334,-0.6946 0.196027,-0.679108 0.829707,0.592523 0.786082,1.577464 5.725904,6.296914 6.343057,6.060094 0.649161,-0.24911 0.452433,-1.70116 -0.667797,-4.928973 -1.579457,-4.551019 -1.350476,-7.015379 0.822245,-8.849252 0.932363,-0.786957 2.912565,-1.791633 3.120819,-1.58338 0.06567,0.06567 -0.192323,0.445581 -0.573318,0.844245 -0.380994,0.398665 -0.935246,1.260626 -1.231672,1.91547 -1.032132,2.28013 -0.652497,3.851929 1.706094,7.063728 2.26219,3.080522 3.10156,4.710972 3.13781,6.095092 0.0316,1.2077 0.17225,1.35678 0.69061,0.7322 0.24611,-0.29655 0.29184,-1.44697 0.18141,-4.56407 -0.10683,-3.015382 -0.0805,-3.736836 0.0953,-2.609555 0.13361,0.856911 0.60066,2.821445 1.03789,4.365625 1.00021,3.53246 1.21854,5.07276 0.82362,5.81066 -0.33949,0.63436 -0.22713,0.69764 0.52448,0.29539 1.09979,-0.58859 2.07909,-3.69753 2.11691,-6.72048 0.0147,-1.17664 0.0499,-1.25963 0.28775,-0.67901 0.14904,0.36381 0.33015,1.55443 0.40247,2.64584 0.10788,1.62812 0.007,2.4063 -0.56135,4.33456 -0.38105,1.29261 -0.64282,2.4002 -0.58171,2.46132 0.0611,0.0611 0.36543,-0.30036 0.67625,-0.80327 0.71731,-1.16064 2.52946,-2.80796 3.13402,-2.84896 0.72195,-0.049 1.2349,0.0553 1.49256,0.30324 0.1337,0.12868 0.002,0.16624 -0.30368,0.0864 -0.83595,-0.2186 -1.655,0.3734 -2.18951,1.58257 -0.69158,1.56451 -1.81908,8.39382 -2.09047,12.66213 -0.27177,4.27424 -0.85813,5.90016 -2.87589,7.97456 -2.40223,2.46966 -5.604273,3.47516 -8.954938,2.81201 z m 5.611018,-1.68283 c 1.79074,-0.81982 3.42977,-2.47527 4.30985,-4.35299 0.93386,-1.99247 0.98719,-5.08627 0.12026,-6.97579 -0.85428,-1.86195 -2.7333,-3.72322 -4.60811,-4.56458 -1.41587,-0.63541 -1.866863,-0.71048 -3.766159,-0.62689 -3.471608,0.15279 -5.881216,1.68669 -7.504015,4.77689 -0.644226,1.22676 -0.734337,1.68992 -0.735303,3.77935 -7.94e-4,1.8624 0.119999,2.6436 0.554686,3.58531 2.034013,4.40655 7.265352,6.37635 11.628791,4.3787 z m -10.325872,-15.2551 c 0.228664,-0.36998 -0.08194,-1.57246 -0.40617,-1.57246 -0.139975,0 -0.327509,0.29089 -0.416742,0.64642 -0.168857,0.67278 0.01535,1.20567 0.416742,1.20567 0.128344,0 0.311121,-0.12583 0.40617,-0.27963 z m 14.529072,-0.49192 c 0.0824,-0.13331 0.023,-0.57576 -0.13187,-0.98322 -0.22534,-0.59267 -0.33074,-0.66326 -0.52701,-0.35294 -0.38086,0.60218 -0.3018,1.57854 0.12781,1.57854 0.2097,0 0.44867,-0.10907 0.53107,-0.24238 z m -10.441376,-2.4696 c -0.0021,-0.32742 -0.108495,-0.76022 -0.236146,-0.96179 -0.184629,-0.29153 -0.29618,-0.24672 -0.545488,0.21912 -0.37105,0.69331 -0.187714,1.33798 0.380507,1.33798 0.244997,0 0.403577,-0.23535 0.401127,-0.59531 z m 7.143746,-0.13229 c -0.002,-0.25466 -0.12129,-0.64162 -0.26458,-0.8599 -0.23158,-0.35277 -0.28948,-0.35277 -0.52106,0 -0.44209,0.67344 -0.31418,1.32292 0.26053,1.32292 0.32912,0 0.52763,-0.17504 0.52511,-0.46302 z m -3.854044,0.0378 c 0.570701,-0.219 0.525288,-1.13501 -0.131963,-2.66174 l -0.550479,-1.2787 -0.646353,1.52715 c -0.502111,1.18635 -0.583843,1.64395 -0.366252,2.05052 0.281334,0.52568 0.916352,0.66158 1.695047,0.36277 z"
         id="path247"
         inkscape:connector-curvature="0" />
      <path
         style="fill:#000000;stroke-width:0.26458335"
         d="M 63.48098,188.02934 28.821195,153.3688 63.547504,118.64249 98.273815,83.916176 l 34.726315,34.726314 34.7263,34.72631 -34.65978,34.66054 c -19.06288,19.0633 -34.719659,34.66055 -34.792835,34.66055 -0.07318,0 -15.729953,-15.59725 -34.792835,-34.66055 z m 68.79192,-0.79375 33.86602,-33.8668 -33.93255,-33.93255 -33.932555,-33.932557 -33.932553,33.932557 -33.932556,33.93255 33.866021,33.8668 c 18.626312,18.62674 33.925902,33.8668 33.999088,33.8668 0.07319,0 15.372775,-15.24006 33.999085,-33.8668 z m -48.278714,16.5145 c -1.209249,-0.5245 -1.809138,-1.09094 -2.417275,-2.28248 -0.675828,-1.32416 -0.640287,-1.48655 0.358883,-1.63979 0.472943,-0.0725 1.295017,-0.20025 1.826829,-0.28382 0.911823,-0.14329 0.994762,-0.095 1.455208,0.84749 0.504839,1.03334 1.154243,1.32078 2.32191,1.02771 1.255029,-0.31499 1.690126,-3.44639 0.660704,-4.75509 -0.693552,-0.88171 -2.048158,-0.95336 -2.777961,-0.14694 -0.418214,0.46213 -0.68951,0.52325 -1.694651,0.38181 -2.21815,-0.31214 -2.208244,-0.30348 -2.033849,-1.77597 0.08573,-0.72391 0.355446,-2.61611 0.599355,-4.20488 l 0.443471,-2.88866 h 4.593502 4.593503 v 1.71979 1.71979 H 88.783653 85.64349 l -0.150145,1.11942 c -0.08258,0.61567 -0.114769,1.15479 -0.07153,1.19802 0.04324,0.0432 0.400534,-0.0438 0.793991,-0.19337 2.545254,-0.9677 5.37438,0.421 6.247527,3.06666 0.613026,1.85749 -0.151395,5.01089 -1.513232,6.24241 -1.375958,1.24429 -5.018384,1.68829 -6.955912,0.8479 z m 10.840046,-1.96229 v -2.11666 h 2.116666 2.116667 v 2.11666 2.11667 h -2.116667 -2.116666 z m 6.188828,1.25677 c 0.40279,-2.04265 1.48763,-3.59956 4.39621,-6.30921 1.60709,-1.49717 2.99719,-3.02278 3.1477,-3.45454 0.47064,-1.35007 -0.39181,-2.60552 -1.78989,-2.60552 -0.62848,0 -1.6241,1.17821 -1.6241,1.92195 0,0.49602 -0.11507,0.51635 -1.91823,0.33882 -1.05502,-0.10387 -1.95567,-0.22615 -2.00143,-0.27173 -0.0458,-0.0456 -0.002,-0.51462 0.0968,-1.04229 0.26536,-1.41452 1.1598,-2.58711 2.5021,-3.28024 1.03211,-0.53294 1.48663,-0.60086 3.45427,-0.51618 2.77964,0.11962 3.82942,0.63928 4.67953,2.31648 1.34787,2.65919 0.4275,5.09831 -3.00586,7.966 -1.22081,1.01967 -2.21966,1.96708 -2.21966,2.10536 0,0.14359 1.24817,0.25142 2.91042,0.25142 h 2.91041 v 1.71979 1.71979 h -5.8539 -5.85391 z m -7.736842,-25.25354 c -3.103676,-1.5292 -4.242755,-9.19528 -2.018498,-13.58465 1.151792,-2.27295 3.077239,-3.19693 5.467204,-2.62359 1.839079,0.44119 2.985,1.68966 3.694306,4.0249 0.46689,1.53712 0.53596,2.31121 0.43842,4.91329 -0.15446,4.12037 -1.077299,6.25521 -3.176008,7.34717 -0.963086,0.50109 -3.315449,0.45991 -4.405424,-0.0771 z m 3.684707,-3.93779 c 0.607319,-0.64619 0.641432,-0.8561 0.641432,-3.9469 0,-3.05657 -0.03935,-3.30634 -0.618022,-3.92281 -1.657369,-1.76562 -3.269099,-0.63694 -3.643871,2.55177 -0.227388,1.93471 0.06906,4.12198 0.699082,5.15797 0.671989,1.105 1.966561,1.17588 2.921379,0.15997 z m -39.17836,-4.08002 v -8.20209 l 2.844271,0.0149 c 3.698623,0.0194 4.523795,0.30433 5.291667,1.82706 0.472299,0.9366 0.594111,1.62001 0.589502,3.3073 -0.01026,3.75296 -1.128805,5.16946 -4.082092,5.16946 h -1.468348 v 3.04271 3.04271 h -1.5875 -1.5875 z m 5.291667,-1.5875 c 1.145534,-1.14554 0.374896,-3.175 -1.205627,-3.175 h -0.91104 v 1.85208 1.85208 h 0.79375 c 0.440973,0 1.028935,-0.23518 1.322917,-0.52916 z m 5.291666,1.5875 v -8.20209 h 4.365625 4.365625 v 1.7198 1.71979 h -2.791952 -2.791952 l 0.07997,1.38906 0.07997,1.38906 2.579688,0.0757 2.579687,0.0757 v 1.57792 1.57791 H 74.1841 71.525643 l 0.07877,1.65365 0.07877,1.65365 2.844271,0.0751 2.844271,0.0751 v 1.71084 1.71084 h -4.497917 -4.497917 z m 10.847917,-0.0307 v -8.23273 l 3.505729,0.11878 c 3.838329,0.13004 4.625703,0.3619 5.341012,1.57282 0.597699,1.01183 0.821986,3.47994 0.443386,4.87919 -0.288936,1.06786 -1.156494,2.24615 -1.90009,2.58063 -0.294597,0.13252 -0.303643,0.20505 -0.04077,0.32699 0.481899,0.22354 1.340504,2.0026 2.214867,4.58929 0.415042,1.22784 0.754621,2.26964 0.754621,2.3151 0,0.0455 -0.803672,0.082 -1.785938,0.0812 l -1.785937,-0.001 -1.018252,-2.91616 c -1.02226,-2.92774 -1.474361,-3.69568 -2.175647,-3.69568 -0.30742,0 -0.377976,0.61736 -0.377976,3.30729 v 3.30729 h -1.5875 -1.5875 z m 6.003182,-1.97744 c 0.41653,-0.56964 0.448135,-1.54155 0.07293,-2.24264 -0.214331,-0.40048 -0.559565,-0.51177 -1.5875,-0.51177 h -1.313609 v 1.7542 1.7542 l 1.240682,-0.13984 c 0.761925,-0.0859 1.37451,-0.32287 1.5875,-0.61415 z m 16.030533,9.89229 c 0.0769,-0.18897 0.86574,-2.03211 1.75303,-4.09586 0.88729,-2.06376 1.61325,-3.88096 1.61325,-4.03823 0,-0.15728 -0.66682,-1.86203 -1.48182,-3.78835 -0.815,-1.92631 -1.54433,-3.657 -1.62073,-3.84596 -0.10749,-0.26585 0.26477,-0.32571 1.64551,-0.26459 l 1.78444,0.079 0.82849,2.29474 c 0.45567,1.2621 0.90377,2.36925 0.99577,2.46033 0.092,0.0911 0.56826,-0.97109 1.05834,-2.36039 l 0.89105,-2.52598 1.65364,-5.3e-4 c 0.90951,-2.7e-4 1.65365,0.10775 1.65365,0.24006 0,0.1323 -0.7085,1.9347 -1.57444,4.00531 l -1.57444,3.76476 1.70673,4.02911 c 0.9387,2.21604 1.70673,4.10458 1.70673,4.1968 0,0.0922 -0.76304,0.16766 -1.69565,0.16766 h -1.69565 l -0.99718,-2.51946 c -0.54845,-1.3857 -1.08541,-2.4275 -1.19325,-2.3151 -0.10783,0.11239 -0.59911,1.21638 -1.09174,2.45331 l -0.89568,2.24896 -1.80491,0.079 c -1.39789,0.0612 -1.77339,0.002 -1.66514,-0.26458 z m 12.6267,-7.8842 v -8.20209 h 1.5875 1.5875 v 8.20209 8.20208 h -1.5875 -1.5875 z m 5.55625,0 v -8.20209 l 2.57969,0.002 c 1.41883,8e-4 3.01638,0.12277 3.55011,0.27101 1.24617,0.34612 2.41357,1.68478 3.0293,3.47368 0.67822,1.97045 0.68563,7.18501 0.013,9.1373 -1.01736,2.9527 -2.026,3.52059 -6.25318,3.52059 h -2.91892 z m 5.86609,3.97856 c 0.89886,-1.11003 0.96142,-5.72727 0.10019,-7.39272 -0.43603,-0.84319 -0.88424,-1.08376 -2.01917,-1.08376 h -0.77211 v 4.66505 4.66504 l 1.12178,-0.15046 c 0.68208,-0.0915 1.29719,-0.36709 1.56931,-0.70315 z m 5.77558,-3.97856 v -8.20209 h 4.36562 4.36563 v 1.7198 1.71979 h -2.77813 -2.77812 v 1.45521 1.4552 h 2.51354 2.51354 v 1.5875 1.5875 h -2.51354 -2.51354 v 1.7198 1.71979 h 2.77812 2.77813 v 1.71979 1.71979 h -4.36563 -4.36562 z M 130.91803,157.071 c -1.64992,-0.23697 -2.43945,-0.90881 -3.36578,-2.86404 -0.81839,-1.7274 -0.83573,-1.8436 -0.83573,-5.60046 0,-3.68178 0.0304,-3.89834 0.75367,-5.3713 0.99922,-2.03494 2.27485,-2.90638 4.25439,-2.90638 1.992,0 3.01875,0.64729 3.90151,2.45959 1.17963,2.4218 1.17751,2.50983 -0.0694,2.88343 -0.59951,0.17961 -1.22922,0.37999 -1.39935,0.44527 -0.17014,0.0653 -0.44028,-0.22821 -0.60033,-0.65222 -0.6926,-1.83491 -2.53541,-1.95216 -3.36031,-0.21382 -0.57384,1.20929 -0.60704,5.61236 -0.0523,6.93998 0.81042,1.9396 3.07427,1.56116 3.47616,-0.58109 0.0921,-0.49095 0.26526,-0.95308 0.38479,-1.02695 0.31319,-0.19356 2.6331,0.98308 2.6331,1.33548 0,0.92993 -0.90377,3.07325 -1.64932,3.91142 -0.97326,1.09418 -2.29288,1.49647 -4.07105,1.24109 z m -67.201825,-0.5018 c -1.017646,-0.62055 -1.72515,-1.61179 -2.378567,-3.33249 -0.677839,-1.78501 -0.685644,-7.34449 -0.01278,-9.10996 0.982216,-2.57718 2.525726,-3.79793 4.80209,-3.79793 2.205863,0 3.582694,0.99575 4.682125,3.38619 0.533852,1.16072 0.607039,1.73377 0.60783,4.7592 0.0013,4.67575 -0.655675,6.58215 -2.755691,7.99735 -1.174369,0.79141 -3.724685,0.84176 -4.944999,0.0976 z m 3.990049,-4.10678 c 0.466267,-0.62451 0.537353,-1.11711 0.537353,-3.72363 0,-2.64252 -0.0671,-3.09377 -0.557721,-3.75091 -0.440319,-0.58976 -0.768477,-0.747 -1.558946,-0.747 -0.790469,0 -1.118627,0.15724 -1.558946,0.747 -0.48972,0.65593 -0.557721,1.10898 -0.557721,3.71581 0,2.41829 0.08872,3.10419 0.478446,3.69899 0.902076,1.37675 2.216037,1.40114 3.217535,0.0597 z m 19.797247,4.14773 c -1.661258,-0.91551 -2.569343,-2.74626 -2.98567,-6.01927 -0.457538,-3.59701 0.463894,-7.40282 2.19805,-9.07864 1.395309,-1.34837 4.129558,-1.64318 6.087978,-0.65641 1.044165,0.52611 2.632855,4.03781 1.831935,4.04937 -0.10914,0.002 -0.768572,0.17585 -1.465403,0.38729 -1.237072,0.37535 -1.272315,0.37034 -1.493789,-0.21218 -0.342583,-0.90106 -0.948534,-1.28158 -1.892155,-1.18822 -1.151453,0.11393 -1.777161,1.03256 -2.109684,3.09734 -0.421823,2.61929 0.113337,5.51813 1.15317,6.24646 1.333141,0.93377 3.625049,0.003 3.625049,-1.4724 0,-0.743 -0.05024,-0.77574 -1.190625,-0.77574 h -1.190625 v -1.71979 -1.71979 h 2.513541 2.513542 v 3.54446 3.54447 l -0.972944,0.85426 c -0.53512,0.46984 -1.364734,1.01795 -1.843585,1.21803 -1.238557,0.5175 -3.754467,0.46525 -4.778785,-0.0992 z m -13.835936,-8.03877 v -8.2372 l 3.373437,0.13441 c 1.855391,0.0739 3.706286,0.26744 4.113099,0.43003 2.302656,0.92029 2.342174,6.89446 0.05552,8.39273 -0.599551,0.39284 -0.641948,0.49646 -0.284893,0.69628 0.581615,0.32548 1.3096,1.83736 1.994784,4.14273 0.319082,1.07358 0.645072,2.12116 0.724421,2.32795 0.117663,0.30662 -0.186944,0.3614 -1.651312,0.29697 l -1.79559,-0.079 -1.030742,-2.90134 c -1.134976,-3.19473 -1.360554,-3.58095 -2.091534,-3.58095 -0.459478,0 -0.496771,0.24829 -0.496771,3.30729 v 3.30729 h -1.455209 -1.455208 z m 5.688396,-1.81684 c 0.475332,-0.39449 0.528971,-2.14359 0.07952,-2.59304 -0.174625,-0.17462 -0.889,-0.3175 -1.5875,-0.3175 h -1.27 v 1.7542 1.7542 l 1.190479,-0.13418 c 0.654765,-0.0738 1.36914,-0.28246 1.587501,-0.46368 z m 16.801187,9.95128 c 0,-0.13116 3.370226,-13.9865 3.723871,-15.30922 l 0.265281,-0.99218 h 1.68097 1.68097 l 1.77023,7.34219 c 0.97363,4.0382 1.86988,7.72914 1.99167,8.20208 l 0.22144,0.85989 h -1.68935 -1.68935 l -0.1755,-1.32291 -0.17549,-1.32292 h -1.93246 c -2.093281,0 -1.991324,-0.077 -2.36626,1.78594 -0.171844,0.85382 -0.184126,0.85989 -1.739545,0.85989 -0.861561,0 -1.566477,-0.0462 -1.566477,-0.10276 z m 6.812432,-6.31338 c -0.0678,-0.1819 -0.34022,-1.48992 -0.60529,-2.90669 -0.26507,-1.41678 -0.53455,-2.52337 -0.59885,-2.45907 -0.14772,0.14772 -1.08594,4.61172 -1.09995,5.23347 -0.008,0.37547 0.22004,0.46302 1.20851,0.46302 0.86454,0 1.18307,-0.0962 1.09558,-0.33073 z m 5.88757,-1.78594 v -8.20208 h 1.39693 1.39694 l 1.9765,4.53519 1.9765,4.53518 0.0724,-4.53518 0.0724,-4.53519 h 1.44896 1.44896 v 8.21528 8.21529 l -1.49565,-0.0794 -1.49565,-0.0793 -1.87779,-4.31211 -1.87778,-4.31212 -0.0726,4.37826 -0.0725,4.37826 h -1.44881 -1.44881 z m 12.43541,0 v -8.20208 h 1.58751 1.5875 v 8.20208 8.20208 h -1.5875 -1.58751 z M 88.219648,134.84822 v -0.79375 h 9.921875 9.921877 v 0.79375 0.79375 h -9.921877 -9.921875 z m 8.055176,-1.592 c -3.116394,-0.44208 -6.073576,-2.68384 -7.420393,-5.62521 -0.701624,-1.53231 -0.756364,-1.89373 -0.790334,-5.21821 -0.0474,-4.63953 -0.26974,-6.57027 -1.035915,-8.99583 -0.344747,-1.09141 -0.758904,-2.65445 -0.920351,-3.47343 -0.161446,-0.81897 -0.513402,-1.9203 -0.782129,-2.44739 -0.268727,-0.5271 -0.404641,-0.95835 -0.302032,-0.95835 0.309144,0 1.602337,1.45266 2.492009,2.7993 1.324608,2.00497 1.565376,1.73345 0.709118,-0.79969 -0.879668,-2.6024 -1.563857,-3.68639 -2.696429,-4.27207 -0.986587,-0.51018 -0.812885,-0.7523 0.355597,-0.49566 0.574434,0.12617 1.535562,0.83108 2.784922,2.04252 2.130203,2.06554 2.725761,2.18627 2.725761,0.55259 0,-0.7 -0.410818,-1.71257 -1.425718,-3.51403 -1.513967,-2.68731 -1.873186,-3.707841 -1.603843,-4.556463 0.14237,-0.44857 0.244803,-0.367954 0.69905,0.550161 0.688782,1.392152 5.865911,6.227222 6.434249,6.009122 0.792583,-0.30414 0.720289,-1.04875 -0.423225,-4.35906 -0.941919,-2.726722 -1.157951,-3.701818 -1.161999,-5.244866 -0.0044,-1.683834 0.08364,-2.021061 0.788778,-3.02071 0.519017,-0.735793 1.389004,-1.450769 2.513542,-2.065683 l 1.719791,-0.94041 -0.863647,1.093513 c -1.726788,2.186389 -2.084478,4.257688 -1.107239,6.411749 0.292068,0.643787 1.300019,2.203319 2.239894,3.465627 2.004059,2.69157 2.509119,3.77879 2.509119,5.40122 0,0.94594 0.081,1.15972 0.394,1.03962 0.68876,-0.2643 0.93089,-1.90024 0.66047,-4.46241 -0.13822,-1.30968 -0.23892,-2.857495 -0.22376,-3.439578 0.0238,-0.914365 0.0585,-0.84639 0.25495,0.499686 0.12506,0.856912 0.58804,2.831262 1.02884,4.387452 0.85177,3.0071 1.04755,4.5315 0.70606,5.49776 -0.31536,0.89234 0.42726,0.76731 1.25,-0.21047 0.85586,-1.01713 1.24823,-2.43092 1.46525,-5.27964 l 0.17134,-2.24896 0.34858,1.93749 c 0.38373,2.13286 0.26579,3.46006 -0.53899,6.06564 -0.68442,2.21588 -0.51617,2.56948 0.51172,1.07548 1.19898,-1.74264 2.31105,-2.60245 3.3184,-2.56562 0.56024,0.0205 0.66353,0.0736 0.31043,0.15961 -1.52683,0.37196 -2.00246,1.43876 -2.86455,6.42498 -0.90441,5.23099 -1.01481,6.11704 -1.10427,8.86284 -0.0999,3.06595 -0.79016,4.94323 -2.50919,6.82411 -0.71934,0.78708 -1.90053,1.7051 -2.69329,2.09322 -1.24639,0.61022 -1.95847,0.80543 -4.057867,1.11241 -0.291041,0.0426 -1.131056,-0.008 -1.866699,-0.11236 z m 5.250846,-1.72103 c 1.77982,-0.87369 3.43384,-2.55443 4.24487,-4.31341 0.44977,-0.97549 0.57067,-1.74067 0.57173,-3.61835 0.001,-2.21224 -0.0631,-2.5002 -0.90725,-4.05708 -1.63007,-3.00659 -4.30576,-4.6224 -7.690372,-4.64412 -2.312683,-0.0148 -4.260228,0.73372 -6.00126,2.30664 -1.764573,1.59419 -2.55392,3.37119 -2.682169,6.03818 -0.09864,2.05123 -0.03659,2.45043 0.596329,3.83646 0.752694,1.64833 2.105972,3.21868 3.542665,4.11091 2.402842,1.49225 5.704477,1.62739 8.325457,0.34077 z M 91.126453,116.12895 c -0.0057,-0.73523 -0.30309,-1.65365 -0.535392,-1.65365 -0.284549,0 -0.602932,1.50276 -0.391028,1.84563 0.274175,0.44362 0.930318,0.30765 0.92642,-0.19198 z m 14.466487,-0.21531 c 0.0873,-0.22756 0.0131,-0.73341 -0.16489,-1.1241 l -0.32365,-0.71036 -0.3903,0.74492 c -0.30443,0.58101 -0.32106,0.82834 -0.0756,1.1241 0.40965,0.49358 0.7566,0.48102 0.95445,-0.0346 z m -10.427535,-2.12229 c 0.20243,-0.20243 -0.320135,-1.6973 -0.593333,-1.6973 -0.263829,0 -0.53159,0.67725 -0.53159,1.34456 0,0.48216 0.757864,0.7198 1.124923,0.35274 z m 7.000355,-0.13883 c 0.20586,-0.20585 0.21394,-0.5222 0.027,-1.05834 -0.34178,-0.98043 -0.65634,-0.97232 -0.87486,0.0226 -0.25257,1.14994 0.19134,1.69224 0.84782,1.03576 z m -3.874551,-0.24486 c 0.281474,-0.15064 0.512363,-0.53759 0.513082,-0.8599 0.0016,-0.71357 -0.829254,-3.09954 -1.079328,-3.09954 -0.229224,0 -1.303231,2.48107 -1.303231,3.01061 0,0.21943 0.264617,0.58431 0.588039,0.81084 0.697722,0.48871 0.638109,0.48229 1.281438,0.13799 z"
         id="path245"
         inkscape:connector-curvature="0" />
    </g>
  </g>
</svg>
