<?xml version="1.0" encoding="UTF-8" standalone="no"?>
<!-- Created with Inkscape (http://www.inkscape.org/) -->

<svg
   xmlns:dc="http://purl.org/dc/elements/1.1/"
   xmlns:cc="http://creativecommons.org/ns#"
   xmlns:rdf="http://www.w3.org/1999/02/22-rdf-syntax-ns#"
   xmlns:svg="http://www.w3.org/2000/svg"
   xmlns="http://www.w3.org/2000/svg"
   xmlns:sodipodi="http://sodipodi.sourceforge.net/DTD/sodipodi-0.dtd"
   xmlns:inkscape="http://www.inkscape.org/namespaces/inkscape"
   width="270.93332mm"
   height="270.93335mm"
   viewBox="0 0 270.93332 270.93335"
   version="1.1"
   id="svg415"
   inkscape:version="0.92.4 (5da689c313, 2019-01-14)"
   sodipodi:docname="Class_6_Toxic.svg">
  <defs
     id="defs409" />
  <sodipodi:namedview
     id="base"
     pagecolor="#ffffff"
     bordercolor="#666666"
     borderopacity="1.0"
     inkscape:pageopacity="0.0"
     inkscape:pageshadow="2"
     inkscape:zoom="0.35"
     inkscape:cx="268.57147"
     inkscape:cy="311.42859"
     inkscape:document-units="mm"
     inkscape:current-layer="layer1"
     showgrid="false"
     inkscape:window-width="1920"
     inkscape:window-height="1017"
     inkscape:window-x="-8"
     inkscape:window-y="-8"
     inkscape:window-maximized="1" />
  <metadata
     id="metadata412">
    <rdf:RDF>
      <cc:Work
         rdf:about="">
        <dc:format>image/svg+xml</dc:format>
        <dc:type
           rdf:resource="http://purl.org/dc/dcmitype/StillImage" />
        <dc:title></dc:title>
      </cc:Work>
    </rdf:RDF>
  </metadata>
  <g
     inkscape:label="Layer 1"
     inkscape:groupmode="layer"
     id="layer1"
     transform="translate(-34.773799,39.701192)">
    <g
       id="g428"
       transform="matrix(1.7066667,0,0,1.7066667,-24.573494,-160.82372)">
      <path
         style="fill:#fefefe;stroke-width:0.26458332"
         d="m 34.773804,150.34523 v -79.375 h 79.374996 79.375 v 79.375 79.375 h -79.375 -79.374996 z"
         id="path444"
         inkscape:connector-curvature="0" />
      <path
         style="fill:#d6d6d6;stroke-width:0.26458332"
         d="M 74.461193,189.90033 34.906538,150.34501 74.527672,110.72388 114.1488,71.102743 l 39.62114,39.621137 39.62113,39.62113 -39.55465,39.55532 c -21.75507,21.75542 -39.61449,39.55532 -39.68762,39.55532 -0.0731,0 -17.932547,-17.7999 -39.687607,-39.55532 z M 153.30725,189.37116 192.33273,150.34501 153.24077,111.25304 114.1488,72.161079 75.056841,111.25304 35.964877,150.34501 74.99036,189.37116 c 21.464013,21.46438 39.08531,39.02615 39.15844,39.02615 0.0731,0 17.69444,-17.56177 39.15845,-39.02615 z m -74.083573,-4.23335 -34.792079,-34.79283 34.858603,-34.8586 34.858599,-34.858607 34.85861,34.858607 34.8586,34.8586 -34.79208,34.79283 c -19.13564,19.13606 -34.85195,34.79284 -34.92513,34.79284 -0.0732,0 -15.789477,-15.65678 -34.925123,-34.79284 z M 148.0156,184.07948 181.74933,150.34497 147.94907,116.54471 114.1488,82.744447 80.348542,116.54471 46.548281,150.34497 80.282008,184.07948 c 18.553549,18.55397 33.793602,33.7345 33.866792,33.7345 0.0732,0 15.31325,-15.18053 33.8668,-33.7345 z m -35.25511,24.47258 c -3.35942,-0.58575 -5.02835,-3.1633 -5.04111,-7.78567 -0.0128,-4.62767 1.36033,-7.07017 4.48536,-7.97864 1.73923,-0.5056 4.35547,-0.38082 5.60925,0.26754 1.46296,0.75652 2.84832,2.89934 2.1525,3.32938 -0.57689,0.35654 -4.07442,0.59765 -4.17763,0.28801 -0.0519,-0.15558 -0.31056,-0.54996 -0.5749,-0.87639 -0.4105,-0.50695 -0.59068,-0.55481 -1.23529,-0.32812 -0.82508,0.29017 -1.25856,1.02364 -1.53718,2.601 l -0.18105,1.02498 0.90927,-0.56196 c 1.08952,-0.67337 3.5201,-0.76658 4.65713,-0.1786 1.87339,0.96877 3.16215,3.65662 2.76129,5.75898 -0.21361,1.1203 -0.95464,2.59757 -1.59221,3.17413 -1.2184,1.10181 -3.97043,1.66029 -6.23543,1.26536 z m 3.0931,-3.49695 c 0.48735,-0.69579 0.53737,-2.28665 0.10194,-3.24232 -0.65624,-1.44028 -2.78888,-1.15772 -3.31338,0.439 -0.37424,1.13927 -0.044,2.70263 0.65717,3.11141 0.82613,0.48161 2.10958,0.3268 2.55427,-0.30809 z M 95.450274,163.02773 c -3.442748,-0.34346 -5.980957,-1.93864 -7.430008,-4.66954 -1.07315,-2.02246 -1.502439,-4.3319 -1.310585,-7.0505 0.219573,-3.1114 0.99485,-4.9876 2.811706,-6.80446 2.125737,-2.12574 3.77108,-2.72234 7.561792,-2.74192 5.666531,-0.0293 8.847261,2.00884 10.230491,6.5554 0.45872,1.50776 0.53072,2.29847 0.4337,4.7625 -0.0992,2.52025 -0.22571,3.19703 -0.86047,4.60406 -1.2833,2.84464 -4.0259,4.9185 -6.935474,5.24437 -0.70441,0.0789 -1.578403,0.17628 -1.942205,0.21641 -0.363802,0.0401 -1.515327,-0.0122 -2.558947,-0.11632 z m 3.918191,-5.42524 c 1.285295,-0.66466 1.919355,-2.4075 1.918305,-5.27288 -0.001,-3.57756 -1.00961,-5.18198 -3.507647,-5.58143 -1.384292,-0.22136 -3.155238,0.60566 -3.866205,1.80549 -0.633712,1.06946 -0.892858,5.19787 -0.41682,6.64028 0.383784,1.16287 1.231411,2.26647 1.969979,2.56489 0.921766,0.37243 3.044275,0.28739 3.902388,-0.15635 z m 51.292835,5.42664 c -3.15107,-0.2848 -4.96336,-1.21207 -6.74232,-3.44977 -1.39338,-1.75269 -2.0815,-4.09415 -2.09172,-7.11746 -0.0249,-7.35627 4.16911,-11.27955 11.5193,-10.77575 2.64269,0.18113 5.06758,1.26883 6.30123,2.82645 0.99781,1.25983 1.99151,3.43824 1.68781,3.70004 -0.22121,0.19069 -5.44756,1.4028 -5.49187,1.27369 -0.2755,-0.80261 -1.02675,-1.77615 -1.74965,-2.26736 -1.67603,-1.13888 -3.96983,-0.44155 -5.15257,1.56642 -0.43426,0.73726 -0.52916,1.37423 -0.52916,3.55171 0,4.2091 0.98219,5.68105 3.79083,5.68105 1.67543,0 2.72784,-0.81097 3.4049,-2.62375 l 0.47718,-1.27762 2.69324,0.8262 c 1.48128,0.45442 2.76539,0.89985 2.85357,0.98985 0.39292,0.40102 -1.06364,3.3308 -2.31235,4.65112 -2.01304,2.1285 -4.47371,2.82341 -8.65842,2.44518 z m -77.787496,-7.9214 v -7.67292 h -3.175 -3.175 v -2.77812 -2.77813 h 9.657292 9.657291 v 2.77813 2.77812 h -3.175 -3.175 v 7.67292 7.67292 h -3.307291 -3.307292 z m 34.660416,7.55407 c 0,-0.0654 1.55443,-2.49535 3.45429,-5.39997 l 3.45429,-5.28112 -3.20395,-4.98493 -3.20396,-4.98493 3.49876,-0.0741 c 1.92431,-0.0408 3.58847,0.0188 3.69813,0.13229 0.10966,0.11354 0.87066,1.39705 1.69112,2.85226 0.82046,1.45521 1.58741,2.74286 1.70433,2.86144 0.11692,0.11858 0.96003,-1.16134 1.87359,-2.84427 l 1.66102,-3.05988 h 3.53411 c 1.94375,0 3.5341,0.0498 3.5341,0.11064 0,0.0608 -1.38744,2.29327 -3.0832,4.96093 -1.69576,2.66767 -3.08441,4.96937 -3.08589,5.11489 -0.002,0.14552 1.24096,2.16958 2.76096,4.49792 1.52,2.32833 3.03742,4.67982 3.37205,5.22552 l 0.60841,0.99219 h -3.66609 -3.66609 l -1.81401,-3.04845 c -0.99769,-1.67665 -1.88774,-3.09396 -1.97788,-3.14959 -0.0901,-0.0556 -0.99732,1.31378 -2.01596,3.04312 l -1.85209,3.14426 -3.63802,0.005 c -2.00091,0.003 -3.63802,-0.0481 -3.63802,-0.1135 z m 24.34167,-10.33219 v -10.45105 h 3.175 3.175 v 10.45105 10.45104 h -3.175 -3.175 z M 99.657718,133.24165 c -0.138809,-0.27017 -0.334053,-0.8484 -0.433875,-1.28496 -0.09982,-0.43656 -0.492585,-1.41811 -0.872804,-2.18121 -0.657636,-1.31988 -0.669079,-1.41203 -0.234911,-1.89178 0.360535,-0.39839 0.911307,-0.52512 2.622142,-0.60333 1.71955,-0.0786 2.46555,-0.25147 3.62095,-0.83901 0.80037,-0.407 1.55721,-0.83949 1.68187,-0.96108 0.34114,-0.33274 -0.0824,-2.84388 -0.58244,-3.45336 -0.24089,-0.29359 -1.70212,-1.05474 -3.2472,-1.69145 l -2.809227,-1.15765 -1.12227,0.50246 c -1.637102,0.73295 -2.851145,0.67093 -3.232071,-0.16511 -0.255233,-0.56017 -0.216955,-0.7855 0.237945,-1.40079 0.298157,-0.40327 0.627505,-1.3828 0.731886,-2.17671 0.268131,-2.03939 0.708728,-2.63411 1.951487,-2.63411 0.731755,0 1.175985,0.18082 1.629066,0.6631 0.498174,0.53029 2.786884,2.0293 3.766404,2.46684 0.10784,0.0482 0.12085,-0.28857 0.0289,-0.74831 -0.0919,-0.45974 -0.0141,-1.47384 0.17292,-2.25357 0.33342,-1.38987 0.32424,-1.44266 -0.46807,-2.6911 -1.04297,-1.64339 -1.38173,-2.94072 -1.38356,-5.29839 -0.002,-2.7446 0.68289,-4.37022 2.80933,-6.666983 3.3653,-3.634833 7.90529,-4.976724 13.10735,-3.874162 3.89916,0.826417 7.42648,3.437753 8.81104,6.522955 0.67404,1.50195 0.72037,1.82047 0.60703,4.17315 -0.0985,2.04445 -0.26616,2.86038 -0.84961,4.1346 -0.61667,1.34677 -0.73429,1.97864 -0.77561,4.16687 -0.0469,2.4814 -0.0283,2.57315 0.48941,2.4157 1.36539,-0.41527 2.19496,-0.90375 3.03743,-1.78852 1.31425,-1.38026 2.66007,-1.27782 2.66007,0.20247 0,0.94148 0.63398,2.01494 1.19002,2.01494 0.58826,0 0.73695,0.50338 0.39355,1.33241 -0.24678,0.59579 -0.53858,0.80606 -1.28226,0.92401 -2.2756,0.3609 -3.50024,0.76065 -6.05599,1.97683 -2.67274,1.27183 -2.71198,1.30383 -2.71198,2.21116 0,0.50635 -0.0621,1.08257 -0.13809,1.28048 -0.20176,0.52579 5.30629,2.85844 6.74959,2.85844 1.57187,0 2.11975,0.37015 2.11975,1.43212 0,0.48638 -0.17545,1.02994 -0.38988,1.2079 -0.21443,0.17796 -0.46013,0.75809 -0.54601,1.28917 -0.27726,1.71471 -0.5679,2.15623 -1.41939,2.15623 -0.43451,0 -1.11003,-0.27845 -1.52726,-0.62952 -0.41148,-0.34624 -2.04061,-1.34687 -3.62029,-2.22362 l -2.87215,-1.5941 -1.36095,1.0322 c -1.75229,1.329 -3.40164,1.86596 -5.70916,1.85867 -2.40853,-0.008 -3.59055,-0.34525 -5.19021,-1.48257 -0.71929,-0.5114 -1.52116,-0.92981 -1.78193,-0.92981 -0.77371,0 -4.68694,1.89613 -4.68694,2.27102 0,1.22125 -2.61284,2.5029 -3.114002,1.52748 z m 1.677552,-2.05924 c 0.22477,-0.89557 0.73038,-1.25534 3.15624,-2.24586 2.42135,-0.98868 2.58878,-1.10615 2.37406,-1.66569 -0.13124,-0.34201 -0.45822,-0.25405 -2.00442,0.53926 -1.39045,0.71339 -2.26177,0.97431 -3.52151,1.05453 l -1.6739,0.10658 0.35252,1.17133 c 0.56403,1.87413 1.01771,2.23234 1.31701,1.03985 z m 28.17167,-1.85295 c 0.14774,-0.15046 -0.44989,-0.47091 -1.53903,-0.82522 -0.97931,-0.31859 -2.57025,-0.94079 -3.53543,-1.38266 l -1.75486,-0.80342 -0.29006,0.63661 c -0.27851,0.61127 -0.19812,0.6834 2.01945,1.81202 1.27023,0.64648 2.84528,1.53917 3.50013,1.98376 l 1.19062,0.80834 0.0838,-0.99172 c 0.0461,-0.54545 0.19251,-1.10242 0.32535,-1.23771 z m -11.98992,0.50216 c 0.5446,-0.22755 1.27149,-0.67594 1.6153,-0.99641 0.76785,-0.71574 1.76716,-2.64542 2.01447,-3.88998 l 0.18401,-0.92604 -0.52211,0.82323 c -1.00823,1.58975 -2.81537,2.47334 -5.46926,2.67418 -4.03214,0.30513 -6.53469,-0.98219 -7.57048,-3.89429 l -0.5176,-1.45521 0.17163,1.19063 c 0.55194,3.82898 2.27121,6.17506 5.02966,6.86337 1.32657,0.33102 3.79417,0.14125 5.06438,-0.38948 z m -3.36822,-4.09264 c 0,-0.29104 -0.11906,-0.52917 -0.26458,-0.52917 -0.14552,0 -0.26458,0.23813 -0.26458,0.52917 0,0.29104 0.11906,0.52917 0.26458,0.52917 0.14552,0 0.26458,-0.23813 0.26458,-0.52917 z m 1.5875,0 c 0,-0.29398 -0.17639,-0.52917 -0.39687,-0.52917 -0.22049,0 -0.39688,0.23519 -0.39688,0.52917 0,0.29398 0.17639,0.52917 0.39688,0.52917 0.22048,0 0.39687,-0.23519 0.39687,-0.52917 z m -2.91041,-0.26458 c 0,-0.29104 -0.11907,-0.52917 -0.26459,-0.52917 -0.14552,0 -0.26458,0.23813 -0.26458,0.52917 0,0.29104 0.11906,0.52916 0.26458,0.52916 0.14552,0 0.26459,-0.23812 0.26459,-0.52916 z m 4.23333,-0.28459 c 0,-0.32912 -0.13168,-0.44202 -0.39687,-0.34026 -0.21829,0.0838 -0.39688,0.37394 -0.39688,0.64485 0,0.32912 0.13168,0.44202 0.39688,0.34026 0.21828,-0.0838 0.39687,-0.37394 0.39687,-0.64485 z m -5.63748,-0.43798 c -0.0671,-0.25743 -0.12638,-0.11087 -0.13177,0.32569 -0.005,0.43656 0.0495,0.64719 0.12197,0.46806 0.0725,-0.17913 0.0769,-0.53632 0.01,-0.79375 z m 6.34739,-0.12079 c -0.0845,-0.21107 -0.14716,-0.14838 -0.15985,0.15985 -0.0115,0.27891 0.051,0.43518 0.13896,0.34727 0.0879,-0.0879 0.0973,-0.31613 0.0209,-0.50712 z m -7.14926,-0.54571 c -0.0734,-0.1819 -0.13346,-0.0331 -0.13346,0.33073 0,0.36381 0.0601,0.51263 0.13346,0.33073 0.0734,-0.1819 0.0734,-0.47955 0,-0.66146 z m 3.52893,-0.59531 c 0,-0.3638 -0.11906,-0.66146 -0.26458,-0.66146 -0.14552,0 -0.26458,0.29766 -0.26458,0.66146 0,0.3638 0.11906,0.66146 0.26458,0.66146 0.14552,0 0.26458,-0.29766 0.26458,-0.66146 z m 1.5875,0 c 0,-0.41157 -0.14993,-0.66146 -0.39687,-0.66146 -0.24694,0 -0.39688,0.24989 -0.39688,0.66146 0,0.41158 0.14994,0.66146 0.39688,0.66146 0.24694,0 0.39687,-0.24988 0.39687,-0.66146 z m -2.91041,-0.13229 c 0,-0.29104 -0.11907,-0.52917 -0.26459,-0.52917 -0.14552,0 -0.26458,0.23813 -0.26458,0.52917 0,0.29104 0.11906,0.52917 0.26458,0.52917 0.14552,0 0.26459,-0.23813 0.26459,-0.52917 z m 3.96875,0 c 0,-0.29104 -0.11907,-0.52917 -0.26459,-0.52917 -0.14552,0 -0.26458,0.23813 -0.26458,0.52917 0,0.29104 0.11906,0.52917 0.26458,0.52917 0.14552,0 0.26459,-0.23813 0.26459,-0.52917 z m -5.26686,-0.87477 c -0.20947,-0.20947 -0.28939,-0.14082 -0.28939,0.24859 0,0.69949 0.37,1.07078 0.48783,0.48952 0.05,-0.24679 -0.0393,-0.57894 -0.19844,-0.73811 z m 6.23584,0.0149 c -0.0734,-0.1819 -0.13346,-0.0331 -0.13346,0.33073 0,0.3638 0.0601,0.51263 0.13346,0.33073 0.0734,-0.1819 0.0734,-0.47956 0,-0.66146 z m -7.13824,-0.24805 c -0.0845,-0.21106 -0.14716,-0.14837 -0.15985,0.15986 -0.0115,0.27891 0.051,0.43518 0.13896,0.34726 0.0879,-0.0879 0.0973,-0.31612 0.0209,-0.50712 z m 5.96578,-0.75666 c 0.61812,-0.17166 1.25226,-0.62174 1.69633,-1.20395 0.39006,-0.51138 1.51592,-1.45166 2.50193,-2.08951 0.98601,-0.63784 1.9614,-1.43485 2.16755,-1.77113 0.2998,-0.48907 0.35891,-1.74988 0.29534,-6.29997 -0.0437,-3.1287 -0.11559,-5.9862 -0.15972,-6.35 -0.13125,-1.08188 0.87631,-0.86962 1.45093,0.30566 0.4059,0.83022 0.43427,1.20475 0.20043,2.64583 -0.14982,0.9233 -0.26358,2.0359 -0.25281,2.47247 l 0.0196,0.79375 0.39034,-0.89494 c 0.21469,-0.49221 0.52118,-1.8019 0.68109,-2.91041 0.38903,-2.69686 -0.10251,-4.46655 -1.74564,-6.284825 -2.53246,-2.802416 -5.6389,-3.937132 -10.25745,-3.74684 -2.52449,0.104013 -3.01115,0.207892 -4.57062,0.975613 -2.1216,1.044461 -4.1198,3.008882 -5.10849,5.022142 -0.94603,1.9264 -0.99824,4.55956 -0.12658,6.38405 l 0.56883,1.19062 -0.14873,-1.22279 c -0.33129,-2.7237 -0.25081,-3.86991 0.32608,-4.64405 0.30646,-0.41126 0.73796,-0.78335 0.95889,-0.82687 0.60994,-0.12017 0.78016,0.68702 0.29956,1.4205 -0.37986,0.57975 -0.39012,0.93335 -0.0924,3.18316 0.22041,1.66525 0.26164,3.22481 0.12055,4.55947 -0.37751,3.57094 -0.33154,3.90505 0.68252,4.96004 0.50226,0.52254 1.27039,1.12694 1.70695,1.34311 0.43657,0.21617 1.27604,0.93057 1.8655,1.58756 0.68287,0.76108 1.4029,1.27248 1.98438,1.40938 1.32327,0.31155 3.40807,0.30785 4.5456,-0.008 z m -4.02055,-2.08675 c -0.3895,-0.7278 -0.33882,-2.52482 0.10089,-3.57719 0.84652,-2.02602 2.59286,-2.10672 3.58315,-0.16557 0.60241,1.18081 0.72951,3.43001 0.22249,3.93703 -0.17937,0.17937 -1.03863,0.3175 -1.97507,0.3175 -1.368,0 -1.70541,-0.0894 -1.93146,-0.51177 z m -4.71123,-3.36948 c -0.55315,-0.22256 -1.09913,-1.53874 -1.26157,-3.04127 -0.30158,-2.7894 1.29284,-4.19268 3.88226,-3.41687 2.10055,0.62934 3.1008,2.2759 2.31349,3.80835 -1.04814,2.04013 -3.36159,3.28252 -4.93418,2.64979 z m 10.64193,-0.19508 c -1.81414,-0.79019 -2.98095,-3.24564 -2.20187,-4.63366 0.88772,-1.58159 2.99539,-2.26552 4.91716,-1.59559 0.99508,0.34689 1.39915,1.20709 1.39788,2.97584 -0.002,2.80791 -1.8252,4.24999 -4.11317,3.25341 z m 11.10629,2.10673 c 1.27955,-0.2626 1.48558,-0.36868 1.01152,-0.52083 -0.44143,-0.14167 -0.59532,-0.39486 -0.59532,-0.97945 v -0.78839 l -0.99218,0.79183 c -0.54571,0.43551 -1.88516,1.10926 -2.97657,1.49722 -2.28584,0.81254 -2.91041,1.27289 -2.91041,2.14517 0,0.6111 0.0468,0.59961 2.42806,-0.59633 1.33543,-0.6707 3.15114,-1.36785 4.0349,-1.54922 z m -23.92546,1.98762 c 0,-0.55235 -0.83873,-1.21032 -2.51354,-1.97183 -0.58209,-0.26466 -2.04618,-1.12491 -3.253541,-1.91167 l -2.195203,-1.43046 0.173329,0.92392 c 0.130257,0.69433 0.03222,1.1631 -0.394539,1.88639 -0.5047,0.85541 -0.515244,0.93917 -0.09479,0.75301 0.260191,-0.11521 0.960467,-0.25925 1.556168,-0.3201 0.901203,-0.0921 1.523266,0.11318 3.704166,1.2221 1.44159,0.73301 2.71037,1.33883 2.81951,1.34627 0.10914,0.007 0.19844,-0.21649 0.19844,-0.49763 z"
         id="path442"
         inkscape:connector-curvature="0" />
      <path
         style="fill:#adacac;stroke-width:0.26458332"
         d="M 74.461193,189.90033 34.906538,150.34501 74.527672,110.72388 114.1488,71.102743 l 39.62114,39.621137 39.62113,39.62113 -39.55465,39.55532 c -21.75507,21.75542 -39.61449,39.55532 -39.68762,39.55532 -0.0731,0 -17.932547,-17.7999 -39.687607,-39.55532 z M 153.30725,189.37116 192.33273,150.34501 153.24077,111.25304 114.1488,72.161079 75.056841,111.25304 35.964877,150.34501 74.99036,189.37116 c 21.464013,21.46438 39.08531,39.02615 39.15844,39.02615 0.0731,0 17.69444,-17.56177 39.15845,-39.02615 z m -74.083573,-4.23335 -34.792079,-34.79283 34.858603,-34.8586 34.858599,-34.858607 34.85861,34.858607 34.8586,34.8586 -34.79208,34.79283 c -19.13564,19.13606 -34.85195,34.79284 -34.92513,34.79284 -0.0732,0 -15.789477,-15.65678 -34.925123,-34.79284 z M 148.0156,184.07948 181.74933,150.34497 147.94907,116.54471 114.1488,82.744447 80.348542,116.54471 46.548281,150.34497 80.282008,184.07948 c 18.553549,18.55397 33.793602,33.7345 33.866792,33.7345 0.0732,0 15.31325,-15.18053 33.8668,-33.7345 z m -34.39596,24.5596 c -3.51526,-0.49006 -5.28005,-2.35791 -5.81913,-6.15893 -0.31791,-2.24152 0.0233,-5.11977 0.78366,-6.61016 1.22389,-2.399 4.01564,-3.72966 6.99556,-3.33436 2.33857,0.31022 3.97248,1.48251 4.50255,3.23045 0.2066,0.68128 -0.0202,0.77328 -2.52457,1.02437 -1.7228,0.17272 -1.75319,0.16468 -1.92226,-0.50896 -0.30066,-1.19792 -2.13652,-1.17067 -2.77277,0.0412 -0.13196,0.25132 -0.32483,0.96939 -0.42861,1.59571 l -0.18868,1.13874 1.01393,-0.54343 c 1.18681,-0.63609 3.14086,-0.71536 4.4235,-0.17943 2.81922,1.17794 3.77364,5.27732 1.89441,8.13675 -0.98439,1.49783 -3.69348,2.48373 -5.95759,2.16809 z m 2.23395,-3.58397 c 0.60964,-0.87037 0.54155,-2.98646 -0.11729,-3.6453 -0.61922,-0.61922 -2.16454,-0.71221 -2.62455,-0.15793 -0.89824,1.08231 -0.78594,3.54379 0.18757,4.11132 0.82613,0.48161 2.10958,0.3268 2.55427,-0.30809 z M 95.395365,162.98486 c -5.383692,-0.54241 -8.763228,-4.56599 -8.763228,-10.43324 0,-3.50432 0.962898,-6.09627 3.040695,-8.18497 1.986233,-1.99666 3.674092,-2.57826 7.542639,-2.59906 2.697953,-0.0145 3.227239,0.0612 4.671289,0.66789 2.63021,1.10507 4.31056,2.82207 5.28101,5.39621 0.7585,2.01193 0.69524,7.37999 -0.11094,9.4137 -1.73234,4.37012 -5.72901,6.33717 -11.661465,5.73947 z m 4.090241,-5.46563 c 1.301824,-0.79385 1.787304,-2.14981 1.810694,-5.05733 0.0225,-2.8041 -0.44025,-4.15938 -1.746016,-5.1131 -1.022115,-0.74655 -3.03393,-0.86255 -4.186897,-0.24142 -1.469466,0.79163 -2.116976,2.3467 -2.11519,5.07985 0.0019,2.91552 0.321961,4.00797 1.469366,5.0154 0.806241,0.70789 1.128382,0.81539 2.440969,0.81453 1.012386,-5.3e-4 1.781477,-0.16523 2.327074,-0.49793 z m 51.034674,5.49316 c -2.5064,-0.2258 -4.33012,-1.05601 -5.82102,-2.6499 -2.31174,-2.47144 -3.31499,-6.08129 -2.77304,-9.97781 0.73538,-5.28713 3.91041,-8.29437 9.18428,-8.69891 2.13128,-0.16348 4.72679,0.25263 6.17077,0.98929 1.28237,0.65422 3.08231,2.66013 3.71827,4.14376 0.28764,0.67103 0.46837,1.27467 0.40163,1.34141 -0.0974,0.0974 -5.28215,1.39125 -5.5751,1.39125 -0.0442,0 -0.14838,-0.27119 -0.23157,-0.60264 -0.48824,-1.94531 -3.42713,-2.92909 -5.18347,-1.73514 -1.60325,1.08987 -1.99868,2.10204 -1.99868,5.1159 0,3.17141 0.38881,4.47165 1.54863,5.17887 1.00516,0.61291 3.05379,0.67446 4.11877,0.12373 0.66589,-0.34434 1.87322,-2.31062 1.87322,-3.05075 0,-0.39898 0.41964,-0.33327 3.175,0.49715 2.27108,0.68447 2.5051,0.81443 2.42604,1.34727 -0.31488,2.12218 -2.41245,4.85867 -4.46313,5.8226 -1.47098,0.69145 -4.04857,0.99113 -6.5706,0.76392 z m -77.470086,-0.40813 c -0.09701,-0.097 -0.17639,-3.54605 -0.17639,-7.66452 v -7.48813 l -3.108854,-0.0745 -3.108854,-0.0746 v -2.64583 -2.64584 h 9.525 9.525 v 2.64584 2.64583 l -3.108855,0.0746 -3.108854,0.0745 v 7.66452 7.66452 h -3.130902 c -1.721998,0 -3.210279,-0.0794 -3.307291,-0.17639 z m 34.805036,-0.41123 c 0.21558,-0.33165 1.79136,-2.77369 3.50174,-5.42675 l 3.10979,-4.82374 -3.06939,-4.76465 c -1.68817,-2.62055 -3.0694,-4.88495 -3.0694,-5.03198 0,-0.1663 1.29423,-0.26735 3.42419,-0.26735 h 3.4242 l 1.783,3.17466 1.78299,3.17465 1.53307,-2.80884 c 0.84319,-1.54487 1.66969,-2.97346 1.83666,-3.17466 0.37481,-0.4516 6.85339,-0.53976 6.85339,-0.0933 0,0.1499 -1.32953,2.38043 -2.95451,4.95673 -1.62498,2.5763 -2.95452,4.80607 -2.95452,4.95504 0,0.21438 2.85035,4.74107 6.37385,10.12244 l 0.38979,0.59532 h -3.67494 -3.67494 l -1.81401,-3.04845 c -0.99769,-1.67665 -1.89319,-3.0974 -1.98999,-3.15722 -0.0968,-0.0598 -1.01034,1.28221 -2.03009,2.9823 l -1.85411,3.09107 -3.65936,0.0738 -3.65936,0.0738 z m 24.02066,-9.86342 v -10.45105 h 3.175 3.175 v 10.45105 10.45104 h -3.175 -3.175 z M 99.744014,133.08844 c -0.226531,-0.32342 -0.411877,-0.77167 -0.411877,-0.99612 0,-0.22445 -0.366892,-1.16013 -0.815319,-2.07928 -0.778626,-1.59598 -0.794641,-1.69403 -0.355867,-2.17887 0.374981,-0.41435 0.828903,-0.50884 2.468969,-0.51394 1.72511,-0.005 2.25291,-0.12706 3.7293,-0.85989 0.97991,-0.4864 1.75646,-1.05216 1.80503,-1.31507 0.0469,-0.25378 -0.0477,-1.10179 -0.21019,-1.88448 l -0.29543,-1.42306 -1.77418,-0.81138 c -0.9758,-0.44626 -2.40386,-1.05683 -3.17347,-1.35683 l -1.399274,-0.54545 -1.037577,0.52933 c -1.093192,0.5577 -2.268746,0.67649 -2.877669,0.29079 -0.484902,-0.30715 -0.463036,-1.51879 0.03763,-2.08533 0.220789,-0.24984 0.485127,-1.1091 0.58742,-1.90946 0.10229,-0.80037 0.355992,-1.7231 0.563779,-2.05052 0.550334,-0.86719 1.953419,-0.80326 3.068368,0.1398 0.478013,0.40432 1.565733,1.18743 2.417173,1.74023 l 1.54806,1.00511 -0.18273,-1.08158 c -0.1073,-0.63506 -0.0448,-1.61989 0.15145,-2.3855 0.31815,-1.24137 0.30094,-1.35416 -0.35885,-2.35117 -1.15464,-1.74478 -1.58217,-3.46222 -1.47405,-5.92146 0.12395,-2.81914 0.80641,-4.26062 3.11834,-6.586404 2.90539,-2.922793 6.14392,-4.127419 10.33409,-3.843938 3.68,0.248966 6.30782,1.318601 8.77171,3.570454 2.20064,2.011258 2.95634,3.611328 3.0865,6.535168 0.0985,2.21179 0.0416,2.55802 -0.73934,4.49792 -0.72555,1.80243 -0.85342,2.46765 -0.898,4.67201 l -0.052,2.57033 0.67024,-0.16007 c 1.09821,-0.26227 1.93967,-0.77875 2.90497,-1.78302 1.35871,-1.41357 2.66007,-1.18967 2.66007,0.45768 0,0.53668 0.27238,1.02359 0.89544,1.60073 0.73579,0.68155 0.8551,0.93596 0.66919,1.4269 -0.26026,0.68727 -0.83652,0.95023 -2.92973,1.3369 -1.62792,0.30072 -5.57011,1.90726 -6.47296,2.6379 -0.36462,0.29507 -0.61697,0.88581 -0.71847,1.68186 l -0.15644,1.22704 2.83513,1.22268 c 1.92729,0.83116 3.20078,1.22194 3.97701,1.22036 1.5874,-0.003 2.16542,0.36385 2.16542,1.37521 0,0.45636 -0.18368,1.03272 -0.40819,1.28079 -0.2245,0.24807 -0.47873,0.91229 -0.56496,1.47604 -0.17796,1.16352 -0.74798,1.95105 -1.41219,1.95105 -0.24818,0 -0.91433,-0.31858 -1.48034,-0.70796 -0.56601,-0.38938 -2.26291,-1.40071 -3.77088,-2.24742 l -2.74177,-1.53945 -0.80168,0.67457 c -1.66097,1.39762 -3.36725,2.05095 -5.69081,2.179 -2.65599,0.14637 -4.21568,-0.24319 -5.79248,-1.4468 -0.63458,-0.48438 -1.39504,-0.88069 -1.68991,-0.88069 -0.29487,0 -1.43572,0.38683 -2.53523,0.85963 -1.6538,0.71115 -2.06186,1.00984 -2.36248,1.72931 -0.23914,0.57236 -0.68031,1.00211 -1.29044,1.25704 -1.16839,0.48819 -1.10216,0.49654 -1.590518,-0.20069 z m 1.796686,-2.2171 c 0.24996,-0.52419 0.65897,-1.00728 0.9089,-1.07355 1.02052,-0.27056 4.38882,-1.84001 4.46496,-2.08044 0.045,-0.14221 -0.0198,-0.41929 -0.14417,-0.6157 -0.18032,-0.28487 -0.44195,-0.21426 -1.29294,0.34889 -1.31776,0.87205 -3.22144,1.46344 -4.71083,1.46344 h -1.127246 l 0.271857,0.99219 c 0.329259,1.2017 0.691109,1.91823 0.968709,1.91823 0.11345,0 0.41079,-0.42888 0.66076,-0.95306 z m 27.9863,-1.59948 c 0.18499,-0.2229 0.0118,-0.36136 -0.61503,-0.49167 -0.4799,-0.0998 -1.96888,-0.64459 -3.30885,-1.21073 -3.07001,-1.29708 -2.99405,-1.28377 -3.26955,-0.57258 -0.21175,0.54662 -0.0605,0.68309 1.81136,1.63401 1.12333,0.57066 2.69726,1.45686 3.49762,1.96931 l 1.45521,0.93174 0.0859,-0.97489 c 0.0472,-0.5362 0.20174,-1.11453 0.34338,-1.28519 z m -11.68231,0.44009 c 1.28754,-0.65685 2.52402,-2.14966 3.04361,-3.67455 0.59197,-1.73735 0.49448,-2.14154 -0.25169,-1.04346 -1.44546,2.12719 -5.70388,3.17017 -9.01449,2.20786 -1.91389,-0.55632 -3.35202,-1.933 -3.95068,-3.78185 l -0.40567,-1.25285 0.1588,1.31252 c 0.40073,3.31223 2.13598,5.84482 4.53012,6.61168 1.62268,0.51975 4.48955,0.33511 5.89,-0.37935 z m -3.69589,-3.97297 c 0,-0.29104 -0.11906,-0.52917 -0.26458,-0.52917 -0.14552,0 -0.26458,0.23813 -0.26458,0.52917 0,0.29104 0.11906,0.52917 0.26458,0.52917 0.14552,0 0.26458,-0.23813 0.26458,-0.52917 z m 1.5875,0 c 0,-0.29398 -0.17639,-0.52917 -0.39687,-0.52917 -0.22049,0 -0.39688,0.23519 -0.39688,0.52917 0,0.29398 0.17639,0.52917 0.39688,0.52917 0.22048,0 0.39687,-0.23519 0.39687,-0.52917 z m -2.91041,-0.26458 c 0,-0.29104 -0.11907,-0.52917 -0.26459,-0.52917 -0.14552,0 -0.26458,0.23813 -0.26458,0.52917 0,0.29104 0.11906,0.52916 0.26458,0.52916 0.14552,0 0.26459,-0.23812 0.26459,-0.52916 z m 4.18541,-0.21786 c 0.0631,-0.42898 -0.0201,-0.53318 -0.33072,-0.41399 -0.49112,0.18846 -0.57339,1.25724 -0.0844,1.09619 0.1819,-0.0599 0.3687,-0.36689 0.4151,-0.6822 z m -5.58956,-0.50471 c -0.0671,-0.25743 -0.12638,-0.11087 -0.13177,0.32569 -0.005,0.43656 0.0495,0.64719 0.12197,0.46806 0.0725,-0.17913 0.0769,-0.53632 0.01,-0.79375 z m 6.34739,-0.12079 c -0.0845,-0.21107 -0.14716,-0.14838 -0.15985,0.15985 -0.0115,0.27891 0.051,0.43518 0.13896,0.34727 0.0879,-0.0879 0.0973,-0.31613 0.0209,-0.50712 z m -7.14926,-0.54571 c -0.0734,-0.1819 -0.13346,-0.0331 -0.13346,0.33073 0,0.36381 0.0601,0.51263 0.13346,0.33073 0.0734,-0.1819 0.0734,-0.47955 0,-0.66146 z m 3.52893,-0.59531 c 0,-0.3638 -0.11906,-0.66146 -0.26458,-0.66146 -0.14552,0 -0.26458,0.29766 -0.26458,0.66146 0,0.3638 0.11906,0.66146 0.26458,0.66146 0.14552,0 0.26458,-0.29766 0.26458,-0.66146 z m 1.5875,0 c 0,-0.41157 -0.14993,-0.66146 -0.39687,-0.66146 -0.24694,0 -0.39688,0.24989 -0.39688,0.66146 0,0.41158 0.14994,0.66146 0.39688,0.66146 0.24694,0 0.39687,-0.24988 0.39687,-0.66146 z m -5.90467,-0.1819 c -0.0845,-0.21107 -0.14716,-0.14837 -0.15985,0.15985 -0.0115,0.27892 0.051,0.43519 0.13896,0.34727 0.0879,-0.0879 0.0973,-0.31612 0.0209,-0.50712 z m 2.99426,0.0496 c 0,-0.29104 -0.11907,-0.52917 -0.26459,-0.52917 -0.14552,0 -0.26458,0.23813 -0.26458,0.52917 0,0.29104 0.11906,0.52917 0.26458,0.52917 0.14552,0 0.26459,-0.23813 0.26459,-0.52917 z m 3.96875,0 c 0,-0.29104 -0.11907,-0.52917 -0.26459,-0.52917 -0.14552,0 -0.26458,0.23813 -0.26458,0.52917 0,0.29104 0.11906,0.52917 0.26458,0.52917 0.14552,0 0.26459,-0.23813 0.26459,-0.52917 z m -5.26686,-0.87477 c -0.20947,-0.20947 -0.28939,-0.14082 -0.28939,0.24859 0,0.69949 0.37,1.07078 0.48783,0.48952 0.05,-0.24679 -0.0393,-0.57894 -0.19844,-0.73811 z m 6.23584,0.0149 c -0.0734,-0.1819 -0.13346,-0.0331 -0.13346,0.33073 0,0.3638 0.0601,0.51263 0.13346,0.33073 0.0734,-0.1819 0.0734,-0.47956 0,-0.66146 z m -7.13824,-0.24805 c -0.0845,-0.21106 -0.14716,-0.14837 -0.15985,0.15986 -0.0115,0.27891 0.051,0.43518 0.13896,0.34726 0.0879,-0.0879 0.0973,-0.31612 0.0209,-0.50712 z m 6.86604,-1.0053 c 0.31047,-0.19624 0.75951,-0.68694 0.99787,-1.09045 0.23836,-0.4035 1.13838,-1.16191 2.00006,-1.68535 2.92187,-1.77494 2.8416,-1.53341 2.78326,-8.37538 -0.0277,-3.25483 -0.13555,-6.11418 -0.23954,-6.35413 -0.33071,-0.763 0.39618,-0.85459 1.11082,-0.13996 0.75483,0.75483 0.81214,1.27204 0.48897,4.41268 -0.25366,2.46508 0.15447,2.07179 0.78838,-0.75971 0.79577,-3.55448 0.12481,-5.87238 -2.3639,-8.166399 -2.44725,-2.255794 -5.04231,-3.078043 -9.2696,-2.937079 -2.6479,0.0883 -3.12682,0.183335 -4.72972,0.938588 -2.11629,0.997154 -4.08621,2.865766 -5.13482,4.87075 -0.97635,1.86683 -1.04056,4.734 -0.14742,6.58302 l 0.57511,1.19062 -0.13749,-1.05833 c -0.32704,-2.51744 -0.22421,-4.09819 0.31344,-4.81832 0.28932,-0.38751 0.66756,-0.75174 0.84053,-0.8094 0.4869,-0.16229 0.68698,0.6989 0.32118,1.38241 -0.26217,0.48986 -0.2596,1.17746 0.0127,3.40548 0.27516,2.25147 0.27727,3.28027 0.0109,5.31654 -0.3033,2.31822 -0.29097,2.59195 0.15058,3.34496 0.2645,0.45106 1.25481,1.33584 2.2007,1.96617 0.94588,0.63034 1.98897,1.5106 2.31798,1.95615 0.329,0.44554 0.98385,0.92835 1.45521,1.0729 1.17212,0.35946 4.95761,0.19494 5.65484,-0.24576 z m -4.92081,-1.83811 c -0.42488,-0.7939 -0.31393,-2.41711 0.25016,-3.6599 0.89833,-1.97917 2.46621,-1.95067 3.4408,0.0626 0.64133,1.32482 0.69811,3.11251 0.11729,3.69333 -0.28391,0.28391 -0.9103,0.41577 -1.97506,0.41577 -1.27084,0 -1.60996,-0.0947 -1.83319,-0.51177 z m -5.11231,-3.9674 c -1.34272,-1.59574 -1.1452,-4.939 0.33709,-5.70552 1.05636,-0.54626 2.00798,-0.50011 3.37966,0.1639 1.33147,0.64456 2.08864,1.8863 1.815,2.97656 -0.21684,0.86394 -1.60005,2.45432 -2.57155,2.9567 -1.2027,0.62195 -2.22064,0.48727 -2.9602,-0.39164 z m 11.5853,0.58507 c -0.90777,-0.22053 -2.15468,-1.32594 -2.63322,-2.33439 -0.6562,-1.38284 -0.37151,-2.56773 0.83852,-3.4899 0.80634,-0.61452 1.21486,-0.73106 2.53384,-0.72283 1.38374,0.009 1.64816,0.0977 2.20262,0.74236 1.21732,1.41521 0.66392,4.75941 -0.92341,5.58025 -0.8165,0.42223 -1.08263,0.45184 -2.01835,0.22451 z m 10.79493,1.89706 c 1.19631,-0.173 1.23849,-0.20567 0.7276,-0.56351 -0.31184,-0.21843 -0.54233,-0.6742 -0.54233,-1.07244 v -0.69258 l -0.63858,0.59992 c -0.35122,0.32995 -1.86927,1.09836 -3.37344,1.70757 -2.60839,1.05644 -2.73866,1.14667 -2.81712,1.95121 l -0.0823,0.84355 2.72811,-1.29504 c 1.50046,-0.71227 3.29958,-1.37767 3.99804,-1.47868 z m -24.15639,2.03805 c 0,-0.66762 -0.58947,-1.12954 -2.91042,-2.28069 -1.09141,-0.54132 -2.52016,-1.36634 -3.174999,-1.83338 -1.842678,-1.31422 -1.772534,-1.31259 -1.744933,-0.0406 0.01778,0.81963 -0.151341,1.39733 -0.578093,1.97465 -0.689671,0.93301 -0.663623,0.96227 0.374552,0.42082 1.244436,-0.64901 2.252366,-0.4669 5.013483,0.90583 1.44294,0.71738 2.71283,1.31269 2.82197,1.32291 0.10914,0.0102 0.19844,-0.20108 0.19844,-0.46957 z"
         id="path440"
         inkscape:connector-curvature="0" />
      <path
         style="fill:#767475;stroke-width:0.26458332"
         d="M 74.461193,189.90033 34.906538,150.34501 74.527672,110.72388 114.1488,71.102743 l 39.62114,39.621137 39.62113,39.62113 -39.55465,39.55532 c -21.75507,21.75542 -39.61449,39.55532 -39.68762,39.55532 -0.0731,0 -17.932547,-17.7999 -39.687607,-39.55532 z m 78.978347,-0.39688 39.15778,-39.15844 -39.22426,-39.22426 -39.22426,-39.224255 -39.224253,39.224255 -39.224255,39.22426 39.157776,39.15844 c 21.536776,21.53715 39.217612,39.15845 39.290732,39.15845 0.0731,0 17.75396,-17.6213 39.29074,-39.15845 z m -74.215863,-4.36564 -34.792079,-34.79283 34.858603,-34.8586 34.858599,-34.858607 34.85861,34.858607 34.8586,34.8586 -34.79208,34.79283 c -19.13564,19.13606 -34.85195,34.79284 -34.92513,34.79284 -0.0732,0 -15.789477,-15.65678 -34.925123,-34.79284 z M 148.0156,184.07948 181.74933,150.34497 147.94907,116.54471 114.1488,82.744447 80.348542,116.54471 46.548281,150.34497 80.282008,184.07948 c 18.553549,18.55397 33.793602,33.7345 33.866792,33.7345 0.0732,0 15.31325,-15.18053 33.8668,-33.7345 z m -36.38034,24.07648 c -1.47023,-0.52008 -2.9131,-2.14543 -3.42008,-3.8526 -0.53599,-1.80487 -0.54015,-5.55572 -0.008,-7.34717 0.84173,-2.83441 3.06958,-4.36274 6.36245,-4.3647 2.51098,-0.002 4.08064,0.73779 5.03916,2.3734 0.37943,0.64744 0.63842,1.2286 0.57555,1.29148 -0.10832,0.10832 -3.44564,0.63913 -4.08848,0.65029 -0.16613,0.003 -0.3763,-0.29061 -0.46705,-0.65219 -0.17039,-0.67891 -1.14024,-1.11701 -1.86073,-0.84054 -0.63267,0.24278 -1.19312,1.3255 -1.37572,2.65775 l -0.17239,1.2577 1.00141,-0.67958 c 1.70332,-1.1559 4.57682,-0.7623 6.01071,0.82331 1.14764,1.26909 1.62968,4.11698 0.98544,5.82208 -0.40008,1.05892 -1.52946,2.18644 -2.76129,2.75676 -1.29077,0.59761 -4.27475,0.65093 -5.82083,0.10401 z m 3.93307,-2.7966 c 0.59695,-0.46956 0.69714,-0.75053 0.69714,-1.95506 0,-1.58241 -0.49582,-2.39957 -1.61641,-2.664 -1.01769,-0.24015 -2.08491,0.76929 -2.24677,2.12513 -0.14891,1.24731 0.29768,2.23449 1.22256,2.70246 0.89447,0.45258 1.13596,0.42667 1.94348,-0.20853 z M 93.532833,162.64079 c -1.831552,-0.51267 -2.859939,-1.1556 -4.235617,-2.64804 -3.435699,-3.72729 -3.50289,-10.99887 -0.139559,-15.10337 1.94092,-2.36864 6.224333,-3.65293 10.159254,-3.04604 5.178899,0.79876 8.060119,4.0461 8.413819,9.483 0.33655,5.17332 -1.44284,8.88417 -5.13059,10.69964 -1.59265,0.78406 -1.9817,0.86175 -4.685254,0.93559 -2.04784,0.0559 -3.386267,-0.042 -4.382053,-0.32078 z m 6.063888,-5.10426 c 1.265639,-0.9157 1.719789,-2.29073 1.719789,-5.20692 0,-3.01387 -0.39544,-4.02606 -1.998679,-5.1159 -0.748337,-0.5087 -1.162648,-0.59964 -2.31177,-0.50739 -2.737131,0.21973 -3.850114,1.83434 -3.858482,5.59752 -0.0071,3.19421 0.615944,4.69418 2.270537,5.46623 1.335673,0.62324 3.133273,0.52277 4.178605,-0.23354 z m 48.440509,4.94145 c -2.24842,-0.71176 -4.40965,-2.79525 -5.31442,-5.12324 -0.91085,-2.34365 -1.0515,-6.59191 -0.30015,-9.06557 1.33672,-4.40088 4.3944,-6.48372 9.56156,-6.51319 4.54483,-0.0259 7.19661,1.39888 8.76132,4.70746 0.41189,0.87094 0.71543,1.61699 0.67453,1.65788 -0.0409,0.0409 -1.29185,0.36209 -2.77989,0.71376 l -2.70553,0.6394 -0.49483,-0.96369 c -0.62322,-1.21375 -1.76468,-1.88973 -3.19102,-1.88973 -1.37263,0 -2.50728,0.64324 -3.24965,1.84225 -0.69358,1.12021 -0.95629,5.02878 -0.46141,6.86467 0.59852,2.22032 2.49553,3.28246 4.76912,2.67024 1.13084,-0.3045 2.17567,-1.53553 2.5264,-2.97664 0.0974,-0.40018 0.29439,-0.7276 0.43777,-0.7276 0.14338,0 1.43658,0.36532 2.87378,0.81183 l 2.6131,0.81182 -0.50893,1.33941 c -1.08922,2.86658 -2.84634,4.61933 -5.38733,5.37392 -1.93572,0.57485 -5.72682,0.49103 -7.82442,-0.17298 z m -74.96098,-7.42804 -0.07015,-7.74742 -3.241146,-0.0743 -3.241146,-0.0743 v -2.5054 -2.50539 h 9.657292 9.657291 v 2.51354 2.51354 H 82.667383 79.49638 l -0.07014,7.73906 -0.07014,7.73906 -3.104846,0.0745 -3.104843,0.0745 z m 34.6282,7.39998 c 0.11081,-0.1819 1.66565,-2.56809 3.4552,-5.30264 1.78956,-2.73455 3.25374,-5.06186 3.25374,-5.17181 0,-0.10995 -1.36922,-2.31898 -3.04271,-4.90897 -1.67349,-2.58998 -3.04271,-4.76074 -3.04271,-4.82389 0,-0.0632 1.57401,-0.0816 3.49779,-0.041 l 3.4978,0.0738 1.62227,2.84906 c 0.89226,1.56698 1.67476,2.90154 1.7389,2.96568 0.0641,0.0641 0.86269,-1.2477 1.77455,-2.9152 l 1.65793,-3.03183 h 3.42413 c 1.88327,0 3.42413,0.0484 3.42413,0.10758 0,0.0592 -1.36922,2.27294 -3.04271,4.9195 -1.67349,2.64656 -3.04271,4.85076 -3.04271,4.89824 0,0.0475 1.48829,2.38183 3.3073,5.18746 1.81901,2.80563 3.30729,5.1999 3.30729,5.32061 0,0.12071 -1.57758,0.18624 -3.50573,0.14564 l -3.50573,-0.0738 -1.85208,-3.09972 c -1.01865,-1.70485 -1.92607,-3.10384 -2.01648,-3.10886 -0.0904,-0.005 -1.01871,1.41963 -2.06288,3.16588 l -1.8985,3.175 h -3.57512 c -2.79116,0 -3.53095,-0.0725 -3.37367,-0.33073 z m 24.17144,-9.98802 v -10.31875 h 3.175 3.175 v 10.31875 10.31875 h -3.175 -3.175 z M 99.889546,133.31363 c -0.165624,-0.19956 -0.490837,-1.00164 -0.722694,-1.78238 -0.231857,-0.78074 -0.587174,-1.65599 -0.789593,-1.94498 -0.522251,-0.74562 -0.4557,-1.66509 0.143735,-1.9859 0.281474,-0.15064 1.323271,-0.27505 2.315106,-0.27647 1.37537,-0.002 2.14847,-0.16324 3.25768,-0.67954 2.30389,-1.07238 2.37065,-1.17511 1.98004,-3.04691 -0.19798,-0.94877 -0.53177,-1.73965 -0.82511,-1.95507 -0.27094,-0.19896 -1.68875,-0.85194 -3.1507,-1.45106 l -2.658092,-1.08931 -1.178369,0.53455 c -1.341044,0.60834 -2.38192,0.692 -2.845245,0.22867 -0.433779,-0.43378 -0.39964,-1.53445 0.06347,-2.04617 0.209534,-0.23154 0.505272,-1.19341 0.657199,-2.1375 0.170622,-1.06028 0.448924,-1.84298 0.727932,-2.04727 0.781116,-0.57191 1.859243,-0.38377 2.865959,0.50014 0.782686,0.68721 3.709966,2.60872 3.974186,2.60872 0.0415,0 -0.0507,-0.411 -0.20483,-0.91332 -0.21591,-0.7035 -0.18622,-1.24406 0.12923,-2.35296 l 0.40954,-1.43964 -0.77149,-1.15277 c -1.75332,-2.61984 -2.05815,-6.69972 -0.69895,-9.35486 1.44897,-2.830481 4.1667,-5.133332 7.3612,-6.237443 2.40719,-0.831996 6.26922,-0.849561 8.88102,-0.04039 3.55643,1.101827 6.70739,3.798056 7.80044,6.674713 0.82037,2.15903 0.60941,5.26872 -0.53557,7.89473 -0.73315,1.68147 -0.82336,2.1274 -0.6733,3.32843 0.0953,0.76276 0.0526,1.8238 -0.0948,2.35788 -0.30415,1.10156 -0.24415,1.13087 1.34215,0.6556 0.60481,-0.18121 1.54943,-0.81202 2.21974,-1.48233 0.92943,-0.92942 1.29546,-1.13461 1.79872,-1.0083 0.48951,0.12286 0.67209,0.39689 0.81058,1.21662 0.12577,0.74443 0.42392,1.24991 1.00588,1.70536 0.73802,0.57759 0.79905,0.72718 0.56645,1.38856 -0.23252,0.66117 -0.47439,0.78628 -2.23926,1.1583 -3.44786,0.72678 -7.66711,2.73554 -7.66711,3.65027 0,0.27499 -0.0709,0.85433 -0.15749,1.28741 -0.15606,0.78032 -0.13212,0.79854 2.65113,2.01745 1.89804,0.83124 3.17382,1.23002 3.93507,1.23002 2.07826,0 2.90937,1.27384 1.77337,2.71803 -0.29104,0.37 -0.52917,1.01441 -0.52917,1.43202 0,0.93502 -0.66497,1.93537 -1.28651,1.93537 -0.25452,0 -0.87285,-0.30326 -1.37406,-0.6739 -0.50122,-0.37064 -2.18422,-1.38387 -3.74002,-2.25162 l -2.82872,-1.57773 -1.5215,1.06582 c -1.82803,1.28054 -3.60623,1.85044 -5.76752,1.84845 -2.15743,-0.002 -3.25371,-0.34339 -5.1336,-1.59873 l -1.5829,-1.05702 -1.36024,0.53615 c -2.52924,0.99694 -3.36319,1.53548 -3.72305,2.40426 -0.21837,0.52721 -0.67289,0.97597 -1.22,1.20457 -1.06597,0.44539 -1.02151,0.44535 -1.389882,0.002 z m 1.618614,-2.37407 c 0.33396,-0.70032 0.74417,-1.00726 1.96723,-1.47199 0.84991,-0.32294 2.05375,-0.85116 2.6752,-1.17383 0.98713,-0.51254 1.08743,-0.64298 0.79375,-1.03221 -0.30866,-0.40908 -0.49659,-0.36539 -2.29742,0.53417 -1.62133,0.80988 -2.22896,0.97605 -3.50573,0.9587 -0.84946,-0.0115 -1.543805,0.0494 -1.542993,0.13545 0.0042,0.4409 0.617953,2.31635 0.852173,2.60382 0.41204,0.5057 0.59914,0.40769 1.05779,-0.55411 z m 27.80882,-0.005 c -0.0794,-0.48936 -0.0127,-1.13584 0.14829,-1.43662 0.27056,-0.50554 0.18244,-0.57891 -1.16621,-0.97097 -0.80238,-0.23326 -2.37714,-0.84258 -3.49947,-1.35404 -1.90195,-0.86674 -2.06345,-0.89867 -2.37694,-0.46995 -0.18499,0.25299 -0.33635,0.54664 -0.33635,0.65256 0,0.10592 1.0418,0.75784 2.31511,1.44871 1.27331,0.69086 2.90882,1.653 3.63449,2.13809 0.72566,0.48509 1.34325,0.88198 1.37242,0.88198 0.0292,0 -0.0119,-0.40039 -0.0913,-0.88976 z m -12.68159,-0.72248 c 2.65935,-0.73837 4.28433,-2.85295 4.7591,-6.19297 l 0.15044,-1.05833 -0.29737,0.86204 c -0.40763,1.18167 -2.31207,2.86983 -3.70134,3.281 -0.63165,0.18694 -2.16919,0.33628 -3.41674,0.33187 -3.65649,-0.0129 -5.30517,-1.0813 -6.35357,-4.11722 -0.4087,-1.18352 -0.4899,-1.2857 -0.4945,-0.62228 -0.0121,1.75498 1.07453,4.67261 2.20199,5.91212 1.48547,1.6331 4.56181,2.32294 7.15199,1.60377 z m -3.54492,-4.60547 c 0,-0.41158 -0.14993,-0.66146 -0.39687,-0.66146 -0.39685,0 -0.55333,0.81369 -0.22049,1.14653 0.35973,0.35973 0.61736,0.1573 0.61736,-0.48507 z m 1.32292,0.13229 c 0,-0.29398 -0.17639,-0.52917 -0.39688,-0.52917 -0.22048,0 -0.39687,0.23519 -0.39687,0.52917 0,0.29398 0.17639,0.52917 0.39687,0.52917 0.22049,0 0.39688,-0.23519 0.39688,-0.52917 z m 1.32291,0 c 0,-0.29398 -0.17639,-0.52917 -0.39687,-0.52917 -0.22049,0 -0.39688,0.23519 -0.39688,0.52917 0,0.29398 0.17639,0.52917 0.39688,0.52917 0.22048,0 0.39687,-0.23519 0.39687,-0.52917 z m 1.27904,-0.51321 c 0.0601,-0.41044 -0.0247,-0.56677 -0.26458,-0.48772 -0.19415,0.064 -0.39278,0.38816 -0.44141,0.72039 -0.0601,0.41044 0.0247,0.56677 0.26459,0.48772 0.19414,-0.064 0.39277,-0.38816 0.4414,-0.72039 z m -5.24779,-3.4e-4 c 0,-0.28245 -0.11906,-0.58714 -0.26458,-0.67707 -0.15006,-0.0928 -0.26458,0.12954 -0.26458,0.51355 0,0.37239 0.11906,0.67707 0.26458,0.67707 0.14552,0 0.26458,-0.2311 0.26458,-0.51355 z m -1.13956,-1.00277 c -0.0671,-0.25743 -0.12638,-0.11087 -0.13177,0.3257 -0.005,0.43656 0.0495,0.64718 0.12197,0.46805 0.0725,-0.17913 0.0769,-0.53632 0.01,-0.79375 z m 7.13563,0.12726 c -0.0734,-0.1819 -0.13346,-0.0331 -0.13346,0.33073 0,0.3638 0.0601,0.51263 0.13346,0.33073 0.0734,-0.18191 0.0734,-0.47956 0,-0.66146 z m -3.35023,-0.8599 c 0,-0.41157 -0.14993,-0.66146 -0.39688,-0.66146 -0.24694,0 -0.39687,0.24989 -0.39687,0.66146 0,0.41158 0.14993,0.66146 0.39687,0.66146 0.24695,0 0.39688,-0.24988 0.39688,-0.66146 z m 1.32291,0 c 0,-0.41157 -0.14993,-0.66146 -0.39687,-0.66146 -0.24694,0 -0.39688,0.24989 -0.39688,0.66146 0,0.41158 0.14994,0.66146 0.39688,0.66146 0.24694,0 0.39687,-0.24988 0.39687,-0.66146 z m -5.90467,-0.1819 c -0.0845,-0.21107 -0.14716,-0.14837 -0.15985,0.15985 -0.0115,0.27892 0.051,0.43519 0.13896,0.34727 0.0879,-0.0879 0.0973,-0.31612 0.0209,-0.50712 z m 3.25884,0.0779 c 0,-0.27548 -0.17859,-0.56939 -0.39687,-0.65316 -0.28673,-0.11002 -0.39688,0.029 -0.39688,0.50086 0,0.40419 0.15128,0.65316 0.39688,0.65316 0.21828,0 0.39687,-0.22539 0.39687,-0.50086 z m 3.92487,-0.27694 c 0.0601,-0.41044 -0.0247,-0.56677 -0.26458,-0.48772 -0.19415,0.064 -0.39278,0.38817 -0.44141,0.7204 -0.0601,0.41044 0.0247,0.56676 0.26459,0.48772 0.19414,-0.064 0.39277,-0.38817 0.4414,-0.7204 z m -5.48756,-0.62614 c -0.20947,-0.20947 -0.28939,-0.14082 -0.28939,0.24859 0,0.69949 0.37,1.07078 0.48783,0.48952 0.05,-0.24679 -0.0393,-0.57894 -0.19844,-0.73811 z m 6.23584,0.0149 c -0.0734,-0.1819 -0.13346,-0.0331 -0.13346,0.33073 0,0.3638 0.0601,0.51263 0.13346,0.33073 0.0734,-0.1819 0.0734,-0.47956 0,-0.66146 z m -7.14375,-0.52917 c -0.0734,-0.1819 -0.13346,-0.0331 -0.13346,0.33073 0,0.3638 0.0601,0.51263 0.13346,0.33073 0.0734,-0.1819 0.0734,-0.47956 0,-0.66146 z m -0.78824,-0.24804 c -0.0845,-0.21107 -0.14716,-0.14838 -0.15985,0.15985 -0.0115,0.27891 0.051,0.43518 0.13896,0.34726 0.0879,-0.0879 0.0973,-0.31612 0.0209,-0.50711 z m 7.35081,-0.32643 c 0.49498,-0.20681 1.07601,-0.71283 1.29118,-1.12448 0.21516,-0.41164 1.28197,-1.32793 2.37069,-2.03619 2.10373,-1.36857 2.66225,-2.06883 2.60206,-3.26241 -0.0206,-0.40783 -0.0492,-2.94417 -0.0636,-5.6363 -0.0144,-2.69214 -0.13092,-5.09065 -0.25891,-5.33003 -0.1544,-0.28881 -0.11013,-0.53695 0.13159,-0.73756 0.28607,-0.23742 0.48892,-0.14398 0.94484,0.43523 0.54471,0.69202 0.57022,0.91727 0.41314,3.64798 -0.18368,3.19327 0.076,3.31486 0.77212,0.36161 0.84151,-3.56975 0.26594,-6.17149 -1.82866,-8.266092 -3.54084,-3.540844 -9.97143,-4.572504 -14.67455,-2.354239 -1.817,0.857004 -4.19891,3.191991 -5.06687,4.967061 -0.87137,1.78202 -0.89245,4.96543 -0.0447,6.74687 l 0.5666,1.19063 -0.15843,-2.43543 c -0.17118,-2.63146 0.11437,-3.85138 1.01423,-4.33297 0.67173,-0.3595 0.94673,0.35679 0.47522,1.23781 -0.28647,0.53527 -0.28882,1.14076 -0.0132,3.39577 0.26862,2.19785 0.27002,3.2441 0.007,5.25395 -0.30519,2.33267 -0.29274,2.5705 0.17651,3.3735 0.27766,0.47514 1.10015,1.25339 1.82775,1.72945 1.33653,0.87446 1.88419,1.34681 2.98808,2.57716 0.33375,0.37199 0.86953,0.72726 1.19062,0.7895 1.40461,0.27224 4.49326,0.16182 5.33723,-0.19082 z m -4.52766,-2.15961 c -0.52084,-0.7949 -0.33597,-2.68714 0.38334,-3.92367 1.23828,-2.12866 3.75652,-0.31489 3.75652,2.70565 0,1.39217 -0.57318,1.85267 -2.31891,1.86306 -1.19397,0.007 -1.45401,-0.085 -1.82095,-0.64504 z m -5.02921,-3.65017 c -0.64607,-0.55573 -0.74439,-0.85058 -0.83841,-2.51434 -0.1201,-2.12557 0.26392,-3.0355 1.47547,-3.49613 1.56351,-0.59445 4.18942,0.70127 4.67256,2.30561 0.49013,1.62753 -2.04214,4.33443 -4.0548,4.33443 -0.2876,0 -0.85227,-0.2833 -1.25482,-0.62956 z m 9.96549,-0.59012 c -2.11133,-1.90746 -1.95408,-3.99353 0.38646,-5.12656 0.91835,-0.44457 1.44383,-0.53796 2.25542,-0.40085 1.54556,0.26112 2.14584,0.86165 2.3091,2.31002 0.17733,1.57332 -0.0242,2.34601 -0.87605,3.35835 -0.57421,0.68241 -0.87378,0.81414 -1.8514,0.81414 -0.96809,0 -1.34604,-0.16234 -2.22353,-0.9551 z m -11.83448,4.47927 c -0.0643,-0.17176 -1.08962,-0.81379 -2.27849,-1.42673 -1.18887,-0.61294 -2.91408,-1.63512 -3.833808,-2.27152 -1.704983,-1.17976 -2.403782,-1.29707 -1.878377,-0.31535 0.228446,0.42686 0.155596,0.80289 -0.355701,1.83603 -0.694764,1.40386 -0.668205,1.47552 0.334433,0.90236 1.098688,-0.62807 1.907546,-0.46023 4.920823,1.02105 2.4361,1.19756 2.90954,1.35176 3.04621,0.99219 0.089,-0.23416 0.10921,-0.56627 0.0449,-0.73803 z m 20.32446,-0.0846 c 1.48788,-0.7276 2.95391,-1.32454 3.25785,-1.32653 0.30394,-0.002 0.82537,-0.0767 1.15872,-0.16597 l 0.6061,-0.16236 -0.56633,-0.39667 c -0.43536,-0.30494 -0.53117,-0.57249 -0.41428,-1.15695 0.0836,-0.41815 0.1081,-0.76027 0.0544,-0.76027 -0.0537,0 -0.4732,0.35078 -0.93215,0.7795 -0.45896,0.42873 -1.51335,1.02664 -2.34309,1.32868 -2.78597,1.01417 -3.54255,1.42727 -3.78582,2.06713 -0.21133,0.55584 -0.13128,1.11636 0.15944,1.11636 0.055,0 1.31733,-0.59532 2.8052,-1.32292 z"
         id="path438"
         inkscape:connector-curvature="0" />
      <path
         style="fill:#5d5d5d;stroke-width:0.26458332"
         d="M 74.593485,189.76804 35.171123,150.34501 74.659964,110.85617 114.1488,71.367327 l 39.48884,39.488843 39.48884,39.48884 -39.42236,39.42303 c -21.6823,21.68266 -39.48219,39.42302 -39.55532,39.42302 -0.0731,0 -17.873016,-17.74036 -39.555315,-39.42302 z m 78.846055,-0.26459 39.15778,-39.15844 -39.22426,-39.22426 -39.22426,-39.224255 -39.224253,39.224255 -39.224255,39.22426 39.157776,39.15844 c 21.536776,21.53715 39.217612,39.15845 39.290732,39.15845 0.0731,0 17.75396,-17.6213 39.29074,-39.15845 z m -74.215863,-4.36564 -34.792079,-34.79283 34.858603,-34.8586 34.858599,-34.858607 34.85861,34.858607 34.8586,34.8586 -34.79208,34.79283 c -19.13564,19.13606 -34.85195,34.79284 -34.92513,34.79284 -0.0732,0 -15.789477,-15.65678 -34.925123,-34.79284 z M 148.0156,184.07948 181.74933,150.34497 147.94907,116.54471 114.1488,82.744447 80.348542,116.54471 46.548281,150.34497 80.282008,184.07948 c 18.553549,18.55397 33.793602,33.7345 33.866792,33.7345 0.0732,0 15.31325,-15.18053 33.8668,-33.7345 z m -36.05531,24.12302 c -2.60885,-0.81149 -3.89783,-2.92803 -4.10254,-6.73651 -0.31686,-5.89474 1.8847,-8.78743 6.68793,-8.78743 2.67431,0 4.09148,0.6286 5.03082,2.23148 0.36175,0.61727 0.65772,1.18945 0.65772,1.27152 0,0.0821 -0.74414,0.229 -1.65365,0.32652 -0.9095,0.0975 -1.85302,0.23345 -2.09671,0.30206 -0.29412,0.0828 -0.56159,-0.12373 -0.79559,-0.61435 -0.25269,-0.5298 -0.57914,-0.76136 -1.15276,-0.8177 -1.16217,-0.11415 -1.94697,0.82872 -2.15553,2.58969 l -0.1661,1.40245 0.8182,-0.60491 c 1.21853,-0.9009 3.1506,-1.01046 4.68872,-0.26587 4.07429,1.97233 3.49904,8.56511 -0.85279,9.77362 -1.29015,0.35828 -3.63752,0.32453 -4.90772,-0.0706 z m 3.69511,-2.93366 c 0.64451,-0.55467 0.7397,-0.82155 0.72218,-2.02464 -0.017,-1.16765 -0.13384,-1.48352 -0.74235,-2.00695 -0.95713,-0.82328 -1.62952,-0.78338 -2.56511,0.15221 -0.60656,0.60656 -0.7734,1.01049 -0.7734,1.87244 0,0.86195 0.16684,1.26588 0.7734,1.87243 0.94067,0.94067 1.60821,0.9754 2.58528,0.13451 z M 93.908179,162.68865 c -5.138042,-1.33615 -7.654195,-5.75659 -6.96074,-12.22882 0.390556,-3.64521 2.091557,-6.18913 5.136702,-7.68216 1.378115,-0.6757 1.902056,-0.77564 4.505683,-0.85945 4.343646,-0.13983 6.761426,0.69008 8.810966,3.02439 1.21327,1.38183 1.83122,2.89127 2.18922,5.34753 0.83219,5.70961 -1.51719,10.55432 -5.87662,12.11834 -1.58264,0.56779 -6.078593,0.72918 -7.805211,0.28017 z m 5.642105,-5.12424 c 1.249366,-0.9312 1.722946,-2.08053 1.849306,-4.4881 0.14514,-2.76516 -0.24978,-4.25627 -1.430299,-5.40047 -0.757584,-0.73428 -1.131112,-0.88476 -2.420149,-0.97495 -1.27091,-0.0889 -1.678234,-0.003 -2.450338,0.51556 -1.489157,1.00059 -1.982274,2.30471 -1.983407,5.24545 -7.93e-4,2.19528 0.08279,2.66096 0.66049,3.67785 0.873083,1.53682 2.110685,2.21077 3.790022,2.06391 0.708284,-0.0619 1.591582,-0.34648 1.984375,-0.63925 z m 49.631126,5.22418 c -3.50005,-0.74581 -5.92462,-3.17642 -6.87708,-6.89424 -0.53099,-2.07267 -0.39346,-6.36663 0.26248,-8.19495 0.74434,-2.07474 2.21939,-3.73113 4.24111,-4.7625 1.71525,-0.87503 1.98434,-0.93099 4.88484,-1.01582 2.65974,-0.0778 3.27734,-0.0117 4.62556,0.49498 2.00776,0.75455 3.38465,2.01781 4.38816,4.02602 0.44218,0.88488 0.77005,1.64279 0.7286,1.68424 -0.11182,0.11181 -4.89126,1.16058 -5.28901,1.16058 -0.18792,0 -0.47427,-0.3513 -0.63633,-0.78066 -0.64846,-1.71796 -3.51589,-2.43366 -5.32684,-1.32955 -1.36578,0.83269 -1.89123,2.3011 -1.89123,5.28521 0,3.82379 0.93105,5.41365 3.3612,5.7396 1.96316,0.26331 3.77054,-1.09289 4.21115,-3.15992 0.0853,-0.40018 0.23424,-0.7276 0.33098,-0.7276 0.0967,0 1.33201,0.36138 2.74505,0.80308 2.9692,0.92812 2.97676,0.94257 1.76303,3.37146 -1.55635,3.11454 -3.69859,4.33941 -7.79282,4.45569 -1.45521,0.0413 -3.13319,-0.0287 -3.72885,-0.15562 z m -76.043023,-7.81315 v -7.80521 h -3.175 -3.175 v -2.51354 -2.51354 h 9.525 9.525 v 2.50539 2.5054 l -3.241146,0.0743 -3.241145,0.0743 -0.07014,7.73906 -0.07014,7.73907 H 76.1771 73.138387 Z m 34.735443,7.46216 c 0.0724,-0.18867 1.57342,-2.55949 3.3356,-5.26849 1.76217,-2.709 3.20396,-5.05027 3.20396,-5.20283 0,-0.15256 -1.28587,-2.27635 -2.85749,-4.71953 -1.57161,-2.44318 -2.95003,-4.59449 -3.06315,-4.7807 -0.16385,-0.2697 0.50544,-0.32351 3.2913,-0.26458 l 3.49698,0.074 1.57169,2.77812 c 0.86443,1.52797 1.66774,2.87774 1.78514,2.99949 0.1174,0.12175 0.94932,-1.15817 1.84871,-2.84427 l 1.63526,-3.06563 h 3.43743 c 2.67895,0 3.39384,0.073 3.23985,0.33073 -0.10868,0.1819 -1.49391,2.39433 -3.07829,4.91652 -1.58439,2.52219 -2.82665,4.72665 -2.76059,4.89881 0.0661,0.17215 1.5159,2.44635 3.22185,5.05377 1.70596,2.60742 3.16328,4.90112 3.23849,5.09711 0.11127,0.28996 -0.51919,0.34256 -3.38389,0.28231 l -3.52063,-0.074 -1.96584,-3.26483 -1.96584,-3.26484 -1.98515,3.33098 -1.98514,3.33099 h -3.43595 c -2.70583,0 -3.40797,-0.0729 -3.3043,-0.34305 z m 24.00206,-9.9757 v -10.31875 h 3.175 3.175 v 10.31875 10.31875 h -3.175 -3.175 z M 99.590172,132.73321 c -0.14192,-0.37327 -0.258035,-0.83179 -0.258035,-1.01892 0,-0.18714 -0.297656,-0.90006 -0.661458,-1.58428 -1.20872,-2.27329 -0.764376,-2.83888 2.171201,-2.76367 1.54698,0.0396 2.03728,-0.0729 3.51734,-0.80765 0.94589,-0.46954 1.80673,-0.93895 1.91299,-1.04313 0.10626,-0.10419 0.0524,-0.94636 -0.11962,-1.8715 -0.36503,-1.96284 -0.46796,-2.04903 -4.29352,-3.59509 l -2.489182,-1.00598 -1.324695,0.56987 c -1.502243,0.64625 -2.170826,0.71043 -2.628889,0.25237 -0.465352,-0.46535 -0.385442,-1.29444 0.211667,-2.19604 0.289123,-0.43656 0.526465,-1.23463 0.527423,-1.77349 0.0024,-1.32477 0.491741,-2.30764 1.242864,-2.49616 0.63958,-0.16052 2.198463,0.33759 2.198463,0.70249 0,0.19447 3.751379,2.64112 4.049559,2.64112 0.0776,0 0.0244,-0.42262 -0.11819,-0.93916 -0.19233,-0.69656 -0.15638,-1.29032 0.13919,-2.29859 l 0.39851,-1.35944 -0.89521,-1.47172 c -1.05756,-1.73862 -1.59316,-4.17895 -1.37695,-6.27377 0.42367,-4.10494 4.59364,-8.346296 9.19995,-9.35742 2.12534,-0.466531 6.60953,-0.224552 8.482,0.457712 1.77648,0.647284 4.37813,2.362379 5.36798,3.538754 0.3914,0.465153 1.03247,1.453834 1.42459,2.197074 0.63304,1.1999 0.71161,1.63305 0.701,3.86489 -0.0106,2.2327 -0.1067,2.73098 -0.85998,4.45967 -0.72951,1.67414 -0.83938,2.21031 -0.78614,3.83646 0.034,1.03968 -0.0335,2.15822 -0.15004,2.48564 -0.24589,0.69071 -0.0294,0.73524 1.50418,0.30942 0.60361,-0.16761 1.50501,-0.76897 2.2113,-1.47527 1.50202,-1.50201 2.29918,-1.45649 2.55542,0.14594 0.11447,0.71583 0.42609,1.25668 1.00448,1.74336 0.73222,0.61612 0.80711,0.7953 0.59072,1.4132 -0.16391,0.46803 -0.46997,0.73498 -0.90394,0.78842 -1.6918,0.20834 -3.99988,0.95888 -6.35394,2.06616 -2.46191,1.15801 -2.5827,1.25419 -2.73549,2.17811 -0.28623,1.73085 -0.23902,1.81991 1.35569,2.55765 2.93927,1.35977 4.1784,1.77876 5.39726,1.82503 2.01101,0.0763 2.65163,1.1262 1.54805,2.53704 -0.28457,0.36381 -0.52005,1.02192 -0.52328,1.46249 -0.009,1.23173 -0.70554,2.05763 -1.55709,1.84638 -0.38376,-0.0952 -0.93588,-0.39141 -1.22692,-0.65823 -0.29104,-0.26683 -1.86641,-1.22227 -3.50081,-2.1232 l -2.97164,-1.63806 -1.26169,0.92323 c -1.77692,1.30025 -3.09417,1.79302 -5.24359,1.96157 -2.35935,0.18502 -4.33491,-0.35648 -6.03414,-1.65394 -1.1877,-0.90688 -1.28876,-0.93549 -2.22862,-0.63103 -1.81573,0.5882 -3.98571,1.81529 -4.15536,2.34979 -0.23286,0.73367 -1.40441,1.60059 -2.16305,1.60059 -0.43531,0 -0.712722,-0.21146 -0.890358,-0.67869 z m 1.987438,-1.79013 c 0.35875,-0.75601 0.77622,-1.026 2.93616,-1.89892 1.38487,-0.55969 2.56767,-1.09805 2.62843,-1.19637 0.0608,-0.0983 -0.0369,-0.38035 -0.21707,-0.62673 -0.30093,-0.41155 -0.47388,-0.3717 -2.12742,0.49019 -1.52037,0.79247 -2.06579,0.93815 -3.51241,0.93815 h -1.712559 l 0.17398,0.99218 c 0.189987,1.0835 0.777519,2.18282 1.166599,2.18282 0.13534,0 0.43427,-0.3966 0.66429,-0.88132 z m 27.75989,-0.14046 c -0.1165,-0.72855 -0.0512,-1.12656 0.22752,-1.38693 0.33748,-0.31526 0.11527,-0.45907 -1.62567,-1.05213 -1.10913,-0.37783 -2.76097,-1.02346 -3.67078,-1.43474 -0.9098,-0.41128 -1.7038,-0.69817 -1.76443,-0.63754 -0.0606,0.0606 -0.1851,0.40852 -0.2766,0.77307 -0.15332,0.61087 -0.007,0.74159 1.86427,1.66761 1.11685,0.55263 2.75352,1.4745 3.63705,2.04861 0.88352,0.5741 1.64367,1.04383 1.68922,1.04383 0.0455,0 0.009,-0.4598 -0.0806,-1.02178 z M 116.77335,130.243 c 2.3221,-0.66597 3.88223,-2.63266 4.64057,-5.84986 0.5456,-2.31465 0.49494,-2.79461 -0.10929,-1.03541 -0.6045,1.75997 -2.10849,3.21698 -3.81347,3.69435 -1.70081,0.4762 -5.85362,0.26219 -7.13628,-0.36775 -1.2918,-0.63444 -2.20842,-2.02193 -2.84343,-4.30414 l -0.501,-1.80058 0.14535,1.67679 c 0.34236,3.94953 2.05088,6.96875 4.41767,7.80672 1.30336,0.46146 3.90435,0.55143 5.19988,0.17988 z m -2.40771,-4.4586 c 0.0636,-0.43187 -0.0515,-0.57459 -0.46302,-0.57459 -0.35458,0 -0.54757,0.17096 -0.54757,0.48507 0,1.00585 0.86449,1.08243 1.01059,0.0895 z m 1.37066,-0.19771 c 0,-0.44672 -0.11314,-0.58144 -0.39687,-0.47256 -0.21828,0.0838 -0.39688,0.43348 -0.39688,0.77714 0,0.44672 0.11315,0.58144 0.39688,0.47256 0.21828,-0.0838 0.39687,-0.43348 0.39687,-0.77714 z m -2.64583,0.0483 c 0,-0.72568 -0.73612,-1.1478 -0.96436,-0.55302 -0.21395,0.55754 0.0824,1.18617 0.55918,1.18617 0.25097,0 0.40518,-0.24098 0.40518,-0.63315 z m 3.92487,-0.40923 c 0.0601,-0.41044 -0.0247,-0.56677 -0.26458,-0.48772 -0.19415,0.064 -0.39278,0.38816 -0.44141,0.72039 -0.0601,0.41044 0.0247,0.56677 0.26459,0.48772 0.19414,-0.064 0.39277,-0.38816 0.4414,-0.72039 z m -5.24779,-0.14825 c 0,-0.3638 -0.11906,-0.66146 -0.26458,-0.66146 -0.14552,0 -0.26458,0.29766 -0.26458,0.66146 0,0.3638 0.11906,0.66146 0.26458,0.66146 0.14552,0 0.26458,-0.29766 0.26458,-0.66146 z m 6.35,-0.41249 c 0,-0.28245 -0.11906,-0.51355 -0.26458,-0.51355 -0.14552,0 -0.26458,0.30468 -0.26458,0.67707 0,0.38401 0.11452,0.6063 0.26458,0.51356 0.14552,-0.0899 0.26458,-0.39463 0.26458,-0.67708 z m -7.48956,-0.44237 c -0.0671,-0.25743 -0.12638,-0.11087 -0.13177,0.3257 -0.005,0.43656 0.0495,0.64718 0.12197,0.46805 0.0725,-0.17913 0.0769,-0.53632 0.01,-0.79375 z m -0.80187,-0.93108 c -0.0734,-0.1819 -0.13346,-0.0331 -0.13346,0.33073 0,0.36381 0.0601,0.51263 0.13346,0.33073 0.0734,-0.1819 0.0734,-0.47955 0,-0.66146 z m 3.21578,0.1323 c -0.0495,-0.42984 -0.24466,-0.72761 -0.47697,-0.72761 -0.51414,0 -0.68781,0.92968 -0.2281,1.22102 0.61086,0.38711 0.79181,0.26048 0.70507,-0.49341 z m 1.37149,0.0661 c 0,-0.48507 -0.14111,-0.66146 -0.52917,-0.66146 -0.38806,0 -0.52917,0.17639 -0.52917,0.66146 0,0.48507 0.14111,0.66146 0.52917,0.66146 0.38806,0 0.52917,-0.17639 0.52917,-0.66146 z m 1.32291,0 c 0,-0.41157 -0.14993,-0.66146 -0.39687,-0.66146 -0.24694,0 -0.39688,0.24989 -0.39688,0.66146 0,0.41158 0.14994,0.66146 0.39688,0.66146 0.24694,0 0.39687,-0.24988 0.39687,-0.66146 z m 1.32292,-0.26458 c 0,-0.41158 -0.14993,-0.66146 -0.39687,-0.66146 -0.24695,0 -0.39688,0.24988 -0.39688,0.66146 0,0.41157 0.14993,0.66146 0.39688,0.66146 0.24694,0 0.39687,-0.24989 0.39687,-0.66146 z m -5.29167,-0.26458 c 0,-0.36381 -0.11906,-0.66146 -0.26458,-0.66146 -0.29558,0 -0.36266,0.87205 -0.0882,1.14652 0.29166,0.29166 0.35277,0.20763 0.35277,-0.48506 z m 6.08542,-0.1323 c 0,-0.29104 -0.11906,-0.52916 -0.26458,-0.52916 -0.14552,0 -0.26459,0.23812 -0.26459,0.52916 0,0.29105 0.11907,0.52917 0.26459,0.52917 0.14552,0 0.26458,-0.23812 0.26458,-0.52917 z m -7.22498,-0.72257 c -0.0671,-0.25743 -0.12638,-0.11086 -0.13177,0.3257 -0.005,0.43656 0.0495,0.64719 0.12197,0.46805 0.0725,-0.17913 0.0769,-0.53631 0.01,-0.79375 z m 8.01873,0.17779 c 0,-0.29963 -0.11906,-0.4712 -0.26458,-0.38126 -0.14552,0.0899 -0.26459,0.33509 -0.26459,0.54478 0,0.2097 0.11907,0.38126 0.26459,0.38126 0.14552,0 0.26458,-0.24515 0.26458,-0.54478 z m -8.57557,-0.71065 c -0.28903,-0.28903 -0.48722,0.17062 -0.27971,0.64871 0.19676,0.45333 0.21103,0.45292 0.32066,-0.009 0.0631,-0.26605 0.0447,-0.55378 -0.0409,-0.63941 z m 7.25003,-0.19842 c 0.42067,-0.21754 0.96123,-0.72355 1.20124,-1.12448 0.24002,-0.40093 1.30284,-1.28972 2.36182,-1.97511 2.65589,-1.7189 2.91435,-2.3056 2.51792,-5.71561 -0.21904,-1.88406 -0.22309,-3.14557 -0.0149,-4.64224 0.20934,-1.50511 0.20556,-2.37398 -0.0141,-3.2464 -0.39134,-1.55417 -0.003,-2.02346 0.81426,-0.98431 0.54572,0.69376 0.57152,0.91987 0.41727,3.65689 -0.17803,3.15908 0.0549,3.31162 0.78378,0.51327 1.06465,-4.08746 0.0535,-7.23309 -3.05967,-9.518358 -5.03839,-3.698515 -12.71677,-3.170125 -16.66926,1.147101 -2.032,2.219517 -2.7062,3.852877 -2.57157,6.230067 0.069,1.21832 0.31325,2.32646 0.68111,3.09012 l 0.57354,1.19062 -0.15528,-2.67277 -0.15528,-2.67277 0.80618,-0.8991 c 0.72388,-0.80733 0.82565,-0.84883 0.99697,-0.40659 0.11277,0.2911 0.0233,0.778 -0.21878,1.19062 -0.32063,0.5465 -0.36071,1.00433 -0.18455,2.1081 0.33877,2.12274 0.38523,4.40928 0.1436,7.06714 -0.2137,2.35058 -0.20528,2.40616 0.48893,3.23119 0.38851,0.46171 1.39294,1.25654 2.23208,1.76629 0.83914,0.50975 1.66585,1.23439 1.83713,1.61031 0.17128,0.37592 0.69829,0.85164 1.17113,1.05716 1.18409,0.51465 5.02043,0.51393 6.01647,-0.001 z m -4.67754,-2.15713 c -0.7881,-1.2028 0.19741,-4.45201 1.44533,-4.76522 0.90872,-0.22807 1.40559,0.12597 2.11035,1.50371 0.69045,1.34975 0.76149,2.54875 0.19865,3.35232 -0.3269,0.46672 -0.65556,0.56398 -1.86888,0.55308 -1.25135,-0.0112 -1.53422,-0.10785 -1.88545,-0.64389 z m -4.52586,-3.27782 c -1.35129,-0.5489 -1.89966,-4.28203 -0.82894,-5.64322 0.46161,-0.58684 0.7574,-0.69714 1.86948,-0.69714 2.94486,0 4.45157,1.94976 3.27097,4.23279 -0.81343,1.57301 -2.99827,2.64101 -4.31151,2.10757 z m 9.3035,-1.14617 c -1.01805,-1.01805 -1.15481,-1.29399 -1.1474,-2.31511 0.009,-1.26491 0.27867,-1.74916 1.36786,-2.45799 0.72234,-0.47009 2.60395,-0.62106 3.64042,-0.2921 1.13068,0.35886 1.68404,2.61504 1.0511,4.28555 -0.51542,1.36035 -1.28111,1.93546 -2.57685,1.93546 -1.03967,0 -1.31618,-0.13687 -2.33513,-1.15581 z m -11.47456,5.28924 c 0,-0.77032 -0.13547,-0.88133 -2.76243,-2.26371 -1.15553,-0.60808 -2.84284,-1.6242 -3.749574,-2.25805 -0.906729,-0.63385 -1.70231,-1.09875 -1.767956,-1.0331 -0.06565,0.0656 -0.06416,0.62068 0.0033,1.23341 0.09719,0.88281 -0.01429,1.31455 -0.537022,2.07995 l -0.659675,0.96588 1.177859,-0.52102 c 1.492925,-0.66039 2.137992,-0.52592 5.385078,1.12258 1.38245,0.70184 2.60284,1.28217 2.71198,1.2896 0.10914,0.007 0.19844,-0.26955 0.19844,-0.61554 z m 20.13432,-0.69385 c 1.79338,-0.877 3.0423,-1.32292 3.70526,-1.32292 1.17317,0 1.53915,-0.38033 0.76477,-0.79476 -0.45345,-0.24268 -0.51865,-0.45774 -0.38507,-1.27005 0.15907,-0.96733 0.1556,-0.97192 -0.32142,-0.42522 -0.794,0.90998 -1.9548,1.57174 -4.13344,2.35642 -1.14168,0.41119 -2.23514,0.98802 -2.4474,1.29107 -0.43228,0.61717 -0.51177,1.48838 -0.1358,1.48838 0.13633,0 1.46523,-0.59532 2.9531,-1.32292 z"
         id="path436"
         inkscape:connector-curvature="0" />
      <path
         style="fill:#333333;stroke-width:0.26458332"
         d="M 74.593485,189.76804 35.171123,150.34501 74.659964,110.85617 114.1488,71.367327 l 39.48884,39.488843 39.48884,39.48884 -39.42236,39.42303 c -21.6823,21.68266 -39.48219,39.42302 -39.55532,39.42302 -0.0731,0 -17.873016,-17.74036 -39.555315,-39.42302 z m 78.846055,-0.26459 39.15778,-39.15844 -39.22426,-39.22426 -39.22426,-39.224255 -39.224253,39.224255 -39.224255,39.22426 39.157776,39.15844 c 21.536776,21.53715 39.217612,39.15845 39.290732,39.15845 0.0731,0 17.75396,-17.6213 39.29074,-39.15845 z m -74.215863,-4.36564 -34.792079,-34.79283 34.858603,-34.8586 34.858599,-34.858607 34.85861,34.858607 34.8586,34.8586 -34.79208,34.79283 c -19.13564,19.13606 -34.85195,34.79284 -34.92513,34.79284 -0.0732,0 -15.789477,-15.65678 -34.925123,-34.79284 z m 68.924213,-0.92604 33.86602,-33.8668 -33.93255,-33.93255 -33.93256,-33.932557 -33.932549,33.932557 -33.932556,33.93255 33.866021,33.8668 c 18.626312,18.62674 33.925904,33.86679 33.999084,33.86679 0.0732,0 15.37278,-15.24005 33.99909,-33.86679 z m -36.11575,24.03092 c -1.47057,-0.41788 -2.65182,-1.49334 -3.4054,-3.10041 -0.62481,-1.33244 -0.69564,-1.79334 -0.69564,-4.52622 0,-2.73287 0.0708,-3.19377 0.69564,-4.52621 0.73402,-1.56537 1.85971,-2.60157 3.37873,-3.11016 1.15545,-0.38686 3.92234,-0.38744 5.08042,-0.001 1.12709,0.37604 2.51343,1.66179 2.85822,2.65085 0.23591,0.67673 0.20351,0.75551 -0.31897,0.77557 -0.31985,0.0123 -1.27068,0.10835 -2.11295,0.21349 -1.46437,0.18279 -1.54553,0.16169 -1.8541,-0.48211 -0.35419,-0.73901 -0.9365,-0.94676 -1.94452,-0.69376 -0.7762,0.19482 -1.41685,1.52145 -1.41685,2.93395 v 0.95256 l 0.75546,-0.53793 c 2.35155,-1.67445 6.06812,-0.41365 7.08932,2.40495 0.72882,2.01162 0.16991,4.6364 -1.26897,5.95936 -1.35675,1.24744 -4.51172,1.74886 -6.84039,1.08713 z m 3.43579,-2.59751 c 0.65941,-0.35291 1.15347,-1.94572 0.9462,-3.05052 -0.28753,-1.5327 -2.02043,-2.4545 -3.082,-1.63945 -1.27708,0.98051 -1.4059,3.03524 -0.26201,4.17912 0.80175,0.80176 1.55456,0.96214 2.39781,0.51085 z M 94.31704,162.7738 c -2.991533,-0.63107 -5.289939,-2.46501 -6.583466,-5.25307 -0.583163,-1.25694 -0.705625,-1.94612 -0.79166,-4.45522 -0.08547,-2.49281 -0.009,-3.27365 0.477306,-4.87477 0.502441,-1.65417 0.79774,-2.12516 2.231128,-3.55855 1.433859,-1.43386 1.904103,-1.7286 3.560601,-2.23175 2.712265,-0.82382 6.910151,-0.68241 9.031601,0.30425 3.79486,1.76493 5.41623,4.6489 5.41114,9.62491 -0.005,5.28102 -1.87318,8.4366 -5.9403,10.03607 -1.39704,0.54941 -5.621599,0.78252 -7.39635,0.40813 z m 4.697507,-4.86281 c 1.878603,-0.97743 2.569543,-2.81302 2.384673,-6.33524 -0.19051,-3.62964 -1.583268,-5.1281 -4.538564,-4.88302 -2.452954,0.20341 -3.560402,1.61135 -3.804322,4.83655 -0.249563,3.29977 0.620345,5.59514 2.416906,6.37737 1.071356,0.46647 2.649397,0.4684 3.541307,0.004 z m 49.896143,4.76071 c -4.12004,-0.99987 -6.60777,-4.38955 -6.91058,-9.41605 -0.30786,-5.11032 1.53705,-8.8509 5.19873,-10.54051 1.18653,-0.54751 1.9954,-0.70369 4.1007,-0.79181 3.10951,-0.13014 4.93056,0.22247 6.59264,1.27653 1.24574,0.79003 2.92079,3.00811 3.22646,4.27245 0.16677,0.68982 0.13735,0.70623 -2.25374,1.25677 -1.3325,0.3068 -2.52974,0.55782 -2.66054,0.55782 -0.13079,0 -0.42523,-0.36246 -0.65432,-0.80545 -0.90846,-1.75679 -3.56735,-2.40207 -5.36976,-1.30317 -1.47992,0.90228 -1.97445,2.44396 -1.85967,5.79747 0.10726,3.13371 0.40258,3.88127 1.89205,4.78946 2.13012,1.29881 4.98816,0.0387 5.61974,-2.47768 0.0985,-0.39268 0.26277,-0.76562 0.36491,-0.82875 0.18126,-0.11202 5.01061,1.31778 5.24598,1.55316 0.22152,0.22152 -0.52033,2.13306 -1.32203,3.40649 -0.99311,1.57748 -2.6039,2.70797 -4.59889,3.22759 -1.81499,0.47275 -4.72296,0.48404 -6.61168,0.0257 z m -75.772303,-7.69626 v -7.80521 h -3.175 -3.175 v -2.51354 -2.51354 h 9.525 9.525 v 2.51354 2.51354 h -3.307291 -3.307292 v 7.80521 7.80521 h -3.042708 -3.042709 z m 34.660413,7.6261 c 0,-0.0985 1.48829,-2.46102 3.3073,-5.25001 1.81901,-2.78899 3.30729,-5.20911 3.30729,-5.37805 0,-0.24709 -2.61568,-4.44704 -5.66908,-9.10273 l -0.4772,-0.7276 h 3.45505 3.45505 l 1.46698,2.59089 c 2.31623,4.0908 1.93177,4.04181 3.85586,0.49134 l 1.67034,-3.08223 h 3.41316 c 2.66157,0 3.36879,0.0728 3.2117,0.33073 -0.1108,0.1819 -1.44028,2.28901 -2.95439,4.68247 -1.51412,2.39346 -2.81214,4.50602 -2.88449,4.69456 -0.0724,0.18854 1.36916,2.66325 3.20336,5.49935 1.8342,2.8361 3.33491,5.21816 3.33491,5.29346 0,0.0753 -1.54022,0.13693 -3.4227,0.13693 h -3.4227 l -1.77812,-2.97657 c -0.97797,-1.63711 -1.89442,-3.12696 -2.03656,-3.31078 -0.18799,-0.24312 -0.80345,0.56816 -2.25809,2.97657 l -1.99967,3.31078 h -3.389 c -1.86395,0 -3.389,-0.0806 -3.389,-0.17911 z m 24.07709,-10.13964 v -10.31875 h 3.175 3.175 v 10.31875 10.31875 h -3.175 -3.175 z M 99.590172,132.73321 c -0.14192,-0.37327 -0.258035,-0.83179 -0.258035,-1.01892 0,-0.18714 -0.297656,-0.90006 -0.661458,-1.58428 -1.212958,-2.28126 -0.771988,-2.83468 2.187641,-2.74547 1.60041,0.0482 2.05491,-0.0551 3.61003,-0.82067 0.97852,-0.48172 1.83538,-1.02246 1.90414,-1.20165 0.0688,-0.17919 -0.0287,-1.03093 -0.21652,-1.89275 l -0.34154,-1.56695 -2.24896,-1.1028 c -3.649662,-1.78965 -3.939349,-1.84777 -5.658492,-1.13522 -1.220081,0.50569 -1.585003,0.55772 -2.139569,0.30504 -0.784022,-0.35722 -0.86374,-1.09511 -0.223825,-2.07175 0.244629,-0.37335 0.533459,-1.3323 0.641843,-2.13099 0.335092,-2.4693 1.55653,-3.12612 3.203649,-1.72274 1.097124,0.93477 4.440974,3.00834 4.440974,2.75391 0,-0.10484 -0.11653,-0.59693 -0.25895,-1.09354 -0.19204,-0.66961 -0.15347,-1.26578 0.14926,-2.30716 l 0.40822,-1.40423 -0.8119,-1.18007 c -1.10332,-1.60361 -1.70923,-4.07351 -1.51351,-6.16951 0.37876,-4.05598 3.86148,-7.957393 8.33861,-9.341055 2.07655,-0.641761 5.86708,-0.695385 8.09707,-0.114547 3.49436,0.910165 6.74069,3.393556 8.02856,6.141732 0.61377,1.30971 0.71211,1.85632 0.70241,3.90418 -0.01,2.10082 -0.11226,2.60696 -0.86874,4.29782 -0.72945,1.63045 -0.84867,2.18345 -0.79857,3.70417 0.0324,0.98318 -0.031,2.16711 -0.14084,2.63096 l -0.19974,0.84338 1.00958,-0.27725 c 1.51627,-0.41639 2.29918,-0.88642 3.21627,-1.93094 0.67257,-0.76601 0.95608,-0.91371 1.49448,-0.77858 0.48256,0.12111 0.66446,0.34359 0.66446,0.81268 0,0.91339 0.69191,2.13915 1.32001,2.33851 0.5798,0.18402 0.67661,0.69168 0.275,1.4421 -0.1809,0.338 -0.71012,0.53524 -1.78594,0.66561 -1.45152,0.17589 -6.54601,2.12831 -7.55369,2.89488 -0.32661,0.24846 -0.48695,0.77932 -0.52917,1.75206 l -0.0606,1.39559 2.64583,1.19001 c 1.45521,0.65451 3.12208,1.21579 3.70417,1.24729 0.58208,0.0315 1.2625,0.0734 1.51204,0.0932 0.24954,0.0197 0.59258,0.29533 0.76231,0.61247 0.25272,0.47221 0.20875,0.7716 -0.24285,1.65364 -0.3033,0.59237 -0.62169,1.52207 -0.70755,2.06601 -0.27888,1.7668 -1.21919,1.82643 -3.43984,0.21815 -0.58165,-0.42125 -2.15082,-1.34144 -3.48704,-2.04485 l -2.4295,-1.27894 -0.74629,0.71264 c -1.08644,1.03747 -3.5931,2.0979 -5.33169,2.25555 -2.27706,0.20647 -4.24974,-0.30654 -6.00106,-1.56063 -1.43688,-1.02893 -1.55009,-1.06414 -2.47116,-0.76865 -1.88646,0.6052 -3.87467,1.74444 -4.19513,2.4038 -0.77674,1.59817 -2.53001,2.13029 -2.994418,0.90881 z m 3.411968,-3.01832 c 0.52811,-0.18732 1.70505,-0.67514 2.61542,-1.08403 1.59436,-0.71611 1.64417,-0.76768 1.3549,-1.40254 l -0.3003,-0.6591 -1.05441,0.66561 c -1.55896,0.98413 -2.99079,1.41457 -4.70548,1.41457 h -1.528343 l 0.372451,1.23756 c 0.204849,0.68066 0.576962,1.46354 0.826912,1.73973 0.44068,0.48696 0.46967,0.47076 0.95655,-0.53451 0.36442,-0.75243 0.76539,-1.13009 1.4623,-1.37729 z m 26.3663,1.08724 c -0.12442,-0.73644 -0.0624,-1.13263 0.22197,-1.41696 0.34986,-0.34985 0.13394,-0.48447 -1.90106,-1.18519 -1.26267,-0.43478 -2.91817,-1.06981 -3.6789,-1.41118 -0.76073,-0.34137 -1.43566,-0.56816 -1.49985,-0.50398 -0.0642,0.0642 -0.19289,0.42026 -0.28601,0.79127 -0.15313,0.61015 -0.037,0.73644 1.21572,1.32238 0.76176,0.35629 2.40585,1.27215 3.65353,2.03525 1.24768,0.7631 2.30874,1.38818 2.35791,1.38906 0.0492,8e-4 0.0117,-0.45841 -0.0833,-1.02065 z m -11.56002,-0.98946 c 0.76025,-0.37885 1.68123,-1.08077 2.04663,-1.55984 0.87021,-1.14091 1.61447,-3.31405 1.81239,-5.29197 l 0.15886,-1.5875 -0.40507,1.4552 c -0.91591,3.29037 -2.86571,4.49356 -7.28662,4.49644 -3.944,0.003 -5.5761,-1.24393 -6.59774,-5.039 l -0.53059,-1.97098 0.13843,1.77993 c 0.30828,3.96382 1.83602,6.82444 4.22597,7.91291 1.67935,0.76483 4.69469,0.67341 6.43774,-0.19519 z m -3.39503,-3.9414 c 0,-0.48507 -0.14111,-0.66146 -0.52917,-0.66146 -0.51624,0 -0.74755,0.75176 -0.35278,1.14653 0.40166,0.40166 0.88195,0.1375 0.88195,-0.48507 z m 1.32291,-0.28458 c 0,-0.44672 -0.11314,-0.58144 -0.39687,-0.47256 -0.21828,0.0838 -0.39688,0.43348 -0.39688,0.77714 0,0.44672 0.11315,0.58144 0.39688,0.47256 0.21828,-0.0838 0.39687,-0.43348 0.39687,-0.77714 z m -2.64583,0.02 c 0,-0.3638 -0.0498,-0.66146 -0.11065,-0.66146 -0.0609,0 -0.29899,-0.0723 -0.52917,-0.1606 -0.31117,-0.11941 -0.41851,0.005 -0.41851,0.48507 0,0.72824 0.19094,0.99845 0.70555,0.99845 0.19991,0 0.35278,-0.28663 0.35278,-0.66146 z m 3.96875,-0.28663 c 0,-0.82887 -0.62137,-0.73815 -0.74601,0.10892 -0.0561,0.38158 0.055,0.57458 0.33073,0.57458 0.27015,0 0.41528,-0.23887 0.41528,-0.6835 z m -5.29167,-0.22692 c 0,-0.35522 -0.11906,-0.71943 -0.26458,-0.80937 -0.15436,-0.0954 -0.26458,0.17364 -0.26458,0.64584 0,0.44516 0.11906,0.80937 0.26458,0.80937 0.14552,0 0.26458,-0.29063 0.26458,-0.64584 z m 6.35,-0.42811 c 0,-0.28245 -0.11906,-0.51355 -0.26458,-0.51355 -0.14552,0 -0.26458,0.30468 -0.26458,0.67707 0,0.38401 0.11452,0.6063 0.26458,0.51356 0.14552,-0.0899 0.26458,-0.39463 0.26458,-0.67708 z m -7.49053,-0.71199 c -0.0666,-0.25466 -0.121,-0.0463 -0.121,0.46302 0,0.50933 0.0544,0.71769 0.121,0.46302 0.0665,-0.25466 0.0665,-0.67138 0,-0.92604 z m 7.93035,-0.13229 c -0.0734,-0.1819 -0.13346,-0.0331 -0.13346,0.33073 0,0.3638 0.0601,0.51263 0.13346,0.33073 0.0734,-0.1819 0.0734,-0.47956 0,-0.66146 z m -4.14398,-0.19844 c 0,-0.61736 -0.11759,-0.79375 -0.52917,-0.79375 -0.95766,0 -0.64869,1.46352 0.33073,1.56661 0.10914,0.0115 0.19844,-0.33629 0.19844,-0.77286 z m -4.58727,-0.33073 c -0.0734,-0.1819 -0.13346,-0.0331 -0.13346,0.33073 0,0.36381 0.0601,0.51263 0.13346,0.33073 0.0734,-0.1819 0.0734,-0.47955 0,-0.66146 z m 3.21578,0.13456 c -0.11187,-0.96924 -1.00976,-1.18456 -1.00976,-0.24215 0,0.59537 0.27123,0.88798 0.87747,0.9466 0.1188,0.0115 0.17833,-0.30551 0.13229,-0.70445 z m 2.6944,0.0639 c 0,-0.41157 -0.14993,-0.66146 -0.39687,-0.66146 -0.24694,0 -0.39688,0.24989 -0.39688,0.66146 0,0.41158 0.14994,0.66146 0.39688,0.66146 0.24694,0 0.39687,-0.24988 0.39687,-0.66146 z m 1.32292,-0.29289 c 0,-0.38641 -0.15466,-0.63315 -0.39687,-0.63315 -0.26366,0 -0.39688,0.26366 -0.39688,0.78545 0,0.58947 0.099,0.74744 0.39688,0.63315 0.21828,-0.0838 0.39687,-0.43722 0.39687,-0.78545 z m 2.03282,0.11099 c -0.0845,-0.21107 -0.14715,-0.14837 -0.15985,0.15985 -0.0115,0.27892 0.051,0.43519 0.13897,0.34727 0.0879,-0.0879 0.0973,-0.31612 0.0209,-0.50712 z m -7.32449,-0.34726 c 0,-0.36381 -0.11906,-0.66146 -0.26458,-0.66146 -0.14552,0 -0.26458,0.29765 -0.26458,0.66146 0,0.3638 0.11906,0.66145 0.26458,0.66145 0.14552,0 0.26458,-0.29765 0.26458,-0.66145 z m 6.08542,-0.14791 c 0,-0.28246 -0.11906,-0.51355 -0.26458,-0.51355 -0.14552,0 -0.26459,0.30468 -0.26459,0.67707 0,0.38401 0.11453,0.60629 0.26459,0.51355 0.14552,-0.0899 0.26458,-0.39462 0.26458,-0.67707 z m -7.22498,-0.70696 c -0.0671,-0.25743 -0.12638,-0.11086 -0.13177,0.3257 -0.005,0.43656 0.0495,0.64719 0.12197,0.46805 0.0725,-0.17913 0.0769,-0.53631 0.01,-0.79375 z m 8.01873,0.16218 c 0,-0.29104 -0.11906,-0.45559 -0.26458,-0.36565 -0.14552,0.0899 -0.26459,0.40165 -0.26459,0.69269 0,0.29104 0.11907,0.45558 0.26459,0.36565 0.14552,-0.0899 0.26458,-0.40165 0.26458,-0.69269 z m -8.70644,-0.84354 c -0.20947,-0.20948 -0.28939,-0.14082 -0.28939,0.24859 0,0.69949 0.37,1.07077 0.48783,0.48952 0.05,-0.2468 -0.0393,-0.57895 -0.19844,-0.73811 z m 8.53639,-1.03608 c 0.60285,-0.68716 1.83362,-1.72209 2.73505,-2.29984 2.37123,-1.51978 2.60004,-2.08727 2.21637,-5.4969 -0.22682,-2.01576 -0.23182,-3.28918 -0.019,-4.8434 0.21907,-1.59999 0.21128,-2.36707 -0.0323,-3.18002 -0.40107,-1.33867 -0.0374,-1.8638 0.71338,-1.03019 0.45088,0.5006 0.50199,0.92107 0.44303,3.64427 -0.0714,3.29713 0.15684,3.48331 0.89084,0.72677 0.60546,-2.27378 0.47838,-4.86047 -0.31722,-6.45703 -2.53578,-5.088659 -10.89335,-7.219934 -16.57331,-4.226384 -1.91057,1.006936 -4.00225,3.202604 -4.88241,5.125134 -0.59216,1.29344 -0.66404,1.74416 -0.55919,3.50643 0.0815,1.36928 0.30219,2.36393 0.68361,3.08055 l 0.5633,1.05833 -0.0559,-2.81968 c -0.0525,-2.64889 -0.0175,-2.86074 0.57783,-3.49757 0.34857,-0.37284 0.73553,-0.61501 0.85989,-0.53814 0.35129,0.2171 0.26693,0.9478 -0.16446,1.42449 -0.31588,0.34904 -0.34303,0.73257 -0.14195,2.00521 0.35583,2.2519 0.40155,4.3984 0.15227,7.14771 l -0.21753,2.39911 0.85572,0.97462 c 0.47065,0.53604 1.4268,1.29563 2.12477,1.68798 0.69797,0.39235 1.4729,1.05847 1.72207,1.48028 0.71211,1.2055 1.74978,1.52327 4.72102,1.44572 l 2.60807,-0.0681 1.0961,-1.24939 z m -5.44832,-0.76449 c -1.48399,-0.83049 -0.20183,-5.26216 1.52244,-5.26216 1.49295,0 2.86125,3.55243 1.88339,4.88973 -0.40042,0.5476 -2.65272,0.79389 -3.40583,0.37243 z m -4.91057,-3.68156 c -0.82005,-0.33681 -1.37731,-1.78062 -1.37731,-3.56851 0,-1.89547 0.74522,-2.77459 2.352,-2.77459 2.16183,0 3.73342,1.09219 3.73342,2.59457 0,2.22485 -2.86468,4.50566 -4.70811,3.74853 z m 10.39665,-0.24697 c -1.13515,-0.47262 -2.05481,-1.78741 -2.18293,-3.12081 -0.11619,-1.20917 -0.068,-1.3313 0.84061,-2.12904 0.80376,-0.70572 1.1792,-0.84628 2.26034,-0.84628 1.87697,0 2.54898,0.33574 2.91957,1.45864 0.75522,2.28834 -0.55088,4.91035 -2.42818,4.87458 -0.48413,-0.009 -1.11837,-0.11591 -1.40941,-0.23709 z m -12.56771,4.37292 c 0,-0.73864 -0.64366,-1.24923 -3.175,-2.51859 -0.94588,-0.47433 -2.4546,-1.37515 -3.352699,-2.00183 -0.898099,-0.62668 -1.689433,-1.08289 -1.758521,-1.0138 -0.06909,0.0691 -0.06272,0.59454 0.01416,1.16767 0.111609,0.8321 -0.0013,1.2552 -0.560335,2.09998 -0.749942,1.13324 -0.651517,1.31733 0.334918,0.62641 1.128773,-0.79063 2.377445,-0.58482 5.341907,0.88047 1.51728,0.74996 2.848,1.37247 2.95714,1.38335 0.10914,0.0109 0.19843,-0.26976 0.19843,-0.62366 z m 19.95987,-0.58673 c 1.59249,-0.7699 3.03879,-1.27767 3.86556,-1.35711 0.72656,-0.0698 1.3851,-0.23061 1.46341,-0.35732 0.0783,-0.12672 0.0248,-0.23039 -0.11891,-0.23039 -0.61906,0 -1.07346,-0.82524 -0.91618,-1.66389 l 0.15934,-0.84965 -0.89561,0.83027 c -1.02633,0.95147 -1.91368,1.42551 -3.8572,2.06059 -1.76726,0.57749 -2.72695,1.33604 -2.72695,2.15542 0,0.35324 0.10845,0.64226 0.24101,0.64226 0.13255,0 1.38604,-0.55358 2.78553,-1.23018 z"
         id="path434"
         inkscape:connector-curvature="0" />
      <path
         style="fill:#221e1f;stroke-width:0.26458332"
         d="M 74.593485,189.76804 35.171123,150.34501 74.659964,110.85617 114.1488,71.367327 l 39.48884,39.488843 39.48884,39.48884 -39.42236,39.42303 c -21.6823,21.68266 -39.48219,39.42302 -39.55532,39.42302 -0.0731,0 -17.873016,-17.74036 -39.555315,-39.42302 z m 78.846055,-0.26459 39.15778,-39.15844 -39.22426,-39.22426 -39.22426,-39.224255 -39.224253,39.224255 -39.224255,39.22426 39.157776,39.15844 c 21.536776,21.53715 39.217612,39.15845 39.290732,39.15845 0.0731,0 17.75396,-17.6213 39.29074,-39.15845 z M 79.355969,185.00552 44.696184,150.34498 79.422493,115.61867 114.1488,80.892357 l 34.72632,34.726313 34.7263,34.72631 -34.65978,34.66054 c -19.06288,19.0633 -34.71966,34.66054 -34.79284,34.66054 -0.0732,0 -15.729949,-15.59724 -34.792831,-34.66054 z m 68.791921,-0.79375 33.86602,-33.8668 -33.93255,-33.93255 -33.93256,-33.932557 -33.932549,33.932557 -33.932556,33.93255 33.866021,33.8668 c 18.626312,18.62674 33.925904,33.86679 33.999084,33.86679 0.0732,0 15.37278,-15.24005 33.99909,-33.86679 z m -35.78884,24.09838 c -2.61101,-0.66651 -4.16709,-2.90519 -4.46364,-6.42167 -0.47787,-5.66653 1.65909,-8.8658 6.11286,-9.15163 2.9638,-0.1902 4.67578,0.58621 5.69416,2.58241 l 0.51179,1.00317 -1.97902,0.18545 c -1.9774,0.1853 -1.97966,0.18477 -2.76081,-0.65146 -0.60957,-0.65254 -0.91455,-0.79619 -1.38442,-0.65208 -1.15922,0.35553 -1.5157,0.98117 -1.91529,3.36139 l -0.16659,0.99237 0.96468,-0.65464 c 1.95216,-1.32478 4.26295,-1.08356 5.96966,0.62314 2.41494,2.41494 1.79765,6.77611 -1.17659,8.31263 -1.12474,0.58104 -3.99577,0.83111 -5.40679,0.47092 z m 2.96853,-2.56677 c 1.00916,-0.38726 1.53714,-2.68167 0.89467,-3.88794 -1.14005,-2.14053 -3.92553,-1.32949 -3.92553,1.14299 0,2.22539 1.30495,3.40724 3.03086,2.74495 z M 94.630767,162.75117 c -3.756726,-0.62572 -6.257822,-2.90533 -7.347757,-6.69708 -0.697421,-2.42625 -0.451157,-6.64126 0.513133,-8.78264 0.905256,-2.01028 2.460606,-3.56109 4.50932,-4.49613 2.700573,-1.23256 7.752307,-1.18478 10.333967,0.0977 3.74146,1.85868 5.54198,6.14387 4.86229,11.57215 -0.32618,2.60502 -0.90759,3.96319 -2.3807,5.56133 -2.34879,2.54814 -5.974549,3.49677 -10.490253,2.74463 z m 4.591068,-4.89348 c 1.568165,-0.74415 2.076655,-1.94359 2.175325,-5.13121 0.0769,-2.48436 0.0212,-2.90339 -0.52649,-3.9627 -0.76639,-1.48221 -1.935596,-2.18377 -3.639412,-2.18377 -1.622189,0 -2.692593,0.61887 -3.496577,2.0216 -0.542523,0.94655 -0.620252,1.43031 -0.620252,3.86029 0,2.32584 0.08848,2.92874 0.543473,3.70326 1.151472,1.96014 3.496635,2.67352 5.563933,1.69253 z m 50.346905,4.93585 c -5.07151,-0.92945 -7.97586,-5.36433 -7.55333,-11.53376 0.214,-3.12465 0.98126,-4.9629 2.83244,-6.78616 2.10061,-2.06892 4.14407,-2.71609 8.02186,-2.54052 3.11084,0.14085 4.578,0.66409 6.0835,2.16959 0.87332,0.87332 2.29143,3.23003 2.29143,3.80805 0,0.12592 -1.16086,0.49575 -2.57969,0.82185 -2.4119,0.55435 -2.5969,0.56354 -2.84427,0.14129 -1.60676,-2.74261 -4.537,-3.21733 -6.44507,-1.04416 -0.97038,1.1052 -1.23182,2.21856 -1.19187,5.0757 0.054,3.8672 1.47559,5.59176 4.37926,5.31275 1.56511,-0.15038 2.66301,-1.06989 3.21083,-2.68911 0.42073,-1.24359 0.31465,-1.2367 3.57192,-0.23224 1.99112,0.61401 2.18836,0.73405 2.05821,1.25263 -0.59962,2.38907 -2.57022,4.77899 -4.69372,5.6925 -1.5129,0.65083 -5.09173,0.92725 -7.1415,0.55159 z m -76.430353,-7.95039 v -7.67292 h -3.175 -3.175 v -2.51354 -2.51354 h 9.392709 9.392708 v 2.51354 2.51354 h -3.175 -3.175 v 7.67292 7.67291 h -3.042708 -3.042709 z m 36.336613,5.10091 c 0.9228,-1.42305 2.46841,-3.8067 3.4347,-5.29698 l 1.75688,-2.70962 -2.02141,-3.11122 c -1.11177,-1.71117 -2.53718,-3.91489 -3.16756,-4.89716 l -1.14617,-1.78593 h 3.41889 3.41888 l 1.67261,3.03533 c 0.91994,1.66943 1.75353,3.03865 1.85243,3.04271 0.0989,0.004 0.93234,-1.36037 1.85208,-3.03206 l 1.67227,-3.03945 3.38156,-0.003 3.38157,-0.003 -0.97376,1.52136 c -2.26609,3.54042 -4.91232,7.82344 -5.04126,8.15946 -0.15374,0.40064 0.25659,1.10212 3.97164,6.7895 l 2.54921,3.90262 -3.50219,-0.005 -3.50219,-0.005 -1.85208,-3.16434 c -1.01865,-1.74038 -1.91227,-3.16673 -1.98582,-3.16967 -0.0736,-0.003 -0.97287,1.39366 -1.99848,3.10353 l -1.86474,3.10885 -3.49243,0.0738 -3.49244,0.0738 z m 22.40089,-7.61445 v -10.18646 h 3.175 3.175 v 10.18646 10.18645 h -3.175 -3.175 z m -32.272827,-19.9099 c -0.164603,-0.5457 -0.613617,-1.67925 -0.99781,-2.51899 -0.662141,-1.44725 -0.67469,-1.55064 -0.24089,-1.98437 0.348327,-0.34827 0.913593,-0.45848 2.366357,-0.46134 1.53556,-0.003 2.23124,-0.15199 3.55852,-0.76201 2.25529,-1.03654 2.31293,-1.13145 1.92757,-3.17378 l -0.31989,-1.69538 -2.29021,-1.0445 c -4.199928,-1.91548 -3.789742,-1.84671 -6.053271,-1.01481 -2.063057,0.75822 -3.106224,-0.26117 -1.952122,-1.90762 0.276383,-0.39429 0.570833,-1.37173 0.654335,-2.1721 0.249537,-2.3918 1.695408,-3.0145 3.349205,-1.44241 0.667433,0.63446 4.029623,2.77178 4.163213,2.64653 0.0387,-0.0362 -0.0297,-0.53037 -0.15185,-1.09804 -0.15091,-0.7011 -0.10377,-1.4573 0.14697,-2.35783 0.36804,-1.32176 0.36639,-1.33027 -0.55439,-2.85939 -1.04836,-1.74096 -1.64843,-4.51454 -1.36957,-6.33016 0.4335,-2.8224 2.96293,-6.194163 5.95957,-7.944192 3.43473,-2.005868 9.36327,-2.020381 13.28611,-0.03252 1.9061,0.965891 4.29491,3.325152 5.16904,5.105082 0.62489,1.27242 0.72538,1.79691 0.71457,3.7296 -0.0105,1.88308 -0.14446,2.57179 -0.82322,4.23333 -0.66652,1.63157 -0.83357,2.46747 -0.9396,4.70149 -0.12644,2.66417 -0.11813,2.71381 0.42635,2.54799 1.52409,-0.46416 2.50303,-1.01816 3.46761,-1.96237 0.80585,-0.78883 1.20261,-1.0006 1.65364,-0.88265 0.40972,0.10714 0.59342,0.35446 0.59342,0.79892 0,0.91147 0.69251,2.13717 1.32001,2.33633 0.63165,0.20048 0.67393,0.60669 0.14216,1.3659 -0.27583,0.3938 -0.79867,0.60775 -1.78692,0.73123 -1.49733,0.18707 -5.06802,1.54863 -6.94308,2.64749 -1.08065,0.6333 -1.15257,0.74925 -1.23918,1.99795 l -0.0919,1.32564 3.00896,1.32417 c 2.27122,0.9995 3.32676,1.32416 4.30515,1.32416 1.12009,0 1.33647,0.0884 1.59264,0.65062 0.2401,0.52698 0.2063,0.78819 -0.17788,1.37453 -0.26088,0.39815 -0.60734,1.32576 -0.76992,2.06136 -0.26316,1.19067 -0.3786,1.347 -1.05191,1.4244 -0.51037,0.0587 -1.11107,-0.16381 -1.84729,-0.68419 -1.37355,-0.97087 -5.88704,-3.5038 -6.24349,-3.5038 -0.14679,0 -0.79613,0.40398 -1.44299,0.89774 -1.802,1.3755 -3.38736,1.88244 -5.83993,1.86741 -2.30072,-0.0141 -3.96816,-0.57353 -5.46592,-1.83381 -0.43581,-0.36672 -0.97097,-0.66676 -1.18923,-0.66676 -0.21826,0 -1.38929,0.42636 -2.6023,0.94747 -1.77302,0.76168 -2.26906,1.10096 -2.52975,1.73032 -0.38298,0.92459 -1.19806,1.55555 -2.00949,1.55555 -0.44302,0 -0.653562,-0.23703 -0.881347,-0.99219 z m 1.978037,-1.29907 c 0.44527,-0.81361 0.90534,-1.12886 2.90194,-1.98842 2.78602,-1.19941 2.92795,-1.31183 2.54933,-2.01927 -0.27871,-0.52079 -0.3392,-0.50755 -2.2877,0.50076 -1.73063,0.89556 -2.23602,1.03569 -3.73529,1.03569 -1.549047,0 -1.713112,0.0493 -1.539233,0.46302 0.107042,0.25466 0.25723,0.76067 0.333753,1.12448 0.151757,0.72149 0.81155,1.85251 1.08002,1.85137 0.0924,-2.7e-4 0.40613,-0.43583 0.69718,-0.96763 z m 27.91354,-0.43395 c 0,-0.62574 0.13897,-1.27668 0.30882,-1.44654 0.33895,-0.33894 0.41537,-0.29904 -1.63174,-0.85183 -0.65484,-0.17682 -2.07059,-0.7262 -3.14611,-1.22084 -1.07553,-0.49463 -2.11505,-0.89933 -2.31007,-0.89933 -0.3178,0 -0.83557,1.23819 -0.59487,1.42256 0.0539,0.0413 1.16949,0.64652 2.47918,1.34502 1.30968,0.69851 2.8575,1.6064 3.43958,2.01754 0.58208,0.41114 1.14763,0.75284 1.25677,0.75933 0.10914,0.006 0.19844,-0.50017 0.19844,-1.12591 z m -11.72358,-0.82977 c 2.30176,-1.07169 3.6431,-3.51823 3.92588,-7.16065 l 0.12325,-1.5875 -0.41674,1.66419 c -0.78222,3.1237 -3.01643,4.55527 -7.10423,4.55204 -4.15192,-0.003 -5.64564,-1.16409 -6.80731,-5.29019 l -0.48419,-1.71979 0.12715,1.85739 c 0.38313,5.59668 2.76979,8.3323 7.26432,8.32649 1.55439,-0.002 2.30379,-0.1447 3.37187,-0.64198 z m -3.35767,-3.95734 c 0,-0.60749 -0.57073,-1.08918 -0.90018,-0.75973 -0.087,0.087 -0.15816,0.43597 -0.15816,0.77552 0,0.44097 0.15119,0.61736 0.52917,0.61736 0.38175,0 0.52917,-0.17639 0.52917,-0.63315 z m 1.2828,0.39896 c 0.48035,-0.30442 0.27963,-1.19312 -0.29445,-1.30368 -0.51426,-0.099 -0.86172,0.53217 -0.62809,1.14099 0.17226,0.44891 0.40589,0.49011 0.92254,0.16269 z m -2.65429,-0.75574 c -0.10998,-0.95283 -1.00976,-1.18825 -1.00976,-0.26419 0,0.72628 0.19238,0.98954 0.72313,0.98954 0.24771,0 0.34262,-0.2402 0.28663,-0.72535 z m 4.01732,-0.229 c 0,-0.38641 -0.15466,-0.63315 -0.39687,-0.63315 -0.26366,0 -0.39688,0.26366 -0.39688,0.78544 0,0.58947 0.099,0.74745 0.39688,0.63315 0.21828,-0.0838 0.39687,-0.43721 0.39687,-0.78544 z m -5.53556,-0.98288 c -0.20397,-0.20397 -0.28527,-0.0566 -0.28527,0.5173 0,1.04445 0.37125,1.41827 0.4837,0.48704 0.0478,-0.39549 -0.0415,-0.84745 -0.19843,-1.00434 z m 6.91601,0.28358 c 1.04341,-1.22075 0.93064,-1.69904 -0.18982,-0.80503 -0.50931,0.40639 -0.92603,0.94724 -0.92604,1.20191 -10e-6,0.67461 0.28738,0.5724 1.11586,-0.39688 z m -7.46587,0.0303 c 0,-0.31073 -0.29765,-0.84083 -0.66145,-1.17799 l -0.66146,-0.61302 v 0.64883 c 0,0.35685 0.10517,0.64882 0.23372,0.64882 0.12855,0 0.296,0.23812 0.37211,0.52917 0.18433,0.70489 0.71708,0.67829 0.71708,-0.0358 z m 3.43959,-1.02253 c 0,-0.61736 -0.11759,-0.79375 -0.52917,-0.79375 -0.37798,0 -0.52917,0.17639 -0.52917,0.61736 0,0.70105 0.19571,0.97014 0.70556,0.97014 0.21559,0 0.35278,-0.30868 0.35278,-0.79375 z m 1.91823,0.29628 c 0.10914,-0.0174 0.3175,-0.0317 0.46302,-0.0317 0.14552,0 0.26458,-0.29666 0.26458,-0.65923 0,-0.59038 -0.0898,-0.64752 -0.8599,-0.54703 -0.47294,0.0617 -1.00872,0.12025 -1.19062,0.13007 -0.33368,0.018 -0.46688,1.11642 -0.17123,1.41207 0.0877,0.0877 0.41514,0.0623 0.7276,-0.0565 0.31246,-0.1188 0.65741,-0.23026 0.76655,-0.2477 z m -3.24115,-0.56086 c 0,-0.61736 -0.11759,-0.79375 -0.52917,-0.79375 -0.37797,0 -0.52916,0.17639 -0.52916,0.61736 0,0.70105 0.1957,0.97014 0.70555,0.97014 0.21559,0 0.35278,-0.30868 0.35278,-0.79375 z m -1.32292,-0.39687 c 0,-0.36381 -0.13044,-0.66146 -0.28988,-0.66146 -0.15944,0 -0.63569,-0.24624 -1.05833,-0.54719 l -0.76845,-0.54718 v 0.61583 c 0,0.64356 0.89523,1.40432 1.33368,1.13334 0.1396,-0.0863 0.25382,0.0288 0.25382,0.25562 0,0.22687 0.11906,0.41249 0.26458,0.41249 0.14552,0 0.26458,-0.29765 0.26458,-0.66145 z m 6.5647,0.12198 c 0.6712,-0.62532 0.80333,-1.64665 0.18218,-1.40829 -0.21828,0.0838 -0.39688,0.25862 -0.39688,0.38857 0,0.12995 -0.14882,0.20651 -0.33073,0.17013 -0.18601,-0.0372 -0.36736,0.25223 -0.41444,0.66146 -0.0997,0.86619 0.17439,0.91991 0.95987,0.18813 z m -2.07358,-1.33587 c 1.06838,-0.22913 1.51125,-0.49825 2.17108,-1.31931 0.4559,-0.56731 1.58278,-1.50415 2.50418,-2.08186 2.62855,-1.64809 2.61934,-1.61828 2.54653,-8.24554 -0.0342,-3.11313 -0.094,-5.92326 -0.13286,-6.24472 -0.10626,-0.87879 0.39457,-0.79374 0.95377,0.16197 0.45887,0.78422 0.4708,1.03146 0.16219,3.36312 -0.23446,1.77145 -0.25012,2.59966 -0.0529,2.7969 0.44272,0.44272 1.41589,-3.03823 1.45912,-5.21913 0.0306,-1.54087 -0.0884,-2.119 -0.68808,-3.34473 -1.71801,-3.511485 -5.95354,-5.781715 -10.75779,-5.766139 -3.67088,0.0119 -6.27794,1.03143 -8.58553,3.3575 -2.80592,2.828389 -3.55566,5.906079 -2.27375,9.333859 0.56891,1.52125 1.23185,2.23762 0.91967,0.99378 -0.0823,-0.32774 -0.17382,-1.63289 -0.20348,-2.90034 -0.0485,-2.0724 0.006,-2.36439 0.53845,-2.89956 0.44932,-0.45137 0.66648,-0.52098 0.89923,-0.28823 0.23275,0.23275 0.19839,0.4724 -0.1423,0.99235 -0.39972,0.61005 -0.41452,0.92235 -0.13446,2.83772 0.20326,1.39009 0.24442,3.09627 0.11624,4.81819 -0.10916,1.46628 -0.19704,2.94943 -0.1953,3.29587 0.004,0.83614 0.77527,1.83875 2.1608,2.80969 0.62298,0.43656 1.70594,1.35508 2.40656,2.04115 0.70063,0.68608 1.54951,1.30652 1.88641,1.37876 0.33689,0.0723 0.85066,0.18171 1.1417,0.24326 0.98393,0.20807 1.95297,0.17443 3.30049,-0.11456 z m -3.51014,-2.25896 c -0.10297,-0.10297 -0.18723,-0.86415 -0.18723,-1.6915 0,-1.72083 0.80493,-3.24402 1.7894,-3.38613 1.31365,-0.18963 2.75803,2.55909 2.26032,4.30149 -0.22411,0.78458 -0.28402,0.81176 -1.95323,0.88638 -0.94712,0.0423 -1.80629,-0.007 -1.90926,-0.11024 z m -5.19524,-4.04871 c -1.0455,-1.0455 -1.04408,-4.52176 0.002,-5.37688 1.1142,-0.91064 3.96731,-0.35362 4.88268,0.95326 0.21325,0.30445 0.38772,0.96078 0.38772,1.45851 0,0.72964 -0.24899,1.15395 -1.28512,2.19009 -1.1235,1.1235 -1.42297,1.28512 -2.38125,1.28512 -0.72969,0 -1.26666,-0.17053 -1.60622,-0.5101 z m 10.62799,-0.0177 c -0.47427,-0.28916 -1.0989,-0.9138 -1.38807,-1.38807 -1.36367,-2.23658 0.12082,-4.43418 2.99531,-4.43418 2.19926,0 3.17252,1.5683 2.53773,4.08929 -0.5332,2.11753 -2.30161,2.85688 -4.14497,1.73297 z m 11.77638,2.69983 c 1.43128,-0.12462 1.78826,-0.42222 0.85989,-0.71687 -0.4166,-0.13223 -0.52916,-0.40033 -0.52916,-1.26036 v -1.09241 l -0.87983,0.85277 c -0.52068,0.50466 -1.83514,1.2278 -3.22013,1.77152 -2.71619,1.06633 -3.30838,1.51905 -3.30838,2.5292 v 0.73433 l 2.84427,-1.34862 c 1.92152,-0.91109 3.29492,-1.38785 4.23334,-1.46956 z m -24.01094,1.96997 c 0,-0.79892 -0.50484,-1.22697 -2.7994,-2.37361 -1.03035,-0.51488 -2.66745,-1.47981 -3.63802,-2.14429 -0.970563,-0.66447 -1.775198,-1.17916 -1.788076,-1.14375 -0.01289,0.0354 -0.04265,0.66261 -0.06615,1.39377 -0.03001,0.93357 -0.221092,1.55614 -0.64175,2.09092 -0.741376,0.9425 -0.616077,1.10839 0.428998,0.56796 1.399598,-0.72376 2.596628,-0.52302 5.419358,0.90881 1.43194,0.72635 2.71186,1.32064 2.84427,1.32064 0.13242,0 0.24076,-0.27921 0.24076,-0.62045 z"
         id="path432"
         inkscape:connector-curvature="0" />
      <path
         style="fill:#000000;stroke-width:0.26458332"
         d="M 79.355969,185.00552 44.696184,150.34498 79.422493,115.61867 114.1488,80.892357 l 34.72632,34.726313 34.7263,34.72631 -34.65978,34.66054 c -19.06288,19.0633 -34.71966,34.66054 -34.79284,34.66054 -0.0732,0 -15.729949,-15.59724 -34.792831,-34.66054 z m 68.791921,-0.79375 33.86602,-33.8668 -33.93255,-33.93255 -33.93256,-33.932557 -33.932549,33.932557 -33.932556,33.93255 33.866021,33.8668 c 18.626312,18.62674 33.925904,33.86679 33.999084,33.86679 0.0732,0 15.37278,-15.24005 33.99909,-33.86679 z m -35.69525,24.06213 c -3.5037,-0.87668 -5.18542,-4.48528 -4.44804,-9.54448 0.57353,-3.93499 2.32972,-5.73679 5.83327,-5.98477 3.01346,-0.21329 4.85465,0.59501 5.86456,2.57461 l 0.51179,1.00317 -1.97902,0.18545 c -1.96882,0.1845 -1.98295,0.18125 -2.74198,-0.63131 -0.86195,-0.92271 -0.81091,-0.9059 -1.71139,-0.56354 -0.81498,0.30985 -1.35707,1.32348 -1.59976,2.9913 l -0.18337,1.26014 0.93382,-0.6337 c 1.9566,-1.32779 4.31924,-1.09484 6.00628,0.59221 2.44002,2.44001 1.85766,6.73518 -1.1191,8.2538 -1.22283,0.62385 -3.87777,0.86976 -5.36706,0.49712 z m 3.2624,-2.82919 c 0.62498,-0.5108 0.97442,-2.04083 0.70828,-3.10122 -0.42771,-1.70414 -2.27754,-2.27762 -3.47717,-1.07799 -0.92232,0.92232 -0.92264,2.94725 -5.3e-4,3.94214 0.76461,0.82502 1.92824,0.92463 2.7695,0.23707 z M 94.730586,162.78347 c -5.079264,-0.91935 -7.83935,-4.60029 -7.830725,-10.44331 0.0071,-4.80046 1.795233,-7.90974 5.533007,-9.62095 2.113891,-0.96777 6.109872,-1.13233 8.659612,-0.3566 4.43002,1.34777 6.53886,4.62356 6.50158,10.09929 -0.0254,3.72169 -0.7243,5.73388 -2.66632,7.67589 -1.07406,1.07406 -1.94428,1.66527 -3.07252,2.0874 -1.78261,0.66696 -5.09165,0.92625 -7.124634,0.55828 z m 4.605679,-4.99369 c 1.533635,-0.82002 1.962625,-1.87388 2.061105,-5.0633 0.0767,-2.48413 0.021,-2.90348 -0.5267,-3.9627 -1.114757,-2.15597 -3.780368,-2.90612 -5.828577,-1.64026 -1.508146,0.93208 -1.927664,2.09388 -1.927664,5.33838 0,2.32584 0.08848,2.92874 0.543473,3.70326 1.177573,2.00457 3.646635,2.71099 5.678363,1.62462 z m 49.835055,4.86056 c -2.08054,-0.45249 -3.0528,-0.9656 -4.33691,-2.28879 -2.2561,-2.32476 -3.29309,-6.2598 -2.68623,-10.19339 0.8421,-5.45844 4.23971,-8.2896 9.94818,-8.2896 3.3906,0 6.145,1.05207 7.47927,2.85676 0.62087,0.83977 1.66901,2.83229 1.66901,3.1728 0,0.12639 -1.16086,0.49258 -2.57969,0.81376 -2.38956,0.54091 -2.59919,0.55139 -2.84427,0.14216 -1.56159,-2.60744 -4.05921,-3.17276 -6.10021,-1.38075 -1.18995,1.04479 -1.56273,2.28411 -1.54439,5.13439 0.0266,4.13527 1.37829,5.88958 4.32012,5.60691 1.6314,-0.15675 2.73399,-1.06569 3.32453,-2.7406 0.20123,-0.57074 0.46214,-1.02367 0.57979,-1.00649 1.09115,0.1593 5.10812,1.57253 5.10612,1.79641 -0.006,0.69904 -1.43633,3.28761 -2.32809,4.21405 -1.2393,1.28751 -2.43814,1.90463 -4.40704,2.2686 -1.98821,0.36754 -3.55882,0.33775 -5.60019,-0.10622 z m -76.032933,-7.80719 v -7.67292 h -3.175 -3.175 v -2.51354 -2.51354 h 9.392709 9.392708 v 2.51354 2.51354 h -3.175 -3.175 v 7.67292 7.67291 h -3.042708 -3.042709 z m 38.113943,2.38987 3.42734,-5.28305 -3.16412,-4.90341 -3.16411,-4.90341 h 3.39748 3.39748 l 1.78071,3.19477 1.7807,3.19477 0.45084,-0.74738 c 0.24796,-0.41105 1.03788,-1.84753 1.75539,-3.19216 l 1.30456,-2.44479 3.36641,-0.003 3.36641,-0.003 -1.88226,2.97656 c -1.03524,1.63711 -2.44602,3.87437 -3.13507,4.97169 l -1.25281,1.99512 3.26798,5.01634 c 1.79738,2.75898 3.27086,5.10563 3.27438,5.21477 0.004,0.10914 -1.51163,0.19603 -3.36702,0.1931 l -3.37344,-0.005 -1.85208,-3.16434 c -1.01865,-1.74038 -1.91162,-3.16666 -1.98438,-3.16951 -0.0728,-0.003 -1.00579,1.42351 -2.07339,3.16967 l -1.9411,3.17484 h -3.40362 -3.40362 z m 20.62356,-4.90341 v -10.18646 h 3.175 3.175 v 10.18646 10.18645 h -3.175 -3.175 z M 99.472538,132.02283 c -0.225096,-0.76398 -0.674584,-1.89243 -0.998865,-2.50766 -0.563324,-1.06875 -0.568799,-1.1394 -0.122836,-1.58537 0.361921,-0.36192 0.925711,-0.47039 2.509973,-0.48291 1.75733,-0.0139 2.27187,-0.13367 3.67757,-0.85611 0.89891,-0.46198 1.71455,-0.96969 1.81254,-1.12824 0.098,-0.15856 0.0343,-1.05101 -0.14164,-1.98323 l -0.31981,-1.69495 -1.9048,-0.90413 c -1.04763,-0.49727 -2.49644,-1.11426 -3.21958,-1.3711 -1.282259,-0.45542 -1.351416,-0.45326 -2.795948,0.0872 -2.364553,0.88469 -3.453252,0.1559 -2.390786,-1.60043 0.284768,-0.47074 0.599977,-1.54362 0.700469,-2.38419 0.291803,-2.44084 1.619474,-2.92727 3.450187,-1.26408 0.436558,0.39661 1.220748,0.96328 1.742638,1.25925 0.52189,0.29598 1.27251,0.75019 1.66805,1.00936 l 0.71916,0.47121 -0.18088,-1.36351 c -0.10919,-0.8231 -0.0556,-1.81098 0.13524,-2.49254 0.30238,-1.08 0.27563,-1.19627 -0.61579,-2.67662 -1.0215,-1.69636 -1.35956,-3.13482 -1.32557,-5.64038 0.0557,-4.10822 4.02509,-8.456898 8.90508,-9.756027 1.67098,-0.444843 4.94052,-0.484503 6.86457,-0.08327 3.51408,0.732815 7.21587,3.436248 8.59246,6.275107 0.62652,1.29204 0.72614,1.81707 0.71183,3.75126 -0.0138,1.8641 -0.15351,2.58854 -0.81644,4.23333 -0.65398,1.62259 -0.82292,2.48121 -0.92659,4.70946 -0.10018,2.1531 -0.0553,2.69764 0.21391,2.59434 0.18738,-0.0719 0.79682,-0.25356 1.3543,-0.40367 0.60989,-0.16423 1.46596,-0.73384 2.14928,-1.43011 0.87848,-0.8951 1.28184,-1.12922 1.78107,-1.03378 0.53466,0.1022 0.64539,0.27902 0.64539,1.03059 0,0.89892 0.75001,1.95896 1.60253,2.26498 0.33063,0.11868 0.3284,0.23722 -0.0166,0.8837 -0.33906,0.63537 -0.65852,0.79463 -2.14384,1.06876 -1.78157,0.32882 -4.81876,1.48762 -6.71813,2.56322 -0.97816,0.55393 -1.06881,0.70288 -1.19655,1.9661 -0.15733,1.5557 -0.51769,1.24686 3.52489,3.0209 1.54017,0.67588 2.7205,1.02176 3.48683,1.02176 1.85599,0 2.44503,1.09068 1.29728,2.40209 -0.20107,0.22974 -0.36558,0.65845 -0.36558,0.9527 0,0.29425 -0.1307,0.90995 -0.29046,1.36823 -0.40735,1.16853 -1.22889,1.09137 -3.37812,-0.31726 -0.96545,-0.63277 -2.65928,-1.64274 -3.76406,-2.24439 l -2.00868,-1.09391 -0.58454,0.62221 c -0.88151,0.93833 -2.8837,1.92292 -4.63741,2.2805 -2.6256,0.53535 -5.45852,-0.1335 -7.36696,-1.73935 -0.97256,-0.81836 -1.42795,-0.77168 -4.09172,0.41938 -1.47193,0.65815 -1.92995,1.00764 -2.27853,1.73861 -0.40496,0.84923 -1.28641,1.43203 -2.16586,1.43203 -0.21727,0 -0.537956,-0.57207 -0.778671,-1.38907 z m 2.152912,-0.90102 c 0.41667,-0.83123 0.81589,-1.10837 2.84015,-1.97169 2.77745,-1.18455 2.94986,-1.32138 2.56677,-2.03717 -0.27871,-0.52079 -0.3392,-0.50755 -2.2877,0.50076 -1.73063,0.89556 -2.23602,1.03569 -3.73529,1.03569 -1.5477,0 -1.71334,0.0497 -1.542766,0.46302 0.105104,0.25466 0.284658,0.85335 0.399011,1.33042 0.215385,0.89854 0.698885,1.64614 1.064615,1.64614 0.11572,0 0.42857,-0.43523 0.69521,-0.96717 z m 27.86919,-0.47242 c 0,-0.64626 0.121,-1.2498 0.2689,-1.3412 0.44993,-0.27808 0.0546,-0.58907 -0.99358,-0.78154 -0.54731,-0.10051 -2.05194,-0.64979 -3.34363,-1.22062 -1.29168,-0.57084 -2.49296,-1.03788 -2.66951,-1.03788 -0.17655,0 -0.45415,0.29224 -0.61689,0.64943 -0.28583,0.62732 -0.21298,0.69426 2.14034,1.96668 1.33993,0.72448 2.97202,1.68023 3.62687,2.12388 0.65484,0.44364 1.27992,0.80879 1.38906,0.81144 0.10914,0.003 0.19844,-0.52394 0.19844,-1.17019 z m -12.34314,-0.4714 c 2.45857,-0.73661 4.30812,-3.71595 4.55163,-7.33196 l 0.11699,-1.73726 -0.41958,1.67716 c -0.77389,3.09335 -3.04775,4.54055 -7.1342,4.54055 -4.05906,0 -5.67043,-1.26288 -6.75188,-5.29167 l -0.46164,-1.71979 -0.0239,1.1384 c -0.0375,1.78672 0.7187,4.62088 1.64401,6.1617 1.18067,1.96605 2.94757,2.88636 5.54152,2.88636 1.02152,0 2.34319,-0.14557 2.93703,-0.32349 z m -2.73811,-4.27841 c 0,-0.5236 -0.42775,-0.95435 -0.94768,-0.95435 -0.0609,0 -0.11066,0.35719 -0.11066,0.79375 0,0.61736 0.1176,0.79375 0.52917,0.79375 0.38175,0 0.52917,-0.17639 0.52917,-0.63315 z m 1.16898,0.47255 c 0.23019,-0.0883 0.41852,-0.4538 0.41852,-0.81215 0,-0.52435 -0.11623,-0.63505 -0.59532,-0.56701 -0.42624,0.0605 -0.61908,0.29119 -0.67903,0.81216 -0.0848,0.7367 0.098,0.8578 0.85583,0.567 z m -2.54047,-0.82933 c -0.0505,-0.43747 -0.26748,-0.76019 -0.54674,-0.81314 -0.35958,-0.0682 -0.46302,0.0939 -0.46302,0.72534 0,0.64547 0.11274,0.81315 0.54674,0.81315 0.44,0 0.53039,-0.14161 0.46302,-0.72535 z m 4.01732,-0.229 c 0,-0.38641 -0.15466,-0.63315 -0.39687,-0.63315 -0.26366,0 -0.39688,0.26366 -0.39688,0.78544 0,0.58947 0.099,0.74745 0.39688,0.63315 0.21828,-0.0838 0.39687,-0.43721 0.39687,-0.78544 z m -5.53556,-0.98288 c -0.20397,-0.20397 -0.28527,-0.0566 -0.28527,0.5173 0,1.04445 0.37125,1.41827 0.4837,0.48704 0.0478,-0.39549 -0.0415,-0.84745 -0.19843,-1.00434 z m 6.91601,0.28358 c 0.84959,-0.99398 1.0422,-1.83055 0.28159,-1.22302 -1.22897,0.98162 -1.39746,1.17604 -1.39746,1.61255 0,0.68203 0.28501,0.58254 1.11587,-0.38953 z m -7.47044,0 c -0.002,-0.32742 -0.30017,-0.8757 -0.66146,-1.21839 -0.65352,-0.61989 -0.65688,-0.62019 -0.65688,-0.0568 0,0.62826 0.72307,1.87054 1.08876,1.87054 0.12878,0 0.2321,-0.26789 0.22958,-0.59531 z m 3.44416,-0.99219 c 0,-0.61736 -0.11759,-0.79375 -0.52917,-0.79375 -0.37798,0 -0.52917,0.17639 -0.52917,0.61736 0,0.70105 0.19571,0.97014 0.70556,0.97014 0.21559,0 0.35278,-0.30868 0.35278,-0.79375 z m 1.91823,0.41394 c 0.56298,-0.12336 0.7276,-0.31284 0.7276,-0.83744 0,-0.63266 -0.0663,-0.66838 -0.99219,-0.53412 -0.5457,0.0791 -1.08148,0.14838 -1.19062,0.15388 -0.23519,0.0119 -0.26857,1.17458 -0.0403,1.40287 0.087,0.087 0.29535,0.11678 0.46302,0.0662 0.16767,-0.0506 0.63228,-0.16371 1.03247,-0.25139 z m -3.24115,-0.67852 c 0,-0.61736 -0.11759,-0.79375 -0.52917,-0.79375 -0.37797,0 -0.52916,0.17639 -0.52916,0.61736 0,0.70105 0.1957,0.97014 0.70555,0.97014 0.21559,0 0.35278,-0.30868 0.35278,-0.79375 z m -1.32292,-0.39687 c 0,-0.36381 -0.13044,-0.66146 -0.28988,-0.66146 -0.15944,0 -0.63569,-0.24624 -1.05833,-0.54719 l -0.76845,-0.54718 v 0.6573 c 0,0.47586 0.2191,0.75428 0.79375,1.00864 0.43656,0.19324 0.79375,0.44135 0.79375,0.55135 0,0.11 0.11906,0.19999 0.26458,0.19999 0.14552,0 0.26458,-0.29765 0.26458,-0.66145 z m 6.5647,0.12198 c 0.31848,-0.29671 0.57905,-0.77602 0.57905,-1.06513 0,-0.49888 -0.0404,-0.50475 -0.79375,-0.11519 -0.55748,0.28829 -0.79375,0.60533 -0.79375,1.06513 0,0.79585 0.2475,0.82412 1.00845,0.11519 z m -2.0681,-1.30046 c 0.92103,-0.17764 1.42835,-0.49409 2.24896,-1.40279 0.58281,-0.64538 1.66183,-1.54672 2.39783,-2.00298 2.71871,-1.6854 2.61505,-1.36866 2.5949,-7.92903 -0.01,-3.15864 -0.10785,-6.0704 -0.21811,-6.47058 -0.29027,-1.0536 0.51035,-0.97265 1.06923,0.10811 0.3828,0.74026 0.39455,1.11992 0.10283,3.32395 -0.23181,1.75144 -0.24635,2.57123 -0.0491,2.76847 0.47033,0.47033 1.42502,-3.05204 1.44752,-5.34063 0.0243,-2.47443 -0.73059,-4.12001 -2.70406,-5.894327 -2.30649,-2.073734 -5.203,-3.10151 -8.74076,-3.10151 -3.65396,0 -6.4207,1.080155 -8.65483,3.378899 -2.2816,2.347598 -3.14958,4.711138 -2.71368,7.389438 0.21966,1.34966 1.21467,3.97499 1.42448,3.75849 0.0571,-0.0589 -0.01,-1.2295 -0.14814,-2.60141 -0.26042,-2.57915 -0.084,-3.60233 0.73914,-4.28543 0.6517,-0.54087 1.01338,0.12228 0.49673,0.91078 -0.38881,0.59341 -0.40248,0.91888 -0.11976,2.85242 0.20765,1.42014 0.24981,3.11389 0.12068,4.84855 -0.10916,1.46628 -0.19704,2.94943 -0.1953,3.29587 0.004,0.83812 0.77705,1.84075 2.16569,2.80968 0.62567,0.43657 1.68821,1.3607 2.36121,2.05364 0.93592,0.96365 1.50274,1.31455 2.41068,1.49237 1.56573,0.30664 2.52353,0.31582 3.96386,0.038 z m -3.52646,-2.30521 c -0.097,-0.097 -0.17639,-0.75568 -0.17639,-1.4637 0,-3.39197 2.3002,-4.83886 3.53978,-2.22664 0.62753,1.32243 0.77065,2.31028 0.45477,3.13913 -0.26234,0.68838 -0.36796,0.7276 -1.95952,0.7276 -0.92524,0 -1.76162,-0.0794 -1.85864,-0.17639 z m -5.16376,-4.07527 c -1.26206,-1.35467 -1.01651,-5.10647 0.36902,-5.63815 1.33076,-0.51066 3.72835,0.15707 4.49522,1.25193 0.21324,0.30445 0.38772,0.96078 0.38772,1.45851 0,0.72964 -0.24899,1.15395 -1.28512,2.19009 -1.11958,1.11957 -1.42499,1.28512 -2.37095,1.28512 -0.75721,0 -1.24018,-0.16569 -1.59589,-0.5475 z m 10.60735,0.0198 c -0.47427,-0.28917 -1.0989,-0.9138 -1.38807,-1.38807 -1.36367,-2.2366 0.12082,-4.4342 2.99531,-4.4342 2.16599,0 3.19697,1.612 2.55523,3.99524 -0.59303,2.20237 -2.31047,2.9562 -4.16247,1.82702 z m 7.89741,4.0996 c 2.21436,-1.08677 3.25662,-1.45521 4.11656,-1.45521 1.18284,0 1.58636,-0.46498 0.6223,-0.71708 -0.41682,-0.109 -0.52916,-0.3609 -0.52916,-1.18647 v -1.0481 l -1.06918,0.91517 c -0.58804,0.50335 -1.95595,1.2386 -3.0398,1.63391 -2.50179,0.91245 -3.29936,1.52608 -3.29936,2.53844 0,0.426 0.0526,0.77455 0.11678,0.77455 0.0642,0 1.45107,-0.65484 3.08186,-1.45521 z m -20.13197,0.57018 c 0,-0.7873 -0.50611,-1.22672 -2.64583,-2.29717 -0.94589,-0.4732 -2.56898,-1.43324 -3.606879,-2.13342 -1.037897,-0.70018 -1.962039,-1.1981 -2.053651,-1.10649 -0.09161,0.0916 -0.09284,0.55953 -0.0028,1.03981 0.125225,0.6675 -0.0013,1.15509 -0.537191,2.06944 -0.744234,1.26994 -0.680048,1.40508 0.379626,0.79932 1.229006,-0.70257 2.597655,-0.46305 5.291665,0.92604 1.38245,0.71282 2.66237,1.30208 2.84427,1.30948 0.1819,0.007 0.33073,-0.26577 0.33073,-0.60701 z"
         id="path430"
         inkscape:connector-curvature="0" />
    </g>
  </g>
</svg>
