<?xml version="1.0" encoding="UTF-8" standalone="no"?>
<!-- Created with Inkscape (http://www.inkscape.org/) -->

<svg
   xmlns:dc="http://purl.org/dc/elements/1.1/"
   xmlns:cc="http://creativecommons.org/ns#"
   xmlns:rdf="http://www.w3.org/1999/02/22-rdf-syntax-ns#"
   xmlns:svg="http://www.w3.org/2000/svg"
   xmlns="http://www.w3.org/2000/svg"
   xmlns:sodipodi="http://sodipodi.sourceforge.net/DTD/sodipodi-0.dtd"
   xmlns:inkscape="http://www.inkscape.org/namespaces/inkscape"
   width="270.93332mm"
   height="270.93335mm"
   viewBox="0 0 270.93332 270.93336"
   version="1.1"
   id="svg82"
   inkscape:version="0.92.4 (5da689c313, 2019-01-14)"
   sodipodi:docname="Class_2_Flammable_Gas.svg">
  <defs
     id="defs76" />
  <sodipodi:namedview
     id="base"
     pagecolor="#ffffff"
     bordercolor="#666666"
     borderopacity="1.0"
     inkscape:pageopacity="0.0"
     inkscape:pageshadow="2"
     inkscape:zoom="0.35"
     inkscape:cx="311.42857"
     inkscape:cy="302.28576"
     inkscape:document-units="mm"
     inkscape:current-layer="layer1"
     showgrid="false"
     inkscape:window-width="1920"
     inkscape:window-height="1017"
     inkscape:window-x="-8"
     inkscape:window-y="-8"
     inkscape:window-maximized="1" />
  <metadata
     id="metadata79">
    <rdf:RDF>
      <cc:Work
         rdf:about="">
        <dc:format>image/svg+xml</dc:format>
        <dc:type
           rdf:resource="http://purl.org/dc/dcmitype/StillImage" />
        <dc:title></dc:title>
      </cc:Work>
    </rdf:RDF>
  </metadata>
  <g
     inkscape:label="Layer 1"
     inkscape:groupmode="layer"
     id="layer1"
     transform="translate(-23.434524,28.891063)">
    <g
       id="g95"
       transform="matrix(1.7066667,0,0,1.7181208,-21.721034,-175.1144)">
      <path
         style="fill:#fefefe;stroke-width:0.26458335"
         d="M 26.458334,163.95239 V 85.106552 h 79.374996 79.375 v 78.845838 78.84583 h -79.375 -79.374996 z"
         id="path111"
         inkscape:connector-curvature="0" />
      <path
         style="fill:#f5cecb;stroke-width:0.26458335"
         d="m 66.166972,203.36262 c -21.69423,-21.56056 -39.44346,-39.27786 -39.442732,-39.37178 0.0016,-0.20104 78.79181,-78.449295 79.11272,-78.568494 0.22471,-0.08347 79.1075,78.187344 79.1059,78.492204 -0.001,0.20028 -78.79291,78.44863 -79.11368,78.56794 -0.11999,0.0446 -17.967978,-17.55931 -39.662208,-39.11987 z m 74.326908,-4.88223 34.52749,-34.52826 -34.59402,-34.59401 -34.59402,-34.594023 -34.594013,34.594023 -34.594018,34.59401 34.527491,34.52826 c 18.99012,18.99053 34.58737,34.52825 34.66054,34.52825 0.0732,0 15.67043,-15.53772 34.66055,-34.52825 z m -68.527342,-0.79376 -33.733727,-33.7345 33.800261,-33.80026 33.800258,-33.800267 33.80027,33.800267 33.80026,33.80026 -33.73373,33.7345 c -18.55355,18.55398 -33.79361,33.73451 -33.8668,33.73451 -0.0732,0 -15.313243,-15.18053 -33.866792,-33.73451 z M 112.7125,219.2503 v -1.85208 h -3.3483 -3.3483 l 0.49432,-0.54621 c 0.27187,-0.30042 1.23222,-1.07277 2.1341,-1.71634 3.15381,-2.25051 4.48256,-4.57146 3.84172,-6.71039 -0.41932,-1.39954 -1.26073,-2.38387 -2.53087,-2.96074 -1.51828,-0.68957 -5.67197,-0.69053 -7.16454,-0.002 -1.71089,0.78963 -2.77813,2.28123 -2.77813,3.88278 0,0.60748 0.0868,0.64444 1.52135,0.64785 0.83675,0.002 1.78925,0.0754 2.11667,0.16315 0.47077,0.12616 0.59531,0.0498 0.59531,-0.36481 0,-0.97863 1.00381,-1.91862 2.0489,-1.91862 1.21416,0 1.91985,0.63411 1.91985,1.72512 0,1.11343 -0.61534,1.8538 -3.25181,3.9125 -3.41806,2.66902 -4.74172,4.37673 -5.320271,6.86394 l -0.169246,0.7276 h 6.619627 6.61962 v -1.85208 z M 96.599582,192.22352 c 0.494657,-0.16712 1.464924,-0.71304 2.156148,-1.21316 l 1.25677,-0.90929 v -3.41705 -3.41705 h -2.645833 -2.645833 v 1.5875 1.5875 h 1.190625 c 1.139968,0 1.190625,0.0329 1.190625,0.77455 0,1.53808 -2.464525,2.47177 -3.889632,1.47359 -1.023448,-0.71685 -1.56061,-3.55978 -1.145635,-6.06325 0.534876,-3.2268 2.890454,-4.1165 4.373809,-1.65199 0.240445,0.39948 0.393808,0.40493 1.681014,0.0597 0.779037,-0.20896 1.480836,-0.44434 1.559552,-0.52306 0.310465,-0.31046 -0.81076,-2.55487 -1.640081,-3.28302 -1.390785,-1.22113 -4.335687,-1.40944 -6.302057,-0.40299 -0.998437,0.51103 -2.232642,2.28168 -2.70937,3.887 -0.521171,1.75498 -0.506662,5.51958 0.02822,7.32072 0.689692,2.32245 1.861238,3.74058 3.498316,4.23463 1.061849,0.32046 3.02751,0.29893 4.043362,-0.0443 z m 24.847098,-0.29144 c 1.57825,-0.80072 2.43124,-2.43865 2.43124,-4.66855 0,-2.90525 -0.99224,-4.09195 -4.56193,-5.45601 -1.65291,-0.63161 -1.84099,-0.7768 -1.84099,-1.42118 0,-0.8715 0.43554,-1.3527 1.22434,-1.3527 0.6236,0 1.68608,1.12565 1.68608,1.78633 0,0.27745 0.17401,0.34542 0.59531,0.23251 0.32742,-0.0877 1.05505,-0.16116 1.61695,-0.16315 l 1.02163,-0.004 -0.18173,-0.99218 c -0.44421,-2.42532 -1.94447,-3.63533 -4.50737,-3.63533 -2.73986,0 -4.36164,1.39253 -4.57169,3.92543 -0.22883,2.75937 0.89499,4.36396 3.8224,5.45765 1.915,0.71545 2.46908,1.20121 2.46908,2.16461 0,0.84527 -0.81518,1.81107 -1.52863,1.81107 -0.77342,0 -1.62299,-0.7619 -1.85713,-1.6655 -0.21622,-0.83441 -0.24498,-0.84804 -1.79043,-0.84804 h -1.57068 l 0.0719,0.79375 c 0.11303,1.24846 0.80961,2.9086 1.48771,3.54565 1.28923,1.21116 4.10697,1.44154 5.98398,0.48925 z m -16.80524,-0.52917 c 0.3835,-1.90544 0.25382,-1.81452 2.46811,-1.73054 l 2.02749,0.0769 0.22885,1.25677 0.22886,1.25677 h 1.81515 c 1.33929,0 1.78392,-0.0867 1.696,-0.33072 -0.18234,-0.50606 -4.09757,-15.23018 -4.09757,-15.40984 0,-0.0867 -0.85056,-0.12264 -1.89015,-0.0799 l -1.89015,0.0777 -1.90179,7.14375 c -1.04599,3.92906 -1.98362,7.47117 -2.08364,7.87135 l -0.18185,0.7276 h 1.70381 1.70381 z m 1.19189,-5.21545 c 0,-0.57406 1.14267,-5.57019 1.24952,-5.46333 0.16081,0.16081 1.13173,4.65747 1.13173,5.24142 0,0.38826 -0.22032,0.47642 -1.19062,0.47642 -0.65484,0 -1.19063,-0.11453 -1.19063,-0.25451 z m -49.948244,-19.12622 0.07429,-3.24114 2.182812,-0.0769 2.182813,-0.0768 v -1.4445 -1.44451 h -2.248959 -2.248958 v -1.45521 -1.45521 h 2.645833 2.645834 v -1.71979 -1.71979 h -4.233334 -4.233333 v 7.9375 7.9375 h 1.579356 1.579356 z m 16.081581,1.38906 v -1.85208 h -2.778125 -2.778125 v -6.08542 -6.08541 h -1.719791 -1.719792 v 7.9375 7.9375 h 4.497917 4.497916 z m 4.063461,1.38907 c 0.0717,-0.25467 0.208248,-0.84998 0.303434,-1.32292 l 0.173067,-0.8599 h 2.051301 2.051299 l 0.242782,1.25677 0.242781,1.25678 1.807763,0.0787 c 1.728931,0.0753 1.800109,0.0546 1.632273,-0.47418 -0.09652,-0.3041 -0.943753,-3.43516 -1.882743,-6.9579 -0.938993,-3.52274 -1.826935,-6.85147 -1.973204,-7.39718 l -0.265944,-0.99218 h -1.831686 -1.831687 l -0.265943,0.99218 c -0.14627,0.54571 -1.034211,3.87444 -1.973205,7.39718 -0.93899,3.52274 -1.784429,6.64814 -1.87875,6.94531 -0.160666,0.50622 -0.06292,0.54033 1.548299,0.54033 1.411846,0 1.743136,-0.0829 1.850163,-0.46302 z m 1.366311,-6.22179 c 0.08915,-0.47519 0.374779,-1.81464 0.63474,-2.97656 l 0.47266,-2.11259 0.278233,1.05833 c 0.153027,0.58209 0.418965,1.71318 0.590973,2.51354 0.172009,0.80037 0.369901,1.66357 0.439762,1.91823 0.108952,0.39716 -0.0654,0.46302 -1.225717,0.46302 h -1.352735 z m 11.259867,0.79783 c 0.01148,-3.23784 0.07151,-5.76643 0.133393,-5.6191 0.06188,0.14734 0.564962,2.76671 1.117967,5.82084 l 1.005462,5.55295 1.22025,0.0797 c 1.449727,0.0947 1.218489,0.65718 2.317121,-5.63598 0.457279,-2.61938 0.935241,-5.00063 1.062135,-5.29167 0.141026,-0.32345 0.237681,1.70803 0.248626,5.22552 l 0.01791,5.75469 h 1.322917 1.322917 v -7.9375 -7.9375 H 96.221776 94.01855 l -0.321995,1.78593 c -1.241221,6.8844 -1.44825,7.81788 -1.625722,7.33025 -0.103534,-0.28447 -0.529124,-2.45199 -0.945758,-4.8167 l -0.757513,-4.29948 h -2.18899 -2.188988 v 7.9375 7.9375 h 1.322917 1.322916 l 0.02088,-5.88698 z m 14.795774,0.14552 c 0,-3.1578 0.0997,-5.62835 0.22148,-5.49011 0.12182,0.13825 0.60901,2.45401 1.08266,5.14615 0.47364,2.69214 0.92267,5.16268 0.99783,5.4901 0.11768,0.51267 0.30785,0.59532 1.36981,0.59532 h 1.23315 l 1.05327,-5.88698 1.05326,-5.88698 0.0712,5.88698 0.0712,5.88698 h 1.45014 1.45015 v -7.9478 -7.94781 l -2.2998,0.0764 -2.2998,0.0764 -0.82717,4.56013 c -0.45494,2.50807 -0.89246,4.62542 -0.97226,4.70522 -0.0798,0.0798 -0.22509,-0.36492 -0.32288,-0.98826 -0.0978,-0.62334 -0.48589,-2.77045 -0.86246,-4.77136 l -0.68465,-3.63802 h -2.21549 -2.21549 v 7.9375 7.9375 h 1.32292 1.32291 z m 14.90978,4.35239 0.22872,-1.25677 h 2.08804 c 1.49326,0 2.08847,0.0942 2.08952,0.33073 8e-4,0.1819 0.12547,0.77722 0.27702,1.32292 l 0.27555,0.99219 h 1.71239 1.7124 l -0.18185,-0.72761 c -0.10002,-0.40018 -1.03765,-3.94229 -2.08364,-7.87135 l -1.90179,-7.14375 -1.89015,-0.0777 c -1.03959,-0.0428 -1.89015,-0.007 -1.89015,0.0799 0,0.18301 -3.91737,14.91011 -4.10217,15.42183 -0.0952,0.26358 0.28748,0.32469 1.65681,0.26459 l 1.78058,-0.0782 z m 1.06274,-4.89479 c 0.0733,-0.25466 0.34383,-1.50481 0.6013,-2.77812 0.25746,-1.27331 0.54247,-2.31511 0.63334,-2.31511 0.0909,0 0.37283,0.98227 0.62657,2.18282 0.25374,1.20054 0.52504,2.4507 0.60291,2.77812 0.13291,0.55892 0.0578,0.59531 -1.22787,0.59531 -1.17856,0 -1.35086,-0.0645 -1.23625,-0.46302 z m 17.28006,5.5986 c 0.95087,-0.70445 1.46651,-1.76279 1.61579,-3.31633 0.15302,-1.5925 -0.31264,-2.96059 -1.28669,-3.78019 l -0.77883,-0.65535 0.64667,-0.64666 c 1.16719,-1.1672 1.25223,-3.92396 0.168,-5.44662 -0.76732,-1.0776 -1.90044,-1.34135 -5.77012,-1.34312 l -3.24115,-10e-4 v 7.96176 7.96177 l 3.94998,-0.0904 c 3.50901,-0.0803 4.03329,-0.15214 4.69635,-0.64338 z m -5.20674,-4.17587 v -1.75346 h 1.30401 c 1.55375,0 2.13557,0.46487 2.13557,1.7063 0,1.1249 -0.49909,1.51807 -2.12544,1.67434 l -1.31414,0.12627 z m 0,-6.25137 v -1.6165 l 1.25468,0.0807 c 1.07013,0.0688 1.30575,0.18766 1.60193,0.80824 0.28663,0.60056 0.28663,0.85466 0,1.45521 -0.29618,0.62058 -0.5318,0.73947 -1.60193,0.80825 l -1.25468,0.0806 z m 17.72708,9.26041 v -1.85208 h -2.77812 -2.77813 v -6.08542 -6.08541 h -1.71979 -1.71979 v 7.9375 7.9375 h 4.49791 4.49792 z m 11.1125,0.1323 v -1.7198 h -3.04271 -3.04271 v -1.5875 -1.5875 h 2.77813 2.77812 v -1.5875 -1.5875 h -2.77812 -2.77813 v -1.32291 -1.32292 h 2.91042 2.91042 v -1.71979 -1.71979 h -4.63021 -4.63021 v 7.9375 7.9375 h 4.7625 4.7625 z m -41.01042,-20.90209 v -0.66146 H 105.96563 92.604167 v 0.66146 0.66146 h 13.361463 13.36145 z m -17.00134,-2.00661 c -0.64049,-0.37299 -1.46285,-2.06523 -1.81717,-3.73934 -0.40098,-1.89457 -0.855286,-2.70672 -2.305928,-4.12226 -0.781867,-0.76294 -1.039278,-1.14499 -0.703683,-1.04438 0.291042,0.0872 1.261726,0.39096 2.157076,0.67492 l 1.627905,0.51628 -0.51327,-1.85221 c -0.58727,-2.11924 -1.127641,-3.27455 -1.612498,-3.44752 -0.184963,-0.066 -0.264041,-0.19861 -0.175729,-0.29472 0.355915,-0.38733 1.074027,0.23775 1.972697,1.71713 1.44984,2.38669 1.97637,1.85959 0.87646,-0.87743 -0.74394,-1.85123 -1.00131,-2.99403 -0.76161,-3.38186 0.12567,-0.20335 0.29876,-0.0218 0.48291,0.5064 0.28932,0.82994 2.40707,3.72556 2.72474,3.72556 0.36915,0 0.42049,-1.10689 0.16591,-3.57707 -0.30984,-3.00642 0.0118,-5.02791 0.93772,-5.89322 l 0.58436,-0.54611 0.022,2.42851 c 0.0257,2.83099 1.12878,9.08203 1.45516,8.24618 0.11297,-0.2893 0.21443,-1.4785 0.22547,-2.64267 0.011,-1.16416 0.15876,-2.59291 0.32826,-3.175 l 0.30818,-1.05833 0.22827,1.19063 c 0.12555,0.65484 0.19456,2.70884 0.15336,4.56443 -0.0412,1.8556 -0.049,3.37365 -0.0173,3.37344 0.0317,-2e-4 0.36254,-0.98264 0.7352,-2.18319 0.37266,-1.20054 0.83818,-2.47129 1.03449,-2.82387 0.95057,-1.70729 0.6749,2.05326 -0.34763,4.7421 -0.30436,0.80037 -0.55345,1.49556 -0.55352,1.54488 -8e-5,0.0493 0.36056,-0.21384 0.8014,-0.58479 0.75594,-0.63607 2.49909,-1.18723 2.80077,-0.88555 0.0759,0.0759 -0.25704,0.65886 -0.73994,1.29541 -0.97379,1.28365 -1.80177,3.04321 -2.46791,5.24464 -0.24218,0.80036 -0.69791,1.73278 -1.01271,2.07205 l -0.57237,0.61685 0.79375,-0.18082 c 1.78845,-0.40741 4.15268,-1.73208 5.42776,-3.04115 1.46608,-1.50518 2.60972,-3.71533 4.10522,-7.9336 1.49721,-4.22309 2.51968,-6.068 4.22853,-7.62979 0.82259,-0.7518 1.78666,-1.43995 2.14239,-1.52923 0.51518,-0.12931 0.58491,-0.23688 0.34269,-0.52874 -0.39535,-0.47636 -2.18464,-0.47053 -3.09671,0.0101 -0.86471,0.45566 -3.12978,2.77239 -4.23312,4.32965 -0.442,0.62385 -0.86704,1.03168 -0.94454,0.90629 -0.0775,-0.12538 0.20924,-1.31679 0.6372,-2.64756 0.97149,-3.02096 1.21235,-5.44817 0.78946,-7.95538 -0.17842,-1.05776 -0.36878,-1.87883 -0.42302,-1.82458 -0.0542,0.0542 -0.22912,1.26885 -0.38861,2.69913 -0.36398,3.26423 -1.06592,5.55077 -2.0049,6.53085 -0.82655,0.86273 -1.89553,1.07177 -1.51931,0.29709 0.4769,-0.98201 0.16218,-3.46903 -0.94586,-7.47448 -0.62397,-2.25557 -1.23333,-4.99401 -1.35415,-6.08542 -0.14652,-1.32361 -0.16499,-0.6188 -0.0555,2.11667 0.27433,6.85094 0.21958,7.43294 -0.74797,7.95076 -0.53059,0.28396 -0.54227,0.24908 -0.37395,-1.11684 0.25238,-2.04808 -0.36503,-4.53552 -2.19177,-8.83022 -0.86934,-2.04385 -1.72902,-4.3792 -1.91039,-5.18966 -0.34025,-1.52038 -0.25199,-5.72144 0.14086,-6.70467 0.49361,-1.23542 -1.24466,0.82763 -1.99852,2.37194 -0.92452,1.8939 -1.29853,4.22347 -1.31836,8.2114 -0.0165,3.31044 -0.48969,6.37779 -1.24813,8.09004 l -0.51841,1.17038 -0.86018,-1.85209 c -1.365791,-2.94075 -1.854365,-4.56243 -2.143486,-7.11466 -0.148492,-1.31083 -0.317846,-2.4312 -0.376341,-2.48969 -0.05849,-0.0585 -0.238498,0.38439 -0.400007,0.98419 -0.179729,0.66746 -0.269785,3.11572 -0.232127,6.31056 0.05815,4.93319 0.02942,5.28181 -0.522864,6.3445 -0.321414,0.61846 -0.68258,1.12448 -0.80259,1.12448 -0.47184,0 -1.178727,-1.11127 -1.799677,-2.8292 -0.837759,-2.31777 -1.653202,-3.68992 -2.878522,-4.84372 l -0.983448,-0.92604 0.18479,0.77768 c 0.101632,0.42773 0.470908,2.18255 0.820614,3.8996 0.749157,3.67837 1.354605,6.15048 1.756338,7.17131 0.159324,0.40485 0.213066,0.8127 0.119428,0.90634 -0.09364,0.0936 -1.270524,-0.89979 -2.615301,-2.20762 -1.344779,-1.30783 -2.86177,-2.66353 -3.371093,-3.01267 -0.992182,-0.68014 -0.967089,-0.61813 0.473924,1.17118 1.091475,1.35529 2.412566,4.29603 3.246742,7.22725 0.446453,1.56879 1.390142,4.04969 2.09709,5.51311 1.962574,4.06264 4.081915,6.11849 7.54025,7.31436 1.48763,0.51441 2.08989,0.59631 1.39065,0.1891 z"
         id="path109"
         inkscape:connector-curvature="0" />
      <path
         style="fill:#ed9d98;stroke-width:0.26458335"
         d="M 66.276062,203.40521 C 44.594593,181.88382 26.855209,164.1724 26.855209,164.0465 c 0,-0.29907 78.717421,-78.543073 79.018301,-78.543073 0.30978,0 79.10472,78.227053 79.01141,78.441963 -0.0983,0.22646 -78.80385,78.43737 -79.01938,78.52279 -0.0927,0.0368 -17.908009,-17.54158 -39.589478,-39.06297 z m 74.217818,-4.92482 34.52749,-34.52826 -34.59402,-34.59401 -34.59402,-34.594023 -34.594013,34.594023 -34.594018,34.59401 34.527491,34.52826 c 18.99012,18.99053 34.58737,34.52825 34.66054,34.52825 0.0732,0 15.67043,-15.53772 34.66055,-34.52825 z m -68.527342,-0.79376 -33.733727,-33.7345 33.800261,-33.80026 33.800258,-33.800267 33.80027,33.800267 33.80026,33.80026 -33.73373,33.7345 c -18.55355,18.55398 -33.79361,33.73451 -33.8668,33.73451 -0.0732,0 -15.313243,-15.18053 -33.866792,-33.73451 z m 40.745962,21.57158 v -1.84418 l -3.37344,-0.074 -3.37343,-0.074 1.98437,-1.49393 c 1.09141,-0.82166 2.42505,-1.95276 2.96364,-2.51354 2.32856,-2.42449 2.3764,-5.18475 0.12414,-7.16226 -1.14743,-1.00745 -2.24131,-1.27373 -5.10031,-1.24154 -3.47936,0.0392 -5.19656,1.16706 -5.945599,3.90516 -0.153305,0.5604 -0.241141,1.05005 -0.195196,1.08813 0.04594,0.0381 1.052475,0.14679 2.236725,0.2416 2.14486,0.17169 2.15385,0.16976 2.32184,-0.49955 0.56185,-2.23859 3.85934,-2.22806 3.85934,0.0123 0,0.9723 -0.60116,1.74931 -2.4574,3.1762 -2.89725,2.22712 -4.70028,4.12859 -5.50953,5.81033 -1.299438,2.70043 -1.734416,2.51354 5.85027,2.51354 h 6.61458 v -1.84418 z M 97.234376,192.03332 c 0.582083,-0.26534 1.445286,-0.8091 1.918229,-1.20833 l 0.859895,-0.72589 v -3.41606 -3.41607 h -2.645833 -2.645833 v 1.5875 1.5875 h 1.058333 c 1.031645,0 1.058334,0.0232 1.058334,0.91925 0,0.75034 -0.143431,0.99342 -0.780611,1.32291 -1.120151,0.57926 -2.205821,0.5065 -2.85981,-0.19164 -0.863716,-0.92203 -1.122114,-1.90123 -1.121669,-4.25056 5.29e-4,-2.47315 0.484036,-3.76282 1.653235,-4.40918 0.65127,-0.36004 0.80394,-0.35992 1.455209,0.001 0.400182,0.22185 0.845135,0.66833 0.988782,0.99218 0.303014,0.68314 0.365482,0.69012 2.120072,0.23689 1.58215,-0.4087 1.722501,-0.83299 0.846328,-2.55848 -1.531303,-3.01566 -6.501061,-3.24311 -8.840785,-0.40462 -2.227765,2.70267 -2.374058,9.17487 -0.278643,12.32749 1.289796,1.94054 4.777692,2.71693 7.214767,1.60598 z m 24.658974,-0.19529 c 0.9811,-0.72573 1.89419,-2.40303 2.0914,-3.84183 0.37111,-2.7076 -1.15355,-5.03945 -3.86392,-5.90953 -2.01009,-0.64528 -2.64583,-1.09201 -2.64583,-1.8592 0,-1.53746 2.14784,-1.4132 2.69483,0.15591 0.28528,0.81836 0.287,0.81898 1.77193,0.63521 0.8175,-0.10116 1.52795,-0.22395 1.57878,-0.27287 0.3123,-0.30052 -0.39309,-2.41461 -1.05855,-3.17254 -0.99749,-1.13607 -2.27946,-1.55767 -4.14961,-1.36465 -2.56358,0.26459 -4.01238,1.88147 -4.01238,4.47789 0,2.7874 0.80834,3.80518 4.05414,5.10457 1.74418,0.69824 2.29586,1.21105 2.29586,2.13411 0,1.05778 -1.62019,1.83902 -2.54008,1.2248 -0.43997,-0.29378 -0.8995,-1.27855 -0.8995,-1.92764 0,-0.46969 -0.11107,-0.54766 -0.59532,-0.41789 -0.32742,0.0877 -1.11654,0.16117 -1.7536,0.16316 l -1.1583,0.004 0.17312,1.08262 c 0.31866,1.99283 1.39467,3.59779 2.81037,4.19192 1.12967,0.47409 4.35615,0.22148 5.20666,-0.40764 z m -17.28822,-0.0383 c 0.0717,-0.25466 0.20825,-0.84997 0.30343,-1.32291 l 0.17307,-0.8599 h 1.94552 c 2.10788,0 2.00422,-0.0778 2.37933,1.78594 l 0.17307,0.85989 h 1.84889 c 1.6381,0 1.83283,-0.0528 1.70807,-0.46302 -0.0775,-0.25466 -0.98378,-3.61817 -2.01405,-7.47448 -1.03027,-3.8563 -1.93545,-7.21981 -2.0115,-7.47448 -0.11509,-0.38536 -0.45702,-0.46275 -2.03869,-0.46145 l -1.90039,0.002 -1.93312,7.34062 c -1.06322,4.03735 -1.99984,7.60852 -2.08138,7.93594 -0.14242,0.57185 -0.08,0.59531 1.58456,0.59531 1.42425,0 1.75603,-0.0824 1.86319,-0.46302 z m 1.38815,-6.35 c 0.0807,-0.40018 0.35392,-1.62057 0.60716,-2.71198 l 0.46044,-1.98437 0.57685,2.46738 c 0.31727,1.35706 0.57685,2.57745 0.57685,2.71198 0,0.13453 -0.5328,0.2446 -1.18401,0.2446 -1.15082,0 -1.1799,-0.0204 -1.03729,-0.72761 z M 56.091667,167.12739 v -3.175 h 2.116667 2.116667 v -1.5875 -1.5875 h -2.116667 -2.116667 v -1.45521 -1.45521 h 2.513542 2.513542 v -1.71979 -1.71979 h -4.365625 -4.365625 v 7.9375 7.9375 h 1.852083 1.852083 z m 15.875,1.19062 v -1.98437 h -2.778125 -2.778125 v -5.95313 -5.95312 h -1.719791 -1.719792 v 7.9375 7.9375 h 4.497917 4.497916 z m 4.344176,0.66146 0.286033,-1.19062 h 1.981829 1.98183 l 0.229605,1.25677 0.229606,1.25677 h 1.823461 c 1.002903,0 1.818028,-0.0893 1.811387,-0.19844 -0.0066,-0.10914 -0.939731,-3.65125 -2.073542,-7.87135 l -2.061469,-7.67292 h -1.938332 -1.938333 l -2.061469,7.67292 c -1.133811,4.2201 -2.066904,7.76765 -2.073542,7.88344 -0.0066,0.11579 0.781947,0.17532 1.752415,0.13229 l 1.764485,-0.0782 z m 1.575866,-7.39351 c 0.301289,-1.44706 0.594701,-2.58411 0.652028,-2.52678 0.151599,0.1516 1.081154,4.14867 1.091811,4.69477 0.0072,0.37136 -0.218688,0.46302 -1.141298,0.46302 h -1.150335 z m 10.771449,3.09403 c 0.01251,-3.09232 0.113435,-5.32429 0.22428,-4.95994 0.110844,0.36435 0.6003,2.89984 1.087681,5.63442 l 0.886147,4.97196 1.331889,-0.0782 1.331889,-0.0782 0.981538,-5.38618 c 0.539845,-2.9624 1.048147,-5.45279 1.129562,-5.5342 0.08141,-0.0814 0.148023,2.37213 0.148023,5.45232 v 5.60035 h 1.322917 1.322917 v -7.9375 -7.9375 h -2.215489 -2.215488 l -0.679326,3.63802 c -0.373629,2.00091 -0.760169,4.09005 -0.85898,4.64254 -0.09881,0.55249 -0.226097,0.95809 -0.282859,0.90132 -0.09906,-0.0991 -1.685358,-8.54497 -1.685358,-8.97336 0,-0.11469 -1.071563,-0.20852 -2.38125,-0.20852 h -2.38125 v 7.9375 7.9375 h 1.455208 1.455208 l 0.02273,-5.6224 z m 15.119172,0.26458 0.0716,-5.35781 0.89716,5.02709 c 0.49344,2.76489 0.95266,5.17591 1.02049,5.35781 0.075,0.20118 0.61818,0.33073 1.38671,0.33073 h 1.26336 l 0.46233,-2.57969 c 0.25428,-1.41883 0.73361,-4.00844 1.06518,-5.75469 l 0.60285,-3.175 0.0244,5.75469 0.0244,5.75469 h 1.45521 1.45521 v -7.9375 -7.9375 h -2.31668 -2.31668 l -0.76557,4.29948 c -0.42107,2.36471 -0.84339,4.45113 -0.9385,4.63648 -0.0951,0.18535 -0.50246,-1.54105 -0.90523,-3.83646 -0.40276,-2.2954 -0.79142,-4.38182 -0.86369,-4.63648 -0.1118,-0.39398 -0.46408,-0.46302 -2.36252,-0.46302 h -2.23113 v 7.9375 7.9375 h 1.44973 1.44973 z m 14.64551,4.10105 0.24279,-1.25677 h 1.98437 1.98438 l 0.24278,1.25677 0.24278,1.25677 h 1.80774 c 1.27891,0 1.80274,-0.0968 1.79065,-0.33073 -0.009,-0.1819 -0.93318,-3.72401 -2.05286,-7.87136 l -2.03577,-7.54062 -1.89452,-0.0773 c -1.63058,-0.0665 -1.91487,-0.0112 -2.04058,0.39688 -0.0803,0.2608 -0.98634,3.62933 -2.01335,7.48564 -1.02701,3.8563 -1.93142,7.21981 -2.00981,7.47448 -0.1262,0.41 0.0665,0.46302 1.68305,0.46302 h 1.82557 z m 1.1676,-5.15938 c -0.003,-0.68576 0.91066,-4.69635 1.06936,-4.69635 0.0912,0 0.40198,1.13109 0.69067,2.51354 l 0.52488,2.51354 h -1.14184 c -0.73643,0 -1.14228,-0.11742 -1.14307,-0.33073 z m 16.65104,6.07048 c 1.42284,-0.49534 2.20337,-2.18921 2.07947,-4.51278 -0.0905,-1.6966 -0.1599,-1.87354 -1.05809,-2.69667 -0.82628,-0.75723 -0.90598,-0.92682 -0.56753,-1.2077 1.28114,-1.06325 1.57455,-4.02652 0.54933,-5.54785 -0.94179,-1.39753 -1.5056,-1.5561 -5.54831,-1.56043 l -3.63802,-0.004 v 7.9375 7.9375 l 3.63802,-0.0149 c 2.09478,-0.009 4.02282,-0.14889 4.54513,-0.33072 z m -4.74356,-4.68142 v -1.5875 h 1.13175 c 1.93972,0 2.83316,1.16987 2.03394,2.66323 -0.2195,0.41013 -0.56107,0.51177 -1.71979,0.51177 h -1.4459 z m 0,-6.08541 v -1.5875 h 0.94343 c 1.48824,0 1.96698,0.38638 1.96698,1.5875 0,1.20112 -0.47874,1.5875 -1.96698,1.5875 h -0.94343 z m 17.72708,9.12812 v -1.98437 h -2.77812 -2.77813 v -5.95313 -5.95312 h -1.71979 -1.71979 v 7.9375 7.9375 h 4.49791 4.49792 z m 11.1125,0.26459 v -1.7198 h -3.04271 -3.04271 v -1.5875 -1.5875 h 2.77813 2.77812 v -1.5875 -1.5875 h -2.77812 -2.77813 v -1.32291 -1.32292 h 2.91042 2.91042 v -1.71979 -1.71979 h -4.63021 -4.63021 v 7.9375 7.9375 h 4.7625 4.7625 z m -41.01042,-20.90209 v -0.66146 H 105.96563 92.604167 v 0.66146 0.66146 h 13.361463 13.36145 z m -6.83144,-3.11145 c 2.64778,-1.55171 4.13315,-3.88458 6.31806,-9.92294 1.88209,-5.2015 3.13871,-7.10854 5.61656,-8.5237 l 1.30791,-0.74698 -0.69084,-0.45265 c -1.50364,-0.98522 -3.93921,0.41844 -6.3796,3.67669 -0.72645,0.9699 -1.36353,1.63529 -1.41575,1.47864 -0.0522,-0.15665 0.24449,-1.32035 0.65935,-2.58601 0.66028,-2.01435 0.75181,-2.68044 0.73434,-5.34389 -0.014,-2.13647 -0.14637,-3.35792 -0.44438,-4.10104 l -0.42442,-1.05834 -0.0187,2.06168 c -0.0345,3.81004 -1.1196,7.56867 -2.45523,8.50417 -0.85445,0.59849 -1.35877,0.54996 -1.01231,-0.0974 0.48717,-0.91028 0.29229,-2.72063 -0.68543,-6.36739 -1.32642,-4.94736 -1.66226,-6.538 -1.70379,-8.0698 l -0.0359,-1.32291 -0.24933,1.05833 c -0.15993,0.67883 -0.1504,2.0473 0.0266,3.81627 0.3986,3.98429 0.35578,6.13842 -0.13597,6.84048 -0.65429,0.93414 -0.89832,0.69116 -0.73034,-0.72716 0.23288,-1.96631 -0.31003,-4.15341 -2.05837,-8.2921 -0.86628,-2.05067 -1.75069,-4.40629 -1.96535,-5.23472 -0.48992,-1.89064 -0.49608,-4.71312 -0.0142,-6.52308 0.20338,-0.76399 0.32489,-1.38906 0.27001,-1.38906 -0.0549,0 -0.57968,0.63564 -1.16624,1.41253 -1.76788,2.34153 -2.13672,3.80978 -2.40351,9.56767 -0.22682,4.89521 -0.61394,7.29074 -1.42477,8.81671 l -0.37635,0.70829 -1.09188,-2.31931 c -1.249123,-2.65331 -1.835289,-5.07276 -1.873937,-7.73485 l -0.02689,-1.85209 -0.561922,1.19063 c -0.523062,1.10829 -0.557352,1.55989 -0.495831,6.53051 0.06961,5.62415 -0.150567,7.01451 -1.17293,7.40682 -0.58583,0.22481 -0.976291,-0.33435 -1.861712,-2.66606 -0.392342,-1.03321 -0.978262,-2.29528 -1.302043,-2.8046 -0.647264,-1.01818 -2.498474,-2.88545 -2.498474,-2.52015 0,0.58848 1.937237,9.36118 2.384605,10.79858 0.277434,0.8914 0.457001,1.66815 0.399039,1.72612 -0.05797,0.058 -1.40312,-1.12755 -2.989233,-2.63448 -1.586111,-1.50693 -3.290049,-2.96871 -3.786521,-3.24841 -0.89208,-0.50257 -0.888484,-0.49321 0.306126,0.79728 1.636958,1.76835 2.97072,4.2584 3.813503,7.1196 1.099608,3.73309 2.469528,7.11943 3.555095,8.78793 1.852821,2.84775 4.681318,4.94503 7.429885,5.50913 l 0.92605,0.19006 -0.72447,-0.72807 c -0.40298,-0.40498 -0.91532,-1.38855 -1.15455,-2.21647 -0.88014,-3.04595 -1.281642,-3.88633 -2.464766,-5.15893 -0.666858,-0.71729 -0.973415,-1.17837 -0.681233,-1.02462 0.292182,0.15375 1.219753,0.45934 2.061271,0.67909 1.414998,0.36951 1.520458,0.36641 1.402738,-0.0412 -0.07,-0.24239 -0.26328,-0.97649 -0.42949,-1.63134 -0.16621,-0.65484 -0.58163,-1.69664 -0.923165,-2.3151 -0.790993,-1.43237 -0.355582,-1.46792 0.601075,-0.0491 0.3988,0.59148 0.98921,1.39515 1.31204,1.78594 l 0.58695,0.71052 0.008,-0.81427 c 0.005,-0.44786 -0.2893,-1.54682 -0.6531,-2.44214 -0.3638,-0.89533 -0.6568,-2.01718 -0.6511,-2.49302 l 0.0103,-0.86515 0.38601,0.88904 c 0.2123,0.48898 0.91588,1.59394 1.56351,2.45548 1.11225,1.47962 1.19409,1.53545 1.47674,1.00731 0.21893,-0.40906 0.22515,-1.28105 0.0232,-3.24922 -0.30227,-2.94558 -0.12038,-4.5053 0.65954,-5.65588 l 0.50053,-0.7384 0.16421,2.64584 c 0.1384,2.22991 0.49734,4.59516 1.1761,7.74988 0.28078,1.30501 0.64414,0.17319 0.64554,-2.01081 8e-4,-1.26472 0.14394,-2.77574 0.31807,-3.35782 l 0.31659,-1.05834 0.18493,1.45521 c 0.28428,2.23694 0.26796,6.22965 -0.0289,7.06038 -0.23785,0.6657 -0.22665,0.69417 0.10542,0.268 0.20435,-0.26226 0.68019,-1.45289 1.05742,-2.64584 0.93525,-2.95763 1.21082,-3.31656 1.21591,-1.58376 0.003,1.15687 -0.69319,3.90519 -1.44111,5.68576 -0.104,0.24758 0.23122,0.0538 0.74493,-0.43073 0.85933,-0.81045 2.36264,-1.33691 2.90474,-1.01724 0.12107,0.0714 -0.0715,0.44418 -0.42796,0.82839 -1.02253,1.10221 -1.94611,2.91415 -2.57344,5.04878 -0.40046,1.36263 -0.81936,2.19381 -1.36037,2.69918 l -0.78173,0.73025 1.70043,-0.47152 c 0.93524,-0.25933 2.22844,-0.78095 2.87378,-1.15914 z"
         id="path107"
         inkscape:connector-curvature="0" />
      <path
         style="fill:#e9867e;stroke-width:0.26458335"
         d="M 66.195761,203.2779 26.693001,164.08468 60.905354,130.01887 C 79.72215,111.28268 97.55903,93.586234 100.54287,90.69344 l 5.42516,-5.259627 39.50155,39.193147 39.50156,39.19314 -34.47568,34.3304 c -18.96161,18.88172 -36.79795,36.5782 -39.6363,39.32551 l -5.16064,4.99512 z m 74.298119,-4.79751 34.52749,-34.52826 -34.59402,-34.59401 -34.59402,-34.594023 -34.594013,34.594023 -34.594018,34.59401 34.527491,34.52826 c 18.99012,18.99053 34.58737,34.52825 34.66054,34.52825 0.0732,0 15.67043,-15.53772 34.66055,-34.52825 z m -68.518283,-0.7847 -33.724666,-33.72544 33.789791,-33.80945 33.789788,-33.809456 33.79558,33.806486 33.79558,33.80649 -33.72763,33.72841 c -18.5502,18.55062 -33.78752,33.72841 -33.86071,33.72841 -0.0732,0 -15.309166,-15.17645 -33.857733,-33.72545 z m 41.001483,21.5623 v -1.84441 l -3.50573,-0.0738 -3.50572,-0.0738 2.51354,-1.87066 c 3.11235,-2.31632 4.0358,-3.56417 4.16279,-5.62521 0.12627,-2.04914 -0.62849,-3.37083 -2.443,-4.27809 -1.15126,-0.57563 -1.66622,-0.66043 -3.96875,-0.65352 -2.95702,0.009 -4.38379,0.51467 -5.37181,1.9043 -0.52916,0.74427 -1.285423,2.89686 -1.086728,3.09324 0.0597,0.059 1.076898,0.19145 2.260448,0.29434 l 2.1519,0.18708 0.31668,-0.95954 c 0.50293,-1.52389 2.02202,-1.98191 3.13483,-0.94517 1.26879,1.18206 0.62025,2.3279 -2.91362,5.14776 -3.02238,2.41171 -4.0264,3.56368 -4.737767,5.43583 -0.861695,2.2678 -1.341263,2.1061 6.246067,2.1061 h 6.74687 z M 97.253619,192.12901 c 0.447146,-0.18105 1.250818,-0.71359 1.785937,-1.18343 l 0.972944,-0.85426 v -3.41217 -3.41218 h -2.79075 -2.790749 l 0.07877,1.65365 0.07877,1.65364 1.124479,0.0814 c 1.028116,0.0744 1.12448,0.14319 1.12448,0.80285 0,0.81822 -1.0892,1.62933 -2.187954,1.62933 -0.94462,0 -1.985962,-0.93409 -2.299374,-2.06255 -0.494157,-1.77925 -0.342265,-4.57144 0.32014,-5.88503 0.546844,-1.08442 0.685599,-1.1871 1.704224,-1.26114 0.970401,-0.0705 1.166947,0.0121 1.573567,0.66146 0.255561,0.40813 0.497742,0.78871 0.538181,0.84575 0.04044,0.057 0.79085,-0.0485 1.667579,-0.23459 1.854807,-0.39362 1.979277,-0.72287 0.998741,-2.64182 -0.829093,-1.62257 -1.720763,-2.19675 -3.625406,-2.33452 -2.363872,-0.17098 -3.349191,0.1066 -4.656804,1.31191 -1.729147,1.59388 -2.328201,3.35434 -2.326857,6.83803 0.0016,3.79651 0.949598,6.30666 2.853293,7.55401 1.291175,0.84601 4.089398,0.96531 5.856788,0.2497 z m 23.523821,0.26226 c 2.73107,-0.56615 4.24154,-5.41014 2.54366,-8.15737 -0.57943,-0.93755 -2.36315,-2.03093 -4.1956,-2.57182 -1.37709,-0.40647 -1.76099,-0.82926 -1.54271,-1.69896 0.13883,-0.55314 0.32395,-0.6649 1.10138,-0.6649 0.81791,0 0.98277,0.11553 1.32142,0.92604 0.33341,0.79795 0.50996,0.92604 1.27635,0.92604 0.48918,0 1.24617,-0.0713 1.68221,-0.15856 0.77467,-0.15493 0.78735,-0.1828 0.55466,-1.21841 -0.56559,-2.51727 -1.97332,-3.63285 -4.59868,-3.6443 -2.92524,-0.0128 -4.76303,1.83783 -4.72381,4.75669 0.0345,2.56834 0.95684,3.64679 4.25229,4.97202 2.09905,0.8441 2.6155,1.6326 1.84228,2.81268 -0.9035,1.37891 -3.08047,0.40787 -3.08047,-1.37405 0,-0.63502 -0.0496,-0.65495 -1.22756,-0.49349 -0.67515,0.0925 -1.46473,0.16826 -1.75462,0.16826 -0.46182,0 -0.50958,0.13048 -0.38573,1.05383 0.19473,1.45187 1.14054,3.31069 1.95661,3.8454 0.37366,0.24483 1.23101,0.53536 1.90523,0.64563 1.17722,0.19253 1.63163,0.17409 3.07309,-0.12473 z m -16.17231,-0.3269 c 0.0717,-0.25466 0.20825,-0.84998 0.30343,-1.32292 l 0.17307,-0.8599 h 1.94552 c 2.10788,0 2.00422,-0.0778 2.37933,1.78594 l 0.17307,0.8599 h 1.83106 c 1.00708,0 1.83106,-0.0987 1.83106,-0.21939 0,-0.12067 -0.93656,-3.72231 -2.08124,-8.00365 l -2.08124,-7.78425 -1.96897,-0.0764 -1.96897,-0.0763 -2.03521,7.65535 c -1.11936,4.21045 -2.03521,7.84646 -2.03521,8.08001 0,0.65578 3.34909,0.61942 3.5343,-0.0384 z m 1.78506,-8.20209 c 0.27747,-1.2733 0.54469,-2.43416 0.59383,-2.57968 0.0696,-0.206 1.23056,4.30616 1.23056,4.78248 0,0.0618 -0.524,0.11231 -1.16444,0.11231 h -1.16444 z m -50.356609,-16.65818 0.0742,-3.23057 2.174753,-0.0767 2.174753,-0.0767 v -1.5875 -1.5875 l -2.182812,-0.0769 -2.182813,-0.0769 v -1.31221 -1.31222 h 2.513542 2.513542 v -1.71979 -1.71979 h -4.365625 -4.365625 v 7.8934 c 0,4.34137 0.08441,7.97781 0.187579,8.08098 0.103168,0.10317 0.906841,0.15278 1.785937,0.11024 l 1.598359,-0.0773 z m 15.933086,1.2462 v -2.11666 h -2.645833 -2.645833 v -5.95313 -5.95312 h -1.852084 -1.852083 v 8.06979 8.06979 h 4.497917 4.497916 z m 4.328375,0.71703 0.230653,-1.26735 1.998374,0.0767 1.998374,0.0767 0.286176,1.19062 0.286173,1.19063 1.785938,0.0782 c 1.576319,0.0691 1.783781,0.0225 1.767562,-0.39687 -0.01011,-0.26131 -0.935141,-3.86839 -2.05563,-8.01574 l -2.037255,-7.54062 h -1.976083 -1.97608 l -2.036619,7.54062 c -1.12014,4.14735 -2.044309,7.75443 -2.053707,8.01574 -0.01508,0.41921 0.192855,0.4659 1.767192,0.39687 l 1.784276,-0.0782 z m 1.236133,-5.41338 c 0.0046,-0.25466 0.222814,-1.41552 0.48505,-2.57969 0.323162,-1.43464 0.529659,-1.94616 0.640863,-1.5875 0.237056,0.76457 0.982496,4.0893 0.982496,4.38204 0,0.1365 -0.47625,0.24817 -1.058333,0.24817 -0.834695,0 -1.05659,-0.0978 -1.050076,-0.46302 z m 11.165126,1.19062 0.07141,-5.62239 0.627301,3.30729 c 0.345014,1.81901 0.821264,4.31932 1.058333,5.55625 l 0.431033,2.24896 h 1.32267 1.322668 l 0.926291,-5.15938 0.926287,-5.15937 0.132292,5.15937 0.132292,5.15938 h 1.455208 1.455208 l 0.07003,-8.00365 0.07003,-8.00364 h -2.367301 c -2.028129,0 -2.386124,0.0663 -2.498693,0.46302 -0.07227,0.25466 -0.465619,2.36729 -0.874117,4.69473 l -0.742728,4.23171 -0.698045,-3.70254 c -0.383926,-2.0364 -0.777896,-4.14903 -0.875493,-4.69474 l -0.177446,-0.99218 h -2.369259 -2.369261 v 7.8934 c 0,4.34137 0.07937,7.97278 0.176389,8.06979 0.09701,0.097 0.749488,0.17639 1.449946,0.17639 h 1.273556 z m 15.020369,0.19844 0.13229,-5.29166 0.89716,5.02708 c 0.49344,2.76489 0.95266,5.17591 1.02049,5.35781 0.19553,0.52433 2.42651,0.42996 2.63425,-0.11143 0.0933,-0.24318 0.61407,-2.83279 1.15723,-5.75468 l 0.98754,-5.31253 0.0251,5.75468 0.0251,5.75469 h 1.45521 1.45521 v -8.06979 -8.06979 H 111.125 c -1.30969,0 -2.38125,0.0997 -2.38125,0.22151 0,0.31078 -1.29383,7.44085 -1.49617,8.24515 -0.11284,0.44851 -0.43643,-0.78663 -1.00513,-3.83645 l -0.83872,-4.49792 -2.43103,-0.0761 -2.43103,-0.0761 v 7.90333 c 0,4.34683 0.0847,7.98806 0.18827,8.09161 0.10355,0.10355 0.78816,0.15316 1.52136,0.11024 l 1.33308,-0.078 z m 14.66257,4.0349 0.24278,-1.25677 h 2.02798 2.02798 l 0.24278,1.25677 0.24278,1.25677 1.78594,0.0782 c 1.32192,0.0579 1.78887,-0.0108 1.79722,-0.26458 0.006,-0.18855 -0.91549,-3.82989 -2.04822,-8.09186 l -2.05951,-7.74904 -1.95825,0.0761 -1.95826,0.0761 -2.06767,7.67292 c -1.13722,4.2201 -2.07275,7.82718 -2.07894,8.01573 -0.008,0.25539 0.44419,0.32287 1.77467,0.26458 l 1.78594,-0.0782 z m 1.2112,-5.15938 c -0.004,-0.58369 0.9285,-4.56406 1.0688,-4.56406 0.15847,0 1.04909,3.76747 1.04909,4.43782 0,0.20241 -0.39856,0.32468 -1.05833,0.32468 -0.58208,0 -1.05889,-0.0893 -1.05956,-0.19844 z m 16.78866,5.8707 c 1.36095,-0.6777 1.99798,-1.9182 1.99798,-3.89069 0,-1.88324 -0.54452,-3.26686 -1.44759,-3.67833 l -0.68134,-0.31044 0.65916,-0.68802 c 1.37484,-1.43501 1.30933,-4.5305 -0.12628,-5.96743 l -0.79391,-0.79464 -4.09669,-0.0848 -4.09668,-0.0848 v 7.91202 c 0,4.35162 0.0893,8.00426 0.19844,8.11697 0.10914,0.11272 1.8091,0.155 3.77769,0.094 2.85311,-0.0885 3.7882,-0.21503 4.60922,-0.62387 z m -4.88118,-4.64759 v -1.62116 l 1.36733,0.13138 c 1.45734,0.14003 2.07225,0.63418 2.07225,1.6653 0,0.9074 -0.82046,1.44564 -2.20365,1.44564 h -1.23593 z m 0,-6.05175 v -1.32292 h 1.31787 c 1.18508,0 1.33461,0.0666 1.4839,0.66146 0.0913,0.3638 0.0913,0.95911 0,1.32292 -0.14929,0.5948 -0.29882,0.66145 -1.4839,0.66145 h -1.31787 z m 17.72708,9.26041 v -2.11666 h -2.64583 -2.64584 v -5.95313 -5.95312 h -1.85208 -1.85208 v 8.06979 8.06979 h 4.49791 4.49792 z m 11.1125,0.1323 v -1.98438 h -3.04271 -3.04271 v -1.45521 -1.45521 h 2.77813 2.77812 v -1.71979 -1.71979 h -2.77812 -2.77813 v -1.19062 -1.19063 h 3.04271 3.04271 v -1.71979 -1.71979 h -4.7625 -4.7625 v 8.06979 8.06979 h 4.7625 4.7625 z m -41.01042,-20.7698 v -0.79375 H 105.96563 92.604167 v 0.79375 0.79375 h 13.361463 13.36145 z m -13.29531,-1.5053 c -0.25466,-0.0666 -0.67138,-0.0666 -0.92604,0 -0.25466,0.0666 -0.0463,0.121 0.46302,0.121 0.50932,0 0.71768,-0.0545 0.46302,-0.121 z m -2.76148,-0.37389 c -1.39072,-0.40237 -1.91496,-1.31801 -2.96802,-5.18398 -0.18667,-0.68531 -0.80808,-1.66338 -1.624063,-2.5562 l -1.321702,-1.44615 1.261851,0.46958 c 0.69402,0.25827 1.586614,0.54695 1.983554,0.64153 0.69556,0.16572 0.71561,0.14067 0.55349,-0.69151 -0.28804,-1.47853 -1.1272,-3.71486 -1.582941,-4.21844 -0.239646,-0.26481 -0.316661,-0.48147 -0.171141,-0.48147 0.363665,0 0.934562,0.69609 1.790222,2.18281 0.39783,0.69123 0.83107,1.25677 0.96277,1.25677 0.43999,0 0.24629,-1.5063 -0.42202,-3.28183 -0.3638,-0.96653 -0.65391,-2.0225 -0.64468,-2.3466 l 0.0168,-0.58928 0.24687,0.61581 c 0.49719,1.24024 2.74128,4.00901 3.02126,3.72766 0.16012,-0.1609 0.2702,-1.90953 0.2702,-4.29187 0,-3.58242 0.0577,-4.10581 0.52917,-4.80496 l 0.52917,-0.78461 0.17726,2.90128 c 0.16296,2.66712 1.03589,7.90679 1.37352,8.24442 0.22769,0.22769 0.39162,-0.91375 0.52756,-3.67338 0.0695,-1.40996 0.23916,-2.76528 0.37713,-3.01181 0.37188,-0.66452 0.69404,6.05925 0.3608,7.53046 -0.42903,1.89417 0.31048,0.78303 1.12511,-1.6905 0.98803,-3.00006 1.294,-3.31869 1.12131,-1.16768 -0.077,0.9585 -0.44542,2.55437 -0.81881,3.54638 -0.66056,1.75495 -0.7486,2.58963 -0.15643,1.48316 0.36482,-0.68168 1.61407,-1.34831 2.5267,-1.34831 h 0.68731 l -0.77025,1.12448 c -1.07349,1.56716 -1.79138,3.03938 -2.16177,4.43325 -0.52548,1.97753 -1.10032,2.94974 -1.96728,3.32724 -1.20694,0.52554 -0.17256,0.44914 1.66583,-0.12303 2.12613,-0.66173 3.66899,-1.59484 4.96907,-3.00526 1.56075,-1.69321 2.34214,-3.16982 3.77945,-7.14208 2.19648,-6.07035 3.41332,-8.02026 5.864,-9.39666 0.71225,-0.40003 1.29511,-0.80217 1.29526,-0.89366 1.5e-4,-0.0915 -0.36308,-0.31684 -0.80718,-0.50079 -1.68661,-0.69862 -3.86672,0.64749 -6.38968,3.94528 -1.49127,1.94926 -1.50102,1.89097 -0.34294,-2.05065 0.64442,-2.19335 0.71303,-2.78354 0.59975,-5.15937 -0.0759,-1.59276 -0.29573,-3.05895 -0.54096,-3.60875 l -0.41305,-0.92605 -0.0236,1.7198 c -0.0511,3.72491 -0.91552,7.15986 -2.12869,8.45857 -0.86816,0.92937 -1.78858,1.12865 -1.33978,0.29007 0.52745,-0.98555 0.26398,-3.12406 -0.92045,-7.47105 -0.65688,-2.41084 -1.29059,-5.26213 -1.40824,-6.3362 -0.20709,-1.89069 -0.22084,-1.91968 -0.43194,-0.91094 -0.12697,0.60676 -0.0901,2.3748 0.0884,4.23333 0.41056,4.27661 0.38538,5.73037 -0.11155,6.43984 -0.22654,0.32343 -0.49443,0.58831 -0.59532,0.58864 -0.10089,2.6e-4 -0.14405,-0.82911 -0.0959,-1.84318 0.10426,-2.19686 -0.3115,-3.79598 -1.99741,-7.68242 -0.66283,-1.52797 -1.43389,-3.43297 -1.71347,-4.23333 -0.70292,-2.01222 -0.88767,-5.55698 -0.38611,-7.40798 0.21682,-0.80017 0.35476,-1.49431 0.30652,-1.54254 -0.0482,-0.0482 -0.5656,0.5169 -1.14971,1.25586 -1.76836,2.23715 -2.17022,3.71714 -2.4485,9.01758 -0.2781,5.2969 -0.57676,7.43571 -1.2637,9.04958 l -0.4839,1.13687 -0.975,-2.10786 c -1.313085,-2.83878 -1.7257,-4.36535 -1.976215,-7.31144 l -0.211484,-2.48695 -0.508855,1.05834 c -0.459052,0.95474 -0.501869,1.58432 -0.437478,6.4323 0.06454,4.85906 0.02159,5.4865 -0.448143,6.54844 -0.285737,0.64596 -0.626827,1.17447 -0.757976,1.17447 -0.49681,0 -1.173162,-1.07304 -1.89362,-3.00425 -0.809223,-2.16915 -2.24826,-4.33791 -3.362963,-5.06829 -0.6145,-0.40264 -0.681791,-0.40727 -0.539771,-0.0372 0.08924,0.23255 0.590233,2.45972 1.113322,4.94928 0.523092,2.48955 1.172162,5.23682 1.442381,6.10504 0.589458,1.89392 0.706133,1.95451 -2.921143,-1.51696 -1.393716,-1.33385 -2.937523,-2.63383 -3.430677,-2.88885 l -0.896647,-0.46368 1.213226,1.3494 c 1.66161,1.84811 3.187838,4.90961 4.177964,8.38068 1.672206,5.86224 4.434478,10.24095 7.434477,11.785 1.509222,0.77678 3.899742,1.55077 4.751312,1.53837 0.58225,-0.008 0.56048,-0.0388 -0.18179,-0.2536 z"
         id="path105"
         inkscape:connector-curvature="0" />
      <path
         style="fill:#e6776e;stroke-width:0.26458335"
         d="M 66.19647,203.27744 26.693459,164.08468 60.905584,130.01913 C 79.722253,111.28307 97.55903,93.586628 100.54287,90.693694 l 5.42516,-5.259881 39.50155,39.193147 39.50156,39.19314 -34.47568,34.3304 c -18.96161,18.88172 -36.79774,36.57799 -39.63582,39.32505 l -5.16016,4.99466 z m 74.29741,-4.79705 34.52749,-34.52826 -34.59402,-34.59401 -34.59402,-34.594023 -34.594013,34.594023 -34.594018,34.59401 34.527491,34.52826 c 18.99012,18.99053 34.58737,34.52825 34.66054,34.52825 0.0732,0 15.67043,-15.53772 34.66055,-34.52825 z m -68.518283,-0.7847 -33.724666,-33.72544 33.790267,-33.80945 33.790262,-33.809456 33.79411,33.807476 33.79411,33.80749 -33.72664,33.72741 c -18.54965,18.55008 -33.78652,33.72742 -33.85971,33.72742 -0.0732,0 -15.309166,-15.17645 -33.857733,-33.72545 z m 41.001483,21.5623 v -1.84441 l -3.48565,-0.0738 -3.48565,-0.0738 2.55869,-1.92252 c 3.09371,-2.3245 3.94947,-3.49469 4.07768,-5.57589 0.11926,-1.936 -0.63926,-3.33429 -2.3189,-4.2748 -1.0547,-0.59057 -1.48314,-0.66171 -3.96075,-0.65763 -3.03771,0.005 -4.42192,0.46554 -5.49336,1.82765 -0.49834,0.63354 -1.301282,2.97202 -1.091587,3.17913 0.05646,0.0558 1.068417,0.18535 2.248787,0.28796 l 2.14614,0.18657 0.30009,-0.86084 c 0.55776,-1.6 2.00334,-2.06516 3.12965,-1.00705 1.28025,1.20273 0.67698,2.2734 -2.88031,5.11195 -1.45805,1.16345 -2.99546,2.55029 -3.41646,3.08185 -0.92362,1.16616 -1.808339,3.04869 -1.816306,3.86477 l -0.0058,0.59531 h 6.746876 6.74687 z M 97.253619,192.12901 c 0.447146,-0.18105 1.250818,-0.71359 1.785937,-1.18343 l 0.972944,-0.85426 v -3.41217 -3.41218 h -2.79075 -2.790749 l 0.07877,1.65365 0.07877,1.65364 1.124479,0.0814 c 1.038712,0.0752 1.12448,0.13844 1.12448,0.82975 0,0.59107 -0.189167,0.83816 -0.899883,1.17541 -0.494935,0.23487 -1.133721,0.42702 -1.419526,0.42702 -0.824902,0 -1.871671,-0.99589 -2.167919,-2.06255 -0.41315,-1.48758 -0.333619,-4.39525 0.153519,-5.61273 0.482285,-1.20534 1.01228,-1.58513 2.212054,-1.58513 0.637799,0 0.925065,0.17858 1.274165,0.79208 0.507664,0.89215 0.708522,0.92633 2.567381,0.43687 1.503339,-0.39586 1.544499,-0.57625 0.579112,-2.53812 -0.799144,-1.62402 -1.692992,-2.20425 -3.609205,-2.34286 -2.363872,-0.17098 -3.349191,0.1066 -4.656804,1.31191 -1.729147,1.59388 -2.328201,3.35434 -2.326857,6.83803 0.0016,3.79651 0.949598,6.30666 2.853293,7.55401 1.291175,0.84601 4.089398,0.96531 5.856788,0.2497 z m 24.224761,-0.0263 c 1.02155,-0.51372 2.02621,-1.82556 2.36879,-3.09307 0.39496,-1.46126 0.15042,-3.68114 -0.52607,-4.77573 -0.57943,-0.93755 -2.36315,-2.03092 -4.1956,-2.57181 -1.37709,-0.40648 -1.76099,-0.82926 -1.54271,-1.69897 0.13883,-0.55314 0.32395,-0.66489 1.10138,-0.66489 0.81791,0 0.98277,0.11553 1.32142,0.92604 0.33341,0.79794 0.50996,0.92604 1.27635,0.92604 0.48918,0 1.24617,-0.0713 1.68221,-0.15856 0.77467,-0.15493 0.78735,-0.1828 0.55466,-1.21842 -0.57415,-2.55536 -1.95036,-3.6501 -4.5886,-3.6501 -2.63453,0 -4.08781,1.13273 -4.66319,3.63463 -0.63211,2.7486 0.6822,4.76279 3.90883,5.99034 1.52429,0.5799 1.95414,0.87088 2.21427,1.49888 0.43805,1.05755 -0.2053,2.10532 -1.29271,2.10532 -0.90741,0 -1.55702,-0.66526 -1.79075,-1.83389 -0.17293,-0.86465 -0.18616,-0.87155 -1.36299,-0.71025 -0.6536,0.0896 -1.42605,0.16289 -1.71656,0.16289 -0.4756,0 -0.51157,0.12135 -0.36118,1.21855 0.20009,1.45981 1.08588,3.1255 1.97024,3.70496 1.29509,0.84857 4.15852,0.95415 5.64221,0.20804 z m -16.87325,-0.0383 c 0.0717,-0.25466 0.20825,-0.84998 0.30343,-1.32292 l 0.17307,-0.8599 h 1.94552 c 2.10788,0 2.00422,-0.0778 2.37933,1.78594 l 0.17307,0.8599 h 1.83106 c 1.29287,0 1.82862,-0.0972 1.82278,-0.33073 -0.005,-0.1819 -0.93878,-3.78354 -2.07605,-8.00365 l -2.06777,-7.67291 -1.97865,-0.0765 -1.97864,-0.0764 -2.11943,7.94729 c -1.16569,4.371 -2.05967,8.00704 -1.98663,8.08008 0.0731,0.0731 0.87885,0.13281 1.79067,0.13281 1.35287,0 1.68185,-0.0852 1.78824,-0.46302 z m 1.79403,-8.20209 c 0.2796,-1.2733 0.54568,-2.43416 0.59128,-2.57968 0.0649,-0.20714 1.22414,4.32174 1.22414,4.78248 0,0.0618 -0.52285,0.11231 -1.16189,0.11231 h -1.16189 z m -50.365579,-16.65818 0.0742,-3.23057 2.174753,-0.0767 2.174753,-0.0767 v -1.5875 -1.5875 l -2.182812,-0.0769 -2.182813,-0.0769 v -1.31221 -1.31222 h 2.513542 2.513542 v -1.71979 -1.71979 h -4.365625 -4.365625 v 7.8934 c 0,4.34137 0.08441,7.97781 0.187579,8.08098 0.103168,0.10317 0.906841,0.15278 1.785937,0.11024 l 1.598359,-0.0773 z m 15.933086,1.2462 v -2.11666 h -2.645833 -2.645833 v -5.95313 -5.95312 h -1.852084 -1.852083 v 8.06979 8.06979 h 4.497917 4.497916 z m 4.328375,0.71703 0.230653,-1.26735 1.998374,0.0767 1.998374,0.0767 0.286176,1.19062 0.286173,1.19063 1.785938,0.0782 c 1.324758,0.058 1.786922,-0.0103 1.789747,-0.26458 0.0021,-0.18855 -0.920639,-3.82425 -2.050521,-8.07934 l -2.05433,-7.73653 h -1.984375 -1.984375 l -2.054331,7.73653 c -1.129882,4.25509 -2.052617,7.89079 -2.050521,8.07934 0.0028,0.25427 0.46469,0.32261 1.788086,0.26458 l 1.784276,-0.0782 z m 1.243041,-5.41338 c 0.0083,-0.25466 0.227092,-1.41552 0.486114,-2.57969 0.322625,-1.45003 0.524028,-1.95 0.639479,-1.5875 0.161076,0.50577 0.975908,4.27573 0.975908,4.51522 0,0.0632 -0.47625,0.11499 -1.058333,0.11499 -0.837325,0 -1.055167,-0.0967 -1.043168,-0.46302 z m 11.158218,1.19062 0.07141,-5.62239 0.492464,2.64583 c 0.270854,1.45521 0.747104,3.95552 1.058333,5.55625 l 0.56587,2.91042 h 1.322916 1.322917 l 0.965054,-5.15938 0.965055,-5.15937 0.09328,5.15937 0.09328,5.15938 h 1.455208 1.455208 l 0.07003,-8.00365 0.07003,-8.00364 h -2.380088 c -2.252036,0 -2.38732,0.032 -2.514476,0.59531 -0.07391,0.32742 -0.444693,2.32172 -0.823955,4.43177 -0.379264,2.11005 -0.723222,3.87151 -0.764355,3.91436 -0.04113,0.0428 -0.330869,-1.32637 -0.64386,-3.04271 -0.312992,-1.71633 -0.693174,-3.74569 -0.844849,-4.50967 l -0.275778,-1.38906 h -2.362491 -2.362491 v 7.8934 c 0,4.34137 0.07937,7.97278 0.176389,8.06979 0.09701,0.097 0.749488,0.17639 1.449946,0.17639 h 1.273556 z m 14.983039,0.19844 0.095,-5.29166 0.97568,5.29166 0.97569,5.29167 1.24547,0.0807 c 1.54727,0.10024 1.42893,0.3813 2.59618,-6.1661 l 0.89621,-5.02708 0.0714,5.62239 0.0714,5.6224 h 1.44994 1.44995 v -8.06979 -8.06979 H 111.125 c -1.30969,0 -2.38125,0.0997 -2.38125,0.22151 0,0.30995 -1.29343,7.43902 -1.49592,8.24515 -0.11208,0.44624 -0.43434,-0.80204 -0.99041,-3.83645 l -0.82427,-4.49792 -2.44574,-0.0761 -2.44574,-0.0761 v 7.90333 c 0,4.34683 0.0847,7.98806 0.18827,8.09161 0.10355,0.10355 0.78816,0.15316 1.52136,0.11024 l 1.33308,-0.078 z m 14.72184,4.10104 0.28821,-1.19062 1.99237,-0.0764 1.99237,-0.0764 0.24471,1.26707 0.2447,1.26707 h 1.85209 c 1.08475,0 1.83566,-0.10962 1.81245,-0.26458 -0.0218,-0.14553 -0.96799,-3.75175 -2.10265,-8.01384 l -2.06304,-7.74925 -1.97302,0.0763 -1.97302,0.0763 -2.06972,7.67292 c -1.13835,4.2201 -2.07249,7.82718 -2.07588,8.01573 -0.005,0.25485 0.4491,0.32274 1.76803,0.26458 l 1.77419,-0.0782 z m 1.28274,-5.75468 c 0.0847,-0.40019 0.29772,-1.47175 0.47345,-2.38125 0.17573,-0.90951 0.39356,-1.65365 0.48407,-1.65365 0.13982,0 1.07172,3.98198 1.06812,4.56406 -7.9e-4,0.10914 -0.49136,0.19844 -1.0904,0.19844 -1.04913,0 -1.08352,-0.0268 -0.93524,-0.7276 z m 16.85154,6.3894 c 1.26276,-0.7414 1.84181,-2.02184 1.84063,-4.07017 -0.001,-1.91768 -0.60005,-3.26292 -1.59311,-3.5781 l -0.57228,-0.18164 0.67094,-0.70188 c 1.50214,-1.5714 1.37335,-4.68755 -0.25273,-6.11527 l -0.91607,-0.80432 h -3.95955 -3.95954 v 7.8934 c 0,4.34137 0.0893,7.98635 0.19844,8.09996 0.10914,0.11361 1.88348,0.15118 3.94298,0.0835 3.04931,-0.10021 3.90343,-0.21634 4.60029,-0.62548 z m -4.9846,-4.53732 c 0.0773,-1.48289 0.0998,-1.52335 0.88798,-1.60044 1.91852,-0.18764 3.02273,1.09192 2.12485,2.46226 -0.36575,0.55821 -0.63647,0.65953 -1.76216,0.65953 h -1.33002 z m -0.0529,-6.15156 v -1.32292 h 1.13771 c 1.30682,0 1.7727,0.34768 1.7727,1.32292 0,0.97524 -0.46588,1.32291 -1.7727,1.32291 h -1.13771 z m 17.72708,9.26041 v -2.11666 h -2.64583 -2.64584 v -5.95313 -5.95312 h -1.85208 -1.85208 v 8.06979 8.06979 h 4.49791 4.49792 z m 11.1125,0.1323 v -1.98438 h -3.04271 -3.04271 v -1.45521 -1.45521 h 2.77813 2.77812 v -1.71979 -1.71979 h -2.77812 -2.77813 v -1.19062 -1.19063 h 3.04271 3.04271 v -1.71979 -1.71979 h -4.7625 -4.7625 v 8.06979 8.06979 h 4.7625 4.7625 z m -41.01042,-20.7698 v -0.79375 H 105.96563 92.604167 v 0.79375 0.79375 h 13.361463 13.36145 z m -13.29222,-1.5047 c -0.25297,-0.0662 -0.72922,-0.0686 -1.05834,-0.005 -0.32911,0.0633 -0.12214,0.11747 0.45994,0.12041 0.58208,0.003 0.85136,-0.0488 0.5984,-0.11507 z m -2.76457,-0.37449 c -1.39558,-0.40378 -1.90737,-1.30161 -2.98234,-5.23179 -0.19783,-0.72329 -0.769408,-1.64185 -1.522902,-2.4474 -0.663416,-0.70924 -1.16015,-1.288 -1.103857,-1.28612 0.05629,0.002 0.864142,0.24219 1.795222,0.53404 0.931077,0.29184 1.739797,0.4837 1.797157,0.42634 0.23813,-0.23814 -0.83156,-3.71211 -1.401732,-4.5523 -0.339426,-0.50018 -0.520118,-0.90941 -0.401537,-0.90941 0.311502,0 0.899069,0.74601 1.719209,2.18281 0.39456,0.69123 0.83142,1.25677 0.97081,1.25677 0.45298,0 0.26838,-1.48479 -0.40803,-3.28183 -0.3638,-0.96653 -0.65391,-2.0225 -0.64468,-2.3466 l 0.0168,-0.58928 0.24687,0.61581 c 0.49719,1.24024 2.74128,4.00901 3.02126,3.72766 0.16012,-0.1609 0.2702,-1.90953 0.2702,-4.29187 0,-3.58232 0.0577,-4.10586 0.52917,-4.80525 l 0.52917,-0.7849 0.15969,2.76927 c 0.1348,2.33764 0.79171,6.77388 1.21324,8.19324 0.26275,0.88474 0.54673,-0.45644 0.6799,-3.21095 0.0748,-1.54775 0.25247,-3.02213 0.39476,-3.27639 0.37948,-0.67809 0.70795,6.01854 0.36868,7.51638 -0.42903,1.89417 0.31048,0.78303 1.12511,-1.6905 0.3834,-1.16416 0.82359,-2.29526 0.97819,-2.51354 0.50117,-0.7076 0.0793,2.64922 -0.5486,4.36563 -0.93359,2.55185 -0.95878,2.7633 -0.23155,1.94315 0.77426,-0.87317 1.56763,-1.28169 2.48917,-1.28169 h 0.71025 l -0.65532,0.85989 c -0.93988,1.23329 -1.91574,3.26322 -2.43448,5.0641 -0.585,2.03088 -1.0827,2.75441 -2.09692,3.04836 -1.3517,0.39177 0.0614,0.32658 1.55204,-0.0716 3.0868,-0.82456 5.56807,-2.76933 7.13648,-5.59346 0.4849,-0.87313 1.4277,-3.10629 2.09512,-4.96258 2.08406,-5.79643 3.59968,-8.11704 6.06355,-9.28403 1.20674,-0.57157 1.15074,-1.01187 -0.1711,-1.34512 -1.68627,-0.42513 -3.63541,0.88307 -6.03135,4.04803 -0.70812,0.93541 -1.28749,1.52524 -1.28749,1.31075 0,-0.2145 0.32002,-1.27405 0.71115,-2.35456 0.63135,-1.74414 0.71234,-2.35053 0.72175,-5.40416 0.008,-2.55817 -0.0949,-3.67689 -0.40115,-4.36562 l -0.41176,-0.92605 -0.17746,2.77813 c -0.2745,4.29713 -1.2012,7.10296 -2.58174,7.81686 -0.9808,0.5072 -1.1086,0.48647 -0.78052,-0.12655 0.50979,-0.95255 0.27774,-3.06368 -0.75902,-6.90548 -1.36675,-5.0646 -1.71217,-6.91435 -1.53618,-8.22645 0.11161,-0.83213 0.073,-1.01602 -0.16377,-0.77934 -0.36412,0.36405 -0.39831,3.24662 -0.0928,7.82408 0.16314,2.44441 0.13211,3.3224 -0.13486,3.81557 -0.64495,1.1914 -0.87924,0.88594 -0.78842,-1.02788 0.10644,-2.24268 -0.2973,-3.73855 -2.21637,-8.21164 -2.20535,-5.14039 -2.63325,-7.67186 -1.85562,-10.97803 0.20508,-0.87192 0.33813,-1.62006 0.29566,-1.66253 -0.20481,-0.20482 -1.88808,2.06276 -2.46231,3.31707 -0.79045,1.72655 -1.03455,3.37074 -1.3646,9.19119 -0.19373,3.41658 -0.39224,4.89547 -0.82572,6.15157 -0.31386,0.9095 -0.61566,1.65364 -0.67065,1.65364 -0.2369,0 -2.039633,-4.2369 -2.407853,-5.65908 -0.221867,-0.85692 -0.490472,-2.58333 -0.596898,-3.83646 l -0.193505,-2.27842 -0.506892,1.05834 c -0.450646,0.9409 -0.507169,1.68953 -0.509402,6.74687 -0.0021,4.9467 -0.06378,5.80069 -0.472326,6.54844 -0.258398,0.47294 -0.567368,0.8599 -0.686597,0.8599 -0.461134,0 -1.075052,-1.01047 -1.86627,-3.07176 -0.851056,-2.21718 -2.221571,-4.24919 -3.376147,-5.0057 -0.626533,-0.41052 -0.654285,-0.40773 -0.510625,0.0514 0.08355,0.26701 0.582232,2.50514 1.108173,4.97363 0.525944,2.46848 1.172472,5.18284 1.43673,6.0319 0.579853,1.86307 0.670187,1.91092 -2.911491,-1.54219 -1.382448,-1.33283 -2.922238,-2.63247 -3.421755,-2.88811 l -0.908217,-0.46478 1.256035,1.42084 c 1.470967,1.66398 3.390765,5.45755 3.999508,7.90314 1.47882,5.94105 4.429395,10.58762 7.818938,12.31326 1.598304,0.81371 3.472824,1.39786 4.484654,1.39755 0.57431,-1.7e-4 0.55035,-0.0324 -0.18179,-0.24417 z"
         id="path103"
         inkscape:connector-curvature="0" />
      <path
         style="fill:#e05349;stroke-width:0.26458335"
         d="M 66.226016,203.27365 26.750992,164.08468 51.144767,139.80849 c 13.416575,-13.35191 31.239869,-31.04666 39.607317,-39.32168 l 15.213546,-15.045495 39.47325,39.189385 39.47326,39.1894 -24.65659,24.54076 c -13.56112,13.49743 -31.38362,31.192 -39.60555,39.32127 l -14.94896,14.78049 z m 74.267864,-4.79326 34.52749,-34.52826 -34.59402,-34.59401 -34.59402,-34.594023 -34.594013,34.594023 -34.594018,34.59401 34.527491,34.52826 c 18.99012,18.99053 34.58737,34.52825 34.66054,34.52825 0.0732,0 15.67043,-15.53772 34.66055,-34.52825 z m -68.395051,-0.92605 -33.601433,-33.60221 33.667968,-33.66797 33.667966,-33.667973 33.66797,33.667973 33.66797,33.66797 -33.60143,33.60221 c -18.48079,18.48122 -33.66132,33.60222 -33.73451,33.60222 -0.0732,0 -15.253715,-15.121 -33.734501,-33.60222 z m 40.878251,21.70365 v -1.84441 l -3.4858,-0.0738 -3.4858,-0.0738 2.48807,-1.85208 c 1.36844,-1.01865 2.84776,-2.36836 3.28737,-2.99936 0.69684,-1.00022 0.79929,-1.3759 0.79929,-2.93101 0,-1.52919 -0.1017,-1.91708 -0.71267,-2.7181 -0.99413,-1.30337 -2.29625,-1.84252 -4.83205,-2.00072 -3.89442,-0.24297 -6.28788,0.97454 -7.00708,3.56435 -0.441793,1.59089 -0.431734,1.60156 1.69806,1.80114 2.25751,0.21154 2.78395,0.0902 2.78395,-0.64192 0,-0.61251 1.17927,-1.61501 1.89979,-1.61501 0.27803,0 0.80916,0.30365 1.18028,0.67477 1.2224,1.2224 0.65365,2.18427 -2.96685,5.01747 -1.17466,0.91922 -2.52978,2.12008 -3.01137,2.66858 -1.00108,1.14018 -2.122533,3.3938 -2.126351,4.27304 l -0.0026,0.59531 h 6.746871 6.74687 z M 97.098787,192.2094 c 0.36199,-0.13523 1.161982,-0.62502 1.777757,-1.08842 l 1.119595,-0.84255 0.0082,-3.50573 0.008,-3.50573 H 97.221589 94.43084 l 0.07877,1.65365 0.07877,1.65364 1.124479,0.0814 c 0.99576,0.072 1.12448,0.15578 1.12448,0.7315 0,0.44954 -0.265303,0.81189 -0.859896,1.17442 -2.295067,1.39933 -3.905245,-0.37022 -3.901128,-4.28725 0.0031,-2.91793 0.871016,-4.4469 2.524371,-4.4469 0.765408,0 1.021416,0.14598 1.389063,0.79208 0.507301,0.89152 0.706665,0.92566 2.567381,0.43971 1.174655,-0.30677 1.312937,-0.41739 1.233861,-0.98708 -0.136078,-0.98035 -1.147347,-2.64738 -1.979327,-3.26283 -1.166024,-0.86256 -4.416938,-0.92042 -6.001409,-0.1068 -3.066076,1.57441 -4.367247,7.59142 -2.639959,12.20801 0.580567,1.5517 2.149626,3.23691 3.228602,3.4676 0.331089,0.0708 0.840107,0.18033 1.131149,0.24343 0.669909,0.14523 2.706079,-0.0899 3.568578,-0.41211 z m 23.041443,0.31431 c 2.42396,-0.4597 3.93773,-2.49254 3.93773,-5.28799 0,-2.88519 -1.2131,-4.3282 -4.67729,-5.56375 -1.7143,-0.61143 -2.25419,-1.26222 -1.65055,-1.98957 0.17536,-0.2113 0.66752,-0.38418 1.09369,-0.38418 0.63546,0 0.84447,0.1666 1.16178,0.92604 0.35633,0.85281 0.47557,0.92576 1.50786,0.92243 1.95599,-0.006 2.30933,-0.19648 2.13395,-1.14855 -0.26234,-1.4242 -1.22554,-2.92057 -2.20507,-3.42564 -1.30494,-0.67287 -4.43201,-0.53334 -5.47526,0.2443 -1.23187,0.91823 -1.79666,2.15574 -1.79666,3.93663 0,2.58412 0.96129,3.79868 3.96716,5.01238 0.87251,0.3523 1.80779,0.93255 2.0784,1.28945 0.43646,0.57563 0.45118,0.73448 0.13034,1.40687 -0.73027,1.53044 -2.68309,0.97201 -3.02787,-0.86586 -0.18189,-0.96956 -0.28226,-1.00077 -2.32005,-0.72146 -1.16229,0.15931 -1.22742,0.21206 -1.22497,0.99219 0.004,1.16708 1.14566,3.47541 1.99458,4.03164 0.39452,0.2585 1.20788,0.55035 1.80747,0.64855 0.59959,0.0982 1.10367,0.19345 1.12019,0.21166 0.0165,0.0182 0.66657,-0.0876 1.44457,-0.23514 z m -15.27212,-1.38538 0.22872,-1.25678 h 1.92936 1.92936 l 0.31737,1.32292 0.31736,1.32292 h 1.82569 c 1.56937,0 1.82312,-0.065 1.80732,-0.46302 -0.0101,-0.25466 -0.93479,-3.85631 -2.05485,-8.00365 l -2.03647,-7.54062 -2.01396,-0.0767 -2.01395,-0.0767 -0.4469,1.66419 c -3.14849,11.72465 -3.76391,14.13006 -3.66107,14.30962 0.0662,0.1155 0.91295,0.17504 1.88178,0.13229 l 1.76152,-0.0777 z m 1.50294,-7.01146 c 0.25869,-1.12779 0.5178,-2.28865 0.57581,-2.57969 0.058,-0.29104 0.31569,0.42333 0.57262,1.5875 0.25694,1.16417 0.52647,2.32503 0.59896,2.57969 0.11137,0.39124 -0.0503,0.46302 -1.04297,0.46302 H 105.9007 Z M 56.091667,167.25968 v -3.30729 h 2.261585 2.261581 l -0.07877,-1.65365 -0.07877,-1.65364 -2.182812,-0.0769 -2.182813,-0.0769 v -1.31221 -1.31222 h 2.513542 2.513542 v -1.71979 -1.71979 h -4.365625 -4.365625 v 8.06979 8.06979 h 1.852083 1.852083 z m 15.875,1.19062 v -2.11666 h -2.645833 -2.645833 v -5.95313 -5.95312 h -1.852084 -1.852083 v 8.06979 8.06979 h 4.497917 4.497916 z m 4.343824,0.72761 0.242781,-1.25677 h 1.927596 1.927593 l 0.275545,0.99218 c 0.151548,0.54571 0.276209,1.14102 0.277018,1.32292 0.0011,0.23295 0.549069,0.33073 1.85356,0.33073 1.299258,0 1.855451,-0.0987 1.86337,-0.33073 0.0062,-0.1819 -0.914294,-3.81331 -2.045557,-8.06979 l -2.056842,-7.73906 H 78.58114 76.586721 l -2.045444,7.63114 c -1.124992,4.19713 -2.045443,7.83398 -2.045443,8.08188 0,0.3878 0.249359,0.43981 1.785937,0.3725 l 1.785938,-0.0782 z m 1.220684,-5.29167 c 0.02252,-0.90234 1.002078,-4.51148 1.131009,-4.16719 0.150717,0.40247 0.9774,4.08314 0.9774,4.35171 0,0.0804 -0.47625,0.14621 -1.058333,0.14621 -0.674683,0 -1.055341,-0.11989 -1.050076,-0.33073 z m 11.134516,1.05833 0.03027,-5.62239 0.599543,3.04271 c 0.32975,1.67349 0.80746,4.20926 1.061582,5.63506 l 0.462039,2.59235 1.35554,-0.0788 1.35554,-0.0788 0.926042,-5.01496 0.926041,-5.01497 0.132292,5.01497 0.132292,5.01496 h 1.455208 1.455208 l 0.07003,-8.00365 0.07003,-8.00364 h -2.356823 c -1.643849,0 -2.393815,0.10005 -2.479109,0.33073 -0.06726,0.1819 -0.456711,2.20628 -0.865447,4.49862 -0.408736,2.29234 -0.77184,4.13781 -0.806897,4.10104 -0.03505,-0.0368 -0.374044,-1.79326 -0.753309,-3.90331 -0.379261,-2.11005 -0.75004,-4.10435 -0.823954,-4.43177 -0.127135,-0.5632 -0.262586,-0.59531 -2.510595,-0.59531 h -2.376209 v 8.06979 8.06979 h 1.455208 1.455208 z m 15.111529,0.39688 0.0717,-5.22552 0.92604,5.15937 0.92604,5.15938 1.37458,0.0795 c 1.36739,0.079 1.3754,0.0749 1.53445,-0.79375 0.0879,-0.48027 0.55982,-3.01635 1.04863,-5.63572 l 0.88875,-4.7625 0.0242,5.62239 0.0242,5.6224 h 1.45521 1.45521 v -8.06979 -8.06979 h -2.3511 -2.3511 l -0.56956,3.10885 c -0.31325,1.70987 -0.63975,3.52557 -0.72553,4.0349 -0.32783,1.94634 -0.54519,1.47996 -1.28829,-2.7643 l -0.76677,-4.37945 h -2.45612 -2.45611 v 7.8934 c 0,4.34137 0.0794,7.97278 0.17639,8.06979 0.097,0.097 0.80887,0.17639 1.5819,0.17639 h 1.40552 z m 14.64619,3.9026 0.28695,-1.19062 h 1.93964 1.93965 l 0.28694,1.19062 0.28695,1.19063 1.69292,0.0798 c 0.93111,0.0439 1.78118,-0.0156 1.88905,-0.13229 0.10787,-0.11665 -0.19622,-1.64083 -0.67577,-3.38708 -0.47955,-1.74625 -1.43684,-5.29305 -2.12733,-7.88177 l -1.25541,-4.70677 -2.00828,0.0766 -2.00828,0.0766 -2.03585,7.54062 c -1.11971,4.14735 -2.04352,7.75443 -2.05292,8.01574 -0.0151,0.41924 0.19292,0.46591 1.76885,0.39687 l 1.78594,-0.0782 z m 1.16826,-5.14207 c 0,-0.29698 0.82059,-4.03255 0.96279,-4.38293 0.13612,-0.33538 1.09278,3.1656 1.13871,4.16719 0.01,0.21199 -0.3648,0.33073 -1.04317,0.33073 -0.58208,0 -1.05833,-0.0517 -1.05833,-0.11499 z m 16.79116,5.91915 c 1.36837,-0.6637 1.99425,-1.92044 1.99425,-4.00434 0,-1.95997 -0.4075,-3.08678 -1.35677,-3.75167 -0.52465,-0.36748 -0.53431,-0.4282 -0.13207,-0.83044 0.77732,-0.77732 1.01259,-1.48892 1.01259,-3.06269 0,-1.7675 -0.66549,-3.1274 -1.77865,-3.63459 -0.41981,-0.19128 -2.14501,-0.31001 -4.50442,-0.31001 h -3.82401 v 7.8934 c 0,4.34137 0.0893,7.98548 0.19844,8.09803 0.35004,0.36095 7.52795,0.0207 8.39064,-0.39769 z m -4.83197,-4.67968 c 0.0773,-1.48289 0.0998,-1.52335 0.88798,-1.60044 1.91852,-0.18764 3.02273,1.09192 2.12485,2.46226 -0.36575,0.55821 -0.63647,0.65953 -1.76216,0.65953 h -1.33002 z m -0.0529,-6.15156 v -1.32292 h 1.13771 c 1.30682,0 1.7727,0.34768 1.7727,1.32292 0,0.97524 -0.46588,1.32291 -1.7727,1.32291 h -1.13771 z m 17.72708,9.26041 v -2.11666 h -2.64583 -2.64584 v -5.95313 -5.95312 h -1.85208 -1.85208 v 8.06979 8.06979 h 4.49791 4.49792 z m 11.1125,0.1323 v -1.98438 h -3.04271 -3.04271 v -1.45521 -1.45521 h 2.77813 2.77812 v -1.71979 -1.71979 h -2.77812 -2.77813 v -1.19062 -1.19063 h 3.04271 3.04271 v -1.71979 -1.71979 h -4.7625 -4.7625 v 8.06979 8.06979 h 4.7625 4.7625 z m -41.01042,-20.7698 v -0.79375 H 105.96563 92.604167 v 0.79375 0.79375 h 13.361463 13.36145 z m -13.16302,-1.50964 c -0.32742,-0.0631 -0.8632,-0.0631 -1.19062,0 -0.32742,0.0631 -0.0595,0.11466 0.59531,0.11466 0.65484,0 0.92274,-0.0516 0.59531,-0.11466 z m -2.70779,-0.34878 c -0.50702,-0.11922 -1.1876,-0.5257 -1.51239,-0.90329 -0.54649,-0.63534 -1.40221,-2.94319 -1.40221,-3.78174 0,-0.66171 -0.83807,-2.04179 -1.923161,-3.16696 l -1.071867,-1.11145 1.786401,0.53593 c 0.982517,0.29476 1.840037,0.48229 1.905607,0.41673 0.24976,-0.24976 -0.79755,-3.69889 -1.386812,-4.56722 -0.339426,-0.50018 -0.497353,-0.90941 -0.350949,-0.90941 0.146405,0 0.751431,0.77391 1.344501,1.71979 0.59306,0.94589 1.18406,1.71979 1.31333,1.71979 0.45254,0 0.22913,-1.77538 -0.42643,-3.38871 -0.71037,-1.74824 -0.96987,-3.58502 -0.28385,-2.00918 0.19629,0.4509 0.87226,1.48588 1.50214,2.29996 1.67548,2.16542 1.89705,1.8228 1.66867,-2.58039 -0.17061,-3.28933 -0.14714,-3.54696 0.43613,-4.78605 l 0.61644,-1.30959 0.20304,3.04271 c 0.23013,3.44859 1.0169,7.90249 1.41368,8.00286 0.15677,0.0397 0.33605,-1.11903 0.43998,-2.84348 0.0965,-1.60073 0.28879,-3.20807 0.42738,-3.57188 0.37244,-0.97759 0.70216,6.18437 0.34026,7.39081 -0.29415,0.9806 -0.14493,1.43443 0.26423,0.80361 0.13885,-0.21406 0.54997,-1.34171 0.91359,-2.50588 0.87497,-2.80124 1.17714,-3.25072 1.18239,-1.75881 0.002,0.63338 -0.35314,2.21773 -0.7897,3.52078 -0.89332,2.66636 -0.99112,3.34157 -0.32946,2.27443 0.48602,-0.78388 1.78952,-1.52285 2.68621,-1.52285 0.53623,0 0.52981,0.0377 -0.17228,1.01198 -0.90133,1.25075 -2.07786,3.77766 -2.449,5.25984 -0.32918,1.31463 -1.36845,2.64367 -2.1919,2.80305 -0.48603,0.0941 -0.46044,0.11964 0.14967,0.14951 0.96427,0.0472 3.66727,-0.87237 4.95655,-1.68626 2.58849,-1.63404 4.19787,-4.15236 6.08553,-9.5225 1.94998,-5.5474 3.19423,-7.4669 5.67633,-8.75683 1.47145,-0.7647 1.47557,-0.77026 0.91225,-1.23119 -1.63272,-1.33598 -4.5328,0.35109 -7.39076,4.29948 -0.474,0.65484 -0.799,0.9525 -0.72222,0.66146 0.0768,-0.29104 0.46322,-1.6365 0.85877,-2.98991 0.64198,-2.19658 0.7053,-2.76463 0.58987,-5.29166 -0.0711,-1.55701 -0.28731,-3.30718 -0.48041,-3.88927 l -0.35108,-1.05833 -0.17651,2.52636 c -0.31043,4.44319 -1.38173,7.77966 -2.68893,8.37441 -0.59387,0.27019 -0.59709,0.25965 -0.61229,-2.00728 -0.0125,-1.86114 -0.2278,-3.03071 -1.17455,-6.37995 -0.89278,-3.15836 -1.16295,-4.56792 -1.17534,-6.13218 -0.0116,-1.46322 -0.0889,-1.90709 -0.27668,-1.5875 -0.31827,0.54179 -0.34125,3.90363 -0.0546,7.98427 0.16413,2.33628 0.13339,3.19142 -0.1324,3.68327 -0.63333,1.17199 -0.87916,0.89014 -0.78671,-0.90201 0.1236,-2.39629 -0.24885,-3.84752 -2.08388,-8.11976 -2.38549,-5.55381 -2.8076,-7.95291 -1.96704,-11.18003 0.22183,-0.85164 0.35673,-1.59503 0.2998,-1.65197 -0.20034,-0.20034 -1.76997,1.80073 -2.4224,3.08823 -0.80493,1.58845 -1.1104,3.57692 -1.42275,9.26143 -0.1851,3.36848 -0.37814,4.78054 -0.84515,6.18215 l -0.60526,1.81651 -0.85409,-1.69416 c -1.198371,-2.37707 -1.931407,-4.98145 -2.184079,-7.75971 l -0.216564,-2.38125 -0.50727,1.05834 c -0.451318,0.9416 -0.507368,1.68575 -0.508183,6.74687 -7.93e-4,4.94865 -0.06202,5.80039 -0.47073,6.54844 -0.258398,0.47294 -0.567368,0.8599 -0.686597,0.8599 -0.447579,0 -1.105238,-1.01239 -1.60919,-2.47715 -0.770369,-2.23912 -1.8331,-4.0474 -2.996229,-5.09822 -0.567656,-0.51284 -1.072671,-0.89187 -1.122254,-0.84228 -0.10241,0.1024 2.072349,10.18511 2.496661,11.57512 0.152532,0.49969 0.229407,0.95645 0.170831,1.01502 -0.05858,0.0586 -1.098336,-0.89253 -2.31058,-2.11358 -1.949839,-1.964 -4.365268,-3.911 -4.851953,-3.911 -0.09421,0 0.373277,0.62252 1.038849,1.38337 1.580505,1.80675 2.846713,4.26596 3.715198,7.21559 1.992548,6.76728 4.104169,10.44504 7.163342,12.47621 1.591749,1.05687 4.052068,1.92119 5.414858,1.90227 l 0.92605,-0.0129 -0.92186,-0.21675 z"
         id="path101"
         inkscape:connector-curvature="0" />
      <path
         style="fill:#de4337;stroke-width:0.26458335"
         d="m 66.298036,203.23033 c -21.620794,-21.48825 -39.309785,-39.1462 -39.308867,-39.23989 0.002,-0.2015 78.528121,-78.184815 78.848981,-78.303918 0.22533,-0.08364 78.84168,77.922688 78.84019,78.228428 -0.001,0.20083 -78.52865,78.18421 -78.8499,78.30337 -0.12093,0.0449 -17.909607,-17.49974 -39.530404,-38.98799 z m 74.328134,-4.61765 34.65978,-34.66055 -34.7263,-34.72631 -34.72632,-34.726308 -34.726307,34.726308 -34.726309,34.72631 34.659785,34.66055 c 19.062882,19.0633 34.719661,34.66054 34.792831,34.66054 0.0732,0 15.72996,-15.59724 34.79284,-34.66054 z m -68.527341,-1.05834 -33.601433,-33.60221 33.667968,-33.66797 33.667966,-33.667973 33.66797,33.667973 33.66797,33.66797 -33.60143,33.60221 c -18.48079,18.48122 -33.66132,33.60222 -33.73451,33.60222 -0.0732,0 -15.253715,-15.121 -33.734501,-33.60222 z m 40.878251,21.70387 v -1.84418 l -3.37343,-0.074 -3.37344,-0.074 1.56248,-1.19063 c 3.96394,-3.02055 4.91981,-4.30621 4.91981,-6.61718 0,-3.13316 -2.16168,-4.76146 -6.31712,-4.75842 -2.46557,0.002 -3.72532,0.32935 -4.82481,1.25451 -0.88894,0.748 -1.807135,2.46919 -1.816842,3.40575 -0.0066,0.63346 0.939632,0.88646 3.334552,0.8916 1.29124,0.003 1.36346,-0.0344 1.51234,-0.77883 0.32849,-1.64244 2.34191,-2.04629 3.25492,-0.65286 0.40811,0.62285 0.40917,0.74127 0.014,1.56984 -0.25147,0.52735 -1.43899,1.70631 -2.88545,2.86467 -3.73494,2.99103 -4.73182,4.24508 -5.44985,6.85582 l -0.272883,0.99219 h 6.857843 6.85784 v -1.84418 z M 97.439449,192.09466 c 0.469294,-0.2417 1.240213,-0.73359 1.713156,-1.0931 l 0.859895,-0.65365 v -3.68201 -3.68203 l -2.711978,0.0754 -2.71198,0.0754 -0.07823,1.78594 -0.07823,1.78593 h 1.220287 c 1.175131,0 1.217192,0.0269 1.136568,0.72761 -0.06161,0.5354 -0.339738,0.85277 -1.052922,1.20143 -1.885818,0.92196 -3.203009,-0.15661 -3.546245,-2.90378 -0.413684,-3.311 0.592167,-5.90442 2.290008,-5.90442 0.831996,0 1.828565,0.8028 1.828565,1.47304 0,0.27119 0.160224,0.36689 0.463021,0.27654 0.254661,-0.076 1.030592,-0.27725 1.724289,-0.44725 0.693698,-0.16999 1.31735,-0.39983 1.385893,-0.51073 0.424684,-0.68715 -1.275659,-3.45807 -2.515407,-4.09917 -1.055417,-0.54578 -4.278601,-0.52524 -5.458756,0.0348 -2.002864,0.95042 -3.203543,3.29839 -3.459803,6.76576 -0.353692,4.78572 1.272828,8.22772 4.358749,9.22387 1.013714,0.32723 3.614943,0.0748 4.633129,-0.44957 z m 24.425581,-0.11152 c 2.05112,-1.26767 2.86349,-4.95803 1.62924,-7.4012 -0.70518,-1.39588 -1.73658,-2.13764 -4.03667,-2.90306 -1.76983,-0.58896 -2.33103,-1.24515 -1.70748,-1.99648 0.67789,-0.8168 2.37071,-0.10857 2.37071,0.99183 0,0.44893 0.18322,0.49223 1.78594,0.42202 l 1.78594,-0.0782 -0.0761,-0.92604 c -0.11107,-1.35259 -0.85607,-2.68707 -1.88131,-3.36994 -1.29024,-0.85938 -4.31805,-0.86012 -5.61029,-0.001 -1.12341,0.74657 -2.09149,2.61536 -2.08383,4.02268 0.0129,2.37673 1.44116,4.10258 4.26956,5.15925 1.79773,0.67162 2.13716,1.03157 2.02653,2.14906 -0.18477,1.86639 -2.18238,1.70828 -2.85416,-0.22591 -0.34639,-0.99732 -0.47964,-1.11919 -1.2237,-1.11919 -0.45924,0 -1.20705,0.0744 -1.6618,0.16536 -0.71517,0.14304 -0.82648,0.27702 -0.82424,0.99219 0.003,0.9509 1.02811,3.3006 1.67259,3.8337 1.46667,1.21321 4.68613,1.35632 6.41902,0.28533 z m -16.97954,-0.84481 0.24278,-1.25678 h 1.91901 1.91901 l 0.17307,0.8599 c 0.37357,1.85613 0.28443,1.78594 2.26805,1.78594 1.28904,0 1.83536,-0.0983 1.83796,-0.33073 0.002,-0.1819 -0.9207,-3.81314 -2.05052,-8.06943 l -2.05422,-7.7387 -2.04033,-2.7e-4 -2.04032,-2.6e-4 -0.26501,0.99219 c -0.14575,0.5457 -1.10285,4.12728 -2.12686,7.95907 -1.02402,3.83159 -1.86186,7.02172 -1.86186,7.089 0,0.0673 0.8632,0.0873 1.91823,0.0446 l 1.91823,-0.0777 z m 1.21243,-5.28563 c 0,-0.53238 0.87593,-4.44382 0.97335,-4.34641 0.0494,0.0494 0.31507,1.12061 0.59039,2.38046 l 0.50056,2.29064 h -1.03215 c -0.63909,0 -1.03215,-0.12365 -1.03215,-0.32469 z M 56.091667,167.25968 v -3.30729 h 2.248959 2.248958 v -1.71979 -1.7198 h -2.248958 -2.248959 v -1.18104 -1.18105 l 2.579688,-0.0757 2.579687,-0.0757 0.07823,-1.78594 0.07823,-1.78593 h -4.510006 -4.510005 v 8.06979 8.06979 h 1.852083 1.852083 z m 20.281755,2.04026 0.226917,-1.24651 1.895126,-0.0773 c 2.066435,-0.0843 1.953882,-0.16769 2.336014,1.73095 l 0.173067,0.8599 h 1.991659 c 1.527741,0 1.960848,-0.0803 1.85938,-0.34472 -0.07276,-0.1896 -1.056717,-3.821 -2.18658,-8.06979 l -2.054299,-7.72507 h -2.034757 -2.034754 l -2.090828,7.87135 -2.090825,7.87136 -0.07774,-1.91823 -0.07774,-1.91823 h -2.766534 -2.766533 v -5.95313 -5.95312 h -1.852084 -1.852083 v 8.07026 8.07027 l 6.587834,-0.0107 6.587837,-0.0108 0.226917,-1.24651 z m 1.160341,-5.4137 c 0.006,-0.1819 0.227166,-1.2237 0.491558,-2.3151 0.506453,-2.09063 0.593154,-2.06954 1.087613,0.26458 0.16955,0.80036 0.365429,1.66357 0.435289,1.91823 0.105863,0.3859 -0.05223,0.46302 -0.949142,0.46302 -0.690327,0 -1.072274,-0.11858 -1.065318,-0.33073 z m 11.366238,1.65365 0.132291,-4.89479 0.338286,1.98437 c 0.186058,1.09141 0.586579,3.32383 0.890048,4.96094 l 0.551762,2.97656 h 1.380823 1.380826 l 0.944462,-5.09323 0.944462,-5.09323 0.02582,5.09323 0.0258,5.09323 h 1.5875 1.5875 v -8.07972 -8.07972 l -2.445745,0.0761 -2.445742,0.0761 -0.803881,4.46907 -0.803881,4.46907 -0.752128,-4.20271 c -0.413674,-2.31149 -0.809548,-4.35234 -0.879727,-4.53522 -0.0892,-0.23246 -0.835546,-0.3325 -2.480537,-0.3325 h -2.352942 v 8.08299 8.083 l 1.521354,-0.0794 1.521354,-0.0794 z m 14.840779,-0.19844 0.0241,-5.22552 0.96808,5.15937 0.96807,5.15938 1.37458,0.0795 1.37457,0.0795 0.19066,-1.00551 c 0.10487,-0.55303 0.57628,-3.02958 1.04758,-5.50343 l 0.85691,-4.49792 0.0253,5.49011 0.0252,5.4901 h 1.45521 1.45521 v -8.06979 -8.06979 h -2.36249 -2.36249 l -0.27717,1.38906 c -0.15245,0.76398 -0.47479,2.52016 -0.71632,3.9026 -0.24153,1.38245 -0.5193,2.66662 -0.61727,2.8537 -0.098,0.18709 -0.51667,-1.56908 -0.93043,-3.9026 l -0.75229,-4.24276 h -2.47306 -2.47306 v 8.06979 8.06979 h 1.5875 1.5875 l 0.0241,-5.22552 z m 14.65899,4.36562 c 0.3734,-1.85522 0.28588,-1.78593 2.25562,-1.78593 h 1.82182 l 0.27555,0.99218 c 0.15154,0.54571 0.2762,1.14102 0.27701,1.32292 0.001,0.23532 0.5791,0.33073 2.00369,0.33073 1.7814,0 1.98746,-0.0511 1.8685,-0.46302 -0.11269,-0.39025 -3.07304,-11.54985 -3.89539,-14.68438 l -0.2603,-0.99218 -2.04032,2.6e-4 -2.04032,2.7e-4 -2.05423,7.7387 c -1.12982,4.25628 -2.05255,7.88752 -2.05052,8.06943 0.003,0.23236 0.54828,0.33072 1.83476,0.33072 h 1.83107 l 0.17306,-0.85989 z m 1.1919,-5.60597 c 0,-0.2516 0.82249,-3.74474 0.96949,-4.11746 0.12246,-0.3105 1.10259,3.16184 1.13892,4.03489 0.005,0.10914 -0.468,0.19844 -1.05008,0.19844 -0.58208,0 -1.05833,-0.0521 -1.05833,-0.11587 z m 15.85579,6.18069 c 1.55929,-0.33441 2.48952,-1.26806 2.95713,-2.968 0.44932,-1.63347 -0.0384,-3.80247 -1.06395,-4.73187 -0.64681,-0.58616 -0.7189,-0.76169 -0.41606,-1.01303 0.20148,-0.16721 0.56668,-0.82865 0.81157,-1.46987 0.7495,-1.96254 0.0466,-4.48751 -1.46707,-5.27028 -0.58942,-0.3048 -1.70226,-0.40135 -4.62573,-0.40135 h -3.8496 v 8.06979 8.06979 h 3.16198 c 1.73909,0 3.76036,-0.12833 4.49173,-0.28518 z m -3.68496,-4.88802 v -1.46904 l 1.38906,0.08 1.38907,0.08 0.0832,1.01065 c 0.111,1.34809 -0.29312,1.76747 -1.70312,1.76747 h -1.15823 z m 0,-6.20388 v -1.32292 h 1.06401 c 0.87818,0 1.11664,0.11552 1.36538,0.66146 0.22546,0.49481 0.22546,0.8281 0,1.32292 -0.24874,0.54593 -0.4872,0.66145 -1.36538,0.66145 h -1.06401 z m 17.4625,9.26041 v -2.11666 h -2.64583 -2.64584 v -5.95313 -5.95312 h -1.85208 -1.85208 v 8.06979 8.06979 h 4.49791 4.49792 z m 11.24479,0.1323 v -1.85209 l -2.97656,-0.0748 -2.97656,-0.0748 v -1.44654 -1.44655 h 2.64583 2.64583 v -1.71979 -1.71979 h -2.64583 -2.64583 v -1.19062 -1.19063 h 2.91041 2.91042 v -1.71979 -1.71979 h -4.89479 -4.89479 v 7.8934 c 0,4.34137 0.082,7.97538 0.18216,8.07557 0.10019,0.10019 2.33261,0.1498 4.96094,0.11024 l 4.77877,-0.0719 z m -41.14271,-20.90209 v -0.92604 H 105.96563 92.604167 v 0.92604 0.92604 h 13.361463 13.36145 z m -10.72024,-1.59115 c 5.23122,-1.10809 7.54659,-3.62951 10.20107,-11.10885 0.61976,-1.74625 1.41893,-3.76047 1.77594,-4.47604 0.85035,-1.70442 2.9639,-3.91753 4.32929,-4.53324 l 1.08684,-0.49009 -0.58764,-0.47583 c -0.65396,-0.52955 -1.7254,-0.61144 -2.77565,-0.21214 -0.89888,0.34176 -3.41676,2.72411 -4.42483,4.18667 -0.43333,0.62869 -0.83567,1.09527 -0.89409,1.03685 -0.0584,-0.0584 0.18511,-0.96274 0.54117,-2.0096 1.03701,-3.04892 1.30081,-5.59372 0.84513,-8.15242 -0.51629,-2.899 -0.94371,-3.64355 -0.96168,-1.6752 -0.0322,3.52089 -0.9361,7.43386 -2.01298,8.71365 -0.88067,1.04662 -1.5287,1.10697 -1.1485,0.10696 0.34988,-0.92028 0.12466,-2.33551 -1.08947,-6.84574 -1.27656,-4.74215 -1.64449,-6.79627 -1.46157,-8.15959 l 0.14644,-1.09132 -0.38143,0.79375 c -0.47067,0.97946 -0.49687,2.73379 -0.10473,7.01146 0.27801,3.03261 0.26287,3.39519 -0.18231,4.36562 l -0.48551,1.05833 -0.17043,-2.64583 c -0.17722,-2.75115 -0.20183,-2.83089 -2.76063,-8.94446 -1.41984,-3.39233 -1.88078,-5.91872 -1.50524,-8.25014 0.16437,-1.02047 0.3769,-2.15306 0.47228,-2.51686 l 0.17342,-0.66146 -0.84031,0.78556 c -2.18438,2.04205 -2.86164,4.37633 -3.19676,11.01817 -0.22733,4.50545 -0.59693,6.85287 -1.26772,8.0515 -0.23466,0.41931 -0.35401,0.31315 -0.92569,-0.82338 -1.211134,-2.40782 -1.818099,-4.50197 -2.147958,-7.41091 l -0.327678,-2.88969 -0.513326,0.92605 c -0.464318,0.83762 -0.51344,1.4818 -0.514491,6.74687 -0.0011,5.06885 -0.06171,5.93192 -0.469815,6.68073 -0.25776,0.47294 -0.577908,0.8599 -0.711441,0.8599 -0.402058,0 -1.023913,-1.06684 -1.768178,-3.03344 -0.38744,-1.02375 -1.031023,-2.33761 -1.430187,-2.91969 -0.831392,-1.21238 -2.297697,-2.67013 -2.491182,-2.47664 -0.190963,0.19096 2.056876,10.52759 2.679989,12.32386 0.08996,0.25934 -0.835041,-0.49742 -2.055561,-1.6817 -2.273668,-2.20615 -4.573233,-4.06448 -5.029534,-4.06448 -0.14098,0 0.350629,0.74414 1.092462,1.65365 1.723033,2.11247 2.915907,4.60646 3.954693,8.26823 1.686248,5.9441 4.453461,10.13798 7.764248,11.76718 3.031219,1.49163 6.264169,1.89476 9.573549,1.19375 z m -4.67539,-0.10309 c -1.6773,-0.24142 -2.2475,-0.84328 -2.88876,-3.04916 -0.80171,-2.75785 -1.0422,-3.3016 -2.036148,-4.60374 -0.496263,-0.65014 -0.718513,-1.11155 -0.493885,-1.02535 0.987444,0.37892 2.624103,0.73747 2.757473,0.6041 0.21668,-0.21668 -0.69894,-3.41102 -1.310022,-4.57029 -0.741826,-1.4073 0.01408,-0.61404 0.985542,1.03426 0.44048,0.74735 0.93639,1.40399 1.10203,1.4592 0.63219,0.21073 0.6221,-1.00092 -0.0219,-2.62758 -0.36292,-0.91673 -0.73218,-2.02397 -0.82057,-2.46053 l -0.16071,-0.79375 0.47617,0.8237 c 0.65079,1.12574 2.52757,3.54192 2.75121,3.54192 0.42895,0 0.52506,-1.1208 0.35383,-4.12636 -0.18358,-3.22236 0.0335,-4.75504 0.75812,-5.35382 0.24075,-0.19893 0.32168,0.16262 0.3358,1.50019 0.0239,2.26006 1.21616,9.06744 1.56781,8.95132 0.14612,-0.0483 0.35958,-1.38787 0.47437,-2.97693 0.35378,-4.89733 0.7007,-4.70633 0.6399,0.3523 -0.0302,2.51043 0.0259,4.56426 0.12457,4.56407 0.18116,-2.7e-4 0.82374,-1.61556 1.65798,-4.16754 0.24974,-0.76398 0.521,-1.38906 0.6028,-1.38906 0.3616,0 -0.24537,3.2857 -0.97005,5.25112 -0.43746,1.18647 -0.74045,2.15721 -0.67331,2.15721 0.0671,0 0.51063,-0.42084 0.98553,-0.93521 0.61123,-0.66202 1.17262,-0.98215 1.92179,-1.09588 l 1.05834,-0.16066 -0.55952,0.63285 c -0.95408,1.07916 -1.88495,2.9239 -2.60249,5.15742 -0.3787,1.17882 -0.95327,2.38536 -1.27681,2.6812 -0.6788,0.62066 -2.81338,0.90217 -4.73911,0.625 z"
         id="path99"
         inkscape:connector-curvature="0" />
      <path
         style="fill:#d9281b;stroke-width:0.26458335"
         d="M 66.29925,203.23065 C 44.677788,181.74301 26.988251,164.08524 26.989169,163.99116 c 0.002,-0.20197 78.527361,-78.185255 78.848981,-78.304638 0.22553,-0.08372 78.84202,77.923178 78.83976,78.228428 -0.002,0.20075 -78.52781,78.18433 -78.84793,78.30297 -0.12044,0.0446 -17.909268,-17.49964 -39.53073,-38.98727 z m 74.32692,-4.61797 34.65978,-34.66055 -34.7263,-34.72631 -34.72632,-34.726308 -34.726307,34.726308 -34.726309,34.72631 34.659785,34.66055 c 19.062882,19.0633 34.719661,34.66054 34.792831,34.66054 0.0732,0 15.72996,-15.59724 34.79284,-34.66054 z m -68.527341,-1.05834 -33.601433,-33.60221 33.667968,-33.66797 33.667966,-33.667973 33.66797,33.667973 33.66797,33.66797 -33.60143,33.60221 c -18.48079,18.48122 -33.66132,33.60222 -33.73451,33.60222 -0.0732,0 -15.253715,-15.121 -33.734501,-33.60222 z m 40.878251,21.69596 v -1.85208 h -3.3229 c -2.19597,0 -3.26622,-0.0917 -3.15576,-0.27045 0.0919,-0.14875 0.8431,-0.7606 1.66926,-1.35967 3.42072,-2.48044 4.54482,-4.04113 4.54482,-6.30998 0,-1.56721 -0.45257,-2.5737 -1.58621,-3.52759 -1.06869,-0.89924 -2.3479,-1.22936 -4.76379,-1.22936 -2.43206,0 -3.69537,0.33034 -4.79193,1.25304 -0.88955,0.74851 -1.807148,2.46937 -1.816842,3.40729 -0.0068,0.66142 0.814972,0.89297 3.169192,0.89297 1.47353,0 1.52626,-0.0246 1.6777,-0.78174 0.32454,-1.62271 2.36443,-2.01191 3.27346,-0.62456 0.38722,0.59096 0.38728,0.71999 7.9e-4,1.53059 -0.24679,0.51754 -1.4453,1.70129 -2.88545,2.84993 -3.75278,2.99316 -4.95214,4.48131 -5.470317,6.78757 l -0.244105,1.08613 h 6.851042 6.85104 z M 97.439449,192.09466 c 0.469294,-0.2417 1.240213,-0.73359 1.713156,-1.0931 l 0.859895,-0.65365 v -3.67276 -3.67276 h -2.778124 -2.778125 v 1.85208 1.85208 h 1.208198 c 1.161944,0 1.204995,0.0279 1.124479,0.72761 -0.122002,1.06031 -1.762667,1.84436 -2.885879,1.3791 -1.038796,-0.43028 -1.548468,-1.46831 -1.742815,-3.54953 -0.285298,-3.05519 0.736057,-5.43634 2.331831,-5.43634 0.772657,0 1.816269,0.88108 1.816269,1.5334 0,0.20642 0.148828,0.31821 0.330729,0.24843 0.181901,-0.0698 1.015339,-0.28005 1.852084,-0.46728 0.836744,-0.18724 1.521353,-0.41933 1.521353,-0.51577 0,-0.77399 -0.985384,-2.7328 -1.745217,-3.46926 -0.929117,-0.90054 -0.932477,-0.9014 -3.515593,-0.9014 -2.408079,0 -2.650572,0.0496 -3.5321,0.72194 -2.045521,1.5602 -2.991935,4.3931 -2.785822,8.3388 0.10764,2.06056 0.260593,2.71593 0.970338,4.15762 0.88659,1.80092 1.695458,2.56276 3.209729,3.02313 1.19983,0.36477 3.748813,0.15224 4.825614,-0.40234 z m 24.509751,-0.18163 c 1.48008,-0.97947 2.00809,-2.2564 2.00809,-4.85634 0,-1.78066 -0.0979,-2.29557 -0.55349,-2.91042 -0.78625,-1.06114 -1.99567,-1.81829 -3.93552,-2.46384 -1.76659,-0.58788 -2.17088,-1.02882 -1.71844,-1.87421 0.5213,-0.97406 2.37099,-0.30788 2.37099,0.85393 0,0.42872 0.22908,0.48815 1.88153,0.48815 h 1.88153 l -0.17946,-0.99218 c -0.27983,-1.54704 -0.98783,-2.78252 -1.96908,-3.43609 -1.22346,-0.81491 -4.23593,-0.8537 -5.51954,-0.0711 -2.42218,1.47682 -2.9058,5.2541 -0.9499,7.41905 0.59491,0.6585 1.46526,1.22639 2.42809,1.58433 2.19452,0.8158 2.69142,1.20309 2.69142,2.09775 0,2.10755 -2.31208,2.11421 -2.94297,0.008 -0.34303,-1.14492 -0.70189,-1.25495 -2.90458,-0.89059 l -0.95276,0.1576 0.21357,1.14318 c 0.28945,1.54934 0.8459,2.80208 1.50562,3.3896 1.5524,1.3825 4.82617,1.55625 6.6449,0.35267 z m -17.04191,-0.70856 0.18195,-1.32292 h 1.93629 1.93629 l 0.16855,0.99761 c 0.27117,1.60508 0.38803,1.68155 2.43661,1.59454 l 1.85056,-0.0786 -2.13128,-8.00365 -2.13128,-8.00365 h -2.03987 c -1.7136,0 -2.06201,0.0741 -2.17832,0.46302 -0.34112,1.14077 -4.13054,15.37809 -4.13054,15.51894 0,0.0867 0.8818,0.15763 1.95955,0.15763 h 1.95954 z m 1.19042,-5.22552 c -5.3e-4,-0.43339 0.87426,-4.57196 0.95024,-4.49597 0.0447,0.0447 0.31254,1.11922 0.59522,2.38783 l 0.51395,2.30658 h -1.0296 c -0.56628,0 -1.0297,-0.0893 -1.02981,-0.19844 z M 56.091667,167.25968 v -3.30729 h 2.248959 2.248958 v -1.71979 -1.7198 h -2.248958 -2.248959 v -1.18104 -1.18105 l 2.579688,-0.0757 2.579687,-0.0757 0.07823,-1.78594 0.07823,-1.78593 h -4.510006 -4.510005 v 8.06979 8.06979 h 1.852083 1.852083 z m 20.279879,2.05052 0.228793,-1.25677 1.887466,-0.0771 1.887469,-0.0771 0.320003,1.33392 0.320003,1.33392 h 1.975815 c 1.759607,0 1.960227,-0.0507 1.833365,-0.46302 -0.279281,-0.90779 -4.126543,-15.38722 -4.126543,-15.53053 0,-0.0803 -0.935828,-0.14603 -2.079617,-0.14603 h -2.079614 l -1.219171,4.56406 c -0.670544,2.51023 -1.609953,6.04261 -2.087573,7.84972 l -0.8684,3.28567 -0.07774,-1.8966 -0.07774,-1.8966 h -2.766534 -2.766533 v -5.95313 -5.95312 h -1.852084 -1.852083 v 8.06979 8.06979 h 6.585961 6.58596 z m 1.235951,-5.68854 c 0.07807,-0.32742 0.28643,-1.34641 0.463021,-2.26441 0.176593,-0.91801 0.404439,-1.57285 0.506327,-1.45521 0.101889,0.11764 0.331629,0.92826 0.510535,1.80139 0.178906,0.87312 0.384363,1.79586 0.456573,2.05052 0.110022,0.38801 -0.04769,0.46302 -0.973556,0.46302 -1.011435,0 -1.092845,-0.0503 -0.9629,-0.59531 z m 11.35268,2.11666 0.07211,-4.82864 0.750208,4.23333 c 0.412612,2.32834 0.812472,4.50123 0.888577,4.82865 0.121938,0.52461 0.304085,0.59531 1.533654,0.59531 h 1.395283 l 0.460846,-2.57969 c 0.253466,-1.41883 0.671166,-3.65125 0.928222,-4.96093 l 0.467378,-2.38125 0.02906,4.96093 0.02906,4.96094 h 1.5875 1.5875 v -8.07972 -8.07972 l -2.44543,0.0761 -2.445427,0.0761 -0.787014,4.32559 c -0.432856,2.37908 -0.821365,4.22253 -0.863357,4.09656 -0.04199,-0.12597 -0.409482,-2.07248 -0.816652,-4.32559 l -0.740307,-4.09656 -2.433198,-0.0761 -2.433198,-0.0761 v 8.07972 8.07972 h 1.581531 1.581531 z m 14.816923,-0.26458 0.0719,-5.09323 0.90757,5.09323 0.90757,5.09323 h 1.40753 c 0.77415,0 1.41319,-0.0298 1.42009,-0.0661 0.007,-0.0364 0.47186,-2.50692 1.03323,-5.4901 l 1.02068,-5.42396 0.0251,5.49011 0.0251,5.4901 h 1.45521 1.45521 v -8.06979 -8.06979 H 111.125 c -1.30969,0 -2.3818,0.0298 -2.38247,0.0661 -0.007,0.37688 -1.55697,8.19482 -1.64147,8.27933 -0.0624,0.0624 -0.45088,-1.78984 -0.86334,-4.11603 l -0.74993,-4.22944 h -2.47306 -2.47306 v 8.06979 8.06979 h 1.58178 1.58179 z m 14.62267,4.23333 c 0.3734,-1.85522 0.28588,-1.78593 2.25562,-1.78593 h 1.82182 l 0.27555,0.99218 c 0.15154,0.54571 0.2762,1.14102 0.27701,1.32292 0.001,0.23505 0.57553,0.33073 1.98586,0.33073 1.0914,0 1.98437,-0.0498 1.98437,-0.11072 0,-0.0609 -0.83783,-3.24582 -1.86185,-7.07761 -1.02402,-3.83178 -1.98111,-7.41336 -2.12687,-7.95907 l -0.26501,-0.99218 h -2.05136 -2.05135 l -1.24381,4.69635 c -0.6841,2.583 -1.65023,6.2144 -2.14695,8.06979 l -0.90313,3.37344 h 1.93852 1.93852 z m 1.28814,-5.95312 c 0.0725,-0.25466 0.27238,-1.1774 0.44408,-2.05052 0.17171,-0.87313 0.38149,-1.70262 0.46618,-1.84331 0.12254,-0.20358 1.06903,3.36832 1.10191,4.15841 0.005,0.10914 -0.47602,0.19844 -1.06791,0.19844 -0.89878,0 -1.05442,-0.0763 -0.94426,-0.46302 z m 16.92759,6.20333 c 2.23861,-1.46697 2.68716,-5.39681 0.82818,-7.2558 -0.48718,-0.48718 -0.75014,-0.93869 -0.60054,-1.03115 0.47752,-0.29512 1.25774,-2.32623 1.25774,-3.27419 0,-1.18882 -0.81446,-2.98232 -1.60612,-3.53682 -0.50507,-0.35376 -1.34821,-0.43193 -4.65884,-0.43193 h -4.04217 v 8.09806 8.09806 l 4.04662,-0.0944 c 3.34697,-0.0781 4.17258,-0.17696 4.77513,-0.57182 z m -4.853,-4.54968 v -1.45521 h 1.13771 c 1.36278,0 1.77271,0.34659 1.77271,1.49881 0,1.01179 -0.55712,1.4116 -1.96698,1.4116 h -0.94344 z m 0,-6.21771 v -1.32292 h 1.06401 c 0.87818,0 1.11664,0.11552 1.36538,0.66146 0.22546,0.49481 0.22546,0.8281 0,1.32292 -0.24874,0.54593 -0.4872,0.66145 -1.36538,0.66145 h -1.06401 z m 17.4625,9.26041 v -2.11666 h -2.64583 -2.64584 v -5.95313 -5.95312 h -1.85208 -1.85208 v 8.06979 8.06979 h 4.49791 4.49792 z m 11.37708,0.1323 v -1.98438 h -3.0427 -3.04271 v -1.45521 -1.45521 h 2.64583 2.64583 v -1.71979 -1.71979 h -2.64583 -2.64583 v -1.19062 -1.19063 h 2.91041 2.91042 v -1.71979 -1.71979 h -4.89479 -4.89479 v 8.06979 8.06979 h 5.02708 5.02708 z m -41.275,-20.90209 v -0.92604 H 105.96563 92.604167 v 0.92604 0.92604 h 13.361463 13.36145 z m -10.75933,-1.58297 c 2.65728,-0.56302 4.5179,-1.51757 6.08321,-3.12086 1.61155,-1.65064 2.58891,-3.53317 4.28879,-8.26075 1.89081,-5.25861 3.17113,-7.1423 5.90107,-8.68204 l 1.1481,-0.64756 -0.61166,-0.42843 c -0.95675,-0.67013 -2.37766,-0.54053 -3.56308,0.32499 -1.14993,0.8396 -3.20038,2.97192 -3.93298,4.09001 -0.26283,0.40114 -0.51658,0.69063 -0.56389,0.64332 -0.0473,-0.0473 0.28051,-1.21188 0.72848,-2.58794 1.01456,-3.11647 1.14462,-6.56769 0.34356,-9.11652 -0.47835,-1.52201 -0.50204,-1.5493 -0.5745,-0.66146 -0.4472,5.47986 -1.00821,7.96261 -2.08968,9.24787 -0.88564,1.05252 -1.5236,1.09965 -1.13747,0.084 0.34888,-0.91762 0.0282,-2.81819 -1.31972,-7.82232 -1.18129,-4.38543 -1.4834,-6.41391 -1.10391,-7.41205 0.14892,-0.39166 0.16628,-0.71211 0.0386,-0.71211 -0.39773,0 -0.81309,1.60038 -0.81309,3.13283 0,0.8065 0.13686,2.8163 0.30413,4.46622 0.23312,2.29938 0.23064,3.24516 -0.0106,4.0504 -0.48427,1.61633 -0.82268,1.25195 -0.82268,-0.8858 0,-2.32721 -0.40008,-3.7531 -2.29384,-8.17534 -1.86612,-4.35771 -2.38669,-6.8105 -1.98055,-9.33187 0.16437,-1.02047 0.36864,-2.15306 0.45393,-2.51686 0.28903,-1.23295 -2.17484,1.71284 -2.77558,3.31846 -0.64409,1.72148 -1.06994,5.10991 -1.0793,8.58779 -0.007,2.59843 -0.4456,5.27002 -1.12944,6.87963 l -0.39324,0.92558 -0.95886,-2.06873 c -1.141646,-2.46309 -1.68305,-4.54403 -1.974332,-7.58856 l -0.215167,-2.24896 -0.507542,1.05833 c -0.451528,0.94154 -0.507783,1.68613 -0.509741,6.74688 -0.0019,5.00535 -0.06117,5.8077 -0.493168,6.68073 -0.270031,0.5457 -0.593719,0.99219 -0.719304,0.99219 -0.370078,0 -0.93577,-1.04661 -1.831028,-3.38765 -0.636222,-1.66369 -1.181391,-2.5629 -2.24573,-3.70417 -0.773052,-0.82893 -1.473618,-1.44038 -1.556816,-1.35877 -0.181132,0.17766 1.787088,9.67111 2.351465,11.34199 0.217657,0.64439 0.39574,1.23187 0.39574,1.30551 0,0.0736 -1.101328,-0.9445 -2.447395,-2.26255 -2.151666,-2.10689 -4.888328,-4.21183 -5.143757,-3.95641 -0.04875,0.0488 0.349954,0.55343 0.886015,1.12149 2.032455,2.15379 3.327916,4.68605 4.453716,8.70576 1.305464,4.66123 3.247432,8.31335 5.534067,10.40752 2.937568,2.69031 7.457077,3.76483 11.887187,2.82618 z m -4.45421,-0.11074 c -2.11126,-0.37376 -2.62152,-1.01557 -3.45869,-4.35038 -0.32056,-1.27693 -0.767325,-2.20643 -1.515451,-3.15288 -0.583483,-0.73816 -0.871307,-1.26937 -0.639603,-1.18046 0.981308,0.37657 2.635054,0.74431 2.764604,0.61477 0.20744,-0.20744 -0.69537,-3.63732 -1.13634,-4.31709 -0.209079,-0.32231 -0.377642,-0.67949 -0.374586,-0.79375 0.003,-0.11426 0.482196,0.53639 1.064746,1.4459 0.58256,0.9095 1.17911,1.65364 1.32567,1.65364 0.6075,0 0.53201,-0.93942 -0.2474,-3.07898 -0.893,-2.45136 -1.06903,-3.34715 -0.409,-2.0813 0.69336,1.32976 2.55404,3.59705 2.86361,3.48938 0.19801,-0.0689 0.26601,-1.2142 0.21186,-3.56823 -0.0792,-3.44295 0.17877,-5.29787 0.80925,-5.81887 0.25646,-0.21192 0.33319,0.14523 0.34864,1.62283 0.0247,2.36123 1.18997,8.9437 1.56139,8.81996 0.14899,-0.0496 0.39699,-1.53598 0.55111,-3.30299 0.15413,-1.767 0.37086,-3.30337 0.48165,-3.41415 0.11077,-0.11078 0.16327,1.79151 0.11665,4.22732 -0.0513,2.67793 0.0133,4.39589 0.16327,4.34566 0.13643,-0.0457 0.66658,-1.32579 1.17811,-2.84466 0.52671,-1.56393 0.97581,-2.54405 1.03556,-2.25998 0.15806,0.75157 -0.40674,3.31893 -1.144,5.20022 -0.72893,1.86 -0.67564,2.27116 0.15715,1.21244 0.64727,-0.82287 1.82806,-1.49031 2.63656,-1.49031 0.55053,0 0.54705,0.0223 -0.12876,0.82546 -0.98643,1.17231 -1.47061,2.15436 -2.38557,4.83867 -0.55739,1.63526 -1.00586,2.50008 -1.4648,2.82467 -0.77229,0.54619 -2.85505,0.80053 -4.36563,0.53311 z"
         id="path97"
         inkscape:connector-curvature="0" />
    </g>
  </g>
</svg>
