<?xml version="1.0" encoding="UTF-8" standalone="no"?>
<!-- Created with Inkscape (http://www.inkscape.org/) -->

<svg
   xmlns:dc="http://purl.org/dc/elements/1.1/"
   xmlns:cc="http://creativecommons.org/ns#"
   xmlns:rdf="http://www.w3.org/1999/02/22-rdf-syntax-ns#"
   xmlns:svg="http://www.w3.org/2000/svg"
   xmlns="http://www.w3.org/2000/svg"
   xmlns:sodipodi="http://sodipodi.sourceforge.net/DTD/sodipodi-0.dtd"
   xmlns:inkscape="http://www.inkscape.org/namespaces/inkscape"
   width="270.93332mm"
   height="270.93335mm"
   viewBox="0 0 270.93332 270.93336"
   version="1.1"
   id="svg8"
   inkscape:version="0.92.4 (5da689c313, 2019-01-14)"
   sodipodi:docname="Class_3_Fuel_Oil.svg">
  <defs
     id="defs2" />
  <sodipodi:namedview
     id="base"
     pagecolor="#ffffff"
     bordercolor="#666666"
     borderopacity="1.0"
     inkscape:pageopacity="0.0"
     inkscape:pageshadow="2"
     inkscape:zoom="0.35"
     inkscape:cx="-107.14283"
     inkscape:cy="289.42864"
     inkscape:document-units="mm"
     inkscape:current-layer="layer1"
     showgrid="false"
     inkscape:window-width="1920"
     inkscape:window-height="1017"
     inkscape:window-x="-8"
     inkscape:window-y="-8"
     inkscape:window-maximized="1" />
  <metadata
     id="metadata5">
    <rdf:RDF>
      <cc:Work
         rdf:about="">
        <dc:format>image/svg+xml</dc:format>
        <dc:type
           rdf:resource="http://purl.org/dc/dcmitype/StillImage" />
        <dc:title></dc:title>
      </cc:Work>
    </rdf:RDF>
  </metadata>
  <g
     inkscape:label="Layer 1"
     inkscape:groupmode="layer"
     id="layer1"
     transform="translate(-21.16666,45.522013)">
    <g
       id="g21"
       transform="matrix(1.7066667,0,0,1.7181208,-9.7971466,-159.27491)">
      <path
         style="fill:#fefefe;stroke-width:0.26458335"
         d="M 18.142855,145.05358 V 66.207741 h 79.375 79.374995 v 78.845839 78.84583 h -79.374995 -79.375 z"
         id="path37"
         inkscape:connector-curvature="0" />
      <path
         style="fill:#f5cecb;stroke-width:0.26458335"
         d="m 57.851493,184.46381 c -21.69423,-21.56056 -39.44346,-39.27786 -39.442732,-39.37178 0.0016,-0.20104 78.791814,-78.449296 79.112716,-78.568495 0.224719,-0.08347 79.107503,78.187345 79.105903,78.492205 -10e-4,0.20028 -78.792906,78.44862 -79.113679,78.56794 -0.119986,0.0446 -17.967978,-17.55931 -39.662208,-39.11987 z M 132.1784,179.58157 166.70589,145.05332 132.11187,110.4593 97.517855,75.865286 62.923838,110.4593 28.32982,145.05332 62.857311,179.58157 c 18.99012,18.99054 34.587366,34.52826 34.660544,34.52826 0.07318,0 15.670425,-15.53772 34.660545,-34.52826 z m -68.527341,-0.79375 -33.733727,-33.7345 33.800261,-33.80027 33.800262,-33.800258 33.800265,33.800258 33.80026,33.80027 -33.73373,33.7345 c -18.55355,18.55398 -33.793606,33.73451 -33.866795,33.73451 -0.07319,0 -15.313247,-15.18053 -33.866796,-33.73451 z m 37.509701,22.2125 c 1.99377,-0.83305 3.23693,-2.67956 3.23527,-4.80547 -10e-4,-1.58225 -0.69412,-2.77713 -1.88595,-3.25229 -0.49015,-0.19542 -0.92387,-0.37737 -0.96381,-0.40433 -0.04,-0.0269 0.40653,-0.52818 0.99218,-1.11383 0.92574,-0.92573 1.06482,-1.21929 1.06482,-2.24744 0,-1.50221 -0.83231,-2.79826 -2.25245,-3.50743 -1.600062,-0.79903 -5.365392,-0.75086 -7.077849,0.0905 -1.167035,0.57341 -2.575949,2.28836 -2.575949,3.13549 0,0.14933 0.506015,0.34255 1.124479,0.42936 0.618463,0.0868 1.492401,0.23314 1.942081,0.32516 0.732541,0.14991 0.8533,0.0811 1.160767,-0.66116 0.574225,-1.3863 1.955551,-1.76912 2.916423,-0.80825 0.291041,0.29104 0.529166,0.83223 0.529166,1.20265 0,0.86688 -1.105466,1.97235 -1.972349,1.97235 -0.607,0 -0.673484,0.10234 -0.673484,1.03669 0,0.57019 -0.07368,1.2287 -0.163727,1.46337 -0.140139,0.36519 -0.0084,0.40182 0.914435,0.25426 0.969131,-0.15497 1.162952,-0.0876 1.916641,0.66608 0.738666,0.73866 0.821456,0.96539 0.695486,1.90458 -0.162932,1.21477 -0.729598,1.96274 -1.6648,2.19746 -0.908711,0.22808 -2.117532,-0.47717 -2.449335,-1.42898 -0.223914,-0.64232 -0.426964,-0.79865 -1.020874,-0.78602 -1.014971,0.0216 -3.22671,0.397 -3.408196,0.57848 -0.228944,0.22895 0.817364,2.11092 1.557661,2.80174 0.364167,0.33983 1.119894,0.78108 1.679395,0.98057 1.414155,0.50422 5.149834,0.49042 6.379969,-0.0236 z M 69.262416,157.17668 c 1.285034,-0.38501 2.896047,-2.14079 3.550491,-3.86955 0.404416,-1.06829 0.483656,-2.38058 0.566272,-9.37803 l 0.09606,-8.13594 h -2.11523 -2.11523 l -0.08482,7.34219 c -0.07905,6.84304 -0.12174,7.40504 -0.627962,8.26677 -0.969092,1.64966 -2.771539,1.73275 -3.927742,0.18105 -0.529894,-0.71115 -0.559871,-1.10211 -0.633957,-8.26823 l -0.07776,-7.52178 h -2.237341 -2.23734 l 0.0052,6.54844 c 0.0061,7.63767 0.230322,9.63959 1.332404,11.89668 0.807662,1.65412 1.779384,2.58958 3.105068,2.9892 1.092457,0.32931 4.231675,0.29979 5.401847,-0.0508 z m 53.044354,-0.33225 c 1.56833,-0.7302 2.65317,-2.04858 3.57466,-4.3442 0.54089,-1.34747 0.59952,-1.93339 0.59952,-5.99145 0,-4.9817 -0.28837,-6.22144 -1.98325,-8.52612 -2.46696,-3.35454 -8.19987,-3.29791 -10.67692,0.10547 -1.59575,2.1925 -2.14556,4.40081 -2.12946,8.55295 0.0116,2.99155 0.10956,3.84392 0.60293,5.24634 1.42286,4.04445 3.27722,5.53934 6.91944,5.5781 1.29133,0.0138 2.06193,-0.14099 3.09308,-0.62109 z m -4.51789,-4.67047 c -1.17551,-0.92464 -1.55974,-2.00743 -1.69414,-4.77409 -0.14398,-2.96391 0.23846,-4.93724 1.17183,-6.04648 1.37127,-1.62967 3.42311,-1.16093 4.40798,1.00699 0.46131,1.01545 0.56109,1.73737 0.55509,4.01611 -0.009,3.34937 -0.36981,4.75715 -1.45375,5.66923 -0.98004,0.82465 -2.04362,0.87032 -2.98701,0.12824 z m -67.631442,0.68482 v -4.36562 h 2.910417 2.910417 v -2.11667 -2.11666 h -2.910417 -2.910417 v -1.98438 -1.98437 h 3.439584 3.439583 v -2.24896 -2.24896 h -5.688542 -5.688541 v 10.71562 10.71563 h 2.248958 2.248958 z m 38.89375,1.98438 v -2.38125 h -3.96875 -3.96875 v -2.24896 -2.24896 h 3.571875 3.571875 v -2.11666 -2.11667 h -3.571875 -3.571875 v -1.71979 -1.71979 h 3.836459 3.836458 v -2.24896 -2.24896 h -6.085417 -6.085416 v 10.71562 10.71563 h 6.217708 6.217708 z m 14.022922,-0.26458 v -2.64584 h -3.57188 -3.571875 v -8.06979 -8.06979 h -2.248958 -2.248959 v 10.71562 10.71563 h 5.820834 5.820838 z m 30.95625,-8.0698 v -10.71562 h -2.24896 -2.24896 v 10.71562 10.71563 h 2.24896 2.24896 z m 14.81666,8.0698 v -2.64584 h -3.57187 -3.57188 v -8.06979 -8.06979 h -2.24896 -2.24896 v 10.71562 10.71563 h 5.82084 5.82083 z m -37.83541,-24.47396 v -0.66146 H 97.650147 84.288688 v 0.66146 0.66146 H 97.650147 111.01161 Z M 93.754311,127.9218 c -0.672484,-0.76697 -1.246474,-2.07613 -1.560256,-3.55865 -0.402447,-1.90141 -0.847614,-2.69528 -2.28219,-4.06984 -0.67096,-0.6429 -1.168863,-1.16712 -1.106448,-1.16493 0.06241,0.002 1.025125,0.2872 2.139362,0.63337 l 2.025881,0.6294 -0.516448,-1.86366 c -0.570119,-2.05734 -0.810454,-2.59355 -1.448414,-3.23151 -0.236559,-0.23656 -0.373441,-0.48677 -0.304186,-0.55602 0.331123,-0.33113 1.07702,0.34853 1.938051,1.76594 1.490486,2.4536 1.994178,1.80935 0.803307,-1.02748 -0.600694,-1.43095 -0.796888,-2.32874 -0.706546,-3.23318 0.0218,-0.21828 0.20928,-0.006 0.416616,0.47069 0.400727,0.92224 2.52132,3.76265 2.809118,3.76265 0.364686,0 0.411242,-1.0628 0.162925,-3.71938 -0.290497,-3.10784 -0.05096,-4.53432 0.958501,-5.70788 l 0.605938,-0.70444 -0.112271,1.56012 c -0.09499,1.32 0.600747,6.62216 1.192914,9.0911 0.144968,0.60441 0.171103,0.61404 0.359458,0.13229 0.111717,-0.28574 0.212156,-1.47202 0.223194,-2.63619 0.01103,-1.16417 0.158755,-2.59292 0.328255,-3.175 l 0.308184,-1.05833 0.228274,1.19062 c 0.12554,0.65485 0.19455,2.70884 0.15336,4.56444 -0.0412,1.85559 -0.049,3.37364 -0.0173,3.37344 0.0317,-2.1e-4 0.36254,-0.98264 0.7352,-2.18319 0.37265,-1.20055 0.83818,-2.47129 1.03449,-2.82388 0.95057,-1.70728 0.6749,2.05327 -0.34763,4.74211 -0.30437,0.80036 -0.55346,1.49556 -0.55353,1.54487 -7e-5,0.0493 0.34855,-0.20372 0.77471,-0.56232 0.73273,-0.61655 2.55776,-1.17773 2.85699,-0.8785 0.076,0.076 -0.18089,0.51737 -0.57086,0.98083 -0.93838,1.1152 -1.79655,2.86577 -2.51622,5.13283 -0.32337,1.01864 -0.8371,2.11997 -1.14163,2.44739 -0.677294,0.72821 -0.43969,0.74138 1.47702,0.0819 3.94505,-1.35729 5.85446,-3.75627 8.12027,-10.20225 0.61382,-1.74625 1.46853,-3.87467 1.89935,-4.72982 0.98326,-1.95171 2.78995,-3.9031 4.20407,-4.54078 0.99014,-0.44649 1.04411,-0.51997 0.61327,-0.83501 -0.65579,-0.47952 -2.24061,-0.43187 -3.02437,0.0909 -1.15274,0.76893 -2.67398,2.29924 -3.84449,3.86739 -0.62634,0.8391 -1.20067,1.42553 -1.27629,1.30316 -0.0756,-0.12236 0.22994,-1.34468 0.67904,-2.71627 0.64774,-1.97826 0.8228,-2.98605 0.84684,-4.87504 0.0285,-2.24072 -0.274,-5.07556 -0.51582,-4.83375 -0.0602,0.0602 -0.22693,1.24161 -0.3704,2.62524 -0.32736,3.15688 -1.08395,5.62435 -2.02613,6.60778 -0.82655,0.86273 -1.89553,1.07176 -1.51932,0.29709 0.4769,-0.98201 0.16219,-3.46903 -0.94585,-7.47448 -0.62397,-2.25557 -1.23328,-4.994012 -1.35404,-6.085418 -0.14481,-1.308886 -0.16359,-0.54333 -0.0552,2.248958 0.26385,6.7947 0.21479,7.30299 -0.75491,7.82196 -0.53719,0.2875 -0.5487,0.25648 -0.37461,-1.00934 0.28021,-2.03738 -0.28346,-4.36275 -2.10033,-8.664703 -0.921878,-2.182813 -1.822004,-4.637223 -2.000275,-5.454245 -0.334306,-1.532124 -0.242459,-5.743092 0.146497,-6.716589 0.192974,-0.482976 0.153019,-0.476021 -0.457716,0.07969 -1.870371,1.701854 -2.823567,5.164316 -2.855161,10.371356 -0.02096,3.452585 -0.488482,6.505711 -1.259102,8.222331 l -0.525401,1.17037 -0.855679,-1.85208 c -1.573588,-3.405967 -2.079844,-5.412352 -2.403374,-9.524996 -0.01146,-0.145521 -0.195654,0.211667 -0.40935,0.79375 -0.302358,0.823584 -0.374828,2.232075 -0.326724,6.349996 0.05435,4.65202 0.0037,5.41212 -0.41874,6.28812 -0.264308,0.54805 -0.604644,1.07315 -0.756306,1.16688 -0.458507,0.28337 -1.423636,-1.10143 -2.0231,-2.90282 -0.655978,-1.97121 -1.701649,-3.69096 -2.928781,-4.816759 l -0.86519,-0.79375 0.157803,0.666231 c 0.08679,0.366428 0.517638,2.390488 0.957437,4.497908 0.439798,2.10743 1.031565,4.66342 1.315037,5.67997 0.28347,1.01655 0.465273,1.89841 0.404003,1.95968 -0.06127,0.0613 -1.213921,-0.952 -2.561447,-2.25171 -2.368748,-2.28469 -4.169836,-3.75658 -4.169836,-3.40767 0,0.0929 0.46386,0.72613 1.030798,1.40708 1.441342,1.73119 2.535026,4.04838 3.482986,7.37939 1.00525,3.53231 3.007857,7.73494 4.483978,9.40997 1.388764,1.5759 3.047421,2.73044 4.836488,3.36654 1.757365,0.62482 1.949815,0.63358 1.452206,0.066 z"
         id="path35"
         inkscape:connector-curvature="0" />
      <path
         style="fill:#f0afab;stroke-width:0.26458335"
         d="M 57.960583,184.5064 C 36.279114,162.98501 18.53973,145.27285 18.53973,145.14606 c 0,-0.29965 78.717577,-78.541444 79.019045,-78.541444 0.309296,0 79.103835,78.227394 79.010665,78.441964 -0.0983,0.22646 -78.803845,78.43737 -79.019375,78.52279 -0.09275,0.0368 -17.908013,-17.54158 -39.589482,-39.06297 z M 132.1784,179.58157 166.70589,145.05332 132.11187,110.4593 97.517855,75.865286 62.923838,110.4593 28.32982,145.05332 62.857311,179.58157 c 18.99012,18.99054 34.587366,34.52826 34.660544,34.52826 0.07318,0 15.670425,-15.53772 34.660545,-34.52826 z m -68.527341,-0.79375 -33.733727,-33.7345 33.800261,-33.80027 33.800262,-33.800258 33.800265,33.800258 33.80026,33.80027 -33.73373,33.7345 c -18.55355,18.55398 -33.793606,33.73451 -33.866795,33.73451 -0.07319,0 -15.313247,-15.18053 -33.866796,-33.73451 z m 37.306381,22.30239 c 1.41186,-0.43147 2.28019,-1.15663 2.88771,-2.4116 1.10517,-2.28298 0.45772,-5.1529 -1.31331,-5.82138 -0.91521,-0.34546 -0.97762,-0.58379 -0.25422,-0.97094 1.53681,-0.82248 1.75445,-3.87898 0.37846,-5.3152 -1.04695,-1.09278 -3.131712,-1.66249 -5.514097,-1.50686 -2.286154,0.14935 -3.845089,0.88484 -4.774497,2.25259 -1.053258,1.55001 -0.926081,1.82334 1.004854,2.1596 2.243931,0.39076 2.270278,0.38709 2.552755,-0.35588 0.135422,-0.35619 0.54538,-0.84363 0.911013,-1.08321 1.418302,-0.92931 3.083936,0.60545 2.282426,2.10308 -0.378717,0.70764 -1.662912,1.37154 -2.113875,1.09283 -0.166513,-0.10291 -0.281737,0.0749 -0.283467,0.43753 -0.0016,0.33601 -0.07532,1.04887 -0.163827,1.58414 l -0.16092,0.9732 1.19538,-0.0463 c 1.927484,-0.0746 2.929485,1.36063 2.27023,3.25178 -0.686945,1.97057 -3.399422,1.70199 -4.03358,-0.39939 -0.154279,-0.51123 -0.268828,-0.52619 -2.213222,-0.2891 -1.127789,0.13752 -2.092155,0.28285 -2.143037,0.32296 -0.05089,0.0401 0.04066,0.47645 0.203419,0.96964 0.309312,0.93722 1.560838,2.28591 2.633269,2.83771 1.492845,0.76812 4.518075,0.86583 6.648536,0.21476 z M 69.905507,156.93242 c 1.129636,-0.53686 2.158069,-1.77822 2.848258,-3.43798 0.663599,-1.59581 0.95159,-5.08915 0.95159,-11.54278 v -6.1585 h -2.38125 -2.38125 v 7.43366 c 0,6.50513 -0.05587,7.52823 -0.447297,8.19086 -0.965036,1.63368 -2.945818,1.6158 -3.915902,-0.0353 -0.491839,-0.83714 -0.537686,-1.45388 -0.613068,-8.24699 l -0.08147,-7.34219 h -2.257152 -2.257153 l 0.111284,7.87135 c 0.122203,8.64361 0.262096,9.55959 1.780022,11.65503 0.93387,1.28917 2.007729,1.90026 3.834053,2.18181 1.761389,0.27154 3.464864,0.07 4.809339,-0.56893 z m 52.135633,0.12732 c 2.95928,-1.05641 4.67564,-4.91772 4.68993,-10.55096 0.0148,-5.82904 -1.85736,-9.70202 -5.16952,-10.69436 -2.87106,-0.8602 -5.77056,-0.12638 -7.50441,1.89923 -2.76983,3.23593 -3.3953,10.75071 -1.29135,15.515 1.69866,3.84654 5.19115,5.28908 9.27535,3.83109 z m -4.34578,-4.97711 c -1.14307,-0.96182 -1.50264,-2.22248 -1.51435,-5.30926 -0.0127,-3.33946 0.21296,-4.3881 1.16289,-5.40501 1.50269,-1.60863 3.86038,-0.80627 4.51073,1.53506 0.34865,1.25518 0.34285,5.97637 -0.009,7.24295 -0.63889,2.30051 -2.61942,3.22448 -4.15037,1.93626 z m -67.273338,0.77615 v -4.36562 h 2.778125 2.778125 v -2.11667 -2.11666 h -2.778125 -2.778125 v -1.98438 -1.98437 h 3.307291 3.307292 v -2.24896 -2.24896 h -5.688542 -5.688541 v 10.71562 10.71563 h 2.38125 2.38125 z m 38.629166,1.98438 v -2.38125 h -3.96875 -3.96875 v -2.11667 -2.11666 h 3.571875 3.571875 v -2.24896 -2.24896 h -3.571875 -3.571875 v -1.71979 -1.71979 h 3.836459 3.836458 v -2.24896 -2.24896 h -6.085417 -6.085416 v 10.71562 10.71563 h 6.217708 6.217708 z m 14.022922,-0.26458 v -2.64584 h -3.57188 -3.571875 v -8.06979 -8.06979 h -2.248958 -2.248959 v 10.71562 10.71563 h 5.820834 5.820838 z m 30.95625,-8.0698 v -10.71562 h -2.24896 -2.24896 v 10.71562 10.71563 h 2.24896 2.24896 z m 14.81666,8.0698 v -2.64584 h -3.57187 -3.57188 v -8.06979 -8.06979 h -2.24896 -2.24896 v 10.71562 10.71563 h 5.82084 5.82083 z m -37.83541,-24.34167 v -0.79375 H 97.650147 84.288688 v 0.79375 0.79375 h 13.361459 13.361463 z m -17.340813,-2.54998 c -0.355737,-0.38385 -0.839832,-1.36611 -1.075769,-2.18282 -0.883142,-3.05701 -1.265528,-3.84242 -2.488414,-5.11114 -0.688724,-0.71454 -1.059119,-1.21652 -0.823098,-1.11552 0.236022,0.10101 1.159127,0.39409 2.051347,0.65129 l 1.622213,0.46765 -0.129813,-0.56985 c -0.392691,-1.72379 -0.922776,-3.26878 -1.397682,-4.07368 -0.940022,-1.59322 0.068,-0.80854 1.193482,0.92904 0.582084,0.89866 1.147631,1.63726 1.256771,1.64134 0.390991,0.0146 0.18701,-1.33378 -0.463021,-3.06075 -0.363802,-0.96653 -0.656799,-2.13011 -0.651102,-2.58573 l 0.01035,-0.82839 0.386003,0.88904 c 0.212299,0.48897 0.915879,1.59394 1.563511,2.45548 1.112252,1.47962 1.194091,1.53544 1.47674,1.00731 0.218926,-0.40907 0.225147,-1.28106 0.02318,-3.24923 -0.302263,-2.94557 -0.12038,-4.5053 0.65954,-5.65588 l 0.500536,-0.73839 0.178078,2.64583 c 0.09794,1.45521 0.425363,3.94872 0.727604,5.54114 0.302239,1.59242 0.557895,2.96164 0.568124,3.04271 0.01024,0.0811 0.12092,-0.0907 0.245986,-0.38176 0.125066,-0.29104 0.236424,-1.48167 0.247462,-2.64584 0.01103,-1.16416 0.162536,-2.59291 0.336661,-3.175 l 0.316594,-1.05833 0.18493,1.45521 c 0.28348,2.23062 0.26834,6.23384 -0.0265,7.00935 -0.1479,0.38902 -0.1571,0.62787 -0.0209,0.54371 0.13357,-0.0825 0.61134,-1.25022 1.06171,-2.59481 1.11806,-3.33799 1.33191,-3.60344 1.33003,-1.65096 -10e-4,1.42452 -0.23309,2.31547 -1.44508,5.55625 -0.17031,0.4554 -0.1358,0.44597 0.24759,-0.0677 0.6006,-0.80461 1.78996,-1.38755 2.83099,-1.38755 h 0.85639 l -0.6876,0.72761 c -0.87245,0.92322 -2.14191,3.46713 -2.68585,5.38226 -0.23114,0.81381 -0.68466,1.81579 -1.00782,2.22662 l -0.58755,0.74695 0.91355,-0.17798 c 1.65334,-0.32211 4.11174,-1.72247 5.35241,-3.04885 1.49762,-1.60107 2.52448,-3.61142 4.17589,-8.17538 1.87712,-5.18776 3.14015,-7.10936 5.59398,-8.5108 1.33786,-0.76409 1.34177,-1.05163 0.0198,-1.45673 -1.38697,-0.42501 -4.20714,1.64972 -6.23316,4.5856 -1.13805,1.64913 -1.24501,0.93101 -0.28224,-1.89487 0.62704,-1.84045 0.74242,-2.60936 0.74375,-4.95651 10e-4,-1.69357 -0.14707,-3.24294 -0.37919,-3.96875 l -0.38077,-1.190627 -0.18351,2.645837 c -0.29194,4.20937 -1.08444,6.72742 -2.40936,7.65543 -0.89646,0.62791 -1.35973,0.55174 -0.97835,-0.16087 0.47141,-0.88084 0.12257,-3.32979 -1.08642,-7.62685 -0.59367,-2.11006 -1.16763,-4.788963 -1.27546,-5.95313 -0.19244,-2.077675 -0.19968,-2.09445 -0.39323,-0.910601 -0.10844,0.663337 -0.0752,2.270681 0.0738,3.571875 0.52395,4.573756 0.28606,7.261406 -0.67539,7.630346 -0.27665,0.10616 -0.31782,-0.2094 -0.19662,-1.50726 0.19875,-2.12835 -0.31105,-4.11006 -2.16917,-8.432139 -0.793202,-1.845035 -1.621631,-4.043541 -1.840949,-4.885567 -0.502164,-1.92798 -0.506529,-4.822144 -0.01011,-6.711446 l 0.382357,-1.455208 -0.790778,0.926041 c -1.988553,2.328693 -2.878498,5.308775 -2.886041,9.664232 -0.0062,3.556223 -0.426289,6.697927 -1.156967,8.651747 l -0.602015,1.60978 -0.976415,-2.05606 c -1.31181,-2.762292 -1.787766,-4.508695 -2.012876,-7.385743 l -0.188894,-2.414164 -0.495554,1.058334 c -0.440997,0.941818 -0.488609,1.650904 -0.432456,6.440783 0.05892,5.02564 0.02569,5.45975 -0.501343,6.54844 -0.310444,0.64129 -0.664779,1.16599 -0.787408,1.16599 -0.383871,0 -1.218613,-1.39043 -1.826692,-3.04271 -0.321331,-0.87313 -0.863825,-2.06375 -1.205544,-2.64584 -0.635855,-1.08311 -2.518429,-3.065864 -2.518429,-2.652439 0,0.588489 1.937237,9.361189 2.384605,10.798579 0.277434,0.89141 0.450421,1.67474 0.384416,1.74075 -0.06601,0.066 -1.348272,-1.07499 -2.849478,-2.53555 -1.501204,-1.46057 -3.131005,-2.86321 -3.621781,-3.11701 l -0.892318,-0.46143 1.236446,1.41344 c 1.536689,1.75667 2.858889,4.40955 3.744817,7.51366 2.11886,7.42407 4.767718,11.21778 9.066908,12.98571 2.108523,0.86708 2.622117,0.85047 1.780577,-0.0576 z"
         id="path33"
         inkscape:connector-curvature="0" />
      <path
         style="fill:#eb938c;stroke-width:0.26458335"
         d="M 57.880549,184.37911 18.378023,145.18587 52.854709,110.85572 C 71.816889,91.974135 89.653772,74.277566 92.492232,71.530009 l 5.160833,-4.995559 39.501665,39.19342 39.50167,39.19341 -34.74063,34.59475 c -19.10734,19.02712 -36.94384,36.72361 -39.63666,39.32553 l -4.896036,4.73079 z M 132.1784,179.58157 166.70589,145.05332 132.11187,110.4593 97.517855,75.865286 62.923838,110.4593 28.32982,145.05332 62.857311,179.58157 c 18.99012,18.99054 34.587366,34.52826 34.660544,34.52826 0.07318,0 15.670425,-15.53772 34.660545,-34.52826 z M 63.659136,178.7959 29.933487,145.06947 63.724724,111.261 97.515961,77.452533 l 33.795109,33.806487 33.79512,33.80649 -33.72763,33.72841 c -18.5502,18.55062 -33.787516,33.72841 -33.860705,33.72841 -0.07319,0 -15.309612,-15.17689 -33.858719,-33.72643 z m 38.055914,22.02435 c 1.7345,-0.81883 2.68197,-2.46088 2.68197,-4.64806 0,-1.57424 -0.0638,-1.75826 -0.89958,-2.59403 -0.49477,-0.49477 -1.09008,-0.89958 -1.32292,-0.89958 -0.53403,0 -0.55298,-0.4228 -0.028,-0.62427 0.70527,-0.27064 1.4547,-1.83518 1.45573,-3.03908 0.002,-2.38741 -1.69189,-3.74632 -4.9289,-3.95406 -3.216857,-0.20645 -5.623202,0.74108 -6.579761,2.59086 -0.678688,1.31244 -0.542108,1.5073 1.278721,1.82439 2.273649,0.39594 2.558015,0.3741 2.558015,-0.19642 0,-0.55857 0.669433,-1.22338 1.47978,-1.46956 0.685557,-0.20826 1.959803,0.72346 1.959803,1.433 0,0.7171 -1.081817,1.83429 -1.852083,1.91265 -0.524666,0.0534 -0.699344,0.25879 -0.844648,0.99332 -0.100753,0.50932 -0.19005,1.20882 -0.198437,1.55443 -0.01357,0.55915 0.07222,0.61089 0.778615,0.46961 1.161027,-0.2322 2.088537,0.22553 2.512357,1.23988 0.669018,1.6012 -0.300107,3.35066 -1.856126,3.35066 -0.898629,0 -1.52146,-0.51569 -1.934306,-1.60155 l -0.256458,-0.67453 -2.143207,0.24961 c -1.718902,0.2002 -2.143207,0.33645 -2.143207,0.68821 0,0.71063 1.286092,2.48617 2.266207,3.12865 1.810872,1.18705 5.785853,1.31889 8.016405,0.26587 z M 70.078224,156.92053 c 0.599432,-0.30581 1.328841,-1.0194 1.797966,-1.75898 1.504706,-2.37218 1.627439,-3.18179 1.762924,-11.62933 l 0.124124,-7.73906 h -2.398742 -2.398739 l -0.0776,7.64557 c -0.07322,7.21415 -0.107458,7.67869 -0.606763,8.23245 -1.220555,1.35366 -2.930031,1.186 -3.782791,-0.37102 -0.387471,-0.70746 -0.461949,-1.85047 -0.532018,-8.16481 l -0.08147,-7.34219 h -2.254326 -2.254324 l 0.104849,7.87135 c 0.08575,6.43763 0.185433,8.11648 0.547256,9.21712 0.563263,1.71341 1.786985,3.40713 2.864122,3.96413 1.917613,0.99164 5.318943,1.02703 7.185533,0.0748 z m 52.116356,0.10649 c 1.31655,-0.51881 2.9572,-2.4209 3.62295,-4.20027 0.83589,-2.2341 1.19145,-6.03587 0.8289,-8.86285 -0.54061,-4.2155 -1.92823,-6.71442 -4.39021,-7.90624 -1.4813,-0.71709 -4.29679,-0.78562 -5.83943,-0.14214 -3.10926,1.29695 -4.86683,5.12252 -4.86683,10.59326 0,5.09033 1.57472,8.94868 4.20801,10.31041 1.84145,0.95225 4.34258,1.03301 6.43661,0.20783 z m -4.01372,-4.63516 c -0.99535,-0.51153 -1.58573,-1.51423 -1.90606,-3.23724 -0.60602,-3.25974 0.21257,-7.5833 1.57369,-8.31175 0.99439,-0.53218 2.26934,-0.34571 3.01105,0.44039 1.05066,1.11353 1.33795,2.50906 1.21727,5.91291 -0.11982,3.37979 -0.49714,4.45724 -1.79613,5.12897 -0.93462,0.48331 -1.26856,0.49392 -2.09982,0.0667 z m -67.758838,0.46692 v -4.36562 h 2.778125 2.778125 v -2.11667 -2.11666 h -2.778125 -2.778125 v -1.98438 -1.98437 h 3.307291 3.307292 v -2.24896 -2.24896 h -5.688542 -5.688541 v 10.71562 10.71563 h 2.38125 2.38125 z m 38.629166,1.98438 v -2.38125 h -3.96875 -3.96875 v -2.11667 -2.11666 h 3.571875 3.571875 v -2.24896 -2.24896 h -3.571875 -3.571875 v -1.71979 -1.71979 h 3.836459 3.836458 v -2.24896 -2.24896 h -6.085417 -6.085416 v 10.71562 10.71563 h 6.217708 6.217708 z m 14.022922,-0.26458 v -2.64584 h -3.57188 -3.571875 v -8.06979 -8.06979 h -2.248958 -2.248959 v 10.71562 10.71563 h 5.820834 5.820838 z m 30.95625,-8.0698 v -10.71562 h -2.24896 -2.24896 v 10.71562 10.71563 h 2.24896 2.24896 z m 14.81666,8.0698 v -2.64584 h -3.57187 -3.57188 v -8.06979 -8.06979 h -2.24896 -2.24896 v 10.71562 10.71563 h 5.82084 5.82083 z m -37.83541,-24.34167 v -0.79375 H 97.650147 84.288688 v 0.79375 0.79375 h 13.361459 13.361463 z m -13.565412,-1.48277 c -0.08792,-0.0879 -0.316124,-0.0973 -0.507119,-0.0209 -0.211066,0.0845 -0.148373,0.14716 0.159853,0.15985 0.278913,0.0115 0.435184,-0.051 0.347266,-0.13896 z m -3.843888,-1.27518 c -0.556556,-0.63389 -0.925989,-1.48018 -1.230418,-2.81866 -0.527863,-2.32083 -0.699376,-2.65607 -2.155198,-4.21246 l -1.143868,-1.22288 1.869527,0.62701 c 1.028243,0.34486 1.914708,0.58184 1.969926,0.52662 0.212437,-0.21243 -1.003368,-4.02462 -1.510855,-4.73732 -0.293801,-0.41261 -0.425469,-0.75019 -0.292592,-0.75019 0.341339,0 0.927954,0.72455 1.767234,2.18281 0.397827,0.69122 0.831069,1.25677 0.962763,1.25677 0.444339,0 0.243602,-1.48603 -0.422016,-3.12413 -0.363802,-0.89532 -0.661458,-1.95305 -0.661458,-2.35052 0,-0.71443 0.0053,-0.71224 0.468585,0.19318 0.25772,0.50372 0.960654,1.53714 1.562076,2.2965 0.924222,1.16694 1.143416,1.32051 1.415987,0.99208 0.249999,-0.30123 0.256534,-1.01397 0.02907,-3.17056 -0.326798,-3.09835 -0.08486,-4.98717 0.770088,-6.01215 0.497864,-0.59689 0.499113,-0.5934 0.507894,1.41681 0.0048,1.10834 0.306459,3.5948 0.670261,5.52546 0.363802,1.93065 0.663282,3.58367 0.665509,3.67337 0.0021,0.0897 0.119468,-0.0155 0.260533,-0.23379 0.141065,-0.21828 0.258966,-1.40891 0.262006,-2.64583 0.003,-1.23693 0.148754,-2.72521 0.323805,-3.3073 l 0.318271,-1.05833 0.1807,1.5875 c 0.2858,2.51085 0.2641,6.11415 -0.0417,6.92809 -0.2451,0.65234 -0.232392,0.69555 0.10236,0.34795 0.21022,-0.21828 0.7028,-1.4089 1.09462,-2.64583 0.39183,-1.23693 0.82202,-2.36207 0.95598,-2.50031 0.55755,-0.5754 0.19781,2.47911 -0.54249,4.60617 -0.75733,2.176 -0.88257,3.00321 -0.28588,1.88829 0.38169,-0.7132 1.72805,-1.40239 2.53578,-1.29805 l 0.63497,0.082 -0.81684,1.19063 c -1.01418,1.47827 -1.94447,3.52988 -2.17746,4.80203 -0.0973,0.53107 -0.47889,1.41066 -0.84805,1.95465 l -0.67121,0.98908 0.87664,-0.1706 c 1.74288,-0.33918 4.11577,-1.73784 5.47914,-3.22959 1.49627,-1.63716 2.42277,-3.44035 3.86417,-7.52057 1.92945,-5.46181 3.27468,-7.56832 5.72787,-8.96939 1.16861,-0.66742 1.25529,-0.77889 0.86048,-1.10654 -0.24146,-0.2004 -0.89394,-0.35243 -1.44994,-0.33785 -1.3976,0.0366 -3.19996,1.38491 -5.00612,3.74486 -0.80037,1.04577 -1.49246,1.79077 -1.538,1.65555 -0.0455,-0.13521 0.24462,-1.23541 0.64478,-2.44488 0.61822,-1.86859 0.72969,-2.65627 0.74179,-5.24175 0.009,-1.96023 -0.12147,-3.46629 -0.36721,-4.23333 l -0.38146,-1.19063 -0.19001,2.85867 c -0.23169,3.48573 -1.03234,6.31595 -2.08435,7.36796 -0.89374,0.89373 -1.7664,1.05206 -1.33277,0.24181 0.50958,-0.95216 0.27803,-2.68454 -1.04902,-7.84849 -0.72761,-2.831318 -1.33488,-5.769698 -1.3495,-6.529735 l -0.0266,-1.381882 -0.24933,1.058334 c -0.15993,0.678825 -0.1504,2.047303 0.0266,3.816265 0.3986,3.984298 0.35578,6.138418 -0.13597,6.840488 -0.65006,0.92809 -0.82057,0.70247 -0.70534,-0.93332 0.14801,-2.10118 -0.44634,-4.39067 -2.15951,-8.318678 -0.803675,-1.842694 -1.645343,-4.060874 -1.870372,-4.929288 -0.614799,-2.372581 -0.525653,-5.034306 0.249632,-7.453601 0.193202,-0.602893 0.172122,-0.626864 -0.246065,-0.279801 -0.819108,0.6798 -2.043808,2.669326 -2.58668,4.202064 -0.413724,1.168102 -0.580719,2.593389 -0.755399,6.447268 -0.218096,4.81176 -0.640617,7.433386 -1.440207,8.936096 -0.34931,0.65647 -0.374139,0.6284 -1.397971,-1.58062 -1.244269,-2.684627 -1.90537,-5.406314 -1.90537,-7.844209 0,-1.911049 -0.231635,-1.974521 -0.82324,-0.225581 -0.263875,0.780084 -0.338389,2.403292 -0.283419,6.17397 0.07729,5.30156 -0.08307,6.48091 -0.993207,7.30457 -0.464764,0.42061 -0.516535,0.41127 -0.921027,-0.16623 -0.23572,-0.33653 -0.804299,-1.60736 -1.26351,-2.82405 -0.612307,-1.62233 -1.184677,-2.59486 -2.146649,-3.6474 -0.721448,-0.789384 -1.366251,-1.380709 -1.432896,-1.314063 -0.170405,0.170405 1.750541,9.249113 2.32819,11.003403 0.262406,0.79692 0.431972,1.49407 0.376809,1.54924 -0.05516,0.0552 -1.398027,-1.13265 -2.98414,-2.63957 -1.586111,-1.50693 -3.290049,-2.97194 -3.786521,-3.25559 -0.864045,-0.49365 -0.845431,-0.45139 0.434829,0.98716 1.699194,1.90929 3.060753,4.66291 4.106043,8.30409 1.468432,5.11514 3.896397,9.38985 6.260573,11.02247 1.220954,0.84314 3.918424,2.01433 4.661302,2.02384 0.416698,0.005 0.370854,-0.12991 -0.304932,-0.89958 z"
         id="path31"
         inkscape:connector-curvature="0" />
      <path
         style="fill:#e9867e;stroke-width:0.26458335"
         d="M 57.880282,184.37909 18.377522,145.18587 52.589875,111.12006 C 71.406671,92.383868 89.243551,74.687423 92.22739,71.794629 l 5.425156,-5.259627 39.501554,39.193138 39.50156,39.19314 -34.47568,34.33041 c -18.96161,18.88172 -36.79795,36.5782 -39.6363,39.32551 l -5.160636,4.99512 z M 132.1784,179.58157 166.70589,145.05332 132.11187,110.4593 97.517855,75.865286 62.923838,110.4593 28.32982,145.05332 62.857311,179.58157 c 18.99012,18.99054 34.587366,34.52826 34.660544,34.52826 0.07318,0 15.670425,-15.53772 34.660545,-34.52826 z m -68.518282,-0.78469 -33.724666,-33.72544 33.789791,-33.80946 33.789789,-33.809447 33.795578,33.806487 33.79558,33.80649 -33.72763,33.72841 c -18.5502,18.55062 -33.787516,33.72841 -33.860705,33.72841 -0.07319,0 -15.30917,-15.17645 -33.857737,-33.72545 z m 36.480872,22.5931 c 2.67954,-0.57466 4.36894,-2.57197 4.36926,-5.16559 1.9e-4,-1.58195 -0.53901,-2.55281 -1.84617,-3.32405 l -0.90024,-0.53115 0.77968,-0.65606 c 2.18424,-1.83792 1.15909,-5.50988 -1.78448,-6.3918 -1.306131,-0.39132 -4.355118,-0.40748 -5.713563,-0.0303 -1.263592,0.35087 -2.685658,1.65273 -3.208398,2.9372 l -0.396238,0.97364 1.914028,0.30876 c 1.052716,0.16982 2.033024,0.26747 2.178465,0.21699 0.145442,-0.0505 0.443098,-0.44896 0.661459,-0.88552 0.340905,-0.68156 0.545171,-0.79375 1.44521,-0.79375 0.863777,0 1.118838,0.12587 1.449773,0.71548 0.370954,0.6609 0.359641,0.77191 -0.148304,1.45521 -0.350811,0.47191 -0.841968,0.76901 -1.35663,0.82062 -0.88946,0.0892 -1.115536,0.53949 -1.121709,2.23421 l -0.0036,0.99219 h 1.190625 c 1.571421,0 2.248958,0.65247 2.248958,2.16576 0,1.40595 -0.790117,2.33215 -1.989489,2.33215 -0.918298,0 -1.521799,-0.51657 -1.964823,-1.68181 -0.227356,-0.59799 -0.409826,-0.72565 -0.878311,-0.61444 -0.325233,0.0772 -1.275945,0.22244 -2.11269,0.32275 -1.766358,0.21177 -1.855324,0.43109 -0.862237,2.12567 1.341477,2.28906 4.452615,3.2452 8.049434,2.47382 z M 69.863227,157.07707 c 1.176702,-0.55838 2.437058,-2.22179 3.159987,-4.17053 0.448329,-1.20851 0.521539,-2.30189 0.618834,-9.24203 l 0.110353,-7.87135 h -2.404775 -2.404771 v 7.36921 c 0,7.23404 -0.01109,7.38569 -0.603859,8.26823 -0.949732,1.41395 -2.865659,1.41872 -3.698287,0.009 -0.408001,-0.69068 -0.460354,-1.62468 -0.460354,-8.21296 v -7.43366 h -2.38125 -2.38125 v 7.09516 c 0,3.98796 0.126235,7.77802 0.288253,8.65446 0.568833,3.0771 2.389994,5.48571 4.402444,5.82254 0.548815,0.0918 1.116907,0.21466 1.262428,0.2729 0.619953,0.2481 3.561099,-0.11929 4.492247,-0.56115 z m 52.480623,-0.0944 c 2.19826,-1.12147 3.68763,-3.64156 4.26883,-7.22308 0.83788,-5.1632 -0.36538,-10.45351 -2.89802,-12.7416 -1.96775,-1.77774 -5.26769,-2.18889 -7.68213,-0.95713 -1.46679,0.74829 -3.04658,2.69888 -3.7066,4.57658 -0.81235,2.31105 -1.0325,7.80125 -0.41048,10.23694 1.24905,4.89109 3.78415,7.05449 7.89681,6.73898 0.83853,-0.0643 1.97775,-0.34814 2.53159,-0.63069 z m -4.62722,-4.91055 c -1.04052,-0.72881 -1.48982,-2.39677 -1.49862,-5.56337 -0.0118,-4.25799 0.84203,-5.95312 2.99864,-5.95312 1.09896,0 2.23928,1.14863 2.65085,2.67017 0.19438,0.71861 0.27141,2.28345 0.2007,4.0767 -0.15839,4.01638 -0.80319,5.15938 -2.91054,5.15938 -0.48651,0 -1.13497,-0.17539 -1.44103,-0.38976 z m -67.294608,0.78663 v -4.36562 h 2.778125 2.778125 v -2.24896 -2.24896 h -2.778125 -2.778125 v -1.71979 -1.71979 h 3.307291 3.307292 v -2.38125 -2.38125 h -5.688542 -5.688541 v 10.71562 10.71563 h 2.38125 2.38125 z m 38.629166,1.98438 v -2.38125 h -3.96875 -3.96875 v -2.11667 -2.11666 h 3.571875 3.571875 v -2.24896 -2.24896 h -3.571875 -3.571875 v -1.71979 -1.71979 h 3.836459 3.836458 v -2.24896 -2.24896 h -6.085417 -6.085416 v 10.71562 10.71563 h 6.217708 6.217708 z m 14.287502,-0.26458 v -2.64584 h -3.571877 -3.571875 v -8.06979 -8.06979 h -2.38125 -2.38125 v 10.71562 10.71563 h 5.953125 5.953127 z m 30.69167,-8.0698 v -10.71562 h -2.38125 -2.38126 v 10.71562 10.71563 h 2.38126 2.38125 z m 15.08124,8.0698 v -2.64584 h -3.57187 -3.57187 v -8.06979 -8.06979 h -2.38125 -2.38126 v 10.71562 10.71563 h 5.95313 5.95312 z m -38.09999,-24.34167 v -0.79375 H 97.650147 84.288688 v 0.79375 0.79375 h 13.361459 13.361463 z m -13.163026,-1.50964 c -0.327422,-0.0631 -0.863203,-0.0631 -1.190625,0 -0.327422,0.0631 -0.05953,0.11466 0.595313,0.11466 0.654843,0 0.922734,-0.0516 0.595312,-0.11466 z m -2.844271,-0.26816 c -1.225309,-0.29851 -2.240999,-1.87423 -2.747089,-4.26179 -0.371689,-1.75349 -0.616072,-2.21247 -1.946555,-3.65588 -0.584261,-0.63385 -1.002565,-1.15245 -0.929569,-1.15245 0.073,0 0.594177,0.16045 1.158176,0.35655 0.563999,0.19611 1.350219,0.43583 1.747155,0.53273 0.696146,0.16994 0.715746,0.1456 0.55349,-0.68728 -0.288041,-1.47854 -1.127204,-3.71486 -1.582941,-4.21845 -0.239646,-0.26481 -0.316661,-0.48146 -0.171141,-0.48146 0.359045,0 0.911543,0.68205 1.768195,2.18281 0.394557,0.69122 0.831421,1.25677 0.970807,1.25677 0.462023,0 0.262818,-1.57492 -0.408028,-3.22588 -0.363802,-0.89532 -0.653912,-1.93475 -0.644686,-2.30984 l 0.01677,-0.68199 0.246866,0.6158 c 0.135777,0.3387 0.808199,1.37422 1.494274,2.30116 1.776849,2.40068 1.98133,2.11156 1.761625,-2.49087 -0.165258,-3.4619 -0.146838,-3.65424 0.45915,-4.79446 l 0.631315,-1.18788 0.161411,2.77813 c 0.136274,2.34543 0.793684,6.78357 1.214956,8.20208 0.262748,0.88473 0.546733,-0.45644 0.679898,-3.21096 0.07483,-1.54774 0.25247,-3.02212 0.394769,-3.27639 0.379469,-0.67809 0.707939,6.01854 0.368669,7.51639 -0.429026,1.89417 0.31048,0.78303 1.12511,-1.6905 0.95494,-2.89958 1.20977,-3.2338 1.2104,-1.5875 2.7e-4,0.78234 -0.31779,2.23748 -0.77845,3.56107 -0.75733,2.176 -0.88257,3.00321 -0.28588,1.88829 0.36482,-0.68169 1.61407,-1.34832 2.5267,-1.34832 h 0.68731 l -0.77025,1.12448 c -1.07349,1.56717 -1.79138,3.03939 -2.16177,4.43326 -0.52548,1.97752 -1.10032,2.94974 -1.967274,3.32724 -1.062233,0.46253 -0.381849,0.46526 1.345284,0.005 2.18201,-0.58097 3.70765,-1.47683 5.22615,-3.06883 1.67666,-1.75779 2.35092,-3.0273 3.86485,-7.27676 2.04661,-5.74462 3.34996,-7.83479 5.71934,-9.17198 0.78004,-0.44023 1.41825,-0.89366 1.41825,-1.00764 0,-0.11397 -0.36335,-0.35773 -0.80745,-0.54168 -1.69126,-0.70054 -4.00203,0.73907 -6.34028,3.94999 -0.65045,0.8932 -1.22314,1.50244 -1.27267,1.35386 -0.0495,-0.14857 0.24723,-1.25261 0.65945,-2.45342 0.65291,-1.90197 0.74949,-2.57536 0.74949,-5.226 0,-1.93221 -0.13988,-3.47726 -0.38326,-4.23333 l -0.38325,-1.19063 -0.19252,2.69543 c -0.30622,4.28732 -1.2944,7.31458 -2.6191,8.02354 -0.80111,0.42874 -1.1086,0.33206 -0.79681,-0.25053 0.53311,-0.99612 0.26275,-3.12823 -0.96016,-7.57183 -0.95063,-3.454283 -1.23926,-4.958159 -1.25677,-6.548225 -0.022,-2.003555 -0.0333,-2.038488 -0.38416,-1.190625 -0.25764,0.622617 -0.3149,1.48141 -0.19938,2.990157 0.51565,6.734493 0.52163,7.491423 0.0647,8.188823 -0.24315,0.3711 -0.52864,0.67403 -0.63442,0.67318 -0.10579,-7.9e-4 -0.19857,-1.10217 -0.20617,-2.44739 -0.013,-2.30405 -0.0871,-2.62228 -1.2781,-5.488572 -2.226807,-5.359246 -2.847149,-7.230226 -2.999409,-9.046402 -0.12763,-1.522355 0.14482,-3.90074 0.626176,-5.466331 0.212254,-0.690342 -1.752772,1.573525 -2.314932,2.666987 -0.827815,1.610193 -1.233771,4.0493 -1.421103,8.538455 -0.186841,4.477427 -0.444538,6.180823 -1.198775,7.924033 l -0.46374,1.0718 -0.964353,-2.09696 C 91.079265,99.24014 90.662287,97.691769 90.412663,94.756148 L 90.201192,92.2692 89.694999,93.327533 c -0.450916,0.942758 -0.506484,1.695117 -0.508857,6.889407 -0.0024,5.13333 -0.0588,5.91692 -0.471781,6.54844 -0.258017,0.39455 -0.636215,0.71736 -0.840436,0.71736 -0.379183,0 -1.302893,-1.76173 -2.129925,-4.06225 -0.299651,-0.83353 -1.015524,-1.85479 -2.040118,-2.91042 -0.868161,-0.894457 -1.5134,-1.421071 -1.433861,-1.170251 0.07954,0.25082 0.572598,2.492941 1.095687,4.982501 0.523092,2.48955 1.170392,5.23113 1.43845,6.0924 0.268057,0.86127 0.431188,1.56594 0.362518,1.56594 -0.06867,0 -1.400534,-1.22039 -2.959695,-2.71198 -1.55916,-1.49159 -3.246662,-2.94434 -3.750003,-3.22834 -0.907068,-0.51179 -0.903893,-0.5036 0.358696,0.92604 1.58288,1.7923 3.351781,5.41448 4.257685,8.71845 1.027346,3.74687 3.03548,7.64098 4.903822,9.50932 1.944047,1.94405 4.983692,3.41388 7.027132,3.39799 l 0.529167,-0.004 -0.529167,-0.12892 z"
         id="path29"
         inkscape:connector-curvature="0" />
      <path
         style="fill:#e6776f;stroke-width:0.26458335"
         d="M 57.880991,184.37863 18.37798,145.18587 52.590105,111.12032 C 71.406774,92.384262 89.243551,74.687817 92.22739,71.794883 l 5.425156,-5.259881 39.501554,39.193138 39.50156,39.19314 -34.47568,34.33041 c -18.96161,18.88172 -36.79774,36.57799 -39.63582,39.32505 L 97.384,223.5714 Z M 132.1784,179.58157 166.70589,145.05332 132.11187,110.4593 97.517855,75.865286 62.923838,110.4593 28.32982,145.05332 62.857311,179.58157 c 18.99012,18.99054 34.587366,34.52826 34.660544,34.52826 0.07318,0 15.670425,-15.53772 34.660545,-34.52826 z M 63.660118,178.79688 29.935452,145.07144 63.725719,111.26198 97.515984,77.452533 131.31009,111.26001 165.1042,145.0675 131.37756,178.79491 c -18.54965,18.55008 -33.786516,33.72742 -33.859705,33.72742 -0.07319,0 -15.30917,-15.17645 -33.857737,-33.72545 z m 36.948322,22.48121 c 1.66952,-0.49579 2.59674,-1.21514 3.27174,-2.53826 1.20969,-2.37118 0.79943,-4.52671 -1.09383,-5.74704 l -0.94921,-0.61183 0.84195,-0.84338 c 1.19778,-1.19981 1.39579,-2.52906 0.60995,-4.09469 -0.83702,-1.66759 -2.06946,-2.27547 -4.856663,-2.39544 -2.506832,-0.1079 -4.022027,0.24211 -5.147427,1.18908 -0.733832,0.61747 -2.017395,2.66123 -1.804823,2.87374 0.04653,0.0465 1.004612,0.25828 2.129065,0.47059 l 2.044464,0.38602 0.469078,-0.95925 c 0.421647,-0.86227 0.575069,-0.95926 1.517269,-0.95926 0.863777,0 1.118838,0.12587 1.449773,0.71548 0.370954,0.6609 0.359641,0.77191 -0.148304,1.45521 -0.350811,0.47191 -0.841968,0.76901 -1.35663,0.82062 -0.897895,0.09 -1.115692,0.53706 -1.121709,2.30226 l -0.0036,1.06024 1.165945,-0.0927 c 1.54841,-0.12315 2.273638,0.55383 2.273638,2.12239 0,2.62236 -2.865279,3.24211 -3.870155,0.83711 -0.334418,-0.80038 -0.481132,-0.90507 -1.10208,-0.78646 -0.393967,0.0753 -1.341385,0.21384 -2.105369,0.30796 -1.012478,0.12473 -1.389062,0.28361 -1.389062,0.58606 0,0.7554 1.303927,2.65551 2.204095,3.21184 1.74285,1.07714 4.686692,1.36838 6.971915,0.68974 z M 69.910621,157.03865 c 1.316977,-0.68345 2.345346,-2.00416 3.055501,-3.92411 0.543269,-1.46876 0.590968,-2.12669 0.685102,-9.45003 l 0.101177,-7.87135 h -2.393157 -2.393153 l -0.07776,7.52178 c -0.07406,7.16329 -0.104246,7.55736 -0.633381,8.26823 -0.421058,0.56567 -0.813091,0.76574 -1.61876,0.8261 -0.914781,0.0685 -1.160315,-0.0358 -1.759487,-0.7479 l -0.696344,-0.82756 v -7.52033 -7.52032 h -2.38125 -2.38125 v 7.26302 c 0,4.36992 0.118502,7.82151 0.297492,8.6651 0.635831,2.99669 2.442319,5.31752 4.393205,5.64404 0.548815,0.0918 1.116907,0.21466 1.262428,0.2729 0.656066,0.26255 3.637013,-0.13115 4.539641,-0.59957 z m 52.364929,-0.0263 c 2.96154,-1.52563 4.57919,-5.2195 4.59983,-10.50358 0.023,-5.89896 -2.01908,-9.79582 -5.69314,-10.8639 -3.86831,-1.12454 -7.45167,0.941 -8.89911,5.12971 -0.53145,1.53795 -0.61007,2.27685 -0.61007,5.73419 0,3.1414 0.10105,4.27212 0.4847,5.42396 1.00349,3.01283 2.79666,4.96991 5.07206,5.5357 1.51444,0.37657 3.83691,0.16665 5.04573,-0.45608 z m -4.55892,-4.94021 c -1.04312,-0.73063 -1.49025,-2.39591 -1.49377,-5.56337 -0.003,-3.08907 0.31515,-4.33578 1.38014,-5.40076 0.8271,-0.8271 2.25828,-0.73922 3.1936,0.19609 0.98208,0.98208 1.32423,2.31187 1.32603,5.15366 0.003,4.16325 -0.86733,6.00414 -2.83744,6.00414 -0.55665,0 -1.2625,-0.17539 -1.56856,-0.38976 z m -67.294608,0.78662 v -4.36562 h 2.778125 2.778125 v -2.24896 -2.24896 h -2.778125 -2.778125 v -1.71979 -1.71979 h 3.307291 3.307292 v -2.38125 -2.38125 h -5.688542 -5.688541 v 10.71562 10.71563 h 2.38125 2.38125 z m 38.629166,1.99145 v -2.37417 l -3.902604,-0.0732 -3.902604,-0.0732 -0.07727,-2.05052 -0.07728,-2.05052 h 3.583006 3.583003 v -2.24896 -2.24896 H 84.672938 81.08844 l 0.07877,-1.65365 0.07877,-1.65364 3.770312,-0.0734 3.770313,-0.0734 v -2.2417 -2.24169 h -6.085417 -6.085416 v 10.71562 10.71563 h 6.217708 6.217708 z m 14.287502,-0.27165 v -2.64584 h -3.571877 -3.571875 v -8.06979 -8.06979 h -2.38125 -2.38125 v 10.71562 10.71563 h 5.953125 5.953127 z m 30.69167,-8.0698 v -10.71562 h -2.38125 -2.38126 v 10.71562 10.71563 h 2.38126 2.38125 z m 15.08124,8.0698 v -2.64584 h -3.57187 -3.57187 v -8.06979 -8.06979 h -2.38125 -2.38126 v 10.71562 10.71563 h 5.95313 5.95312 z m -38.09999,-24.34167 v -0.79375 H 97.650147 84.288688 v 0.79375 0.79375 h 13.361459 13.361463 z m -13.030734,-1.51243 c -0.400182,-0.0606 -1.055026,-0.0606 -1.455209,0 -0.400182,0.0606 -0.07276,0.11023 0.727605,0.11023 0.800364,0 1.127786,-0.0496 0.727604,-0.11023 z m -3.033678,-0.26061 c -1.193433,-0.231 -1.951837,-1.58496 -2.957177,-5.27936 -0.176075,-0.64704 -0.814908,-1.67495 -1.552842,-2.49859 -0.786193,-0.8775 -1.056373,-1.32129 -0.724532,-1.19011 1.137647,0.44974 3.100903,0.98151 3.212314,0.87011 0.248364,-0.24837 -0.801606,-3.70045 -1.388602,-4.56544 -0.339426,-0.50017 -0.497353,-0.9094 -0.350949,-0.9094 0.146405,0 0.751427,0.7739 1.344496,1.71979 0.593069,0.94588 1.184069,1.71979 1.313336,1.71979 0.435896,0 0.239274,-1.51322 -0.426429,-3.28183 -0.716785,-1.90432 -0.950653,-3.64776 -0.283853,-2.11606 0.196295,0.45089 0.872258,1.48588 1.502143,2.29995 1.670331,2.15877 1.872507,1.83002 1.656559,-2.69368 -0.165259,-3.4619 -0.146838,-3.65424 0.45915,-4.79446 l 0.631314,-1.18788 0.163272,2.77813 c 0.140687,2.39384 0.811041,6.97169 1.199981,8.19466 0.272674,0.8574 0.616508,-0.41412 0.620509,-2.29466 0.0021,-1.04787 0.149008,-2.53615 0.326181,-3.30729 l 0.322131,-1.40209 0.23218,3.29131 c 0.14453,2.04884 0.13544,3.78055 -0.0241,4.58728 -0.385618,1.95028 0.2474,1.0743 1.10463,-1.52859 0.98498,-2.99078 1.29431,-3.31903 1.122,-1.19062 -0.0766,0.94588 -0.44817,2.53862 -0.82577,3.53941 -0.3776,1.0008 -0.62513,1.88104 -0.55007,1.9561 0.0751,0.0751 0.21061,-0.0568 0.30124,-0.29292 0.23606,-0.61516 1.77078,-1.49843 2.6036,-1.49843 h 0.70909 l -0.77026,1.12448 c -1.07349,1.56717 -1.79138,3.03939 -2.16177,4.43326 -0.52548,1.97752 -1.10031,2.94974 -1.967275,3.32724 -1.356201,0.59053 0.111866,0.47003 1.992635,-0.16355 2.07492,-0.69899 3.25815,-1.46536 4.77721,-3.09415 1.51316,-1.62245 2.18809,-2.93015 3.77927,-7.32248 2.09612,-5.78616 3.22822,-7.58976 5.60652,-8.93199 0.78004,-0.44022 1.41824,-0.89366 1.41824,-1.00763 0,-0.11398 -0.36335,-0.35774 -0.80745,-0.54169 -1.68497,-0.69793 -3.88972,0.66145 -6.35544,3.9186 -0.71707,0.94723 -1.30377,1.54675 -1.30377,1.33225 0,-0.21449 0.32002,-1.27404 0.71115,-2.35456 0.63135,-1.74413 0.71234,-2.35052 0.72175,-5.40415 0.008,-2.65881 -0.0883,-3.6498 -0.42498,-4.36563 l -0.43559,-0.92604 -0.0268,1.5875 c -0.0851,5.03884 -1.63818,9.39271 -3.35042,9.39271 -0.37016,0 -0.40537,-0.0706 -0.15843,-0.3175 0.60593,-0.60592 0.34198,-3.20867 -0.72131,-7.11293 -1.34948,-4.955098 -1.70715,-6.8707 -1.53989,-8.247386 l 0.13646,-1.123227 -0.39709,0.926041 c -0.2977,0.694246 -0.35653,1.45586 -0.23503,3.042709 0.43476,5.678123 0.45929,7.411063 0.11392,8.048893 -0.64508,1.19135 -0.87934,0.88598 -0.78851,-1.02787 0.10644,-2.24269 -0.2973,-3.73855 -2.21637,-8.211648 -2.20535,-5.140387 -2.633245,-7.67186 -1.855616,-10.978027 0.205081,-0.871924 0.332589,-1.625602 0.283353,-1.674838 -0.04924,-0.04924 -0.567431,0.51508 -1.151541,1.254037 -1.759786,2.226295 -2.183223,3.744801 -2.440784,8.752994 -0.123484,2.401094 -0.293441,4.960938 -0.377682,5.688542 -0.150667,1.30135 -1.123363,4.63021 -1.352949,4.63021 -0.245804,0 -2.012016,-4.170414 -2.396681,-5.659085 -0.221422,-0.856924 -0.489664,-2.58333 -0.59609,-3.836458 L 90.202285,92.2692 89.692882,93.327533 c -0.459057,0.953739 -0.502488,1.582801 -0.439457,6.365169 0.07294,5.533778 -0.140205,7.046028 -1.076306,7.636498 -0.59232,0.37363 -1.00566,-0.22694 -2.050299,-2.97899 -0.678561,-1.78764 -1.136211,-2.51591 -2.410878,-3.83646 -0.92964,-0.963106 -1.515369,-1.413471 -1.431666,-1.1008 0.07791,0.291042 0.571982,2.54884 1.097923,5.01732 0.525944,2.46849 1.170702,5.17716 1.432799,6.01927 0.262093,0.84212 0.420348,1.53112 0.351678,1.53112 -0.06867,0 -1.410739,-1.23952 -2.982372,-2.75448 -1.571633,-1.51496 -3.251113,-2.95801 -3.732176,-3.20678 -0.859139,-0.44428 -0.852437,-0.42709 0.377629,0.96854 1.589125,1.80301 3.140528,4.94817 4.028864,8.16772 0.8598,3.11613 2.843913,7.35959 4.290277,9.17569 0.600305,0.75376 1.648163,1.75349 2.328576,2.22163 1.392698,0.9582 4.392743,2.10093 5.394548,2.05482 0.606808,-0.0279 0.613018,-0.0398 0.07518,-0.14393 z"
         id="path27"
         inkscape:connector-curvature="0" />
      <path
         style="fill:#e0554b;stroke-width:0.26458335"
         d="M 57.910537,184.37484 18.435513,145.18587 42.829288,120.90968 C 56.245863,107.55777 74.069157,89.863016 82.436605,81.587995 l 15.213542,-15.045491 39.473263,39.189386 39.47325,39.18939 -24.65659,24.54077 c -13.56112,13.49743 -31.38362,31.19199 -39.60555,39.32127 L 97.385563,223.56381 Z M 132.1784,179.58157 166.70589,145.05332 132.11187,110.4593 97.517855,75.865286 62.923838,110.4593 28.32982,145.05332 62.857311,179.58157 c 18.99012,18.99054 34.587366,34.52826 34.660544,34.52826 0.07318,0 15.670425,-15.53772 34.660545,-34.52826 z m -68.39505,-0.92604 -33.601433,-33.60222 33.667968,-33.66796 33.66797,-33.667974 33.667965,33.667974 33.66797,33.66796 -33.60143,33.60222 c -18.48079,18.48122 -33.661316,33.60221 -33.734505,33.60221 -0.07319,0 -15.253719,-15.12099 -33.734505,-33.60221 z m 37.92691,22.24601 c 2.00913,-1.02498 3.26933,-3.52704 2.816,-5.59103 -0.20499,-0.93329 -1.5868,-2.63193 -2.14102,-2.63193 -0.53171,0 -0.45524,-0.37073 0.19622,-0.95118 1.52294,-1.35696 1.58318,-3.70759 0.13437,-5.24377 -1.03749,-1.10007 -2.33333,-1.47628 -5.065683,-1.47068 -2.482591,0.005 -3.873715,0.52235 -4.997911,1.85837 -0.722471,0.85861 -1.332986,2.0781 -1.137986,2.2731 0.05314,0.0531 0.800611,0.22185 1.661049,0.37493 0.860436,0.15307 1.760948,0.33547 2.001134,0.40533 0.304628,0.0886 0.584697,-0.17592 0.926041,-0.87465 0.413859,-0.84715 0.635675,-1.01393 1.438027,-1.08118 1.085905,-0.091 1.631,0.38088 1.631,1.41202 0,0.90569 -0.783879,1.71021 -1.666346,1.71021 -0.853117,0 -1.045633,0.38186 -1.045633,2.07406 v 1.23704 l 1.165944,-0.0927 c 1.534002,-0.122 2.273639,0.55637 2.273639,2.08532 0,2.59936 -3.290062,3.26946 -3.83653,0.7814 -0.09584,-0.43639 -0.279003,-0.79343 -0.407019,-0.79343 -0.405265,0 -4.351597,0.59646 -4.440013,0.67107 -0.133482,0.11266 1.026004,2.31907 1.503868,2.86175 0.561936,0.63816 1.785499,1.27265 2.946361,1.52788 1.646401,0.36198 4.832668,0.0763 6.044488,-0.5419 z M 70.071231,157.03322 c 1.164019,-0.67982 2.47214,-2.46794 3.01402,-4.11997 0.373364,-1.13827 0.469998,-2.74384 0.556646,-9.24874 l 0.104849,-7.87135 h -2.401945 -2.401946 v 7.15225 c 0,7.59737 -0.142153,8.61999 -1.283123,9.23062 -0.926397,0.49579 -2.017144,0.33596 -2.705653,-0.39648 l -0.641432,-0.68236 -0.0776,-7.65201 -0.0776,-7.65202 H 61.767471 59.37749 l 0.102648,8.13594 c 0.116393,9.22532 0.207298,9.72796 2.146424,11.86776 0.815727,0.90015 1.439204,1.3079 2.421501,1.58365 1.759265,0.49387 4.892212,0.31323 6.023168,-0.34729 z m 51.432419,0.32608 c 3.32864,-0.9885 5.37896,-5.12444 5.37896,-10.85052 0,-6.62023 -2.49099,-10.61579 -6.94464,-11.13923 -3.92871,-0.46174 -6.91941,1.99394 -7.99754,6.56684 -0.5125,2.17376 -0.51062,6.89047 0.004,9.1515 1.17809,5.17962 4.93551,7.64462 9.55959,6.27141 z m -4.00339,-5.52844 c -0.88481,-0.8848 -1.28733,-2.54939 -1.28695,-5.32208 5.1e-4,-3.7816 1.05175,-5.95312 2.88191,-5.95312 1.94271,0 3.02889,2.09992 3.02889,5.85583 0,4.19025 -0.90959,6.05042 -2.95853,6.05042 -0.73716,0 -1.21556,-0.18128 -1.66532,-0.63105 z m -67.078238,1.02792 v -4.36562 h 2.778125 2.778125 v -2.24896 -2.24896 h -2.778125 -2.778125 v -1.71979 -1.71979 h 3.307291 3.307292 v -2.38125 -2.38125 h -5.688542 -5.688541 v 10.71562 10.71563 h 2.38125 2.38125 z m 38.629166,1.99145 v -2.37417 l -3.902604,-0.0732 -3.902604,-0.0732 -0.07727,-2.05052 -0.07728,-2.05052 h 3.583006 3.583003 v -2.24896 -2.24896 H 84.672938 81.08844 l 0.07877,-1.65365 0.07877,-1.65364 3.770312,-0.0734 3.770313,-0.0734 v -2.2417 -2.24169 h -6.085417 -6.085416 v 10.71562 10.71563 h 6.217708 6.217708 z m 14.287502,-0.27165 v -2.64584 h -3.571877 -3.571875 v -8.06979 -8.06979 h -2.38125 -2.38125 v 10.71562 10.71563 h 5.953125 5.953127 z m 30.69167,-8.0698 v -10.71562 h -2.38125 -2.38126 v 10.71562 10.71563 h 2.38126 2.38125 z m 15.08124,8.0698 v -2.64584 h -3.57187 -3.57187 v -8.06979 -8.06979 h -2.38125 -2.38126 v 10.71562 10.71563 h 5.95313 5.95312 z m -38.09999,-24.34167 v -0.79375 H 97.650147 84.288688 v 0.79375 0.79375 h 13.361459 13.361463 z m -13.030734,-1.51243 c -0.400182,-0.0606 -1.055026,-0.0606 -1.455209,0 -0.400182,0.0606 -0.07276,0.11023 0.727605,0.11023 0.800364,0 1.127786,-0.0496 0.727604,-0.11023 z m -3.099692,-0.42073 c -1.162677,-0.40046 -2.003846,-1.64322 -2.418654,-3.57337 -0.430157,-2.00156 -0.87834,-2.87538 -2.15256,-4.19681 l -1.064927,-1.10438 1.768512,0.53981 c 0.97268,0.2969 1.827078,0.48124 1.898664,0.40966 0.258318,-0.25832 -0.772883,-3.68964 -1.37586,-4.57818 -0.339426,-0.50017 -0.497353,-0.9094 -0.350949,-0.9094 0.146405,0 0.751427,0.7739 1.344496,1.71979 0.593069,0.94588 1.184069,1.71979 1.313336,1.71979 0.452536,0 0.229127,-1.77538 -0.426429,-3.38871 -0.722119,-1.77715 -0.963445,-3.57167 -0.263773,-1.96143 0.402606,0.92656 2.521892,3.76264 2.811669,3.76264 0.413654,0 0.498742,-1.0877 0.332065,-4.24489 -0.169246,-3.20588 -0.147249,-3.43068 0.455477,-4.65506 l 0.633312,-1.28651 0.177147,3.04271 c 0.192267,3.30246 1.011626,7.92519 1.420505,8.01433 0.142746,0.0311 0.33142,-1.2221 0.429824,-2.85496 0.09646,-1.60073 0.287369,-3.20448 0.424233,-3.5639 0.345088,-0.90624 0.681258,6.12343 0.357058,7.46651 -0.13172,0.5457 -0.14153,0.99219 -0.0218,0.99219 0.22277,0 1.30848,-2.67199 1.321,-3.25107 0.004,-0.17645 0.23231,-0.79706 0.50775,-1.37914 l 0.50081,-1.05834 0.0214,1.1516 c 0.0118,0.63338 -0.33577,2.21773 -0.77233,3.52078 -0.43656,1.30306 -0.79375,2.47973 -0.79375,2.61483 0,0.13511 0.38695,-0.17345 0.8599,-0.68568 0.5957,-0.64519 1.17871,-0.98206 1.89758,-1.09645 l 1.03769,-0.16512 -0.67779,0.9019 c -0.91205,1.21361 -2.21238,3.86311 -2.45538,5.00294 -0.32875,1.54212 -1.12258,2.84173 -1.911695,3.1297 -0.632275,0.23073 -0.654987,0.27101 -0.162938,0.28899 1.080033,0.0395 3.881323,-1.00971 5.294353,-1.9829 2.37939,-1.63875 3.73446,-3.85706 5.64495,-9.241 1.938,-5.4615 3.38424,-7.62463 5.97958,-8.94362 l 1.23934,-0.62985 -0.62646,-0.43879 c -1.75765,-1.23111 -4.25046,0.20686 -7.26612,4.19142 -0.55068,0.72761 -0.93597,1.0848 -0.85621,0.79375 0.0798,-0.29104 0.45624,-1.58428 0.83662,-2.87387 0.76898,-2.60712 0.93237,-6.08352 0.39102,-8.3199 -0.45428,-1.876709 -0.75752,-1.944591 -0.75977,-0.17008 -0.005,4.22343 -1.42216,8.80359 -2.83741,9.17264 -0.41978,0.10947 -0.46946,-0.11163 -0.48317,-2.15068 -0.0125,-1.85374 -0.22898,-3.02868 -1.17454,-6.37373 -0.89279,-3.158367 -1.16296,-4.567927 -1.17534,-6.132183 -0.0116,-1.463218 -0.0889,-1.907096 -0.27669,-1.587501 -0.31827,0.54179 -0.34125,3.903631 -0.0546,7.984264 0.16412,2.33629 0.13338,3.19143 -0.13241,3.68327 -0.6281,1.16232 -0.87965,0.89264 -0.78211,-0.83846 0.12869,-2.284 -0.29876,-3.94304 -2.12543,-8.249259 -2.359872,-5.563207 -2.766309,-7.903595 -1.930085,-11.114072 0.221826,-0.851647 0.356732,-1.595035 0.299794,-1.651975 -0.20034,-0.200338 -1.769965,1.800728 -2.42239,3.088232 -0.804932,1.588454 -1.110404,3.576922 -1.42276,9.261432 -0.184195,3.352126 -0.378968,4.782982 -0.838986,6.163372 -0.329507,0.98877 -0.678619,1.70314 -0.775806,1.5875 -0.417589,-0.49687 -2.079778,-4.5562 -2.365468,-5.776845 -0.171624,-0.733292 -0.404791,-2.340636 -0.518144,-3.571875 l -0.206102,-2.23861 -0.507585,1.058333 c -0.451734,0.941877 -0.507688,1.684282 -0.508503,6.746877 -7.93e-4,4.94865 -0.06202,5.80038 -0.47073,6.54844 -0.258398,0.47294 -0.567368,0.85989 -0.686597,0.85989 -0.441788,0 -1.102487,-1.00439 -1.586923,-2.41242 -0.786826,-2.28695 -1.565987,-3.63062 -2.849711,-4.91434 -0.655031,-0.655032 -1.233765,-1.148163 -1.286078,-1.095852 -0.153517,0.153517 2.192602,10.839262 2.623738,11.950202 0.367662,0.94739 0.363929,0.99145 -0.05679,0.67023 -0.247679,-0.18909 -1.475713,-1.35979 -2.72897,-2.60154 -1.253255,-1.24175 -2.791368,-2.54452 -3.418028,-2.89504 l -1.13938,-0.6373 1.359601,1.63373 c 1.688063,2.02841 2.945251,4.62788 3.995277,8.26098 1.74517,6.0383 4.38024,10.15628 7.566594,11.82474 1.207174,0.63211 3.608054,1.35491 4.497916,1.35412 l 0.79375,-8e-4 -0.916879,-0.31579 z"
         id="path25"
         inkscape:connector-curvature="0" />
      <path
         style="fill:#d9281b;stroke-width:0.26458335"
         d="M 57.983771,184.33184 C 36.362309,162.8442 18.672772,145.18643 18.67369,145.09235 c 0.002,-0.20197 78.527363,-78.185256 78.848983,-78.304639 0.225528,-0.08372 78.842017,77.923179 78.839757,78.228429 -0.002,0.20075 -78.527808,78.18433 -78.847927,78.30297 -0.120441,0.0446 -17.90927,-17.49964 -39.530732,-38.98727 z m 74.326919,-4.61797 34.65978,-34.66055 -34.7263,-34.72631 L 97.517855,75.600701 62.791544,110.32701 28.065235,145.05332 62.72502,179.71387 c 19.062882,19.0633 34.719659,34.66054 34.792835,34.66054 0.07318,0 15.729955,-15.59724 34.792835,-34.66054 z m -68.52734,-1.05834 -33.601433,-33.60222 33.667968,-33.66796 33.66797,-33.667974 33.667965,33.667974 33.66797,33.66796 -33.60143,33.60222 c -18.48079,18.48122 -33.661316,33.60221 -33.734505,33.60221 -0.07319,0 -15.253719,-15.12099 -33.734505,-33.60221 z m 37.06714,22.62926 c 3.86958,-1.14915 5.17246,-6.55877 2.02667,-8.41483 l -0.8952,-0.52818 0.8768,-0.90463 c 0.77157,-0.79606 0.8768,-1.07519 0.8768,-2.32574 0,-2.35034 -1.36104,-3.64236 -4.342799,-4.12255 -2.066554,-0.33281 -4.543004,0.0507 -5.830924,0.90301 -0.955244,0.63215 -2.40655,2.89358 -2.071817,3.22832 0.144266,0.14426 3.678396,0.91122 4.203623,0.91224 0.08809,1.7e-4 0.270724,-0.38519 0.405855,-0.85637 0.301273,-1.05048 1.32239,-1.5092 2.333739,-1.0484 1.423146,0.64843 0.501369,2.96342 -1.179965,2.96342 h -0.79375 v 1.68729 1.68729 l 1.148122,-0.12941 c 1.014248,-0.11432 1.214781,-0.0447 1.719792,0.59735 0.784754,0.99765 0.751654,2.35155 -0.07776,3.18096 -1.144109,1.14411 -2.791955,0.59792 -3.208978,-1.06363 -0.09506,-0.37874 -0.355851,-0.66592 -0.602043,-0.66294 -0.694354,0.008 -4.096102,0.52562 -4.21073,0.64024 -0.05736,0.0574 0.129974,0.63386 0.416287,1.28112 0.597403,1.35053 1.97494,2.56434 3.420552,3.014 1.411086,0.43892 4.241385,0.42006 5.785726,-0.0386 z M 69.414374,157.34267 c 1.966434,-0.82143 3.404571,-2.84581 3.993489,-5.62139 0.179729,-0.84707 0.297492,-4.32952 0.297492,-8.79739 v -7.39531 h -2.38125 -2.38125 l -0.0058,7.20989 c -0.0053,6.52862 -0.05365,7.31527 -0.512051,8.32504 -0.837139,1.84405 -2.873967,1.88318 -3.781208,0.0726 -0.407095,-0.81243 -0.462658,-1.80425 -0.46302,-8.2654 l -4e-4,-7.34218 h -2.398051 -2.398051 l 0.08295,8.40052 0.08295,8.40052 0.69316,1.47809 c 0.872493,1.8605 2.271501,3.27466 3.583446,3.62224 1.589857,0.42122 4.478316,0.3761 5.587621,-0.0873 z m 53.434346,-0.54906 c 1.45858,-0.8976 2.7921,-2.73779 3.39766,-4.68864 0.56803,-1.82988 0.79175,-7.02237 0.3996,-9.27426 -0.89718,-5.15201 -3.81272,-7.84476 -8.11949,-7.49905 -3.96762,0.31848 -6.29707,3.2541 -6.98685,8.80495 -0.71367,5.74318 1.02429,11.14919 4.10046,12.75466 1.37961,0.72002 2.06922,0.85046 4.03362,0.76292 1.56376,-0.0697 2.14642,-0.22761 3.175,-0.86058 z m -5.28067,-5.0593 c -0.92374,-0.97932 -1.26183,-2.37943 -1.26183,-5.22553 0,-2.89064 0.33778,-4.21789 1.32456,-5.20467 1.57556,-1.57555 3.63091,-0.51036 4.20807,2.18084 0.36918,1.72141 0.36367,4.35196 -0.0128,6.10734 -0.571,2.66247 -2.73857,3.75288 -4.25801,2.14202 z m -67.146028,1.25677 v -4.49792 h 2.910416 2.910417 v -2.24896 -2.24896 h -2.910417 -2.910416 v -1.71979 -1.71979 h 3.307291 3.307292 v -2.51354 -2.51354 h -5.688542 -5.688541 v 10.9802 10.98021 h 2.38125 2.38125 z m 38.629166,1.85208 v -2.64583 H 85.21473 81.378272 v -1.98438 -1.98437 h 3.439583 3.439583 v -2.24896 -2.24896 h -3.439583 -3.439583 v -1.58024 -1.58023 l 3.770312,-0.0734 3.770313,-0.0734 v -2.38125 -2.38125 H 82.701188 76.48348 l -0.06924,10.58289 c -0.03808,5.82059 -0.01207,10.73192 0.05784,10.91406 0.09677,0.25219 1.611945,0.33117 6.353095,0.33117 h 6.226011 z m 14.287502,-0.13229 v -2.77813 h -3.571877 -3.571875 v -8.20208 -8.20208 h -2.38125 -2.38125 v 10.9802 10.98021 h 5.953125 5.953127 z m 30.69167,-8.20209 v -10.9802 h -2.38125 -2.38126 v 10.9802 10.98021 h 2.38126 2.38125 z m 15.08124,8.20209 v -2.77813 h -3.57187 -3.57187 v -8.20208 -8.20208 h -2.38125 -2.38126 v 10.9802 10.98021 h 5.95313 5.95312 z m -38.09999,-24.60625 v -0.92604 H 97.650147 84.288688 v 0.92604 0.92604 h 13.361459 13.361463 z m -10.51195,-1.57937 c 3.48691,-0.7389 6.0465,-2.63293 7.84649,-5.80622 0.41982,-0.74012 1.31979,-2.89348 1.99994,-4.78525 0.68014,-1.89177 1.5998,-4.18186 2.04369,-5.08909 0.90151,-1.84255 2.85857,-3.84636 4.37575,-4.48028 l 0.98022,-0.40956 -0.61826,-0.50064 c -0.68194,-0.5522 -1.74171,-0.64168 -2.80628,-0.23693 -0.89888,0.34175 -3.41676,2.72411 -4.42483,4.18666 -0.43333,0.62869 -0.83122,1.09972 -0.88421,1.04672 -0.053,-0.053 0.27017,-1.22221 0.71815,-2.59828 1.01455,-3.11647 1.14461,-6.56769 0.34355,-9.11651 -0.47834,-1.522014 -0.50204,-1.5493 -0.5745,-0.66146 -0.4472,5.47986 -1.0082,7.9626 -2.08968,9.24787 -0.88564,1.05251 -1.5236,1.09964 -1.13747,0.084 0.34546,-0.90861 0.0225,-2.8571 -1.22946,-7.41859 -1.25101,-4.557862 -1.58596,-6.66871 -1.2233,-7.709052 0.157,-0.450363 0.18423,-0.818843 0.0605,-0.818843 -0.37938,0 -0.8058,1.593342 -0.80718,3.016044 -8e-4,0.74227 0.13512,2.837862 0.30187,4.656871 0.27802,3.03261 0.26287,3.39519 -0.18231,4.36563 l -0.48551,1.05833 -0.16335,-2.64583 c -0.14651,-2.37316 -0.29494,-2.95941 -1.44025,-5.688545 -2.929533,-6.980741 -3.384431,-9.08524 -2.684105,-12.417538 0.227309,-1.081574 0.370303,-2.00948 0.317767,-2.062015 -0.261345,-0.261345 -2.326836,2.542493 -2.795265,3.794482 -0.637426,1.70367 -1.062722,5.102876 -1.072049,8.568404 -0.007,2.600217 -0.446019,5.272442 -1.130255,6.879622 l -0.394057,0.92559 -0.958742,-2.0382 c -1.180772,-2.510213 -1.669751,-4.399298 -1.937911,-7.486803 l -0.20682,-2.38125 -0.529166,1.058333 c -0.479547,0.959093 -0.529503,1.591741 -0.532739,6.746875 -0.003,4.760505 -0.07632,5.850405 -0.449519,6.680725 -0.245271,0.54571 -0.572836,0.99219 -0.727922,0.99219 -0.39734,0 -1.254101,-1.4816 -1.759489,-3.04271 -0.235554,-0.7276 -0.764972,-1.85869 -1.176489,-2.51354 -0.816909,-1.29995 -2.539222,-3.089271 -2.760543,-2.867949 -0.169479,0.169479 1.833986,9.685339 2.38238,11.315609 0.216762,0.64438 0.394112,1.23707 0.394112,1.31707 0,0.08 -0.982265,-0.82086 -2.182812,-2.00192 -2.427428,-2.38804 -4.536025,-4.05864 -5.122714,-4.05864 -0.223139,0 0.122097,0.52994 0.818745,1.25677 1.392584,1.45292 2.993546,4.41679 3.823041,7.0776 0.317558,1.01865 0.822309,2.62599 1.121667,3.57188 0.833093,2.63235 2.548424,5.73452 4.093895,7.40382 3.056046,3.30089 7.871878,4.64266 12.8654,3.58452 z m -5.215873,-0.12149 c -1.412065,-0.2935 -2.110943,-1.2508 -2.804025,-3.84085 -0.57382,-2.14437 -1.339117,-3.4959 -2.580745,-4.55765 l -0.671661,-0.57436 1.540486,0.50822 c 1.801133,0.59419 2.253253,0.62987 2.248956,0.17748 -0.0058,-0.61325 -0.729155,-3.06336 -1.15841,-3.92382 -0.715721,-1.4347 -0.468074,-1.25252 0.632156,0.46504 0.575847,0.89896 1.16517,1.7075 1.309606,1.79676 0.640387,0.39578 0.524946,-1.19432 -0.236675,-3.25995 -0.71917,-1.95049 -1.15329,-3.76193 -0.527257,-2.20006 0.389493,0.97173 2.687873,3.7737 3.004942,3.66334 0.191,-0.0665 0.259567,-1.2517 0.206319,-3.56638 -0.0792,-3.44295 0.178769,-5.29788 0.809255,-5.81887 0.25646,-0.21192 0.333187,0.14522 0.348633,1.62282 0.02469,2.36123 1.189977,8.94371 1.561397,8.81997 0.148984,-0.0496 0.396983,-1.53598 0.551108,-3.30299 0.154125,-1.76701 0.370864,-3.30338 0.481645,-3.41416 0.110783,-0.11078 0.163273,1.79152 0.116653,4.22732 -0.0513,2.67794 0.0133,4.3959 0.16327,4.34566 0.13643,-0.0457 0.66901,-1.32579 1.1835,-2.84466 0.66987,-1.97754 0.96398,-2.57379 1.03591,-2.10013 0.13434,0.88458 -0.39778,3.21412 -1.17359,5.13777 -0.71607,1.77552 -0.64397,2.16383 0.20206,1.08827 0.58492,-0.7436 1.95001,-1.46354 2.77503,-1.46354 0.39778,0 0.38661,0.0708 -0.0939,0.59531 -0.89282,0.97453 -2.09428,3.37957 -2.68234,5.36944 -0.73333,2.48146 -1.32122,3.01101 -3.502478,3.15496 -0.933016,0.0616 -2.16594,0.0143 -2.739835,-0.10494 z"
         id="path23"
         inkscape:connector-curvature="0" />
    </g>
  </g>
</svg>
