<?xml version="1.0" encoding="UTF-8" standalone="no"?>
<!-- Created with Inkscape (http://www.inkscape.org/) -->

<svg
   xmlns:dc="http://purl.org/dc/elements/1.1/"
   xmlns:cc="http://creativecommons.org/ns#"
   xmlns:rdf="http://www.w3.org/1999/02/22-rdf-syntax-ns#"
   xmlns:svg="http://www.w3.org/2000/svg"
   xmlns="http://www.w3.org/2000/svg"
   xmlns:sodipodi="http://sodipodi.sourceforge.net/DTD/sodipodi-0.dtd"
   xmlns:inkscape="http://www.inkscape.org/namespaces/inkscape"
   width="270.93332mm"
   height="270.93332mm"
   viewBox="0 0 270.93332 270.93332"
   version="1.1"
   id="svg563"
   inkscape:version="0.92.4 (5da689c313, 2019-01-14)"
   sodipodi:docname="Class_9_Miscellaneous_Hazard.svg">
  <defs
     id="defs557" />
  <sodipodi:namedview
     id="base"
     pagecolor="#ffffff"
     bordercolor="#666666"
     borderopacity="1.0"
     inkscape:pageopacity="0.0"
     inkscape:pageshadow="2"
     inkscape:zoom="0.35"
     inkscape:cx="364.85713"
     inkscape:cy="271.42854"
     inkscape:document-units="mm"
     inkscape:current-layer="layer1"
     showgrid="false"
     inkscape:window-width="1920"
     inkscape:window-height="1017"
     inkscape:window-x="-8"
     inkscape:window-y="-8"
     inkscape:window-maximized="1" />
  <metadata
     id="metadata560">
    <rdf:RDF>
      <cc:Work
         rdf:about="">
        <dc:format>image/svg+xml</dc:format>
        <dc:type
           rdf:resource="http://purl.org/dc/dcmitype/StillImage" />
        <dc:title></dc:title>
      </cc:Work>
    </rdf:RDF>
  </metadata>
  <g
     inkscape:label="Layer 1"
     inkscape:groupmode="layer"
     id="layer1"
     transform="translate(-9.298218,50.284529)">
    <g
       id="g576"
       transform="matrix(1.7414966,0,0,1.7066667,-31.644583,-154.635)">
      <path
         style="fill:#fefefe;stroke-width:0.26458332"
         d="M 23.510124,140.51785 V 61.142853 h 77.787496 77.7875 v 79.374997 79.375 h -77.7875 -77.787496 z"
         id="path592"
         inkscape:connector-curvature="0" />
      <path
         style="fill:#cecece;stroke-width:0.26458332"
         d="m 62.40376,180.8667 -38.760893,-38.76157 38.827378,-38.82738 38.827375,-38.82738 38.82738,38.82738 38.82738,38.82738 -38.76089,38.76157 c -21.31849,21.31886 -38.82073,38.76157 -38.89387,38.76157 -0.0731,0 -17.575367,-17.44271 -38.89386,-38.76157 z m 77.25809,-0.5287 38.23125,-38.23194 -4.16648,-4.16649 -4.1665,-4.16649 v 3.42405 c 0,3.36254 0.0129,3.4375 0.71699,4.17242 l 0.71697,0.74837 -10.72111,10.77549 c -5.89661,5.92652 -21.57832,21.71418 -34.84823,35.0837 L 101.29762,212.28533 77.170508,187.97711 C 63.900595,174.60759 48.219704,158.82074 42.324081,152.89521 l -10.719312,-10.77368 0.582886,-0.62045 c 0.538755,-0.57348 0.582886,-0.87949 0.582886,-4.0419 v -3.42145 l -4.034182,4.03418 -4.034182,4.03418 38.231234,38.23193 c 21.027178,21.02755 38.291079,38.23192 38.364209,38.23192 0.0731,0 17.33705,-17.20438 38.36423,-38.23194 z m -4.50788,-4.36598 33.66885,-33.86667 h -5.05531 -5.0553 v -5.09577 -5.09577 l -5.15938,-5.15429 -5.15937,-5.15429 v 10.25006 10.25006 h -5.02709 -5.02708 v -15.28211 -15.2821 l -5.42396,-5.41912 -5.42396,-5.41912 v 20.74238 20.74238 l -3.77031,-0.17247 c -2.07367,-0.0949 -4.45492,-0.17292 -5.29167,-0.17345 l -1.52135,-9.7e-4 V 115.84285 89.844922 l -5.0516,-5.024472 -5.0516,-5.024472 0.18679,31.154692 0.18679,31.15468 h -5.58623 -5.586233 V 110.82079 79.536235 l -5.423958,5.419118 -5.423958,5.419116 v 25.865441 25.86544 h -5.159375 -5.159375 v -20.56893 -20.56893 l -5.423959,5.41911 -5.423958,5.41912 v 15.14982 15.14981 h -5.159375 -5.159375 v -9.98541 -9.98541 l -5.027083,5.02186 -5.027084,5.02187 v 4.96354 4.96355 h -4.926078 -4.926078 l 33.667755,33.86667 c 18.517264,18.62667 33.753994,33.86667 33.859404,33.86667 0.10541,0 15.34263,-15.24 33.86051,-33.86667 z m -41.000096,20.24062 v -0.66145 h 7.143746 7.14375 v 0.66145 0.66146 h -7.14375 -7.143746 z m 5.001972,-2.22013 c -1.465974,-0.30327 -2.693937,-1.14516 -3.343826,-2.29253 -0.325109,-0.57397 -0.593066,-1.12342 -0.59546,-1.221 -0.0051,-0.20876 0.874154,-0.39695 2.97221,-0.63615 1.236702,-0.141 1.521354,-0.10116 1.521354,0.2129 0,0.69228 0.972516,1.34103 1.726566,1.15177 0.74772,-0.18766 1.44843,-1.47743 1.44843,-2.66607 0,-0.65202 -0.0266,-0.66316 -0.7276,-0.30495 -1.96109,1.00212 -3.950706,0.72371 -5.622631,-0.78677 -1.259981,-1.13832 -1.681137,-2.32797 -1.53574,-4.33805 0.229452,-3.17214 2.292279,-4.85367 5.926621,-4.83116 2.448,0.0152 4.02018,0.69335 5.11684,2.20724 1.11616,1.54083 1.43787,2.86174 1.41332,5.80303 -0.032,3.83489 -1.05366,6.02777 -3.30684,7.09789 -1.29299,0.61408 -3.59693,0.89271 -4.993244,0.60385 z m 3.079844,-8.61576 c 1.14219,-1.14218 0.74647,-3.5249 -0.6838,-4.11734 -1.36782,-0.56657 -2.370933,0.44044 -2.370933,2.38016 0,0.80212 0.170535,1.25829 0.649433,1.73718 0.82407,0.82408 1.58123,0.82408 2.4053,0 z M 53.672624,116.57828 v -3.43958 l -5.027083,5.02186 -5.027084,5.02186 v 3.43959 3.43958 l 5.027084,-5.02186 5.027083,-5.02186 z m 99.888536,1.19541 -5.1677,-5.1677 v 3.43626 3.43626 l 5.09323,5.099 5.09323,5.099 0.0745,-3.36756 0.0745,-3.36755 z M 74.839291,95.278945 v -3.307292 l -5.423959,5.419117 -5.423958,5.41912 v 3.30729 3.30729 l 5.423958,-5.41912 5.423959,-5.419113 z m 58.084639,1.857433 -5.43256,-5.432557 v 3.304132 3.30413 l 5.35782,5.363387 5.35781,5.36338 0.0747,-3.23496 0.0747,-3.23495 z M 96.005957,74.112277 v -3.307292 l -5.423958,5.419118 -5.423958,5.419118 v 3.307291 3.307291 l 5.423958,-5.419117 5.423958,-5.419117 z m 15.883603,1.989851 -5.03569,-5.035682 v 3.303887 3.303887 l 4.96094,4.966881 4.96094,4.966882 0.0747,-3.235087 0.0748,-3.235086 z"
         id="path590"
         inkscape:connector-curvature="0" />
      <path
         style="fill:#bdbdbd;stroke-width:0.26458332"
         d="m 62.40376,180.8667 -38.760893,-38.76157 38.827378,-38.82738 38.827375,-38.82738 38.82738,38.82738 38.82738,38.82738 -38.76089,38.76157 c -21.31849,21.31886 -38.82073,38.76157 -38.89387,38.76157 -0.0731,0 -17.575367,-17.44271 -38.89386,-38.76157 z m 77.35607,-0.52995 38.27139,-38.10089 -4.23555,-4.22934 -4.23555,-4.22934 v 3.5543 c 0,3.39816 0.0281,3.58398 0.64076,4.23023 l 0.64076,0.67593 -34.70586,34.925 c -19.08823,19.20875 -34.7654,34.925 -34.83816,34.925 -0.0728,0 -15.749398,-15.71625 -34.83698,-34.925 -34.643937,-34.86386 -34.703804,-34.92595 -34.197396,-35.47121 0.447684,-0.48204 0.507297,-0.96357 0.507297,-4.09784 v -3.55163 l -4.105721,4.09784 -4.105722,4.09784 38.303116,38.15061 c 21.066715,20.98284 38.375816,38.12784 38.464666,38.1 0.0889,-0.0278 17.38368,-17.196 38.43295,-38.1515 z m -4.67878,-4.23244 33.63487,-33.86667 -5.00186,-0.0719 -5.00185,-0.0719 v -5.09006 -5.09006 l -5.15938,-5.15429 -5.15937,-5.15429 v 10.25006 10.25006 h -5.02709 -5.02708 l -0.004,-15.27968 -0.004,-15.27969 -5.40648,-5.55625 -5.40647,-5.55625 -0.0135,20.87695 -0.0135,20.87696 -3.6137,-0.17331 c -1.98754,-0.0953 -4.36879,-0.17331 -5.29167,-0.17331 h -1.67796 V 115.84285 89.844922 l -5.0512,-5.024472 -5.0512,-5.024472 0.0903,31.088542 0.0903,31.08854 -5.49011,0.0715 -5.490103,0.0715 v -31.2899 -31.289925 l -5.423958,5.419118 -5.423958,5.419116 v 25.865441 25.86544 h -5.159375 -5.159375 l -0.0039,-20.70364 -0.0039,-20.70365 -5.406472,5.55625 -5.406469,5.55625 -0.01355,15.15311 -0.01354,15.15311 -5.093229,-0.0719 -5.093229,-0.0719 -0.132292,-9.85856 -0.132292,-9.85857 -4.955941,4.96377 -4.955941,4.96378 -0.07114,4.89479 -0.07114,4.89479 -4.802481,0.13229 -4.80248,0.13229 33.642063,33.91427 c 18.503135,18.65285 33.705252,33.89285 33.782492,33.86667 0.0772,-0.0262 15.27611,-15.2876 33.77529,-33.91427 z m -40.746489,20.5977 c -0.09938,-0.0994 -0.180687,-0.39897 -0.180687,-0.66576 0,-0.45842 0.393425,-0.48506 7.162156,-0.48506 h 7.16215 l -0.0845,0.59531 -0.0846,0.59531 -6.89692,0.0705 c -3.7933,0.0387 -6.978222,-0.0109 -7.077599,-0.11025 z m 5.772439,-2.59725 c -0.145522,-0.0538 -0.713614,-0.17289 -1.262429,-0.26475 -0.554722,-0.0928 -1.41257,-0.53114 -1.931744,-0.98698 -0.919797,-0.80759 -1.857764,-2.25998 -1.615789,-2.50195 0.129379,-0.12938 3.167515,-0.60617 3.921382,-0.61541 0.241956,-0.003 0.505912,0.27985 0.595929,0.63851 0.181393,0.72273 0.941271,1.06738 1.772011,0.80372 0.61089,-0.19389 1.29876,-1.58666 1.29876,-2.62967 0,-0.7895 -0.073,-0.80766 -0.94659,-0.23529 -0.85846,0.56249 -3.174254,0.56766 -4.253604,0.01 -3.664577,-1.89502 -3.614311,-7.67059 0.08233,-9.4601 0.876136,-0.42413 1.669283,-0.56787 3.133494,-0.56787 3.21742,0 5.08312,1.2365 6.1044,4.04572 0.58654,1.61338 0.60601,5.50438 0.0371,7.40924 -0.48763,1.63264 -1.8581,3.26422 -3.2084,3.8197 -0.86091,0.35415 -3.27774,0.70151 -3.72681,0.53562 z m 2.12869,-8.72801 c 1.27157,-1.27157 0.67092,-3.8506 -0.9909,-4.25466 -1.801631,-0.43805 -2.875828,2.79324 -1.4144,4.25466 0.82407,0.82408 1.58123,0.82408 2.4053,0 z M 53.672624,116.57828 v -3.43958 l -5.027083,5.02186 -5.027084,5.02186 v 3.43959 3.43958 l 5.027084,-5.02186 5.027083,-5.02186 z m 99.888536,1.19541 -5.1677,-5.1677 v 3.43626 3.43626 l 5.09323,5.099 5.09323,5.099 0.0745,-3.36756 0.0745,-3.36755 z M 74.839291,95.297138 v -3.325485 l -5.423959,5.419117 -5.423958,5.41912 0.01347,3.442 0.01347,3.442 5.410488,-5.53563 5.410494,-5.535635 z m 58.084369,1.838973 -5.43229,-5.43229 v 3.317004 3.317002 l 5.35782,5.525553 5.35781,5.52555 0.0745,-3.41027 0.0745,-3.41026 z M 96.005957,74.112277 v -3.307292 l -5.423958,5.419118 -5.423958,5.419118 v 3.307291 3.307291 l 5.423958,-5.419117 5.423958,-5.419117 z m 15.883603,1.989851 -5.03569,-5.035682 v 3.303887 3.303887 l 4.96094,4.966881 4.96094,4.966882 0.0747,-3.235087 0.0748,-3.235086 z"
         id="path588"
         inkscape:connector-curvature="0" />
      <path
         style="fill:#9d9d9d;stroke-width:0.26458332"
         d="m 62.40376,180.8667 -38.760893,-38.76157 38.827378,-38.82738 38.827375,-38.82738 38.82738,38.82738 38.82738,38.82738 -38.76089,38.76157 c -21.31849,21.31886 -38.82073,38.76157 -38.89387,38.76157 -0.0731,0 -17.575367,-17.44271 -38.89386,-38.76157 z m 77.35602,-0.5299 38.27134,-38.10084 -4.32274,-4.31679 -4.32274,-4.31678 0.11615,3.65617 c 0.10701,3.36856 0.16428,3.7082 0.728,4.31763 l 0.61185,0.66145 -34.70586,34.925 c -19.08823,19.20875 -34.7654,34.925 -34.83816,34.925 -0.0728,0 -15.749457,-15.71625 -34.837109,-34.925 -34.645524,-34.86532 -34.703955,-34.92593 -34.197396,-35.47121 0.44785,-0.48209 0.507426,-0.96321 0.507426,-4.09784 v -3.55163 l -4.105721,4.09784 -4.105722,4.09784 38.303116,38.15061 c 21.066715,20.98284 38.375816,38.12784 38.464666,38.1 0.0889,-0.0278 17.38366,-17.19598 38.4329,-38.15145 z m -4.67671,-4.23249 33.63332,-33.86667 -4.93595,-0.13229 -4.93594,-0.13229 -0.0193,-4.97944 -0.0194,-4.97945 -5.20618,-5.20617 -5.20617,-5.20618 v 10.2576 10.25761 l -4.96094,-0.072 -4.96094,-0.072 -0.0715,-15.21354 -0.0715,-15.21354 -5.40507,-5.55625 -5.40507,-5.55625 -0.0135,20.80895 -0.0135,20.80896 -4.96094,-0.12602 c -2.72851,-0.0693 -5.12894,-0.17985 -5.33429,-0.24565 -0.3195,-0.10238 -0.3503,-3.83316 -0.2135,-25.8599 l 0.15986,-25.740266 -5.14432,-5.139243 -5.14432,-5.139244 v 31.157623 31.15762 l -5.35781,-0.0716 -5.357811,-0.0716 -0.06724,-31.21732 -0.06724,-31.217316 -5.422863,5.418023 -5.422863,5.418022 v 25.865441 25.86544 h -5.159375 -5.159375 l -0.0056,-20.70364 -0.0056,-20.70365 -5.405234,5.55625 -5.405231,5.55625 -0.0131,15.1474 -0.01311,15.14739 h -5.027083 -5.027084 v -10.11783 -10.11783 l -5.291666,5.2867 -5.291667,5.28671 v 4.82516 4.82515 l -4.736947,0.0721 -4.736948,0.0721 33.642678,33.91431 c 18.503471,18.65287 33.706669,33.89287 33.784879,33.86667 0.0782,-0.0262 15.27721,-15.28764 33.77553,-33.91431 z m -40.929196,19.97604 c 0,-0.5161 0.17639,-0.52916 7.143746,-0.52916 6.96736,0 7.14375,0.0131 7.14375,0.52916 0,0.5161 -0.17639,0.52917 -7.14375,0.52917 -6.967356,0 -7.143746,-0.0131 -7.143746,-0.52917 z m 3.836458,-2.49167 c -0.971367,-0.43358 -2.123485,-1.63087 -2.481516,-2.57882 -0.263142,-0.69671 -0.250325,-0.70682 1.107649,-0.8739 0.755626,-0.093 1.699691,-0.23137 2.097921,-0.30756 0.588833,-0.11266 0.781627,-0.0122 1.03234,0.53808 0.565354,1.24082 2.069484,1.20773 2.707104,-0.0596 0.39756,-0.79017 0.75202,-2.69322 0.50164,-2.69322 -0.0885,0 -0.39121,0.20836 -0.6726,0.46302 -0.38787,0.35101 -0.97394,0.46302 -2.422682,0.46302 -1.698644,0 -2.022234,-0.0848 -2.911438,-0.76304 -2.716684,-2.07211 -2.560582,-6.7015 0.290991,-8.62967 0.884089,-0.5978 1.236546,-0.66146 3.662289,-0.66146 2.44977,0 2.77504,0.0602 3.72626,0.68998 0.61871,0.40961 1.36326,1.2697 1.83233,2.11667 0.76344,1.37848 0.79013,1.54289 0.79013,4.86627 0,3.36223 -0.0185,3.47231 -0.82424,4.89479 -1.16967,2.06506 -2.8163,2.91444 -5.62212,2.90006 -1.11117,-0.006 -2.377495,-0.16979 -2.814058,-0.36465 z m 4.245358,-8.21193 c 1.35729,-1.35728 0.50194,-4.37765 -1.23971,-4.37765 -1.085521,0 -1.815023,0.99536 -1.815023,2.47647 0,2.2811 1.648703,3.30721 3.054733,1.90118 z M 53.937207,116.31344 v -3.43958 l -5.291666,5.2867 -5.291667,5.28671 v 3.43958 3.43958 l 5.291667,-5.2867 5.291666,-5.28671 z m 99.756253,1.5925 -5.3,-5.3 v 3.43635 3.43635 l 5.22552,5.23116 5.22552,5.23116 0.0745,-3.36751 0.0745,-3.36751 z M 74.839291,95.305022 v -3.333369 l -5.423959,5.419117 -5.423958,5.41912 0.01299,3.442 0.01299,3.442 5.410967,-5.52774 5.410968,-5.527756 z m 58.084369,1.831089 -5.43229,-5.43229 v 3.324466 3.324465 l 5.35782,5.517128 5.35781,5.51713 0.0745,-3.4093 0.0745,-3.40931 z M 96.005957,74.112277 v -3.307292 l -5.423958,5.419118 -5.423958,5.419118 v 3.307291 3.307291 l 5.423958,-5.419117 5.423958,-5.419117 z m 16.015893,2.122099 -5.16798,-5.167973 v 3.303972 3.303973 l 5.09323,5.099042 5.09323,5.099042 0.0748,-3.235041 0.0747,-3.235041 z"
         id="path586"
         inkscape:connector-curvature="0" />
      <path
         style="fill:#7e7e7e;stroke-width:0.26458332"
         d="M 62.440119,180.90306 23.715582,142.17784 62.401186,103.57858 C 83.678268,82.348981 101.183,64.979311 101.30059,64.979311 c 0.11759,0 17.6193,17.371355 38.89269,38.603009 l 38.6789,38.60301 -38.7208,38.72147 c -21.29643,21.29681 -38.78062,38.72147 -38.85376,38.72147 -0.0731,0 -17.559005,-17.42635 -38.857501,-38.72521 z m 77.353001,-0.43174 38.36252,-38.3632 -4.22851,-4.23472 c -2.32568,-2.32909 -4.29865,-4.23471 -4.38438,-4.23471 -0.0857,0 -0.1036,1.63711 -0.0397,3.63802 0.10204,3.1953 0.18176,3.70958 0.65506,4.22604 l 0.53888,0.58802 -2.2881,2.45469 c -1.25846,1.35008 -16.87332,17.09937 -34.69969,34.99843 l -32.41159,32.54375 -32.411581,-32.54375 c -17.826371,-17.89906 -33.44013,-33.64715 -34.697241,-34.99576 -2.15426,-2.31106 -2.260725,-2.47957 -1.851957,-2.93125 0.358146,-0.39575 0.4337,-1.12071 0.4337,-4.16152 v -3.68228 l -4.166492,4.16649 -4.166491,4.16649 38.363546,38.36423 c 21.099949,21.10033 38.423386,38.36423 38.496516,38.36423 0.0731,0 17.39611,-17.26344 38.4955,-38.3632 z m -4.64753,-4.36701 33.59636,-33.86667 -4.94872,-0.13229 -4.94873,-0.13229 -0.0193,-4.97944 -0.0194,-4.97945 -5.20618,-5.20617 -5.20617,-5.20618 v 10.2576 10.25761 l -4.96094,-0.072 -4.96094,-0.072 -0.0682,-15.35036 -0.0683,-15.35035 -5.42185,-5.41702 -5.42186,-5.41701 v 20.80653 20.80654 l -4.96093,-0.12602 c -2.72852,-0.0693 -5.12904,-0.17989 -5.33449,-0.24573 -0.31976,-0.10247 -0.35028,-3.82586 -0.21197,-25.85837 l 0.16158,-25.73867 -5.14584,-5.140766 -5.14585,-5.140767 v 31.157623 31.15762 l -5.35781,-0.0716 -5.357811,-0.0716 -0.132292,-31.15714 -0.132291,-31.157131 -5.356493,5.361304 -5.356494,5.361303 -0.06746,25.795834 -0.06747,25.79583 h -5.027083 -5.027084 l -0.132291,-20.57383 -0.132292,-20.57384 -5.355616,5.36046 -5.355617,5.36046 -0.06834,15.21338 -0.06834,15.21337 -4.960937,0.072 -4.960938,0.072 v -10.12367 -10.12367 l -5.291666,5.2867 -5.291667,5.28671 v 4.82516 4.82515 l -4.755517,0.0721 -4.755517,0.0721 33.658983,33.93357 c 18.512441,18.66346 33.746373,33.90346 33.853193,33.86667 0.10682,-0.0368 15.31258,-15.3069 33.79057,-33.93357 z M 94.204243,196.1465 c 0.08225,-0.42707 0.633063,-0.46302 7.093377,-0.46302 6.46032,0 7.01114,0.0359 7.09339,0.46302 0.0832,0.43179 -0.39528,0.46302 -7.09339,0.46302 -6.6981,0 -7.176533,-0.0312 -7.093377,-0.46302 z m 4.002698,-2.47411 c -0.866304,-0.25069 -2.57756,-2.00704 -2.805763,-2.87969 -0.10936,-0.41819 0.07483,-0.51682 1.23027,-0.6588 0.747387,-0.0918 1.676326,-0.22747 2.064311,-0.30141 0.577609,-0.11008 0.769723,2.6e-4 1.060286,0.60932 0.429735,0.90067 1.607035,1.13827 2.342435,0.47274 0.40641,-0.3678 1.05123,-2.39562 1.05123,-3.30591 0,-0.13398 -0.43334,0.0505 -0.96297,0.4099 -1.20398,0.81704 -3.232718,0.88901 -4.59741,0.16309 -2.757919,-1.46703 -3.456104,-5.54519 -1.373143,-8.02065 1.034534,-1.22947 2.51238,-1.79609 4.684563,-1.79609 4.32631,0 6.48229,2.59212 6.48229,7.79359 0,3.79348 -1.18983,6.23065 -3.5696,7.31176 -1.15936,0.52669 -4.116532,0.63331 -5.606499,0.20215 z m 4.065819,-8.22149 c 0.88978,-0.83591 0.8697,-2.89559 -0.0371,-3.80236 -0.78661,-0.78661 -1.81047,-0.83537 -2.525566,-0.12027 -0.400883,0.40088 -0.529167,0.88194 -0.529167,1.98437 0,1.10244 0.128284,1.5835 0.529167,1.98438 0.692656,0.69266 1.797406,0.67277 2.562636,-0.0461 z m -53.54907,-60.47732 5.209858,-5.22552 0.0018,-3.40459 0.0018,-3.40459 -5.291666,5.08939 -5.291667,5.08938 v 3.54073 c 0,1.9474 0.03599,3.54072 0.07998,3.54072 0.04399,0 2.424415,-2.35148 5.289837,-5.22552 z m 105.03568,-7.09819 -5.23362,-5.05886 -0.0745,3.32273 -0.0745,3.32272 5.23384,5.23945 5.23384,5.23944 0.0742,-3.50331 0.0742,-3.50331 z M 74.839291,95.411237 v -3.439584 l -5.423959,5.419117 -5.423958,5.41912 v 3.43958 3.43958 l 5.423958,-5.41911 5.423959,-5.41912 z m 58.084369,1.724874 -5.43229,-5.43229 v 3.436424 3.436422 l 5.35782,5.363333 5.35781,5.36334 0.0745,-3.36747 0.0745,-3.36747 z M 96.005957,74.112277 v -3.307292 l -5.423958,5.419118 -5.423958,5.419118 v 3.307291 3.307291 l 5.423958,-5.419117 5.423958,-5.419117 z m 16.015893,2.122099 -5.16798,-5.167973 v 3.303972 3.303973 l 5.09323,5.099042 5.09323,5.099042 0.0748,-3.235041 0.0747,-3.235041 z"
         id="path584"
         inkscape:connector-curvature="0" />
      <path
         style="fill:#5e5e5e;stroke-width:0.26458332"
         d="m 62.440857,180.9038 -38.723796,-38.72448 38.684289,-38.6 c 21.27636,-21.230006 38.78104,-38.600009 38.89929,-38.600009 0.11825,0 17.61987,17.371699 38.8925,38.603779 l 38.67751,38.60377 -38.72003,38.72071 c -21.29601,21.29638 -38.77986,38.7207 -38.853,38.7207 -0.0731,0 -17.558675,-17.42601 -38.856763,-38.72447 z m 77.352263,-0.43248 38.36252,-38.3632 -4.22851,-4.23472 c -2.32568,-2.32909 -4.3192,-4.23471 -4.43005,-4.23471 -0.11085,0 -0.20154,1.57106 -0.20154,3.49125 0,3.41774 0.0148,3.50668 0.70238,4.22438 l 0.70239,0.73313 -2.55459,2.72093 c -1.40502,1.49651 -17.02064,17.24656 -34.70137,35.0001 L 101.29756,212.08764 68.88601,179.54389 C 51.059655,161.64483 35.445909,145.89674 34.188798,144.54813 c -2.15426,-2.31106 -2.260725,-2.47957 -1.851957,-2.93125 0.358146,-0.39575 0.4337,-1.12071 0.4337,-4.16152 v -3.68228 l -4.166492,4.16649 -4.166491,4.16649 38.363546,38.36423 c 21.099949,21.10033 38.423386,38.36423 38.496516,38.36423 0.0731,0 17.39611,-17.26344 38.4955,-38.3632 z m -4.76112,-4.24786 c 18.48114,-18.63211 33.64177,-33.99044 33.69028,-34.12963 0.0541,-0.15511 -1.81488,-0.25306 -4.82865,-0.25306 h -4.91684 v -4.83113 -4.83112 l -5.29167,-5.28671 -5.29166,-5.2867 v 10.11783 10.11783 h -4.85396 -4.85397 l -0.17204,-3.37344 c -0.0946,-1.85539 -0.17254,-8.73234 -0.17313,-15.28211 l -0.001,-11.90867 -5.42396,-5.41911 -5.42396,-5.41912 v 20.70694 20.70694 l -5.09323,-0.0719 -5.09322,-0.0719 -0.0674,-25.80071 -0.0674,-25.800715 -5.15808,-5.152994 -5.15809,-5.152994 v 31.019853 31.01985 h -5.29166 -5.291669 V 110.55615 79.271537 l -5.55625,5.551524 -5.55625,5.551525 v 25.733094 25.73309 H 79.998666 74.839291 V 121.27184 100.7029 l -5.423959,5.41912 -5.423958,5.41912 v 15.14981 15.14982 h -5.027083 -5.027084 v -9.98554 -9.98554 l -5.291666,5.2867 -5.291667,5.28671 v 4.69883 4.69884 h -4.784549 c -3.010622,0 -4.751849,0.0962 -4.696354,0.25949 0.104339,0.30699 67.224009,68.00376 67.421679,68.00138 0.0744,-8.9e-4 15.2562,-15.24608 33.73735,-33.87818 z m -40.613543,19.85689 c 0,-0.5156 0.17639,-0.52916 6.879163,-0.52916 6.70278,0 6.87917,0.0136 6.87917,0.52916 0,0.5156 -0.17639,0.52917 -6.87917,0.52917 -6.702773,0 -6.879163,-0.0136 -6.879163,-0.52917 z m 3.551079,-2.6184 c -0.593521,-0.26957 -1.332754,-0.81255 -1.64274,-1.20663 -0.555537,-0.70625 -0.984244,-1.69074 -0.808019,-1.85554 0.04967,-0.0464 0.957128,-0.19496 2.016578,-0.33004 1.912025,-0.24376 1.928685,-0.24054 2.252522,0.43512 0.255233,0.53252 0.520853,0.6807 1.220173,0.6807 1.12762,0 1.77813,-0.83247 2.02661,-2.59351 l 0.17927,-1.27059 -0.99507,0.67528 c -1.85152,1.25648 -4.885186,0.6878 -6.202901,-1.16276 -0.31005,-0.43542 -0.692772,-1.42038 -0.850493,-2.1888 -0.900311,-4.38628 3.145586,-7.37516 8.115664,-5.99539 1.59481,0.44274 3.1593,2.15268 3.71336,4.05859 0.60587,2.08411 0.44228,6.0992 -0.31845,7.81572 -0.64087,1.4461 -2.10365,2.78439 -3.45296,3.15909 -1.56786,0.4354 -4.036672,0.33143 -5.253544,-0.22124 z m 4.305574,-8.03108 c 0.77551,-0.85404 0.94842,-1.89083 0.49595,-2.97374 -0.75443,-1.80559 -2.78007,-1.93027 -3.496668,-0.21521 -1.052888,2.51991 1.319188,5.04079 3.000718,3.18895 z m -53.431132,-60.53582 5.093229,-5.16429 v -3.39594 -3.39594 l -5.291666,5.08939 -5.291667,5.08938 v 3.56278 c 0,1.95952 0.0893,3.5214 0.198438,3.47084 0.10914,-0.0506 2.49039,-2.41586 5.291666,-5.25622 z m 110.132812,1.5214 v -3.51808 l -5.29167,-5.10179 -5.29166,-5.1018 v 3.38717 3.38717 l 5.09323,5.19278 c 2.80127,2.85602 5.18252,5.21074 5.29166,5.23269 0.10914,0.022 0.19844,-1.5432 0.19844,-3.47814 z M 74.839291,95.411237 v -3.439584 l -5.423959,5.419117 -5.423958,5.41912 v 3.43958 3.43958 l 5.423958,-5.41911 5.423959,-5.41912 z m 58.084369,1.724874 -5.43229,-5.43229 v 3.436424 3.436422 l 5.35782,5.363333 5.35781,5.36334 0.0745,-3.36747 0.0745,-3.36747 z M 96.270541,73.847578 v -3.307291 l -5.55625,5.551524 -5.55625,5.551525 v 3.307292 3.307291 l 5.55625,-5.551524 5.55625,-5.551525 z m 15.751309,2.386798 -5.16798,-5.167973 v 3.303972 3.303973 l 5.09323,5.099042 5.09323,5.099042 0.0748,-3.235041 0.0747,-3.235041 z"
         id="path582"
         inkscape:connector-curvature="0" />
      <path
         style="fill:#383838;stroke-width:0.26458332"
         d="M 62.498013,180.76072 23.830694,142.18098 62.564159,103.44819 101.29762,64.715405 140.0278,103.4449 l 38.73017,38.7295 -38.6234,38.5285 c -21.24287,21.19067 -38.70121,38.55303 -38.79632,38.58303 -0.0951,0.03 -17.573211,-17.30636 -38.840237,-38.52521 z m 77.296167,-0.29046 38.36357,-38.36426 -4.4311,-4.43111 -4.43111,-4.4311 v 3.6887 c 0,3.64826 0.008,3.69688 0.71538,4.4354 l 0.71539,0.7467 -5.9565,6.01465 c -3.27607,3.30806 -18.89743,19.052 -34.71414,34.98653 l -28.75764,28.97187 -28.890472,-29.10416 c -45.464107,-45.8004 -40.599781,-40.78199 -40.083161,-41.35285 0.373483,-0.4127 0.446144,-1.0927 0.446144,-4.17527 v -3.68228 l -4.166492,4.16649 -4.166491,4.16649 38.363546,38.36423 c 21.099949,21.10033 38.423386,38.36423 38.496516,38.36423 0.0731,0 17.39659,-17.26392 38.49656,-38.36426 z m -4.67277,-4.26842 c 18.50473,-18.64578 33.64496,-34.00484 33.64496,-34.13125 0,-0.1264 -2.20265,-0.22982 -4.89479,-0.22982 h -4.89479 l -0.0129,-4.82865 -0.0128,-4.82864 -5.27254,-5.42396 -5.27254,-5.42396 -0.006,10.25261 -0.006,10.2526 h -4.85396 -4.85397 l -0.17204,-3.37344 c -0.0946,-1.85539 -0.17254,-8.73234 -0.17313,-15.28211 l -0.001,-11.90867 -5.42396,-5.41911 -5.42396,-5.41912 v 20.70122 20.70123 h -4.74086 c -2.60747,0 -4.92919,-0.0723 -5.15937,-0.1606 -0.37766,-0.14492 -0.41852,-2.67439 -0.41852,-25.91457 V 90.01163 l -5.14842,-5.240118 -5.14842,-5.240117 -0.011,31.154685 -0.011,31.15469 h -5.29166 -5.291669 v -31.22083 c 0,-18.703061 -0.09706,-31.220837 -0.242083,-31.220837 -0.133147,0 -2.632118,2.470547 -5.553269,5.490104 l -5.311182,5.490104 -0.003,25.730729 -0.003,25.73073 H 79.998666 74.839291 V 121.27184 100.7029 l -5.423959,5.41912 -5.423958,5.41912 v 15.14981 15.14982 h -5.027083 -5.027084 v -9.94392 c 0,-5.46916 -0.101047,-9.90424 -0.224546,-9.85573 -0.123502,0.0485 -2.504752,2.42577 -5.291667,5.28282 l -5.06712,5.19463 v 4.6611 4.6611 h -4.7625 c -2.704884,0 -4.7625,0.10463 -4.7625,0.24218 0,0.27765 67.191176,68.02032 67.466566,68.02032 0.0996,0 15.32124,-15.25564 33.82597,-33.90143 z m -40.702953,19.87851 c 0,-0.5156 0.17639,-0.52916 6.879163,-0.52916 6.70278,0 6.87917,0.0136 6.87917,0.52916 0,0.5156 -0.17639,0.52917 -6.87917,0.52917 -6.702773,0 -6.879163,-0.0136 -6.879163,-0.52917 z m 3.885089,-2.49999 c -0.555334,-0.19806 -1.252133,-0.57951 -1.548442,-0.84766 -0.557739,-0.50475 -1.278313,-1.72817 -1.278313,-2.17038 0,-0.13896 0.863203,-0.35402 1.918229,-0.47791 1.917136,-0.22514 1.918496,-0.22484 2.387282,0.5204 0.378158,0.60118 0.629448,0.72969 1.296758,0.66321 1.07173,-0.10677 1.75327,-1.03724 1.97806,-2.70055 l 0.17504,-1.29517 -0.818,0.60478 c -1.98312,1.46617 -5.273135,0.75284 -6.518293,-1.41329 -0.872522,-1.51787 -1.049978,-2.61478 -0.675532,-4.17565 0.401267,-1.67266 1.811698,-3.22861 3.299164,-3.63954 2.604401,-0.7195 5.656301,-0.0786 7.019651,1.47422 1.23173,1.40286 1.63059,2.56241 1.78306,5.18361 0.32818,5.64194 -1.98795,8.68312 -6.58445,8.64564 -0.783481,-0.006 -1.878877,-0.17366 -2.434214,-0.37171 z m 3.784034,-7.81672 c 0.64266,-0.34395 1.13256,-1.86719 0.90684,-2.81967 -0.57553,-2.42858 -3.517135,-2.60287 -3.961402,-0.23472 -0.200718,1.06992 0.272878,2.67905 0.89539,3.04227 0.577332,0.33685 1.542282,0.34226 2.159172,0.0121 z M 53.937207,116.48153 c 0,-1.91419 -0.08818,-3.48034 -0.195955,-3.48034 -0.107776,0 -2.489026,2.2908 -5.291667,5.09068 l -5.095711,5.09069 0.0037,3.70671 0.0037,3.70671 5.287979,-5.31705 5.287978,-5.31705 z m 99.755753,1.15934 -5.2995,-5.29951 v 3.66429 3.66429 l 5.22552,5.28509 5.22552,5.2851 0.074,-3.64988 0.074,-3.64987 z M 74.839291,95.278945 V 91.70707 l -5.423959,5.419116 -5.423958,5.419114 v 3.57188 3.57187 l 5.423958,-5.41911 5.423959,-5.41912 z m 58.084119,1.592331 -5.43204,-5.432039 v 3.568716 3.568714 l 5.35782,5.363293 5.35781,5.36329 0.0742,-3.49997 0.0742,-3.49997 z M 96.261331,73.908999 c 0.0051,-1.78263 -0.07902,-3.241146 -0.186865,-3.241146 -0.107839,0 -2.608151,2.409927 -5.55625,5.355392 l -5.360175,5.355392 0.0113,3.574296 0.0113,3.574295 5.535745,-5.688542 5.535742,-5.688541 z m 20.911289,10.580789 v -3.375982 l -5.15937,-5.154286 -5.15938,-5.154286 v 3.405082 3.405082 l 4.92428,5.125186 c 2.70834,2.818852 5.03006,5.125186 5.15937,5.125186 0.12931,0 0.2351,-1.519192 0.2351,-3.375982 z"
         id="path580"
         inkscape:connector-curvature="0" />
      <path
         style="fill:#000000;stroke-width:0.26458332"
         d="m 62.536052,180.73441 -38.6286,-38.62928 38.695087,-38.69509 38.695081,-38.695086 38.69509,38.695086 38.69509,38.69509 -38.6286,38.62928 c -21.24573,21.2461 -38.68844,38.62928 -38.76158,38.62928 -0.0731,0 -17.515839,-17.38318 -38.761568,-38.62928 z m 77.258128,-0.26415 38.36357,-38.36426 -4.4311,-4.43111 -4.43111,-4.4311 v 3.6887 c 0,3.65029 0.007,3.69649 0.71698,4.43706 l 0.71698,0.74837 -10.72093,10.77549 c -5.89651,5.92652 -21.51902,21.65431 -34.71669,34.95066 L 101.29613,212.01924 77.169717,187.71178 C 63.900191,174.34267 48.279177,158.61567 42.456354,152.76289 l -10.586952,-10.64141 0.582861,-0.62043 c 0.53992,-0.57472 0.582861,-0.87745 0.582861,-4.1091 0,-1.91878 -0.09074,-3.48868 -0.201639,-3.48868 -0.110901,0 -2.044869,1.84611 -4.297706,4.10247 l -4.096068,4.10248 38.362469,38.36315 c 21.099357,21.09973 38.42231,38.36315 38.49544,38.36315 0.0731,0 17.39659,-17.26392 38.49656,-38.36426 z m -4.54353,-4.32957 c 18.57067,-18.67943 33.68896,-34.03849 33.59619,-34.13125 -0.0928,-0.0928 -2.35147,-0.16867 -5.01936,-0.16867 h -4.85069 v -4.96342 -4.96342 l -5.29167,-5.2867 -5.29166,-5.28671 v 10.25013 10.25012 h -4.86812 -4.86812 l -0.0928,-15.21281 -0.0928,-15.21282 -5.4901,-5.49003 -5.49011,-5.49004 v 20.70285 20.70285 l -2.97656,-0.002 c -1.63711,-7.9e-4 -3.95883,-0.078 -5.15937,-0.17151 l -2.18282,-0.16992 V 115.6714 89.845054 l -5.15937,-5.154284 -5.15938,-5.154286 v 31.152146 31.15214 h -5.29166 -5.291669 v -31.22083 c 0,-17.171462 -0.08826,-31.220837 -0.196131,-31.220837 -0.10787,0 -2.667714,2.469484 -5.688541,5.487741 l -5.492412,5.487742 v 25.733094 25.73309 h -4.894791 -4.894792 v -20.70134 -20.70134 l -5.688542,5.68393 -5.688541,5.68393 v 15.01741 15.01741 h -4.894792 -4.894792 v -10.11783 -10.11783 l -5.291666,5.2867 -5.291667,5.28671 v 4.83112 4.83113 h -4.718403 c -2.595121,0 -4.795001,0.0766 -4.888621,0.17022 -0.174405,0.1744 67.19926,68.09228 67.54667,68.09228 0.10575,0 15.38646,-15.28316 33.95713,-33.96258 z m -40.832193,20.07195 c 0,-0.3426 0.940742,-0.39687 6.879163,-0.39687 5.93843,0 6.87917,0.0543 6.87917,0.39687 0,0.34261 -0.94074,0.39688 -6.87917,0.39688 -5.938421,0 -6.879163,-0.0543 -6.879163,-0.39688 z m 4.243002,-2.54279 c -1.337144,-0.40817 -2.264752,-1.15485 -2.777784,-2.23598 -0.248658,-0.52401 -0.412165,-0.98926 -0.363347,-1.03389 0.04881,-0.0446 0.941845,-0.1651 1.98451,-0.26769 1.747512,-0.17196 1.918679,-0.14372 2.188877,0.36115 0.444165,0.82994 1.195245,1.1433 1.933775,0.8068 0.8615,-0.39252 1.26088,-1.12223 1.43946,-2.62999 l 0.1521,-1.28428 -1.27014,0.64302 c -1.992692,1.00883 -3.910304,0.74202 -5.343148,-0.74345 -1.074179,-1.11362 -1.394565,-2.00298 -1.389202,-3.85627 0.0057,-1.97646 0.793231,-3.39025 2.384893,-4.2815 0.996098,-0.55776 1.516483,-0.66003 3.299297,-0.64839 3.16752,0.0207 4.564,0.85702 5.73619,3.43543 0.50387,1.10834 0.59703,1.76736 0.59703,4.22367 0,2.45631 -0.0932,3.11532 -0.59703,4.22366 -0.74007,1.6279 -1.2245,2.17287 -2.51854,2.83332 -1.2028,0.61387 -4.134697,0.858 -5.456941,0.45439 z m 3.826791,-8.20783 c 0.79969,-0.76901 0.73712,-2.87601 -0.11227,-3.78014 -1.37637,-1.46508 -3.464371,-0.45724 -3.455706,1.66801 0.01003,2.46014 1.988286,3.63121 3.567976,2.11213 z M 53.937207,116.31344 v -3.70417 l -5.291666,5.28671 -5.291667,5.2867 v 3.70417 3.70417 l 5.291667,-5.28671 5.291666,-5.2867 z m 99.824373,1.39436 c -2.87698,-2.87968 -5.33735,-5.23578 -5.46749,-5.23578 -0.13662,0 -0.15831,1.53751 -0.0513,3.63802 l 0.18532,3.63802 5.2082,5.22866 5.2082,5.22866 0.074,-3.6309 0.074,-3.6309 z M 75.103874,95.210264 c 0,-1.85666 -0.08826,-3.375744 -0.19613,-3.375744 -0.107871,0 -2.667715,2.469483 -5.688542,5.487741 L 63.726791,102.81 v 3.57193 3.57193 l 5.688541,-5.68392 5.688542,-5.683931 z m 57.819536,1.661012 -5.43204,-5.432039 v 3.568716 3.568714 l 5.35782,5.363293 5.35781,5.36329 0.0742,-3.49997 0.0742,-3.49997 z M 90.778129,82.907195 96.270541,77.419453 v -3.3758 c 0,-1.85669 -0.08826,-3.3758 -0.196131,-3.3758 -0.10787,0 -2.667714,2.469484 -5.688541,5.487741 l -5.492412,5.487742 v 3.3758 c 0,1.85669 0.08826,3.3758 0.196131,3.3758 0.10787,0 2.667714,-2.469483 5.688541,-5.487741 z m 21.243201,-6.937923 -5.16746,-5.167453 v 3.568556 3.568556 l 5.09323,5.098953 5.09323,5.098954 0.0742,-3.500057 0.0742,-3.500056 z"
         id="path578"
         inkscape:connector-curvature="0" />
    </g>
  </g>
</svg>
