<?xml version="1.0" encoding="UTF-8" standalone="no"?>
<!-- Created with Inkscape (http://www.inkscape.org/) -->

<svg
   xmlns:dc="http://purl.org/dc/elements/1.1/"
   xmlns:cc="http://creativecommons.org/ns#"
   xmlns:rdf="http://www.w3.org/1999/02/22-rdf-syntax-ns#"
   xmlns:svg="http://www.w3.org/2000/svg"
   xmlns="http://www.w3.org/2000/svg"
   xmlns:sodipodi="http://sodipodi.sourceforge.net/DTD/sodipodi-0.dtd"
   xmlns:inkscape="http://www.inkscape.org/namespaces/inkscape"
   width="270.93335mm"
   height="270.93335mm"
   viewBox="0 0 270.93335 270.93336"
   version="1.1"
   id="svg119"
   inkscape:version="0.92.4 (5da689c313, 2019-01-14)"
   sodipodi:docname="Class_2_Non_Flammable_Gas.svg">
  <defs
     id="defs113" />
  <sodipodi:namedview
     id="base"
     pagecolor="#ffffff"
     bordercolor="#666666"
     borderopacity="1.0"
     inkscape:pageopacity="0.0"
     inkscape:pageshadow="2"
     inkscape:zoom="0.35"
     inkscape:cx="231.42853"
     inkscape:cy="332.28571"
     inkscape:document-units="mm"
     inkscape:current-layer="layer1"
     showgrid="false"
     inkscape:window-width="1920"
     inkscape:window-height="1017"
     inkscape:window-x="-8"
     inkscape:window-y="-8"
     inkscape:window-maximized="1" />
  <metadata
     id="metadata116">
    <rdf:RDF>
      <cc:Work
         rdf:about="">
        <dc:format>image/svg+xml</dc:format>
        <dc:type
           rdf:resource="http://purl.org/dc/dcmitype/StillImage" />
        <dc:title></dc:title>
      </cc:Work>
    </rdf:RDF>
  </metadata>
  <g
     inkscape:label="Layer 1"
     inkscape:groupmode="layer"
     id="layer1"
     transform="translate(-44.601201,34.182742)">
    <g
       id="g132"
       transform="matrix(1.7066667,0,0,1.7181208,-34.098495,-170.01552)">
      <path
         style="fill:#fefefe;stroke-width:0.26458335"
         d="M 46.113102,157.90476 V 79.058922 h 79.374998 79.375 v 78.845838 78.84583 h -79.375 -79.374998 z"
         id="path148"
         inkscape:connector-curvature="0" />
      <path
         style="fill:#bbddcb;stroke-width:0.26458335"
         d="M 85.82174,197.31499 C 64.12751,175.75443 46.378273,158.03713 46.37899,157.94321 c 0.0015,-0.20051 78.79273,-78.448903 79.11352,-78.568494 0.22413,-0.08355 79.10672,78.187854 79.10511,78.492204 -0.001,0.20028 -78.7929,78.44863 -79.11367,78.56794 -0.11999,0.0446 -17.96798,-17.55931 -39.66221,-39.11987 z M 160.14865,192.43276 194.67614,157.9045 160.08212,123.31049 125.4881,88.716467 90.894085,123.31049 56.300067,157.9045 90.827558,192.43276 c 18.990122,18.99053 34.587362,34.52825 34.660542,34.52825 0.0732,0 15.67043,-15.53772 34.66055,-34.52825 z M 91.621306,191.639 57.887579,157.9045 91.68784,124.10424 125.4881,90.303973 159.28836,124.10424 193.08863,157.9045 159.3549,191.639 c -18.55355,18.55398 -33.79361,33.73451 -33.8668,33.73451 -0.0732,0 -15.31325,-15.18053 -33.866794,-33.73451 z m 40.745964,21.57158 v -1.84418 l -3.37344,-0.074 -3.37344,-0.074 1.5818,-1.19063 c 2.81863,-2.1216 4.5511,-3.98266 4.89217,-5.25531 0.62195,-2.32068 -0.33618,-4.37957 -2.49427,-5.35986 -1.20908,-0.5492 -5.14498,-0.68517 -6.76956,-0.23385 -1.61785,0.44945 -3.16326,2.46197 -3.16326,4.11937 0,0.59449 0.0996,0.64424 1.28984,0.64424 0.70942,0 1.64607,0.0712 2.08145,0.15832 0.70437,0.14087 0.81234,0.0753 0.97973,-0.59531 0.27494,-1.10143 0.91142,-1.67968 1.84882,-1.67968 1.23153,0 2.00224,0.65403 2.00224,1.69912 0,1.14072 -0.65624,1.93976 -3.15573,3.84247 -2.71082,2.06357 -4.36692,3.948 -5.03213,5.72593 -0.29886,0.79878 -0.54339,1.56693 -0.54339,1.70699 0,0.15637 2.55312,0.25466 6.61459,0.25466 h 6.61458 z m -12.96512,-27.65659 c 0.42181,-0.21812 1.07074,-0.79491 1.44207,-1.28174 0.6416,-0.84118 0.67513,-1.05148 0.67513,-4.23361 v -3.34847 h -1.85208 -1.85208 v 1.5875 1.5875 h 0.79375 c 0.71508,0 0.79375,0.0832 0.79375,0.83907 0,1.85351 -1.98121,2.51474 -2.83706,0.94687 -0.60037,-1.09984 -0.66901,-5.94496 -0.10322,-7.28615 0.54125,-1.28303 1.20948,-1.5463 1.97692,-0.77886 0.34133,0.34133 0.66795,0.76085 0.72583,0.93227 0.16128,0.47767 2.09001,-0.18446 2.08813,-0.71686 -0.004,-1.00587 -0.63589,-2.55191 -1.32603,-3.24205 -0.62996,-0.62996 -0.96664,-0.74845 -2.12663,-0.74845 -1.22478,0 -1.47266,0.10019 -2.2272,0.90023 -1.23829,1.31298 -1.81083,3.5798 -1.81083,7.16956 0,5.17565 1.35072,8.06979 3.76624,8.06979 0.6085,0 1.45149,-0.17847 1.87331,-0.3966 z m 17.06201,-0.47238 c 1.0619,-1.0619 1.606,-3.26571 1.34808,-5.46024 -0.27003,-2.29754 -0.91062,-3.11947 -3.5637,-4.57254 -0.63889,-0.34991 -0.82294,-0.6289 -0.82294,-1.24746 0,-0.80756 0.61749,-1.38403 1.24189,-1.1594 0.17372,0.0625 0.45084,0.52266 0.61584,1.02259 0.30585,0.92676 0.61609,1.05407 1.79757,0.73767 0.55541,-0.14875 0.59576,-0.26573 0.4323,-1.25316 -0.38079,-2.30018 -1.32578,-3.33806 -3.03931,-3.33806 -2.09633,0 -3.16018,1.58219 -3.16348,4.70485 -7.9e-4,0.76866 0.15938,1.78255 0.35599,2.25309 0.3802,0.90996 1.68573,2.15139 3.02139,2.87306 0.88558,0.47848 1.14192,1.26185 0.78036,2.38477 -0.47397,1.47205 -1.87388,0.99088 -2.20175,-0.75678 -0.15978,-0.85173 -0.22484,-0.89916 -1.12965,-0.82357 l -0.96011,0.0802 0.0349,1.36934 c 0.0419,1.64341 0.77758,3.26675 1.68487,3.7179 0.3638,0.18091 1.11984,0.33068 1.6801,0.33282 0.80157,0.003 1.20383,-0.18128 1.88762,-0.86508 z m -11.91441,0.27367 c 0.0569,-0.1819 0.17758,-0.77722 0.26827,-1.32292 0.16483,-0.99182 0.16538,-0.99219 1.48413,-0.99219 1.40505,0 1.41818,0.0128 1.69087,1.65365 0.16189,0.9741 0.18647,0.99219 1.34857,0.99219 1.09044,0 1.17323,-0.0469 1.051,-0.59531 -0.073,-0.32743 -0.67204,-3.57188 -1.33127,-7.2099 -0.65922,-3.63802 -1.2589,-6.88248 -1.33261,-7.2099 -0.116,-0.51526 -0.30345,-0.59531 -1.39406,-0.59531 h -1.26003 l -1.38762,7.60677 c -0.76319,4.18373 -1.38453,7.69607 -1.38076,7.80521 0.0119,0.34517 2.13337,0.22008 2.24351,-0.13229 z m 0.94364,-5.95313 c 0.008,-0.73488 0.70464,-4.83302 0.84493,-4.97331 0.13433,-0.13433 0.73819,3.82888 0.73762,4.84102 -2.6e-4,0.485 -0.14743,0.59531 -0.79409,0.59531 -0.58158,0 -0.79234,-0.12376 -0.78846,-0.46302 z M 88.612271,163.06938 c 1.218187,-1.39007 1.553956,-2.9062 1.553956,-7.01671 0,-4.13519 -0.333298,-5.61762 -1.589847,-7.07123 -0.761788,-0.88126 -1.004086,-0.99856 -2.062747,-0.99856 -2.179275,0 -3.433358,1.86099 -3.916659,5.81212 -0.5524,4.51601 0.572638,9.06946 2.480337,10.03886 1.27617,0.64848 2.535351,0.37617 3.53496,-0.76448 z m -3.268591,-3.23476 c -0.684297,-1.04437 -0.684297,-6.51952 0,-7.5639 0.960273,-1.46556 2.145601,-0.63875 2.598788,1.81276 0.330723,1.78905 0.102531,4.65693 -0.456687,5.73951 -0.502793,0.97335 -1.508382,0.97881 -2.142101,0.0116 z m -9.311815,-0.0116 0.02085,-4.16719 1.38887,4.10105 1.388869,4.10104 1.103828,0.0814 1.103826,0.0814 v -7.95272 -7.95271 h -1.051779 -1.05178 l -0.0727,4.29948 -0.0727,4.29948 -1.44902,-4.29948 -1.449017,-4.29948 h -0.998379 -0.998376 v 7.9375 7.9375 h 1.058334 1.058333 l 0.02085,-4.16719 z m 17.991709,-0.13229 0.02088,-4.29948 1.45637,4.29948 1.45637,4.29948 h 1.036282 1.036286 v -7.9375 -7.9375 h -1.05178 -1.051779 l -0.0727,4.29948 -0.0727,4.29948 -1.44902,-4.29948 -1.449017,-4.29948 h -0.998379 -0.998376 v 7.9375 7.9375 h 1.058333 1.058334 l 0.02088,-4.29948 z m 12.679116,0.99219 v -3.30729 h 1.4552 1.45521 v -1.45521 -1.45521 h -1.45521 -1.4552 v -1.4552 -1.45521 h 1.71979 1.71979 v -1.71979 -1.7198 h -2.91042 -2.91041 v 7.9375 7.9375 h 1.19062 1.19063 z m 10.84791,1.32292 v -1.98438 h -1.85208 -1.85208 v -5.95312 -5.95313 h -1.19063 -1.19062 v 7.9375 7.9375 h 3.0427 3.04271 z m 2.91403,1.25677 c 0.008,-1.69341 0.20917,-1.91823 1.71295,-1.91823 h 1.39027 l 0.17549,1.32292 0.17549,1.32291 h 1.18151 c 0.64983,0 1.18151,-0.0638 1.18151,-0.14176 0,-0.1904 -2.61046,-14.37821 -2.78787,-15.15207 -0.12497,-0.5451 -0.27075,-0.60098 -1.38043,-0.52917 l -1.24071,0.0803 -1.38867,7.54062 c -0.76377,4.14734 -1.39221,7.68945 -1.39654,7.87135 -0.005,0.21676 0.40246,0.33073 1.18276,0.33073 1.1216,0 1.19084,-0.0422 1.19424,-0.7276 z m 0.88376,-6.21771 c 0.0839,-0.47294 0.23174,-1.51474 0.3286,-2.3151 0.28571,-2.36118 0.54153,-2.35232 0.87909,0.0305 0.17286,1.22017 0.37552,2.42685 0.45036,2.68152 0.11218,0.38172 -0.0348,0.46302 -0.83724,0.46302 -0.953,0 -0.97014,-0.018 -0.82081,-0.8599 z m 7.58734,1.32292 c 0.004,-3.12935 0.10546,-5.44642 0.22773,-5.22552 0.12083,0.21828 0.49798,2.74836 0.83811,5.62239 l 0.61841,5.22552 h 0.83009 0.8301 l 0.59662,-4.96093 c 0.86939,-7.22901 1.02694,-7.34764 1.05412,-0.79375 l 0.0239,5.75468 h 0.92604 0.92604 v -7.9375 -7.9375 h -1.54387 -1.54388 l -0.45278,3.77032 c -0.50435,4.19972 -0.71481,5.55629 -0.84225,5.42885 -0.0887,-0.0887 -1.17206,-8.27962 -1.17296,-8.86844 -3.5e-4,-0.22778 -0.49467,-0.33073 -1.58801,-0.33073 h -1.5875 v 7.9375 7.9375 h 0.92604 0.92605 z m 10.31071,0.022 c 0,-3.08019 0.0473,-5.55074 0.1052,-5.49011 0.0579,0.0606 0.35598,2.13431 0.66247,4.60816 0.8608,6.9479 0.74323,6.48229 1.63683,6.48229 0.42377,0 0.78027,-0.0298 0.79223,-0.0661 0.012,-0.0364 0.35521,-2.56646 0.76279,-5.6224 l 0.74107,-5.55625 0.0309,5.6224 0.031,5.62239 h 0.92604 0.92604 v -7.9375 -7.9375 h -1.42214 c -1.67362,0 -1.48067,-0.47319 -2.18148,5.35012 -0.2578,2.14219 -0.52905,3.83457 -0.60279,3.76084 -0.0737,-0.0737 -0.37866,-2.1241 -0.67762,-4.55636 l -0.54355,-4.4223 -1.51955,-0.0794 -1.51954,-0.0793 v 7.9507 7.9507 h 0.92604 0.92605 z m 9.99594,4.80659 c 0.20475,-1.82843 0.22752,-1.85208 1.78305,-1.85208 1.40474,0 1.45029,0.0228 1.45378,0.7276 0.008,1.63287 0.23178,1.91823 1.50348,1.91823 1.14894,0 1.17665,-0.0196 1.02737,-0.7276 -0.0844,-0.40018 -0.63125,-3.34698 -1.21529,-6.54844 -0.58402,-3.20146 -1.18773,-6.44591 -1.34157,-7.20989 l -0.2797,-1.38907 -1.23801,5.3e-4 -1.23801,5.3e-4 -1.39753,7.7385 c -0.76864,4.25617 -1.39371,7.83463 -1.38906,7.95214 0.005,0.11751 0.51448,0.17704 1.13294,0.13229 0.97738,-0.0707 1.13417,-0.16788 1.19855,-0.74281 z m 0.85197,-5.54544 c 0,-1.62309 1.01876,-6.10221 1.05558,-4.64101 0.007,0.29104 0.17305,1.51143 0.36827,2.71197 l 0.35493,2.18282 h -0.88939 c -0.48916,0 -0.88939,-0.1142 -0.88939,-0.25378 z m 10.85468,6.07709 c 1.21852,-0.33852 1.82193,-1.38518 2.01674,-3.49815 0.17627,-1.91198 -0.20125,-3.6182 -0.95063,-4.29639 -0.51226,-0.46358 -0.51192,-0.47444 0.0378,-1.21796 1.11852,-1.51289 0.58551,-5.56965 -0.83142,-6.32797 -0.27997,-0.14983 -1.58843,-0.27243 -2.90768,-0.27243 h -2.39864 v 7.9375 7.9375 l 2.05052,-0.002 c 1.12778,-8e-4 2.47028,-0.1181 2.98332,-0.26063 z m -2.65259,-4.76498 v -1.5875 h 0.87312 c 1.12315,0 1.50813,0.40524 1.50813,1.5875 0,1.18226 -0.38498,1.5875 -1.50813,1.5875 h -0.87312 z m 0,-6.08542 c 0,-1.5623 0.0117,-1.5875 0.74083,-1.5875 1.00136,0 1.37583,0.44396 1.37583,1.63111 0,1.05571 -0.49647,1.54389 -1.5701,1.54389 -0.49163,0 -0.54656,-0.15955 -0.54656,-1.5875 z m 12.17083,9.12813 v -1.98438 h -1.85208 -1.85209 v -5.95312 -5.95313 h -1.19062 -1.19063 v 7.9375 7.9375 h 3.04271 3.04271 z m 7.67292,0.26458 v -1.71979 h -2.11667 -2.11667 v -1.71979 -1.71979 h 1.85209 1.85208 v -1.45521 -1.45521 h -1.85208 -1.85209 v -1.32292 -1.32291 h 1.98438 1.98437 v -1.71979 -1.7198 h -3.175 -3.175 v 7.9375 7.9375 h 3.30729 3.3073 z m -74.87709,-4.10104 v -1.5875 h -1.5875 -1.5875 v 1.5875 1.5875 h 1.5875 1.5875 z m 15.28668,-22.72662 c 12.55501,-2.44819 22.89749,-4.52143 22.98327,-4.60722 0.0858,-0.0858 0.23625,-0.54845 0.33435,-1.02813 l 0.17838,-0.87217 4.68574,-0.8917 4.68575,-0.8917 0.0475,-0.82925 c 0.13589,-2.3701 -0.48516,-4.27198 -1.31807,-4.0364 -0.24709,0.0699 -2.17567,0.44886 -4.28572,0.84215 -2.11005,0.3933 -3.97162,0.82166 -4.13681,0.95191 -0.20087,0.15839 -0.48274,-0.0723 -0.85098,-0.69639 -0.30284,-0.51328 -0.72705,-0.93323 -0.94269,-0.93323 -0.34359,0 -44.346488,8.50398 -45.844074,8.85981 -0.317723,0.0755 -0.653725,0.37685 -0.74667,0.6697 -0.220533,0.69484 0.283712,4.80523 0.804703,6.5596 0.33382,1.12409 0.514054,1.37165 0.992915,1.36383 0.321784,-0.005 10.857346,-2.01263 23.412366,-4.46081 z"
         id="path146"
         inkscape:connector-curvature="0" />
      <path
         style="fill:#9aceb2;stroke-width:0.26458335"
         d="M 85.93083,197.35758 C 64.249361,175.83619 46.509977,158.12477 46.509977,157.99887 c 0,-0.29907 78.717423,-78.543073 79.018303,-78.543073 0.30978,0 79.10472,78.227053 79.01141,78.441963 -0.0983,0.22646 -78.80385,78.43737 -79.01938,78.52279 -0.0927,0.0368 -17.90801,-17.54158 -39.58948,-39.06297 z M 160.14865,192.43276 194.67614,157.9045 160.08212,123.31049 125.4881,88.716467 90.894085,123.31049 56.300067,157.9045 90.827558,192.43276 c 18.990122,18.99053 34.587362,34.52825 34.660542,34.52825 0.0732,0 15.67043,-15.53772 34.66055,-34.52825 z M 91.621306,191.639 57.887579,157.9045 91.68784,124.10424 125.4881,90.303973 159.28836,124.10424 193.08863,157.9045 159.3549,191.639 c -18.55355,18.55398 -33.79361,33.73451 -33.8668,33.73451 -0.0732,0 -15.31325,-15.18053 -33.866794,-33.73451 z m 40.745964,21.57158 v -1.84418 l -3.37344,-0.074 -3.37344,-0.074 1.98438,-1.49393 c 1.0914,-0.82166 2.42505,-1.95276 2.96364,-2.51354 2.32856,-2.42449 2.3764,-5.18475 0.12414,-7.16226 -1.14743,-1.00745 -2.24131,-1.27373 -5.10031,-1.24154 -3.47936,0.0392 -5.19656,1.16706 -5.9456,3.90516 -0.15331,0.5604 -0.24114,1.05005 -0.1952,1.08813 0.0459,0.0381 1.05248,0.14679 2.23673,0.2416 2.14485,0.17169 2.15385,0.16976 2.32184,-0.49955 0.56185,-2.23859 3.85934,-2.22806 3.85934,0.0123 0,0.9723 -0.60117,1.74931 -2.4574,3.1762 -2.89725,2.22712 -4.70028,4.12859 -5.50953,5.81033 -1.29944,2.70043 -1.73442,2.51354 5.85027,2.51354 h 6.61458 v -1.84418 z m -12.00373,-28.4158 1.15581,-1.15581 v -3.4744 -3.4744 h -1.85208 -1.85208 v 1.7198 1.71979 h 0.79375 c 0.68384,0 0.79375,0.0979 0.79375,0.70677 0,1.41097 -1.5566,2.19675 -2.49425,1.2591 -0.64193,-0.64193 -0.8143,-1.60927 -0.79821,-4.47941 0.018,-3.21073 0.49232,-4.44986 1.65198,-4.3156 0.46817,0.0542 0.82893,0.33044 1.05765,0.80987 0.39232,0.82236 0.45082,0.83833 1.60168,0.43713 0.93037,-0.32433 1.02127,-0.74029 0.52428,-2.39909 -0.5049,-1.68523 -1.35905,-2.33752 -3.06088,-2.33752 -1.28436,0 -1.54355,0.098 -2.32391,0.87832 -1.31712,1.31712 -1.82972,3.33182 -1.82972,7.19147 0,3.85965 0.5126,5.87435 1.82972,7.19147 0.77086,0.77086 1.04768,0.87832 2.26251,0.87832 1.28157,0 1.46988,-0.0857 2.54,-1.15581 z m 16.07035,0.39799 c 1.82394,-1.90379 1.96707,-6.64797 0.25801,-8.55246 -0.26849,-0.29921 -1.11325,-0.898 -1.87724,-1.33066 -1.36493,-0.77299 -1.60305,-1.19356 -1.22846,-2.16971 0.3556,-0.92669 1.69149,-0.27511 1.69149,0.82503 0,0.53436 0.13001,0.60854 1.06663,0.60854 1.30665,0 1.47659,-0.33857 1.05406,-2.09989 -0.4538,-1.89163 -1.26078,-2.66261 -2.78691,-2.66261 -0.67136,0 -1.46108,0.12867 -1.75492,0.28593 -0.87239,0.46688 -1.53599,2.28662 -1.53599,4.21198 0,2.41253 0.63787,3.71301 2.27917,4.6468 1.61118,0.91664 1.94254,1.32541 1.94254,2.39633 0,0.79034 -0.55109,1.68812 -1.03623,1.68812 -0.3937,0 -1.0231,-0.93337 -1.20431,-1.78593 -0.16851,-0.79284 -0.26365,-0.8599 -1.22007,-0.8599 -1.02575,0 -1.03731,0.0113 -1.03731,1.0112 0,1.45441 0.73519,3.40224 1.51593,4.01638 0.45435,0.35738 1.07312,0.52867 1.90984,0.52867 1.01683,0 1.3673,-0.13525 1.96377,-0.75782 z m -11.63222,-0.82968 0.17549,-1.32292 h 1.30876 c 1.39631,0 1.43974,0.049 1.64165,1.85209 0.0661,0.59017 0.21112,0.67021 1.34567,0.7427 l 1.27159,0.0812 -0.1588,-0.875 c -0.0874,-0.48124 -0.72502,-3.97062 -1.41706,-7.75416 l -1.25826,-6.87917 -1.37589,-0.08 c -0.75674,-0.044 -1.37588,0.0159 -1.37588,0.13313 0,0.1172 -0.59427,3.42741 -1.32059,7.35601 -0.72632,3.9286 -1.32163,7.35128 -1.32292,7.60594 -0.002,0.37071 0.22825,0.46302 1.15421,0.46302 h 1.15654 z m 0.68843,-4.69635 c 0.003,-0.33062 0.52544,-3.58365 0.71129,-4.43177 0.14628,-0.66754 0.22641,-0.47821 0.50393,1.19062 0.53395,3.21083 0.50578,3.43958 -0.42347,3.43958 -0.43656,0 -0.79285,-0.0893 -0.79175,-0.19843 z M 88.452137,163.25298 c 1.428528,-1.42853 1.71409,-2.65012 1.71409,-7.3326 0,-4.57148 -0.348938,-5.92077 -1.878465,-7.26371 -1.675844,-1.47141 -3.76659,-0.84204 -4.84845,1.45952 -0.874347,1.8601 -1.254331,5.38901 -0.890577,8.27083 0.494411,3.91697 1.825652,5.86432 4.010599,5.86675 0.679104,7.9e-4 1.129284,-0.23727 1.892803,-1.00079 z m -3.100697,-3.56229 c -0.588148,-1.09291 -0.665652,-5.70426 -0.117695,-7.00266 0.470903,-1.11582 1.250617,-1.36086 1.987016,-0.62446 0.517432,0.51744 0.564216,0.8465 0.564216,3.96868 0,2.97656 -0.06335,3.47445 -0.504029,3.9614 -0.722336,0.79817 -1.393663,0.69276 -1.929508,-0.30296 z m -9.319575,0.1323 0.02085,-4.16719 1.38887,4.10104 1.388869,4.10104 1.103828,0.0814 1.103826,0.0814 v -7.95271 -7.95272 h -1.058333 -1.058333 l -0.0209,4.29948 -0.02088,4.29948 -1.45637,-4.29948 -1.45637,-4.29948 H 74.798348 73.62977 v 7.9375 7.9375 h 1.190625 1.190625 l 0.02085,-4.16718 z m 17.991667,0 0.02085,-4.16719 1.388869,4.10104 1.38887,4.10104 1.103828,0.0814 1.103826,0.0814 v -7.95271 -7.95272 h -1.051616 -1.051613 l -0.07287,4.16719 -0.07286,4.16719 -1.411023,-4.16719 -1.411023,-4.16719 h -1.168665 -1.168664 v 7.9375 7.9375 h 1.190625 1.190625 l 0.02085,-4.16718 z m 12.679158,0.85989 v -3.30729 h 1.4552 1.45521 v -1.5875 -1.5875 h -1.45521 -1.4552 v -1.32292 -1.32291 h 1.71979 1.71979 v -1.71979 -1.7198 h -2.91042 -2.91041 v 7.9375 7.9375 h 1.19062 1.19063 z m 10.84791,1.32292 v -1.98438 h -1.85208 -1.85208 v -5.95312 -5.95313 h -1.19063 -1.19062 v 7.9375 7.9375 h 3.0427 3.04271 z m 3.01774,0.66146 0.17549,-1.32292 h 1.44609 c 1.4003,0 1.44621,0.0231 1.44971,0.7276 0.008,1.62593 0.23398,1.91823 1.48246,1.91823 0.93482,0 1.15636,-0.0898 1.14224,-0.46302 -0.01,-0.25466 -0.63846,-3.79677 -1.39738,-7.87135 l -1.37988,-7.40833 -1.31927,-0.0778 -1.31928,-0.0778 -1.38974,7.61847 c -0.76436,4.19016 -1.38733,7.76729 -1.38438,7.94919 0.003,0.21333 0.41593,0.33073 1.16191,0.33073 h 1.15654 z m 0.68643,-4.8462 c 0,-0.10076 0.46992,-2.8546 0.7081,-4.14964 0.15854,-0.86199 0.19372,-0.79793 0.5086,0.92605 0.54822,3.00149 0.50911,3.30729 -0.42295,3.30729 -0.43656,0 -0.79375,-0.0377 -0.79375,-0.0837 z m 7.96927,1.07588 0.0318,-5.09322 0.34251,2.51354 c 0.18838,1.38244 0.48513,3.6744 0.65945,5.09323 l 0.31693,2.57968 h 0.89628 c 0.49295,0 0.89677,-0.0893 0.89738,-0.19843 0.004,-0.72938 1.3376,-10.48888 1.44835,-10.59963 0.0759,-0.0759 0.13805,2.32258 0.13805,5.33001 v 5.46805 h 0.92604 0.92604 v -7.9375 -7.9375 h -1.5875 c -0.87312,0 -1.58773,0.0893 -1.58801,0.19844 -0.002,0.62557 -1.10693,8.67012 -1.20472,8.76791 -0.0647,0.0647 -0.11782,-0.051 -0.11798,-0.25714 -1.7e-4,-0.20616 -0.23816,-2.2203 -0.52887,-4.47587 -0.29071,-2.25558 -0.52871,-4.13081 -0.52887,-4.16719 -1.6e-4,-0.0364 -0.71467,-0.0661 -1.5878,-0.0661 h -1.5875 v 7.9375 7.9375 h 1.05834 1.05833 z m 10.0224,-0.24253 c 0,-2.93467 0.0477,-5.28615 0.10596,-5.22552 0.0583,0.0606 0.35983,2.19384 0.67012,4.74045 0.75224,6.17367 0.64985,5.82083 1.68917,5.82083 h 0.86766 l 0.68124,-5.35781 0.68123,-5.35781 0.0336,5.35781 0.0336,5.35781 h 1.05833 1.05833 v -7.9375 -7.9375 h -1.56967 c -1.26844,0 -1.5949,0.0889 -1.70116,0.46302 -0.0723,0.25467 -0.34248,2.28718 -0.60036,4.5167 -0.25787,2.22952 -0.54516,3.83686 -0.63842,3.57187 -0.0933,-0.26499 -0.38941,-2.2975 -0.65811,-4.51669 l -0.48855,-4.0349 h -1.53749 -1.53749 v 7.9375 7.9375 h 0.92604 0.92605 z m 10.16327,3.9994 0.17727,-1.33637 1.37817,0.0796 c 1.24886,0.0721 1.38511,0.14165 1.45223,0.74105 0.19897,1.77677 0.26072,1.85208 1.51847,1.85208 0.65207,0 1.18559,-0.07 1.18559,-0.15548 0,-0.29721 -2.66663,-14.79633 -2.80592,-15.2565 -0.10881,-0.35945 -0.43209,-0.46302 -1.44525,-0.46302 -0.8663,0 -1.30595,0.1112 -1.30766,0.33073 -0.001,0.1819 -0.63715,3.75378 -1.41273,7.9375 l -1.41016,7.60677 h 1.24636 1.24635 z m 0.76864,-5.34437 c 0.0778,-0.32742 0.22424,-1.30968 0.32553,-2.18281 0.28578,-2.46345 0.5351,-2.48876 0.87053,-0.0884 0.41288,2.95471 0.42873,2.86648 -0.51499,2.86648 -0.71839,0 -0.80455,-0.0753 -0.68107,-0.59532 z m 11.13712,6.3108 c 1.24514,-0.52025 1.8406,-2.14274 1.69995,-4.63193 -0.0788,-1.39413 -0.25242,-2.05431 -0.69936,-2.65882 -0.55887,-0.75593 -0.57004,-0.85161 -0.18599,-1.59428 0.93577,-1.80957 0.70867,-4.75938 -0.46383,-6.02472 -0.49995,-0.53955 -0.79518,-0.59532 -3.15134,-0.59532 h -2.59971 v 7.9375 7.9375 h 2.25745 c 1.33501,0 2.61924,-0.15116 3.14283,-0.36993 z m -3.01903,-4.65715 v -1.5875 h 0.87312 c 1.12315,0 1.50813,0.40524 1.50813,1.5875 0,1.18226 -0.38498,1.5875 -1.50813,1.5875 h -0.87312 z m 0,-6.08542 c 0,-1.58331 0.002,-1.5875 0.78444,-1.5875 0.86434,0 1.33222,0.59125 1.33222,1.6835 0,0.8378 -0.64608,1.4915 -1.47411,1.4915 -0.60896,0 -0.64255,-0.083 -0.64255,-1.5875 z m 12.17083,9.12813 v -1.98438 h -1.85208 -1.85209 v -5.95312 -5.95313 h -1.19062 -1.19063 v 7.9375 7.9375 h 3.04271 3.04271 z m 7.67292,0.13229 v -1.85208 h -2.11667 -2.11667 v -1.45521 -1.45521 h 1.85209 1.85208 v -1.71979 -1.71979 h -1.85208 -1.85209 v -1.19063 -1.19062 h 1.98438 1.98437 v -1.71979 -1.7198 h -3.175 -3.175 v 7.9375 7.9375 h 3.30729 3.3073 z m -74.87709,-3.96875 v -1.5875 h -1.5875 -1.5875 v 1.5875 1.5875 h 1.5875 1.5875 z m 14.93553,-22.62472 c 12.36188,-2.39832 22.69028,-4.42854 22.95199,-4.51161 0.26171,-0.0831 0.54606,-0.47051 0.63189,-0.86099 0.0858,-0.39048 0.18332,-0.82304 0.21666,-0.96124 0.0333,-0.13819 1.48939,-0.51217 3.23568,-0.83107 1.74629,-0.3189 3.8455,-0.719 4.66492,-0.8891 l 1.48984,-0.30929 0.17783,-1.18584 c 0.17245,-1.15001 -0.38368,-3.33093 -0.93651,-3.6726 -0.11852,-0.0733 -2.26769,0.26548 -4.77594,0.75272 l -4.56045,0.8859 -0.42874,-0.75378 c -0.26807,-0.47131 -0.64832,-0.75441 -1.01468,-0.75546 -0.47968,-10e-4 -44.073903,8.38805 -46.046872,8.86141 -0.524894,0.12594 -0.59422,0.30655 -0.586081,1.52686 0.01177,1.76667 0.600101,5.06757 1.12745,6.32581 0.301535,0.71946 0.534085,0.94253 0.892339,0.85595 0.266486,-0.0644 10.598784,-2.07935 22.960674,-4.47767 z"
         id="path144"
         inkscape:connector-curvature="0" />
      <path
         style="fill:#7ec09d;stroke-width:0.26458335"
         d="M 85.85078,197.23027 46.34827,158.03705 80.824956,123.7069 C 99.787136,104.82532 117.62402,87.128747 120.46248,84.38119 l 5.16083,-4.995559 39.50192,39.193419 39.50192,39.19342 -34.47629,34.3304 c -18.96197,18.88172 -36.79858,36.5782 -39.63693,39.32551 l -5.16064,4.99512 z M 160.14865,192.43276 194.67614,157.9045 160.08212,123.31049 125.4881,88.716467 90.894085,123.31049 56.300067,157.9045 90.827558,192.43276 c 18.990122,18.99053 34.587362,34.52825 34.660542,34.52825 0.0732,0 15.67043,-15.53772 34.66055,-34.52825 z m -68.518285,-0.7847 -33.724666,-33.72544 33.789791,-33.80945 33.78979,-33.809456 33.79558,33.806486 33.79558,33.80649 -33.72764,33.72841 c -18.55019,18.55062 -33.78751,33.72841 -33.8607,33.72841 -0.0732,0 -15.30917,-15.17645 -33.857735,-33.72545 z m 40.736905,21.56252 v -1.84418 l -3.37344,-0.074 -3.37344,-0.074 2.58201,-1.94121 c 1.74965,-1.31543 2.80787,-2.32664 3.28267,-3.13681 1.54347,-2.63374 0.86603,-5.42341 -1.62428,-6.68878 -1.15454,-0.58665 -1.64107,-0.66715 -3.96875,-0.65666 -3.05771,0.0138 -4.53528,0.5699 -5.44464,2.04924 -0.49911,0.81193 -1.17116,2.80839 -0.99596,2.95865 0.0459,0.0394 1.04523,0.15284 2.22064,0.25207 l 2.1371,0.18043 0.41678,-1.06101 c 0.30274,-0.7707 0.61498,-1.11076 1.1412,-1.24283 1.04429,-0.2621 2.05396,0.18129 2.35371,1.03361 0.40243,1.14431 -0.35183,2.1738 -3.32623,4.53993 -2.81892,2.24245 -4.22075,3.88687 -4.86141,5.70269 -0.69598,1.97262 -1.11847,1.84714 6.21946,1.84714 h 6.61458 z m -12.03263,-28.35202 1.18471,-1.09203 v -3.53818 -3.53818 h -1.85208 -1.85208 v 1.7198 1.71979 h 0.81051 c 0.7536,0 0.80469,0.0598 0.7276,0.85164 -0.0588,0.60446 -0.29342,0.96923 -0.80823,1.25677 -0.85962,0.48014 -1.46601,0.21409 -2.00225,-0.87847 -0.51336,-1.04594 -0.68875,-4.06224 -0.33518,-5.76441 0.49372,-2.37695 1.87559,-3.10471 2.63276,-1.38656 l 0.36376,0.82543 1.0253,-0.40275 c 0.86017,-0.33789 1.02531,-0.5255 1.02531,-1.16487 0,-0.97854 -0.5945,-2.39795 -1.29973,-3.10318 -0.43518,-0.43518 -0.8833,-0.55235 -2.11245,-0.55235 -1.45207,0 -1.61645,0.0642 -2.3742,0.92722 -1.25751,1.43223 -1.74691,3.43322 -1.74691,7.14257 0,3.85153 0.51571,5.86763 1.83955,7.19147 0.76608,0.76608 1.05151,0.87832 2.23361,0.87832 1.22039,0 1.4732,-0.10869 2.54,-1.09203 z m 15.75333,0.8186 c 1.27685,-0.68335 2.12613,-4.01031 1.71818,-6.73076 -0.22309,-1.48762 -1.45642,-2.98939 -3.0424,-3.70457 -1.12297,-0.50638 -1.48509,-1.11145 -1.20096,-2.00666 0.27605,-0.86976 1.26505,-0.56149 1.57465,0.49081 0.24135,0.8203 0.32016,0.86759 1.32292,0.79375 1.24146,-0.0914 1.41728,-0.53267 0.93132,-2.33739 -0.44949,-1.66929 -1.28935,-2.37133 -2.83685,-2.37133 -2.33242,0 -3.24589,1.28321 -3.24589,4.55969 0,2.27394 0.5192,3.47736 1.87896,4.35509 1.99751,1.2894 2.35437,1.67951 2.35437,2.57371 0,0.51667 -0.20439,1.04988 -0.50764,1.32432 -0.48334,0.43741 -0.5333,0.43375 -1.04358,-0.0765 -0.29476,-0.29476 -0.61022,-0.9319 -0.70101,-1.41586 -0.15803,-0.8424 -0.20944,-0.8757 -1.20538,-0.78072 -1.0026,0.0956 -1.04026,0.13417 -1.03883,1.06361 0.002,1.5177 0.5121,2.97389 1.32603,3.78782 0.6066,0.6066 0.98126,0.74845 1.97683,0.74845 0.6756,0 1.45828,-0.12304 1.73928,-0.27343 z m -11.23952,-1.24792 0.24278,-1.25677 1.24818,-0.0803 c 1.33959,-0.0862 1.38237,-0.0377 1.58816,1.80009 0.066,0.5889 0.21193,0.6703 1.33084,0.7421 0.90401,0.058 1.25248,-0.0163 1.24146,-0.26459 -0.008,-0.18987 -0.63506,-3.67897 -1.39252,-7.75355 l -1.3772,-7.40834 -1.38561,-0.08 c -0.76208,-0.044 -1.38753,0.0156 -1.38989,0.13229 -0.002,0.11675 -0.63858,3.63531 -1.41384,7.81904 l -1.40956,7.60677 h 1.23721 1.2372 z m 0.80127,-4.7812 c -0.14475,-0.23421 0.47864,-4.48007 0.6886,-4.69003 0.11383,-0.11382 0.73845,3.76158 0.73762,4.57643 -2.6e-4,0.36416 -1.21174,0.46064 -1.42622,0.1136 z M 87.908807,163.86226 c 0.481058,-0.24877 1.03337,-0.95123 1.508215,-1.91823 0.730634,-1.48791 0.749205,-1.63394 0.749205,-5.89136 0,-4.25741 -0.01857,-4.40344 -0.749205,-5.89135 -1.064368,-2.16755 -2.612427,-2.8435 -4.397766,-1.92027 -1.051317,0.54366 -1.817712,1.9037 -2.266614,4.02233 -0.695915,3.28441 -0.330031,7.95599 0.793255,10.12818 0.838925,1.6223 2.794786,2.28161 4.36291,1.4707 z m -2.221201,-3.72705 c -0.634888,-0.63488 -0.813112,-1.59909 -0.812337,-4.39481 5.3e-4,-2.19059 0.08132,-2.6692 0.557721,-3.3073 0.758436,-1.01584 1.450745,-0.95462 2.035495,0.17999 0.691367,1.34148 0.558139,6.55659 -0.188579,7.38171 -0.600033,0.66303 -1.031626,0.70109 -1.5923,0.14041 z m -9.654214,-0.17993 0.02238,-4.0349 1.360289,4.0349 1.360291,4.03489 h 1.130877 1.13088 v -7.9375 -7.9375 H 79.986493 78.93488 l -0.07287,4.16719 -0.07286,4.16719 -1.411023,-4.16719 -1.411023,-4.16719 H 74.79844 73.629775 v 7.9375 7.9375 h 1.190625 1.190625 l 0.02238,-4.03489 z m 17.99014,-0.13229 0.02085,-4.16719 1.388869,4.10104 1.38887,4.10104 1.103828,0.0814 1.103826,0.0814 v -7.95271 -7.95272 h -1.051616 -1.051613 l -0.07287,4.16719 -0.07286,4.16719 -1.411023,-4.16719 -1.411023,-4.16719 h -1.168665 -1.168664 v 7.9375 7.9375 h 1.190625 1.190625 l 0.02085,-4.16718 z m 12.737158,0.92604 0.0743,-3.24115 1.38906,-0.08 1.38906,-0.08 v -1.57368 -1.57367 h -1.45521 -1.4552 v -1.32292 -1.32291 h 1.71979 1.71979 v -1.71979 -1.7198 h -2.91042 -2.91041 v 7.9375 7.9375 h 1.18248 1.18248 z m 10.78991,1.25677 v -1.98438 h -1.85208 -1.85208 v -5.95312 -5.95313 h -1.19063 -1.19062 v 7.9375 7.9375 h 3.0427 3.04271 z m 3.04449,0.64855 0.18372,-1.33582 1.36246,0.079 c 1.23227,0.0715 1.36953,0.14226 1.43653,0.74051 0.19896,1.77677 0.26071,1.85208 1.51847,1.85208 0.65207,0 1.18939,-0.0893 1.19404,-0.19843 0.005,-0.10914 -0.62042,-3.68077 -1.38906,-7.93694 l -1.39752,-7.73849 -1.38907,-5.3e-4 c -0.93379,-2.7e-4 -1.3899,0.10783 -1.39164,0.33016 -0.001,0.1819 -0.63714,3.75378 -1.41273,7.9375 l -1.41015,7.60677 h 1.25561 1.25561 l 0.18373,-1.33582 z m 0.75842,-5.21261 c 0.0739,-0.25467 0.21722,-1.1774 0.31845,-2.05052 0.31118,-2.68412 0.52429,-2.77585 0.86042,-0.37038 0.41518,2.97113 0.43035,2.88392 -0.50169,2.88392 -0.64775,0 -0.78445,-0.0935 -0.67718,-0.46302 z m 7.86935,1.5875 0.0306,-4.96094 0.61873,4.63021 c 0.3403,2.54661 0.62419,4.77903 0.63086,4.96093 0.007,0.19928 0.38022,0.33073 0.93819,0.33073 0.50932,0 0.92653,-0.0298 0.92714,-0.0661 0.0115,-0.6919 1.3506,-10.36958 1.44835,-10.46733 0.0759,-0.0759 0.13805,2.26304 0.13805,5.19771 v 5.33576 h 0.92604 0.92604 v -7.9375 -7.9375 h -1.5875 c -0.87312,0 -1.58763,0.0893 -1.5878,0.19844 -0.001,0.68903 -1.07557,8.37397 -1.18638,8.48477 -0.0749,0.0749 -0.13623,-0.0374 -0.13623,-0.24958 0,-0.44499 -0.72484,-6.29315 -0.9387,-7.57373 -0.14327,-0.85779 -0.14747,-0.8599 -1.71913,-0.8599 h -1.57551 v 7.9375 7.9375 h 1.05834 1.05833 z m 10.02358,-0.37483 c 0,-2.93467 0.0477,-5.28615 0.10596,-5.22552 0.0583,0.0606 0.35983,2.19384 0.67012,4.74045 0.75224,6.17367 0.64985,5.82083 1.68917,5.82083 h 0.86766 l 0.68124,-5.35781 0.68123,-5.35781 0.0336,5.35781 0.0336,5.35781 h 1.05833 1.05833 v -7.95012 -7.95013 l -1.65364,0.0788 -1.65365,0.0788 -0.54235,4.36562 c -0.2983,2.40109 -0.61653,4.1275 -0.70719,3.83646 -0.0907,-0.29104 -0.37141,-2.28534 -0.62389,-4.43177 l -0.45905,-3.90261 h -1.54574 -1.54574 v 7.9375 7.9375 h 0.92604 0.92605 z m 10.16148,4.01285 0.17549,-1.32292 h 1.30876 c 1.39631,0 1.43974,0.049 1.64165,1.85208 0.066,0.5889 0.21193,0.67031 1.33084,0.7421 0.90071,0.0578 1.25498,-0.0172 1.25042,-0.26458 -0.003,-0.18987 -0.6354,-3.73851 -1.40425,-7.88585 l -1.3979,-7.54062 -1.37387,-0.08 c -0.75563,-0.044 -1.37387,0.0267 -1.37387,0.157 0,0.22924 -2.54515,14.26694 -2.75637,15.20266 -0.0882,0.39095 0.0923,0.46302 1.15955,0.46302 h 1.26406 z m 0.80242,-5.6224 c 0.13493,-0.82889 0.64783,-3.84247 0.70627,-4.14963 0.0464,-0.24391 0.72314,3.76536 0.7451,4.41421 0.0166,0.49145 -0.12044,0.59532 -0.7856,0.59532 -0.76136,0 -0.79803,-0.0474 -0.66577,-0.8599 z m 10.99651,6.71531 c 0.42689,-0.1144 0.87827,-0.59764 1.27284,-1.36269 0.83918,-1.62713 0.7567,-4.82318 -0.15633,-6.05813 -0.56348,-0.76214 -0.57482,-0.85358 -0.18042,-1.4555 0.95632,-1.45953 0.70977,-5.12282 -0.42088,-6.25347 -0.44186,-0.44186 -0.89188,-0.51521 -3.16104,-0.51521 h -2.64583 v 7.9375 7.9375 l 2.3151,-0.0264 c 1.27331,-0.0145 2.61276,-0.10614 2.97656,-0.20363 z m -2.91041,-4.79708 v -1.61944 l 0.98736,0.0821 c 0.80429,0.0669 1.03453,0.21704 1.2417,0.80973 0.16273,0.46551 0.16273,0.98969 0,1.4552 -0.20717,0.59269 -0.43741,0.74284 -1.2417,0.80973 l -0.98736,0.0821 z m 0.19047,-4.66023 c -0.10476,-0.10475 -0.19047,-0.82546 -0.19047,-1.60158 0,-1.31772 0.0425,-1.41111 0.64255,-1.41111 0.35341,0 0.82966,0.1871 1.05834,0.41578 0.43404,0.43404 0.54963,1.61001 0.21063,2.14293 -0.24681,0.388 -1.46556,0.70949 -1.72105,0.45398 z m 11.98036,7.70294 v -1.98438 h -1.85208 -1.85209 v -5.95312 -5.95313 h -1.19062 -1.19063 v 7.9375 7.9375 h 3.04271 3.04271 z m 7.67292,0.13229 v -1.85208 h -2.11667 -2.11667 v -1.45521 -1.45521 h 1.85209 1.85208 v -1.71979 -1.71979 h -1.85208 -1.85209 v -1.19063 -1.19062 h 1.98438 1.98437 v -1.71979 -1.7198 h -3.175 -3.175 v 7.9375 7.9375 h 3.30729 3.3073 z m -74.87709,-3.96875 v -1.5875 h -1.5875 -1.5875 v 1.5875 1.5875 h 1.5875 1.5875 z m 15.58204,-22.7123 c 16.43373,-3.20585 22.65104,-4.51569 22.80456,-4.80437 0.11608,-0.21828 0.27333,-0.69797 0.34946,-1.06597 0.0946,-0.45752 0.3297,-0.68546 0.74336,-0.72084 0.33273,-0.0285 2.37971,-0.41197 4.54884,-0.85225 2.16914,-0.44029 3.97538,-0.80052 4.01387,-0.80052 0.0385,0 0.15086,-0.36817 0.24969,-0.81815 0.24679,-1.12362 -0.0719,-3.01079 -0.62348,-3.69195 l -0.45682,-0.56415 -4.59167,0.9085 -4.59166,0.9085 -0.42712,-0.75095 c -0.29083,-0.51134 -0.63817,-0.75067 -1.08857,-0.75007 -0.3638,5.3e-4 -10.96036,2.00439 -23.54791,4.45311 l -22.886463,4.45222 -0.08187,1.26376 c -0.09949,1.53574 0.313097,4.33427 0.912709,6.19086 0.428704,1.32741 0.469066,1.36615 1.261226,1.21053 0.450091,-0.0884 10.985428,-2.14414 23.411848,-4.56826 z"
         id="path142"
         inkscape:connector-curvature="0" />
      <path
         style="fill:#60b185;stroke-width:0.26458335"
         d="M 85.851238,197.22981 46.348227,158.03705 80.560352,123.9715 C 99.377021,105.23544 117.2138,87.538998 120.19764,84.646064 l 5.42515,-5.259881 39.50156,39.193147 39.50155,39.19314 -34.47567,34.3304 c -18.96162,18.88172 -36.79774,36.57799 -39.63583,39.32505 l -5.16015,4.99466 z M 160.14865,192.43276 194.67614,157.9045 160.08212,123.31049 125.4881,88.716467 90.894085,123.31049 56.300067,157.9045 90.827558,192.43276 c 18.990122,18.99053 34.587362,34.52825 34.660542,34.52825 0.0732,0 15.67043,-15.53772 34.66055,-34.52825 z m -68.518285,-0.7847 -33.724666,-33.72544 33.790267,-33.80945 33.790264,-33.809456 33.79411,33.807476 33.79411,33.80749 -33.72664,33.72741 c -18.54965,18.55008 -33.78652,33.72742 -33.85971,33.72742 -0.0732,0 -15.30917,-15.17645 -33.857735,-33.72545 z m 41.001485,21.5623 v -1.84441 l -3.48565,-0.0738 -3.48565,-0.0738 2.55869,-1.92252 c 3.09371,-2.3245 3.94947,-3.49469 4.07768,-5.57589 0.11925,-1.936 -0.63926,-3.33429 -2.3189,-4.2748 -1.0547,-0.59057 -1.48315,-0.66171 -3.96075,-0.65763 -3.03772,0.005 -4.42192,0.46554 -5.49336,1.82765 -0.49834,0.63354 -1.30128,2.97202 -1.09159,3.17913 0.0565,0.0558 1.06842,0.18535 2.24879,0.28796 l 2.14614,0.18657 0.30009,-0.86084 c 0.55776,-1.6 2.00334,-2.06516 3.12965,-1.00705 1.28024,1.20273 0.67698,2.2734 -2.88032,5.11195 -1.45804,1.16345 -2.99545,2.55029 -3.41646,3.08185 -0.92361,1.16616 -1.80833,3.04869 -1.8163,3.86477 l -0.006,0.59531 h 6.74688 6.74687 z M 118.81328,185.9542 c 0.18516,-0.002 0.86977,-0.49502 1.52136,-1.09564 l 1.18471,-1.09203 v -3.53818 -3.53818 h -1.85208 -1.85208 v 1.7198 1.71979 h 0.79375 c 0.70215,0 0.79375,0.0899 0.79375,0.77875 0,1.36883 -1.60791,2.07405 -2.4947,1.09416 -1.0282,-1.13616 -1.02896,-7.10674 -0.001,-8.24258 0.71565,-0.79078 1.41049,-0.63857 1.84628,0.40443 l 0.38187,0.91393 1.19998,-0.44474 c 1.1338,-0.42021 1.19077,-0.48887 1.03302,-1.24466 -0.38795,-1.85856 -1.12435,-3.05612 -2.14032,-3.48062 -3.3119,-1.3838 -5.64591,1.91197 -5.64591,7.97237 0,5.22432 1.84146,8.67499 4.36563,8.18065 0.29104,-0.057 0.68065,-0.10526 0.8658,-0.10725 z m 17.40321,-0.38452 c 1.00062,-0.65563 1.55364,-2.20982 1.65325,-4.64617 0.12305,-3.0101 -0.48224,-4.23643 -2.67034,-5.41018 -1.56177,-0.83776 -1.93076,-1.3514 -1.63661,-2.27816 0.27422,-0.864 1.26476,-0.56237 1.57117,0.47844 0.23633,0.80273 0.33112,0.8599 1.42592,0.8599 h 1.17276 l -0.15499,-1.3087 c -0.20901,-1.76475 -0.82208,-2.8593 -1.88561,-3.36646 -2.78994,-1.33043 -5.20768,1.89384 -4.38644,5.84971 0.34177,1.64632 1.00903,2.62094 2.20951,3.22731 1.39058,0.70239 2.02716,1.43664 2.02716,2.33822 0,0.93268 -0.40439,1.462 -1.11692,1.462 -0.48645,0 -0.83682,-0.59774 -1.11456,-1.90146 -0.13935,-0.65412 -0.23053,-0.69887 -1.14279,-0.56085 -0.54525,0.0825 -1.08186,0.23093 -1.19247,0.32986 -0.29311,0.26217 0.25825,2.87926 0.807,3.83049 0.91589,1.58765 2.92552,2.08442 4.43396,1.09605 z m -11.41165,-1.00815 0.24278,-1.25677 h 1.27354 c 1.35666,0 1.40529,0.0561 1.60641,1.85208 0.066,0.5889 0.21193,0.6703 1.33084,0.7421 1.16282,0.0746 1.2556,0.035 1.24102,-0.52917 -0.009,-0.33539 -0.63691,-3.94355 -1.39609,-8.01814 l -1.38035,-7.40833 -1.15339,-0.0831 c -0.63437,-0.0457 -1.26053,0.024 -1.39147,0.15497 -0.29064,0.29063 -3.12542,15.45253 -2.94493,15.75103 0.0707,0.11685 0.62356,0.17639 1.22866,0.13229 1.08543,-0.0791 1.10346,-0.097 1.34298,-1.33694 z m 1.07998,-7.07653 c 0.16867,-1.16357 0.37067,-2.17958 0.44889,-2.25779 0.0782,-0.0782 0.22176,0.48684 0.31899,1.25569 0.0972,0.76884 0.2454,1.78485 0.32928,2.25779 0.14363,0.8098 0.10717,0.8599 -0.62566,0.8599 h -0.77818 z M 87.953662,163.83906 c 2.530253,-1.30844 3.392898,-9.50188 1.447739,-13.75067 -0.717349,-1.5669 -1.667872,-2.2378 -3.170483,-2.2378 -1.276861,0 -2.386658,1.01646 -3.117438,2.85525 -0.521083,1.31116 -0.601569,1.99894 -0.610213,5.21454 -0.01066,3.96178 0.352284,5.69417 1.498086,7.15083 0.94995,1.20766 2.514151,1.51155 3.952309,0.76785 z m -2.24813,-3.77651 c -0.693476,-0.76628 -1.058878,-3.66155 -0.729292,-5.77854 0.322537,-2.07172 0.967086,-2.95469 1.82263,-2.49682 0.795665,0.42583 1.118446,1.68784 1.117989,4.37111 -5.3e-4,3.47192 -1.0022,5.24032 -2.211327,3.90425 z m -9.67214,-0.10727 0.02238,-4.0349 1.360289,4.0349 1.360291,4.03489 h 1.263169 1.263171 v -7.9375 -7.9375 H 80.118785 78.93488 l -0.07287,4.16719 -0.07286,4.16719 -1.411023,-4.16719 -1.411023,-4.16719 H 74.79844 73.629775 v 7.9375 7.9375 h 1.190625 1.190625 l 0.02238,-4.03489 z m 17.991666,0 0.02238,-4.0349 1.360289,4.0349 1.360292,4.03489 h 1.263168 1.263172 v -7.9375 -7.9375 h -1.190625 -1.190625 l -0.02085,4.16719 -0.02085,4.16719 -1.388988,-4.10104 -1.388989,-4.10104 -1.235998,-0.0806 -1.236001,-0.0806 v 7.952 7.95199 h 1.190625 1.190625 l 0.02238,-4.03489 z m 12.677632,0.8731 v -3.1618 l 1.52135,-0.0794 1.52135,-0.0794 v -1.5875 -1.5875 l -1.52135,-0.0793 -1.52135,-0.0794 v -1.30971 -1.30971 h 1.85208 1.85208 v -1.71979 -1.7198 h -3.04271 -3.0427 v 7.9375 7.9375 h 1.19062 1.19063 z m 13.91559,1.83888 0.17549,-1.32292 h 1.28379 c 1.36821,0 1.41532,0.054 1.61668,1.85208 0.0668,0.59647 0.20561,0.66915 1.41274,0.73969 l 1.33866,0.0782 -1.46094,-7.94958 -1.46095,-7.94958 h -1.36892 -1.36892 l -0.54946,2.97657 c -0.3022,1.63711 -0.94085,5.11968 -1.41922,7.73906 -0.84705,4.63818 -0.8718,4.71588 -0.94799,2.97656 l -0.0782,-1.78594 h -1.97229 -1.97228 v -5.95312 -5.95313 h -1.19063 -1.19062 v 7.9375 7.9375 h 4.4888 4.4888 z m 1.07829,-7.06385 c 0.20269,-1.26573 0.40846,-2.34127 0.45727,-2.39008 0.0488,-0.0488 0.16985,0.5403 0.26898,1.30915 0.0991,0.76885 0.24928,1.84439 0.33366,2.39009 0.14836,0.95947 0.12734,0.99219 -0.6375,0.99219 h -0.79092 z m 7.52629,3.55812 0.0306,-4.82865 0.48561,3.70417 c 0.86464,6.59549 0.67922,5.95312 1.71838,5.95312 0.5004,0 0.91529,-0.0298 0.92197,-0.0661 0.007,-0.0364 0.29057,-2.14974 0.63087,-4.69636 l 0.61873,-4.6302 0.0306,4.69635 0.0306,4.69635 h 1.05833 1.05833 v -7.9375 -7.9375 h -1.56647 c -1.83272,0 -1.61323,-0.48283 -2.28519,5.02709 -0.23958,1.96453 -0.46409,3.60257 -0.49891,3.6401 -0.0348,0.0375 -0.27,-1.68888 -0.52262,-3.83646 -0.25262,-2.14758 -0.51767,-4.11304 -0.58901,-4.36771 -0.10487,-0.37436 -0.43025,-0.46302 -1.69938,-0.46302 h -1.56967 v 7.9375 7.9375 h 1.05834 1.05833 z m 10.05257,-0.26459 c 0.0317,-5.57244 0.15158,-5.43442 0.91916,1.05834 l 0.47701,4.03489 h 0.97744 0.97745 l 0.31693,-2.57968 c 0.17432,-1.41883 0.47107,-3.71079 0.65945,-5.09323 l 0.34252,-2.51354 0.0318,5.09322 0.0318,5.09323 h 1.05833 1.05833 v -7.9375 -7.9375 h -1.67373 -1.67373 l -0.49417,4.27809 c -0.55857,4.83564 -0.65078,4.79113 -1.3259,-0.64007 l -0.45223,-3.63802 h -1.68803 -1.68804 v 7.9375 7.9375 h 1.05833 1.05834 z m 10.15746,3.77032 0.18195,-1.32292 h 1.26723 c 1.36734,0 1.58168,0.2586 1.58992,1.91823 0.003,0.69625 0.0606,0.7276 1.32653,0.7276 0.7276,0 1.32804,-0.0893 1.33431,-0.19843 0.006,-0.10914 -0.61881,-3.68099 -1.38906,-7.93744 l -1.40046,-7.73899 -1.38906,-7e-5 c -0.76399,-4e-5 -1.38906,0.0423 -1.38906,0.0941 0,0.16556 -2.63849,14.5664 -2.78227,15.18555 -0.12899,0.55549 -0.0511,0.59531 1.1649,0.59531 h 1.30312 z m 0.78628,-5.35782 c 0.0742,-0.32742 0.25099,-1.35522 0.39286,-2.28399 0.14188,-0.92878 0.30573,-1.73646 0.36412,-1.79485 0.0584,-0.0584 0.19064,0.64198 0.29388,1.55639 0.10324,0.91441 0.25302,1.98998 0.33284,2.39016 0.13369,0.67024 0.0796,0.72761 -0.68674,0.72761 -0.72625,0 -0.81473,-0.0756 -0.69696,-0.59532 z m 11.25227,6.34242 c 1.17649,-0.58785 1.62295,-1.88852 1.53414,-4.46936 -0.067,-1.94834 -0.16833,-2.38924 -0.67198,-2.92506 l -0.59305,-0.63093 0.5269,-1.03348 c 0.9444,-1.85239 0.46415,-5.53886 -0.81044,-6.22099 -0.26397,-0.14128 -1.61887,-0.25687 -3.01089,-0.25687 h -2.53093 v 7.9375 7.9375 l 2.44739,-0.004 c 1.41969,-0.002 2.72516,-0.14268 3.10886,-0.33441 z m -3.175,-4.68877 v -1.5875 h 0.91673 c 1.00386,0 1.46452,0.52953 1.46452,1.6835 0,0.88101 -0.65753,1.4915 -1.6064,1.4915 -0.77066,0 -0.77485,-0.009 -0.77485,-1.5875 z m 0,-6.0698 c 0,-1.43862 0.23765,-1.73365 1.20163,-1.4917 0.77373,0.19419 1.10788,1.23925 0.6897,2.15705 -0.21568,0.47336 -0.50243,0.64195 -1.09191,0.64195 -0.78165,0 -0.79942,-0.0291 -0.79942,-1.3073 z m 12.17083,9.11251 v -1.98438 h -1.85208 -1.85209 v -5.95312 -5.95313 h -1.19062 -1.19063 v 7.9375 7.9375 h 3.04271 3.04271 z m 7.67292,0.13229 v -1.85208 h -2.11667 -2.11667 v -1.45521 -1.45521 h 1.85209 1.85208 v -1.71979 -1.71979 h -1.85208 -1.85209 v -1.19063 -1.19062 h 2.11667 2.11667 v -1.71979 -1.7198 h -3.3073 -3.30729 v 7.9375 7.9375 h 3.30729 3.3073 z m -74.87709,-3.96875 v -1.85208 h -1.5875 -1.5875 v 1.85208 1.85208 h 1.5875 1.5875 z m 15.34407,-22.63851 c 12.44106,-2.41508 22.76973,-4.51523 22.9526,-4.667 0.18287,-0.15177 0.33432,-0.52926 0.33655,-0.83887 0.006,-0.80477 0.28313,-1.08154 1.18657,-1.18412 2.29553,-0.26064 8.16309,-1.61404 8.36258,-1.9289 0.62328,-0.98376 -0.0393,-4.27914 -0.92897,-4.62056 -0.21752,-0.0835 -2.37449,0.25311 -4.79326,0.74794 l -4.39778,0.8997 -0.36827,-0.71215 c -0.20255,-0.39168 -0.5215,-0.7703 -0.70878,-0.84138 -0.18729,-0.0711 -10.81802,1.90986 -23.62385,4.40205 l -23.283333,4.53127 -0.08219,1.45058 c -0.09269,1.63599 0.297236,4.27089 0.912596,6.16675 0.378748,1.1669 0.470821,1.26019 1.114147,1.12888 0.385702,-0.0787 10.88033,-2.11911 23.32139,-4.53419 z"
         id="path140"
         inkscape:connector-curvature="0" />
      <path
         style="fill:#3fa26d;stroke-width:0.26458335"
         d="M 85.880784,197.22602 46.40576,158.03705 70.799535,133.76086 C 84.21611,120.40895 102.0394,102.7142 110.40685,94.439176 l 15.21354,-15.045491 39.47326,39.189385 39.47326,39.1894 -24.65659,24.54076 c -13.56113,13.49743 -31.38362,31.192 -39.60555,39.32127 l -14.94896,14.78049 z M 160.14865,192.43276 194.67614,157.9045 160.08212,123.31049 125.4881,88.716467 90.894085,123.31049 56.300067,157.9045 90.827558,192.43276 c 18.990122,18.99053 34.587362,34.52825 34.660542,34.52825 0.0732,0 15.67043,-15.53772 34.66055,-34.52825 z M 91.753597,191.50671 58.152164,157.9045 91.820132,124.23653 125.4881,90.568557 l 33.66797,33.667973 33.66797,33.66797 -33.60143,33.60221 c -18.48079,18.48122 -33.66132,33.60222 -33.73451,33.60222 -0.0732,0 -15.25372,-15.121 -33.734503,-33.60222 z m 40.878253,21.70365 v -1.84441 l -3.4858,-0.0738 -3.4858,-0.0738 2.48807,-1.85208 c 1.36844,-1.01865 2.84775,-2.36836 3.28736,-2.99936 0.69685,-1.00022 0.7993,-1.3759 0.7993,-2.93101 0,-1.52919 -0.10171,-1.91708 -0.71267,-2.7181 -0.97475,-1.27796 -2.28203,-1.83119 -4.72237,-1.99845 -4.25652,-0.29175 -6.68593,1.11735 -7.26706,4.21502 l -0.17975,0.95815 2.00334,0.18772 c 2.2822,0.21386 2.80872,0.094 2.80872,-0.63959 0,-0.59368 1.17125,-1.61501 1.85208,-1.61501 0.72641,0 1.85208,1.03526 1.85208,1.70331 0,0.87881 -0.7852,1.75366 -3.67269,4.09204 -1.4107,1.14242 -2.89334,2.50773 -3.29475,3.03401 -0.90589,1.18768 -1.75029,3.01506 -1.758,3.8045 l -0.006,0.59531 h 6.74688 6.74687 z m -13.95767,-27.27343 c 0.54521,-0.15142 1.40841,-0.7048 1.91823,-1.22974 l 0.92694,-0.95444 v -3.53129 -3.53129 h -1.85208 -1.85208 v 1.7198 1.71979 h 0.79375 c 0.65441,0 0.79375,0.10802 0.79375,0.61534 0,0.75684 -1.10563,1.84656 -1.74801,1.72284 -0.25977,-0.05 -0.69789,-0.47722 -0.97362,-0.94932 -0.73337,-1.25571 -0.73864,-6.00983 -0.008,-7.2643 0.72855,-1.25098 1.5759,-1.29677 2.07096,-0.11193 l 0.3886,0.93005 1.20787,-0.41156 c 1.15685,-0.39418 1.20078,-0.44662 1.04013,-1.24166 -0.0922,-0.45655 -0.42618,-1.36587 -0.74208,-2.02071 -0.46444,-0.9628 -0.78474,-1.26336 -1.67382,-1.57073 -3.47334,-1.20078 -5.59439,2.33564 -5.30607,8.84677 0.0709,1.60073 0.32343,3.52903 0.56121,4.28511 0.46743,1.48628 1.65563,2.88592 2.60543,3.06908 0.32619,0.0629 0.6526,0.12992 0.72536,0.14893 0.0728,0.019 0.57837,-0.0893 1.12358,-0.24074 z m 17.54231,-0.36725 c 0.97953,-0.64181 1.55015,-2.21415 1.65972,-4.57327 0.13719,-2.95414 -0.45227,-4.22077 -2.52895,-5.43423 -1.74033,-1.01692 -2.18007,-1.5782 -1.75918,-2.24544 0.48547,-0.76963 1.25905,-0.56721 1.57566,0.41231 0.15561,0.48143 0.36397,0.86838 0.46302,0.85989 0.0991,-0.008 0.59681,-0.0154 1.10613,-0.0154 0.89474,0 0.92585,-0.0335 0.92024,-0.99219 -0.0145,-2.48101 -1.77302,-4.30608 -3.78527,-3.92858 -1.8311,0.34352 -3.03513,2.93367 -2.66406,5.73098 0.23196,1.74861 0.90552,2.73552 2.61201,3.82715 1.57575,1.00799 1.99851,1.83113 1.50113,2.92277 -0.17068,0.3746 -0.5176,0.64195 -0.833,0.64195 -0.54874,0 -0.88386,-0.54776 -1.18001,-1.92877 -0.14791,-0.68977 -0.22283,-0.72669 -1.14279,-0.56323 -0.54147,0.0962 -1.075,0.25695 -1.18561,0.35719 -0.26457,0.23976 0.21588,2.73321 0.73911,3.83583 0.76572,1.61365 2.91201,2.13478 4.50185,1.09307 z m -11.38985,-0.94201 0.18195,-1.32291 h 1.2861 c 1.28046,0 1.28682,0.004 1.451,0.99219 0.27015,1.62556 0.29683,1.65364 1.57057,1.65364 1.07065,0 1.19759,-0.0637 1.18642,-0.59531 -0.007,-0.32742 -0.63196,-3.92906 -1.38907,-8.00365 l -1.37655,-7.40833 -1.38906,-0.08 c -0.76399,-0.044 -1.38906,-0.0196 -1.38906,0.0542 0,0.16216 -2.58021,14.27366 -2.79852,15.30546 -0.15171,0.71704 -0.1348,0.7276 1.16517,0.7276 h 1.31911 z m 1.05818,-7.14267 c 0.16867,-1.16357 0.36979,-2.17869 0.44691,-2.25582 0.0771,-0.0771 0.2148,0.49422 0.30594,1.26966 0.0911,0.77544 0.24184,1.79056 0.33489,2.25582 0.15977,0.79883 0.12566,0.84593 -0.61262,0.84593 h -0.7818 z M 88.521117,163.36869 c 1.369165,-1.36917 1.879655,-3.3478 1.887548,-7.31602 0.0079,-3.95678 -0.501118,-5.92958 -1.887548,-7.31601 -0.732306,-0.7323 -1.084964,-0.88607 -2.032194,-0.88607 -2.678808,0 -4.127904,2.87933 -4.127904,8.20208 0,5.32276 1.449096,8.20209 4.127904,8.20209 0.94723,0 1.299888,-0.15377 2.032194,-0.88607 z M 85.693268,160.049 c -1.094486,-1.20939 -1.050713,-6.92462 0.06155,-8.03689 0.41488,-0.41488 0.613926,-0.45511 1.062892,-0.21483 0.80223,0.42934 1.172213,2.16962 1.051211,4.94459 -0.143878,3.29955 -1.002022,4.60398 -2.175656,3.30713 z m -9.659876,-0.0937 0.02238,-4.0349 1.360289,4.0349 1.360291,4.03489 h 1.263169 1.263171 v -7.9375 -7.9375 h -1.190625 -1.190625 l -0.02085,4.16719 -0.02085,4.16719 -1.388989,-4.10104 -1.388988,-4.10104 -1.235999,-0.0806 -1.236001,-0.0806 v 7.952 7.95199 h 1.190625 1.190625 l 0.02238,-4.03489 z m 17.991666,0 0.02238,-4.0349 1.360289,4.0349 1.360292,4.03489 h 1.263168 1.263172 v -7.9375 -7.9375 H 98.11063 96.926895 l -0.07304,4.0349 -0.07304,4.0349 -1.343599,-3.96875 -1.343599,-3.96875 -1.236089,-0.0806 -1.236088,-0.0806 v 7.952 7.95199 h 1.190625 1.190625 l 0.02238,-4.03489 z m 12.677632,0.8731 v -3.1618 l 1.52135,-0.0794 1.52135,-0.0794 0.0788,-1.65364 0.0788,-1.65365 h -1.60012 -1.60012 v -1.32292 -1.32291 h 1.85208 1.85208 v -1.71979 -1.7198 h -3.04271 -3.0427 v 7.9375 7.9375 h 1.19062 1.19063 z m 13.91559,1.83888 0.17549,-1.32292 h 1.28379 c 1.36821,0 1.41532,0.054 1.61668,1.85208 0.0669,0.59725 0.20503,0.66909 1.42296,0.74004 l 1.34888,0.0786 -1.41245,-7.6192 c -0.77685,-4.19057 -1.41361,-7.76804 -1.41503,-7.94994 -0.002,-0.22331 -0.46524,-0.33073 -1.42704,-0.33073 h -1.42447 l -0.52984,2.84427 c -0.29142,1.56435 -0.93033,5.04693 -1.41981,7.73907 -0.86213,4.74168 -0.89241,4.83892 -0.9682,3.10885 l -0.0782,-1.78594 h -1.97229 -1.97228 v -5.95312 -5.95313 h -1.19063 -1.19062 v 7.9375 7.9375 h 4.4888 4.4888 z m 1.07829,-7.06385 c 0.20269,-1.26573 0.40846,-2.34127 0.45727,-2.39008 0.0488,-0.0488 0.16985,0.5403 0.26898,1.30915 0.0991,0.76885 0.24928,1.84439 0.33366,2.39009 0.14836,0.95947 0.12734,0.99219 -0.6375,0.99219 h -0.79092 z m 7.52629,3.55812 0.0306,-4.82865 0.48561,3.70417 c 0.86464,6.59549 0.67922,5.95312 1.71838,5.95312 0.5004,0 0.91529,-0.0298 0.92197,-0.0661 0.007,-0.0364 0.29057,-2.14974 0.63087,-4.69636 l 0.61873,-4.6302 0.0306,4.69635 0.0306,4.69635 h 1.05833 1.05833 v -7.9375 -7.9375 h -1.56647 c -1.83272,0 -1.61323,-0.48283 -2.28519,5.02709 -0.23958,1.96453 -0.46409,3.60257 -0.49891,3.6401 -0.0348,0.0375 -0.27,-1.68888 -0.52262,-3.83646 -0.25262,-2.14758 -0.51767,-4.11304 -0.58901,-4.36771 -0.10487,-0.37436 -0.43025,-0.46302 -1.69938,-0.46302 h -1.56967 v 7.9375 7.9375 h 1.05834 1.05833 z m 10.05257,-0.26459 c 0.0317,-5.57244 0.15158,-5.43442 0.91916,1.05834 l 0.47701,4.03489 h 0.97744 0.97745 l 0.31693,-2.57968 c 0.17432,-1.41883 0.47107,-3.71079 0.65945,-5.09323 l 0.34252,-2.51354 0.0318,5.09322 0.0318,5.09323 h 1.05833 1.05833 v -7.9375 -7.9375 h -1.6836 -1.6836 l -0.4831,4.11104 c -0.26571,2.26106 -0.56254,3.9577 -0.65963,3.77031 -0.0971,-0.1874 -0.3196,-1.59088 -0.49448,-3.11885 -0.17487,-1.52797 -0.38579,-3.22461 -0.46871,-3.77031 l -0.15076,-0.99219 h -1.68598 -1.68597 v 7.9375 7.9375 h 1.05833 1.05834 z m 10.18244,3.77032 0.17549,-1.32292 h 1.25797 c 1.35708,0 1.57243,0.26134 1.58066,1.91823 0.003,0.69625 0.0606,0.7276 1.32653,0.7276 0.87908,0 1.32471,-0.11095 1.32828,-0.33073 0.003,-0.1819 -0.61906,-3.75377 -1.38224,-7.9375 l -1.38759,-7.60677 h -1.37487 c -1.287,0 -1.38448,0.0465 -1.52532,0.72761 -0.0828,0.40018 -0.68942,3.70416 -1.34815,7.34219 -0.65874,3.63802 -1.25761,6.88247 -1.33082,7.20989 -0.12423,0.55555 -0.045,0.59531 1.18572,0.59531 h 1.31884 z m 0.7613,-5.35782 c 0.0742,-0.32742 0.25099,-1.35522 0.39286,-2.28399 0.14188,-0.92878 0.30573,-1.73646 0.36412,-1.79485 0.0584,-0.0584 0.19064,0.64198 0.29388,1.55639 0.10324,0.91441 0.25302,1.98998 0.33284,2.39016 0.13369,0.67024 0.0796,0.72761 -0.68674,0.72761 -0.72625,0 -0.81473,-0.0756 -0.69696,-0.59532 z m 11.25227,6.34242 c 1.04718,-0.52324 1.58661,-1.90871 1.58709,-4.07623 5.2e-4,-2.00914 -0.22539,-2.9172 -0.89097,-3.58278 -0.36564,-0.36565 -0.35457,-0.50844 0.11013,-1.41992 0.9344,-1.83276 0.446,-5.52299 -0.82068,-6.20089 -0.26397,-0.14128 -1.61887,-0.25687 -3.01089,-0.25687 h -2.53093 v 7.9375 7.9375 l 2.44739,-0.004 c 1.41969,-0.002 2.72516,-0.14268 3.10886,-0.33441 z m -3.175,-4.68877 c 0,-1.5789 0.004,-1.5875 0.77485,-1.5875 0.98178,0 1.6064,0.61727 1.6064,1.5875 0,0.97023 -0.62462,1.5875 -1.6064,1.5875 -0.77066,0 -0.77485,-0.009 -0.77485,-1.5875 z m 0,-6.0698 c 0,-1.43245 0.23835,-1.73347 1.18458,-1.49598 0.41852,0.10504 0.68189,0.41443 0.79633,0.93543 0.24413,1.11151 -0.24036,1.86785 -1.19647,1.86785 -0.76369,0 -0.78444,-0.0346 -0.78444,-1.3073 z m 12.17083,9.11251 v -1.98438 h -1.85208 -1.85209 v -5.95312 -5.95313 h -1.19062 -1.19063 v 7.9375 7.9375 h 3.04271 3.04271 z m 7.67292,0.13229 v -1.85208 h -2.11667 -2.11667 v -1.45521 -1.45521 h 1.85209 1.85208 v -1.71979 -1.71979 h -1.85208 -1.85209 v -1.19063 -1.19062 h 2.11667 2.11667 v -1.71979 -1.7198 h -3.3073 -3.30729 v 7.9375 7.9375 h 3.30729 3.3073 z m -74.87709,-3.96875 v -1.85208 h -1.5875 -1.5875 v 1.85208 1.85208 h 1.5875 1.5875 z m 14.77545,-22.50582 c 12.74744,-2.48278 23.32939,-4.64048 23.51544,-4.79489 0.18605,-0.15441 0.33828,-0.5568 0.33828,-0.8942 0,-0.33739 0.11243,-0.68293 0.24985,-0.76786 0.13742,-0.0849 2.23536,-0.55462 4.66208,-1.04376 2.58241,-0.52051 4.50705,-1.03901 4.64089,-1.25025 0.61588,-0.97213 -0.0362,-4.27872 -0.90987,-4.61399 -0.35428,-0.13595 -8.4772,1.34126 -8.93659,1.62518 -0.11715,0.0724 -0.39225,-0.21501 -0.61135,-0.6387 -0.2191,-0.42368 -0.55373,-0.82996 -0.74363,-0.90283 -0.1899,-0.0729 -10.82063,1.90934 -23.62385,4.40492 l -23.278573,4.53742 0.03155,2.54543 c 0.02932,2.36464 0.861634,6.30768 1.33146,6.30768 0.08644,0 10.586883,-2.03136 23.334313,-4.51415 z"
         id="path138"
         inkscape:connector-curvature="0" />
      <path
         style="fill:#2f9a60;stroke-width:0.26458335"
         d="M 85.881281,197.22572 46.406752,158.03705 70.800031,133.76122 C 84.216335,120.40951 102.0394,102.71476 110.40685,94.439538 l 15.21354,-15.045853 39.47326,39.189385 39.47326,39.1894 -24.65659,24.54076 c -13.56113,13.49743 -31.38362,31.19186 -39.60555,39.32096 l -14.94896,14.78019 z M 160.14865,192.43276 194.67614,157.9045 160.08212,123.31049 125.4881,88.716467 90.894085,123.31049 56.300067,157.9045 90.827558,192.43276 c 18.990122,18.99053 34.587362,34.52825 34.660542,34.52825 0.0732,0 15.67043,-15.53772 34.66055,-34.52825 z M 91.753597,191.50671 58.152164,157.9045 91.820132,124.23653 125.4881,90.568557 l 33.66797,33.667973 33.66797,33.66797 -33.60143,33.60221 c -18.48079,18.48122 -33.66132,33.60222 -33.73451,33.60222 -0.0732,0 -15.25372,-15.121 -33.734503,-33.60222 z m 40.878253,21.70365 v -1.84441 l -3.4742,-0.0738 -3.4742,-0.0738 2.21743,-1.63327 c 1.21959,-0.8983 2.53854,-1.96986 2.931,-2.38125 1.93667,-2.03007 2.05809,-5.16638 0.27247,-7.03805 -1.88427,-1.97508 -7.9776,-2.04592 -10.07539,-0.11713 -0.73437,0.6752 -1.61196,2.44273 -1.62046,3.26373 -0.007,0.63591 0.93994,0.88651 3.36762,0.8916 1.22392,0.003 1.38907,-0.0614 1.38907,-0.53828 0,-0.70387 1.14361,-1.84006 1.85208,-1.84006 0.30427,0 0.85687,0.30365 1.22799,0.67477 1.2224,1.2224 0.65365,2.18427 -2.96686,5.01747 -3.18874,2.49532 -4.40624,4.06099 -5.08934,6.54474 l -0.27289,0.99219 h 6.85784 6.85784 z M 119.28337,185.7944 c 0.48769,-0.23142 1.19029,-0.81879 1.56134,-1.30526 0.64359,-0.84377 0.67464,-1.04365 0.67464,-4.34173 v -3.45724 h -1.997 -1.997 l 0.0788,1.65365 c 0.0788,1.65357 0.0788,1.65365 0.93867,1.73656 0.69231,0.0668 0.8599,0.19956 0.8599,0.68148 0,0.74942 -1.11342,1.82735 -1.76234,1.70617 -0.92804,-0.1733 -1.41181,-1.72491 -1.41225,-4.52958 -5.3e-4,-2.52711 0.36357,-4.12644 1.03329,-4.54035 0.5602,-0.34622 1.3668,0.14718 1.52378,0.9321 0.085,0.42486 0.17793,0.77247 0.20658,0.77247 0.0286,0 0.61956,-0.19335 1.31314,-0.42968 1.25073,-0.42617 1.25959,-0.43742 1.08337,-1.37675 -0.21264,-1.13351 -0.99248,-2.72584 -1.56951,-3.20472 -0.67449,-0.55978 -2.60049,-0.66047 -3.52168,-0.1841 -1.73975,0.89966 -2.71522,3.76416 -2.71522,7.97338 0,4.2484 1.02207,7.20366 2.7518,7.95666 1.09252,0.4756 1.88098,0.4641 2.94972,-0.0431 z m 17.37039,-0.61086 c 1.3544,-1.51571 1.77679,-5.13646 0.86278,-7.39585 -0.45581,-1.12673 -2.15854,-2.68502 -2.93391,-2.68502 -0.1931,0 -0.54088,-0.28967 -0.77286,-0.64371 -0.32809,-0.50074 -0.35677,-0.76519 -0.12908,-1.19063 0.55416,-1.03545 1.597,-0.35947 1.597,1.03519 0,0.49836 0.10691,0.54078 0.99218,0.39365 1.63454,-0.27165 1.61179,-0.24701 1.37816,-1.49275 -0.47797,-2.54852 -1.17908,-3.38379 -3.01392,-3.5906 -1.08983,-0.12284 -1.2734,-0.0554 -2.10013,0.77131 -1.37835,1.37835 -1.83038,3.61183 -1.19452,5.9022 0.31414,1.13153 1.68572,2.63208 3.07273,3.36165 0.97673,0.51377 1.3403,1.52872 0.89652,2.50273 -0.49021,1.07588 -1.42401,0.74942 -1.75275,-0.61277 -0.14658,-0.6074 -0.33904,-1.1769 -0.4277,-1.26555 -0.0887,-0.0887 -0.66637,-0.0804 -1.28382,0.0183 l -1.12264,0.17951 0.17488,1.35062 c 0.38689,2.98786 1.8283,4.53831 3.98413,4.28551 0.74668,-0.0876 1.26877,-0.3596 1.77295,-0.92383 z m -11.80214,-0.55587 0.17549,-1.32291 h 1.27972 1.27971 l 0.17549,1.32291 0.17549,1.32292 h 1.24474 c 0.6846,0 1.30214,-0.0574 1.37231,-0.12758 0.11985,-0.11985 -2.53937,-14.96799 -2.80843,-15.68127 -0.0767,-0.20337 -0.63018,-0.33073 -1.43723,-0.33073 h -1.31246 l -0.27977,1.38906 c -0.41072,2.03922 -2.66816,14.37135 -2.66816,14.57582 0,0.0961 0.59121,0.1747 1.3138,0.1747 h 1.3138 z m 1.01435,-6.63254 c 0.29201,-2.58105 0.56508,-2.98978 0.77936,-1.16656 0.10079,0.85761 0.25175,1.83215 0.33545,2.16565 0.13089,0.5215 0.0508,0.60637 -0.57213,0.60637 h -0.72431 z M 88.610863,163.31281 c 1.342308,-1.42326 1.814306,-3.31201 1.814306,-7.26014 0,-3.99105 -0.500896,-5.98341 -1.841248,-7.32376 -0.748409,-0.74841 -1.064395,-0.87832 -2.13637,-0.87832 -1.116278,0 -1.367706,0.11527 -2.23111,1.0229 -1.398585,1.47022 -1.723943,2.87924 -1.71885,7.44377 0.0039,3.46001 0.06573,3.97335 0.630521,5.23162 0.857819,1.91109 1.8533,2.70588 3.389154,2.70588 1.038534,0 1.328097,-0.13028 2.093597,-0.94195 z m -2.967691,-3.3184 c -0.415467,-0.45845 -0.519557,-1.05496 -0.592397,-3.39489 -0.10587,-3.40087 0.294773,-4.78018 1.388476,-4.78018 0.882851,0 1.212588,0.68099 1.397457,2.88611 0.205783,2.45459 -0.10437,4.70715 -0.734946,5.33773 -0.643017,0.64302 -0.837565,0.63651 -1.45859,-0.0488 z m -9.60978,-0.0391 0.02238,-4.0349 1.360289,4.0349 1.360291,4.03489 h 1.263169 1.263171 v -7.9375 -7.9375 h -1.322917 -1.322916 l -0.02082,3.77032 -0.02082,3.77031 -1.256726,-3.70417 -1.256726,-3.70416 -1.235979,-0.0806 -1.23598,-0.0806 v 7.952 7.95199 h 1.190625 1.190625 l 0.02238,-4.03489 z m 17.991666,0 0.02238,-4.0349 1.360289,4.0349 1.360292,4.03489 h 1.263168 1.263172 v -7.9375 -7.9375 h -1.322917 -1.322917 l -0.02085,3.77032 -0.02082,3.77031 -1.256725,-3.70417 -1.256726,-3.70416 -1.23598,-0.0806 -1.23598,-0.0806 v 7.952 7.95199 h 1.190625 1.190625 l 0.02238,-4.03489 z m 12.942212,0.85989 v -3.175 h 1.45521 1.45521 v -1.71979 -1.71979 h -1.45521 -1.45521 v -1.32292 -1.32291 h 1.71979 1.71979 v -1.71979 -1.7198 h -3.175 -3.175 v 7.9375 7.9375 h 1.45521 1.45521 z m 13.61307,2.57969 c 0.0712,-0.32742 0.16274,-0.89297 0.20348,-1.25677 0.0658,-0.58794 0.21254,-0.67037 1.31987,-0.74165 l 1.24579,-0.0802 0.17736,1.33697 0.17735,1.33696 h 1.43895 c 1.24601,0 1.42066,-0.0621 1.30253,-0.46302 -0.14333,-0.48648 -2.80965,-14.95239 -2.80965,-15.24355 0,-0.0926 -0.64498,-0.16843 -1.43329,-0.16843 h -1.43328 l -0.25868,1.25677 c -0.14228,0.69123 -0.77722,4.11428 -1.41099,7.60678 -1.03561,5.70691 -1.16028,6.18252 -1.23107,4.69635 l -0.0788,-1.65365 h -1.83946 -1.83946 v -5.95312 -5.95313 h -1.32292 -1.32291 v 7.9375 7.9375 h 4.49287 c 4.44455,0 4.49427,-0.006 4.62228,-0.59531 z m 1.07368,-7.09806 c 0.10264,-0.88437 0.2724,-1.92617 0.37723,-2.3151 0.16019,-0.59426 0.21841,-0.47261 0.36471,0.76202 0.0957,0.80805 0.25022,1.84984 0.34327,2.31511 0.15717,0.78584 0.11801,0.84593 -0.55133,0.84593 h -0.7205 z m 7.56966,3.12931 0.0314,-4.56406 0.60808,4.49792 c 0.33444,2.47385 0.61796,4.53486 0.63004,4.58003 0.0121,0.0452 0.46845,0.0452 1.01415,0 l 0.99219,-0.0821 0.56256,-4.36562 0.56256,-4.36563 0.0327,4.43177 0.0328,4.43177 h 1.19062 1.19063 v -7.9375 -7.9375 h -1.71476 c -2.00431,0 -1.74377,-0.52142 -2.44571,4.8948 l -0.48006,3.70416 -0.50392,-4.29948 -0.50393,-4.29948 h -1.67373 -1.67373 v 7.9375 7.9375 h 1.05834 1.05833 z m 10.32057,0.39688 0.0332,-4.16719 0.53633,4.16719 0.53633,4.16718 h 1.01794 c 0.6315,0 1.02256,-0.12555 1.03009,-0.33073 0.007,-0.1819 0.29057,-2.41432 0.63087,-4.96093 l 0.61873,-4.63021 0.0306,4.96094 0.0306,4.96093 h 1.05833 1.05833 v -7.9375 -7.9375 h -1.68517 -1.68518 l -0.29662,2.31511 c -0.16314,1.2733 -0.37554,3.07139 -0.47201,3.99575 -0.22569,2.16277 -0.47009,1.64875 -0.86198,-1.81294 -0.17298,-1.52797 -0.38194,-3.16508 -0.46435,-3.63802 l -0.14983,-0.8599 h -1.69035 -1.69034 v 7.9375 7.9375 h 1.19062 1.19063 z m 9.85417,3.57187 c 0.0877,-0.32742 0.16117,-0.92273 0.16315,-1.32292 0.003,-0.69557 0.0614,-0.7276 1.31742,-0.7276 h 1.3138 l 0.17549,1.32292 0.17549,1.32291 h 1.37836 1.37836 l -1.40521,-7.60677 c -0.77286,-4.18372 -1.40845,-7.7556 -1.41244,-7.9375 -0.005,-0.22347 -0.47752,-0.33073 -1.45741,-0.33073 -1.28817,0 -1.46498,0.0665 -1.58284,0.59532 -0.073,0.32742 -0.67324,3.57187 -1.33393,7.20989 -0.6607,3.63802 -1.26757,6.94201 -1.3486,7.34219 -0.14495,0.7158 -0.12603,0.7276 1.16574,0.7276 1.13806,0 1.33435,-0.0794 1.47262,-0.59531 z m 1.08827,-7.27604 c 0.26374,-2.48695 0.55668,-2.84722 0.78282,-0.96277 0.10284,0.85695 0.25059,1.82597 0.32834,2.15339 0.12023,0.5063 0.0336,0.59532 -0.5796,0.59532 h -0.72096 z m 11.50526,7.12696 c 1.45394,-1.45394 1.62757,-5.58628 0.30342,-7.22153 -0.44436,-0.54876 -0.44287,-0.61633 0.0336,-1.52962 0.69401,-1.33028 0.56495,-4.44218 -0.22835,-5.50614 -0.5373,-0.72061 -0.6301,-0.74309 -3.36897,-0.81612 l -2.81645,-0.0751 v 7.94645 7.94645 h 2.66618 c 2.57037,0 2.69294,-0.0267 3.41058,-0.74439 z m -3.43093,-4.24962 c 0,-1.5054 0.0423,-1.62028 0.59531,-1.61652 1.0069,0.007 1.37704,0.42456 1.37704,1.55405 0,1.24464 -0.0386,1.29629 -1.13175,1.51492 l -0.8406,0.16813 z m 0,-6.10091 c 0,-1.31839 0.0133,-1.34049 0.80825,-1.34049 0.79915,0 0.80733,0.0141 0.7276,1.25677 -0.0738,1.15091 -0.14193,1.26382 -0.80825,1.34049 -0.70902,0.0816 -0.7276,0.0495 -0.7276,-1.25677 z m 12.17083,9.11055 v -1.98438 h -1.98437 -1.98438 v -5.95312 -5.95313 h -1.32291 -1.32292 v 7.9375 7.9375 h 3.30729 3.30729 z m 7.40834,0.13229 v -1.85208 h -1.98438 -1.98437 v -1.44312 -1.44312 l 1.78593,-0.0782 1.78594,-0.0782 v -1.5875 -1.5875 l -1.78594,-0.0782 -1.78593,-0.0782 v -1.17854 -1.17853 h 1.98437 1.98438 v -1.71979 -1.7198 h -3.3073 -3.30729 v 7.9375 7.9375 h 3.30729 3.3073 z m -74.7448,-3.96875 v -1.71979 l -1.65364,-0.0788 -1.65365,-0.0788 v 1.87733 1.87733 l 1.65365,-0.0788 1.65364,-0.0788 z M 118.0891,135.6931 c 12.68048,-2.46654 23.22367,-4.62424 23.42929,-4.7949 0.20564,-0.17066 0.3757,-0.50407 0.37793,-0.74091 0.002,-0.23685 0.0955,-0.57458 0.20736,-0.75053 0.11182,-0.17595 2.16382,-0.69836 4.56001,-1.16091 2.39619,-0.46256 4.50553,-0.95826 4.68743,-1.10156 0.48182,-0.37957 0.40899,-2.9241 -0.11515,-4.02323 -0.30703,-0.64386 -0.62374,-0.93502 -1.01705,-0.93502 -0.67428,0 -8.26075,1.51553 -8.58279,1.71457 -0.12167,0.0752 -0.47475,-0.29298 -0.78463,-0.81818 -0.43521,-0.73762 -0.69696,-0.92856 -1.15038,-0.83917 -0.32284,0.0636 -10.91565,2.12545 -23.53958,4.5818 l -22.952605,4.46608 0.0039,1.99588 c 0.0052,2.67066 0.986348,6.89068 1.602015,6.89068 0.120346,0 10.59375,-2.01807 23.27423,-4.4846 z"
         id="path136"
         inkscape:connector-curvature="0" />
      <path
         style="fill:#00833c;stroke-width:0.26458335"
         d="M 85.954018,197.18302 C 64.332556,175.69538 46.643019,158.03761 46.643937,157.94353 c 0.002,-0.20197 78.527363,-78.185255 78.848983,-78.304638 0.22553,-0.08372 78.84202,77.923178 78.83976,78.228428 -0.002,0.20075 -78.52781,78.18433 -78.84793,78.30297 -0.12044,0.0446 -17.90927,-17.49964 -39.530732,-38.98727 z M 160.28094,192.56505 194.94072,157.9045 160.21441,123.17819 125.4881,88.451882 90.761791,123.17819 56.035482,157.9045 90.695267,192.56505 c 19.062883,19.0633 34.719663,34.66054 34.792833,34.66054 0.0732,0 15.72995,-15.59724 34.79284,-34.66054 z M 91.753597,191.50671 58.152164,157.9045 91.820132,124.23653 125.4881,90.568557 l 33.66797,33.667973 33.66797,33.66797 -33.60143,33.60221 c -18.48079,18.48122 -33.66132,33.60222 -33.73451,33.60222 -0.0732,0 -15.25372,-15.121 -33.734503,-33.60222 z m 40.878253,21.69596 v -1.85208 h -3.32291 c -2.19596,0 -3.26621,-0.0917 -3.15575,-0.27045 0.0919,-0.14875 0.8431,-0.7606 1.66926,-1.35967 3.42072,-2.48044 4.54482,-4.04113 4.54482,-6.30998 0,-1.56721 -0.45258,-2.5737 -1.58622,-3.52759 -1.06868,-0.89924 -2.34789,-1.22936 -4.76378,-1.22936 -2.43206,0 -3.69537,0.33034 -4.79193,1.25304 -0.88955,0.74851 -1.80715,2.46937 -1.81684,3.40729 -0.007,0.66142 0.81497,0.89297 3.16919,0.89297 1.47353,0 1.52626,-0.0246 1.6777,-0.78174 0.32454,-1.62271 2.36443,-2.01191 3.27346,-0.62456 0.38722,0.59096 0.38728,0.71999 7.9e-4,1.53059 -0.2468,0.51754 -1.4453,1.70129 -2.88545,2.84993 -3.77364,3.00979 -4.92707,4.47657 -5.51546,7.0138 l -0.19942,0.8599 h 6.8513 6.85131 v -1.85209 z m -13.40675,-27.3484 c 0.47506,-0.19849 1.18561,-0.74341 1.579,-1.21092 0.69954,-0.83135 0.71525,-0.92804 0.71525,-4.4016 v -3.55158 h -1.98437 -1.98438 v 1.7198 1.71979 h 0.94362 c 0.86553,0 0.93669,0.058 0.85989,0.70143 -0.046,0.3858 -0.39627,0.93372 -0.77828,1.21762 -1.59316,1.18399 -2.47054,-0.66522 -2.30243,-4.85275 0.0746,-1.85752 0.22825,-2.72976 0.57393,-3.25733 0.58444,-0.89196 1.21665,-0.80546 1.75251,0.23978 0.22328,0.43553 0.4285,0.83425 0.45604,0.88604 0.12022,0.22609 2.46347,-0.85868 2.46347,-1.14043 0,-0.17209 -0.18055,-0.92089 -0.40123,-1.66398 -0.52666,-1.77349 -1.61014,-2.71408 -3.1248,-2.71273 -2.95544,0.003 -4.41147,2.75313 -4.41147,8.33339 0,6.38065 2.15798,9.42971 5.64325,7.97347 z m 17.16987,-0.34428 c 1.02081,-0.90586 1.59818,-2.67052 1.59818,-4.88468 0,-2.60728 -0.54365,-3.7503 -2.33702,-4.91362 -1.91795,-1.24412 -2.21022,-1.55557 -2.04666,-2.181 0.31211,-1.19354 1.30979,-0.9171 1.56309,0.43311 0.16199,0.86348 0.22791,0.91588 0.96631,0.7682 0.43585,-0.0872 1.00822,-0.15849 1.27192,-0.15849 0.40251,0 0.45702,-0.15923 0.33962,-0.99219 -0.37328,-2.64847 -1.46171,-4.0349 -3.16762,-4.0349 -2.01875,0 -3.18066,1.3625 -3.45626,4.05295 -0.26608,2.59755 0.77066,4.68694 2.85268,5.7491 0.55891,0.28514 1.14717,0.76315 1.30724,1.06225 0.36513,0.68225 0.0769,2.08402 -0.4718,2.29458 -0.56553,0.21701 -1.38905,-0.85673 -1.38905,-1.8111 0,-0.82937 -0.25622,-0.91164 -1.84794,-0.59329 l -0.85576,0.17115 0.17865,1.3502 c 0.27369,2.06849 1.03091,3.54828 2.05069,4.00751 1.07521,0.48419 2.70867,0.33251 3.44373,-0.31978 z m -11.6028,-0.15471 c 0.0877,-0.32742 0.16117,-0.92274 0.16315,-1.32292 0.003,-0.69558 0.0614,-0.7276 1.31742,-0.7276 h 1.3138 l 0.17549,1.32291 0.17549,1.32292 h 1.42617 c 1.34428,0 1.41808,-0.0342 1.28548,-0.59531 -0.22177,-0.93849 -2.77982,-15.01015 -2.77982,-15.29164 0,-0.13895 -0.65257,-0.25263 -1.45017,-0.25263 -1.28742,0 -1.46534,0.0668 -1.58537,0.59531 -0.22711,1.00003 -2.78529,15.06318 -2.78529,15.31169 0,0.12792 0.58143,0.23258 1.29206,0.23258 1.11625,0 1.31376,-0.081 1.45159,-0.59531 z m 1.09622,-7.40834 c 0.2682,-2.36327 0.55461,-2.67179 0.77098,-0.83047 0.1007,0.85694 0.24357,1.76644 0.31749,2.0211 0.10414,0.35878 -0.0244,0.46302 -0.57087,0.46302 h -0.70526 z M 88.411233,163.58232 c 0.442065,-0.37198 1.064111,-1.34732 1.392131,-2.18281 0.515898,-1.31403 0.593924,-2.00911 0.600221,-5.34684 0.0064,-3.37796 -0.0645,-4.01696 -0.592984,-5.34683 -0.805628,-2.02725 -1.811994,-2.85525 -3.470344,-2.85525 -1.138566,0 -1.367721,0.10614 -2.187004,1.01299 -1.423657,1.57582 -1.887019,3.6941 -1.72594,7.89024 0.152513,3.97299 0.601421,5.51565 1.94945,6.69924 1.21462,1.06645 2.858106,1.1191 4.03447,0.12926 z m -2.440708,-3.38063 c -0.693327,-0.52767 -0.963673,-1.69885 -0.963673,-4.17474 0,-2.87229 0.44735,-4.20761 1.409607,-4.20761 0.967486,0 1.368518,1.24054 1.368518,4.23333 0,3.39374 -0.700918,4.9965 -1.814452,4.14902 z m -9.938617,-0.11412 0.02088,-3.9026 1.324078,3.9026 1.324079,3.9026 h 1.300866 1.300869 v -7.9375 -7.9375 h -1.322917 -1.322917 l -0.02082,3.77032 -0.02082,3.77031 -1.256726,-3.70417 -1.256726,-3.70416 -1.23598,-0.0806 -1.235979,-0.0806 v 7.952 7.95199 h 1.190625 1.190625 l 0.0209,-3.9026 z m 17.991666,0 0.02088,-3.9026 1.324078,3.9026 1.324078,3.9026 h 1.300866 1.300869 v -7.9375 -7.9375 h -1.322916 -1.322917 l -0.02252,3.63802 -0.02252,3.63803 -1.227156,-3.63803 -1.227159,-3.63802 h -1.263856 -1.263854 v 7.9375 7.9375 h 1.190625 1.190625 l 0.02088,-3.9026 z m 12.943696,0.7276 v -3.175 h 1.45521 1.45521 v -1.71979 -1.71979 h -1.45521 -1.45521 v -1.32292 -1.32291 h 1.71979 1.71979 v -1.71979 -1.7198 h -3.175 -3.175 v 7.9375 7.9375 h 1.45521 1.45521 z m 13.61307,2.57969 c 0.0712,-0.32742 0.16274,-0.89297 0.20348,-1.25677 0.0658,-0.58794 0.21254,-0.67037 1.31987,-0.74165 l 1.24579,-0.0802 0.17736,1.33697 0.17735,1.33696 h 1.42616 c 1.34356,0 1.41816,-0.0345 1.28793,-0.59531 -0.14377,-0.61915 -2.78226,-15.01999 -2.78226,-15.18555 0,-0.10485 -2.90435,-0.13269 -2.92083,-0.028 -0.006,0.0364 -0.64977,3.45943 -1.43121,7.60677 -1.16827,6.20041 -1.42505,7.24672 -1.44479,5.88698 l -0.024,-1.65365 h -1.85209 -1.85208 v -5.95312 -5.95313 h -1.32292 -1.32291 v 7.9375 7.9375 h 4.49287 c 4.44455,0 4.49427,-0.006 4.62228,-0.59531 z m 1.07368,-7.09806 c 0.33454,-2.88246 0.54574,-3.24285 0.76327,-1.30246 0.10604,0.94589 0.25794,1.98768 0.33757,2.3151 0.12315,0.50639 0.0378,0.59532 -0.57135,0.59532 h -0.71611 z m 7.56966,3.12931 0.0314,-4.56406 0.60808,4.49792 c 0.33444,2.47385 0.61796,4.53486 0.63004,4.58003 0.0121,0.0452 0.46845,0.0452 1.01415,0 l 0.99219,-0.0821 0.56256,-4.36562 0.56256,-4.36563 0.0327,4.43177 0.0328,4.43177 h 1.19062 1.19063 v -7.94959 -7.94958 l -1.78594,0.0782 -1.78594,0.0782 -0.52212,4.23333 -0.52212,4.23333 -0.52038,-4.29948 -0.52038,-4.29948 h -1.66948 -1.66948 v 7.9375 7.9375 h 1.05834 1.05833 z m 10.32035,0.52917 c 0.0349,-4.2718 0.0787,-4.18894 0.76925,1.45521 l 0.3156,2.57968 h 1.01236 c 1.16055,0 0.9504,0.68705 1.82091,-5.95312 l 0.4856,-3.70417 0.0306,4.82865 0.0306,4.82864 h 1.05833 1.05833 v -7.9375 -7.9375 h -1.68369 -1.6837 l -0.43365,3.24115 c -0.23851,1.78263 -0.43696,3.5388 -0.44101,3.9026 -0.0167,1.49972 -0.46054,-0.25063 -0.77153,-3.0427 -0.4919,-4.41618 -0.31584,-4.10105 -2.29114,-4.10105 h -1.69111 v 7.9375 7.9375 h 1.19062 1.19063 z m 9.85439,3.43958 c 0.0877,-0.32742 0.16117,-0.92273 0.16315,-1.32292 0.003,-0.69438 0.0629,-0.7276 1.3017,-0.7276 h 1.29809 l 0.18195,1.32292 0.18195,1.32291 h 1.44821 c 1.25625,0 1.42963,-0.0614 1.30805,-0.46302 -0.13929,-0.46016 -2.80592,-14.95929 -2.80592,-15.25649 0,-0.0855 -0.64682,-0.15549 -1.43738,-0.15549 -1.14144,0 -1.46499,0.0953 -1.57151,0.46302 -0.14285,0.49313 -2.81194,14.96417 -2.81194,15.24555 0,0.0915 0.58143,0.16643 1.29206,0.16643 1.11625,0 1.31376,-0.081 1.45159,-0.59531 z m 1.0738,-7.09557 c 0.29201,-2.58105 0.56508,-2.98977 0.77936,-1.16655 0.10079,0.85761 0.25175,1.83215 0.33545,2.16565 0.13089,0.5215 0.0508,0.60637 -0.57213,0.60637 h -0.72431 z m 11.09259,7.39589 c 1.74872,-0.79677 2.25663,-5.38672 0.82888,-7.49062 -0.55906,-0.82383 -0.57106,-0.91886 -0.16698,-1.32293 0.33879,-0.3388 0.43535,-0.95711 0.43535,-2.78775 0,-1.97861 -0.0885,-2.4711 -0.55698,-3.09941 -0.54276,-0.72792 -0.62895,-0.74892 -3.37344,-0.8221 l -2.81645,-0.0751 v 7.94645 7.94645 h 2.50109 c 1.3756,0 2.79244,-0.13274 3.14853,-0.29499 z m -3.00379,-4.73209 c 0,-1.513 0.0307,-1.5875 0.65536,-1.5875 1.35825,0 1.86716,2.26841 0.65451,2.9174 -1.08216,0.57915 -1.30987,0.34796 -1.30987,-1.3299 z m 0,-6.08542 c 0,-1.32543 0.0175,-1.35605 0.7276,-1.27434 0.67356,0.0775 0.72761,0.17216 0.72761,1.27434 0,1.10218 -0.0541,1.19685 -0.72761,1.27435 -0.71012,0.0817 -0.7276,0.0511 -0.7276,-1.27435 z m 12.17083,9.12813 v -1.98438 h -1.98437 -1.98438 v -5.95312 -5.95313 h -1.32291 -1.32292 v 7.9375 7.9375 h 3.30729 3.30729 z m 7.40834,0.13229 v -1.85208 h -1.98438 -1.98437 v -1.45521 -1.45521 h 1.85208 1.85208 v -1.71979 -1.71979 h -1.85208 -1.85208 v -1.19063 -1.19062 h 1.98437 1.98438 v -1.71979 -1.7198 h -3.3073 -3.30729 v 7.9375 7.9375 h 3.30729 3.3073 z m -74.6125,-3.96875 v -1.85208 h -1.7198 -1.71979 v 1.85208 1.85208 h 1.71979 1.7198 z m 14.78096,-22.493 c 12.71345,-2.4755 23.20721,-4.55768 23.31949,-4.62707 0.11228,-0.0694 0.28026,-0.53193 0.3733,-1.02787 l 0.16916,-0.9017 4.55719,-0.87072 c 2.50645,-0.47891 4.65147,-0.99719 4.7667,-1.15175 0.36922,-0.49523 0.0669,-3.67339 -0.41884,-4.40346 l -0.45436,-0.68287 -4.68796,0.90316 c -3.08534,0.5944 -4.72019,0.80644 -4.78225,0.62026 -0.0519,-0.1556 -0.29814,-0.53463 -0.54727,-0.8423 l -0.45298,-0.5594 -21.94959,4.26789 c -12.07228,2.34734 -22.634206,4.39891 -23.470951,4.55903 l -1.521354,0.29115 0.0046,2.0161 c 0.0069,3.03691 0.92773,6.91112 1.642504,6.91067 0.185502,-1.2e-4 10.739191,-2.02562 23.452631,-4.50112 z"
         id="path134"
         inkscape:connector-curvature="0" />
    </g>
  </g>
</svg>
