<?xml version="1.0" encoding="UTF-8" standalone="no"?>
<!-- Created with Inkscape (http://www.inkscape.org/) -->

<svg
   xmlns:dc="http://purl.org/dc/elements/1.1/"
   xmlns:cc="http://creativecommons.org/ns#"
   xmlns:rdf="http://www.w3.org/1999/02/22-rdf-syntax-ns#"
   xmlns:svg="http://www.w3.org/2000/svg"
   xmlns="http://www.w3.org/2000/svg"
   xmlns:sodipodi="http://sodipodi.sourceforge.net/DTD/sodipodi-0.dtd"
   xmlns:inkscape="http://www.inkscape.org/namespaces/inkscape"
   width="270.93332mm"
   height="270.93332mm"
   viewBox="0 0 270.93332 270.93332"
   version="1.1"
   id="svg304"
   inkscape:version="0.92.4 (5da689c313, 2019-01-14)"
   sodipodi:docname="Class_7_Radioactive.svg">
  <defs
     id="defs298" />
  <sodipodi:namedview
     id="base"
     pagecolor="#ffffff"
     bordercolor="#666666"
     borderopacity="1.0"
     inkscape:pageopacity="0.0"
     inkscape:pageshadow="2"
     inkscape:zoom="0.35"
     inkscape:cx="288.57146"
     inkscape:cy="348.57135"
     inkscape:document-units="mm"
     inkscape:current-layer="layer1"
     showgrid="false"
     inkscape:window-width="1920"
     inkscape:window-height="1017"
     inkscape:window-x="-8"
     inkscape:window-y="-8"
     inkscape:window-maximized="1" />
  <metadata
     id="metadata301">
    <rdf:RDF>
      <cc:Work
         rdf:about="">
        <dc:format>image/svg+xml</dc:format>
        <dc:type
           rdf:resource="http://purl.org/dc/dcmitype/StillImage" />
        <dc:title></dc:title>
      </cc:Work>
    </rdf:RDF>
  </metadata>
  <g
     inkscape:label="Layer 1"
     inkscape:groupmode="layer"
     id="layer1"
     transform="translate(-29.482133,29.873821)">
    <g
       id="g317"
       transform="matrix(1.7066667,0,0,1.7066667,-24.704524,-167.76842)">
      <path
         style="fill:#fefefe;stroke-width:0.26458332"
         d="M 31.749994,160.17261 V 80.797615 h 79.374996 79.375 v 79.374995 79.375 h -79.375 -79.374996 z"
         id="path333"
         inkscape:connector-curvature="0" />
      <path
         style="fill:#cfcfcf;stroke-width:0.26458332"
         d="m 71.437383,199.72771 -39.554655,-39.55532 39.621134,-39.62113 39.621128,-39.621132 39.62114,39.621132 39.62113,39.62113 -39.55465,39.55532 c -21.75507,21.75543 -39.61449,39.55532 -39.68762,39.55532 -0.0731,0 -17.932547,-17.79989 -39.687607,-39.55532 z m 78.846057,-0.52916 39.02548,-39.02616 -39.09196,-39.09196 -39.09197,-39.091966 -39.091959,39.091966 -39.091964,39.09196 39.025483,39.02616 c 21.464013,21.46438 39.08531,39.02615 39.15844,39.02615 0.0731,0 17.69444,-17.56177 39.15845,-39.02615 z m -73.945413,-4.23099 -34.591621,-34.79047 34.59019,-34.79495 c 19.024605,-19.13722 34.679184,-34.794942 34.787964,-34.794942 0.10877,0 15.76421,15.657282 34.78985,34.793952 l 34.59209,34.79395 -34.59254,34.79146 c -19.0259,19.13531 -34.68069,34.79147 -34.78843,34.79147 -0.10773,0 -15.762112,-15.65571 -34.787503,-34.79047 z m 58.349963,9.3226 c 12.88689,-12.98678 27.99997,-28.23276 33.58461,-33.87995 l 10.15391,-10.26761 -5.27172,-5.27666 -5.27171,-5.27666 H 111.12499 54.366907 l -5.271857,5.27681 -5.271857,5.2768 10.286762,10.39976 c 24.765127,25.03716 56.893735,57.36017 57.015035,57.36002 0.0728,-9e-5 10.67611,-10.62572 23.563,-23.61251 z m -26.47156,15.21527 c 0.003,-1.14608 0.95792,-4.8176 1.6689,-6.41615 0.35598,-0.80036 1.19725,-2.27465 1.86949,-3.27618 0.67224,-1.00154 1.22226,-1.86474 1.22226,-1.91823 0,-0.0535 -1.72641,-0.0973 -3.83646,-0.0973 h -3.83646 v -1.98437 -1.98438 h 6.61458 6.61459 v 1.67368 c 0,1.4583 -0.088,1.75621 -0.68417,2.3151 -1.0652,0.99866 -2.87925,3.90316 -3.63729,5.82369 -0.51821,1.31293 -1.49938,5.56253 -1.49938,6.49407 0,0.0537 -1.01203,0.0976 -2.24895,0.0976 h -2.24896 l 0.002,-0.7276 z m 14.02106,-45.04846 c -2.8816,-0.68065 -4.64031,-6.66253 -3.98676,-13.5601 0.53083,-5.6025 2.12437,-8.13259 5.12217,-8.13259 2.06653,0 3.4851,1.6704 4.26777,5.0254 l 0.37383,1.60248 -1.29221,0.65481 c -0.71071,0.36015 -1.40197,0.65481 -1.53614,0.65481 -0.13416,0 -0.32052,-0.40822 -0.41412,-0.90716 -0.40951,-2.1829 -1.93538,-2.58583 -2.73036,-0.72099 -0.53345,1.25137 -0.74373,5.78562 -0.36284,7.82419 0.64426,3.44819 2.47183,3.42096 3.21577,-0.0479 0.16344,-0.76209 0.34821,-1.38562 0.4106,-1.38562 0.0624,0 0.7121,0.38695 1.44379,0.8599 1.32396,0.85576 1.32958,0.86536 1.16935,1.99764 -0.66696,4.71321 -2.64713,6.85173 -5.68085,6.13515 z m -22.546777,-0.40808 c -0.842756,-0.4574 -1.954554,-2.24997 -2.495288,-4.02319 -0.929616,-3.04848 -0.916485,-9.795 0.02514,-12.91918 1.750375,-5.80747 7.199285,-5.80747 9.045685,0 0.65784,2.06912 0.81415,9.33708 0.25474,11.84522 -0.52251,2.3427 -1.73465,4.55834 -2.79329,5.10578 -0.98086,0.50723 -3.09485,0.50271 -4.036993,-0.009 z m 3.356817,-5.80648 c 0.43303,-0.87881 0.52279,-1.61935 0.52916,-4.36563 0.009,-3.66513 -0.31759,-5.05919 -1.34017,-5.72921 -0.75034,-0.49164 -1.20538,-0.23566 -1.87174,1.05293 -0.909694,1.75917 -0.696541,8.07329 0.32518,9.63264 0.65058,0.99291 1.70776,0.72801 2.35757,-0.59073 z M 59.002077,163.6122 v -10.58334 l 3.108855,5.3e-4 c 4.902057,5.3e-4 5.833477,0.80647 6.087797,5.26687 0.154342,2.70695 -0.341992,4.82014 -1.400354,5.96213 -0.595911,0.643 -0.634916,0.78992 -0.310394,1.16915 0.517594,0.60485 0.670401,1.05445 1.609897,4.73675 l 0.827844,3.24468 1.419527,-8.00718 c 0.78074,-4.40395 1.599375,-8.98945 1.819188,-10.18999 l 0.399661,-2.18282 h 1.817947 c 0.999873,0 1.818116,0.0893 1.818319,0.19844 2.65e-4,0.21222 3.340272,19.01953 3.59441,20.24063 l 0.151432,0.7276 H 78.22322 c -1.913223,0 -1.843074,0.0716 -2.151311,-2.19497 l -0.172569,-1.26893 -1.632953,0.0783 c -1.211148,0.0581 -1.646383,0.18081 -1.68494,0.47517 -0.02859,0.21829 -0.126384,0.96243 -0.217308,1.65365 l -0.16532,1.25677 H 68.77545 c -1.882855,0 -3.423817,-0.0298 -3.42436,-0.0661 -5.29e-4,-0.0364 -0.468754,-1.84008 -1.040474,-4.00824 -1.435282,-5.44307 -1.717857,-5.46644 -1.809363,-0.14964 l -0.0727,4.22391 h -1.713238 -1.713238 z m 16.133869,1.91823 c -0.0096,-0.7743 -0.693669,-5.08706 -0.828292,-5.22168 -0.06927,-0.0693 -0.302342,1.18145 -0.517945,2.77938 l -0.392007,2.90532 h 0.871979 c 0.656244,0 0.870567,-0.11456 0.866265,-0.46302 z m -10.72881,-4.45067 c 0.498894,-0.49889 0.567754,-2.766 0.09828,-3.23548 -0.174625,-0.17462 -0.710407,-0.3175 -1.190625,-0.3175 h -0.873125 v 1.98438 1.98437 h 0.77485 c 0.42617,0 0.961951,-0.1871 1.190625,-0.41577 z m 16.290775,2.53244 v -10.58334 h 2.628609 c 2.965442,0 3.63941,0.18061 4.628613,1.24037 1.29287,1.38509 1.801942,3.66992 1.934292,8.68151 0.132987,5.03582 -0.207296,7.27246 -1.421718,9.34471 -0.915908,1.56288 -1.82373,1.90008 -5.115465,1.90008 h -2.654331 z m 5.130083,5.15087 c 0.589243,-0.58925 0.823457,-2.02284 0.819906,-5.01858 -0.005,-4.20443 -0.556392,-5.68854 -2.113531,-5.68854 h -0.661458 v 5.55625 5.55625 h 0.77485 c 0.42617,0 0.957274,-0.18242 1.180233,-0.40538 z m 5.717833,-5.15087 v -10.58334 h 1.719792 1.719792 v 10.58334 10.58333 h -1.719792 -1.719792 z m 15.455773,9.85573 c 0.27811,-1.33145 3.59423,-19.97811 3.59423,-20.2105 0,-0.12571 0.83343,-0.22857 1.85208,-0.22857 1.01865,0 1.85208,0.0803 1.85208,0.17853 0,0.1761 3.31857,18.84874 3.60077,20.26054 l 0.14545,0.7276 h -1.72883 -1.72882 l -0.16212,-0.99219 c -0.43376,-2.6548 -0.26582,-2.44739 -1.98172,-2.44739 -1.71578,0 -1.67203,-0.0483 -1.97515,2.18281 l -0.17075,1.25677 h -1.7246 -1.7246 z m 6.24181,-7.9375 c 0.003,-0.85272 -0.61175,-4.69393 -0.78357,-4.89432 -0.0934,-0.10888 -0.35009,1.05197 -0.57052,2.57968 l -0.40078,2.77766 h 0.87656 c 0.65776,0 0.877,-0.11557 0.87831,-0.46302 z m 18.51908,0.85989 v -7.80521 h -1.5875 -1.5875 v -2.77812 -2.77813 h 4.7625 4.7625 v 2.77813 2.77812 h -1.5875 -1.5875 v 7.80521 7.80521 h -1.5875 -1.5875 z m 7.67292,-2.77812 v -10.58334 h 1.71979 1.71979 v 10.58334 10.58333 h -1.71979 -1.71979 z m 6.25232,0.46302 c -0.98629,-5.56617 -1.85387,-10.33434 -1.92795,-10.59592 -0.12162,-0.42947 0.0396,-0.46797 1.66161,-0.39688 l 1.7963,0.0787 0.59007,3.96875 c 0.32453,2.18281 0.79807,5.33797 1.05231,7.01145 l 0.46224,3.04271 0.71996,-4.84409 c 0.39597,-2.66426 0.86262,-5.84918 1.037,-7.07761 l 0.31705,-2.23351 h 1.69246 c 0.93086,0 1.69246,0.0583 1.69246,0.12947 0,0.20045 -3.15364,18.08125 -3.46535,19.64814 l -0.27633,1.38906 h -1.77928 -1.77927 z m 9.88726,-0.46302 v -10.58334 h 4.23334 4.23333 v 2.38125 2.38125 h -2.64583 -2.64584 v 1.5875 1.5875 h 2.38125 2.38125 v 2.24896 2.24896 h -2.38125 -2.38125 v 1.85208 1.85209 h 2.64584 2.64583 v 2.51354 2.51354 h -4.23333 -4.23334 z"
         id="path331"
         inkscape:connector-curvature="0" />
      <path
         style="fill:#a6a6a6;stroke-width:0.26458332"
         d="m 71.437383,199.72771 -39.554655,-39.55532 39.621134,-39.62113 39.621128,-39.621132 39.62114,39.621132 39.62113,39.62113 -39.55465,39.55532 c -21.75507,21.75543 -39.61449,39.55532 -39.68762,39.55532 -0.0731,0 -17.932547,-17.79989 -39.687607,-39.55532 z m 78.912427,-78.77924 -39.09185,-39.092524 -39.22482,39.224144 -39.224813,39.22415 39.091854,39.09252 39.091849,39.09252 39.22482,-39.22414 39.22481,-39.22415 z M 76.496163,195.05936 C 57.561083,175.9751 42.068744,160.27683 42.068744,160.17433 c 0,-0.25371 68.803856,-69.587132 69.055636,-69.587132 0.25284,0 69.05686,69.330712 69.05686,69.585502 0,0.2556 -68.80259,69.58533 -69.05625,69.58533 -0.11077,0 -15.693743,-15.6144 -34.628827,-34.69867 z m 63.884937,3.54398 c 15.999,-16.11643 31.099,-31.35339 33.55554,-33.8599 l 4.46645,-4.5573 -5.1302,-5.28154 -5.13019,-5.28153 H 111.12499 54.107286 l -5.130457,5.28181 -5.130457,5.2818 4.599563,4.68932 c 10.980177,11.19445 62.526795,63.02995 62.678675,63.02995 0.0921,0 13.25749,-13.18617 29.25649,-29.30261 z m -32.16652,21.00216 c 0,-1.14305 1.25904,-5.61383 1.99072,-7.06892 0.39594,-0.78742 1.23711,-2.17581 1.86927,-3.08532 l 1.14937,-1.65365 h -3.8276 -3.8276 v -1.98437 -1.98438 h 6.4823 6.48229 v 1.61655 c 0,1.56003 -0.0441,1.66483 -1.26175,2.9971 -2.17753,2.38257 -3.65512,5.73681 -4.30685,9.77689 l -0.32484,2.01363 h -2.21266 c -2.15188,0 -2.21265,-0.0172 -2.21265,-0.62753 z m -9.132001,-46.27026 c -1.720162,-1.72016 -2.297668,-3.80186 -2.440474,-8.797 -0.170733,-5.97207 0.850386,-9.67714 3.078786,-11.1712 1.682339,-1.12794 3.948379,-0.60035 5.272529,1.22759 1.34589,1.85795 1.76595,4.0344 1.76595,9.14986 0,3.98238 -0.0712,4.72476 -0.62144,6.47708 -0.48126,1.53274 -0.87626,2.23399 -1.75112,3.10886 -1.0685,1.0685 -1.21228,1.12968 -2.65452,1.12968 -1.44123,0 -1.58651,-0.0617 -2.649711,-1.12487 z m 3.959681,-4.96054 c 0.47651,-0.81398 0.54211,-1.37428 0.54211,-4.63021 0,-3.07042 -0.0836,-3.87226 -0.48855,-4.68663 -0.92051,-1.85111 -2.29119,-1.55381 -2.94213,0.63816 -0.447139,1.50566 -0.540354,5.79574 -0.1614,7.42788 0.5707,2.45798 2.00013,3.04419 3.04997,1.2508 z m 18.18986,5.55113 c -1.11844,-0.6819 -2.28568,-3.10194 -2.71027,-5.61917 -0.4261,-2.5262 -0.19658,-9.3974 0.37413,-11.20014 1.10105,-3.47804 3.64258,-5.15789 5.97712,-3.95065 1.10975,0.57387 1.79678,1.58174 2.39212,3.50924 0.78345,2.53653 0.73367,2.75045 -0.79657,3.42266 -1.42081,0.62415 -1.43713,0.61824 -1.7015,-0.61532 -0.21229,-0.99059 -0.9838,-1.76282 -1.63575,-1.63726 -0.25761,0.0496 -0.71295,0.50653 -1.01187,1.01537 -0.48299,0.82219 -0.54349,1.36696 -0.54349,4.89393 0,3.3024 0.0789,4.11313 0.46981,4.82865 0.53592,0.98088 1.437,1.14734 2.12077,0.39177 0.233,-0.25746 0.57888,-1.15254 0.76861,-1.98907 l 0.34497,-1.52095 1.382,0.933 c 1.56622,1.05739 1.56093,1.01651 0.57434,4.43248 -0.36627,1.26817 -0.78365,2.05254 -1.44308,2.71198 -0.82393,0.82393 -1.08225,0.92765 -2.30801,0.92678 -0.91585,-5.3e-4 -1.67401,-0.18009 -2.25333,-0.5333 z m -62.166932,-10.24749 0.06918,-10.51718 2.797548,-0.0746 c 3.806214,-0.10152 4.673664,0.20034 5.536745,1.92671 0.566174,1.13248 0.66139,1.68474 0.661458,3.83646 9e-5,2.72294 -0.34394,4.08006 -1.331939,5.25423 l -0.625088,0.74288 0.629668,1.24375 c 0.346319,0.68407 0.954683,2.63871 1.351921,4.34364 0.397237,1.70493 0.76029,2.98081 0.806783,2.83529 0.04649,-0.14552 0.870318,-4.66699 1.830721,-10.04771 0.960403,-5.38071 1.803172,-9.87532 1.872821,-9.98802 0.217977,-0.35269 3.273978,-0.23993 3.410059,0.12583 0.06767,0.18191 0.897363,4.67651 1.843751,9.98802 0.946388,5.31152 1.782519,9.92519 1.858066,10.25261 0.131537,0.57008 0.06495,0.59531 -1.571263,0.59531 h -1.708618 l -0.170746,-1.25677 c -0.305216,-2.24657 -0.243949,-2.18281 -2.097643,-2.18281 h -1.67114 l -0.184174,1.71979 -0.184174,1.71979 h -3.384563 -3.384563 l -0.83797,-3.24114 c -1.034061,-3.99959 -1.392619,-5.02037 -1.812624,-5.16037 -0.251547,-0.0838 -0.327744,0.88008 -0.327744,4.14613 v 4.25538 h -1.722827 -1.722829 z m 15.811434,-0.59828 c -0.245552,-1.60236 -0.503999,-2.97093 -0.574331,-3.04126 -0.07033,-0.0703 -0.272962,0.98109 -0.450292,2.33649 -0.177329,1.3554 -0.390305,2.72397 -0.473278,3.04126 -0.136263,0.52108 -0.04949,0.5769 0.896749,0.5769 h 1.047608 z m -10.306595,-1.9955 c 0.441002,-0.53138 0.441002,-2.61543 0,-3.14681 -0.187592,-0.22603 -0.743217,-0.41097 -1.23472,-0.41097 h -0.893646 v 1.98438 1.98437 h 0.893646 c 0.491503,0 1.047128,-0.18494 1.23472,-0.41097 z m 16.127884,2.50423 v -10.60674 l 2.891962,0.0896 c 2.430126,0.0753 3.011106,0.17781 3.63802,0.64216 1.833108,1.35778 2.733273,4.6998 2.725841,10.12015 -0.0073,5.33688 -0.922499,8.43837 -2.878804,9.75607 -0.792975,0.53412 -1.222118,0.60555 -3.638021,0.60555 h -2.738998 z m 5.535991,4.65362 c 0.507793,-1.05965 0.701534,-5.9775 0.307808,-7.81337 -0.366194,-1.70751 -0.903589,-2.37309 -1.916057,-2.37309 h -0.752742 v 5.57222 5.57222 l 0.990309,-0.0821 c 0.800518,-0.0664 1.063204,-0.23424 1.370682,-0.87587 z m 5.311925,-4.63021 v -10.58334 h 1.5875 1.5875 v 10.58334 10.58333 h -1.5875 -1.5875 z m 15.476293,9.98802 c 0.0773,-0.32742 0.91452,-4.94109 1.8605,-10.25261 0.94597,-5.31151 1.77423,-9.80611 1.84057,-9.98802 0.13482,-0.36967 3.19069,-0.47684 3.41145,-0.11964 0.0717,0.1161 0.91281,4.61071 1.86902,9.98802 0.95621,5.37732 1.79976,10.04483 1.87457,10.37225 0.13022,0.56994 0.0632,0.59531 -1.57261,0.59531 H 114.597 l -0.17074,-1.25677 c -0.30522,-2.24657 -0.24395,-2.18281 -2.09765,-2.18281 h -1.67114 l -0.18417,1.71979 -0.18418,1.71979 h -1.70377 c -1.63213,0 -1.69786,-0.025 -1.56323,-0.59531 z m 5.97199,-10.49737 c -0.22765,-1.58983 -0.48271,-2.9584 -0.5668,-3.04126 -0.0841,-0.0829 -0.29949,1.00954 -0.47867,2.42758 -0.17918,1.41803 -0.38629,2.7866 -0.46025,3.04126 -0.11168,0.38454 0.0396,0.46302 0.89258,0.46302 h 1.02704 z m 18.76838,3.15518 v -7.9375 h -1.5875 -1.5875 v -2.64583 -2.64584 h 4.7625 4.7625 v 2.64584 2.64583 h -1.5875 -1.5875 v 7.9375 7.9375 h -1.5875 -1.5875 z m 7.67292,-2.64583 v -10.58334 h 1.5875 1.5875 v 10.58334 10.58333 h -1.5875 -1.5875 z m 8.07455,10.2526 c -0.19997,-0.59625 -3.57663,-19.77065 -3.57663,-20.30996 0,-0.46568 0.17955,-0.52598 1.56647,-0.52598 1.85988,0 1.51646,-0.95329 2.80681,7.79145 0.51423,3.48494 0.96731,6.36859 1.00684,6.40813 0.0395,0.0395 0.52178,-3.04723 1.07164,-6.85948 0.54987,-3.81224 1.05661,-7.02332 1.12608,-7.13572 0.16248,-0.26292 2.939,-0.26826 3.08378,-0.006 0.0926,0.16781 -0.77379,5.27377 -3.1427,18.52083 l -0.43766,2.4474 h -1.69685 c -1.12194,0 -1.73444,-0.11206 -1.80778,-0.33073 z m 8.06503,-10.25932 v -10.59005 l 4.16719,0.0729 4.16719,0.0729 0.0764,2.3151 0.0764,2.3151 h -2.65613 -2.65614 v 1.5875 1.5875 h 2.38125 2.38125 v 2.11667 2.11667 h -2.38125 -2.38125 v 2.11666 2.11667 h 2.64584 2.64583 v 2.38125 2.38125 h -4.23333 -4.23334 z"
         id="path329"
         inkscape:connector-curvature="0" />
      <path
         style="fill:#fbd800;stroke-width:0.26458332"
         d="m 71.503309,199.79364 -39.488732,-39.48939 39.621685,-39.62103 39.621688,-39.621024 39.48873,39.489394 39.48873,39.48939 -39.62168,39.62103 -39.62169,39.62102 z m 78.846501,-78.84517 -39.09185,-39.092524 -39.22482,39.224144 -39.224813,39.22415 39.091854,39.09252 39.091849,39.09252 39.22482,-39.22414 39.22481,-39.22415 z M 76.58569,195.08125 C 57.674131,176.00902 42.201036,160.30071 42.201036,160.17388 c 0,-0.25317 68.673204,-69.586682 68.923954,-69.586682 0.25056,0 68.92396,69.333402 68.92396,69.586382 0,0.25351 -68.67155,69.58445 -68.92265,69.58445 -0.0858,0 -15.629048,-15.60455 -34.54061,-34.67678 z m 68.41742,-1.05868 33.68457,-33.88338 -5.27001,-5.27496 -5.27001,-5.27495 H 111.12499 54.102324 l -5.270007,5.27495 -5.270006,5.27496 33.684563,33.88338 c 18.526511,18.63586 33.771666,33.88338 33.878116,33.88338 0.10646,0 15.35161,-15.24752 33.87812,-33.88338 z m -36.66772,25.00416 c 0.51718,-3.4488 1.61918,-6.35203 3.44847,-9.08501 l 1.43513,-2.14411 h -3.82512 -3.82513 v -1.98437 -1.98438 h 6.4823 6.48229 v 1.70665 c 0,1.10582 -0.11992,1.78113 -0.34064,1.91823 -0.67234,0.41763 -2.52769,2.88515 -3.23823,4.30668 -1.05823,2.11716 -1.6446,3.97226 -2.00997,6.35902 l -0.32355,2.11359 h -2.23322 -2.23323 z m -8.484673,-45.05487 c -2.11528,-1.33025 -3.050947,-4.04131 -3.210155,-9.30133 -0.13108,-4.33075 0.250124,-6.82698 1.402146,-9.18163 0.899396,-1.8383 1.972582,-2.59233 3.689582,-2.59233 3.55153,0 5.37239,4.25234 5.09262,11.89302 -0.16234,4.43364 -0.779,6.68352 -2.30235,8.40012 -0.86659,0.97653 -1.10854,1.09647 -2.40604,1.19278 -1.10781,0.0822 -1.6336,-0.0131 -2.265803,-0.41063 z m 2.889823,-5.01265 c 0.70562,-0.77971 1.04803,-3.1006 0.92235,-6.25189 -0.12987,-3.25637 -0.5695,-4.5321 -1.65579,-4.80474 -1.46261,-0.36709 -2.057479,0.97424 -2.207656,4.97784 -0.165323,4.4074 0.467456,6.55261 1.932846,6.55261 0.31869,0 0.7724,-0.21322 1.00825,-0.47382 z m 18.51454,4.94749 c -2.04701,-1.31111 -3.0928,-5.33941 -2.91297,-11.22054 0.18398,-6.01739 1.36123,-8.9293 3.91992,-9.69591 2.28176,-0.68363 4.0587,0.64463 5.02777,3.75825 0.73259,2.35384 0.69109,2.52661 -0.78675,3.27549 -1.37838,0.69848 -1.61972,0.66024 -1.61972,-0.25667 0,-0.7572 -0.96571,-1.97596 -1.5657,-1.97596 -1.35409,0 -1.96555,2.22888 -1.82866,6.66568 0.11996,3.88792 0.44413,4.80122 1.74885,4.92708 0.76773,0.0741 0.90721,-0.0192 1.24767,-0.83401 0.21082,-0.50456 0.4598,-1.39576 0.55329,-1.98044 l 0.16999,-1.06305 1.28992,0.7937 c 0.70946,0.43653 1.33443,0.87349 1.38882,0.97102 0.0544,0.0975 -0.0728,1.01075 -0.2826,2.0294 -0.46251,2.24537 -1.43362,4.11588 -2.44789,4.71503 -1.03713,0.61265 -2.85444,0.56185 -3.90194,-0.10907 z m -62.127117,-0.0293 c -0.07277,-0.18962 -0.101089,-4.92834 -0.06295,-10.53049 l 0.06935,-10.18572 h 3.042708 c 3.786259,0 4.524285,0.26897 5.339977,1.94615 0.491548,1.01069 0.598064,1.67507 0.599993,3.74239 0.0026,2.72743 -0.33995,4.09086 -1.320305,5.25594 l -0.626525,0.74459 0.513781,1.03844 c 0.282577,0.57114 0.899512,2.525 1.370962,4.34192 0.471451,1.81692 0.909849,3.06536 0.974217,2.77432 0.06437,-0.29105 0.900533,-4.87495 1.858142,-10.18646 l 1.741107,-9.65729 h 1.719485 1.719484 l 1.769314,9.78958 c 0.973124,5.38427 1.776865,10.11701 1.786091,10.51719 0.01646,0.71395 -0.0127,0.7276 -1.554512,0.7276 h -1.571286 l -0.170746,-1.25677 c -0.305118,-2.24585 -0.244719,-2.18281 -2.091545,-2.18281 H 72.56967 l -0.235358,1.65364 -0.23536,1.65365 -3.338703,0.0738 -3.338703,0.0738 -0.976955,-3.90263 c -0.933104,-3.72746 -1.261256,-4.57933 -1.764025,-4.57933 -0.124007,0 -0.258257,1.87524 -0.298333,4.16719 l -0.07286,4.16719 -1.524556,0.0794 c -1.068586,0.0557 -1.564121,-0.0237 -1.65685,-0.26531 z m 16.20582,-8.22029 c -0.07099,-0.185 -0.278829,-1.46492 -0.46186,-2.84427 -0.183033,-1.37935 -0.413919,-2.66318 -0.513082,-2.85296 -0.09916,-0.18979 -0.329579,0.82225 -0.512035,2.24896 -0.182457,1.42671 -0.39538,2.8619 -0.473165,3.18933 -0.129614,0.54557 -0.04826,0.59531 0.973894,0.59531 0.793525,0 1.078082,-0.097 0.986248,-0.33637 z m -10.741705,-4.59909 c 0.468966,-0.56507 0.468966,-2.5286 0,-3.09367 -0.206621,-0.24896 -0.748287,-0.43754 -1.256771,-0.43754 h -0.893646 v 1.98438 1.98437 h 0.893646 c 0.508484,0 1.05015,-0.18858 1.256771,-0.43754 z m 16.168923,2.64384 0.0692,-10.54067 1.852084,-0.083 c 2.878029,-0.12893 4.072673,0.13397 5.050075,1.11138 1.34638,1.34638 1.988217,3.80035 2.153082,8.232 0.1642,4.41376 -0.187791,7.10934 -1.190416,9.11631 -1.108994,2.21988 -1.673048,2.50864 -5.10821,2.615 l -2.895021,0.0896 z m 5.420915,4.75028 c 0.397179,-0.60649 0.46912,-1.33389 0.46912,-4.74326 0,-3.67654 -0.04832,-4.0919 -0.555326,-4.77377 -0.363519,-0.48888 -0.843296,-0.77548 -1.389063,-0.82975 l -0.833736,-0.0829 v 5.57301 5.57302 h 0.919943 c 0.708162,0 1.027938,-0.16491 1.389062,-0.71634 z m 5.427022,-4.77377 0.06918,-10.51718 1.521354,-0.0794 1.521354,-0.0793 v 10.59654 10.59653 h -1.590534 -1.590538 z m 15.566532,9.78959 c 0.0106,-0.40018 0.81484,-5.13292 1.78725,-10.51719 l 1.768,-9.78958 1.65577,-0.0789 c 1.17614,-0.056 1.69116,0.0206 1.77796,0.26458 0.26996,0.7588 3.73024,20.60534 3.61302,20.72257 -0.0694,0.0693 -0.81022,0.12608 -1.64639,0.12608 h -1.5203 l -0.22154,-1.65364 -0.22154,-1.65365 -1.7539,-0.0775 -1.75389,-0.0775 -0.18539,1.73115 -0.1854,1.73115 h -1.56643 c -1.53712,0 -1.56609,-0.0136 -1.54722,-0.7276 z m 6.23689,-7.9375 c -0.0713,-0.25466 -0.27186,-1.53459 -0.44581,-2.84427 -0.17394,-1.30969 -0.3999,-2.53653 -0.50213,-2.72631 -0.10223,-0.18979 -0.33516,0.82225 -0.51761,2.24896 -0.18246,1.42671 -0.39538,2.8619 -0.47317,3.18933 -0.12945,0.54489 -0.0479,0.59531 0.96342,0.59531 0.92519,0 1.08378,-0.0753 0.9753,-0.46302 z m 18.35013,0.7276 v -7.9375 h -1.59708 -1.59708 l 0.0757,-2.57969 0.0757,-2.57968 4.69635,-0.0722 4.69635,-0.0723 v 2.65194 2.65194 h -1.5875 -1.5875 v 7.9375 7.9375 h -1.5875 -1.5875 z m 7.73603,-2.57969 0.0692,-10.51718 1.52136,-0.0794 1.52135,-0.0793 v 10.59654 10.59653 h -1.59053 -1.59054 z m 8.03741,10.05417 c -0.21826,-0.73643 -3.6026,-19.76952 -3.6026,-20.26054 0,-0.36481 0.27838,-0.44311 1.57551,-0.44311 1.57099,0 1.57593,0.002 1.72233,0.8599 0.0807,0.47294 0.57128,3.71636 1.09006,7.20758 0.51878,3.49123 0.96805,6.3725 0.99838,6.40283 0.0303,0.0303 0.52746,-3.18332 1.10474,-7.14143 l 1.0496,-7.19658 1.2893,-0.082 c 0.70912,-0.0451 1.43333,-0.0267 1.60937,0.0408 0.23551,0.0904 -0.15582,2.80314 -1.48129,10.26843 -0.99074,5.58008 -1.80426,10.29443 -1.8078,10.47633 -0.004,0.22964 -0.52667,0.33073 -1.70841,0.33073 -1.39225,0 -1.72694,-0.0842 -1.83919,-0.46302 z m 8.10218,-10.05417 0.0692,-10.51718 h 4.10104 4.10104 v 2.24895 2.24896 l -2.57969,0.0757 -2.57969,0.0757 v 1.57792 1.57791 h 2.38125 2.38125 v 2.11667 2.11667 h -2.38125 -2.38125 v 2.11666 2.11667 h 2.64584 2.64583 v 2.38125 2.38125 h -4.23637 -4.23637 z"
         id="path327"
         inkscape:connector-curvature="0" />
      <path
         style="fill:#696969;stroke-width:0.26458332"
         d="m 71.503309,199.79364 -39.488732,-39.48939 39.621685,-39.62103 39.621688,-39.621024 39.48873,39.489394 39.48873,39.48939 -39.62168,39.62103 -39.62169,39.62102 z m 78.846501,-78.84517 -39.09185,-39.092524 -39.22482,39.224144 -39.224813,39.22415 39.091854,39.09252 39.091849,39.09252 39.22482,-39.22414 39.22481,-39.22415 z M 76.58569,195.08125 C 57.674131,176.00902 42.201036,160.30071 42.201036,160.17388 c 0,-0.25317 68.673204,-69.586682 68.923954,-69.586682 0.25056,0 68.92396,69.333402 68.92396,69.586382 0,0.25351 -68.67155,69.58445 -68.92265,69.58445 -0.0858,0 -15.629048,-15.60455 -34.54061,-34.67678 z m 68.39656,-1.0377 33.6637,-33.86239 -33.69032,-33.87094 c -18.52968,-18.62901 -33.75346,-33.870938 -33.83064,-33.870938 -0.0772,0 -15.300956,15.241928 -33.830634,33.870938 l -33.69032,33.87094 33.6637,33.86239 c 18.515036,18.62432 33.750804,33.8624 33.857254,33.8624 0.10646,0 15.34223,-15.23808 33.85726,-33.8624 z m -36.64686,24.98318 c 0.51718,-3.4488 1.61918,-6.35203 3.44847,-9.08501 l 1.43513,-2.14411 h -3.82512 -3.82513 v -1.98437 -1.98438 h 6.4823 6.48229 v 1.70665 c 0,1.10582 -0.11992,1.78113 -0.34064,1.91823 -0.67234,0.41763 -2.52769,2.88515 -3.23823,4.30668 -1.05823,2.11716 -1.6446,3.97226 -2.00997,6.35902 l -0.32355,2.11359 h -2.23322 -2.23323 z m -8.484673,-45.05487 c -2.11528,-1.33025 -3.050947,-4.04131 -3.210155,-9.30133 -0.13108,-4.33075 0.250124,-6.82698 1.402146,-9.18163 0.899396,-1.8383 1.972582,-2.59233 3.689582,-2.59233 3.55153,0 5.37239,4.25234 5.09262,11.89302 -0.16234,4.43364 -0.779,6.68352 -2.30235,8.40012 -0.86659,0.97653 -1.10854,1.09647 -2.40604,1.19278 -1.10781,0.0822 -1.6336,-0.0131 -2.265803,-0.41063 z m 2.889823,-5.01265 c 0.70562,-0.77971 1.04803,-3.1006 0.92235,-6.25189 -0.12987,-3.25637 -0.5695,-4.5321 -1.65579,-4.80474 -1.46261,-0.36709 -2.057479,0.97424 -2.207656,4.97784 -0.165323,4.4074 0.467456,6.55261 1.932846,6.55261 0.31869,0 0.7724,-0.21322 1.00825,-0.47382 z m 18.51454,4.94749 c -2.04701,-1.31111 -3.0928,-5.33941 -2.91297,-11.22054 0.18398,-6.01739 1.36123,-8.9293 3.91992,-9.69591 2.28176,-0.68363 4.0587,0.64463 5.02777,3.75825 0.73259,2.35384 0.69109,2.52661 -0.78675,3.27549 -1.37838,0.69848 -1.61972,0.66024 -1.61972,-0.25667 0,-0.7572 -0.96571,-1.97596 -1.5657,-1.97596 -1.35409,0 -1.96555,2.22888 -1.82866,6.66568 0.11996,3.88792 0.44413,4.80122 1.74885,4.92708 0.76773,0.0741 0.90721,-0.0192 1.24767,-0.83401 0.21082,-0.50456 0.4598,-1.39576 0.55329,-1.98044 l 0.16999,-1.06305 1.28992,0.7937 c 0.70946,0.43653 1.33443,0.87349 1.38882,0.97102 0.0544,0.0975 -0.0728,1.01075 -0.2826,2.0294 -0.46251,2.24537 -1.43362,4.11588 -2.44789,4.71503 -1.03713,0.61265 -2.85444,0.56185 -3.90194,-0.10907 z m -62.127117,-0.0293 c -0.07277,-0.18962 -0.101089,-4.92834 -0.06295,-10.53049 l 0.06935,-10.18572 h 3.042708 c 3.786259,0 4.524285,0.26897 5.339977,1.94615 0.491548,1.01069 0.598064,1.67507 0.599993,3.74239 0.0026,2.72743 -0.33995,4.09086 -1.320305,5.25594 l -0.626525,0.74459 0.513781,1.03844 c 0.282577,0.57114 0.899512,2.525 1.370962,4.34192 0.471451,1.81692 0.909849,3.06536 0.974217,2.77432 0.06437,-0.29105 0.900533,-4.87495 1.858142,-10.18646 l 1.741107,-9.65729 h 1.719485 1.719484 l 1.769314,9.78958 c 0.973124,5.38427 1.776865,10.11701 1.786091,10.51719 0.01646,0.71395 -0.0127,0.7276 -1.554512,0.7276 h -1.571286 l -0.170746,-1.25677 c -0.305118,-2.24585 -0.244719,-2.18281 -2.091545,-2.18281 H 72.56967 l -0.235358,1.65364 -0.23536,1.65365 -3.338703,0.0738 -3.338703,0.0738 -0.976955,-3.90263 c -0.933104,-3.72746 -1.261256,-4.57933 -1.764025,-4.57933 -0.124007,0 -0.258257,1.87524 -0.298333,4.16719 l -0.07286,4.16719 -1.524556,0.0794 c -1.068586,0.0557 -1.564121,-0.0237 -1.65685,-0.26531 z m 16.20582,-8.22029 c -0.07099,-0.185 -0.278829,-1.46492 -0.46186,-2.84427 -0.183033,-1.37935 -0.413919,-2.66318 -0.513082,-2.85296 -0.09916,-0.18979 -0.329579,0.82225 -0.512035,2.24896 -0.182457,1.42671 -0.39538,2.8619 -0.473165,3.18933 -0.129614,0.54557 -0.04826,0.59531 0.973894,0.59531 0.793525,0 1.078082,-0.097 0.986248,-0.33637 z m -10.741705,-4.59909 c 0.468966,-0.56507 0.468966,-2.5286 0,-3.09367 -0.206621,-0.24896 -0.748287,-0.43754 -1.256771,-0.43754 h -0.893646 v 1.98438 1.98437 h 0.893646 c 0.508484,0 1.05015,-0.18858 1.256771,-0.43754 z m 16.168923,2.64384 0.0692,-10.54067 1.852084,-0.083 c 2.878029,-0.12893 4.072673,0.13397 5.050075,1.11138 1.34638,1.34638 1.988217,3.80035 2.153082,8.232 0.1642,4.41376 -0.187791,7.10934 -1.190416,9.11631 -1.108994,2.21988 -1.673048,2.50864 -5.10821,2.615 l -2.895021,0.0896 z m 5.420915,4.75028 c 0.397179,-0.60649 0.46912,-1.33389 0.46912,-4.74326 0,-3.67654 -0.04832,-4.0919 -0.555326,-4.77377 -0.363519,-0.48888 -0.843296,-0.77548 -1.389063,-0.82975 l -0.833736,-0.0829 v 5.57301 5.57302 h 0.919943 c 0.708162,0 1.027938,-0.16491 1.389062,-0.71634 z m 5.427022,-4.77377 0.06918,-10.51718 1.521354,-0.0794 1.521354,-0.0793 v 10.59654 10.59653 h -1.590534 -1.590538 z m 15.566532,9.78959 c 0.0106,-0.40018 0.81484,-5.13292 1.78725,-10.51719 l 1.768,-9.78958 1.65577,-0.0789 c 1.17614,-0.056 1.69116,0.0206 1.77796,0.26458 0.26996,0.7588 3.73024,20.60534 3.61302,20.72257 -0.0694,0.0693 -0.81022,0.12608 -1.64639,0.12608 h -1.5203 l -0.22154,-1.65364 -0.22154,-1.65365 -1.7539,-0.0775 -1.75389,-0.0775 -0.18539,1.73115 -0.1854,1.73115 h -1.56643 c -1.53712,0 -1.56609,-0.0136 -1.54722,-0.7276 z m 6.23689,-7.9375 c -0.0713,-0.25466 -0.27186,-1.53459 -0.44581,-2.84427 -0.17394,-1.30969 -0.3999,-2.53653 -0.50213,-2.72631 -0.10223,-0.18979 -0.33516,0.82225 -0.51761,2.24896 -0.18246,1.42671 -0.39538,2.8619 -0.47317,3.18933 -0.12945,0.54489 -0.0479,0.59531 0.96342,0.59531 0.92519,0 1.08378,-0.0753 0.9753,-0.46302 z m 18.35013,0.7276 v -7.9375 h -1.59708 -1.59708 l 0.0757,-2.57969 0.0757,-2.57968 4.69635,-0.0722 4.69635,-0.0723 v 2.65194 2.65194 h -1.5875 -1.5875 v 7.9375 7.9375 h -1.5875 -1.5875 z m 7.73603,-2.57969 0.0692,-10.51718 1.52136,-0.0794 1.52135,-0.0793 v 10.59654 10.59653 h -1.59053 -1.59054 z m 8.03741,10.05417 c -0.21826,-0.73643 -3.6026,-19.76952 -3.6026,-20.26054 0,-0.36481 0.27838,-0.44311 1.57551,-0.44311 1.57099,0 1.57593,0.002 1.72233,0.8599 0.0807,0.47294 0.57128,3.71636 1.09006,7.20758 0.51878,3.49123 0.96805,6.3725 0.99838,6.40283 0.0303,0.0303 0.52746,-3.18332 1.10474,-7.14143 l 1.0496,-7.19658 1.2893,-0.082 c 0.70912,-0.0451 1.43333,-0.0267 1.60937,0.0408 0.23551,0.0904 -0.15582,2.80314 -1.48129,10.26843 -0.99074,5.58008 -1.80426,10.29443 -1.8078,10.47633 -0.004,0.22964 -0.52667,0.33073 -1.70841,0.33073 -1.39225,0 -1.72694,-0.0842 -1.83919,-0.46302 z m 8.10218,-10.05417 0.0692,-10.51718 h 4.10104 4.10104 v 2.24895 2.24896 l -2.57969,0.0757 -2.57969,0.0757 v 1.57792 1.57791 h 2.38125 2.38125 v 2.11667 2.11667 h -2.38125 -2.38125 v 2.11666 2.11667 h 2.64584 2.64583 v 2.38125 2.38125 h -4.23637 -4.23637 z m -46.37011,-16.751 c -1.0941,-0.0964 -2.69941,-0.38176 -3.56734,-0.63408 -2.06859,-0.60135 -4.96654,-1.92282 -4.85223,-2.21261 0.0496,-0.12564 1.69745,-3.04915 3.66198,-6.4967 3.11397,-5.46469 3.63971,-6.24733 4.10104,-6.10489 2.10949,0.65129 2.82383,0.72527 4.0349,0.41792 0.69122,-0.17542 1.42681,-0.34431 1.63465,-0.3753 0.31793,-0.0474 4.77177,7.26871 7.17919,11.79294 l 0.53285,1.00138 -1.67313,0.78295 c -3.23692,1.51474 -7.19011,2.16874 -11.05191,1.82839 z m -0.29273,-17.56253 c -1.8166,-1.2344 -2.39878,-3.97239 -1.21742,-5.72542 1.89714,-2.81516 5.36631,-2.81516 7.26345,0 1.24162,1.84243 0.59277,4.62061 -1.36118,5.82822 -1.27987,0.791 -3.43924,0.74362 -4.68485,-0.1028 z m -18.747118,-4.17922 c 0.03599,-5.9337 3.484467,-12.62982 8.409419,-16.32912 0.974489,-0.73197 1.894679,-1.332 2.044859,-1.3334 0.15018,-0.001 1.92264,2.8639 3.93879,6.36732 l 3.66574,6.36986 -0.92773,0.76472 c -1.05641,0.87078 -1.73322,2.13781 -2.01072,3.76418 l -0.19108,1.11992 -7.467263,0.0703 -7.467256,0.0703 0.0052,-0.86402 z m 27.405938,-0.22684 c -0.24501,-1.53221 -1.04462,-2.96975 -2.16608,-3.89415 -0.53021,-0.43704 -0.92062,-0.89872 -0.86758,-1.02596 0.54698,-1.31215 7.22437,-12.51748 7.45818,-12.51557 0.59734,0.005 3.9349,2.72878 5.18687,4.23318 3.20414,3.85016 5.26168,9.00918 5.30153,13.29293 l 0.009,0.99218 h -7.37451 -7.37452 z"
         id="path325"
         inkscape:connector-curvature="0" />
      <path
         style="fill:#6c5d00;stroke-width:0.26458332"
         d="m 71.503309,199.79364 -39.488732,-39.48939 39.621685,-39.62103 39.621688,-39.621024 39.48873,39.489394 39.48873,39.48939 -39.62168,39.62103 -39.62169,39.62102 z m 78.912421,-0.4628 39.15778,-39.15845 -39.22426,-39.22425 -39.22426,-39.22426 -39.224253,39.22426 -39.224255,39.22425 39.157776,39.15845 c 21.536776,21.53714 39.217612,39.15844 39.290732,39.15844 0.0731,0 17.75396,-17.6213 39.29074,-39.15844 z M 76.596869,195.04828 C 57.679161,175.97243 42.201036,160.27827 42.201036,160.17237 c 0,-0.24758 68.678424,-69.45288 68.924114,-69.45288 0.24708,0 68.9238,69.20432 68.9238,69.45329 0,0.20266 -68.59639,69.41282 -68.88951,69.50591 -0.0917,0.0291 -15.644863,-15.55456 -34.562571,-34.63041 z m 68.290311,-0.84332 c 18.46585,-18.6083 33.57427,-33.9177 33.57427,-34.02087 0,-0.10317 -15.1507,-15.41773 -33.66823,-34.03234 L 111.12499,92.30699 77.456765,126.15175 c -18.517526,18.61461 -33.668229,33.92858 -33.668229,34.03102 0,0.26007 67.167414,67.96723 67.364274,67.9056 0.0881,-0.0276 15.26852,-15.27511 33.73437,-33.88341 z m -36.5174,24.7713 c 0.69747,-3.86213 1.95731,-6.9838 3.9242,-9.72344 l 0.94977,-1.32291 -3.83751,-0.0732 -3.8375,-0.0732 v -1.84501 -1.84501 h 6.4823 6.48229 v 1.34637 c 0,1.207 -0.11699,1.48011 -1.13018,2.63833 -2.38382,2.72507 -3.87133,6.00997 -4.47247,9.87665 l -0.31306,2.01365 h -2.21351 -2.21351 z m -8.35201,-44.97958 c -1.96782,-0.98866 -3.138051,-4.05129 -3.369728,-8.81896 -0.262649,-5.40505 0.665879,-9.47045 2.552282,-11.1747 1.818326,-1.64274 3.715826,-1.52749 5.391696,0.32751 1.49225,1.65174 2.30187,4.98231 2.28841,9.41396 -0.0239,7.86062 -2.94298,12.22151 -6.86266,10.25219 z m 2.6266,-4.81427 c 0.84686,-0.84686 1.12958,-2.51609 1.03129,-6.08873 -0.10314,-3.74858 -0.57592,-5.09881 -1.83783,-5.24869 -1.45185,-0.17245 -2.090443,1.58287 -2.088443,5.74054 0.0016,3.34251 0.282843,4.80891 1.074033,5.6001 0.64918,0.64917 1.16947,0.64825 1.82095,-0.003 z m 19.16793,5.03325 c -0.89325,-0.38403 -2.12969,-2.07786 -2.59306,-3.55229 -1.42953,-4.54876 -1.21455,-11.86182 0.44488,-15.13428 0.79876,-1.57517 1.41296,-2.16742 2.60112,-2.50818 1.22576,-0.35154 2.48299,-0.0661 3.37283,0.76584 0.75694,0.70766 1.70107,2.85496 2.03284,4.62342 0.17936,0.9561 0.16221,0.98103 -1.04107,1.5133 -1.26092,0.55777 -1.74651,0.5087 -1.74651,-0.17648 0,-0.21692 -0.1854,-0.75293 -0.41201,-1.19113 -0.52359,-1.01252 -1.53878,-0.9628 -2.33995,0.11459 -0.47958,0.64491 -0.56813,1.19752 -0.64913,4.05087 -0.1142,4.0232 0.0777,5.45139 0.85386,6.3537 1.07591,1.25082 2.30906,0.2208 2.70577,-2.26005 0.0955,-0.59736 0.23527,-1.0861 0.31055,-1.0861 0.0753,0 0.66516,0.32742 1.31084,0.7276 l 1.17396,0.7276 -0.1557,1.3836 c -0.2191,1.94704 -1.07544,4.07636 -1.99284,4.95528 -0.84478,0.80936 -2.79461,1.15779 -3.87638,0.69271 z M 59.266661,163.74449 v -10.45104 h 3.27161 c 2.860675,0 3.355318,0.0658 3.938039,0.52421 1.022409,0.80423 1.57071,2.48643 1.599057,4.90596 0.03059,2.61134 -0.441557,4.39133 -1.451644,5.47263 -0.423053,0.45288 -0.660728,0.89369 -0.528169,0.97958 0.520681,0.33735 1.125961,1.95799 1.948606,5.21739 0.472728,1.87299 0.914077,3.16731 0.980779,2.87627 0.0667,-0.29104 0.904771,-4.87495 1.86238,-10.18646 l 1.741107,-9.65729 h 1.717376 1.717376 l 1.768967,9.78958 c 0.972934,5.38427 1.777624,10.05748 1.788202,10.3849 0.01783,0.55249 -0.09344,0.59531 -1.547211,0.59531 h -1.56644 l -0.184173,-1.71979 -0.184174,-1.71979 h -1.798162 -1.798158 l -0.221538,1.65364 -0.221539,1.65365 h -3.307008 -3.307011 l -0.991272,-3.8079 c -1.003004,-3.85298 -1.293458,-4.52648 -1.952104,-4.52648 -0.294397,0 -0.36448,0.814 -0.36448,4.23334 v 4.23333 h -1.455208 -1.455208 z m 16.046614,1.65365 c -0.08352,-0.47295 -0.292087,-1.93146 -0.463474,-3.24115 -0.171386,-1.30969 -0.394298,-2.4747 -0.495358,-2.58892 -0.152381,-0.17222 -1.066255,5.28362 -1.065194,6.35923 2.09e-4,0.2109 0.394446,0.33073 1.088107,0.33073 1.082,0 1.086972,-0.005 0.935919,-0.85989 z m -10.875214,-4.28746 c 0.694444,-0.69444 0.83507,-1.73827 0.391398,-2.90522 -0.224509,-0.5905 -0.413573,-0.67868 -1.455208,-0.67868 h -1.197174 v 1.94028 c 0,1.06715 0.07938,2.01965 0.17639,2.11667 0.386824,0.38682 1.470681,0.14087 2.084594,-0.47305 z M 80.8743,174.01914 c -0.09701,-0.097 -0.176389,-4.79998 -0.176389,-10.45104 v -10.27465 l 2.84427,0.004 c 1.753341,0.002 3.097975,0.13176 3.50573,0.33725 0.363802,0.18334 0.976611,0.91481 1.3618,1.62549 1.108262,2.04477 1.418947,4.02562 1.392965,8.88127 -0.01958,3.65714 -0.112088,4.63531 -0.57009,6.02738 -0.720685,2.19047 -1.609209,3.32072 -2.919024,3.71315 -1.11108,0.33289 -5.141915,0.4346 -5.439262,0.13725 z m 4.78154,-4.99078 c 0.829148,-0.58076 1.124537,-1.9687 1.124537,-5.28387 0,-4.29092 -0.523965,-5.68854 -2.132616,-5.68854 h -0.77485 v 5.68854 5.68854 h 0.602586 c 0.331425,0 0.862578,-0.1821 1.180343,-0.40467 z m 6.066377,4.99078 c -0.09701,-0.097 -0.17639,-4.79998 -0.17639,-10.45104 v -10.27465 h 1.5875 1.5875 v 10.45104 10.45104 h -1.41111 c -0.776113,0 -1.490488,-0.0794 -1.5875,-0.17639 z m 15.445183,-0.27343 c 0.006,-0.26192 0.81164,-4.94106 1.79,-10.39809 l 1.77885,-9.92188 1.71572,-0.0752 1.71573,-0.0752 1.79345,10.12937 c 0.98639,5.57115 1.79006,10.28413 1.78593,10.4733 -0.005,0.25087 -0.41912,0.32246 -1.52886,0.26458 l -1.52135,-0.0794 -0.24488,-1.65365 -0.24488,-1.65364 h -1.78254 -1.78254 l -0.22154,1.65364 -0.22154,1.65365 -1.52135,0.0794 c -1.32125,0.0689 -1.51989,0.0167 -1.5102,-0.39688 z m 6.24836,-8.34757 c -0.0822,-0.47295 -0.28293,-1.87193 -0.44616,-3.10886 -0.16323,-1.23693 -0.36582,-2.42755 -0.4502,-2.64583 -0.0844,-0.21828 -0.36422,0.97234 -0.62189,2.64583 -0.65387,4.24669 -0.69448,3.96875 0.57985,3.96875 1.08149,0 1.08691,-0.005 0.9384,-0.85989 z m 18.52312,8.621 c -0.097,-0.097 -0.17639,-3.66889 -0.17639,-7.9375 v -7.76111 h -1.5875 -1.5875 v -2.51354 -2.51354 h 4.7625 4.7625 v 2.51354 2.51354 h -1.5875 -1.5875 v 7.9375 7.9375 h -1.41111 c -0.77611,0 -1.49048,-0.0794 -1.5875,-0.17639 z m 7.67292,0 c -0.097,-0.097 -0.17639,-4.79998 -0.17639,-10.45104 v -10.27465 h 1.5875 1.5875 v 10.45104 10.45104 h -1.41111 c -0.77611,0 -1.49049,-0.0794 -1.5875,-0.17639 z m 7.78759,-1.2006 c -0.34843,-1.73963 -3.46606,-19.16569 -3.46606,-19.37364 0,-0.0833 0.71437,-0.15145 1.5875,-0.15145 0.87312,0 1.5875,0.05 1.5875,0.11116 0,0.48495 2.11596,13.99925 2.20599,14.08927 0.064,0.064 0.26425,-0.93197 0.44491,-2.21335 0.18067,-1.28138 0.64492,-4.47292 1.03168,-7.09229 l 0.7032,-4.7625 1.53803,-0.0802 1.53803,-0.0801 -0.17992,1.27078 c -0.099,0.69892 -0.91467,5.37843 -1.81269,10.39889 l -1.63277,9.12813 -1.63239,0.0782 -1.63238,0.0782 z m 8.35199,1.2006 c -0.097,-0.097 -0.17639,-4.79998 -0.17639,-10.45104 v -10.27465 h 4.10105 4.10104 v 2.24896 2.24895 h -2.51354 -2.51355 v 1.5875 1.5875 h 2.38125 2.38125 v 2.11667 2.11667 h -2.38125 -2.38125 v 2.11666 2.11667 h 2.64584 2.64583 v 2.38125 2.38125 h -4.05694 c -2.23132,0 -4.13632,-0.0794 -4.23334,-0.17639 z M 109.268,146.92734 c -1.0941,-0.0964 -2.69941,-0.38176 -3.56734,-0.63408 -2.06859,-0.60135 -4.96654,-1.92282 -4.85223,-2.21261 0.0496,-0.12564 1.69745,-3.04915 3.66198,-6.4967 3.11397,-5.46469 3.63971,-6.24733 4.10104,-6.10489 2.10949,0.65129 2.82383,0.72527 4.0349,0.41792 0.69122,-0.17542 1.42681,-0.34431 1.63465,-0.3753 0.31793,-0.0474 4.77177,7.26871 7.17919,11.79294 l 0.53285,1.00138 -1.67313,0.78295 c -3.23692,1.51474 -7.19011,2.16874 -11.05191,1.82839 z m -0.29273,-17.56253 c -1.8166,-1.2344 -2.39878,-3.97239 -1.21742,-5.72542 1.89714,-2.81516 5.36631,-2.81516 7.26345,0 1.24162,1.84243 0.59277,4.62061 -1.36118,5.82822 -1.27987,0.791 -3.43924,0.74362 -4.68485,-0.1028 z m -18.747118,-4.17922 c 0.03599,-5.9337 3.484467,-12.62982 8.409419,-16.32912 0.974489,-0.73197 1.894679,-1.332 2.044859,-1.3334 0.15018,-0.001 1.92264,2.8639 3.93879,6.36732 l 3.66574,6.36986 -0.92773,0.76472 c -1.05641,0.87078 -1.73322,2.13781 -2.01072,3.76418 l -0.19108,1.11992 -7.467263,0.0703 -7.467256,0.0703 0.0052,-0.86402 z m 27.405938,-0.22684 c -0.24501,-1.53221 -1.04462,-2.96975 -2.16608,-3.89415 -0.53021,-0.43704 -0.92062,-0.89872 -0.86758,-1.02596 0.54698,-1.31215 7.22437,-12.51748 7.45818,-12.51557 0.59734,0.005 3.9349,2.72878 5.18687,4.23318 3.20414,3.85016 5.26168,9.00918 5.30153,13.29293 l 0.009,0.99218 h -7.37451 -7.37452 z"
         id="path323"
         inkscape:connector-curvature="0" />
      <path
         style="fill:#353535;stroke-width:0.26458332"
         d="m 71.503309,199.79364 -39.488732,-39.48939 39.621685,-39.62103 39.621688,-39.621024 39.48873,39.489394 39.48873,39.48939 -39.62168,39.62103 -39.62169,39.62102 z m 78.912421,-0.4628 39.15778,-39.15845 -39.22426,-39.22425 -39.22426,-39.22426 -39.224253,39.22426 -39.224255,39.22425 39.157776,39.15845 c 21.536776,21.53714 39.217612,39.15844 39.290732,39.15844 0.0731,0 17.75396,-17.6213 39.29074,-39.15844 z M 76.596869,195.04828 C 57.679161,175.97243 42.201036,160.27827 42.201036,160.17237 c 0,-0.24758 68.678424,-69.45288 68.924114,-69.45288 0.24708,0 68.9238,69.20432 68.9238,69.45329 0,0.20266 -68.59639,69.41282 -68.88951,69.50591 -0.0917,0.0291 -15.644863,-15.55456 -34.562571,-34.63041 z m 68.290311,-0.84332 c 18.46585,-18.6083 33.57427,-33.92246 33.57427,-34.03147 0,-0.24315 -67.0952,-67.8665 -67.33646,-67.8665 -0.2404,0 -67.336454,67.62289 -67.336454,67.86518 0,0.26702 67.162184,67.97947 67.364274,67.9162 0.0881,-0.0276 15.26852,-15.27511 33.73437,-33.88341 z m -36.5174,24.7713 c 0.69747,-3.86213 1.95731,-6.9838 3.9242,-9.72344 l 0.94977,-1.32291 -3.83751,-0.0732 -3.8375,-0.0732 v -1.84501 -1.84501 h 6.4823 6.48229 v 1.34637 c 0,1.207 -0.11699,1.48011 -1.13018,2.63833 -2.38382,2.72507 -3.87133,6.00997 -4.47247,9.87665 l -0.31306,2.01365 h -2.21351 -2.21351 z m -8.35201,-44.97958 c -1.96782,-0.98866 -3.138051,-4.05129 -3.369728,-8.81896 -0.262649,-5.40505 0.665879,-9.47045 2.552282,-11.1747 1.818326,-1.64274 3.715826,-1.52749 5.391696,0.32751 1.49225,1.65174 2.30187,4.98231 2.28841,9.41396 -0.0239,7.86062 -2.94298,12.22151 -6.86266,10.25219 z m 2.6266,-4.81427 c 0.84686,-0.84686 1.12958,-2.51609 1.03129,-6.08873 -0.10314,-3.74858 -0.57592,-5.09881 -1.83783,-5.24869 -1.45185,-0.17245 -2.090443,1.58287 -2.088443,5.74054 0.0016,3.34251 0.282843,4.80891 1.074033,5.6001 0.64918,0.64917 1.16947,0.64825 1.82095,-0.003 z m 19.16793,5.03325 c -0.89325,-0.38403 -2.12969,-2.07786 -2.59306,-3.55229 -1.42953,-4.54876 -1.21455,-11.86182 0.44488,-15.13428 0.79876,-1.57517 1.41296,-2.16742 2.60112,-2.50818 1.22576,-0.35154 2.48299,-0.0661 3.37283,0.76584 0.75694,0.70766 1.70107,2.85496 2.03284,4.62342 0.17936,0.9561 0.16221,0.98103 -1.04107,1.5133 -1.26092,0.55777 -1.74651,0.5087 -1.74651,-0.17648 0,-0.21692 -0.1854,-0.75293 -0.41201,-1.19113 -0.52359,-1.01252 -1.53878,-0.9628 -2.33995,0.11459 -0.47958,0.64491 -0.56813,1.19752 -0.64913,4.05087 -0.1142,4.0232 0.0777,5.45139 0.85386,6.3537 1.07591,1.25082 2.30906,0.2208 2.70577,-2.26005 0.0955,-0.59736 0.23527,-1.0861 0.31055,-1.0861 0.0753,0 0.66516,0.32742 1.31084,0.7276 l 1.17396,0.7276 -0.1557,1.3836 c -0.2191,1.94704 -1.07544,4.07636 -1.99284,4.95528 -0.84478,0.80936 -2.79461,1.15779 -3.87638,0.69271 z M 59.266661,163.74449 v -10.45104 h 3.27161 c 2.860675,0 3.355318,0.0658 3.938039,0.52421 1.022409,0.80423 1.57071,2.48643 1.599057,4.90596 0.03059,2.61134 -0.441557,4.39133 -1.451644,5.47263 -0.423053,0.45288 -0.660728,0.89369 -0.528169,0.97958 0.520681,0.33735 1.125961,1.95799 1.948606,5.21739 0.472728,1.87299 0.914077,3.16731 0.980779,2.87627 0.0667,-0.29104 0.904771,-4.87495 1.86238,-10.18646 l 1.741107,-9.65729 h 1.717376 1.717376 l 1.768967,9.78958 c 0.972934,5.38427 1.777624,10.05748 1.788202,10.3849 0.01783,0.55249 -0.09344,0.59531 -1.547211,0.59531 h -1.56644 l -0.184173,-1.71979 -0.184174,-1.71979 h -1.798162 -1.798158 l -0.221538,1.65364 -0.221539,1.65365 h -3.307008 -3.307011 l -0.991272,-3.8079 c -1.003004,-3.85298 -1.293458,-4.52648 -1.952104,-4.52648 -0.294397,0 -0.36448,0.814 -0.36448,4.23334 v 4.23333 h -1.455208 -1.455208 z m 16.046614,1.65365 c -0.08352,-0.47295 -0.292087,-1.93146 -0.463474,-3.24115 -0.171386,-1.30969 -0.394298,-2.4747 -0.495358,-2.58892 -0.152381,-0.17222 -1.066255,5.28362 -1.065194,6.35923 2.09e-4,0.2109 0.394446,0.33073 1.088107,0.33073 1.082,0 1.086972,-0.005 0.935919,-0.85989 z m -10.875214,-4.28746 c 0.694444,-0.69444 0.83507,-1.73827 0.391398,-2.90522 -0.224509,-0.5905 -0.413573,-0.67868 -1.455208,-0.67868 h -1.197174 v 1.94028 c 0,1.06715 0.07938,2.01965 0.17639,2.11667 0.386824,0.38682 1.470681,0.14087 2.084594,-0.47305 z M 80.8743,174.01914 c -0.09701,-0.097 -0.176389,-4.79998 -0.176389,-10.45104 v -10.27465 l 2.84427,0.004 c 1.753341,0.002 3.097975,0.13176 3.50573,0.33725 0.363802,0.18334 0.976611,0.91481 1.3618,1.62549 1.108262,2.04477 1.418947,4.02562 1.392965,8.88127 -0.01958,3.65714 -0.112088,4.63531 -0.57009,6.02738 -0.720685,2.19047 -1.609209,3.32072 -2.919024,3.71315 -1.11108,0.33289 -5.141915,0.4346 -5.439262,0.13725 z m 4.78154,-4.99078 c 0.829148,-0.58076 1.124537,-1.9687 1.124537,-5.28387 0,-4.29092 -0.523965,-5.68854 -2.132616,-5.68854 h -0.77485 v 5.68854 5.68854 h 0.602586 c 0.331425,0 0.862578,-0.1821 1.180343,-0.40467 z m 6.066377,4.99078 c -0.09701,-0.097 -0.17639,-4.79998 -0.17639,-10.45104 v -10.27465 h 1.5875 1.5875 v 10.45104 10.45104 h -1.41111 c -0.776113,0 -1.490488,-0.0794 -1.5875,-0.17639 z m 15.445183,-0.27343 c 0.006,-0.26192 0.81164,-4.94106 1.79,-10.39809 l 1.77885,-9.92188 1.71572,-0.0752 1.71573,-0.0752 1.79345,10.12937 c 0.98639,5.57115 1.79006,10.28413 1.78593,10.4733 -0.005,0.25087 -0.41912,0.32246 -1.52886,0.26458 l -1.52135,-0.0794 -0.24488,-1.65365 -0.24488,-1.65364 h -1.78254 -1.78254 l -0.22154,1.65364 -0.22154,1.65365 -1.52135,0.0794 c -1.32125,0.0689 -1.51989,0.0167 -1.5102,-0.39688 z m 6.24836,-8.34757 c -0.0822,-0.47295 -0.28293,-1.87193 -0.44616,-3.10886 -0.16323,-1.23693 -0.36582,-2.42755 -0.4502,-2.64583 -0.0844,-0.21828 -0.36422,0.97234 -0.62189,2.64583 -0.65387,4.24669 -0.69448,3.96875 0.57985,3.96875 1.08149,0 1.08691,-0.005 0.9384,-0.85989 z m 18.52312,8.621 c -0.097,-0.097 -0.17639,-3.66889 -0.17639,-7.9375 v -7.76111 h -1.5875 -1.5875 v -2.51354 -2.51354 h 4.7625 4.7625 v 2.51354 2.51354 h -1.5875 -1.5875 v 7.9375 7.9375 h -1.41111 c -0.77611,0 -1.49048,-0.0794 -1.5875,-0.17639 z m 7.67292,0 c -0.097,-0.097 -0.17639,-4.79998 -0.17639,-10.45104 v -10.27465 h 1.5875 1.5875 v 10.45104 10.45104 h -1.41111 c -0.77611,0 -1.49049,-0.0794 -1.5875,-0.17639 z m 7.78759,-1.2006 c -0.34843,-1.73963 -3.46606,-19.16569 -3.46606,-19.37364 0,-0.0833 0.71437,-0.15145 1.5875,-0.15145 0.87312,0 1.5875,0.05 1.5875,0.11116 0,0.48495 2.11596,13.99925 2.20599,14.08927 0.064,0.064 0.26425,-0.93197 0.44491,-2.21335 0.18067,-1.28138 0.64492,-4.47292 1.03168,-7.09229 l 0.7032,-4.7625 1.53803,-0.0802 1.53803,-0.0801 -0.17992,1.27078 c -0.099,0.69892 -0.91467,5.37843 -1.81269,10.39889 l -1.63277,9.12813 -1.63239,0.0782 -1.63238,0.0782 z m 8.35199,1.2006 c -0.097,-0.097 -0.17639,-4.79998 -0.17639,-10.45104 v -10.27465 h 4.10105 4.10104 v 2.24896 2.24895 h -2.51354 -2.51355 v 1.5875 1.5875 h 2.38125 2.38125 v 2.11667 2.11667 h -2.38125 -2.38125 v 2.11666 2.11667 h 2.64584 2.64583 v 2.38125 2.38125 h -4.05694 c -2.23132,0 -4.13632,-0.0794 -4.23334,-0.17639 z m -49.17526,-27.6145 c -2.24987,-0.55324 -5.50529,-1.93044 -5.50529,-2.329 0,-0.21995 2.54968,-4.77605 6.1233,-10.9419 l 1.02653,-1.77116 0.9145,0.3821 c 1.16495,0.48674 3.33433,0.49074 4.48905,0.008 l 0.89472,-0.37383 3.62091,6.30982 c 1.9915,3.4704 3.54937,6.42557 3.46193,6.56705 -0.27549,0.44575 -4.00822,1.87606 -5.97664,2.29013 -2.57076,0.54077 -6.52602,0.47894 -9.04901,-0.14147 z m 3.08055,-16.75204 c -2.87149,-1.30287 -3.22791,-5.47858 -0.62579,-7.33146 1.34108,-0.95493 3.51622,-0.90247 4.85397,0.11708 3.10282,2.36477 1.72254,7.17896 -2.14483,7.48084 -0.736,0.0574 -1.61812,-0.0554 -2.08335,-0.26646 z m -19.326627,-4.73571 c 0.07211,-0.47295 0.202234,-1.49676 0.289161,-2.27515 0.422013,-3.77896 2.610736,-8.25509 5.570937,-11.39306 1.57471,-1.66928 4.492969,-3.96741 4.706059,-3.70603 0.0494,0.0606 1.70562,2.95087 3.68049,6.42284 l 3.59067,6.31267 -0.91802,0.80603 c -1.04896,0.921 -1.81803,2.29058 -2.08483,3.71271 l -0.18382,0.97988 h -7.39088 -7.390879 z m 27.409537,0.11809 c 0,-1.10213 -1.24997,-3.40617 -2.20558,-4.0655 -0.46042,-0.31767 -0.87459,-0.60399 -0.92036,-0.63625 -0.0695,-0.049 6.97705,-12.45581 7.26452,-12.79058 0.22068,-0.25698 3.12661,2.02664 4.69628,3.69058 3.40549,3.60999 5.20435,7.6623 5.83941,13.15449 l 0.16062,1.38906 h -7.41745 -7.41744 z"
         id="path321"
         inkscape:connector-curvature="0" />
      <path
         style="fill:#000000;stroke-width:0.26458332"
         d="m 71.569675,199.59542 -39.422362,-39.42303 39.488841,-39.48884 39.488836,-39.488838 39.48884,39.488838 39.48884,39.48884 -39.42236,39.42303 c -21.6823,21.68267 -39.48219,39.42303 -39.55532,39.42303 -0.0731,0 -17.873016,-17.74036 -39.555315,-39.42303 z m 78.846055,-0.26458 39.15778,-39.15845 -39.22426,-39.22425 -39.22426,-39.22426 -39.224253,39.22426 -39.224255,39.22425 39.157776,39.15845 c 21.536776,21.53714 39.217612,39.15844 39.290732,39.15844 0.0731,0 17.75396,-17.6213 39.29074,-39.15844 z m -73.946112,-4.4968 -34.460591,-34.65941 34.459591,-34.66142 c 18.952776,-19.06379 34.547692,-34.661428 34.655372,-34.661428 0.10769,0 15.70361,15.597288 34.65762,34.660648 l 34.46182,34.66065 -34.46128,34.66018 c -18.9537,19.06311 -34.54918,34.66019 -34.65661,34.66019 -0.10744,0 -15.702598,-15.59673 -34.655922,-34.65941 z m 68.397272,-0.54505 c 18.47701,-18.63485 33.59456,-33.98622 33.59456,-34.11415 0,-0.24818 -67.0907,-68.000142 -67.33646,-68.000142 -0.24492,0 -67.336454,67.751522 -67.336454,67.998852 0,0.24866 67.089954,67.99698 67.336204,67.99698 0.0812,0 15.26514,-15.24669 33.74215,-33.88154 z m -36.22714,23.7707 c 0.6802,-3.56983 1.49899,-5.55638 3.44429,-8.35652 0.63669,-0.91648 1.15762,-1.72015 1.15762,-1.78594 0,-0.0658 -1.72641,-0.11962 -3.83646,-0.11962 h -3.83646 v -1.85208 -1.85208 h 6.4823 6.48229 v 1.34666 c 0,1.24568 -0.10073,1.45896 -1.34332,2.84427 -2.25581,2.5149 -4.47752,7.91169 -4.47752,10.8764 v 0.80767 h -2.21822 -2.21822 z m -8.52022,-44.10331 c -1.822433,-0.82766 -2.820174,-3.05902 -3.336821,-7.4625 -0.231021,-1.96903 -0.23314,-3.33281 -0.0085,-5.48108 0.364127,-3.48253 1.127659,-5.65791 2.454013,-6.99175 0.911368,-0.91651 1.102358,-0.99219 2.504088,-0.99219 1.40172,0 1.59271,0.0757 2.50408,0.99219 2.00362,2.01493 2.98979,7.03601 2.42801,12.36221 -0.45957,4.35719 -1.51543,6.79425 -3.31323,7.64736 -1.16215,0.55148 -1.8907,0.53474 -3.23162,-0.0742 z m 2.8537,-5.06331 c 1.14096,-1.53551 1.13187,-8.7667 -0.013,-10.30796 -0.66236,-0.89171 -1.79742,-0.88539 -2.46872,0.0137 -0.971253,1.30089 -1.238876,6.59728 -0.469,9.2817 0.53159,1.85354 1.96123,2.34412 2.95069,1.01251 z m 18.74037,5.10361 c -2.34895,-1.18015 -3.66876,-5.84344 -3.35089,-11.83969 0.1754,-3.30859 0.69498,-5.57868 1.64987,-7.20842 0.79466,-1.35626 1.79443,-1.91971 3.40629,-1.91971 1.60213,0 2.8566,1.12184 3.55037,3.175 0.96427,2.85372 0.9477,3.00971 -0.38884,3.65905 -0.65013,0.31586 -1.21956,0.57429 -1.26539,0.57429 -0.0458,0 -0.22617,-0.47673 -0.40074,-1.0594 -0.38715,-1.29218 -1.33932,-2.01902 -2.10683,-1.60826 -0.28813,0.1542 -0.7426,0.84727 -1.00993,1.54016 -0.69248,1.79481 -0.67738,7.67988 0.0234,9.13401 1.01505,2.10614 2.86266,1.29919 3.22166,-1.40708 0.0969,-0.73053 0.24954,-1.29386 0.33919,-1.25185 0.0897,0.042 0.67717,0.37403 1.3056,0.73784 l 1.14262,0.66145 -0.16385,1.28926 c -0.1809,1.42346 -0.91988,3.5426 -1.59429,4.57188 -0.47163,0.7198 -1.86464,1.41515 -2.83369,1.41449 -0.3321,-2.2e-4 -1.01816,-0.20858 -1.52458,-0.46302 z M 59.266661,163.6122 v -10.31875 l 3.108854,0.004 c 1.939181,0.002 3.357721,0.12765 3.770312,0.33281 1.118778,0.55633 1.70597,2.13862 1.809914,4.87713 0.105905,2.79011 -0.362209,4.64338 -1.446823,5.72799 l -0.667454,0.66745 0.546621,0.7438 c 0.300641,0.40909 0.957871,2.33465 1.460511,4.27903 0.502639,1.94438 0.97419,3.59554 1.047893,3.66924 0.181628,0.18163 0.194873,0.11484 2.005898,-10.11489 0.875919,-4.94771 1.654575,-9.26373 1.730344,-9.59115 0.123893,-0.53539 0.296545,-0.59531 1.71518,-0.59531 1.418648,0 1.591281,0.0599 1.715135,0.59531 0.07574,0.32742 0.853842,4.64344 1.729105,9.59115 0.875263,4.9477 1.658456,9.32325 1.740429,9.72343 l 0.149042,0.72761 h -1.562084 -1.562081 l -0.244878,-1.65365 -0.244877,-1.65364 -1.767975,-0.0778 -1.767975,-0.0778 -0.172495,1.26845 c -0.320937,2.36002 -0.04445,2.1945 -3.66564,2.1945 h -3.237386 l -0.618572,-2.57969 c -1.138897,-4.74964 -1.605445,-5.88698 -2.414898,-5.88698 -0.140954,0 -0.245684,1.80459 -0.245684,4.23333 v 4.23334 h -1.455208 -1.455208 z m 16.139583,2.21438 c 0,-0.56156 -0.762087,-5.59045 -0.977098,-6.44772 -0.112805,-0.44977 -0.315389,0.3123 -0.633013,2.38125 -0.702866,4.57837 -0.712735,4.49792 0.551778,4.49792 0.802044,0 1.058333,-0.10448 1.058333,-0.43145 z m -10.847917,-4.59563 c 0.372378,-0.37238 0.529167,-0.88195 0.529167,-1.71979 0,-1.49526 -0.665028,-2.24896 -1.984375,-2.24896 h -0.926042 v 2.24896 2.24895 h 0.926042 c 0.573265,0 1.127628,-0.20158 1.455208,-0.52916 z m 16.404167,2.38125 v -10.31875 h 2.809253 2.809251 l 0.999479,0.99948 c 1.215536,1.21553 1.756516,2.86863 2.140601,6.54114 0.616702,5.89671 -0.610984,11.63361 -2.723327,12.72594 -0.475716,0.246 -1.612879,0.37094 -3.376284,0.37094 h -2.658973 z m 4.752065,5.56183 c 0.266168,-0.14245 0.615529,-0.63646 0.776356,-1.09781 0.36884,-1.05806 0.380426,-7.1792 0.01606,-8.49112 -0.301373,-1.08518 -1.103847,-1.79374 -2.031478,-1.79374 h -0.602586 v 5.82084 5.82083 h 0.678852 c 0.373369,0 0.896628,-0.11655 1.162796,-0.259 z m 6.095852,-5.56183 v -10.31875 h 1.455208 1.455208 v 10.31875 10.31875 h -1.455208 -1.455208 z m 15.451739,9.60507 c 0.0847,-0.40784 0.87019,-4.78966 1.74547,-9.73736 0.87526,-4.94771 1.65248,-9.26373 1.72713,-9.59115 0.12213,-0.53561 0.29393,-0.59531 1.71316,-0.59531 1.41766,0 1.5917,0.0603 1.71846,0.59531 0.15554,0.65649 3.57321,19.70086 3.57321,19.91106 0,0.0721 -0.70051,0.13113 -1.55668,0.13113 h -1.55668 l -0.18417,-1.71979 -0.18418,-1.7198 h -1.81481 -1.81481 l -0.16532,1.25678 c -0.0909,0.69122 -0.18867,1.43536 -0.21722,1.65364 -0.038,0.2907 -0.46466,0.4183 -1.59476,0.47694 l -1.54287,0.0801 z m 6.24595,-7.28997 c 0.004,-0.63296 -0.83592,-6.41882 -0.98849,-6.81302 -0.14862,-0.38398 -1.07037,4.94254 -1.11031,6.41615 -0.0183,0.67577 0.0557,0.7276 1.03861,0.7276 0.66929,0 1.05901,-0.12157 1.06019,-0.33073 z m 18.51898,0.19844 v -7.80521 h -1.5875 -1.5875 v -2.51354 -2.51354 h 4.63021 4.6302 v 2.51354 2.51354 h -1.5875 -1.5875 v 7.80521 7.80521 h -1.4552 -1.45521 z m 7.67291,-2.51354 v -10.31875 h 1.45521 1.45521 v 10.31875 10.31875 h -1.45521 -1.45521 z m 7.83238,9.60316 c -0.0838,-0.40679 -0.87055,-4.78775 -1.74824,-9.73545 -0.87768,-4.94771 -1.65543,-9.26373 -1.72833,-9.59115 -0.12605,-0.5661 -0.0544,-0.59531 1.45999,-0.59531 0.89867,0 1.59254,0.11675 1.59254,0.26796 0,0.37868 1.82023,12.67134 2.01018,13.57544 0.0863,0.41058 0.19945,0.70392 0.25152,0.65184 0.0521,-0.0521 0.51747,-3.00738 1.03421,-6.56735 1.286,-8.85946 0.97129,-7.92789 2.67824,-7.92789 0.98112,0 1.42816,0.10448 1.41512,0.33073 -0.0105,0.1819 -0.81505,4.79557 -1.78793,10.2526 l -1.76888,9.92188 -1.62799,0.0781 c -1.59399,0.0765 -1.63117,0.0627 -1.78043,-0.66145 z m 8.30721,-9.60316 v -10.31875 h 3.96875 3.96875 v 2.11666 2.11667 h -2.51354 -2.51355 v 1.71979 1.71979 h 2.38125 2.38125 v 2.11667 2.11667 h -2.38125 -2.38125 v 2.11666 2.11667 h 2.64584 2.64583 v 2.24896 2.24896 h -4.10104 -4.10104 z m -47.95382,-16.92418 c -1.5905,-0.29066 -4.5264,-1.25224 -5.84469,-1.91427 -0.74921,-0.37624 -0.97001,-0.62427 -0.84522,-0.94946 0.0929,-0.2421 1.71442,-3.1438 3.60337,-6.44823 l 3.43447,-6.00804 0.90799,0.37938 c 1.15257,0.48158 3.32828,0.48782 4.46513,0.0128 l 0.87731,-0.36657 3.61211,6.27667 c 1.98665,3.45217 3.6121,6.36303 3.6121,6.46858 0,0.28933 -3.11395,1.6422 -4.90434,2.13071 -1.84212,0.50263 -7.10606,0.7496 -8.91823,0.41842 z m 1.70691,-17.11917 c -3.26174,-1.60756 -3.05514,-6.34532 0.33313,-7.63932 2.11891,-0.80922 4.29614,0.095 5.21151,2.16433 1.59389,3.60324 -2.04729,7.19868 -5.54464,5.47499 z m -19.100583,-5.18113 c 0.01847,-5.58183 3.715123,-12.27203 8.721201,-15.78359 l 1.569422,-1.10089 0.38062,0.60396 c 0.89061,1.41324 6.78666,11.84991 6.78666,12.01317 0,0.0984 -0.3966,0.56417 -0.88133,1.03494 -0.99804,0.96929 -1.73224,2.36557 -1.95024,3.70895 l -0.14808,0.91252 h -7.241422 -7.241424 l 0.0046,-1.38906 z m 27.244903,0.66146 c -0.004,-1.15151 -1.17692,-3.36942 -2.19059,-4.14258 l -0.9272,-0.70721 3.59183,-6.27329 c 1.97551,-3.4503 3.62462,-6.3174 3.66468,-6.37134 0.16121,-0.21703 3.48451,2.36648 4.65479,3.61861 3.34562,3.5796 5.74563,9.08824 5.75725,13.21435 l 0.004,1.38906 h -7.27604 -7.27604 l -0.003,-0.7276 z"
         id="path319"
         inkscape:connector-curvature="0" />
    </g>
  </g>
</svg>
