<?xml version="1.0" encoding="UTF-8" standalone="no"?>
<!-- Created with Inkscape (http://www.inkscape.org/) -->

<svg
   xmlns:dc="http://purl.org/dc/elements/1.1/"
   xmlns:cc="http://creativecommons.org/ns#"
   xmlns:rdf="http://www.w3.org/1999/02/22-rdf-syntax-ns#"
   xmlns:svg="http://www.w3.org/2000/svg"
   xmlns="http://www.w3.org/2000/svg"
   xmlns:sodipodi="http://sodipodi.sourceforge.net/DTD/sodipodi-0.dtd"
   xmlns:inkscape="http://www.inkscape.org/namespaces/inkscape"
   width="270.93332mm"
   height="270.93335mm"
   viewBox="0 0 270.93332 270.93335"
   version="1.1"
   id="svg341"
   inkscape:version="0.92.4 (5da689c313, 2019-01-14)"
   sodipodi:docname="Class_8_Corrosive.svg">
  <defs
     id="defs335" />
  <sodipodi:namedview
     id="base"
     pagecolor="#ffffff"
     bordercolor="#666666"
     borderopacity="1.0"
     inkscape:pageopacity="0.0"
     inkscape:pageshadow="2"
     inkscape:zoom="0.35"
     inkscape:cx="345.7143"
     inkscape:cy="294.28575"
     inkscape:document-units="mm"
     inkscape:current-layer="layer1"
     showgrid="false"
     inkscape:window-width="1920"
     inkscape:window-height="1017"
     inkscape:window-x="-8"
     inkscape:window-y="-8"
     inkscape:window-maximized="1" />
  <metadata
     id="metadata338">
    <rdf:RDF>
      <cc:Work
         rdf:about="">
        <dc:format>image/svg+xml</dc:format>
        <dc:type
           rdf:resource="http://purl.org/dc/dcmitype/StillImage" />
        <dc:title></dc:title>
      </cc:Work>
    </rdf:RDF>
  </metadata>
  <g
     inkscape:label="Layer 1"
     inkscape:groupmode="layer"
     id="layer1"
     transform="translate(-14.363092,44.236897)">
    <g
       id="g354"
       transform="matrix(1.7066666,0,0,1.7066667,-17.890872,-157.6185)">
      <path
         style="fill:#fefefe;stroke-width:0.26458332"
         d="M 18.898808,145.80953 V 66.434532 h 79.375 79.375002 v 79.374998 79.375 h -79.375002 -79.375 z"
         id="path370"
         inkscape:connector-curvature="0" />
      <path
         style="fill:#d0d0d0;stroke-width:0.26458332"
         d="m 58.586197,185.36463 -39.554655,-39.55532 39.621134,-39.62113 39.621132,-39.621135 39.621132,39.621135 39.62113,39.62113 -39.55465,39.55532 c -21.75506,21.75542 -39.614486,39.55532 -39.687612,39.55532 -0.07313,0 -17.932551,-17.7999 -39.687611,-39.55532 z m 78.846053,-0.52917 39.02549,-39.02615 -39.09197,-39.09197 -39.091962,-39.091959 -39.091963,39.091959 -39.091964,39.09197 39.025483,39.02615 c 21.464013,21.46439 39.085313,39.02616 39.158444,39.02616 0.07313,0 17.694432,-17.56177 39.158442,-39.02616 z M 63.486841,180.60448 28.89522,145.814 63.48541,111.01906 C 82.510015,91.88184 98.164599,76.224115 98.273374,76.224115 c 0.108773,0 15.764206,15.657278 34.789856,34.793945 l 34.59208,34.79395 -34.59254,34.79147 c -19.0259,19.13531 -34.680689,34.79147 -34.788425,34.79147 -0.107736,0 -15.762113,-15.65571 -34.787504,-34.79047 z m 38.675899,23.59992 c 2.84391,-1.51422 3.31104,-5.85924 0.82057,-7.63261 l -0.78151,-0.55648 0.8578,-0.88502 c 0.69616,-0.71825 0.87895,-1.14839 0.96999,-2.28258 0.21241,-2.64605 -1.60332,-4.17679 -5.199109,-4.38308 -2.460138,-0.14114 -3.97778,0.23962 -5.187088,1.30141 -1.778958,1.56195 -1.837536,4.17722 -0.125825,5.61753 l 0.790456,0.66513 -0.759373,0.44857 c -1.458822,0.86175 -2.152975,2.91343 -1.63568,4.83452 0.350993,1.30349 1.775986,2.82815 2.989093,3.19817 1.387435,0.42319 6.265186,0.20448 7.260676,-0.32556 z m -5.430312,-2.65098 c -0.821899,-0.87487 -0.802072,-2.78651 0.03708,-3.57485 1.634138,-1.53519 4.083632,0.19111 3.510632,2.47415 -0.420904,1.67701 -2.4228,2.29811 -3.54771,1.1007 z m 0.203678,-7.28391 c -1.289341,-1.04404 -0.460502,-3.21623 1.227215,-3.21623 0.928716,0 1.962569,0.97565 1.962569,1.85209 0,0.25179 -0.246765,0.77151 -0.548369,1.15494 -0.65669,0.83485 -1.760789,0.92229 -2.641415,0.2092 z M 49.447433,156.92868 c 1.033788,-0.63892 2.109086,-2.55097 2.673413,-4.75376 0.232313,-0.9068 0.383096,-1.67704 0.335071,-1.71162 -0.04802,-0.0346 -0.754808,-0.43235 -1.570632,-0.88392 l -1.483315,-0.82102 -0.421164,1.51484 c -0.511093,1.8383 -1.142444,2.48382 -2.315985,2.36796 -1.283137,-0.12668 -1.800494,-1.02539 -2.106597,-3.65942 -0.407829,-3.50938 0.01309,-6.48169 1.080085,-7.62697 1.100254,-1.18098 2.94835,-0.36588 3.31384,1.46157 l 0.163563,0.81782 1.494152,-0.61469 c 1.452094,-0.59739 1.49247,-0.64163 1.434333,-1.57184 -0.12155,-1.94484 -1.514258,-4.26424 -3.035896,-5.05594 -0.911931,-0.47448 -3.147996,-0.47853 -4.274759,-0.008 -1.20205,0.50225 -2.431298,2.08272 -3.101501,3.98768 -0.710862,2.02052 -0.995812,7.63326 -0.526139,10.36349 0.546885,3.17906 1.916441,5.59885 3.589781,6.34258 1.235919,0.5493 3.749365,0.47048 4.75175,-0.14903 z m 13.081489,0.13916 c 0.407734,-0.21085 1.10399,-0.7964 1.547236,-1.30123 3.178509,-3.62012 3.164885,-14.45747 -0.02273,-18.08797 -1.045532,-1.19079 -2.161915,-1.65987 -3.937261,-1.65434 -3.900139,0.0121 -6.027778,3.77528 -6.027778,10.66125 0,3.5628 0.279456,5.24826 1.216308,7.33584 1.115291,2.4852 2.472638,3.42555 4.948394,3.42818 0.843971,7.9e-4 1.868093,-0.17088 2.275829,-0.38173 z m -3.458149,-4.65292 c -0.855662,-0.49932 -1.396545,-2.58387 -1.403749,-5.41 -0.0083,-3.26239 0.217302,-4.38899 1.085622,-5.42093 1.363742,-1.62072 3.233426,-0.69355 3.784666,1.8768 0.623523,2.90739 0.209624,7.25333 -0.814829,8.55571 -0.560692,0.71281 -1.795134,0.89828 -2.65171,0.39842 z m 44.530677,4.20164 c 2.0364,-1.55324 3.12984,-5.00525 3.12984,-9.88099 0,-7.0188 -2.11867,-10.71562 -6.14117,-10.71562 -2.32752,0 -3.729367,0.96187 -4.950207,3.39656 -1.713413,3.417 -1.771989,10.69189 -0.115385,14.33052 1.284126,2.82051 2.678798,3.75517 5.424312,3.63519 1.404,-0.0614 1.92723,-0.21238 2.65261,-0.76566 z m -4.385749,-4.43951 c -0.860608,-0.95096 -1.183249,-2.43471 -1.183249,-5.44148 0,-4.15572 0.750346,-5.95312 2.485198,-5.95312 0.97558,0 1.76737,0.74629 2.21742,2.09 0.36848,1.10015 0.39836,6.43839 0.043,7.67755 -0.55649,1.94037 -2.48264,2.82011 -3.562339,1.62705 z m 17.497629,4.5383 c 0.46331,-0.32991 1.17716,-1.28157 1.58633,-2.11481 0.66494,-1.35408 0.74394,-1.79594 0.74394,-4.1608 0,-3.97717 -0.78273,-5.18787 -4.44918,-6.88188 -2.37963,-1.09945 -2.93171,-1.8265 -2.2769,-2.99848 0.55675,-0.99646 1.61168,-1.06562 2.32976,-0.15274 0.30792,0.39147 0.55986,0.9268 0.55986,1.18962 0,0.70972 0.36124,0.81896 2.06915,0.62574 l 1.54676,-0.175 -0.21328,-1.34926 c -0.30249,-1.91351 -1.23881,-3.59057 -2.3443,-4.1989 -0.73309,-0.40342 -1.3309,-0.49128 -2.86922,-0.42169 -1.89011,0.0855 -1.97083,0.11752 -2.95488,1.17248 -1.20301,1.28968 -1.58279,2.49097 -1.57694,4.98803 0.007,3.18034 1.06276,4.69963 4.3888,6.31832 2.0541,0.99967 2.70223,1.89703 2.36014,3.26769 -0.64136,2.56978 -3.24373,2.05821 -3.71484,-0.73026 -0.19463,-1.15203 -0.24337,-1.17008 -2.37179,-0.87834 l -1.25635,0.1722 0.17316,1.30537 c 0.23578,1.77739 1.08727,3.96602 1.8055,4.64075 0.93868,0.88185 1.78206,1.11607 3.76863,1.0466 1.43184,-0.0501 2.04481,-0.2012 2.69565,-0.66464 z m -44.368689,-3.76207 c 0,-3.96492 0.0315,-4.23333 0.496771,-4.23333 0.273222,0 0.618877,0.14883 0.768118,0.33073 0.226184,0.27568 1.246587,3.26923 2.480164,7.27604 l 0.264734,0.8599 h 2.082385 2.082384 l -0.234349,-0.72761 c -0.128892,-0.40018 -0.660458,-2.1198 -1.181259,-3.82138 -0.568542,-1.85757 -1.216427,-3.41409 -1.621409,-3.89538 l -0.674499,-0.8016 0.944255,-0.82906 c 2.57197,-2.25822 2.221606,-9.30485 -0.519594,-10.4502 -0.64004,-0.26742 -2.018472,-0.37686 -4.746911,-0.37686 h -3.844956 v 10.45104 10.45105 h 1.852083 1.852083 z m 0,-10.31875 v -2.11666 h 1.445901 c 1.670542,0 1.993683,0.34025 1.993683,2.09927 0,1.47931 -0.689997,2.13406 -2.248959,2.13406 h -1.190625 z m 13.229167,10.31875 c 0,-3.96492 0.0315,-4.23333 0.496771,-4.23333 0.273222,0 0.618876,0.14883 0.768117,0.33073 0.226185,0.27568 1.246587,3.26923 2.480165,7.27604 l 0.264734,0.8599 h 2.082384 2.082385 l -0.234349,-0.72761 c -0.128892,-0.40018 -0.660459,-2.1198 -1.181259,-3.82138 -0.568542,-1.85757 -1.216427,-3.41409 -1.621409,-3.89538 l -0.6745,-0.8016 0.944256,-0.82906 c 2.571969,-2.25822 2.221606,-9.30485 -0.519594,-10.4502 -0.64004,-0.26742 -2.018472,-0.37686 -4.746911,-0.37686 h -3.844957 v 10.45104 10.45105 h 1.852084 1.852083 z m 0,-10.31875 v -2.11666 h 1.4459 c 1.670542,0 1.993683,0.34025 1.993683,2.09927 0,1.47931 -0.689996,2.13406 -2.248958,2.13406 h -1.190625 z m 39.422912,4.10104 v -10.45104 h -1.85208 -1.85208 v 10.45104 10.45105 h 1.85208 1.85208 z m 12.39336,0.19844 c 1.1989,-5.63893 2.17507,-10.34734 2.16927,-10.46313 -0.006,-0.11579 -0.81421,-0.17532 -1.79648,-0.13229 l -1.78594,0.0782 -1.30803,7.35 c -0.71941,4.0425 -1.38798,7.19765 -1.48571,7.01146 -0.0977,-0.1862 -0.7499,-3.52346 -1.44928,-7.41614 l -1.27159,-7.07761 h -1.91038 -1.91038 l 0.48904,2.18281 c 0.26898,1.20055 1.29787,5.90342 2.28644,10.45082 l 1.79739,8.26801 1.99793,2.2e-4 1.99792,2.3e-4 z m 13.80039,8.01179 v -2.24081 l -3.24114,-0.0743 -3.24115,-0.0743 v -2.11667 -2.11667 l 2.97657,-0.0748 2.97656,-0.0748 v -1.96704 -1.96705 l -2.97656,-0.0748 -2.97657,-0.0748 v -1.71979 -1.71979 l 3.10886,-0.0745 3.10885,-0.0745 v -2.10827 -2.10827 h -4.89479 -4.89479 v 10.45104 10.45105 h 5.02708 5.02708 z m -2.40055,-26.00346 c -0.47733,-0.5457 -12.03883,-12.23842 -25.69222,-25.98381 L 98.27335,77.966899 73.586471,102.82624 c -13.577784,13.67263 -25.140597,25.36535 -25.695143,25.98381 l -1.00826,1.12448 H 98.270429 149.65779 Z M 112.6936,126.7212 c -5.23875,-0.12067 -9.79289,-0.33745 -10.12031,-0.48173 -0.44522,-0.1962 -0.59532,-0.48392 -0.59532,-1.14114 0,-0.48334 0.12944,-1.00823 0.28764,-1.16643 0.20713,-0.20713 0.20713,-0.3374 0,-0.46541 -0.36719,-0.22694 -0.37436,-1.54149 -0.0104,-1.90546 0.19328,-0.19328 0.18042,-0.48978 -0.0425,-0.97896 -0.24513,-0.53801 -0.2478,-0.85954 -0.0114,-1.37828 0.21943,-0.48161 0.22821,-0.82617 0.0305,-1.19568 -0.20213,-0.3777 -0.18227,-0.71592 0.0729,-1.24166 l 0.35075,-0.72254 3.94126,0.0748 3.94127,0.0748 -0.67231,-0.52884 c -0.79216,-0.62311 -1.45685,-2.05655 -1.11287,-2.39995 0.13885,-0.13861 2.42333,0.0637 5.5283,0.48949 l 5.29167,0.72573 0.1587,1.17887 c 0.14865,1.10427 0.16181,1.12027 0.20781,0.25284 0.027,-0.50933 0.21927,-1.2237 0.42724,-1.5875 0.47978,-0.83929 0.48548,-2.31948 0.0122,-3.175 -0.36385,-0.65776 -0.42562,-0.66759 -11.02328,-1.75414 l -10.657378,-1.09268 -0.630909,-0.73347 c -0.51507,-0.59881 -0.598488,-0.90827 -0.45433,-1.68545 0.260096,-1.40222 0.808744,-1.87801 2.165562,-1.87801 0.636895,0 5.648835,0.42256 11.137645,0.93903 11.28291,1.06168 10.7838,0.91168 10.52122,3.16201 -0.31131,2.66788 -0.093,5.11381 0.54825,6.14225 0.44952,0.72096 0.4786,2.50223 0.0479,2.93296 -0.35564,0.35563 -1.29359,0.42188 -1.6857,0.11906 -0.14133,-0.10914 -0.0329,0.01 0.24098,0.26458 0.27386,0.25466 0.58304,0.46302 0.68708,0.46302 0.46585,0 1.34193,-1.30068 1.43462,-2.12993 0.0877,-0.78423 0.19063,-0.9017 0.73117,-0.83411 0.34603,0.0433 1.10539,0.60978 1.68747,1.25892 l 1.05834,1.18026 1.82555,-0.002 1.82556,-0.002 -0.17191,2.42189 c -0.0945,1.33205 -0.17191,3.05845 -0.17191,3.83646 v 1.41456 h -1.86472 c -1.65743,0 -1.93401,0.0748 -2.48809,0.67263 -0.57313,0.61842 -2.01929,1.23767 -2.6569,1.1377 -0.14649,-0.023 -4.55258,-0.14049 -9.79133,-0.26116 z m 11.87297,-1.40198 c 0.55002,-0.69003 0.81754,-0.79139 2.34556,-0.88868 l 1.72472,-0.10983 0.16432,-1.19876 c 0.0904,-0.65933 0.1643,-2.0156 0.1643,-3.01393 v -1.81515 h -1.50286 c -1.44052,0 -1.54886,-0.0494 -2.61162,-1.19063 -0.60982,-0.65484 -1.16881,-1.19062 -1.24219,-1.19062 -0.0734,0 -0.19967,0.32742 -0.28063,0.7276 -0.56274,2.78158 -3.9552,2.44006 -4.3411,-0.43702 -0.08,-0.59638 -0.19022,-1.08433 -0.24494,-1.08433 -0.28698,0 -8.01457,-1.0938 -8.67272,-1.22758 l -0.77211,-0.15693 0.55087,0.7584 c 0.45551,0.62711 0.95313,0.85408 2.87458,1.31112 1.27804,0.30399 2.37534,0.70762 2.43845,0.89695 0.0932,0.27967 -1.03288,0.30786 -6.00396,0.15033 -5.56632,-0.1764 -6.13391,-0.15426 -6.28724,0.24531 -0.0927,0.24157 -0.0308,0.57696 0.13755,0.74531 0.27615,0.27615 4.57618,0.63003 8.42928,0.69371 1.20502,0.0199 1.38906,0.0931 1.38906,0.55213 0,0.61414 0.13542,0.60731 -5.54532,0.27964 -2.10404,-0.12136 -3.98557,-0.15924 -4.18118,-0.0842 -0.1956,0.0751 -0.31958,0.38921 -0.27551,0.69811 0.0702,0.49229 0.30879,0.58208 1.93222,0.72721 1.01865,0.0911 2.92365,0.18199 4.23333,0.20205 2.78758,0.0427 3.57188,0.20814 3.57188,0.75347 0,0.3432 -0.66312,0.38444 -4.82242,0.29987 -4.55102,-0.0925 -4.82797,-0.07 -4.92083,0.39941 -0.14397,0.72782 0.40371,0.94916 2.3599,0.9537 0.95963,0.002 3.01346,0.0817 4.56406,0.17655 2.57381,0.15748 2.81929,0.21804 2.81929,0.69558 0,0.49388 -0.12927,0.5138 -2.31511,0.35674 -4.28041,-0.30757 -7.2495,-0.26593 -7.47867,0.10489 -0.3966,0.6417 0.0391,1.05085 1.15698,1.08646 6.52317,0.20777 15.85147,0.41366 17.70245,0.39071 2.2346,-0.0277 2.34132,-0.057 2.93961,-0.80761 z m -3.80723,-17.55916 c 0.002,-0.62705 -0.0996,-1.07601 -0.22636,-0.99769 -0.33201,0.2052 -0.56069,1.56159 -0.37986,2.25311 0.23279,0.89016 0.60131,0.12699 0.60622,-1.25542 z m -1.31887,0.36799 c 0,-0.49742 0.0632,-1.06901 0.14037,-1.27019 0.11185,-0.29149 -0.60013,-0.43112 -3.50573,-0.68753 -2.00535,-0.17696 -3.88422,-0.31443 -4.17526,-0.3055 -0.29104,0.009 0.95911,0.58021 2.77812,1.26951 1.81902,0.68929 3.54542,1.39473 3.83646,1.56764 0.80702,0.47945 0.92604,0.40568 0.92604,-0.57393 z m -60.268105,15.39034 0.0754,-2.71198 5.490104,-0.0715 5.490105,-0.0715 v 0.9353 c 0,0.77127 0.150802,1.02724 0.859895,1.45959 1.280415,0.78068 2.460554,0.6861 3.420801,-0.27415 0.616892,-0.61689 0.76273,-0.95054 0.636066,-1.45521 l -0.164343,-0.65479 h 7.677957 7.677957 v 2.77812 2.77813 H 74.716636 59.096962 Z m 12.551826,-2.00521 c -0.532432,-0.58833 -0.563489,-1.67616 -0.07532,-2.63814 0.199409,-0.39296 0.486485,-1.42884 0.637945,-2.30197 0.151458,-0.87312 0.306994,-1.70656 0.345633,-1.85208 0.03864,-0.14552 -0.07712,-0.78056 -0.25723,-1.4112 -0.335865,-1.17597 -0.200306,-2.55372 0.280503,-2.85087 0.558258,-0.34502 21.682409,-2.19455 22.315525,-1.95384 1.289716,0.49035 1.639025,2.65526 0.587777,3.64286 -0.541695,0.5089 -1.583722,0.663 -11.046354,1.63367 -5.746533,0.58948 -10.535939,1.07175 -10.643127,1.07172 -0.274418,-7e-5 -0.995738,1.80149 -0.995738,2.48693 0,0.31366 0.194186,0.84752 0.431525,1.18637 0.627298,0.89559 0.614452,2.63161 -0.02291,3.09767 -0.67736,0.4953 -1.032328,0.46998 -1.558221,-0.11112 z m 1.943367,-8.62263 c 0,-1.05055 -0.221171,-1.74143 -0.557474,-1.74143 -0.268595,0 -0.307946,1.1608 -0.06951,2.05052 0.241758,0.90212 0.626986,0.71221 0.626986,-0.30909 z m 3.609919,-0.65348 c 1.434286,-0.56579 3.290954,-1.24193 4.125934,-1.50252 0.83498,-0.26059 1.476111,-0.51583 1.424736,-0.56721 -0.05137,-0.0514 -1.912077,0.089 -4.1349,0.3119 -2.22282,0.22291 -4.181581,0.40529 -4.352798,0.40529 -0.23349,0 -0.242255,0.29762 -0.03507,1.19063 0.151932,0.65484 0.296053,1.19062 0.320273,1.19062 0.02421,0 1.217538,-0.46292 2.651823,-1.02871 z"
         id="path368"
         inkscape:connector-curvature="0" />
      <path
         style="fill:#bcbcbc;stroke-width:0.26458332"
         d="m 58.586197,185.36463 -39.554655,-39.55532 39.621134,-39.62113 39.621132,-39.621135 39.621132,39.621135 39.62113,39.62113 -39.55465,39.55532 c -21.75506,21.75542 -39.614486,39.55532 -39.687612,39.55532 -0.07313,0 -17.932551,-17.7999 -39.687611,-39.55532 z M 137.49862,106.58539 98.406769,67.492863 59.181954,106.71701 l -39.224813,39.22414 39.091854,39.09253 39.091852,39.09252 39.224813,-39.22414 39.22481,-39.22415 z m -73.853643,74.11089 c -18.93508,-19.08427 -34.427419,-34.78253 -34.427419,-34.88503 0,-0.25372 68.803853,-69.587135 69.055634,-69.587135 0.253915,0 69.056868,69.331285 69.056868,69.587155 0,0.25625 -68.802564,69.58368 -69.056879,69.58368 -0.110432,0 -15.69312,-15.6144 -34.628204,-34.69867 z m 37.597183,23.83911 c 2.09199,-0.581 3.38165,-2.34416 3.38165,-4.62321 0,-1.46258 -0.49924,-2.50464 -1.62029,-3.38199 -0.82444,-0.64522 -0.82854,-0.65962 -0.27257,-0.95717 1.40241,-0.75055 1.8194,-3.50067 0.76748,-5.06162 -0.9874,-1.4652 -2.09704,-1.93771 -4.83139,-2.05729 -2.057726,-0.09 -2.608586,-0.0189 -3.789215,0.48898 -1.625925,0.69945 -2.446604,1.7265 -2.621835,3.28114 -0.145775,1.29332 0.352914,2.46581 1.39864,3.28837 l 0.683062,0.5373 -0.830858,0.42966 c -0.888918,0.45967 -1.832785,2.15473 -1.840323,3.30497 -0.01363,2.07928 1.243039,3.99597 3.035422,4.62968 1.244804,0.44011 5.132507,0.51214 6.540227,0.12118 z m -4.536649,-3.06675 c -1.207145,-1.53464 -0.329977,-4.06536 1.409089,-4.06536 1.209919,0 2.13156,1.0296 2.13156,2.38125 0,2.11857 -2.32792,3.22584 -3.540649,1.68411 z m 0.258819,-7.17627 c -0.725644,-0.58759 -0.800474,-1.98644 -0.145011,-2.71072 0.710102,-0.78465 2.073881,-0.7012 2.758202,0.16877 0.720139,0.9155 0.692329,1.56421 -0.101063,2.3576 -0.764032,0.76403 -1.710478,0.83349 -2.512128,0.18435 z M 49.503458,156.93762 c 1.062162,-0.64765 2.046412,-2.33301 2.580939,-4.4194 0.229071,-0.89413 0.416494,-1.74075 0.416494,-1.88137 0,-0.14062 -0.710829,-0.63454 -1.579618,-1.0976 l -1.57962,-0.84193 -0.163936,0.73892 c -0.578308,2.60666 -1.157161,3.33732 -2.539056,3.20492 -0.760357,-0.0729 -0.97265,-0.2622 -1.511042,-1.34778 -0.542688,-1.09424 -0.628428,-1.65997 -0.64159,-4.23333 -0.009,-1.75751 0.125041,-3.40244 0.328258,-4.02864 0.930448,-2.86717 3.145611,-3.03655 4.082212,-0.31216 l 0.314047,0.9135 1.446734,-0.58728 c 1.395365,-0.56641 1.445662,-0.62175 1.416479,-1.55831 -0.03907,-1.25385 -1.480609,-4.12805 -2.403801,-4.79279 -0.760997,-0.54795 -3.244453,-0.86712 -4.430614,-0.56941 -0.948587,0.23808 -2.467949,1.65037 -3.092478,2.87455 -0.840539,1.64759 -1.278396,4.2957 -1.279136,7.73606 -0.0012,5.50668 1.283635,8.99965 3.827953,10.40687 0.907063,0.50167 3.855085,0.37609 4.807775,-0.20482 z m 13.478788,-0.15166 c 2.600257,-1.52385 4.012113,-7.00102 3.321643,-12.88603 -0.374097,-3.18852 -1.260345,-5.36582 -2.721361,-6.68576 -1.21869,-1.10101 -1.877851,-1.292 -3.943467,-1.14259 -1.963832,0.14205 -3.186297,1.04167 -4.256172,3.13215 -1.057383,2.06607 -1.377495,4.28719 -1.23893,8.59643 0.09387,2.91936 0.239826,4.03028 0.693245,5.27658 1.11654,3.06899 2.740438,4.37334 5.445649,4.37405 1.194044,2.6e-4 1.832909,-0.15703 2.699393,-0.66483 z m -4.214511,-4.88087 c -1.630354,-1.93756 -1.550937,-8.72177 0.122958,-10.50355 1.069059,-1.13796 2.440474,-0.64313 3.41004,1.2304 0.479271,0.92611 0.647279,5.38579 0.27115,7.19759 -0.410798,1.9788 -1.107125,2.85917 -2.261468,2.85917 -0.654113,0 -1.05441,-0.20333 -1.54268,-0.78361 z m 44.215565,5.17437 c 2.4217,-1.26001 3.74799,-4.92036 3.74799,-10.34389 0,-4.87347 -1.07228,-8.3116 -3.06662,-9.83276 -0.78801,-0.60105 -1.29871,-0.7562 -2.76108,-0.83883 -2.243258,-0.12676 -3.594236,0.53665 -4.730695,2.32303 -1.358485,2.13538 -1.728394,3.91824 -1.732167,8.34856 -0.0029,3.37174 0.08489,4.24736 0.58342,5.82084 1.132827,3.57548 2.602658,4.86222 5.577902,4.88309 0.93894,0.007 1.97878,-0.15063 2.38125,-0.36004 z m -3.760807,-4.89491 c -1.222867,-1.35125 -1.647439,-6.76085 -0.738667,-9.41158 0.796849,-2.32426 2.711124,-2.65327 3.875814,-0.66615 0.43824,0.7477 0.56033,1.49598 0.63817,3.91122 0.10672,3.31164 -0.22192,5.15214 -1.08482,6.07535 -0.69795,0.74673 -2.055587,0.79273 -2.690497,0.0912 z m 17.334587,4.67134 c 2.02677,-1.34208 3.14854,-5.61861 2.34855,-8.95335 -0.45499,-1.8966 -2.12795,-3.56948 -4.48717,-4.48696 -2.09449,-0.81453 -2.66755,-1.5762 -2.092,-2.78056 0.69596,-1.4563 2.36704,-0.9932 2.84119,0.78737 0.21621,0.81191 0.22401,0.81499 1.89278,0.74853 0.92163,-0.0367 1.70457,-0.0962 1.73988,-0.1323 0.18446,-0.18834 -0.53172,-3.08733 -0.9796,-3.96525 -0.76621,-1.5019 -1.84688,-2.05124 -4.03755,-2.05243 -2.32619,-0.001 -3.31034,0.56482 -4.2459,2.44226 -0.55717,1.11809 -0.68012,1.74115 -0.68012,3.44663 0,3.57281 1.0405,5.18894 4.26788,6.62898 1.8425,0.82212 2.46697,1.53772 2.46697,2.82697 0,1.84155 -1.59685,2.75675 -2.76749,1.58612 -0.2918,-0.29181 -0.67695,-1.07793 -0.85588,-1.74694 l -0.32533,-1.21638 -1.5899,0.17987 c -0.87445,0.0989 -1.6348,0.22477 -1.68966,0.27963 -0.28569,0.2857 0.35606,3.19224 0.97398,4.41122 1.01491,2.0021 2.01938,2.5919 4.41422,2.5919 1.53395,0 2.08166,-0.11624 2.80515,-0.59531 z m -44.212439,-3.90261 c 0,-3.4925 0.06615,-4.23333 0.377976,-4.23333 0.758092,0 1.223029,0.8963 2.408978,4.64399 l 1.209675,3.82268 h 2.090071 2.090074 l -0.383625,-1.25678 c -0.210992,-0.69122 -0.635754,-2.14974 -0.943917,-3.24114 -0.622845,-2.2059 -1.306325,-3.69544 -1.935102,-4.21729 -0.557305,-0.46252 -0.524301,-0.73983 0.112088,-0.94181 0.290566,-0.0922 0.856113,-0.72532 1.256771,-1.40689 0.66997,-1.13971 0.72847,-1.46231 0.72847,-4.01734 0,-2.39518 -0.08421,-2.93589 -0.610899,-3.92262 -0.8913,-1.66981 -1.644526,-1.89822 -6.25977,-1.89822 h -3.844956 v 10.45104 10.45105 h 1.852083 1.852083 z m 0,-10.28509 v -2.15032 h 1.281909 c 1.58519,0 2.157675,0.53616 2.157675,2.02078 0,1.51883 -0.457679,1.99335 -2.072251,2.14849 l -1.367333,0.13138 z m 13.229167,10.28509 c 0,-3.4925 0.06615,-4.23333 0.377976,-4.23333 0.758092,0 1.223028,0.8963 2.408978,4.64399 l 1.209675,3.82268 h 2.090071 2.090073 l -0.383624,-1.25678 c -0.210992,-0.69122 -0.635754,-2.14974 -0.943917,-3.24114 -0.622845,-2.2059 -1.306325,-3.69544 -1.935102,-4.21729 -0.557305,-0.46252 -0.524301,-0.73983 0.112088,-0.94181 0.290566,-0.0922 0.856112,-0.72532 1.256771,-1.40689 0.66997,-1.13971 0.728469,-1.46231 0.728469,-4.01734 0,-2.39518 -0.08421,-2.93589 -0.610899,-3.92262 -0.891299,-1.66981 -1.644525,-1.89822 -6.259769,-1.89822 h -3.844957 v 10.45104 10.45105 h 1.852084 1.852083 z m 0,-10.28509 v -2.15032 h 1.281909 c 1.58519,0 2.157674,0.53616 2.157674,2.02078 0,1.51883 -0.457679,1.99335 -2.072251,2.14849 l -1.367332,0.13138 z m 39.422912,4.06738 v -10.45104 h -1.85208 -1.85208 v 10.45104 10.45105 h 1.85208 1.85208 z m 10.31984,10.25261 c 5.3e-4,-0.10914 0.9923,-4.81211 2.20378,-10.45104 l 2.2027,-10.25261 h -1.87857 -1.87858 l -1.30745,7.43679 c -0.80676,4.58885 -1.38146,7.24857 -1.50072,6.94531 -0.10629,-0.27031 -0.74656,-3.5871 -1.42282,-7.37064 -0.67625,-3.78354 -1.26403,-6.91444 -1.30617,-6.95755 -0.0421,-0.0431 -0.90605,-0.0431 -1.91981,0 l -1.8432,0.0784 2.25958,10.3849 2.25959,10.3849 h 2.06529 c 1.13591,0 2.06578,-0.0893 2.06638,-0.19844 z m 15.87391,-2.04238 v -2.24081 l -3.24114,-0.0743 -3.24115,-0.0743 v -2.11667 -2.11667 l 2.97657,-0.0748 2.97656,-0.0748 v -1.96704 -1.96705 l -2.97656,-0.0748 -2.97657,-0.0748 v -1.71979 -1.71979 l 3.10886,-0.0745 3.10885,-0.0745 v -2.10827 -2.10827 h -4.89479 -4.89479 v 10.45104 10.45105 h 5.02708 5.02708 z M 124.19084,104.00537 C 110.03844,89.744324 98.375776,78.076199 98.273808,78.076199 c -0.101968,0 -11.764632,11.668125 -25.917033,25.929171 l -25.731639,25.92916 h 51.648672 51.648672 z m -8.85141,22.74181 c -3.92906,-0.10032 -8.35563,-0.19811 -9.83683,-0.21731 -2.06083,-0.0267 -2.79069,-0.13253 -3.10885,-0.4507 -0.44994,-0.44993 -0.56653,-1.84107 -0.17461,-2.08329 0.14106,-0.0872 0.1161,-0.48042 -0.0601,-0.94729 -0.22982,-0.60885 -0.22482,-0.9207 0.0211,-1.31444 0.24434,-0.39125 0.24981,-0.67549 0.0226,-1.17416 -0.23581,-0.51755 -0.21744,-0.7873 0.0861,-1.2641 0.31049,-0.48769 0.32381,-0.72686 0.0682,-1.2238 -0.17478,-0.33971 -0.25714,-0.84949 -0.18304,-1.13286 0.2505,-0.95792 1.0151,-1.10408 4.80986,-0.91941 3.47128,0.16892 3.57408,0.15883 3.03091,-0.29741 -0.30923,-0.25974 -0.77408,-0.80682 -1.03301,-1.21573 -0.40314,-0.63664 -0.41739,-0.79377 -0.0992,-1.09355 0.30896,-0.29109 1.24084,-0.22505 5.53093,0.39201 2.83766,0.40814 5.18914,0.75141 5.22552,0.76282 0.0364,0.0114 0.0662,0.49035 0.0662,1.06432 0,1.35657 0.94458,2.55174 1.80172,2.27969 0.68913,-0.21872 1.06787,-0.85324 1.22354,-2.04987 0.0627,-0.48209 0.12206,-0.9001 0.13188,-0.92891 0.01,-0.0288 0.36037,0.067 0.77899,0.21295 0.41862,0.14593 1.13861,0.73505 1.59997,1.30915 0.81895,1.01908 0.87894,1.04383 2.53055,1.04383 0.93044,0 1.75793,0.10715 1.83887,0.23812 0.081,0.13097 0.0695,1.85738 -0.0254,3.83646 l -0.17257,3.59833 H 127.548 c -1.69503,0 -1.93796,0.0697 -2.67096,0.76639 -0.44349,0.42151 -1.16354,0.81696 -1.6001,0.87877 -0.43656,0.0618 -4.00844,0.0303 -7.9375,-0.07 z m 9.01371,-1.17209 c 0.97299,-0.97299 1.52894,-1.19681 2.97282,-1.19681 1.30326,0 1.306,-0.002 1.46969,-0.99219 0.0902,-0.5457 0.16531,-1.91492 0.16691,-3.0427 l 0.003,-2.05052 h -1.49728 c -1.43623,0 -1.54187,-0.0486 -2.5904,-1.19063 -0.60121,-0.65484 -1.16468,-1.19062 -1.25216,-1.19062 -0.0875,0 -0.24031,0.32742 -0.33963,0.7276 -0.46743,1.8833 -2.4961,2.57583 -3.56497,1.21697 -0.30339,-0.38569 -0.62491,-1.15959 -0.71448,-1.71979 -0.0896,-0.56019 -0.17742,-1.01869 -0.1952,-1.01887 -0.0178,-1.9e-4 -2.11344,-0.29041 -4.65702,-0.64494 -2.54357,-0.35453 -4.6586,-0.61068 -4.70006,-0.56922 -0.0414,0.0415 0.16548,0.38157 0.45986,0.75581 0.36528,0.46439 0.97551,0.77426 1.92193,0.97596 2.49366,0.53144 3.37108,0.82141 3.37108,1.11409 0,0.20494 -1.75501,0.23211 -6.08301,0.0942 -5.55069,-0.17688 -6.09788,-0.15512 -6.25285,0.24871 -0.33177,0.86459 0.37301,1.0446 4.99654,1.27617 4.42851,0.22179 5.36678,0.41544 4.79301,0.98921 -0.18422,0.18422 -1.74439,0.18677 -4.87632,0.008 -2.58522,-0.14758 -4.70567,-0.16267 -4.83393,-0.0344 -0.12566,0.12566 -0.18642,0.44949 -0.13502,0.71961 0.10528,0.55324 1.82247,0.79209 6.17387,0.85874 2.79156,0.0428 3.57188,0.20809 3.57188,0.75676 0,0.35108 -0.61411,0.3771 -4.91482,0.20833 l -4.91482,-0.19288 0.0862,0.753 0.0862,0.753 3.43958,0.16828 c 1.89177,0.0926 4.06466,0.18184 4.82865,0.19844 1.22903,0.0267 1.38906,0.0947 1.38906,0.59062 0,0.5384 -0.0859,0.55423 -2.18281,0.40213 -1.20055,-0.0871 -3.36041,-0.19046 -4.79969,-0.22973 -2.23782,-0.0611 -2.65854,-0.005 -2.90447,0.38434 -0.60206,0.95405 0.0485,1.04995 8.47336,1.24915 13.90076,0.32868 12.45996,0.36968 13.20544,-0.37579 z m -65.124638,0.30361 c -0.07422,-0.19342 -0.100251,-1.41381 -0.05784,-2.71198 l 0.0771,-2.36031 5.490104,-0.0715 5.490105,-0.0715 v 0.91221 c 0,1.70936 2.122368,2.56687 3.978055,1.60725 0.753295,-0.38954 1.168241,-1.21866 0.999244,-1.99662 -0.06992,-0.32188 1.077788,-0.39052 7.524263,-0.45002 l 7.606771,-0.0702 v 2.78218 2.78219 H 74.84988 c -12.63687,0 -15.511261,-0.0647 -15.621378,-0.35167 z m 12.586973,-4.41083 c -0.291042,-0.29105 -0.529167,-0.74166 -0.529167,-1.00136 0,-0.25971 0.238125,-1.1497 0.529167,-1.97777 0.291041,-0.82806 0.529166,-1.81403 0.529166,-2.19103 0,-0.37701 0.112231,-0.89517 0.249402,-1.15148 0.168251,-0.31438 0.119152,-0.84406 -0.150897,-1.62789 -0.410284,-1.19085 -0.310682,-2.73603 0.196572,-3.04953 0.151019,-0.0933 5.101688,-0.62428 11.001483,-1.17987 7.859956,-0.74018 10.887467,-0.93701 11.327662,-0.73645 1.479222,0.67398 1.563275,3.15245 0.132874,3.91798 -0.282763,0.15132 -5.191363,0.75148 -10.908001,1.33366 -11.324794,1.15333 -10.880984,1.04129 -11.21687,2.83173 -0.113199,0.60339 -0.01328,1.24055 0.305313,1.94708 0.617765,1.36996 0.610558,2.59508 -0.01797,3.05467 -0.651108,0.4761 -0.823042,0.45595 -1.448739,-0.16974 z m 1.734246,-9.69391 c -0.08626,-0.34366 -0.273622,-0.62484 -0.41637,-0.62484 -0.372002,0 -0.320585,1.7802 0.07119,2.46478 0.317053,0.55403 0.334269,0.54085 0.41637,-0.31858 0.0471,-0.49308 0.01508,-1.17769 -0.07119,-1.52136 z m 6.070962,-0.39595 c 1.891771,-0.69787 3.26099,-1.27051 3.042708,-1.27254 -0.218281,-0.002 -2.06375,0.1689 -4.101041,0.37985 -2.037292,0.21095 -3.909579,0.38707 -4.160639,0.39138 -0.380122,0.007 -0.413314,0.12135 -0.198438,0.68651 0.14192,0.37328 0.258035,0.97165 0.258035,1.32972 0,0.65011 0.0013,0.65039 0.859896,0.20248 0.472943,-0.2467 2.407708,-1.01953 4.299479,-1.7174 z m 40.764737,5.70533 c -0.51399,-0.51399 -0.52333,-1.87683 -0.0189,-2.75922 0.47941,-0.83865 0.48556,-2.31881 0.0132,-3.175 -0.36284,-0.65767 -0.42575,-0.66771 -10.97829,-1.75168 -11.31244,-1.16204 -11.406278,-1.18302 -11.769746,-2.6312 -0.252079,-1.00435 0.479224,-2.4453 1.352312,-2.66457 0.409773,-0.10292 5.507544,0.25782 11.328374,0.80163 8.66234,0.80928 10.64336,1.06683 10.91406,1.41889 0.39978,0.51996 0.42936,1.88724 0.0617,2.85417 -0.27893,0.73364 0.0199,3.1463 0.58833,4.75088 0.46352,1.3083 0.5572,2.75646 0.20571,3.17998 -0.42316,0.50987 -1.17357,0.49931 -1.69677,-0.0239 z m 0.37392,-9.32328 c 0.002,-0.63031 -0.10515,-1.0726 -0.24017,-0.98915 -0.36325,0.2245 -0.61508,1.63819 -0.40803,2.29055 0.27011,0.85103 0.64321,0.10193 0.6482,-1.3014 z m -1.31887,0.36799 c 0,-0.49742 0.0645,-1.07255 0.14339,-1.27805 0.11607,-0.30247 -0.57691,-0.43474 -3.63803,-0.69438 -2.07977,-0.1764 -4.19812,-0.3785 -4.70744,-0.44912 -0.50932,-0.0706 0.50271,0.38948 2.24896,1.02242 1.74625,0.63294 3.71078,1.40013 4.36562,1.70487 1.58269,0.73652 1.5875,0.73559 1.5875,-0.30574 z"
         id="path366"
         inkscape:connector-curvature="0" />
      <path
         style="fill:#9c9c9c;stroke-width:0.26458332"
         d="m 58.586197,185.36463 -39.554655,-39.55532 39.621134,-39.62113 39.621132,-39.621135 39.621132,39.621135 39.62113,39.62113 -39.55465,39.55532 c -21.75506,21.75542 -39.614486,39.55532 -39.687612,39.55532 -0.07313,0 -17.932551,-17.7999 -39.687611,-39.55532 z M 137.49862,106.58539 98.406769,67.492863 59.181954,106.71701 19.957141,145.94115 59.048995,185.03368 98.140847,224.1262 137.36566,184.90206 176.59047,145.67791 Z M 63.645903,180.6962 C 44.710314,161.61188 29.217558,145.91362 29.217558,145.81117 c 0,-0.25407 68.804118,-69.587055 69.05625,-69.587055 0.252185,0 69.056252,69.333015 69.056252,69.587135 0,0.25392 -68.803339,69.5837 -69.055326,69.5837 -0.110265,0 -15.693239,-15.61444 -34.628831,-34.69875 z m 37.802907,23.80751 c 1.95345,-0.60139 3.17554,-2.33696 3.17401,-4.5076 -0.001,-1.56316 -0.60376,-2.8126 -1.70453,-3.53385 l -0.67245,-0.44061 0.624,-0.49084 c 0.91799,-0.72209 1.3111,-1.89877 1.15994,-3.47199 -0.11002,-1.14493 -0.28499,-1.51016 -1.06672,-2.22656 -1.17379,-1.0757 -2.40511,-1.42146 -5.068739,-1.42333 -3.713392,-0.003 -5.573638,1.42697 -5.573638,4.2833 0,1.3578 0.0897,1.59921 0.907957,2.44344 0.499375,0.51522 0.856562,0.97459 0.79375,1.02081 -0.06281,0.0462 -0.451575,0.29539 -0.863912,0.55371 -2.386584,1.49513 -1.784699,6.06096 0.987989,7.49478 1.6451,0.85071 5.056158,0.99026 7.302343,0.29874 z m -4.642236,-2.98736 c -1.392002,-1.392 -0.459798,-4.11307 1.409087,-4.11307 1.104238,0 2.030499,1.08626 2.030499,2.38125 0,2.07373 -2.060315,3.11109 -3.439586,1.73182 z m 0.144317,-7.28807 c -0.741463,-0.74146 -0.709861,-2.22468 0.05887,-2.76312 1.384599,-0.96981 2.851544,-0.19189 2.851544,1.51218 0,1.60459 -1.788179,2.37318 -2.910417,1.25094 z M 49.322865,157.05589 c 1.052938,-0.5445 2.024483,-2.03129 2.655837,-4.06433 0.769067,-2.47649 0.742103,-2.56548 -1.051616,-3.47095 -0.865592,-0.43695 -1.625764,-0.70655 -1.689269,-0.59912 -0.06351,0.10743 -0.198607,0.69784 -0.30022,1.31202 -0.50891,3.07598 -3.274751,3.36119 -4.090967,0.42185 -0.40203,-1.44778 -0.336033,-6.61705 0.100093,-7.83991 0.490098,-1.37419 1.144608,-2.033 2.019723,-2.033 0.842983,0 1.701072,0.92608 1.962975,2.1185 l 0.169283,0.77075 1.634948,-0.6139 c 1.820653,-0.68363 1.832398,-0.71775 1.055992,-3.0691 -0.801278,-2.42668 -2.102292,-3.71652 -4.113477,-4.07814 -2.435228,-0.43788 -4.921231,1.29138 -5.988096,4.1653 -1.48854,4.00983 -1.176986,11.24642 0.634145,14.72951 0.54023,1.03894 2.020492,2.3145 3.034925,2.61523 1.140442,0.33808 2.923842,0.17407 3.965724,-0.36471 z m 13.412774,-0.0422 c 1.216125,-0.57709 2.382607,-2.2695 3.072143,-4.45727 0.493665,-1.56631 0.583734,-2.46446 0.583734,-5.82084 0,-3.36122 -0.08979,-4.25415 -0.586586,-5.83318 -1.050325,-3.33839 -2.917439,-4.99648 -5.633262,-5.00262 -1.777746,-0.004 -2.949298,0.61496 -4.154387,2.19494 -2.840646,3.72434 -2.810079,13.63868 0.05362,17.39319 1.623274,2.12822 4.167661,2.71071 6.664735,1.52578 z m -3.844946,-4.94407 c -0.860415,-0.91587 -1.098135,-2.08634 -1.098135,-5.40693 0,-3.05125 0.302839,-4.37007 1.241724,-5.40753 0.942628,-1.04159 2.573777,-0.29168 3.250623,1.49446 0.903187,2.38343 0.499814,8.0056 -0.664514,9.26193 -0.804275,0.86783 -1.946145,0.89212 -2.729698,0.0581 z m 43.219577,5.35247 c 1.57581,-0.43291 3.10904,-2.16546 3.87192,-4.37528 0.56261,-1.62971 0.62599,-2.26873 0.62599,-6.31123 0,-3.98372 -0.0683,-4.69554 -0.59784,-6.22664 -1.07818,-3.11766 -2.76704,-4.56368 -5.35528,-4.58525 -2.710836,-0.0226 -4.28631,1.2862 -5.509032,4.5765 -0.522234,1.40532 -0.66988,2.39502 -0.772327,5.17706 -0.136294,3.70122 0.08647,5.46334 0.998938,7.90173 1.186875,3.1717 3.785713,4.65407 6.737631,3.84311 z m -2.893868,-5.40198 c -0.895842,-0.96663 -1.297813,-3.15172 -1.148855,-6.24512 0.08905,-1.84935 0.268428,-2.83155 0.652539,-3.57305 0.942578,-1.81959 2.743794,-1.84003 3.691864,-0.0419 0.52453,0.99482 0.79697,4.87261 0.50598,7.20165 -0.36088,2.88834 -2.23861,4.23692 -3.701528,2.65841 z m 16.123028,5.40035 c 2.37072,-0.65493 3.83646,-3.32759 3.83646,-6.99547 0,-3.65215 -1.13947,-5.36442 -4.65768,-6.99904 -1.33883,-0.62204 -2.19025,-1.18133 -2.26692,-1.48911 -0.22867,-0.91796 0.17397,-1.80177 0.94424,-2.07267 0.65118,-0.229 0.82269,-0.16982 1.37769,0.47541 0.34866,0.40533 0.63392,1.02799 0.63392,1.38367 0,0.55383 0.1235,0.64629 0.8599,0.6438 0.47294,-0.002 1.31221,-0.0777 1.86504,-0.16902 1.11389,-0.18407 1.11366,-0.18235 0.39845,-2.96198 -0.77869,-3.02639 -4.51535,-4.37618 -7.3472,-2.65404 -1.19335,0.72573 -2.20579,3.04193 -2.23451,5.11201 -0.0495,3.56651 0.89497,5.17068 3.89324,6.61279 1.07242,0.51581 2.15938,1.16937 2.41547,1.45234 1.03097,1.13921 0.30424,3.72331 -1.04711,3.72331 -0.90744,0 -1.64845,-0.82946 -2.0046,-2.24387 -0.27987,-1.11146 -0.3618,-1.19571 -1.16264,-1.19571 -0.47386,0 -1.24844,0.0774 -1.7213,0.17195 l -0.85975,0.17194 0.14984,1.45186 c 0.17748,1.71963 1.35454,4.19511 2.32975,4.89969 1.22529,0.88527 2.94102,1.13983 4.59771,0.68214 z m -42.994789,-4.46717 c 0,-3.4925 0.06615,-4.23333 0.377976,-4.23333 0.744228,0 1.190133,0.84721 2.263595,4.30078 0.599099,1.92743 1.139063,3.65326 1.19992,3.83516 0.07643,0.22842 0.776711,0.33073 2.263929,0.33073 1.757455,0 2.126617,-0.0695 2.008237,-0.37798 -0.07977,-0.20788 -0.525063,-1.66639 -0.989533,-3.24114 -0.922002,-3.12597 -1.3628,-4.15816 -2.138842,-5.00845 -0.504674,-0.55295 -0.503296,-0.56155 0.159838,-0.99606 1.193347,-0.78191 1.820108,-2.41701 1.939869,-5.06075 0.13458,-2.97088 -0.410488,-4.69817 -1.772132,-5.61578 -0.832839,-0.56125 -1.167667,-0.60193 -4.955108,-0.60193 h -4.061915 v 10.45104 10.45105 h 1.852083 1.852083 z m 0,-10.31875 v -2.11666 h 1.307915 c 1.547567,0 2.131669,0.59085 2.131669,2.15633 0,1.26159 -0.948862,2.077 -2.416932,2.077 h -1.022652 z m 13.229167,10.31875 c 0,-3.4925 0.06615,-4.23333 0.377976,-4.23333 0.744228,0 1.190133,0.84721 2.263595,4.30078 0.599099,1.92743 1.139063,3.65326 1.19992,3.83516 0.07643,0.22842 0.776711,0.33073 2.263928,0.33073 1.757455,0 2.126618,-0.0695 2.008238,-0.37798 -0.07977,-0.20788 -0.525063,-1.66639 -0.989534,-3.24114 -0.922001,-3.12597 -1.3628,-4.15816 -2.138841,-5.00845 -0.504674,-0.55295 -0.503296,-0.56155 0.159837,-0.99606 1.193348,-0.78191 1.820109,-2.41701 1.93987,-5.06075 0.13458,-2.97088 -0.410488,-4.69817 -1.772132,-5.61578 -0.832839,-0.56125 -1.167667,-0.60193 -4.955109,-0.60193 h -4.061915 v 10.45104 10.45105 h 1.852084 1.852083 z m 0,-10.31875 v -2.11666 h 1.307915 c 1.547566,0 2.131668,0.59085 2.131668,2.15633 0,1.26159 -0.948862,2.077 -2.416931,2.077 h -1.022652 z m 39.422912,4.10104 v -10.45104 h -1.85208 -1.85208 v 10.45104 10.45105 h 1.85208 1.85208 z m 10.57497,9.06198 c 0.16155,-0.76398 1.16226,-5.43718 2.2238,-10.38489 l 1.93008,-8.99584 -1.84004,-0.0784 c -1.01202,-0.0431 -1.87231,-0.0431 -1.91177,0 -0.0395,0.0431 -0.64679,3.33326 -1.34962,7.31143 -0.8029,4.54459 -1.35167,7.05235 -1.47642,6.74688 -0.1092,-0.2674 -0.67937,-3.22461 -1.26705,-6.57159 -0.58768,-3.34698 -1.13628,-6.41284 -1.21912,-6.81302 -0.14802,-0.71506 -0.18458,-0.72761 -2.11901,-0.72761 -1.90739,0 -1.96395,0.0184 -1.82502,0.59531 0.38007,1.57812 4.36454,19.93521 4.36458,20.10834 2e-5,0.10914 0.9441,0.19844 2.09795,0.19844 h 2.09791 z m 15.61878,-0.99218 v -2.38125 h -3.175 -3.175 v -1.98438 -1.98437 h 2.91042 2.91042 v -2.24896 -2.24896 h -2.91042 -2.91042 v -1.5791 -1.57911 l 3.10886,-0.0745 3.10885,-0.0745 0.0769,-2.18282 0.0768,-2.18281 h -5.17007 -5.17008 v 10.45104 10.45105 h 5.15938 5.15937 z m -1.33545,-24.80469 c -0.007,-0.10914 -11.61549,-11.86656 -25.79688,-26.12761 L 98.273808,77.943907 72.489472,103.87307 c -14.181384,14.26105 -25.789978,26.01847 -25.796875,26.12761 -0.0069,0.10914 23.204648,0.19844 51.581211,0.19844 28.376562,0 51.588102,-0.0893 51.581212,-0.19844 z m -41.90975,-3.43941 c -4.18998,-0.0655 -5.09125,-0.14927 -5.4901,-0.51023 -0.51222,-0.46355 -0.61536,-1.30941 -0.23327,-1.91298 0.14251,-0.2251 0.1241,-0.61772 -0.0465,-0.99218 -0.20303,-0.44561 -0.19782,-0.8052 0.0185,-1.28009 0.20922,-0.45919 0.22002,-0.87315 0.0354,-1.35863 -0.20094,-0.52852 -0.16801,-0.84696 0.1355,-1.31017 0.24757,-0.37784 0.30087,-0.67381 0.13932,-0.77365 -0.40871,-0.2526 -0.30702,-1.6348 0.15421,-2.09603 0.35476,-0.35476 0.98633,-0.39391 4.29948,-0.26652 3.14827,0.12105 3.78343,0.0874 3.35446,-0.17798 -0.58576,-0.3623 -1.21969,-1.15278 -1.51658,-1.89111 -0.32619,-0.8112 0.43648,-0.84305 5.19364,-0.21686 6.15672,0.81042 5.71566,0.65709 5.71566,1.98704 0,0.84694 0.15877,1.26498 0.65884,1.73478 0.95927,0.90118 1.8741,0.43214 2.30588,-1.18224 0.41723,-1.55999 0.98581,-1.56344 2.42178,-0.0147 1.02462,1.10509 1.20749,1.19292 2.81558,1.35224 l 1.71979,0.17039 -0.0801,3.67485 -0.0801,3.67484 h -1.92093 c -1.78898,0 -1.97316,0.0545 -2.68139,0.79375 l -0.76046,0.79375 -5.57289,-0.0599 c -3.06509,-0.033 -7.82871,-0.0952 -10.58581,-0.13833 z m 16.56394,-1.12465 c 0.88799,-0.84862 0.97558,-0.87506 3.00106,-0.9059 l 1.32291,-0.0201 0.0743,-3.07646 0.0743,-3.07647 -1.62723,-0.1177 c -1.56292,-0.11305 -1.67133,-0.16855 -2.74337,-1.40429 l -1.11614,-1.28659 -0.17924,0.89616 c -0.57927,2.89636 -3.8274,2.70408 -4.30051,-0.25457 -0.1298,-0.81174 -0.312,-1.10911 -0.73362,-1.1973 -1.29801,-0.27151 -8.71905,-1.19826 -8.81632,-1.10098 -0.0584,0.0584 0.16789,0.41605 0.50277,0.79488 0.45349,0.51299 1.17417,0.8216 2.82386,1.20922 2.25325,0.52945 2.62801,0.68431 2.34376,0.96856 -0.0878,0.0878 -2.7568,0.0478 -5.93108,-0.0889 -4.74702,-0.20446 -5.84105,-0.18495 -6.1638,0.10988 -0.29757,0.27183 -0.32296,0.46914 -0.10508,0.81651 0.24482,0.39032 0.9777,0.49287 4.95645,0.69354 4.35666,0.21972 4.66915,0.2697 4.66915,0.74664 0,0.45896 -0.14185,0.49611 -1.38906,0.36378 -0.76399,-0.0811 -2.93688,-0.17893 -4.82865,-0.21748 l -3.43958,-0.0701 v 0.66146 c 0,0.58107 0.1447,0.68319 1.19062,0.84028 0.65485,0.0984 2.0959,0.18765 3.20234,0.19844 3.28627,0.032 5.26433,0.30768 5.26433,0.7336 0,0.31543 -0.76002,0.34504 -4.85196,0.18903 -4.24508,-0.16184 -4.87159,-0.13382 -5.00891,0.22403 -0.0863,0.22496 -0.0163,0.59245 0.1556,0.81665 0.2504,0.32658 1.24647,0.44443 5.00891,0.59266 4.4124,0.17383 4.69636,0.21614 4.69636,0.69967 0,0.44372 -0.13674,0.49495 -0.99219,0.37174 -0.5457,-0.0786 -2.70468,-0.17837 -4.79773,-0.2217 -3.36566,-0.0697 -3.83901,-0.0261 -4.09509,0.37696 -0.72521,1.14143 0.40623,1.23832 17.2296,1.47546 l 3.77272,0.0532 z m -65.129152,-1.85209 v -2.64583 h 5.390885 5.390886 v 0.71281 c 0,1.57169 2.273654,2.44692 4.015973,1.54593 0.778557,-0.4026 1.077256,-0.88818 1.077256,-1.75121 0,-0.48845 0.283559,-0.50753 7.540625,-0.50753 h 7.540625 v 2.64583 2.64584 H 74.858183 59.380058 Z m 12.180141,-2.36385 c -0.384818,-0.71904 -0.339299,-1.34726 0.164217,-2.26636 0.400989,-0.73194 0.955661,-3.43714 0.895122,-4.36562 -0.01423,-0.21828 -0.09312,-1.15362 -0.1753,-2.07853 -0.08218,-0.9249 -0.04699,-1.78408 0.0782,-1.90927 0.238763,-0.23876 19.093088,-2.09762 21.276101,-2.09762 1.04807,0 1.354768,0.11811 1.810229,0.69714 0.742228,0.94359 0.702326,2.08338 -0.101063,2.88676 -0.357187,0.35719 -0.806942,0.64944 -0.999458,0.64944 -0.503314,0 -18.373585,1.80637 -19.717935,1.99314 -0.894287,0.12424 -1.207574,0.31382 -1.521354,0.9206 -0.499055,0.96507 -0.49439,2.35676 0.01013,3.0238 0.397462,0.5255 0.515305,1.89071 0.227862,2.63977 -0.232873,0.60686 -1.607304,0.54102 -1.946759,-0.0932 z m 1.989522,-9.44672 c -0.08626,-0.34366 -0.273622,-0.62484 -0.41637,-0.62484 -0.372002,0 -0.320585,1.7802 0.07119,2.46478 0.317053,0.55403 0.334269,0.54085 0.41637,-0.31858 0.0471,-0.49308 0.01508,-1.17769 -0.07119,-1.52136 z m 1.524293,1.44645 c 0.317855,-0.17047 2.244794,-0.93939 4.282086,-1.7087 2.037291,-0.7693 3.40651,-1.40126 3.042708,-1.40434 -0.363802,-0.003 -2.328333,0.167 -4.365625,0.37795 -2.037292,0.21095 -3.780809,0.38707 -3.874479,0.39138 -0.09367,0.004 -0.06159,0.49171 0.07129,1.08311 0.132879,0.59141 0.172728,1.18672 0.08855,1.32292 -0.206147,0.33356 0.05798,0.31177 0.755473,-0.0623 z m 45.311406,3.86293 c -0.52301,-0.52301 -0.53024,-1.60746 -0.0173,-2.59103 0.53191,-1.0199 0.49457,-2.80607 -0.0737,-3.52344 -0.42718,-0.5393 -1.14917,-0.64758 -11.01836,-1.65249 -11.809011,-1.20242 -11.531479,-1.12774 -11.531479,-3.10306 0,-1.30269 0.675516,-2.20593 1.653646,-2.21111 0.327422,-0.002 5.298283,0.43007 11.046353,0.95956 8.34198,0.76843 10.51778,1.04624 10.78177,1.37664 0.40469,0.50648 0.42829,1.87384 0.0495,2.87002 -0.31635,0.83207 0.0631,3.56079 0.70346,5.05852 0.68573,1.60388 0.27307,3.23217 -0.81914,3.23217 -0.1975,0 -0.54618,-0.1871 -0.77485,-0.41578 z m 0.50675,-9.87888 c -0.16608,-0.6617 -0.18462,-0.66752 -0.54721,-0.17164 -0.39764,0.5438 -0.50987,2.04146 -0.17787,2.37347 0.32352,0.32352 0.91108,-1.46072 0.72508,-2.20183 z m -1.37785,0.57122 c 0.0785,-0.69123 0.12371,-1.27347 0.10055,-1.29388 -0.0232,-0.0204 -1.53038,-0.17409 -3.3494,-0.34151 -1.81901,-0.16743 -3.9026,-0.36317 -4.6302,-0.43497 -1.16807,-0.11527 -0.95127,0.006 1.85208,1.0385 1.74625,0.64298 3.71078,1.41255 4.36562,1.71015 0.65485,0.29761 1.26444,0.54951 1.35466,0.55979 0.0902,0.0103 0.22823,-0.54686 0.30669,-1.23808 z"
         id="path364"
         inkscape:connector-curvature="0" />
      <path
         style="fill:#7c7c7c;stroke-width:0.26458332"
         d="m 58.652123,185.43056 -39.488732,-39.4894 39.621685,-39.62102 39.621685,-39.621027 39.488729,39.489397 39.48873,39.48939 -39.62168,39.62103 -39.621685,39.62102 z M 137.49862,106.58539 98.406769,67.492863 59.181954,106.71701 19.957141,145.94115 59.048995,185.03368 98.140847,224.1262 137.36566,184.90206 176.59047,145.67791 Z M 63.734504,180.71817 C 44.822945,161.64594 29.34985,145.93762 29.34985,145.81079 c 0,-0.25316 68.673202,-69.586675 68.923958,-69.586675 0.25056,0 68.923962,69.333405 68.923962,69.586375 0,0.25352 -68.671552,69.58446 -68.922655,69.58446 -0.08577,0 -15.629049,-15.60455 -34.540611,-34.67678 z m 38.508056,23.47081 c 1.55994,-0.7849 2.37097,-2.1794 2.3769,-4.08686 0.005,-1.58836 -0.45456,-2.66162 -1.48726,-3.47395 l -0.70843,-0.55725 0.53779,-0.59059 c 0.87087,-0.95638 1.13308,-1.66599 1.13308,-3.06644 0,-1.5842 -0.83141,-2.75 -2.50259,-3.50911 -1.640522,-0.74519 -5.466889,-0.69186 -7.030357,0.098 -1.538568,0.77726 -2.373302,2.03634 -2.373302,3.57977 0,1.27549 0.74567,2.79207 1.518637,3.08869 0.377285,0.14478 0.307451,0.28377 -0.434194,0.86419 -2.284836,1.78816 -2.148279,5.35218 0.279357,7.29103 1.714813,1.36954 6.30818,1.56117 8.690369,0.36254 z m -5.435986,-2.67263 c -0.477856,-0.47785 -0.649433,-0.9354 -0.649433,-1.73182 0,-2.54482 2.873219,-3.27221 3.8348,-0.97082 0.458699,1.09783 0.231279,2.17877 -0.595173,2.82886 -0.894236,0.70341 -1.804947,0.65903 -2.590194,-0.12622 z m 0.469294,-7.08439 c -1.240911,-0.59804 -1.044712,-2.76247 0.293061,-3.23294 1.198795,-0.42159 2.140122,0.26072 2.240235,1.62382 0.06522,0.88798 -0.03199,1.16978 -0.521893,1.51292 -0.690206,0.48344 -1.161151,0.50597 -2.011403,0.0962 z M 49.754601,156.7834 c 1.016847,-0.77559 1.866792,-2.28094 2.386629,-4.22699 0.551579,-2.0649 0.512305,-2.16429 -1.196004,-3.02664 -1.630064,-0.82285 -1.880193,-0.81039 -1.889728,0.0942 -0.01119,1.06205 -0.985401,2.77325 -1.677771,2.94702 -1.909223,0.47919 -2.625788,-0.82677 -2.766298,-5.04164 -0.114023,-3.42031 0.141498,-4.92082 1.030396,-6.05087 1.075119,-1.36679 2.844221,-0.59617 3.289919,1.43309 0.09438,0.42973 0.196231,0.78133 0.226325,0.78133 0.03009,0 0.764773,-0.27777 1.632622,-0.61726 1.44799,-0.56644 1.571265,-0.67775 1.497205,-1.3519 -0.148357,-1.35048 -1.14061,-3.58196 -1.996111,-4.48905 -1.134219,-1.20262 -2.743999,-1.63927 -4.551892,-1.23468 -3.360393,0.75202 -4.968481,4.27625 -4.958966,10.86789 0.0088,6.09965 1.655029,9.83776 4.672703,10.61038 1.420592,0.36372 3.314205,0.0578 4.300971,-0.69485 z m 13.432756,-0.055 c 2.152279,-1.52668 3.308093,-5.01291 3.32722,-10.03573 0.01741,-4.57049 -1.153385,-8.33063 -3.042566,-9.77158 -1.206738,-0.92042 -3.147883,-1.30032 -4.616571,-0.90349 -2.622799,0.70866 -4.23676,3.42738 -4.811628,8.1052 -0.581314,4.73025 0.42863,9.70152 2.397826,11.80289 1.811406,1.93299 4.67233,2.27343 6.745719,0.80271 z m -4.316365,-4.73573 c -0.871017,-1.10732 -1.137812,-2.62626 -1.038336,-5.91158 0.07532,-2.48769 0.192423,-3.2201 0.635415,-3.9743 1.06897,-1.81993 2.85092,-1.59181 3.766251,0.48215 0.639908,1.4499 0.619353,6.62593 -0.03303,8.31681 -0.73704,1.9103 -2.28518,2.41557 -3.3303,1.08692 z m 44.270748,4.98206 c 1.17692,-0.68736 2.46571,-2.50709 3.00114,-4.23749 0.3668,-1.18542 0.4653,-2.45601 0.4653,-6.0017 0,-5.11788 -0.33287,-6.72179 -1.79209,-8.63496 -1.24954,-1.63825 -2.37062,-2.20998 -4.33668,-2.2116 -1.388039,-0.001 -1.797577,0.11683 -2.750665,0.7924 -1.407819,0.99789 -2.530559,2.97154 -3.029143,5.32487 -0.512416,2.4186 -0.50396,7.31877 0.01659,9.6074 0.454872,1.99993 1.727425,4.32757 2.796368,5.11489 1.43722,1.05856 4.04309,1.17252 5.62919,0.24619 z m -3.936779,-4.96701 c -1.634884,-1.76407 -1.607878,-8.47852 0.04199,-10.43927 1.299089,-1.54389 2.965649,-0.60967 3.547069,1.98837 0.4324,1.93217 0.20344,6.6183 -0.37792,7.73494 -0.79558,1.52811 -2.1737,1.83538 -3.211139,0.71596 z m 16.128509,5.41292 c 2.60856,-0.7242 3.9906,-3.51573 3.79245,-7.66022 -0.0953,-1.99334 -0.22068,-2.49832 -0.89325,-3.59788 -0.68801,-1.1248 -1.09318,-1.43293 -3.35916,-2.55468 -2.49438,-1.2348 -2.57679,-1.304 -2.57679,-2.16391 0,-0.89131 0.55434,-1.71986 1.15066,-1.71986 0.68293,0 1.48201,0.85136 1.65261,1.76075 l 0.17856,0.9518 1.69891,-0.13638 c 0.9344,-0.075 1.76004,-0.1975 1.83475,-0.27222 0.0747,-0.0747 -0.008,-0.86939 -0.18486,-1.76595 -0.59407,-3.01963 -2.11341,-4.37897 -4.87542,-4.36202 -0.98319,0.006 -1.91526,0.18458 -2.44852,0.46905 -2.74201,1.46271 -3.52434,6.97834 -1.40481,9.90427 0.51196,0.70674 1.41233,1.37769 2.85823,2.12993 2.47087,1.28548 2.76781,1.58491 2.76781,2.79094 0,1.12187 -0.41976,1.9364 -1.11097,2.15578 -1.22554,0.38897 -2.11831,-0.52234 -2.48176,-2.53329 -0.18565,-1.02716 -0.15402,-1.02021 -2.77978,-0.61139 l -0.89563,0.13945 0.17019,1.63495 c 0.1956,1.87906 1.21754,4.17449 2.12247,4.76743 1.3592,0.89058 3.11299,1.13745 4.78431,0.67345 z m -42.988829,-4.46739 c 0,-3.36977 0.07259,-4.23333 0.355868,-4.23333 0.700267,0 1.198504,0.97976 2.354593,4.63021 l 1.173101,3.70416 2.180596,0.0772 c 1.989764,0.0704 2.168683,0.0357 2.044475,-0.39688 -1.61058,-5.60909 -2.779871,-8.53588 -3.416737,-8.55224 -0.179448,-0.005 0.01635,-0.26375 0.435139,-0.57586 1.275795,-0.95085 2.011368,-2.91304 2.012654,-5.36888 0.0013,-2.60814 -0.333849,-3.87843 -1.312855,-4.97504 l -0.755089,-0.8458 -4.387956,-0.0839 -4.387955,-0.084 v 10.46885 10.46885 h 1.852083 1.852083 z m 0,-10.31875 v -2.11666 h 1.307915 c 1.051624,0 1.388621,0.11522 1.719792,0.58803 1.112946,1.58896 0.0088,3.6453 -1.957348,3.6453 h -1.070359 z m 13.229167,10.31875 c 0,-3.36977 0.07259,-4.23333 0.355867,-4.23333 0.700268,0 1.198505,0.97976 2.354593,4.63021 l 1.173102,3.70416 2.180595,0.0772 c 1.989765,0.0704 2.168684,0.0357 2.044475,-0.39688 -1.610579,-5.60909 -2.779871,-8.53588 -3.416736,-8.55224 -0.179448,-0.005 0.01635,-0.26375 0.435139,-0.57586 1.275794,-0.95085 2.011368,-2.91304 2.012654,-5.36888 0.0013,-2.60814 -0.333849,-3.87843 -1.312855,-4.97504 l -0.755089,-0.8458 -4.387956,-0.0839 -4.387956,-0.084 v 10.46885 10.46885 h 1.852084 1.852083 z m 0,-10.31875 v -2.11666 h 1.307915 c 1.051623,0 1.38862,0.11522 1.719791,0.58803 1.112946,1.58896 0.0088,3.6453 -1.957347,3.6453 h -1.070359 z m 39.422912,4.10104 V 136.2845 h -1.85208 -1.85208 v 10.45104 10.45105 h 1.85208 1.85208 z m 10.40991,9.85573 c 0.0817,-0.32742 1.05086,-4.82203 2.15373,-9.98802 1.10286,-5.16599 2.06899,-9.60107 2.14695,-9.85573 0.12619,-0.41222 -0.0745,-0.46302 -1.82922,-0.46302 h -1.97096 l -0.43644,2.4474 c -1.95988,10.99036 -2.20624,12.19693 -2.36355,11.57552 -0.0921,-0.3638 -0.58739,-3.04271 -1.10066,-5.95313 -0.51326,-2.91041 -1.05872,-5.91674 -1.21212,-6.68073 l -0.2789,-1.38906 h -1.9943 c -1.99237,0 -1.99414,5.3e-4 -1.82915,0.65803 0.22683,0.90374 4.39013,19.99782 4.39013,20.13435 0,0.0603 0.93959,0.10971 2.08798,0.10971 1.94493,0 2.09817,-0.0408 2.23651,-0.59532 z m 15.78384,-1.78593 v -2.38125 h -3.175 -3.175 v -1.98438 -1.98437 h 2.91042 2.91042 v -2.24896 -2.24896 h -2.91042 -2.91042 v -1.5875 -1.5875 h 3.175 3.175 v -2.24896 -2.24896 h -5.15937 -5.15938 v 10.45104 10.45105 h 5.15938 5.15937 z M 130.60312,110.42151 C 119.82633,99.543829 108.14354,87.787337 104.64138,84.295974 l -6.367572,-6.347932 -6.367571,6.347932 C 88.404072,87.787337 76.721289,99.543829 65.944497,110.42151 L 46.350329,130.19912 H 98.273808 150.19729 Z M 108.037,126.50594 c -5.49749,-0.1519 -6.05903,-0.28588 -6.05903,-1.44568 0,-0.31688 0.14047,-0.71661 0.31216,-0.8883 0.23982,-0.23982 0.22652,-0.47216 -0.0574,-1.00264 -0.32066,-0.59917 -0.3151,-0.78535 0.042,-1.40766 0.36235,-0.63134 0.36547,-0.78664 0.026,-1.29783 -0.33911,-0.51072 -0.33674,-0.65516 0.0196,-1.19905 0.26256,-0.40071 0.32158,-0.75045 0.16769,-0.99358 -0.38452,-0.6075 -0.28103,-1.45175 0.23523,-1.91896 0.41935,-0.37951 0.96803,-0.41297 4.29248,-0.26174 l 3.81165,0.17339 -0.95443,-0.838 c -1.09093,-0.95785 -1.44741,-1.84809 -0.83425,-2.08338 0.22285,-0.0855 2.3865,0.11126 4.8081,0.4373 6.40467,0.86229 5.85813,0.67265 5.85813,2.03259 0,2.24371 1.82996,2.9911 2.78791,1.13863 0.2129,-0.41171 0.38709,-0.99259 0.38709,-1.29086 0,-1.11279 1.48676,-0.42672 2.53188,1.16835 0.34716,0.52983 0.71058,0.65649 2.31342,0.80633 l 1.90157,0.17775 -0.0801,3.67972 -0.0801,3.67971 h -1.86936 c -1.69977,0 -1.95136,0.072 -2.77338,0.79375 l -0.90403,0.79375 -5.34861,-0.0551 c -2.94173,-0.0303 -7.6822,-0.11963 -10.53437,-0.19844 z m 16.62208,-1.12673 c 0.82139,-0.79612 0.98901,-0.84787 2.59228,-0.80036 l 1.71411,0.0508 v -3.16839 -3.16839 l -1.25677,-0.009 c -1.48698,-0.0111 -2.06706,-0.30821 -3.2421,-1.66058 l -0.87625,-1.0085 -0.34521,1.0085 c -0.9346,2.7304 -3.71665,2.42331 -4.20448,-0.4641 -0.13129,-0.77712 -0.32178,-1.07421 -0.74806,-1.16671 -1.6374,-0.3553 -8.72809,-1.19897 -8.8715,-1.05555 -0.0917,0.0917 0.19274,0.4879 0.63209,0.88045 0.56875,0.50818 1.42595,0.84851 2.97638,1.18168 1.19767,0.25736 2.17757,0.58118 2.17757,0.7196 0,0.28734 -1.8317,0.29011 -7.67292,0.0116 -4.20969,-0.20071 -4.7625,-0.10973 -4.7625,0.78377 0,0.66504 0.34107,0.72434 5.35782,0.9315 4.13659,0.17082 4.43177,0.21698 4.43177,0.69302 0,0.4461 -0.14089,0.49204 -1.12448,0.36665 -0.61846,-0.0788 -2.79136,-0.17543 -4.82865,-0.21465 l -3.70416,-0.0713 v 0.65697 c 0,0.55879 0.15815,0.68501 1.05833,0.84465 0.58208,0.10322 2.02313,0.19453 3.20233,0.20292 3.38568,0.0241 5.39663,0.29582 5.39663,0.72924 0,0.31543 -0.76002,0.34504 -4.85196,0.18903 -4.54443,-0.17326 -4.86367,-0.15445 -5.0368,0.29672 -0.36266,0.94506 0.33102,1.12876 5.12626,1.35751 3.71615,0.17727 4.63021,0.29493 4.63021,0.59599 0,0.30876 -0.5851,0.35857 -3.3073,0.28153 -6.04044,-0.17093 -6.13096,-0.16633 -6.44531,0.32826 -0.72692,1.14368 0.2696,1.22865 17.28063,1.47358 l 3.82387,0.0551 z m -65.279022,-1.79468 v -2.64583 h 5.441789 c 5.327922,0 5.438261,0.0111 5.273227,0.53108 -0.120295,0.37902 0.05816,0.7578 0.623277,1.32292 0.650986,0.65098 1.00938,0.79183 2.014839,0.79183 1.426509,0 2.521868,-0.85668 2.521868,-1.97235 v -0.67348 h 7.540625 7.540625 v 2.64583 2.64584 H 74.858183 59.380058 Z m 12.144364,-2.57969 c -0.220403,-0.57695 -0.169119,-1.00151 0.247693,-2.05052 0.796382,-2.00428 0.969597,-3.61797 0.695812,-6.48229 -0.0765,-0.80036 -0.04303,-1.59786 0.07438,-1.77222 0.139049,-0.20648 3.682735,-0.64468 10.163571,-1.25677 11.531852,-1.08915 12.155239,-1.1125 12.728179,-0.47674 0.978476,1.08577 0.760351,3.01356 -0.396087,3.50062 -0.330343,0.13914 -4.827344,0.67404 -9.993334,1.18868 -11.96943,1.1924 -11.3021,1.07896 -11.779692,2.00252 -0.495453,0.9581 -0.48892,2.35093 0.01416,3.01604 0.468511,0.61943 0.512016,2.29973 0.07096,2.74079 -0.586036,0.58603 -1.525736,0.37494 -1.825636,-0.41011 z m 2.03584,-9.48912 c -0.07737,-0.20163 -0.263478,-0.3666 -0.413568,-0.3666 -0.382495,0 -0.341008,1.76783 0.05784,2.46478 0.306541,0.53565 0.336788,0.49347 0.413568,-0.57682 0.04556,-0.63512 0.01953,-1.31973 -0.05784,-1.52136 z m 2.13588,1.45401 c 0.703289,-0.30835 2.707458,-1.07626 4.453708,-1.70647 3.650467,-1.31742 3.462731,-1.37838 -2.38125,-0.77327 -2.037292,0.21095 -3.74096,0.38602 -3.785929,0.38905 -0.04497,0.003 -0.01476,0.1139 0.06712,0.24639 0.08189,0.13249 0.167962,0.72781 0.19128,1.32292 0.02331,0.59511 0.07254,1.08202 0.109382,1.08202 0.03684,0 0.6424,-0.25229 1.345686,-0.56064 z m 44.685378,3.94135 c -0.516,-0.73669 -0.51993,-1.44749 -0.0134,-2.41877 0.5045,-0.96735 0.50871,-2.79887 0.008,-3.51363 -0.44097,-0.62957 0.49233,-0.49369 -12.40895,-1.80661 -6.43669,-0.65504 -9.137482,-1.0283 -9.591144,-1.32556 -0.913075,-0.59826 -0.897316,-2.44084 0.02831,-3.31042 l 0.659794,-0.61984 10.65114,0.98823 c 5.85813,0.54352 10.85123,1.04522 11.09578,1.11488 0.80857,0.23033 0.92372,2.78403 0.16791,3.72378 -0.16037,0.1994 -0.15875,0.4888 0.004,0.79375 0.14126,0.26396 0.3458,1.07327 0.45454,1.79846 0.10874,0.72518 0.35862,1.70362 0.55528,2.17431 0.47316,1.13242 0.4521,2.06338 -0.0582,2.57368 -0.57485,0.57486 -1.06865,0.5201 -1.5536,-0.17226 z m 0.49918,-8.67238 c 0.1513,-0.88404 -0.1778,-1.87979 -0.51111,-1.54648 -0.26974,0.26975 -0.47457,2.02872 -0.29173,2.5052 0.23792,0.62001 0.60836,0.17765 0.80284,-0.95872 z m -1.36638,-0.46302 c 0.0785,-0.69123 0.1233,-1.27703 0.0996,-1.30179 -0.0992,-0.10376 -8.98773,-0.88621 -9.07507,-0.79887 -0.0526,0.0526 1.06555,0.49304 2.48476,0.97878 1.41921,0.48575 3.35428,1.21539 4.30017,1.62143 0.94588,0.40603 1.7936,0.74252 1.88382,0.74773 0.0902,0.005 0.22823,-0.55606 0.30669,-1.24728 z"
         id="path362"
         inkscape:connector-curvature="0" />
      <path
         style="fill:#5d5d5d;stroke-width:0.26458332"
         d="m 58.652123,185.43056 -39.488732,-39.4894 39.621685,-39.62102 39.621685,-39.621027 39.488729,39.489397 39.48873,39.48939 -39.62168,39.62103 -39.621685,39.62102 z M 137.49862,106.58539 98.406769,67.492863 59.181954,106.71701 19.957141,145.94115 59.048995,185.03368 98.140847,224.1262 137.36566,184.90206 176.59047,145.67791 Z M 63.734264,180.71691 C 44.822836,161.64398 29.34985,145.93609 29.34985,145.81047 c 0,-0.25014 68.675972,-69.586355 68.923728,-69.586355 0.249385,0 68.924192,69.334585 68.924192,69.586365 0,0.25321 -68.673396,69.58447 -68.924203,69.58447 -0.08519,0 -15.627874,-15.60512 -34.539303,-34.67804 z m 38.289766,23.63094 c 2.93881,-1.29997 3.69761,-4.97163 1.51647,-7.33789 l -1.02391,-1.11081 0.64905,-0.60976 c 1.49318,-1.40276 1.4883,-3.6155 -0.0116,-5.27574 -1.10935,-1.22791 -2.67579,-1.73976 -5.285474,-1.72707 -2.266087,0.011 -4.177776,0.84215 -5.084461,2.21052 -1.049358,1.58369 -0.63455,4.3253 0.767996,5.07592 0.555969,0.29755 0.551868,0.31195 -0.272569,0.95717 -1.121055,0.87735 -1.620297,1.91941 -1.620297,3.38199 0,2.35483 1.367335,4.16652 3.625807,4.80412 1.75736,0.49613 5.211408,0.30728 6.738998,-0.36845 z m -5.020045,-2.71856 c -1.063617,-0.99091 -1.08458,-2.66536 -0.04636,-3.70357 1.23071,-1.23071 3.168265,-0.094 3.168265,1.85881 0,1.96409 -1.831905,3.04658 -3.121902,1.84476 z m 0.133893,-7.40526 c -0.871935,-0.68586 -0.95594,-1.87263 -0.186987,-2.64158 1.078595,-1.0786 2.910417,-0.27778 2.910417,1.27235 0,1.58514 -1.494028,2.33628 -2.72343,1.36923 z M 48.871369,157.35301 c 0.468267,-0.19953 1.112409,-0.64636 1.431422,-0.99297 0.815287,-0.8858 1.90105,-3.36061 2.094913,-4.775 l 0.163523,-1.19303 -1.481368,-0.83603 c -1.699165,-0.95895 -2.017972,-1.01782 -2.020027,-0.37301 -0.0029,0.90823 -0.57041,2.49011 -1.074037,2.99374 -1.14658,1.14658 -2.646546,0.25228 -3.13522,-1.86926 -0.411649,-1.78715 -0.348017,-5.78453 0.117008,-7.35043 0.409196,-1.37791 1.159692,-2.17457 2.048565,-2.17457 0.663448,0 1.681906,1.16028 1.877681,2.13917 0.179332,0.89665 0.273077,0.89461 2.489264,-0.0543 1.270508,-0.54398 1.275384,-0.6026 0.276087,-3.3197 -0.663231,-1.80334 -1.396984,-2.69448 -2.709367,-3.29054 -2.894307,-1.31452 -5.949273,0.1974 -7.246066,3.58613 -1.247461,3.25982 -1.396887,9.15038 -0.32047,12.63333 0.605415,1.95894 1.839563,4.01123 2.683884,4.4631 1.529529,0.81858 3.462797,0.98491 4.804208,0.41335 z m 13.693772,-0.23254 c 1.375318,-0.69353 2.679568,-2.47025 3.321066,-4.52412 0.566259,-1.81299 0.795682,-7.49624 0.397941,-9.85783 -0.423867,-2.51673 -1.657014,-4.96839 -2.981679,-5.92797 -2.745206,-1.98862 -6.359882,-0.92259 -8.004217,2.36058 -1.011545,2.01971 -1.341597,3.88067 -1.341597,7.56444 0,3.68039 0.331992,5.55567 1.334963,7.54063 1.548628,3.06486 4.526698,4.22941 7.273523,2.84427 z m -3.251234,-4.71755 c -1.112835,-0.64817 -1.389057,-1.77516 -1.389057,-5.66735 0,-3.25929 0.06523,-3.81521 0.543147,-4.62875 0.744503,-1.26735 1.743705,-1.59591 2.69853,-0.88734 0.399892,0.29675 0.887921,1.00443 1.084512,1.57261 0.42314,1.22295 0.462078,6.41026 0.05822,7.75616 -0.525143,1.75012 -1.809502,2.54537 -2.995356,1.85467 z m 42.970883,5.00437 c 1.36609,-0.4093 2.91796,-2.12943 3.6243,-4.01727 1.30782,-3.49547 1.31432,-9.79606 0.0137,-13.27232 -1.31292,-3.50908 -4.39873,-5.17472 -7.323125,-3.95283 -1.316262,0.54997 -2.103813,1.32637 -2.867779,2.8272 -1.097703,2.15645 -1.447692,4.02848 -1.447692,7.7435 0,3.71502 0.349989,5.58705 1.447692,7.74351 1.373015,2.69731 3.761391,3.76457 6.552914,2.92821 z m -2.732767,-4.99237 c -0.920602,-0.53722 -1.411367,-2.57928 -1.396706,-5.81164 0.01535,-3.38415 0.382114,-4.66753 1.553162,-5.43483 0.952061,-0.62381 2.074641,-0.14039 2.691211,1.15893 0.60133,1.2672 0.81115,5.46801 0.37746,7.55708 -0.48078,2.31589 -1.80814,3.35735 -3.225127,2.53046 z m 15.901537,5.04149 c 3.40611,-0.97686 5.01445,-7.02907 2.9456,-11.08434 -0.63095,-1.23678 -1.48775,-1.891 -3.91412,-2.98867 -0.98529,-0.44574 -1.87891,-0.94542 -1.98583,-1.11038 -0.3371,-0.52016 -0.21905,-1.70079 0.21329,-2.13313 0.82884,-0.82884 1.79707,-0.29326 2.34355,1.29635 0.35709,1.03869 0.36494,1.04334 1.64401,0.9746 2.20332,-0.11841 2.28957,-0.18385 2.08044,-1.57846 -0.43519,-2.90201 -1.81963,-4.63605 -3.9573,-4.95661 -2.51495,-0.37714 -4.37322,0.53136 -5.43689,2.6581 -0.55444,1.10857 -0.65949,1.68639 -0.6493,3.5715 0.0189,3.49654 0.86862,4.78058 4.2773,6.46354 1.04952,0.51818 2.03178,1.17303 2.18281,1.45524 0.73266,1.36897 -0.0327,3.4583 -1.26678,3.4583 -0.73133,0 -1.57091,-1.05513 -1.85857,-2.33571 -0.14147,-0.62979 -0.29756,-1.17703 -0.34686,-1.21609 -0.13859,-0.10979 -3.35431,0.24533 -3.48853,0.38524 -0.2701,0.28159 0.41975,3.39594 1.03265,4.66189 1.12177,2.31703 3.46854,3.25756 6.18453,2.47863 z m -43.108919,-4.37084 c 0,-3.48058 0.07214,-4.36562 0.355868,-4.36562 0.702265,0 1.192694,0.98552 2.402895,4.82864 l 1.228934,3.90261 h 2.107195 c 1.334016,0 2.107192,-0.10497 2.107192,-0.28609 0,-0.50277 -1.821924,-6.31629 -2.362423,-7.53818 -0.286551,-0.6478 -0.699701,-1.24639 -0.918109,-1.3302 -0.303469,-0.11645 -0.157168,-0.38086 0.620474,-1.12135 1.241896,-1.18258 1.694728,-2.61447 1.695456,-5.36119 5.29e-4,-1.60136 -0.130329,-2.27223 -0.641914,-3.29355 -1.088964,-2.174 -1.478087,-2.32801 -6.202328,-2.45494 l -4.097406,-0.11009 v 10.74779 10.7478 h 1.852083 1.852083 z m 0.198438,-8.48612 c -0.109141,-0.11056 -0.198438,-1.07415 -0.198438,-2.14131 v -1.94027 h 1.307915 c 1.051624,0 1.388621,0.11522 1.719792,0.58803 0.547806,0.78211 0.52229,2.12741 -0.05385,2.8389 -0.475496,0.58722 -2.395059,1.03999 -2.775421,0.65465 z m 13.030729,8.48612 c 0,-3.48058 0.07214,-4.36562 0.355867,-4.36562 0.702265,0 1.192694,0.98552 2.402896,4.82864 l 1.228934,3.90261 h 2.107194 c 1.334016,0 2.107192,-0.10497 2.107192,-0.28609 0,-0.50277 -1.821923,-6.31629 -2.362422,-7.53818 -0.286552,-0.6478 -0.699701,-1.24639 -0.918109,-1.3302 -0.30347,-0.11645 -0.157168,-0.38086 0.620474,-1.12135 1.241896,-1.18258 1.694728,-2.61447 1.695455,-5.36119 5.29e-4,-1.60136 -0.130328,-2.27223 -0.641913,-3.29355 -1.088964,-2.174 -1.478087,-2.32801 -6.202328,-2.45494 l -4.097407,-0.11009 v 10.74779 10.7478 h 1.852084 1.852083 z m 0.198437,-8.48612 c -0.10914,-0.11056 -0.198437,-1.07415 -0.198437,-2.14131 v -1.94027 h 1.307915 c 1.051623,0 1.38862,0.11522 1.719791,0.58803 0.547807,0.78211 0.522291,2.12741 -0.05385,2.8389 -0.475495,0.58722 -2.395058,1.03999 -2.775421,0.65465 z m 39.356775,2.13612 v -10.58333 l -1.91823,-0.0777 -1.91823,-0.0777 v 10.7388 10.73881 l 1.91823,-0.0777 1.91823,-0.0777 z m 10.18645,10.6202 c 0,-0.0525 1.01204,-4.8142 2.24896,-10.58158 1.23693,-5.76738 2.24896,-10.54647 2.24896,-10.62019 0,-0.0737 -0.83638,-0.13405 -1.85863,-0.13405 -1.68811,0 -1.87813,0.0546 -2.07116,0.59531 -0.11689,0.32742 -0.73807,3.60654 -1.3804,7.28694 -0.68737,3.93844 -1.24409,6.49664 -1.35312,6.21771 -0.10188,-0.26066 -0.61334,-2.9147 -1.13658,-5.89788 -0.52324,-2.98318 -1.07435,-6.04903 -1.22469,-6.81302 l -0.27335,-1.38906 h -1.96562 c -1.14787,0 -1.96562,0.11125 -1.96562,0.26741 0,0.49178 4.45674,20.61856 4.62643,20.89314 0.14919,0.24139 4.10482,0.41028 4.10482,0.17527 z m 16.0073,-2.41811 v -2.38125 l -3.24115,-0.0743 -3.24115,-0.0743 v -1.97623 -1.97623 h 2.91042 2.91042 v -2.24896 -2.24896 h -2.91042 -2.91042 v -1.5875 -1.5875 h 3.1853 3.18531 l -0.0765,-2.31511 -0.0764,-2.3151 h -5.02708 -5.02708 l -0.0693,10.31812 c -0.0381,5.67496 -0.0111,10.46981 0.0601,10.65521 0.0999,0.26045 1.28884,0.32075 5.22868,0.26522 l 5.09934,-0.0719 z M 130.86765,110.68609 C 120.23636,99.953933 108.55358,88.197404 104.90592,84.560475 l -6.632112,-6.612599 -6.632112,6.612599 C 87.994034,88.197404 76.311253,99.953933 65.679962,110.68609 l -19.32962,19.51303 h 51.923466 51.923462 z m -21.37517,15.82162 c -7.07017,-0.15443 -7.51451,-0.24123 -7.51451,-1.46797 0,-0.32817 0.17419,-0.74122 0.38708,-0.91791 0.3382,-0.28068 0.33163,-0.40586 -0.052,-0.99143 -0.40725,-0.62154 -0.40767,-0.72497 -0.006,-1.42503 0.24946,-0.43465 0.32765,-0.82009 0.18434,-0.90867 -0.33199,-0.20518 -0.31925,-1.63536 0.0164,-1.84282 0.17734,-0.1096 0.17734,-0.32831 0,-0.65968 -0.38755,-0.72414 -0.32472,-1.47473 0.15691,-1.87444 0.31134,-0.2584 1.30136,-0.3334 3.77031,-0.28562 1.84146,0.0356 3.76482,0.11929 4.27414,0.1859 l 0.92605,0.12112 -0.8325,-0.38664 c -1.54187,-0.71611 -2.62617,-2.78874 -1.45892,-2.78874 0.26768,0 2.61916,0.29758 5.22552,0.66128 2.60635,0.3637 4.83039,0.66135 4.9423,0.66145 0.11191,1.1e-4 0.13302,0.28094 0.0469,0.62407 -0.0861,0.34313 0.0228,1.05327 0.2421,1.57808 0.77964,1.86595 2.6471,1.4536 2.98493,-0.6591 0.21736,-1.35925 0.71146,-1.30585 2.1432,0.2316 1.11497,1.19729 1.22561,1.24949 2.87003,1.3542 l 1.71035,0.10891 -0.0734,3.60673 -0.0734,3.60674 -1.76905,0.0239 c -1.59133,0.0215 -1.8647,0.10789 -2.72118,0.85989 l -0.95214,0.83598 -3.8934,-0.0534 c -2.14137,-0.0294 -6.88171,-0.11866 -10.5341,-0.19843 z m 15.10737,-1.07109 c 0.69925,-0.72986 0.90555,-0.79375 2.56304,-0.79375 h 1.80258 v -3.16187 -3.16186 l -1.62603,-0.18396 c -1.63467,-0.18494 -1.76261,-0.26168 -3.1096,-1.86506 l -0.63459,-0.75538 -0.35977,1.05833 c -0.41116,1.20952 -1.21445,1.98821 -2.03838,1.97596 -1.10293,-0.0164 -2.02121,-1.19862 -2.02121,-2.60219 0,-0.52897 -0.15429,-0.83721 -0.46302,-0.92504 -1.10027,-0.31302 -9.11499,-1.26204 -9.27838,-1.09865 -0.0991,0.0991 0.18382,0.50528 0.62861,0.90271 0.57985,0.51809 1.42936,0.85669 3.00165,1.1964 3.56412,0.77008 2.31671,0.99364 -3.89334,0.69779 -3.07764,-0.14662 -5.7766,-0.19717 -5.9977,-0.11233 -0.41386,0.15882 -0.56153,1.29073 -0.19772,1.51558 0.11235,0.0694 1.92805,0.201 4.0349,0.29238 4.51877,0.19599 5.55042,0.32972 5.55042,0.71946 0,0.20543 -1.37269,0.23411 -4.74184,0.0991 -4.57989,-0.18356 -4.75155,-0.17188 -5.02655,0.34196 -0.51069,0.95424 0.26049,1.36233 2.57739,1.36389 4.03376,0.003 7.191,0.31567 7.191,0.71279 0,0.30535 -0.58772,0.34297 -3.37344,0.21593 -1.85539,-0.0846 -3.91498,-0.21036 -4.57685,-0.27942 -1.49126,-0.15561 -2.40218,0.36899 -1.94439,1.11977 0.33901,0.55597 2.14859,0.79597 6.36731,0.84447 2.79737,0.0321 3.52737,0.16209 3.52737,0.62788 0,0.18809 -1.55705,0.2164 -4.89737,0.0891 -4.46038,-0.17005 -4.91269,-0.14676 -5.06919,0.26106 -0.0945,0.24628 -0.0508,0.63995 0.0971,0.87483 0.289,0.45896 3.99229,0.63816 15.83923,0.76645 l 5.30831,0.0575 z m -65.219792,-1.85209 v -2.64583 h 5.399188 c 5.054984,0 5.391304,0.0302 5.275511,0.47294 -0.06802,0.26012 0.129207,0.79444 0.43829,1.18738 1.387941,1.76448 4.762011,1.12143 4.762011,-0.90758 v -0.75274 h 7.540625 7.540625 v 2.64583 2.64584 H 74.858183 59.380058 Z m 12.266927,-2.24788 c -0.188727,-0.49181 0.0048,-2.12104 0.377368,-3.17608 0.534733,-1.51446 0.846272,-3.87719 0.577458,-4.37947 -0.30035,-0.56121 -0.33737,-2.63114 -0.05468,-3.05737 0.171929,-0.25923 19.366335,-2.22999 21.650774,-2.22297 1.093933,0.003 1.755159,0.78147 1.789896,2.10628 0.0498,1.89913 0.311986,1.82967 -11.491815,3.04465 -10.14042,1.04377 -10.653664,1.12249 -11.126488,1.7064 -0.600983,0.74218 -0.647975,2.31771 -0.100444,3.36755 0.476676,0.91399 0.517017,2.2533 0.08101,2.68931 -0.445357,0.44536 -1.521105,0.3959 -1.703073,-0.0783 z m 2.061721,-7.87243 c 0.07846,-1.13503 -0.07638,-1.92013 -0.454702,-2.30566 -0.331579,-0.33788 -0.380196,-0.23069 -0.380196,0.83826 0,1.34629 0.193622,2.06271 0.557474,2.06271 0.129951,0 0.254794,-0.26789 0.277424,-0.59531 z m 3.570811,-1.08409 c 1.578682,-0.63262 3.681611,-1.41877 4.673172,-1.74698 0.99156,-0.32822 1.765466,-0.63093 1.719791,-0.67269 -0.126044,-0.11525 -9.440886,0.79738 -9.551082,0.93577 -0.109995,0.13814 0.08729,2.63414 0.208198,2.63414 0.04377,0 1.371237,-0.51761 2.949921,-1.15024 z m 42.941523,4.30059 c -0.33351,-0.62316 -0.1771,-1.55899 0.46761,-2.79781 0.36554,-0.70239 0.38563,-1.00224 0.12405,-1.85208 -0.17167,-0.5577 -0.40711,-1.16004 -0.52322,-1.33853 -0.13945,-0.21436 -3.71913,-0.68587 -10.54575,-1.38906 -5.68405,-0.5855 -10.471017,-1.06454 -10.637699,-1.06454 -0.166682,0 -0.541181,-0.23813 -0.832223,-0.52917 -0.727308,-0.72731 -0.693163,-2.16108 0.07266,-3.05141 l 0.601831,-0.69967 10.576821,0.96697 c 5.81725,0.53183 10.83357,1.07054 11.14738,1.19713 0.77969,0.31453 0.99564,1.52182 0.51944,2.90399 -0.27004,0.78383 -0.31449,1.3298 -0.14462,1.77659 0.13488,0.35476 0.24524,1.05442 0.24524,1.55479 0,0.50038 0.23812,1.35407 0.52916,1.89709 0.89553,1.67085 0.65476,2.97952 -0.54816,2.97952 -0.49656,0 -0.85788,-0.19012 -1.05252,-0.55381 z m 0.5489,-7.79779 c 0.34381,-0.90428 0.32693,-1.89333 -0.0361,-2.11772 -0.443,-0.27379 -0.75558,0.41377 -0.76012,1.67193 -0.005,1.25506 0.40203,1.48268 0.79625,0.44579 z m -1.15351,-2.40856 c -0.11861,-0.11861 -7.99572,-0.88498 -8.90721,-0.86659 -0.3638,0.007 0.7673,0.51963 2.51355,1.13842 1.74625,0.61879 3.82984,1.42494 4.6302,1.79144 l 1.45521,0.66638 0.20209,-1.31687 c 0.11114,-0.72427 0.15891,-1.36002 0.10616,-1.41278 z"
         id="path360"
         inkscape:connector-curvature="0" />
      <path
         style="fill:#353535;stroke-width:0.26458332"
         d="m 58.652123,185.43056 -39.488732,-39.4894 39.621685,-39.62102 39.621685,-39.621027 39.488729,39.489397 39.48873,39.48939 -39.62168,39.62103 -39.621685,39.62102 z m 78.912417,-0.46281 39.15778,-39.15844 -39.22426,-39.22426 -39.224252,-39.224253 -39.224257,39.224253 -39.224255,39.22426 39.157776,39.15844 c 21.536776,21.53715 39.217608,39.15845 39.290736,39.15845 0.07313,0 17.753962,-17.6213 39.290732,-39.15845 z M 63.745683,180.6852 C 44.827975,161.60934 29.34985,145.91519 29.34985,145.80929 c 0,-0.24758 68.678419,-69.452883 68.924114,-69.452883 0.246512,0 68.923806,69.204013 68.923806,69.452423 0,0.202 -68.59736,69.41389 -68.889638,69.50678 -0.09164,0.0291 -15.644741,-15.55456 -34.562449,-34.63041 z m 38.470077,23.61092 c 2.23601,-1.14072 3.23055,-3.98575 2.16371,-6.18956 -0.31647,-0.65374 -0.87351,-1.38394 -1.23786,-1.62268 l -0.66247,-0.43406 0.7947,-0.90511 c 1.05534,-1.20197 1.27437,-2.46191 0.69273,-3.98491 -0.57093,-1.49495 -1.83994,-2.37988 -3.984228,-2.77835 -2.951142,-0.5484 -5.654763,0.17015 -7.09921,1.88678 -1.185969,1.40944 -0.840346,4.33043 0.634634,5.36355 0.533615,0.37375 0.532273,0.38146 -0.143412,0.82419 -2.462609,1.61356 -2.249839,6.00502 0.369377,7.62378 1.272292,0.78632 2.446465,0.98671 5.098886,0.87019 1.646723,-0.0723 2.592783,-0.25571 3.373143,-0.65382 z m -5.28522,-2.90374 c -1.160481,-1.16048 -0.92396,-3.06529 0.458851,-3.69534 0.954431,-0.43487 1.366805,-0.36459 2.087067,0.35568 1.302812,1.30281 0.475414,4.11306 -1.210976,4.11306 -0.308851,0 -0.909574,-0.34803 -1.334942,-0.7734 z m 0.613513,-6.90856 c -1.398784,-0.56208 -1.434399,-2.59831 -0.05544,-3.1695 1.499698,-0.62119 2.694437,0.53769 2.275427,2.20714 -0.118491,0.47212 -1.220012,1.32816 -1.568828,1.21922 -0.02953,-0.009 -0.322557,-0.12481 -0.651161,-0.25686 z M 48.891157,157.35178 c 1.280033,-0.53484 2.495611,-2.16951 3.110653,-4.18311 0.742924,-2.43228 0.636302,-2.84654 -0.956127,-3.71494 -1.69963,-0.92685 -1.885879,-0.91408 -2.057106,0.14106 -0.427361,2.63353 -1.648484,3.68718 -3.059155,2.63962 -1.035596,-0.76903 -1.414171,-2.53845 -1.289716,-6.028 0.112811,-3.16302 0.546935,-4.64333 1.513429,-5.16058 1.004258,-0.53746 1.833166,-0.10544 2.432561,1.26784 0.299328,0.6858 0.570179,1.27837 0.601892,1.31683 0.03171,0.0384 0.79842,-0.19661 1.703793,-0.52237 l 1.646134,-0.59229 -0.166558,-0.93284 c -0.297209,-1.66455 -1.607005,-4.12538 -2.598147,-4.88136 -2.109523,-1.60901 -5.423489,-1.04883 -7.046043,1.19104 -2.428786,3.35284 -2.833041,11.69214 -0.781182,16.11481 0.437783,0.94362 0.997523,1.9427 1.243867,2.22018 1.164074,1.31121 3.942768,1.85904 5.701705,1.12411 z m 13.531609,-0.13607 c 1.365319,-0.63014 2.059845,-1.40415 2.893105,-3.22423 0.917644,-2.0044 1.207937,-3.74815 1.207937,-7.25591 0,-3.52487 -0.282197,-5.20434 -1.228953,-7.31399 -1.17526,-2.61883 -3.113394,-3.85018 -5.673023,-3.60423 -2.285312,0.21959 -3.927793,1.84272 -5.038315,4.97895 -0.532773,1.50462 -0.60406,2.20552 -0.60406,5.93927 0,4.61863 0.376798,6.35749 1.864868,8.60612 1.453105,2.19579 4.191204,2.9758 6.578441,1.87402 z m -3.244617,-4.93622 c -0.970394,-0.67969 -1.457978,-2.93121 -1.336495,-6.17153 0.119264,-3.18107 0.635154,-4.66721 1.769917,-5.09865 1.018156,-0.3871 1.834245,0.11995 2.45627,1.52614 0.433851,0.9808 0.540134,1.77708 0.540134,4.04679 0,3.21766 -0.388808,4.85769 -1.326489,5.59527 -0.785685,0.61802 -1.328976,0.64436 -2.103337,0.10198 z m 43.403641,5.07646 c 1.76208,-0.74473 3.22101,-2.88155 3.90917,-5.72558 0.46552,-1.92386 0.46946,-7.91053 0.006,-9.78959 -1.21762,-4.94162 -4.71671,-7.27912 -8.218355,-5.4901 -2.309712,1.18005 -3.6054,3.80353 -3.946422,7.99063 -0.392178,4.81522 0.400021,9.18701 2.038393,11.24897 1.467845,1.84735 4.187854,2.62062 6.210754,1.76567 z m -3.062522,-5.20056 c -1.026176,-0.80719 -1.362109,-2.15838 -1.34747,-5.41982 0.0149,-3.31775 0.390943,-4.70006 1.503198,-5.52554 0.679864,-0.50458 0.797634,-0.51703 1.455204,-0.15385 1.3046,0.72053 1.76936,2.14095 1.77172,5.41481 0.003,3.51658 -0.20592,4.61375 -1.04955,5.52403 -0.77091,0.83183 -1.42254,0.87662 -2.333102,0.16037 z m 17.083792,4.80329 c 0.67958,-0.42001 1.21834,-1.10648 1.80726,-2.30275 0.72831,-1.47941 0.84156,-1.99236 0.85804,-3.88632 0.0362,-4.16617 -1.07401,-5.87393 -4.85497,-7.46785 -0.65484,-0.27606 -1.39898,-0.67664 -1.65364,-0.89017 -0.64544,-0.54119 -0.59264,-1.77294 0.0967,-2.25577 0.88147,-0.6174 1.62781,-0.17707 2.08611,1.23077 l 0.39687,1.21915 1.19063,-0.13497 c 2.68731,-0.30466 2.7402,-0.38356 1.97785,-2.95067 -0.71527,-2.40858 -2.35458,-3.76473 -4.55079,-3.76473 -2.24869,0 -3.61616,0.81662 -4.65207,2.77812 -0.82204,1.55654 -0.8201,5.37236 0.004,6.91203 0.75152,1.40491 1.92214,2.37864 3.96031,3.29422 1.77364,0.79675 2.20738,1.32543 2.19444,2.67479 -0.0263,2.74332 -2.90836,2.47629 -3.38181,-0.31333 l -0.20208,-1.19063 -1.44499,0.0834 c -2.34374,0.13529 -2.38054,0.16189 -2.19435,1.58579 0.21514,1.64518 1.05611,3.88629 1.76541,4.70464 1.2923,1.49099 4.7108,1.84035 6.59757,0.67427 z m -44.258419,-3.87311 c 0,-2.73402 0.09889,-4.36562 0.264584,-4.36562 0.664633,0 1.325425,1.22559 2.227476,4.13136 0.536922,1.72957 1.068645,3.44234 1.181606,3.80614 0.194289,0.62572 0.322178,0.66561 2.366901,0.7383 1.535134,0.0546 2.161517,-0.0142 2.161517,-0.2373 0,-0.60484 -1.916803,-6.72802 -2.409381,-7.69671 -0.273523,-0.5379 -0.678778,-1.07955 -0.90057,-1.20367 -0.330695,-0.18507 -0.254704,-0.3355 0.422328,-0.83605 1.306825,-0.96618 1.92777,-2.67374 1.935824,-5.32341 0.0057,-1.87735 -0.102502,-2.47416 -0.64515,-3.55812 -1.099137,-2.19557 -1.480957,-2.34768 -6.211895,-2.47479 l -4.097406,-0.11009 v 10.74779 10.7478 h 1.852083 1.852083 z m 0.198438,-8.48612 c -0.109141,-0.11056 -0.198438,-1.07415 -0.198438,-2.14131 v -1.94027 h 1.140056 c 1.631854,0 2.167236,0.4826 2.167236,1.95359 0,0.75338 -0.15934,1.36185 -0.426619,1.62913 -0.467202,0.4672 -2.365069,0.82018 -2.682235,0.49886 z m 13.030729,8.48612 c 0,-2.73402 0.09888,-4.36562 0.264583,-4.36562 0.664634,0 1.325425,1.22559 2.227477,4.13136 0.536922,1.72957 1.068644,3.44234 1.181606,3.80614 0.194288,0.62572 0.322177,0.66561 2.366901,0.7383 1.535134,0.0546 2.161516,-0.0142 2.161516,-0.2373 0,-0.60484 -1.916803,-6.72802 -2.40938,-7.69671 -0.273524,-0.5379 -0.678778,-1.07955 -0.90057,-1.20367 -0.330695,-0.18507 -0.254704,-0.3355 0.422328,-0.83605 1.306824,-0.96618 1.92777,-2.67374 1.935823,-5.32341 0.0057,-1.87735 -0.102502,-2.47416 -0.645149,-3.55812 -1.099137,-2.19557 -1.480958,-2.34768 -6.211895,-2.47479 l -4.097407,-0.11009 v 10.74779 10.7478 h 1.852084 1.852083 z m 0.198437,-8.48612 c -0.10914,-0.11056 -0.198437,-1.07415 -0.198437,-2.14131 v -1.94027 h 1.140055 c 1.631855,0 2.167237,0.4826 2.167237,1.95359 0,0.75338 -0.15934,1.36185 -0.42662,1.62913 -0.467201,0.4672 -2.365068,0.82018 -2.682235,0.49886 z m 39.356775,2.13612 v -10.58333 l -1.91823,-0.0777 -1.91823,-0.0777 v 10.7388 10.73881 l 1.91823,-0.0777 1.91823,-0.0777 z m 10.31587,10.12032 c 0.43484,-1.85566 4.3685,-20.40711 4.3685,-20.60218 0,-0.12857 -0.88,-0.23376 -1.95556,-0.23376 h -1.95555 l -0.39939,2.18281 c -0.21966,1.20055 -0.79281,4.43003 -1.27367,7.17662 -0.57069,3.25971 -0.94461,4.8216 -1.07679,4.49791 -0.11138,-0.27273 -0.68509,-3.23432 -1.27491,-6.5813 -0.58983,-3.34698 -1.13141,-6.35331 -1.20352,-6.68073 -0.12171,-0.55262 -0.27303,-0.59531 -2.11044,-0.59531 -1.40713,0 -1.97931,0.0956 -1.97924,0.33073 5e-5,0.1819 1.01208,4.95709 2.24896,10.61154 1.23687,5.65445 2.24886,10.32765 2.24886,10.38489 0,0.0573 0.95023,0.10409 2.11163,0.10409 1.97211,0 2.12084,-0.0393 2.25112,-0.59531 z m 15.95395,-1.98438 0.0761,-2.44739 h -3.31721 -3.31723 v -1.98438 -1.98437 h 2.91042 2.91042 v -2.24896 -2.24896 h -2.91042 -2.91042 v -1.5875 -1.5875 h 3.175 3.175 v -2.38125 -2.38125 h -5.15937 -5.15938 v 10.72122 10.72122 l 5.22553,-0.0717 5.22552,-0.0717 z m -6.57504,-30.1625 c -2.9832,-3.01956 -14.67735,-14.80834 -25.987,-26.197292 L 98.273808,77.804528 77.710815,98.511718 c -11.309649,11.388952 -23.003799,23.177732 -25.987,26.197292 l -5.424003,5.49011 H 98.273808 150.2478 Z m -35.39299,1.80926 c -6.22999,-0.14465 -6.72881,-0.19181 -7.0776,-0.6692 -0.47014,-0.64349 -0.47179,-0.97302 -0.008,-1.60718 0.31351,-0.42875 0.31263,-0.58532 -0.006,-1.07162 -0.37888,-0.57826 -0.24735,-1.40744 0.2788,-1.75753 0.19412,-0.12917 0.17956,-0.28954 -0.0469,-0.51594 -0.41855,-0.41855 -0.42503,-1.60784 -0.011,-2.02185 0.24694,-0.24694 0.24694,-0.38806 0,-0.635 -0.44948,-0.44948 -0.39362,-1.40662 0.1063,-1.82152 0.4207,-0.34915 5.11096,-0.40825 8.04286,-0.10135 l 1.19063,0.12463 -0.89376,-0.34393 c -1.60807,-0.6188 -2.92354,-2.832 -1.68329,-2.832 0.25612,0 2.54808,0.29606 5.09323,0.65791 2.54515,0.36185 4.76889,0.6595 4.94164,0.66146 0.20393,0.002 0.2691,0.30515 0.18579,0.86344 -0.17347,1.16258 0.702,2.57969 1.59369,2.57969 0.81833,0 1.74289,-1.14177 1.74289,-2.15235 0,-1.13471 0.66456,-0.95943 2.14147,0.56485 1.26048,1.30091 1.30849,1.32292 2.88493,1.32292 h 1.60311 l -0.0736,3.63802 -0.0736,3.63802 -1.5875,0.0229 c -2.18319,0.0315 -2.14526,0.0206 -2.90154,0.837 l -0.67399,0.7276 -4.03307,0.0233 c -2.21819,0.0128 -7.04913,-0.0467 -10.73544,-0.13229 z m 15.20946,-1.08165 c 0.80509,-0.70688 1.09125,-0.79375 2.61462,-0.79375 h 1.71058 v -3.16187 -3.16186 l -1.5768,-0.17839 c -1.44385,-0.16336 -1.67041,-0.28125 -2.6868,-1.39805 l -1.10998,-1.21965 -0.35809,1.05417 c -0.39384,1.15944 -1.20451,1.98023 -1.9558,1.98023 -0.91247,0 -1.91157,-1.15306 -2.07859,-2.39888 l -0.15581,-1.16224 -4.23333,-0.58879 c -4.75547,-0.66141 -5.42396,-0.70907 -5.42396,-0.38664 0,0.12427 0.26789,0.51454 0.59531,0.86726 0.42953,0.46273 1.20317,0.77181 2.77813,1.10989 3.29419,0.70713 2.7786,1.03484 -1.32292,0.84085 -1.92815,-0.0912 -4.63682,-0.18832 -6.01927,-0.21582 l -2.51354,-0.05 v 0.79375 0.79375 l 3.70416,0.20962 c 4.79113,0.27112 5.95313,0.42101 5.95313,0.76791 0,0.19833 -1.39563,0.22588 -4.63972,0.0916 -4.55331,-0.18849 -5.41445,-0.0829 -5.41445,0.66418 0,0.67876 0.91922,1.04484 2.62358,1.04484 3.97815,0 7.43059,0.33102 7.43059,0.71245 0,0.36554 -2.76801,0.34387 -7.83586,-0.0614 -1.76624,-0.14123 -2.40174,0.20624 -2.10236,1.1495 0.13355,0.42078 0.51585,0.53081 2.33697,0.67257 1.19751,0.0932 3.20935,0.17021 4.47075,0.17109 2.39252,0.002 3.1305,0.14071 3.1305,0.58988 0,0.17369 -1.73486,0.23319 -4.96094,0.17013 l -4.96094,-0.097 -0.0837,0.7276 c -0.046,0.40019 -0.046,0.75086 0,0.77927 0.15335,0.0946 10.32823,0.36691 15.7915,0.42259 l 5.38903,0.0549 z m -65.260212,-1.85209 v -2.64583 h 5.387269 5.387268 l -0.123857,0.64791 c -0.147627,0.77226 0.888413,1.86605 1.961896,2.07126 1.580383,0.30211 3.262424,-0.71174 3.262424,-1.96643 v -0.75274 h 7.540625 7.540625 v 2.64583 2.64584 H 74.858183 59.380058 Z m 12.331433,-2.2706 c -0.278297,-0.72522 -0.174763,-2.08906 0.199765,-2.63146 0.623039,-0.90231 0.867744,-3.64498 0.55503,-6.22083 -0.131918,-1.08664 -0.08513,-1.5416 0.180943,-1.75949 0.198157,-0.16227 5.175399,-0.74184 11.114136,-1.29417 10.12181,-0.94138 10.794716,-0.97444 11.425097,-0.5614 1.197377,0.78455 1.002731,3.08363 -0.303263,3.582 -0.390739,0.14911 -5.115745,0.70111 -10.500016,1.22667 -5.384271,0.52555 -10.037061,1.00725 -10.339536,1.07045 -1.084252,0.22652 -1.555998,2.72655 -0.772964,4.09633 0.465143,0.81369 0.506534,2.16576 0.07937,2.59292 -0.453612,0.45361 -1.449292,0.39223 -1.638567,-0.10102 z m 2.052161,-7.86583 c 0.181631,-0.72368 -0.276045,-2.56357 -0.637696,-2.56357 -0.277561,0 -0.347001,2.09079 -0.09155,2.75649 0.230497,0.60066 0.551374,0.51578 0.729246,-0.19292 z m 2.954647,-0.80338 c 1.159748,-0.4871 3.277013,-1.27333 4.705033,-1.74718 1.428019,-0.47384 2.555089,-0.90284 2.504598,-0.95333 -0.05049,-0.0505 -2.290431,0.11269 -4.977648,0.36261 -3.487809,0.32439 -4.878279,0.54776 -4.859391,0.78065 0.01455,0.17942 0.04432,0.80248 0.06615,1.38456 0.02183,0.58209 0.132599,1.05834 0.246158,1.05834 0.113559,0 1.155356,-0.39854 2.315104,-0.88565 z m 43.533721,4.0939 c -0.39594,-0.73982 -0.35727,-1.09738 0.24679,-2.28221 0.29104,-0.57087 0.52916,-1.24847 0.52916,-1.5058 0,-0.38161 -0.75694,-2.59304 -0.88862,-2.59612 -0.0206,-5.3e-4 -4.67368,-0.47673 -10.34023,-1.05833 -5.66656,-0.58161 -10.458822,-1.05746 -10.649483,-1.05746 -0.190664,0 -0.584787,-0.23813 -0.875829,-0.52917 -0.772843,-0.77284 -0.702469,-2.232 0.148701,-3.08317 0.607147,-0.60715 0.821071,-0.66154 2.050521,-0.52139 0.75496,0.0861 5.42078,0.52278 10.36849,0.97049 4.9477,0.4477 9.26793,0.86965 9.6005,0.93767 0.84775,0.1734 1.17808,1.20044 0.82637,2.56933 -0.15707,0.61129 -0.28265,1.29004 -0.27908,1.50832 0.0219,1.34027 0.41258,3.215 0.89739,4.30661 0.4342,0.97767 0.50428,1.42707 0.30945,1.98438 -0.32354,0.92547 -1.52208,1.14546 -1.94413,0.35685 z m 0.76253,-8.8968 c 0.003,-0.43656 -0.0991,-0.95866 -0.22677,-1.16022 -0.18616,-0.29394 -0.29009,-0.25811 -0.52512,0.18104 -0.32441,0.60618 -0.39803,2.50577 -0.10833,2.79547 0.28277,0.28277 0.85423,-0.92382 0.86022,-1.81629 z m -1.18542,-1.17732 c 0.0945,-0.15284 0.0159,-0.28141 -0.1746,-0.28572 -0.19049,-0.004 -2.01322,-0.18042 -4.05051,-0.39138 -5.90562,-0.61149 -6.03996,-0.55476 -2.11667,0.89385 1.89177,0.69851 3.97536,1.50681 4.63021,1.79622 l 1.19062,0.5262 0.1746,-1.13064 c 0.096,-0.62185 0.25189,-1.25569 0.34635,-1.40853 z"
         id="path358"
         inkscape:connector-curvature="0" />
      <path
         style="fill:#000000;stroke-width:0.26458332"
         d="m 58.718489,185.23234 -39.422362,-39.42303 39.488841,-39.48884 39.48884,-39.488841 39.488842,39.488841 39.48884,39.48884 -39.42236,39.42303 c -21.6823,21.68266 -39.482196,39.42303 -39.555322,39.42303 -0.07313,0 -17.87302,-17.74037 -39.555319,-39.42303 z m 78.846051,-0.26459 39.15778,-39.15844 -39.22426,-39.22426 -39.224252,-39.224253 -39.224257,39.224253 -39.224255,39.22426 39.157776,39.15844 c 21.536776,21.53715 39.217608,39.15845 39.290736,39.15845 0.07313,0 17.753962,-17.6213 39.290732,-39.15845 z M 63.618432,180.47096 29.157841,145.81155 63.617432,111.15013 C 82.570208,92.08634 98.165128,76.488699 98.272808,76.488699 c 0.107683,0 15.703612,15.597292 34.657612,34.660651 l 34.46183,34.66065 -34.46129,34.66018 c -18.9537,19.0631 -34.549173,34.66019 -34.656607,34.66019 -0.107434,0 -15.702597,-15.59674 -34.655921,-34.65941 z m 37.726898,24.21458 c 2.90455,-0.86256 4.35617,-4.12202 3.01049,-6.75976 -0.29291,-0.57416 -0.82889,-1.23808 -1.19106,-1.47539 l -0.6585,-0.43146 0.79037,-0.90018 c 0.93481,-1.06469 1.18413,-1.89113 0.9695,-3.21373 -0.34037,-2.09747 -2.21045,-3.43312 -5.152082,-3.67973 -2.476421,-0.20762 -4.345906,0.26879 -5.638951,1.43697 -1.809856,1.6351 -1.923174,4.28996 -0.243443,5.70336 l 0.768683,0.64681 -0.650433,0.3481 c -1.085527,0.58096 -1.690679,1.85074 -1.690679,3.54754 0,2.51303 1.211723,4.22418 3.439583,4.85726 1.410483,0.40081 4.772803,0.35786 6.246522,-0.0798 z m -4.206151,-3.05215 c -1.265552,-0.99548 -1.164476,-2.9579 0.19834,-3.85085 0.560059,-0.36697 0.803717,-0.38878 1.432695,-0.12825 1.703966,0.70581 1.784586,3.46086 0.123428,4.21773 -0.863192,0.3933 -0.969476,0.37884 -1.754463,-0.23863 z m -0.358343,-7.82249 c -0.568849,-0.86817 -0.249452,-1.91466 0.756734,-2.47942 0.656524,-0.3685 0.76961,-0.35679 1.451716,0.15028 1.462104,1.08689 0.898038,3.01111 -0.882676,3.01111 -0.652616,0 -0.993995,-0.17561 -1.325774,-0.68197 z M 49.255443,157.27183 c 1.48753,-0.70588 2.593123,-2.75734 3.35838,-6.23157 0.148773,-0.67543 0.04053,-0.78212 -1.664909,-1.64096 l -1.824029,-0.91857 -0.171649,1.07342 c -0.379931,2.37596 -1.655159,3.60035 -2.900185,2.78458 -1.001466,-0.65619 -1.352571,-2.07368 -1.355102,-5.47086 -0.0026,-3.47351 0.478292,-5.22842 1.596701,-5.82697 0.581731,-0.31134 0.747287,-0.28958 1.383019,0.18174 0.397198,0.29448 0.845392,0.90544 0.995985,1.3577 0.15059,0.45226 0.349096,0.89758 0.441121,0.9896 0.09202,0.092 0.891548,-0.0967 1.776717,-0.41949 1.870323,-0.68196 1.894522,-0.76467 0.969367,-3.31345 -1.09995,-3.03032 -2.808896,-4.25609 -5.609929,-4.02381 -1.903309,0.15784 -3.135124,1.13811 -4.26236,3.39196 -1.102084,2.20356 -1.497303,4.81351 -1.320611,8.72105 0.219735,4.85942 1.604788,8.16933 3.902587,9.32615 1.17258,0.59033 3.461858,0.59985 4.684897,0.0195 z m 13.109676,0.0786 c 1.147551,-0.49241 2.431748,-1.8914 3.064867,-3.33884 0.89653,-2.04966 1.162725,-4.18576 1.027568,-8.24577 -0.174588,-5.24454 -0.852771,-7.17129 -3.184732,-9.04797 -0.826465,-0.66511 -1.290034,-0.82304 -2.645833,-0.9014 -2.180349,-0.126 -3.683257,0.61807 -4.887256,2.41963 -1.464226,2.19094 -1.783633,3.71301 -1.783633,8.49946 0,4.73543 0.345008,6.34696 1.836618,8.57879 1.406845,2.105 4.313357,3.00543 6.572401,2.0361 z m -2.881156,-4.96784 c -0.918787,-0.44535 -1.464318,-1.99109 -1.617695,-4.58365 -0.24403,-4.12492 0.66125,-6.75194 2.326743,-6.75194 1.683227,0 2.359097,1.62974 2.359097,5.68854 0,3.05047 -0.312574,4.44062 -1.197417,5.32547 -0.680154,0.68015 -1.012968,0.73736 -1.870728,0.32158 z m 43.469877,4.81843 c 1.43235,-0.6503 2.58615,-2.25594 3.32618,-4.62875 0.49007,-1.57135 0.58339,-2.4982 0.58766,-5.83673 0.004,-3.36573 -0.0836,-4.25015 -0.57865,-5.82083 -1.06923,-3.39249 -3.03017,-5.15937 -5.726,-5.15937 -1.665464,0 -2.753571,0.4944 -3.910906,1.77702 -1.83737,2.03625 -2.815201,6.30378 -2.489399,10.86445 0.339617,4.75404 1.822683,7.88152 4.243375,8.9484 1.149752,0.50673 3.26149,0.43978 4.54774,-0.14419 z m -3.40646,-5.02354 c -0.950174,-0.74741 -1.338413,-2.40524 -1.324941,-5.65762 0.01016,-2.45359 0.09954,-3.0356 0.626925,-4.08256 1.011415,-2.00785 2.506906,-1.97938 3.518406,0.067 0.42953,0.86898 0.52112,1.59569 0.5166,4.09895 -0.006,3.39638 -0.33697,4.74889 -1.35811,5.55211 -0.84339,0.66342 -1.15911,0.66695 -1.97888,0.0221 z m 16.72834,5.00388 c 3.40878,-1.73903 4.22732,-8.93832 1.36478,-12.0037 -0.39246,-0.42027 -1.69991,-1.22483 -2.90544,-1.7879 -2.33055,-1.08855 -2.66275,-1.46418 -2.27476,-2.57215 0.51588,-1.47319 2.27243,-0.83976 2.60629,0.93985 0.17165,0.91502 0.20278,0.9361 1.15068,0.77937 0.53583,-0.0886 1.37786,-0.1624 1.87116,-0.164 l 0.89691,-0.003 -0.15436,-1.49561 c -0.33284,-3.22494 -2.12143,-5.10592 -4.86339,-5.11462 -1.7232,-0.005 -2.62917,0.33317 -3.72864,1.39372 -1.45112,1.39976 -2.08131,4.83026 -1.36273,7.41805 0.41956,1.5109 1.96178,3.03825 4.11375,4.07407 1.90647,0.91765 2.48175,1.56813 2.48175,2.8061 0,1.64167 -1.943,2.41644 -2.79584,1.11483 -0.23475,-0.35826 -0.49314,-1.14594 -0.57422,-1.75042 l -0.14741,-1.09904 -1.18861,0.16292 c -0.65373,0.0896 -1.54451,0.16292 -1.97951,0.16292 h -0.79091 l 0.17133,1.29158 c 0.33197,2.50248 0.96161,4.08373 2.03272,5.10491 1.10264,1.05124 1.49533,1.18545 3.62935,1.24039 0.94062,0.0242 1.74311,-0.13921 2.4471,-0.49836 z m -43.666495,-4.10512 c 0,-4.27097 0.01238,-4.36831 0.521308,-4.09594 0.37275,0.19949 0.870591,1.38967 1.746983,4.17649 0.674121,2.14363 1.313805,3.99192 1.421522,4.10731 0.107714,0.1154 1.151691,0.17493 2.319948,0.13229 l 2.124102,-0.0775 -0.99981,-3.33937 c -0.99676,-3.32918 -1.580277,-4.75424 -2.269951,-5.54366 -0.314182,-0.35963 -0.275315,-0.49327 0.285221,-0.98064 1.346909,-1.17112 1.847213,-2.61402 1.854989,-5.34987 0.006,-2.11363 -0.09188,-2.71465 -0.615262,-3.77754 -0.959467,-1.94848 -1.544387,-2.15345 -6.455196,-2.26214 l -4.167188,-0.0922 v 10.73887 10.73887 h 2.116667 2.116667 z m 0,-10.57403 v -1.98437 l 0.727604,0.004 c 1.814981,0.009 2.614443,0.94709 2.270932,2.66465 -0.186878,0.9344 -0.765416,1.30051 -2.055101,1.30051 h -0.943435 z m 13.229166,10.57403 c 0,-4.27097 0.01238,-4.36831 0.521309,-4.09594 0.37275,0.19949 0.87059,1.38967 1.746983,4.17649 0.674121,2.14363 1.313804,3.99192 1.421521,4.10731 0.107715,0.1154 1.151692,0.17493 2.319949,0.13229 l 2.124102,-0.0775 -0.999811,-3.33937 c -0.996759,-3.32918 -1.580277,-4.75424 -2.26995,-5.54366 -0.314182,-0.35963 -0.275315,-0.49327 0.285221,-0.98064 1.346909,-1.17112 1.847212,-2.61402 1.854988,-5.34987 0.006,-2.11363 -0.09188,-2.71465 -0.615262,-3.77754 -0.959466,-1.94848 -1.544386,-2.15345 -6.455196,-2.26214 l -4.167187,-0.0922 v 10.73887 10.73887 h 2.116667 2.116666 z m 0,-10.57403 v -1.98437 l 0.727604,0.004 c 1.814981,0.009 2.614444,0.94709 2.270932,2.66465 -0.186877,0.9344 -0.765415,1.30051 -2.0551,1.30051 h -0.943436 z m 39.422919,4.23333 v -10.71562 h -1.98438 -1.98437 v 10.71562 10.71563 h 1.98437 1.98438 z m 10.15796,10.25261 c 0.26506,-0.88002 4.39412,-20.24137 4.39412,-20.6042 0,-0.27627 -0.47314,-0.36403 -1.96245,-0.36403 h -1.96245 l -0.25922,1.25677 c -0.14257,0.69122 -0.71155,3.84288 -1.26441,7.00369 -0.55286,3.1608 -1.06439,5.68773 -1.13673,5.61539 -0.0723,-0.0723 -0.67963,-3.19423 -1.34955,-6.93754 l -1.21802,-6.80602 -2.16624,-0.0768 c -1.67716,-0.0594 -2.1403,2.7e-4 -2.05138,0.26459 0.0632,0.18775 1.08044,4.8062 2.2606,10.26323 1.18016,5.45703 2.20616,10.13024 2.28,10.3849 0.11319,0.39034 0.46089,0.46302 2.21527,0.46302 1.75239,0 2.10303,-0.0731 2.22046,-0.46302 z m 16.03579,-2.05052 v -2.51354 h -3.30729 -3.3073 v -1.98438 -1.98437 h 2.91042 2.91042 v -2.24896 -2.24896 h -2.91042 -2.91042 v -1.5875 -1.5875 h 3.175 3.175 v -2.38125 -2.38125 h -5.15937 -5.15938 v 10.71562 10.71563 h 5.29167 5.29167 z m -2.26964,-25.86302 c -0.55456,-0.61847 -12.23664,-12.43075 -25.96018,-26.24951 L 98.27335,77.700105 73.457966,102.69284 c -13.648463,13.746 -25.331648,25.55828 -25.962637,26.2495 l -1.147249,1.25678 h 51.922818 51.922822 z m -37.02099,-2.59406 c -3.92906,-0.0992 -7.71185,-0.19609 -8.40619,-0.2153 -1.06701,-0.0295 -1.30833,-0.13563 -1.55889,-0.68554 -0.23659,-0.51926 -0.20933,-0.78356 0.13503,-1.30911 0.26401,-0.40294 0.32992,-0.72126 0.16982,-0.82021 -0.3655,-0.22589 -0.32727,-1.54651 0.0559,-1.92964 0.24694,-0.24694 0.24694,-0.38805 0,-0.635 -0.42644,-0.42644 -0.40235,-1.43446 0.0443,-1.85164 0.3055,-0.28539 0.29967,-0.43269 -0.0375,-0.94732 -0.32404,-0.49454 -0.33989,-0.73974 -0.0841,-1.30115 l 0.31519,-0.69178 4.55099,0.16845 c 2.96187,0.10963 4.4124,0.0792 4.1541,-0.0871 -0.21828,-0.14055 -0.59917,-0.25737 -0.84643,-0.25959 -0.53836,-0.005 -1.7994,-1.57919 -1.7994,-2.24646 0,-0.38549 0.1586,-0.44694 0.8599,-0.33317 0.47294,0.0767 2.88396,0.40861 5.35781,0.73754 l 4.49792,0.59804 0.006,1.12845 c 0.0127,2.24593 2.03014,3.08975 2.99671,1.25342 0.1673,-0.31786 0.30419,-0.8834 0.30419,-1.25677 0,-1.06146 0.73152,-0.83629 2.09248,0.64406 1.21037,1.31654 1.22419,1.32292 2.86917,1.32292 h 1.65293 l -0.002,2.18281 c -0.001,1.20055 -0.0774,2.80789 -0.16914,3.57188 l -0.16685,1.38906 h -1.69496 c -1.45092,0 -1.78932,0.0944 -2.35025,0.65528 -1.04731,1.04731 -1.54348,1.19975 -3.73504,1.14752 -1.13729,-0.0271 -5.28253,-0.13045 -9.2116,-0.22967 z m 11.40578,-0.26112 c 0.39853,-0.15152 0.99591,-0.56824 1.3275,-0.92605 0.51931,-0.56033 0.83754,-0.65054 2.29487,-0.65054 h 1.69195 l 0.16508,-3.08041 c 0.0908,-1.69422 0.10198,-3.1825 0.0249,-3.30729 -0.0771,-0.12479 -0.80698,-0.22689 -1.6219,-0.22689 -1.42344,0 -1.52578,-0.048 -2.604,-1.22244 -1.05709,-1.15139 -1.70394,-1.33899 -1.70394,-0.49419 0,0.77089 -0.62651,1.69275 -1.35568,1.99479 -1.33024,0.551 -2.61307,-0.7386 -2.61307,-2.62688 v -0.72677 l -4.96094,-0.67556 c -2.72851,-0.37156 -5.0073,-0.63532 -5.06398,-0.58613 -0.0567,0.0492 0.1948,0.47964 0.55882,0.95654 0.57743,0.7565 0.95337,0.93083 2.94731,1.3667 2.53027,0.55312 3.08207,1.07622 0.8964,0.84976 -0.76399,-0.0791 -3.43264,-0.21811 -5.93035,-0.30879 -4.32698,-0.1571 -4.55435,-0.14044 -4.81839,0.35291 -0.19953,0.37282 -0.18739,0.63944 0.0434,0.95227 0.26075,0.35349 1.15884,0.48289 4.8184,0.69427 2.47385,0.14289 4.58721,0.26148 4.69635,0.26354 0.10914,0.002 0.19844,0.12947 0.19844,0.28315 0,0.19277 -1.50869,0.2219 -4.8648,0.094 -4.85124,-0.18496 -4.8653,-0.18386 -5.04894,0.39474 -0.36384,1.14637 0.11484,1.28441 5.16197,1.48853 3.81635,0.15435 4.75177,0.26545 4.75177,0.56438 0,0.28621 -0.29037,0.34165 -1.25677,0.23993 -0.69123,-0.0727 -2.81691,-0.19937 -4.72373,-0.28138 -3.68071,-0.15828 -4.24039,-0.004 -4.02614,1.10829 0.11927,0.61931 1.06391,0.80431 4.3181,0.84564 3.20344,0.0407 5.42395,0.28573 5.42395,0.59856 0,0.1272 -2.17289,0.19991 -4.82864,0.16158 l -4.82865,-0.0697 -0.0839,0.72911 c -0.0491,0.42709 0.0605,0.78247 0.26458,0.85792 0.19165,0.0708 4.69423,0.22995 10.00574,0.35355 5.31151,0.1236 9.73884,0.24355 9.83851,0.26656 0.0997,0.023 0.50728,-0.0821 0.90581,-0.23367 z m -64.190152,-2.76722 v -2.51354 h 5.291667 5.291666 v 0.60258 c 0,1.39572 1.798421,2.536 3.433347,2.17691 0.999276,-0.21948 2.197429,-1.59871 1.98105,-2.28045 -0.152678,-0.48105 0.114112,-0.49904 7.400065,-0.49904 h 7.558455 v 2.51354 2.51354 H 74.858183 59.380058 Z m 12.488333,-2.03729 c -0.424365,-0.42437 -0.402166,-1.65888 0.04567,-2.53991 0.199742,-0.39296 0.442844,-1.37034 0.540224,-2.17195 0.09738,-0.80162 0.276928,-1.61908 0.398991,-1.81659 0.131543,-0.21284 0.07382,-0.64296 -0.141721,-1.05605 -0.454552,-0.87117 -0.473694,-2.44978 -0.03619,-2.98414 0.448996,-0.5484 21.565757,-2.53746 22.369889,-2.1071 0.993333,0.53161 1.192604,2.54456 0.329245,3.32589 -0.485,0.43892 -6.643174,1.19114 -19.801388,2.41874 -1.728052,0.16122 -1.967915,0.25263 -2.283237,0.87011 -0.696376,1.36366 -0.742458,2.29636 -0.166548,3.37088 0.608193,1.13475 0.673934,1.74171 0.270336,2.49585 -0.308684,0.57678 -1.048534,0.67101 -1.525276,0.19427 z m 1.947992,-9.34471 c -0.340727,-1.81623 -1.34353,-1.32912 -1.072491,0.52096 0.08422,0.57486 0.292381,1.21299 0.462579,1.41807 0.256138,0.30863 0.349922,0.25146 0.544343,-0.3318 0.129191,-0.38757 0.158698,-1.11082 0.06557,-1.60723 z m 7.331589,-1.05272 c 1.567614,-0.55169 2.801824,-1.05144 2.742686,-1.11058 -0.05913,-0.0591 -2.334246,0.10025 -5.055801,0.3542 l -4.94828,0.46172 0.155075,0.77537 c 0.08529,0.42645 0.155073,1.10664 0.155073,1.51153 v 0.73617 l 2.05052,-0.86268 c 1.127787,-0.47447 3.333115,-1.31405 4.900727,-1.86573 z m 39.262638,6.04062 c -0.3286,-0.3286 -0.17873,-2.3652 0.21208,-2.88189 0.87527,-1.15722 0.17561,-3.66708 -1.09153,-3.91555 -0.41368,-0.0811 -5.15746,-0.58148 -10.54173,-1.11193 -6.48677,-0.63907 -9.98901,-1.09031 -10.380691,-1.33748 -0.726237,-0.45831 -0.9959,-1.42367 -0.671957,-2.40551 0.470654,-1.4265 0.621117,-1.43059 12.174328,-0.33139 5.85567,0.55712 10.78021,1.09548 10.94342,1.19635 0.19794,0.12233 0.24084,0.72278 0.12885,1.80328 -0.22664,2.18674 -0.22665,2.19304 -0.01,4.00114 0.10479,0.87312 0.29845,1.72479 0.43037,1.89258 0.47335,0.60211 0.72206,1.97445 0.47541,2.62321 -0.23599,0.62069 -1.23558,0.90052 -1.6689,0.46719 z m 0.35933,-7.91062 c 0.29388,-0.77296 0.34423,-2.32193 0.0839,-2.58222 -0.43395,-0.43395 -0.88424,0.50207 -0.88424,1.83809 0,1.5188 0.37367,1.86625 0.8003,0.74413 z m -1.21677,-0.20303 c -0.0744,-0.19389 -0.0244,-0.84584 0.11102,-1.44877 0.29058,-1.29325 0.59122,-1.18913 -4.72163,-1.63522 -1.81901,-0.15274 -3.78354,-0.34722 -4.36563,-0.43219 -1.73448,-0.25319 -0.78573,0.25623 2.72752,1.46451 1.79117,0.61602 3.87476,1.40781 4.6302,1.75954 1.58357,0.73729 1.80466,0.7772 1.61852,0.29213 z"
         id="path356"
         inkscape:connector-curvature="0" />
    </g>
  </g>
</svg>
