<?xml version="1.0" encoding="UTF-8" standalone="no"?>
<!-- Created with Inkscape (http://www.inkscape.org/) -->

<svg
   xmlns:dc="http://purl.org/dc/elements/1.1/"
   xmlns:cc="http://creativecommons.org/ns#"
   xmlns:rdf="http://www.w3.org/1999/02/22-rdf-syntax-ns#"
   xmlns:svg="http://www.w3.org/2000/svg"
   xmlns="http://www.w3.org/2000/svg"
   xmlns:sodipodi="http://sodipodi.sourceforge.net/DTD/sodipodi-0.dtd"
   xmlns:inkscape="http://www.inkscape.org/namespaces/inkscape"
   width="270.93335mm"
   height="270.93335mm"
   viewBox="0 0 270.93335 270.93336"
   version="1.1"
   id="svg45"
   inkscape:version="0.92.4 (5da689c313, 2019-01-14)"
   sodipodi:docname="Class_2_Oxygen.svg">
  <defs
     id="defs39" />
  <sodipodi:namedview
     id="base"
     pagecolor="#ffffff"
     bordercolor="#666666"
     borderopacity="1.0"
     inkscape:pageopacity="0.0"
     inkscape:pageshadow="2"
     inkscape:zoom="0.35"
     inkscape:cx="302.85715"
     inkscape:cy="306.57146"
     inkscape:document-units="mm"
     inkscape:current-layer="layer1"
     showgrid="false"
     inkscape:window-width="1920"
     inkscape:window-height="1017"
     inkscape:window-x="-8"
     inkscape:window-y="-8"
     inkscape:window-maximized="1" />
  <metadata
     id="metadata42">
    <rdf:RDF>
      <cc:Work
         rdf:about="">
        <dc:format>image/svg+xml</dc:format>
        <dc:type
           rdf:resource="http://purl.org/dc/dcmitype/StillImage" />
        <dc:title></dc:title>
      </cc:Work>
    </rdf:RDF>
  </metadata>
  <g
     inkscape:label="Layer 1"
     inkscape:groupmode="layer"
     id="layer1"
     transform="translate(-25.70238,40.986309)">
    <g
       id="g58"
       transform="matrix(1.7066667,0,0,1.7181208,-13.002384,-170.325)">
      <path
         style="fill:#fefefe;stroke-width:0.26458335"
         d="M 22.678572,154.125 V 75.27916 h 79.374998 79.375 v 78.84584 78.84583 h -79.375 -79.374998 z"
         id="path74"
         inkscape:connector-curvature="0" />
      <path
         style="fill:#fde75f;stroke-width:0.26458335"
         d="m 62.4963,193.57782 c -21.681469,-21.5214 -39.420853,-39.23355 -39.420853,-39.36034 0,-0.30044 78.717993,-78.541445 79.020273,-78.541445 0.30958,0 79.10331,78.225905 79.00958,78.440195 -0.0994,0.22722 -78.80441,78.43985 -79.01891,78.52456 -0.0931,0.0368 -17.908621,-17.54158 -39.59009,-39.06297 z"
         id="path72"
         inkscape:connector-curvature="0" />
      <path
         style="fill:#fbd800;stroke-width:0.26458335"
         d="M 62.447209,193.44632 22.973137,154.25729 47.365959,129.9811 C 60.782012,116.62919 78.604874,98.934463 86.972322,90.659478 l 15.213538,-15.045428 39.47387,39.18933 39.47387,39.18932 -24.6572,24.54041 c -13.56146,13.49723 -31.38423,31.19182 -39.60616,39.32133 l -14.94896,14.7809 z"
         id="path70"
         inkscape:connector-curvature="0" />
      <path
         style="fill:#ceb100;stroke-width:0.26458335"
         d="m 67.260737,188.78529 -34.659785,-34.66055 34.726309,-34.72631 34.726309,-34.72631 34.72631,34.72631 34.72631,34.72631 -34.65978,34.66055 c -19.06289,19.0633 -34.71966,34.66054 -34.79284,34.66054 -0.0732,0 -15.729951,-15.59724 -34.792833,-34.66054 z m 68.527343,-1.05834 33.60143,-33.60222 -33.66797,-33.66796 -33.66797,-33.667975 -33.667968,33.667975 -33.667968,33.66796 33.601433,33.60222 c 18.480786,18.48122 33.661313,33.60221 33.734503,33.60221 0.0732,0 15.25372,-15.12099 33.73451,-33.60221 z m -40.048805,22.46192 c 0.518181,-2.30626 1.717535,-3.79442 5.470325,-6.78757 1.44014,-1.14864 2.63865,-2.33239 2.88545,-2.84993 0.38655,-0.8106 0.38649,-0.93963 -8e-4,-1.5306 -0.90902,-1.38735 -2.94892,-0.99814 -3.27346,0.62457 -0.15137,0.75717 -0.2041,0.78174 -1.677635,0.78174 -2.35422,0 -3.176024,-0.23156 -3.169189,-0.89297 0.0097,-0.93792 0.927295,-2.65879 1.81684,-3.40729 1.096566,-0.9227 2.359874,-1.25304 4.791934,-1.25304 2.41589,0 3.6951,0.33012 4.76378,1.22936 1.13364,0.95389 1.58622,1.96038 1.58622,3.52759 0,2.26885 -1.1241,3.82954 -4.54482,6.30998 -0.82616,0.59907 -1.57733,1.21092 -1.66926,1.35967 -0.11046,0.17873 0.95979,0.27045 3.15575,0.27045 h 3.32291 v 1.85208 1.85209 h -6.85104 -6.851044 z M 55.354614,164.72275 c -2.921159,-0.46468 -5.165276,-2.12453 -6.235332,-4.61195 -1.24271,-2.88875 -0.910157,-7.24101 0.744312,-9.74108 2.446891,-3.69751 9.348679,-4.56294 13.331989,-1.67175 2.389883,1.73465 3.553637,5.47598 2.889538,9.28951 -0.399679,2.29514 -1.031909,3.4962 -2.538391,4.82226 -1.893525,1.66675 -5.072906,2.40919 -8.192116,1.91301 z m 3.980674,-4.67677 c 0.916721,-0.60066 1.311368,-1.86892 1.307296,-4.20119 -0.0044,-2.53388 -0.509659,-3.69103 -1.857462,-4.25418 -2.81068,-1.17438 -4.866963,0.64386 -4.879906,4.31497 -0.0092,2.61387 0.849754,4.19931 2.518759,4.64899 0.748175,0.20157 2.219828,-0.0555 2.911313,-0.50859 z m 50.258912,4.67359 c -2.90711,-0.45545 -5.13743,-2.09988 -6.25967,-4.6153 -0.49953,-1.11966 -0.60337,-1.82147 -0.61069,-4.12719 -0.008,-2.45297 0.072,-2.95051 0.68194,-4.25095 1.45017,-3.09207 3.72709,-4.48695 7.6448,-4.68333 4.60672,-0.23091 6.96752,0.73691 8.29485,3.4005 0.38202,0.76663 0.63916,1.44929 0.57141,1.51704 -0.0677,0.0677 -1.22744,0.31875 -2.57708,0.55779 l -2.4539,0.4346 -0.79415,-0.89417 c -1.45426,-1.63742 -4.03779,-1.33895 -5.31763,0.61434 -0.28131,0.42933 -0.49978,1.43425 -0.57851,2.66105 -0.23048,3.59145 1.01217,5.40251 3.70838,5.40464 0.68828,5.3e-4 1.73007,-0.19053 2.3151,-0.42461 0.89848,-0.3595 1.06369,-0.54443 1.06369,-1.19063 v -0.76502 h -1.71979 -1.71979 v -1.85208 -1.85209 h 4.23333 4.23333 v 3.68501 3.68501 l -1.52135,0.91191 c -0.83675,0.50155 -2.11667,1.09744 -2.84427,1.3242 -1.6582,0.51678 -4.61699,0.73078 -6.35,0.45928 z m -43.523961,-0.44971 c 0,-0.0956 1.257384,-2.07452 2.794185,-4.39753 1.536803,-2.32302 2.733357,-4.38218 2.659012,-4.57592 -0.07435,-0.19374 -1.212667,-1.96218 -2.529602,-3.92985 -1.316937,-1.96767 -2.394429,-3.6998 -2.394429,-3.84916 0,-0.16921 1.094674,-0.27157 2.904318,-0.27157 3.298688,0 2.756162,-0.35737 4.76589,3.13937 l 1.120026,1.94874 1.388089,-2.47791 1.388091,-2.47791 2.979791,-0.0751 c 2.62288,-0.0661 2.960618,-0.0252 2.819738,0.34198 -0.08803,0.2294 -1.240168,2.09448 -2.560309,4.14463 -1.320141,2.05015 -2.340168,3.88413 -2.266728,4.07552 0.07344,0.19138 1.330354,2.13748 2.793146,4.32466 1.462788,2.18719 2.659615,4.04286 2.659615,4.12372 0,0.0809 -1.392026,0.11347 -3.093389,0.0725 l -3.093387,-0.0745 -1.470676,-2.43756 c -0.808871,-1.34065 -1.534541,-2.44198 -1.612603,-2.44739 -0.07806,-0.005 -0.832171,1.12126 -1.675795,2.5037 l -1.533863,2.51355 h -3.02056 c -1.661308,0 -3.02056,-0.0782 -3.02056,-0.17389 z m 24.870833,-3.47963 v -3.65352 l -3.307292,-4.8638 c -1.81901,-2.67509 -3.307291,-4.90053 -3.307291,-4.94544 0,-0.0449 1.398984,-0.081 3.108854,-0.0801 l 3.108854,0.002 1.584695,2.75305 c 0.871583,1.51417 1.666838,2.70228 1.767237,2.64023 0.100399,-0.062 0.872921,-1.30161 1.716717,-2.75459 l 1.534174,-2.64182 h 3.01075 c 2.50881,0 2.98643,0.0634 2.86486,0.38019 -0.0803,0.20911 -1.58126,2.52843 -3.335602,5.15405 l -3.189706,4.77385 v 3.44492 3.44491 h -2.778125 -2.778125 z m 32.014588,-4.94544 v -8.59896 h 7.27604 7.27604 v 1.98437 1.98438 h -4.49792 -4.49791 v 1.19062 1.19063 h 4.10104 4.10104 v 1.85208 1.85209 h -4.10104 -4.10104 v 1.5875 1.5875 h 4.6302 4.63021 v 1.98437 1.98438 h -7.40833 -7.40833 z m 17.19791,0 v -8.59896 h 2.63067 2.63066 l 2.99173,4.4064 2.99173,4.40641 0.0726,-4.40641 0.0725,-4.4064 h 2.63944 2.63943 v 8.59896 8.59896 h -2.63106 -2.63107 l -2.99133,-4.39519 -2.99133,-4.3952 -0.0725,4.3952 -0.0725,4.39519 h -2.63943 -2.63944 z M 91.470239,141.68958 v -1.05834 h 10.715621 10.71563 v 1.05834 1.05833 H 102.18586 91.470239 Z m 7.73381,-1.71611 c -2.011495,-0.5661 -2.899394,-1.08824 -4.585695,-2.6967 -0.987808,-0.94221 -1.752139,-1.9877 -2.245735,-3.07183 -0.694825,-1.52611 -0.761381,-1.96899 -0.931879,-6.20095 -0.226692,-5.62673 -0.38391,-6.85856 -1.174297,-9.20087 -0.343734,-1.01865 -0.757703,-2.53662 -0.919935,-3.37327 -0.162232,-0.83666 -0.625314,-2.17611 -1.029073,-2.97657 -0.403757,-0.80045 -0.637599,-1.45537 -0.51965,-1.45537 0.452096,0 2.172965,1.74614 3.174828,3.22145 0.57558,0.84758 1.08912,1.54105 1.141198,1.54105 0.05208,0 -0.12627,-0.70994 -0.396332,-1.57765 -0.91249,-2.93184 -1.806059,-4.22122 -3.537025,-5.10378 -0.752445,-0.38365 -0.758346,-0.40147 -0.192492,-0.58106 1.177679,-0.37378 2.227988,0.1522 4.360685,2.18376 1.955068,1.86236 2.125115,1.96703 2.45739,1.51262 0.505846,-0.69179 0.253507,-1.48748 -1.405224,-4.43108 -1.466395,-2.60228 -1.883859,-4.06332 -1.545838,-5.4101 0.183097,-0.72952 0.193825,-0.72189 0.814101,0.57933 0.82213,1.72465 6.265556,7.01257 6.870375,6.67409 0.592999,-0.33186 0.487719,-1.24175 -0.426217,-3.68381 -2.117503,-5.658 -2.091024,-8.195942 0.109476,-10.492716 0.82055,-0.856446 2.55296,-1.881262 3.87231,-2.290678 0.59192,-0.183683 0.56501,-0.107069 -0.32947,0.937928 -1.97921,2.312266 -2.51763,4.59096 -1.61676,6.842446 0.22997,0.57476 1.24128,2.15475 2.24735,3.51109 2.25314,3.03758 2.95047,4.41913 2.99139,5.92651 0.0325,1.19821 0.28202,1.52678 0.53666,0.70675 0.23289,-0.74998 0.23997,-1.84883 0.0354,-5.49011 -0.15209,-2.70678 -0.1175,-3.53883 0.16235,-3.90545 0.30926,-0.40513 0.35925,-0.23266 0.38344,1.32292 0.0185,1.18988 0.35863,2.9671 1.01588,5.30813 0.73083,2.6031 0.96468,3.89475 0.89823,4.96129 -0.0494,0.79308 -0.005,1.4418 0.0983,1.4416 0.4148,-8e-4 1.26618,-1.20012 1.66969,-2.35203 0.23508,-0.67112 0.4961,-2.38107 0.58005,-3.7999 0.0839,-1.41882 0.2425,-2.57968 0.35234,-2.57968 0.10985,0 0.34611,0.61019 0.52502,1.35598 0.44445,1.85269 0.18902,5.76245 -0.50778,7.77214 l -0.55041,1.5875 0.57851,-0.79375 c 0.31818,-0.43656 1.0746,-1.29976 1.68094,-1.91823 0.87392,-0.8914 1.29111,-1.12448 2.01271,-1.12448 0.50066,0 1.14141,0.18671 1.42388,0.41491 0.49132,0.3969 0.4818,0.4081 -0.21944,0.25818 -1.05081,-0.22467 -1.75435,0.25884 -2.35612,1.61924 -0.70449,1.59261 -2.03158,9.4466 -2.3173,13.71422 -0.24442,3.65086 -0.61882,5.01195 -1.89939,6.90502 -2.37928,3.51729 -7.26973,5.34233 -11.286391,4.21191 z m 6.349921,-1.78901 c 1.97761,-0.90538 3.63939,-2.48327 4.58708,-4.35553 0.69557,-1.37417 0.77552,-1.7911 0.77578,-4.0456 2.6e-4,-2.35701 -0.0557,-2.61683 -0.89906,-4.17204 -1.76186,-3.24908 -4.51486,-4.93111 -8.09649,-4.94681 -1.77577,-0.008 -2.372339,0.11002 -3.704166,0.73143 -2.087256,0.97387 -3.879856,2.76519 -4.789768,4.78634 -1.757135,3.90303 -0.391068,8.67864 3.187562,11.14333 0.76354,0.52587 1.912644,1.12675 2.553565,1.33529 1.742637,0.56701 4.566567,0.35632 6.385497,-0.47641 z M 94.645239,121.46457 c 0,-0.35522 -0.11049,-0.71413 -0.245534,-0.79759 -0.298436,-0.18445 -0.64856,0.80244 -0.417388,1.17648 0.299813,0.48511 0.662922,0.27757 0.662922,-0.37889 z m 15.610421,-0.12565 c 0,-0.10213 -0.16351,-0.40931 -0.36335,-0.68261 -0.35093,-0.47993 -0.3696,-0.47721 -0.54625,0.0794 -0.10059,0.31694 -0.11187,0.69118 -0.025,0.83165 0.16796,0.27177 0.93464,0.0844 0.93464,-0.2284 z m -11.112505,-2.38125 c 0,-0.10213 -0.163507,-0.40931 -0.363347,-0.68261 -0.35093,-0.47993 -0.369596,-0.47721 -0.546245,0.0794 -0.100592,0.31694 -0.111869,0.69118 -0.02506,0.83165 0.16796,0.27177 0.934646,0.0844 0.934646,-0.2284 z m 7.404285,-0.2207 c -0.002,-0.25466 -0.10472,-0.62183 -0.22777,-0.81593 -0.17845,-0.28152 -0.25792,-0.26377 -0.39282,0.0878 -0.28023,0.73028 -0.19211,1.19117 0.22776,1.19117 0.21828,0 0.39506,-0.20836 0.39283,-0.46302 z m -4.01762,-0.11906 c 0.44451,-0.4445 0.38518,-1.22626 -0.18673,-2.46062 l -0.49034,-1.05834 -0.55524,1.19063 c -0.68087,1.46003 -0.70506,2.00987 -0.10383,2.36005 0.61586,0.35871 0.95373,0.35069 1.33614,-0.0317 z"
         id="path68"
         inkscape:connector-curvature="0" />
      <path
         style="fill:#a68f00;stroke-width:0.26458335"
         d="m 67.393028,188.65299 -34.527491,-34.52825 34.594018,-34.59402 34.594015,-34.594015 34.59402,34.594015 34.59402,34.59402 -34.52749,34.52825 c -18.99012,18.99054 -34.58737,34.52826 -34.66055,34.52826 -0.0732,0 -15.670422,-15.53772 -34.660542,-34.52826 z m 68.395052,-0.92604 33.60143,-33.60222 -33.66797,-33.66796 -33.66797,-33.667975 -33.667968,33.667975 -33.667968,33.66796 33.601433,33.60222 c 18.480786,18.48122 33.661313,33.60221 33.734503,33.60221 0.0732,0 15.25372,-15.12099 33.73451,-33.60221 z m -40.081923,22.95273 c 0.0038,-0.87923 1.125268,-3.13286 2.126353,-4.27303 0.481592,-0.5485 1.836706,-1.74936 3.01136,-2.66859 3.62051,-2.8332 4.18926,-3.79506 2.96686,-5.01746 -0.37112,-0.37112 -0.90225,-0.67477 -1.18028,-0.67477 -0.72052,0 -1.89979,1.00249 -1.89979,1.61501 0,0.73208 -0.52644,0.85346 -2.783948,0.64191 -2.129798,-0.19957 -2.139857,-0.21024 -1.698064,-1.80113 0.719196,-2.58981 3.112664,-3.80732 7.007082,-3.56435 2.5358,0.1582 3.83792,0.69735 4.83205,2.00072 0.61096,0.80102 0.71267,1.18891 0.71267,2.7181 0,1.55511 -0.10245,1.93079 -0.7993,2.93101 -0.43961,0.631 -1.91892,1.98071 -3.28736,2.99935 l -2.48807,1.85209 3.4858,0.0738 3.4858,0.0738 v 1.8444 1.84441 h -6.74687 -6.746878 l 0.0026,-0.59532 z M 54.163989,164.47457 c -2.516733,-0.82032 -4.421915,-2.61037 -5.211648,-4.8967 -0.70651,-2.04539 -0.632519,-5.96912 0.145236,-7.70183 0.775497,-1.72768 2.430363,-3.39267 4.114224,-4.13937 1.958634,-0.86855 6.314122,-0.87122 8.228229,-0.005 1.567236,0.70921 3.150349,2.16592 3.870624,3.56158 1.114817,2.16015 1.086006,6.96612 -0.05541,9.24305 -0.777301,1.55059 -1.725496,2.50987 -3.286051,3.32448 -1.156375,0.60362 -1.689306,0.6993 -4.233333,0.76 -1.600729,0.0382 -3.208073,-0.0276 -3.571875,-0.14616 z m 4.621133,-4.11102 c 1.204137,-0.50312 1.789163,-1.7161 1.924209,-3.9896 0.206838,-3.48212 -1.13674,-5.3283 -3.703752,-5.08924 -2.205611,0.2054 -3.106438,1.58315 -3.105764,4.75002 5.3e-4,2.35255 0.538795,3.58556 1.851674,4.24142 1.123495,0.56124 1.849493,0.58216 3.033633,0.0874 z m 49.618448,4.11272 c -2.44638,-0.80367 -3.84737,-2.04948 -4.94598,-4.39815 -0.66256,-1.41647 -0.74119,-1.87256 -0.72987,-4.23333 0.0101,-2.10719 0.1265,-2.89769 0.57173,-3.88294 0.78682,-1.74114 2.49516,-3.49041 4.11801,-4.21668 1.21112,-0.54201 1.794,-0.61896 4.69028,-0.61921 3.15119,-2.6e-4 3.37307,0.0359 4.70092,0.76579 1.42363,0.78256 2.972,2.67255 2.972,3.62773 0,0.50415 -0.15118,0.55952 -2.76058,1.01098 -2.17557,0.3764 -2.47135,0.34748 -2.6643,-0.26045 -0.0929,-0.29264 -0.51171,-0.70936 -0.93074,-0.92604 -1.75253,-0.90627 -3.99392,-0.17064 -4.78464,1.57033 -0.59664,1.31367 -0.67217,4.52318 -0.1366,5.80498 0.80689,1.93114 2.80008,2.63422 5.20621,1.83644 1.31436,-0.4358 1.44769,-0.55286 1.52335,-1.3375 l 0.0829,-0.85989 h -1.73656 -1.73655 v -1.85208 -1.85209 h 4.10104 4.10104 v 3.80313 3.80313 l -2.26049,1.14617 c -2.25913,1.14549 -2.26243,1.14622 -5.4901,1.21658 -1.77629,0.0387 -3.52728,-0.0274 -3.89108,-0.1469 z m -42.333331,-0.17115 c 0,-0.0762 1.207704,-1.9444 2.68379,-4.15146 1.476084,-2.20706 2.730384,-4.19851 2.78733,-4.42544 0.05695,-0.22693 -0.986965,-2.07948 -2.319808,-4.11677 -1.332842,-2.03729 -2.480818,-3.85299 -2.551055,-4.03489 -0.09743,-0.25232 0.564618,-0.33073 2.792521,-0.33073 h 2.920228 l 1.378524,2.38857 c 0.75819,1.31371 1.462413,2.44042 1.564939,2.50378 0.102526,0.0634 0.808783,-1.01149 1.569458,-2.38857 l 1.383043,-2.50378 h 2.891348 c 1.590241,0 2.891348,0.0786 2.891348,0.17457 0,0.096 -1.131093,1.92245 -2.513541,4.05876 -1.382448,2.13631 -2.513542,4.00463 -2.513542,4.15184 0,0.1472 1.166167,2.04146 2.591483,4.20946 1.425315,2.168 2.682499,4.09065 2.79374,4.27256 0.15724,0.25711 -0.473154,0.33073 -2.832208,0.33073 H 78.55337 l -1.641893,-2.65664 -1.641893,-2.65664 -1.62311,2.65662 -1.62311,2.65662 -2.976563,2e-5 c -1.637109,1e-5 -2.976562,-0.0624 -2.976562,-0.13861 z m 25.135416,-3.30628 v -3.44492 l -3.189705,-4.77385 c -1.754339,-2.62562 -3.255357,-4.94494 -3.3356,-5.15405 -0.121414,-0.3164 0.344776,-0.38019 2.778551,-0.38019 h 2.924445 l 1.665851,2.77812 c 0.916218,1.52797 1.726317,2.77504 1.800217,2.77125 0.0739,-0.004 0.85398,-1.22417 1.733511,-2.71198 l 1.599144,-2.7051 2.964921,-0.0748 c 1.6307,-0.0412 2.96492,-0.01 2.96492,0.0693 0,0.0793 -1.48829,2.37462 -3.307296,5.1008 l -3.307292,4.9567 v 3.50682 3.50682 h -2.645833 -2.645834 z m 32.014585,-5.15405 v -8.59896 h 7.01146 7.01146 v 1.98437 1.98438 h -4.36563 -4.36562 v 1.19062 1.19063 h 4.10104 4.10104 v 1.85208 1.85209 h -4.10104 -4.10104 v 1.5875 1.5875 h 4.49791 4.49792 v 1.98437 1.98438 h -7.14375 -7.14375 z m 17.19792,0 v -8.59896 h 2.46506 2.46506 l 3.02504,4.48764 c 1.66378,2.4682 3.11434,4.49226 3.22348,4.49792 0.10914,0.006 0.19844,-2.01379 0.19844,-4.48765 v -4.49791 h 2.51354 2.51354 v 8.59896 8.59896 h -2.59612 -2.59612 l -3.09242,-4.54879 -3.09242,-4.54878 v 4.54878 4.54879 h -2.51354 -2.51354 z m -48.897748,-14.08907 0.08212,-0.99218 10.649478,-0.0692 10.64948,-0.0692 v 1.06134 1.06133 h -10.7316 -10.731592 z m 8.448354,-1.68217 c -3.103668,-0.52675 -6.270722,-3.01254 -7.643354,-5.99919 -0.646528,-1.40676 -0.709735,-1.88419 -0.900843,-6.80457 -0.136634,-3.5179 -0.347763,-5.77946 -0.629854,-6.74688 -0.233381,-0.80036 -0.808207,-2.91223 -1.277392,-4.69303 -0.469189,-1.7808 -1.118254,-3.5965 -1.442371,-4.03489 -0.324117,-0.43839 -0.493805,-0.79708 -0.377084,-0.79708 0.508825,0 2.201987,1.70095 3.26527,3.28029 0.635402,0.94379 1.189755,1.6815 1.231892,1.63936 0.175819,-0.17582 -1.085442,-3.81495 -1.677696,-4.84067 -0.353804,-0.61276 -1.123003,-1.39857 -1.713945,-1.75097 -0.801978,-0.47824 -0.96698,-0.67963 -0.654928,-0.79938 0.993479,-0.38123 2.128935,0.20885 4.188897,2.17693 1.982835,1.89439 2.115018,1.97448 2.466091,1.49436 0.536403,-0.73357 0.487042,-0.9532 -0.727316,-3.2362 -0.604049,-1.13562 -1.377955,-2.59096 -1.719792,-3.23408 -0.629827,-1.18495 -0.804994,-2.76151 -0.381179,-3.43072 0.17091,-0.26987 0.379846,-0.033 0.79122,0.89697 0.357426,0.80802 1.19403,1.84659 2.320153,2.88025 0.968642,0.88911 2.271638,2.10091 2.895547,2.69289 0.83085,0.78832 1.244147,1.01489 1.544603,0.84675 0.631225,-0.35325 0.501775,-1.22668 -0.664096,-4.48077 -1.681073,-4.69208 -1.679266,-7.214679 0.0066,-9.255608 0.867365,-1.050024 2.633691,-2.193826 3.863631,-2.501937 l 0.77595,-0.19438 -0.85827,0.978314 c -2.03455,2.319114 -2.5235,4.744751 -1.42092,7.049021 0.31334,0.65484 1.39126,2.30035 2.39538,3.6567 2.05042,2.76965 2.66194,4.06326 2.66194,5.63112 0,0.71628 0.10555,1.03984 0.3163,0.96959 0.61958,-0.20653 0.75499,-1.67086 0.45109,-4.87843 -0.28607,-3.01951 -0.19933,-4.94319 0.23504,-5.21253 0.10351,-0.0642 0.14827,0.44759 0.0995,1.13726 -0.0607,0.85818 0.25956,2.57614 1.01475,5.44316 0.76356,2.89879 1.07614,4.58319 1.01475,5.46821 -0.1066,1.53697 0.32257,1.69917 1.10804,0.41877 0.72848,-1.1875 1.00825,-2.28438 1.36656,-5.35781 l 0.30845,-2.64583 0.36174,1.32291 c 0.49898,1.82484 0.28448,5.63409 -0.43077,7.65019 -0.30533,0.86062 -0.51199,1.60791 -0.45925,1.66065 0.0528,0.0528 0.59138,-0.56036 1.19696,-1.36245 1.5651,-2.07295 3.42456,-2.87537 4.27858,-1.84633 0.29917,0.36047 0.25944,0.39249 -0.30978,0.24963 -0.99766,-0.2504 -2.00508,0.69764 -2.47677,2.33078 -0.78089,2.70367 -2.04363,10.84682 -2.01796,13.01337 0.0104,0.87312 -0.11192,2.24234 -0.2717,3.0427 -1.10804,5.5503 -6.42087,9.13803 -12.103658,8.17356 z m 5.867904,-1.91815 c 1.90803,-0.93351 3.94393,-3.14866 4.66489,-5.07559 1.1637,-3.11027 0.51275,-6.82202 -1.62167,-9.24686 -4.91073,-5.57888 -13.596609,-3.78566 -15.820934,3.26627 -0.668301,2.11876 -0.66743,3.243 0.0042,5.41744 0.89253,2.88968 2.722417,4.80438 5.766022,6.03328 1.853612,0.74842 5.037802,0.56914 7.007502,-0.39454 z M 94.73085,121.91197 c 0.06426,-0.10914 0.0056,-0.49322 -0.130265,-0.85352 -0.201441,-0.53404 -0.292738,-0.58293 -0.494049,-0.26459 -0.373171,0.59012 -0.30353,1.31655 0.126212,1.31655 0.209693,0 0.43384,-0.0893 0.498102,-0.19844 z m 15.36414,-0.28481 c 0.18442,-0.29841 -0.11393,-1.36883 -0.38153,-1.36883 -0.29771,0 -0.58754,0.99333 -0.38531,1.32055 0.19973,0.32317 0.58207,0.34724 0.76684,0.0483 z m -11.112503,-2.38125 c 0.184428,-0.29841 -0.113924,-1.36883 -0.381526,-1.36883 -0.29771,0 -0.587542,0.99333 -0.38531,1.32055 0.199728,0.32317 0.582067,0.34724 0.766836,0.0483 z m 7.564953,-0.64123 c -0.002,-0.32742 -0.10472,-0.75412 -0.22777,-0.94823 -0.17845,-0.28152 -0.25792,-0.26376 -0.39282,0.0878 -0.29279,0.76301 -0.18441,1.45575 0.22776,1.45575 0.23639,0 0.39524,-0.24073 0.39283,-0.59531 z m -3.84233,-0.094 c 0.45297,-0.45297 0.40359,-0.77962 -0.39556,-2.61686 l -0.46083,-1.05943 -0.55903,1.27871 c -0.68025,1.55597 -0.70396,2.18246 -0.096,2.53655 0.65584,0.382 1.02434,0.34811 1.51143,-0.13897 z"
         id="path66"
         inkscape:connector-curvature="0" />
      <path
         style="fill:#8d7a00;stroke-width:0.26458335"
         d="m 67.393028,188.65299 -34.527491,-34.52825 34.594018,-34.59402 34.594015,-34.594015 34.59402,34.594015 34.59402,34.59402 -34.52749,34.52825 c -18.99012,18.99054 -34.58737,34.52826 -34.66055,34.52826 -0.0732,0 -15.670422,-15.53772 -34.660542,-34.52826 z m 68.527342,-0.79375 33.73373,-33.7345 -33.80129,-33.8004 -33.80129,-33.800388 -33.601055,33.606328 c -18.480583,18.48348 -33.60106,33.78006 -33.60106,33.9924 0,0.34187 66.860605,67.47107 67.201105,67.47107 0.0749,0 15.31631,-15.18053 33.86986,-33.73451 z m -40.210988,22.82044 c 0.0076,-0.78347 0.850017,-2.61407 1.739532,-3.78029 0.391261,-0.51297 1.810587,-1.81676 3.154066,-2.89733 3.88667,-3.12606 4.51026,-4.16832 3.21948,-5.38094 -1.12631,-1.05811 -2.57189,-0.59295 -3.12965,1.00705 l -0.30009,0.86084 -2.146137,-0.18657 c -1.180375,-0.10262 -2.192332,-0.2322 -2.248792,-0.28796 -0.209695,-0.20711 0.593249,-2.5456 1.091586,-3.17913 1.071439,-1.36211 2.455646,-1.82264 5.493363,-1.82765 2.4776,-0.004 2.90605,0.067 3.96075,0.65763 1.67964,0.94051 2.43815,2.3388 2.3189,4.2748 -0.12821,2.0812 -0.98397,3.25138 -4.07768,5.57589 l -2.55869,1.92252 3.48565,0.0738 3.48565,0.0738 v 1.8444 1.84441 h -6.74687 -6.746878 l 0.0058,-0.59532 z M 53.689051,164.20715 c -2.006494,-0.69306 -3.221191,-1.78608 -4.284686,-3.85551 -0.872846,-1.69845 -0.92209,-1.93514 -0.90343,-4.34224 0.02558,-3.29958 0.660823,-5.04443 2.443633,-6.71204 1.721141,-1.60993 3.469013,-2.18945 6.526712,-2.164 3.182991,0.0265 4.954903,0.70364 6.584744,2.51641 1.521336,1.6921 2.061885,3.31742 2.053918,6.17571 -0.0074,2.66284 -0.29814,3.85444 -1.341959,5.50036 -0.863515,1.36163 -2.177282,2.34958 -3.956531,2.97532 -1.627683,0.57244 -5.334582,0.52351 -7.122401,-0.094 z m 5.52904,-4.07205 c 1.110451,-0.74663 1.526006,-1.88468 1.545548,-4.23267 0.02611,-3.13702 -1.106834,-4.68785 -3.42465,-4.68785 -1.473317,0 -2.517225,0.68591 -3.074771,2.0203 -0.477094,1.14184 -0.467675,4.36509 0.01614,5.52303 0.774263,1.85307 3.216772,2.53431 4.937733,1.37719 z m 49.053189,4.20312 c -2.51132,-0.79422 -3.68806,-1.85843 -4.85683,-4.39239 -0.55563,-1.20465 -0.67363,-1.86522 -0.68531,-3.83646 -0.0169,-2.85467 0.50861,-4.59293 1.86909,-6.18234 1.88537,-2.20264 4.87873,-3.17872 8.74575,-2.85184 2.29001,0.19358 3.6164,0.69435 4.75322,1.79456 0.82034,0.79392 1.88802,2.75762 1.63624,3.0094 -0.0715,0.0715 -1.1832,0.32538 -2.47042,0.56415 l -2.34042,0.43414 -0.54753,-0.66518 c -1.61224,-1.95864 -4.71847,-1.60229 -5.79424,0.66471 -0.55066,1.16045 -0.59602,4.60019 -0.077,5.84231 0.81615,1.95332 2.71074,2.63744 5.12872,1.85195 1.39839,-0.45428 1.52446,-0.56082 1.60084,-1.35301 l 0.0829,-0.85989 h -1.73656 -1.73655 v -1.85208 -1.85209 h 4.10104 4.10104 v 3.70999 3.71 l -1.25677,0.79741 c -1.97558,1.2535 -4.24335,1.83952 -7.03933,1.81907 -1.33074,-0.01 -2.89578,-0.16832 -3.47786,-0.35241 z m -41.903271,-0.48979 c 0.174014,-0.32742 1.478722,-2.33493 2.899351,-4.46112 l 2.582966,-3.86582 -2.625127,-3.93939 c -1.443821,-2.16667 -2.625278,-4.02869 -2.62546,-4.13783 -1.83e-4,-0.10914 1.303099,-0.19844 2.896182,-0.19844 h 2.896518 l 1.402961,2.50776 c 0.771631,1.37927 1.484135,2.51037 1.583343,2.51354 0.09921,0.003 0.791943,-1.12531 1.539412,-2.50776 l 1.359033,-2.51354 h 2.892358 c 1.590797,0 2.892359,0.0607 2.892359,0.13491 0,0.0742 -1.177644,1.96951 -2.616988,4.21181 l -2.616989,4.07689 2.439247,3.65955 c 1.341583,2.01275 2.651985,3.98697 2.912002,4.38715 l 0.472754,0.72761 h -3.047455 -3.047452 l -1.642544,-2.67288 -1.642541,-2.67288 -1.624288,2.67143 -1.624287,2.67143 -2.985871,10e-4 -2.985873,0.001 0.316389,-0.59531 z m 24.837646,-2.92991 v -3.52523 l -3.307291,-4.86634 c -1.819011,-2.67649 -3.307292,-4.95967 -3.307292,-5.07373 0,-0.11407 1.303261,-0.20739 2.896137,-0.20739 h 2.896137 l 1.665851,2.77812 c 0.916218,1.52797 1.726317,2.77504 1.800217,2.77125 0.0739,-0.004 0.85398,-1.22417 1.733511,-2.71198 l 1.599144,-2.7051 2.964921,-0.0748 c 1.6307,-0.0412 2.96492,-0.01 2.96492,0.0693 0,0.0793 -1.48829,2.37462 -3.307296,5.1008 l -3.307292,4.9567 v 3.50682 3.50682 h -2.645833 -2.645834 z m 32.014585,-5.07373 v -8.59896 h 7.01146 7.01146 v 1.98437 1.98438 h -4.36563 -4.36562 v 1.18373 1.18374 l 4.03489,0.073 4.0349,0.073 0.0782,1.78594 0.0782,1.78594 h -4.11313 -4.11313 v 1.5875 1.5875 h 4.49791 4.49792 v 1.98437 1.98438 h -7.14375 -7.14375 z m 17.19792,0 v -8.59896 h 2.46004 2.46004 l 3.16235,4.6662 3.16236,4.66621 0.0723,-4.67606 0.0723,-4.67605 2.44125,0.076 2.44125,0.076 0.0698,8.53281 0.0698,8.53282 h -2.59609 -2.5961 l -3.02996,-4.47148 -3.02997,-4.47149 -0.0724,4.47149 -0.0724,4.47148 h -2.50729 -2.50729 z M 91.573302,142.37028 c -0.0797,-0.2077 -0.10573,-0.65418 -0.05784,-0.99219 l 0.08707,-0.61455 h 10.583328 10.58334 l 0.0821,0.99218 0.0821,0.99219 h -10.60761 c -8.944682,0 -10.630321,-0.0592 -10.752516,-0.37763 z m 8.570098,-2.27344 c -2.816768,-0.48086 -5.499611,-2.27296 -7.04369,-4.70508 -1.214475,-1.91296 -1.619637,-3.67876 -1.612456,-7.02751 0.0076,-3.53206 -0.455282,-7.95231 -0.930492,-8.8861 -0.188939,-0.37127 -0.606584,-1.80436 -0.9281,-3.18465 -0.652084,-2.79946 -1.134502,-4.09951 -1.806535,-4.86837 -0.338162,-0.38688 -0.352365,-0.46324 -0.05606,-0.30137 1.196975,0.65389 2.148745,1.60628 3.166875,3.16897 0.626387,0.96142 1.189373,1.69755 1.251079,1.63584 0.238427,-0.23843 -1.055293,-3.89002 -1.786921,-5.04368 -0.452758,-0.71392 -1.158915,-1.39965 -1.713876,-1.66429 -0.878739,-0.41904 -0.90465,-0.46459 -0.375597,-0.6603 0.898808,-0.33249 2.66768,0.61429 3.918005,2.09711 1.367743,1.62206 2.339473,2.21691 2.69734,1.65119 0.423265,-0.6691 0.275262,-1.45955 -0.548169,-2.92772 -1.688809,-3.01113 -2.63983,-5.14562 -2.635935,-5.91613 0.0076,-1.50276 0.373652,-1.49219 1.172633,0.0338 0.530476,1.0132 1.42739,2.03838 2.904263,3.31961 1.175218,1.01954 2.396426,2.16034 2.713796,2.53511 0.488554,0.57692 0.640692,0.62857 0.992188,0.33685 0.638342,-0.52978 0.501362,-1.664 -0.520594,-4.31015 -2.333723,-6.042784 -1.758852,-9.058168 2.140486,-11.227536 2.09823,-1.167332 2.47201,-1.110551 1.34635,0.204523 -1.31601,1.537469 -1.85826,2.807217 -1.86494,4.367056 -0.007,1.650387 0.6749,3.052887 3.01123,6.192747 2.07489,2.7885 2.63939,3.99879 2.64681,5.67479 0.006,1.25082 0.0279,1.29139 0.46883,0.8507 0.49966,-0.4994 0.51888,-0.9054 0.31149,-6.5808 -0.0683,-1.86778 -0.008,-3.19831 0.15153,-3.35765 0.17632,-0.1759 0.27027,0.37066 0.28164,1.6385 0.012,1.34033 0.28008,2.80148 0.90726,4.94515 0.59883,2.04675 0.89636,3.62685 0.90899,4.82728 0.0211,2.00221 0.31484,2.24984 1.19788,1.00973 0.63955,-0.89816 1.24147,-3.31013 1.48968,-5.9693 0.1474,-1.57926 0.21116,-1.75464 0.43281,-1.19062 0.14297,0.3638 0.31725,1.67349 0.3873,2.91041 0.10701,1.88954 0.0181,2.6196 -0.55629,4.56806 -0.37601,1.27551 -0.68365,2.38864 -0.68365,2.47362 0,0.085 0.52504,-0.5419 1.16676,-1.39307 1.66614,-2.20994 3.52941,-3.11306 4.35941,-2.11298 0.24257,0.29228 0.17093,0.33609 -0.37799,0.23116 -1.37035,-0.26196 -2.41066,1.49362 -3.0202,5.09676 -0.8559,5.05934 -1.34257,8.77611 -1.43869,10.9875 -0.1736,3.99345 -1.44453,6.53256 -4.37013,8.73082 -2.0114,1.51134 -5.21983,2.27265 -7.75433,1.83998 z m 5.65349,-1.89145 c 1.82997,-0.85127 3.41252,-2.39086 4.36431,-4.24584 1.02072,-1.98931 1.18163,-5.25234 0.36574,-7.41648 -0.75297,-1.99723 -2.75932,-4.18627 -4.71891,-5.14856 -1.31032,-0.64346 -1.81494,-0.73931 -3.89231,-0.73931 -2.16438,0 -2.551704,0.0812 -4.156084,0.87101 -2.022335,0.99559 -3.379301,2.40023 -4.39841,4.55295 -0.984562,2.07974 -0.988626,5.31133 -0.0093,7.40833 1.174165,2.51426 3.014247,4.2211 5.528093,5.12779 1.827891,0.65928 5.025871,0.46977 6.916881,-0.40989 z M 94.765277,121.86566 c 0.0832,-0.13462 0.01006,-0.55472 -0.162567,-0.93356 -0.350224,-0.76865 -0.74004,-0.46449 -0.747171,0.583 -0.004,0.59322 0.61285,0.83093 0.909738,0.35056 z m 15.386763,-0.39603 c 0.0794,-0.20691 -0.002,-0.64899 -0.18006,-0.98239 l -0.32442,-0.60618 -0.23467,0.63438 c -0.26168,0.70738 -0.11482,1.33039 0.3136,1.33039 0.15465,0 0.34615,-0.16929 0.42555,-0.3762 z m -11.112498,-2.38125 c 0.0794,-0.20691 -0.0027,-0.65095 -0.182399,-0.98676 l -0.32676,-0.61056 -0.256693,0.57528 c -0.283504,0.63535 -0.09784,1.39824 0.340299,1.39824 0.154654,0 0.346154,-0.16929 0.425553,-0.3762 z m 7.578538,-0.0432 c 0.0851,-0.0851 0.0298,-0.51333 -0.12297,-0.95154 -0.20445,-0.5865 -0.33732,-0.70275 -0.50351,-0.44053 -0.54588,0.86135 -0.0173,2.03585 0.62648,1.39207 z m -3.91297,-0.53455 c 0.45672,-0.45672 0.40019,-0.84274 -0.38335,-2.61796 l -0.46713,-1.05833 -0.55618,1.19062 c -0.30589,0.65485 -0.55879,1.43471 -0.56198,1.73303 -0.0119,1.10598 1.16527,1.55601 1.96864,0.75264 z"
         id="path64"
         inkscape:connector-curvature="0" />
      <path
         style="fill:#716100;stroke-width:0.26458335"
         d="m 67.393028,188.65299 -34.527491,-34.52825 34.594018,-34.59402 34.594015,-34.594015 34.59402,34.594015 34.59402,34.59402 -34.52749,34.52825 c -18.99012,18.99054 -34.58737,34.52826 -34.66055,34.52826 -0.0732,0 -15.670422,-15.53772 -34.660542,-34.52826 z m 68.527342,-0.79375 33.73373,-33.7345 -33.80129,-33.8004 -33.80129,-33.800388 -33.601055,33.606328 c -18.480583,18.48348 -33.60106,33.78098 -33.60106,33.99445 0,0.34254 66.860935,67.46902 67.202115,67.46902 0.0743,0 15.3153,-15.18053 33.86885,-33.73451 z m -40.216798,23.02172 c 0,-0.76882 1.013082,-3.04455 1.7946,-4.0313 0.436139,-0.55067 1.989574,-1.95314 3.452078,-3.11659 2.98395,-2.37379 3.73878,-3.4028 3.33609,-4.54783 -0.29975,-0.85232 -1.30942,-1.29571 -2.35371,-1.03361 -0.52862,0.13267 -0.83872,0.47278 -1.14727,1.25828 l -0.42285,1.07647 -2.131032,-0.18526 c -1.172067,-0.10189 -2.179873,-0.23352 -2.239568,-0.29252 -0.198695,-0.19638 0.557564,-2.34897 1.086731,-3.09324 0.988017,-1.38963 2.414788,-1.89542 5.371809,-1.9043 2.30253,-0.007 2.81748,0.0779 3.96875,0.65352 1.81451,0.90726 2.56927,2.22895 2.443,4.27808 -0.127,2.06104 -1.05044,3.3089 -4.16279,5.62522 l -2.51355,1.87066 3.50573,0.0738 3.50573,0.0738 v 1.8444 1.84441 h -6.74687 c -5.799238,0 -6.746878,-0.0554 -6.746878,-0.39404 z M 53.722783,164.23308 c -2.808134,-1.00023 -4.518422,-3.10965 -5.124175,-6.32002 -0.621716,-3.29496 0.20232,-6.39702 2.240833,-8.43553 1.766763,-1.76676 3.42315,-2.3662 6.499548,-2.35216 3.115963,0.0142 4.759306,0.61192 6.518097,2.37071 1.700821,1.70082 2.232994,3.25125 2.233981,6.50846 0.0011,3.90899 -1.351169,6.43376 -4.190098,7.82272 -1.296932,0.63453 -1.890408,0.75095 -4.161787,0.81644 -2.04882,0.0591 -2.958987,-0.034 -4.016399,-0.41062 z m 5.495308,-4.09798 c 1.110451,-0.74663 1.526006,-1.88468 1.545548,-4.23267 0.02611,-3.13702 -1.106834,-4.68785 -3.42465,-4.68785 -1.473317,0 -2.517225,0.68591 -3.074771,2.0203 -0.477094,1.14184 -0.467675,4.36509 0.01614,5.52303 0.774263,1.85307 3.216772,2.53431 4.937733,1.37719 z m 48.744279,4.08347 c -2.79169,-0.96474 -4.51705,-3.08787 -5.12418,-6.30551 -0.62171,-3.29496 0.20232,-6.39702 2.24083,-8.43553 1.84679,-1.84679 3.36709,-2.35634 7.02872,-2.35577 3.20227,5.3e-4 4.40566,0.33223 5.81103,1.6019 0.92518,0.83584 2.09688,2.87329 1.81467,3.15549 -0.0715,0.0715 -1.17473,0.32381 -2.45159,0.56066 l -2.32159,0.43064 -0.56636,-0.67072 c -0.76175,-0.90209 -1.52268,-1.24993 -2.73179,-1.24875 -2.35478,0.002 -3.52336,1.63898 -3.52271,4.93379 7.9e-4,3.48384 1.19682,4.99986 3.92243,4.97145 2.02852,-0.0211 3.22091,-0.65453 3.22091,-1.71094 v -0.78695 h -1.71979 -1.71979 v -1.85208 -1.85209 h 4.10104 4.10104 v 3.70368 3.70368 l -1.25677,0.79442 c -2.87504,1.81734 -7.73882,2.42952 -10.8261,1.36263 z m -41.475397,-0.50243 c 0.262676,-0.40018 1.572808,-2.40637 2.911407,-4.4582 l 2.433809,-3.73059 -2.604201,-3.94232 c -1.432311,-2.16828 -2.609689,-4.03162 -2.616393,-4.14076 -0.0067,-0.10914 1.285396,-0.19844 2.871337,-0.19844 h 2.883525 l 1.415955,2.50797 c 0.778771,1.37938 1.492686,2.51048 1.586473,2.51354 0.09379,0.003 0.797126,-1.12552 1.562976,-2.50797 l 1.392454,-2.51354 h 2.868795 c 1.577838,0 2.868795,0.0532 2.868795,0.11819 0,0.065 -1.179073,1.95833 -2.620163,4.20737 l -2.620166,4.08918 1.95848,2.93089 c 1.077164,1.61199 2.378959,3.5882 2.892877,4.39158 l 0.9344,1.46071 h -3.021494 -3.021494 l -1.527275,-2.52434 c -0.840002,-1.38838 -1.601984,-2.5705 -1.693291,-2.62693 -0.09131,-0.0564 -0.875758,1.07725 -1.743216,2.51929 l -1.577199,2.62189 -3.006993,0.005 -3.006992,0.005 0.477594,-0.72761 z m 24.718682,-2.77921 v -3.50682 l -3.307291,-4.9567 c -1.819011,-2.72618 -3.307292,-5.01764 -3.307292,-5.09213 0,-0.0745 1.307462,-0.13545 2.905474,-0.13545 h 2.905475 l 1.634466,2.77812 c 0.898953,1.52797 1.709324,2.77813 1.800823,2.77813 0.09149,0 0.885491,-1.22039 1.764434,-2.71198 l 1.598079,-2.71198 2.823747,-0.0751 c 1.85,-0.0492 2.82375,0.0211 2.82375,0.20377 0,0.15337 -1.42875,2.41719 -3.174998,5.0307 l -3.175,4.75185 v 3.5772 3.57721 h -2.645833 -2.645834 z m 32.014585,-5.09214 v -8.59896 h 7.01146 7.01146 v 1.98437 1.98438 h -4.36563 -4.36562 v 1.18373 1.18374 l 4.03489,0.073 4.0349,0.073 0.0782,1.78594 0.0782,1.78594 h -4.11313 -4.11313 v 1.5875 1.5875 h 4.49791 4.49792 v 1.98437 1.98438 h -7.14375 -7.14375 z m 17.19792,0 v -8.59896 h 2.33513 c 2.79552,0 2.34113,-0.38943 6.15745,5.27722 l 2.75221,4.0866 0.0723,-4.69176 0.0723,-4.69176 2.44125,0.076 2.44125,0.076 0.0698,8.53281 0.0698,8.53282 -2.58335,-0.004 -2.58335,-0.004 -3.04271,-4.4785 -3.04271,-4.47852 -0.0724,4.48242 -0.0724,4.48242 h -2.50729 -2.50729 z M 91.573302,142.37028 c -0.0797,-0.2077 -0.10573,-0.65418 -0.05784,-0.99219 l 0.08707,-0.61455 h 10.583328 10.58334 l 0.0821,0.99218 0.0821,0.99219 h -10.60761 c -8.944682,0 -10.630321,-0.0592 -10.752516,-0.37763 z m 8.660138,-2.30599 c -3.922192,-0.64013 -7.096355,-3.38502 -8.268132,-7.14995 -0.350898,-1.12744 -0.479956,-2.3644 -0.472027,-4.52416 0.01373,-3.73831 -0.423661,-7.6059 -1.054277,-9.32248 -0.267301,-0.7276 -0.694055,-2.27541 -0.948346,-3.43958 -0.474932,-2.17429 -0.935665,-3.32252 -1.690346,-4.21267 -0.346051,-0.40817 -0.352809,-0.46572 -0.03424,-0.29169 1.196975,0.65389 2.148745,1.60628 3.166875,3.16897 0.626387,0.96142 1.189167,1.69775 1.250622,1.63629 0.184316,-0.18431 -0.737606,-3.12496 -1.380051,-4.40194 -0.653394,-1.29874 -1.176766,-1.8433 -2.345354,-2.44028 -0.68688,-0.3509 -0.710428,-0.40363 -0.235723,-0.52777 1.050367,-0.27467 2.533769,0.53361 4.209249,2.29355 1.768419,1.85757 2.373733,2.10862 2.629273,1.09047 0.219826,-0.87586 0.0013,-1.45812 -1.643566,-4.3777 -1.501888,-2.66594 -1.854038,-3.78576 -1.559517,-4.95922 0.174958,-0.6971 0.210402,-0.66811 1.013777,0.82908 0.576884,1.0751 1.484665,2.12057 2.956677,3.40514 1.168307,1.01953 2.378008,2.16021 2.688222,2.53483 0.485555,0.58636 0.623594,0.63168 0.992187,0.32578 0.653597,-0.54243 0.524277,-1.51972 -0.628824,-4.75223 -1.683581,-4.71962 -1.682221,-7.041518 0.0053,-9.088805 0.719375,-0.872717 3.536451,-2.589098 4.249461,-2.589098 0.1916,0 -0.01,0.383155 -0.45241,0.859896 -1.12491,1.212164 -1.62151,2.085067 -1.96719,3.457876 -0.47338,1.879978 0.15227,3.547571 2.55937,6.821661 2.44581,3.32674 2.99903,4.46412 3.00663,6.18133 0.006,1.25079 0.0279,1.29138 0.46883,0.85078 0.49811,-0.49774 0.52316,-1.04056 0.30982,-6.71328 -0.0668,-1.77659 -0.006,-3.06844 0.1532,-3.22872 0.17663,-0.17838 0.23696,0.19041 0.18148,1.10944 -0.0587,0.97296 0.23931,2.618 1.01641,5.60998 0.76867,2.95952 1.0622,4.57168 0.9755,5.35781 -0.1366,1.23854 0.20768,1.4726 0.95363,0.64832 0.70316,-0.77699 1.23379,-2.63752 1.55311,-5.44572 0.24165,-2.12508 0.3487,-2.51438 0.54912,-1.99693 0.13692,0.35352 0.30429,1.6548 0.37193,2.89172 0.0981,1.79387 0.009,2.62374 -0.4407,4.10105 -0.31003,1.01864 -0.62819,2.14974 -0.70702,2.51354 l -0.14332,0.66146 0.47193,-0.66146 c 0.90036,-1.26193 2.05318,-2.51592 2.73483,-2.97482 0.8207,-0.55251 1.96127,-0.60253 2.37489,-0.10414 0.24247,0.29216 0.17151,0.3362 -0.37375,0.23197 -0.74847,-0.14308 -1.54803,0.4379 -2.11707,1.53831 -0.70691,1.367 -2.16709,10.36335 -2.34183,14.42825 -0.13122,3.05253 -0.73304,4.92111 -2.16202,6.71282 -2.44332,3.06353 -6.16327,4.54837 -9.87663,3.94232 z m 5.73177,-1.90875 c 1.91266,-0.98139 3.39683,-2.54314 4.34757,-4.57482 0.74724,-1.59683 0.79122,-1.86319 0.68378,-4.14106 -0.092,-1.95007 -0.25059,-2.69768 -0.79717,-3.75737 -0.89614,-1.73742 -2.63307,-3.42414 -4.43987,-4.31151 -1.27308,-0.62525 -1.77427,-0.71558 -3.97053,-0.71558 -2.356738,0 -2.617006,0.0561 -4.172041,0.89935 -1.989085,1.07861 -3.320315,2.48551 -4.251214,4.49286 -0.992989,2.14123 -1.000173,5.35528 -0.01667,7.45216 1.191988,2.54134 3.198961,4.38149 5.66179,5.19118 0.644787,0.21198 1.937115,0.31555 3.307295,0.26505 1.82046,-0.0671 2.51534,-0.21958 3.64705,-0.80026 z M 94.765277,121.86566 c 0.0832,-0.13462 0.01006,-0.55472 -0.162567,-0.93356 -0.350224,-0.76865 -0.74004,-0.46449 -0.747171,0.583 -0.004,0.59322 0.61285,0.83093 0.909738,0.35056 z m 15.386763,-0.39603 c 0.0794,-0.20691 -0.003,-0.65095 -0.1824,-0.98676 l -0.32676,-0.61056 -0.25669,0.57528 c -0.2835,0.63535 -0.0978,1.39824 0.3403,1.39824 0.15465,0 0.34615,-0.16929 0.42555,-0.3762 z m -11.112498,-2.38125 c 0.0794,-0.20691 -0.0027,-0.65095 -0.182399,-0.98676 l -0.32676,-0.61056 -0.256693,0.57528 c -0.283504,0.63535 -0.09784,1.39824 0.340299,1.39824 0.154654,0 0.346154,-0.16929 0.425553,-0.3762 z m 7.578538,-0.0432 c 0.0851,-0.0851 0.0298,-0.51333 -0.12297,-0.95154 -0.20445,-0.5865 -0.33732,-0.70275 -0.50351,-0.44053 -0.54588,0.86135 -0.0173,2.03585 0.62648,1.39207 z m -3.91297,-0.53455 c 0.45672,-0.45672 0.40019,-0.84274 -0.38335,-2.61796 l -0.46713,-1.05833 -0.55618,1.19062 c -0.30589,0.65485 -0.55879,1.43471 -0.56198,1.73303 -0.0119,1.10598 1.16527,1.55601 1.96864,0.75264 z"
         id="path62"
         inkscape:connector-curvature="0" />
      <path
         style="fill:#020100;stroke-width:0.26458335"
         d="m 67.393028,188.65299 -34.527491,-34.52825 34.594018,-34.59402 34.594015,-34.594015 34.59402,34.594015 34.59402,34.59402 -34.52749,34.52825 c -18.99012,18.99054 -34.58737,34.52826 -34.66055,34.52826 -0.0732,0 -15.670422,-15.53772 -34.660542,-34.52826 z m 68.527342,-0.79375 33.73373,-33.7345 -33.80027,-33.80027 -33.80026,-33.800259 -33.80026,33.800259 -33.800261,33.80027 33.733727,33.7345 c 18.553549,18.55398 33.793604,33.73451 33.866794,33.73451 0.0732,0 15.31325,-15.18053 33.8668,-33.73451 z M 95.847442,210.4151 c 0.498292,-2.30473 2.324396,-4.52097 6.099048,-7.40208 1.87372,-1.43018 2.48833,-2.25894 2.48833,-3.35538 0,-0.95354 -0.81772,-1.61181 -2.00224,-1.61181 -0.92563,0 -1.57355,0.57681 -1.83791,1.63621 -0.17592,0.70498 -0.19108,0.70917 -2.071134,0.57329 -2.632345,-0.19025 -2.568485,-0.15233 -2.247877,-1.3347 0.771409,-2.84487 2.278648,-3.78598 6.059881,-3.78374 3.20832,0.002 4.20701,0.29309 5.35207,1.56054 1.09604,1.21318 1.41754,2.63354 0.97222,4.29516 -0.34107,1.27266 -2.07354,3.13372 -4.89217,5.25532 l -1.5818,1.19063 3.37344,0.074 3.37344,0.074 v 1.84418 1.84418 h -6.63561 -6.635603 z M 54.75203,164.44404 c -2.759419,-0.5846 -4.990721,-2.60137 -5.780131,-5.22438 -0.482688,-1.60385 -0.462845,-4.9309 0.0395,-6.62247 0.5479,-1.84498 1.819702,-3.41442 3.558504,-4.3913 1.279763,-0.71898 1.745861,-0.82579 3.998632,-0.91627 4.442396,-0.17843 7.037414,1.04747 8.572915,4.04991 0.743857,1.45449 0.796499,1.75101 0.796499,4.48655 0,2.60552 -0.07604,3.08989 -0.688282,4.38433 -1.362996,2.88174 -3.587128,4.23453 -7.208065,4.38421 -1.186801,0.0491 -2.667108,-0.0187 -3.28957,-0.15058 z m 4.540938,-4.25699 c 1.147805,-0.90286 1.555002,-1.99394 1.567056,-4.19889 0.01431,-2.62124 -0.509466,-3.75558 -2.086758,-4.51913 -2.08438,-1.00903 -4.05647,-0.0976 -4.735357,2.18841 -1.141428,3.84362 0.355981,7.08214 3.274605,7.08214 0.895409,0 1.488321,-0.16542 1.980454,-0.55253 z m 49.483762,4.23886 c -0.59513,-0.14361 -1.71774,-0.64483 -2.4947,-1.11382 -1.12901,-0.68152 -1.60042,-1.19672 -2.34791,-2.56608 -0.83664,-1.53268 -0.94642,-1.96811 -1.04092,-4.12896 -0.18336,-4.19229 1.0239,-6.78295 3.92287,-8.41812 1.43541,-0.80964 1.50561,-0.82081 5.15938,-0.82081 3.46035,0 3.78176,0.0435 4.88304,0.66146 1.14544,0.64269 2.45566,2.21458 2.77152,3.325 0.14354,0.50464 -0.0337,0.58048 -2.29429,0.98182 l -2.44986,0.43494 -0.59951,-0.76425 c -1.81276,-2.31086 -5.32033,-1.21849 -6.16982,1.9215 -0.38516,1.42363 -0.16772,3.85471 0.45962,5.13882 0.92362,1.89059 3.54039,2.44757 5.993,1.27562 0.88499,-0.42288 0.99655,-0.57996 0.92605,-1.3039 -0.0794,-0.81501 -0.0964,-0.82387 -1.73382,-0.90186 l -1.65364,-0.0788 v -1.70717 -1.70717 h 3.96875 3.96875 v 3.69302 3.69301 l -1.19198,0.69854 c -2.2007,1.2897 -3.81875,1.75236 -6.48094,1.85314 -1.38245,0.0523 -3.00046,-0.0224 -3.59559,-0.16596 z m -41.176559,-2.28848 c 0.855466,-1.27814 2.1747,-3.29424 2.931631,-4.48022 l 1.376238,-2.15632 -2.522024,-3.84244 c -1.387116,-2.11335 -2.522027,-3.91121 -2.522027,-3.99524 0,-0.084 1.247955,-0.1528 2.77323,-0.1528 h 2.773233 l 1.129371,2.01117 c 1.935972,3.44754 1.70965,3.41292 3.33719,0.51053 l 1.414063,-2.5217 H 81.0442 c 1.514216,0 2.753122,0.0571 2.753122,0.12696 0,0.0698 -1.137134,1.90272 -2.526964,4.07311 l -2.526964,3.94617 2.791547,4.21967 c 1.535351,2.32081 2.791548,4.29791 2.791548,4.39354 0,0.0956 -1.28229,0.17389 -2.849531,0.17389 h -2.849531 l -1.577853,-2.6473 c -0.867818,-1.45601 -1.669651,-2.6167 -1.781852,-2.5793 -0.1122,0.0374 -0.898552,1.19892 -1.747446,2.58115 l -1.543447,2.51315 -2.966027,0.0749 -2.966027,0.0749 z m 23.605484,-1.27089 v -3.5772 l -3.175,-4.75185 c -1.74625,-2.61351 -3.175,-4.8178 -3.175,-4.89841 0,-0.0806 1.27357,-0.11278 2.830156,-0.0715 l 2.830155,0.0751 1.644983,2.74281 1.644981,2.7428 0.640093,-1.02301 c 0.352052,-0.56266 1.106443,-1.8244 1.676424,-2.80388 l 1.036333,-1.78087 2.8747,-0.005 2.8747,-0.005 -0.47288,0.7276 c -0.26008,0.40018 -1.70252,2.5725 -3.205425,4.82736 l -2.732553,4.09978 v 3.63931 3.63931 h -2.645833 -2.645834 z m 32.014585,-4.88946 v -8.46667 h 7.01146 7.01146 v 1.71979 1.71979 h -4.36563 -4.36562 v 1.45521 1.45521 h 3.96875 3.96875 v 1.5875 1.5875 h -3.96875 -3.96875 v 1.85209 1.85208 h 4.49791 4.49792 v 1.85208 1.85209 h -7.14375 -7.14375 z m 17.19792,0 v -8.46667 h 2.50007 2.50007 l 2.9561,4.36992 c 1.62586,2.40346 3.06067,4.43455 3.18847,4.51354 0.12997,0.0803 0.23237,-1.8455 0.23237,-4.36993 v -4.51353 h 2.38125 2.38125 v 8.4766 8.47659 l -2.43347,-0.0761 -2.43348,-0.0761 -2.98579,-4.36406 c -1.64219,-2.40023 -3.10697,-4.40445 -3.25507,-4.45382 -0.17564,-0.0585 -0.26927,1.48201 -0.26927,4.43021 v 4.51997 h -2.38125 -2.38125 z m -48.683338,-14.2875 v -0.79375 h 10.451038 10.45105 v 0.79375 0.79375 H 102.18586 91.734822 Z m 7.276042,-1.94139 c -3.995553,-1.33148 -6.557661,-4.22098 -7.296269,-8.2286 -0.159248,-0.86407 -0.21372,-2.07665 -0.121047,-2.69463 0.22448,-1.49694 -0.340924,-7.63178 -0.826104,-8.96351 -0.212063,-0.58208 -0.733298,-2.42441 -1.158298,-4.09407 -0.424997,-1.66965 -1.024575,-3.37638 -1.332394,-3.79273 -0.520763,-0.70437 -0.524192,-0.73801 -0.04933,-0.48387 0.638855,0.3419 2.04724,1.92445 3.191708,3.58639 0.481211,0.6988 0.926066,1.2194 0.988566,1.1569 0.138972,-0.13897 -1.12336,-4.05465 -1.602732,-4.97158 -0.455703,-0.87165 -1.683211,-2.0207 -2.509721,-2.3493 -0.606915,-0.2413 -0.572971,-0.26437 0.411617,-0.27976 1.233432,-0.0193 1.968114,0.45507 4.00711,2.58718 1.584507,1.65687 2.286113,1.7457 2.403176,0.30427 0.05816,-0.71614 -0.248248,-1.48894 -1.362882,-3.43739 -1.533123,-2.67998 -2.154608,-4.44896 -1.87383,-5.33362 0.14982,-0.47204 0.272016,-0.37176 0.911543,0.74801 0.733194,1.28377 6.011375,6.4377 6.592908,6.4377 0.164333,0 0.42617,-0.27958 0.581864,-0.62129 0.228881,-0.50235 0.122871,-1.07216 -0.553765,-2.97656 -1.513141,-4.25871 -1.648754,-4.86944 -1.552255,-6.990637 0.07225,-1.588125 0.22492,-2.212306 0.716653,-2.929924 0.723101,-1.05527 2.109618,-2.111001 3.577008,-2.723613 l 1.02685,-0.428698 -0.70776,0.86088 c -0.38928,0.473485 -1.01422,1.497549 -1.38878,2.2757 -1.197257,2.487365 -0.71173,4.271332 2.23764,8.221782 2.17325,2.91088 2.71034,3.98394 2.8964,5.78672 l 0.15122,1.46518 0.51789,-0.63904 c 0.47579,-0.5871 0.50646,-0.94016 0.3773,-4.34321 -0.0773,-2.03729 -0.0819,-3.40651 -0.0102,-3.04271 0.0717,0.3638 0.59765,2.48422 1.16867,4.71203 1.10076,4.29449 1.20163,5.07162 0.76434,5.8887 -0.41827,0.78155 0.18092,0.64545 1.06923,-0.24287 0.9029,-0.90289 1.52997,-2.90247 1.80723,-5.76286 l 0.20176,-2.08146 0.3397,1.90734 c 0.38574,2.16587 0.14467,4.45095 -0.74119,7.02576 -0.58354,1.69607 -0.35341,1.98501 0.49178,0.61747 0.72986,-1.18095 2.47936,-2.74787 3.29725,-2.95314 0.35693,-0.0896 0.86595,-0.0367 1.13115,0.11753 0.41318,0.24028 0.3617,0.28156 -0.35969,0.28845 -0.93101,0.009 -1.61749,0.7624 -2.16524,2.37663 -0.5729,1.68836 -1.90383,10.16837 -2.12408,13.53354 -0.25763,3.93642 -0.84344,5.51997 -2.82616,7.63966 -1.87794,2.00767 -4.01012,2.95723 -6.91832,3.08105 -1.48456,0.0632 -2.703994,-0.0283 -3.380566,-0.2538 z m 6.308386,-1.24077 c 3.09005,-1.15613 5.54647,-4.41972 5.8972,-7.835 0.32221,-3.13763 -1.35453,-6.75591 -3.94244,-8.50747 -1.8255,-1.23554 -3.31695,-1.71209 -5.35273,-1.7103 -2.487104,0.002 -4.473964,0.78096 -6.337411,2.48404 -2.006211,1.83357 -2.85836,3.6581 -2.998054,6.41912 -0.141661,2.7999 0.503121,4.60051 2.384549,6.6591 2.812738,3.07758 6.444086,3.95149 10.348886,2.49051 z M 94.909822,121.60351 c 0,-0.24766 -0.154779,-0.66196 -0.343953,-0.92068 -0.319659,-0.43716 -0.366932,-0.41995 -0.669279,0.24363 -0.2383,0.52301 -0.247283,0.80804 -0.03358,1.06554 0.373031,0.44948 1.046808,0.19942 1.046808,-0.38849 z m 15.345838,-0.26521 c 0,-0.65085 -0.26572,-1.34456 -0.51501,-1.34456 -0.28665,0 -0.74569,1.13843 -0.61345,1.52136 0.18786,0.54396 1.12846,0.3966 1.12846,-0.1768 z m -11.112505,-2.38125 c 0,-0.65085 -0.26571,-1.34456 -0.515003,-1.34456 -0.290404,0 -0.837494,1.32559 -0.663369,1.60733 0.287721,0.46554 1.178372,0.26693 1.178372,-0.26277 z m 7.541585,-0.52052 c -0.26925,-1.09114 -0.61259,-1.25411 -0.92286,-0.43806 -0.32329,0.85034 0.0466,1.53154 0.69634,1.28223 0.28022,-0.10753 0.34694,-0.35617 0.22652,-0.84417 z m -3.65987,-0.1851 c 0.19149,-0.49903 -0.98186,-3.64641 -1.25484,-3.36595 -0.40731,0.41847 -1.28923,2.98669 -1.15012,3.34922 0.36831,0.95978 2.03861,0.97141 2.40496,0.0167 z"
         id="path60"
         inkscape:connector-curvature="0" />
    </g>
  </g>
</svg>
